  0
SECTION
  2
BLOCKS
  0
ENDSEC
  0
SECTION
  2
ENTITIES
  0
LINE
  8
0
 10
32.5
 20
20
 11
37.5
 21
20
  0
LINE
  8
0
 10
37.5
 20
20
 11
37.5
 21
17
  0
LINE
  8
0
 10
37.5
 20
17
 11
42.5
 21
17
  0
LINE
  8
0
 10
42.5
 20
17
 11
42.5
 21
20
  0
LINE
  8
0
 10
42.5
 20
20
 11
47.5
 21
20
  0
LINE
  8
0
 10
47.5
 20
20
 11
47.5
 21
17
  0
LINE
  8
0
 10
47.5
 20
17
 11
52.5
 21
17
  0
LINE
  8
0
 10
52.5
 20
17
 11
52.5
 21
33.3333
  0
LINE
  8
0
 10
52.5
 20
33.3333
 11
55.5
 21
33.3333
  0
LINE
  8
0
 10
55.5
 20
33.3333
 11
55.5
 21
46.6667
  0
LINE
  8
0
 10
55.5
 20
46.6667
 11
52.5
 21
46.6667
  0
LINE
  8
0
 10
52.5
 20
46.6667
 11
52.5
 21
60
  0
LINE
  8
0
 10
52.5
 20
60
 11
55.5
 21
60
  0
LINE
  8
0
 10
55.5
 20
60
 11
55.5
 21
73.3333
  0
LINE
  8
0
 10
55.5
 20
73.3333
 11
52.5
 21
73.3333
  0
LINE
  8
0
 10
52.5
 20
73.3333
 11
52.5
 21
86.6667
  0
LINE
  8
0
 10
52.5
 20
86.6667
 11
55.5
 21
86.6667
  0
LINE
  8
0
 10
55.5
 20
86.6667
 11
55.5
 21
100
  0
LINE
  8
0
 10
55.5
 20
100
 11
22.5
 21
100
  0
LINE
  8
0
 10
22.5
 20
100
 11
22.5
 21
86.6667
  0
LINE
  8
0
 10
22.5
 20
86.6667
 11
19.5
 21
86.6667
  0
LINE
  8
0
 10
19.5
 20
86.6667
 11
19.5
 21
73.3333
  0
LINE
  8
0
 10
19.5
 20
73.3333
 11
22.5
 21
73.3333
  0
LINE
  8
0
 10
22.5
 20
73.3333
 11
22.5
 21
60
  0
LINE
  8
0
 10
22.5
 20
60
 11
19.5
 21
60
  0
LINE
  8
0
 10
19.5
 20
60
 11
19.5
 21
46.6667
  0
LINE
  8
0
 10
19.5
 20
46.6667
 11
22.5
 21
46.6667
  0
LINE
  8
0
 10
22.5
 20
46.6667
 11
22.5
 21
33.3333
  0
LINE
  8
0
 10
22.5
 20
33.3333
 11
19.5
 21
33.3333
  0
LINE
  8
0
 10
19.5
 20
33.3333
 11
19.5
 21
20
  0
LINE
  8
0
 10
19.5
 20
20
 11
27.5
 21
20
  0
LINE
  8
0
 10
27.5
 20
20
 11
27.5
 21
17
  0
LINE
  8
0
 10
27.5
 20
17
 11
32.5
 21
17
  0
LINE
  8
0
 10
32.5
 20
17
 11
32.5
 21
20
  0
LINE
  8
0
 10
-5
 20
20
 11
0
 21
20
  0
LINE
  8
0
 10
0
 20
20
 11
0
 21
17
  0
LINE
  8
0
 10
0
 20
17
 11
5
 21
17
  0
LINE
  8
0
 10
5
 20
17
 11
5
 21
20
  0
LINE
  8
0
 10
5
 20
20
 11
10
 21
20
  0
LINE
  8
0
 10
10
 20
20
 11
10
 21
17
  0
LINE
  8
0
 10
10
 20
17
 11
15
 21
17
  0
LINE
  8
0
 10
15
 20
17
 11
15
 21
33.3333
  0
LINE
  8
0
 10
15
 20
33.3333
 11
18
 21
33.3333
  0
LINE
  8
0
 10
18
 20
33.3333
 11
18
 21
46.6667
  0
LINE
  8
0
 10
18
 20
46.6667
 11
15
 21
46.6667
  0
LINE
  8
0
 10
15
 20
46.6667
 11
15
 21
60
  0
LINE
  8
0
 10
15
 20
60
 11
18
 21
60
  0
LINE
  8
0
 10
18
 20
60
 11
18
 21
73.3333
  0
LINE
  8
0
 10
18
 20
73.3333
 11
15
 21
73.3333
  0
LINE
  8
0
 10
15
 20
73.3333
 11
15
 21
86.6667
  0
LINE
  8
0
 10
15
 20
86.6667
 11
18
 21
86.6667
  0
LINE
  8
0
 10
18
 20
86.6667
 11
18
 21
100
  0
LINE
  8
0
 10
18
 20
100
 11
3
 21
100
  0
LINE
  8
0
 10
3
 20
100
 11
3
 21
97.5
  0
LINE
  8
0
 10
3
 20
97.5
 11
-3
 21
97.5
  0
LINE
  8
0
 10
-3
 20
97.5
 11
-3
 21
100
  0
LINE
  8
0
 10
-3
 20
100
 11
-15
 21
100
  0
LINE
  8
0
 10
-15
 20
100
 11
-15
 21
86.6667
  0
LINE
  8
0
 10
-15
 20
86.6667
 11
-18
 21
86.6667
  0
LINE
  8
0
 10
-18
 20
86.6667
 11
-18
 21
73.3333
  0
LINE
  8
0
 10
-18
 20
73.3333
 11
-15
 21
73.3333
  0
LINE
  8
0
 10
-15
 20
73.3333
 11
-15
 21
60
  0
LINE
  8
0
 10
-15
 20
60
 11
-18
 21
60
  0
LINE
  8
0
 10
-18
 20
60
 11
-18
 21
46.6667
  0
LINE
  8
0
 10
-18
 20
46.6667
 11
-15
 21
46.6667
  0
LINE
  8
0
 10
-15
 20
46.6667
 11
-15
 21
33.3333
  0
LINE
  8
0
 10
-15
 20
33.3333
 11
-18
 21
33.3333
  0
LINE
  8
0
 10
-18
 20
33.3333
 11
-18
 21
20
  0
LINE
  8
0
 10
-18
 20
20
 11
-10
 21
20
  0
LINE
  8
0
 10
-10
 20
20
 11
-10
 21
17
  0
LINE
  8
0
 10
-10
 20
17
 11
-5
 21
17
  0
LINE
  8
0
 10
-5
 20
17
 11
-5
 21
20
  0
LINE
  8
0
 10
-5
 20
-12.5
 11
0
 21
-12.5
  0
LINE
  8
0
 10
0
 20
-12.5
 11
0
 21
-15.5
  0
LINE
  8
0
 10
0
 20
-15.5
 11
5
 21
-15.5
  0
LINE
  8
0
 10
5
 20
-15.5
 11
5
 21
-12.5
  0
LINE
  8
0
 10
5
 20
-12.5
 11
10
 21
-12.5
  0
LINE
  8
0
 10
10
 20
-12.5
 11
10
 21
-15.5
  0
LINE
  8
0
 10
10
 20
-15.5
 11
15
 21
-15.5
  0
LINE
  8
0
 10
15
 20
-15.5
 11
15
 21
-8.33333
  0
LINE
  8
0
 10
15
 20
-8.33333
 11
18
 21
-8.33333
  0
LINE
  8
0
 10
18
 20
-8.33333
 11
18
 21
-4.16667
  0
LINE
  8
0
 10
18
 20
-4.16667
 11
15
 21
-4.16667
  0
LINE
  8
0
 10
15
 20
-4.16667
 11
15
 21
0
  0
LINE
  8
0
 10
15
 20
0
 11
18
 21
0
  0
LINE
  8
0
 10
18
 20
0
 11
18
 21
4.16666
  0
LINE
  8
0
 10
18
 20
4.16666
 11
15
 21
4.16666
  0
LINE
  8
0
 10
15
 20
4.16666
 11
15
 21
8.33331
  0
LINE
  8
0
 10
15
 20
8.33331
 11
18
 21
8.33331
  0
LINE
  8
0
 10
18
 20
8.33331
 11
18
 21
12.5
  0
LINE
  8
0
 10
18
 20
12.5
 11
10
 21
12.5
  0
LINE
  8
0
 10
10
 20
12.5
 11
10
 21
15.5
  0
LINE
  8
0
 10
10
 20
15.5
 11
5
 21
15.5
  0
LINE
  8
0
 10
5
 20
15.5
 11
5
 21
12.5
  0
LINE
  8
0
 10
5
 20
12.5
 11
0
 21
12.5
  0
LINE
  8
0
 10
0
 20
12.5
 11
0
 21
15.5
  0
LINE
  8
0
 10
0
 20
15.5
 11
-5
 21
15.5
  0
LINE
  8
0
 10
-5
 20
15.5
 11
-5
 21
12.5
  0
LINE
  8
0
 10
-5
 20
12.5
 11
-10
 21
12.5
  0
LINE
  8
0
 10
-10
 20
12.5
 11
-10
 21
15.5
  0
LINE
  8
0
 10
-10
 20
15.5
 11
-15
 21
15.5
  0
LINE
  8
0
 10
-15
 20
15.5
 11
-15
 21
8.33333
  0
LINE
  8
0
 10
-15
 20
8.33333
 11
-18
 21
8.33333
  0
LINE
  8
0
 10
-18
 20
8.33333
 11
-18
 21
4.16666
  0
LINE
  8
0
 10
-18
 20
4.16666
 11
-15
 21
4.16666
  0
LINE
  8
0
 10
-15
 20
4.16666
 11
-15
 21
0
  0
LINE
  8
0
 10
-15
 20
0
 11
-18
 21
0
  0
LINE
  8
0
 10
-18
 20
0
 11
-18
 21
-4.16667
  0
LINE
  8
0
 10
-18
 20
-4.16667
 11
-15
 21
-4.16667
  0
LINE
  8
0
 10
-15
 20
-4.16667
 11
-15
 21
-8.33334
  0
LINE
  8
0
 10
-15
 20
-8.33334
 11
-18
 21
-8.33334
  0
LINE
  8
0
 10
-18
 20
-8.33334
 11
-18
 21
-12.5
  0
LINE
  8
0
 10
-18
 20
-12.5
 11
-10
 21
-12.5
  0
LINE
  8
0
 10
-10
 20
-12.5
 11
-10
 21
-15.5
  0
LINE
  8
0
 10
-10
 20
-15.5
 11
-5
 21
-15.5
  0
LINE
  8
0
 10
-5
 20
-15.5
 11
-5
 21
-12.5
  0
LINE
  8
0
 10
-0.156967
 20
5.50493
 11
-0.313324
 21
5.5197
  0
LINE
  8
0
 10
-0.313324
 20
5.5197
 11
-0.468445
 21
5.54428
  0
LINE
  8
0
 10
-0.468445
 20
5.54428
 11
-0.621719
 21
5.57854
  0
LINE
  8
0
 10
-0.621719
 20
5.57854
 11
-0.772537
 21
5.62234
  0
LINE
  8
0
 10
-0.772537
 20
5.62234
 11
-0.920303
 21
5.67555
  0
LINE
  8
0
 10
-0.920303
 20
5.67555
 11
-1.06444
 21
5.73793
  0
LINE
  8
0
 10
-1.06444
 20
5.73793
 11
-1.20438
 21
5.80922
  0
LINE
  8
0
 10
-1.20438
 20
5.80922
 11
-1.33955
 21
5.88918
  0
LINE
  8
0
 10
-1.33955
 20
5.88918
 11
-1.46945
 21
5.97745
  0
LINE
  8
0
 10
-1.46945
 20
5.97745
 11
-1.59355
 21
6.07372
  0
LINE
  8
0
 10
-1.59355
 20
6.07372
 11
-1.71136
 21
6.17757
  0
LINE
  8
0
 10
-1.71136
 20
6.17757
 11
-1.82242
 21
6.28862
  0
LINE
  8
0
 10
-1.82242
 20
6.28862
 11
-1.92627
 21
6.40643
  0
LINE
  8
0
 10
-1.92627
 20
6.40643
 11
-2.02254
 21
6.53053
  0
LINE
  8
0
 10
-2.02254
 20
6.53053
 11
-2.11081
 21
6.66043
  0
LINE
  8
0
 10
-2.11081
 20
6.66043
 11
-2.19077
 21
6.79561
  0
LINE
  8
0
 10
-2.19077
 20
6.79561
 11
-2.26205
 21
6.93555
  0
LINE
  8
0
 10
-2.26205
 20
6.93555
 11
-2.32443
 21
7.07968
  0
LINE
  8
0
 10
-2.32443
 20
7.07968
 11
-2.37764
 21
7.22745
  0
LINE
  8
0
 10
-2.37764
 20
7.22745
 11
-2.42145
 21
7.37827
  0
LINE
  8
0
 10
-2.42145
 20
7.37827
 11
-2.4557
 21
7.53154
  0
LINE
  8
0
 10
-2.4557
 20
7.53154
 11
-2.48029
 21
7.68666
  0
LINE
  8
0
 10
-2.48029
 20
7.68666
 11
-2.49506
 21
7.84302
  0
LINE
  8
0
 10
-2.49506
 20
7.84302
 11
-2.49998
 21
8
  0
LINE
  8
0
 10
-2.49998
 20
8
 11
-2.49506
 21
8.15697
  0
LINE
  8
0
 10
-2.49506
 20
8.15697
 11
-2.48029
 21
8.31332
  0
LINE
  8
0
 10
-2.48029
 20
8.31332
 11
-2.4557
 21
8.46844
  0
LINE
  8
0
 10
-2.4557
 20
8.46844
 11
-2.42145
 21
8.62172
  0
LINE
  8
0
 10
-2.42145
 20
8.62172
 11
-2.37764
 21
8.77254
  0
LINE
  8
0
 10
-2.37764
 20
8.77254
 11
-2.32443
 21
8.9203
  0
LINE
  8
0
 10
-2.32443
 20
8.9203
 11
-2.26205
 21
9.06444
  0
LINE
  8
0
 10
-2.26205
 20
9.06444
 11
-2.19077
 21
9.20438
  0
LINE
  8
0
 10
-2.19077
 20
9.20438
 11
-2.11081
 21
9.33955
  0
LINE
  8
0
 10
-2.11081
 20
9.33955
 11
-2.02254
 21
9.46945
  0
LINE
  8
0
 10
-2.02254
 20
9.46945
 11
-1.92627
 21
9.59355
  0
LINE
  8
0
 10
-1.92627
 20
9.59355
 11
-1.82242
 21
9.71136
  0
LINE
  8
0
 10
-1.82242
 20
9.71136
 11
-1.71136
 21
9.82242
  0
LINE
  8
0
 10
-1.71136
 20
9.82242
 11
-1.59355
 21
9.92627
  0
LINE
  8
0
 10
-1.59355
 20
9.92627
 11
-1.46945
 21
10.0225
  0
LINE
  8
0
 10
-1.46945
 20
10.0225
 11
-1.33955
 21
10.1108
  0
LINE
  8
0
 10
-1.33955
 20
10.1108
 11
-1.20438
 21
10.1908
  0
LINE
  8
0
 10
-1.20438
 20
10.1908
 11
-1.06444
 21
10.2621
  0
LINE
  8
0
 10
-1.06444
 20
10.2621
 11
-0.920303
 21
10.3244
  0
LINE
  8
0
 10
-0.920303
 20
10.3244
 11
-0.772537
 21
10.3776
  0
LINE
  8
0
 10
-0.772537
 20
10.3776
 11
-0.621719
 21
10.4214
  0
LINE
  8
0
 10
-0.621719
 20
10.4214
 11
-0.468445
 21
10.4557
  0
LINE
  8
0
 10
-0.468445
 20
10.4557
 11
-0.313324
 21
10.4803
  0
LINE
  8
0
 10
-0.313324
 20
10.4803
 11
-0.156967
 21
10.4951
  0
LINE
  8
0
 10
-0.156967
 20
10.4951
 11
0
 21
10.5
  0
LINE
  8
0
 10
0
 20
10.5
 11
0.156967
 21
10.4951
  0
LINE
  8
0
 10
0.156967
 20
10.4951
 11
0.313324
 21
10.4803
  0
LINE
  8
0
 10
0.313324
 20
10.4803
 11
0.468445
 21
10.4557
  0
LINE
  8
0
 10
0.468445
 20
10.4557
 11
0.621719
 21
10.4214
  0
LINE
  8
0
 10
0.621719
 20
10.4214
 11
0.772537
 21
10.3776
  0
LINE
  8
0
 10
0.772537
 20
10.3776
 11
0.920303
 21
10.3244
  0
LINE
  8
0
 10
0.920303
 20
10.3244
 11
1.06444
 21
10.2621
  0
LINE
  8
0
 10
1.06444
 20
10.2621
 11
1.20438
 21
10.1908
  0
LINE
  8
0
 10
1.20438
 20
10.1908
 11
1.33955
 21
10.1108
  0
LINE
  8
0
 10
1.33955
 20
10.1108
 11
1.46945
 21
10.0225
  0
LINE
  8
0
 10
1.46945
 20
10.0225
 11
1.59355
 21
9.92627
  0
LINE
  8
0
 10
1.59355
 20
9.92627
 11
1.71136
 21
9.82242
  0
LINE
  8
0
 10
1.71136
 20
9.82242
 11
1.82242
 21
9.71136
  0
LINE
  8
0
 10
1.82242
 20
9.71136
 11
1.92627
 21
9.59355
  0
LINE
  8
0
 10
1.92627
 20
9.59355
 11
2.02254
 21
9.46945
  0
LINE
  8
0
 10
2.02254
 20
9.46945
 11
2.11081
 21
9.33955
  0
LINE
  8
0
 10
2.11081
 20
9.33955
 11
2.19077
 21
9.20438
  0
LINE
  8
0
 10
2.19077
 20
9.20438
 11
2.26205
 21
9.06444
  0
LINE
  8
0
 10
2.26205
 20
9.06444
 11
2.32443
 21
8.9203
  0
LINE
  8
0
 10
2.32443
 20
8.9203
 11
2.37764
 21
8.77254
  0
LINE
  8
0
 10
2.37764
 20
8.77254
 11
2.42145
 21
8.62172
  0
LINE
  8
0
 10
2.42145
 20
8.62172
 11
2.4557
 21
8.46844
  0
LINE
  8
0
 10
2.4557
 20
8.46844
 11
2.48029
 21
8.31332
  0
LINE
  8
0
 10
2.48029
 20
8.31332
 11
2.49506
 21
8.15697
  0
LINE
  8
0
 10
2.49506
 20
8.15697
 11
2.5
 21
7.99998
  0
LINE
  8
0
 10
2.5
 20
7.99998
 11
2.49506
 21
7.84302
  0
LINE
  8
0
 10
2.49506
 20
7.84302
 11
2.48029
 21
7.68666
  0
LINE
  8
0
 10
2.48029
 20
7.68666
 11
2.4557
 21
7.53154
  0
LINE
  8
0
 10
2.4557
 20
7.53154
 11
2.42145
 21
7.37827
  0
LINE
  8
0
 10
2.42145
 20
7.37827
 11
2.37764
 21
7.22745
  0
LINE
  8
0
 10
2.37764
 20
7.22745
 11
2.32443
 21
7.07968
  0
LINE
  8
0
 10
2.32443
 20
7.07968
 11
2.26205
 21
6.93555
  0
LINE
  8
0
 10
2.26205
 20
6.93555
 11
2.19077
 21
6.79561
  0
LINE
  8
0
 10
2.19077
 20
6.79561
 11
2.11081
 21
6.66043
  0
LINE
  8
0
 10
2.11081
 20
6.66043
 11
2.02254
 21
6.53053
  0
LINE
  8
0
 10
2.02254
 20
6.53053
 11
1.92627
 21
6.40643
  0
LINE
  8
0
 10
1.92627
 20
6.40643
 11
1.82242
 21
6.28862
  0
LINE
  8
0
 10
1.82242
 20
6.28862
 11
1.71136
 21
6.17757
  0
LINE
  8
0
 10
1.71136
 20
6.17757
 11
1.59355
 21
6.07372
  0
LINE
  8
0
 10
1.59355
 20
6.07372
 11
1.46945
 21
5.97745
  0
LINE
  8
0
 10
1.46945
 20
5.97745
 11
1.33955
 21
5.88918
  0
LINE
  8
0
 10
1.33955
 20
5.88918
 11
1.20438
 21
5.80922
  0
LINE
  8
0
 10
1.20438
 20
5.80922
 11
1.06444
 21
5.73793
  0
LINE
  8
0
 10
1.06444
 20
5.73793
 11
0.920303
 21
5.67555
  0
LINE
  8
0
 10
0.920303
 20
5.67555
 11
0.772537
 21
5.62234
  0
LINE
  8
0
 10
0.772537
 20
5.62234
 11
0.621719
 21
5.57854
  0
LINE
  8
0
 10
0.621719
 20
5.57854
 11
0.468445
 21
5.54428
  0
LINE
  8
0
 10
0.468445
 20
5.54428
 11
0.313324
 21
5.5197
  0
LINE
  8
0
 10
0.313324
 20
5.5197
 11
0.156967
 21
5.50493
  0
LINE
  8
0
 10
0.156967
 20
5.50493
 11
0
 21
5.5
  0
LINE
  8
0
 10
0
 20
5.5
 11
-0.156967
 21
5.50493
  0
LINE
  8
0
 10
-5.73537
 20
3.15808
 11
-5.89212
 21
3.16794
  0
LINE
  8
0
 10
-5.89212
 20
3.16794
 11
-6.04793
 21
3.18762
  0
LINE
  8
0
 10
-6.04793
 20
3.18762
 11
-6.20221
 21
3.21706
  0
LINE
  8
0
 10
-6.20221
 20
3.21706
 11
-6.35432
 21
3.25612
  0
LINE
  8
0
 10
-6.35432
 20
3.25612
 11
-6.50369
 21
3.30464
  0
LINE
  8
0
 10
-6.50369
 20
3.30464
 11
-6.64972
 21
3.36246
  0
LINE
  8
0
 10
-6.64972
 20
3.36246
 11
-6.79182
 21
3.42934
  0
LINE
  8
0
 10
-6.79182
 20
3.42934
 11
-6.92944
 21
3.50499
  0
LINE
  8
0
 10
-6.92944
 20
3.50499
 11
-7.06206
 21
3.58914
  0
LINE
  8
0
 10
-7.06206
 20
3.58914
 11
-7.18912
 21
3.68146
  0
LINE
  8
0
 10
-7.18912
 20
3.68146
 11
-7.31012
 21
3.78157
  0
LINE
  8
0
 10
-7.31012
 20
3.78157
 11
-7.42461
 21
3.88908
  0
LINE
  8
0
 10
-7.42461
 20
3.88908
 11
-7.53212
 21
4.00357
  0
LINE
  8
0
 10
-7.53212
 20
4.00357
 11
-7.63223
 21
4.12457
  0
LINE
  8
0
 10
-7.63223
 20
4.12457
 11
-7.72455
 21
4.25163
  0
LINE
  8
0
 10
-7.72455
 20
4.25163
 11
-7.8087
 21
4.38425
  0
LINE
  8
0
 10
-7.8087
 20
4.38425
 11
-7.88437
 21
4.52187
  0
LINE
  8
0
 10
-7.88437
 20
4.52187
 11
-7.95123
 21
4.66397
  0
LINE
  8
0
 10
-7.95123
 20
4.66397
 11
-8.00905
 21
4.81
  0
LINE
  8
0
 10
-8.00905
 20
4.81
 11
-8.05759
 21
4.95937
  0
LINE
  8
0
 10
-8.05759
 20
4.95937
 11
-8.09663
 21
5.1115
  0
LINE
  8
0
 10
-8.09663
 20
5.1115
 11
-8.12607
 21
5.26576
  0
LINE
  8
0
 10
-8.12607
 20
5.26576
 11
-8.14575
 21
5.42157
  0
LINE
  8
0
 10
-8.14575
 20
5.42157
 11
-8.15561
 21
5.57832
  0
LINE
  8
0
 10
-8.15561
 20
5.57832
 11
-8.15561
 21
5.73537
  0
LINE
  8
0
 10
-8.15561
 20
5.73537
 11
-8.14575
 21
5.89212
  0
LINE
  8
0
 10
-8.14575
 20
5.89212
 11
-8.12607
 21
6.04793
  0
LINE
  8
0
 10
-8.12607
 20
6.04793
 11
-8.09663
 21
6.20221
  0
LINE
  8
0
 10
-8.09663
 20
6.20221
 11
-8.05759
 21
6.35432
  0
LINE
  8
0
 10
-8.05759
 20
6.35432
 11
-8.00905
 21
6.50369
  0
LINE
  8
0
 10
-8.00905
 20
6.50369
 11
-7.95123
 21
6.64972
  0
LINE
  8
0
 10
-7.95123
 20
6.64972
 11
-7.88437
 21
6.79182
  0
LINE
  8
0
 10
-7.88437
 20
6.79182
 11
-7.8087
 21
6.92944
  0
LINE
  8
0
 10
-7.8087
 20
6.92944
 11
-7.72455
 21
7.06206
  0
LINE
  8
0
 10
-7.72455
 20
7.06206
 11
-7.63223
 21
7.18912
  0
LINE
  8
0
 10
-7.63223
 20
7.18912
 11
-7.53212
 21
7.31012
  0
LINE
  8
0
 10
-7.53212
 20
7.31012
 11
-7.42461
 21
7.42461
  0
LINE
  8
0
 10
-7.42461
 20
7.42461
 11
-7.31012
 21
7.53212
  0
LINE
  8
0
 10
-7.31012
 20
7.53212
 11
-7.18912
 21
7.63223
  0
LINE
  8
0
 10
-7.18912
 20
7.63223
 11
-7.06206
 21
7.72455
  0
LINE
  8
0
 10
-7.06206
 20
7.72455
 11
-6.92944
 21
7.8087
  0
LINE
  8
0
 10
-6.92944
 20
7.8087
 11
-6.79182
 21
7.88437
  0
LINE
  8
0
 10
-6.79182
 20
7.88437
 11
-6.64972
 21
7.95123
  0
LINE
  8
0
 10
-6.64972
 20
7.95123
 11
-6.50369
 21
8.00905
  0
LINE
  8
0
 10
-6.50369
 20
8.00905
 11
-6.35432
 21
8.05759
  0
LINE
  8
0
 10
-6.35432
 20
8.05759
 11
-6.20221
 21
8.09663
  0
LINE
  8
0
 10
-6.20221
 20
8.09663
 11
-6.04793
 21
8.12607
  0
LINE
  8
0
 10
-6.04793
 20
8.12607
 11
-5.89212
 21
8.14575
  0
LINE
  8
0
 10
-5.89212
 20
8.14575
 11
-5.73537
 21
8.15561
  0
LINE
  8
0
 10
-5.73537
 20
8.15561
 11
-5.57832
 21
8.15561
  0
LINE
  8
0
 10
-5.57832
 20
8.15561
 11
-5.42157
 21
8.14575
  0
LINE
  8
0
 10
-5.42157
 20
8.14575
 11
-5.26576
 21
8.12607
  0
LINE
  8
0
 10
-5.26576
 20
8.12607
 11
-5.1115
 21
8.09663
  0
LINE
  8
0
 10
-5.1115
 20
8.09663
 11
-4.95937
 21
8.05759
  0
LINE
  8
0
 10
-4.95937
 20
8.05759
 11
-4.81
 21
8.00905
  0
LINE
  8
0
 10
-4.81
 20
8.00905
 11
-4.66397
 21
7.95123
  0
LINE
  8
0
 10
-4.66397
 20
7.95123
 11
-4.52187
 21
7.88437
  0
LINE
  8
0
 10
-4.52187
 20
7.88437
 11
-4.38425
 21
7.8087
  0
LINE
  8
0
 10
-4.38425
 20
7.8087
 11
-4.25163
 21
7.72455
  0
LINE
  8
0
 10
-4.25163
 20
7.72455
 11
-4.12457
 21
7.63223
  0
LINE
  8
0
 10
-4.12457
 20
7.63223
 11
-4.00357
 21
7.53212
  0
LINE
  8
0
 10
-4.00357
 20
7.53212
 11
-3.88908
 21
7.42461
  0
LINE
  8
0
 10
-3.88908
 20
7.42461
 11
-3.78157
 21
7.31012
  0
LINE
  8
0
 10
-3.78157
 20
7.31012
 11
-3.68146
 21
7.18912
  0
LINE
  8
0
 10
-3.68146
 20
7.18912
 11
-3.58914
 21
7.06206
  0
LINE
  8
0
 10
-3.58914
 20
7.06206
 11
-3.50499
 21
6.92944
  0
LINE
  8
0
 10
-3.50499
 20
6.92944
 11
-3.42934
 21
6.79182
  0
LINE
  8
0
 10
-3.42934
 20
6.79182
 11
-3.36246
 21
6.64972
  0
LINE
  8
0
 10
-3.36246
 20
6.64972
 11
-3.30464
 21
6.50369
  0
LINE
  8
0
 10
-3.30464
 20
6.50369
 11
-3.25612
 21
6.35432
  0
LINE
  8
0
 10
-3.25612
 20
6.35432
 11
-3.21706
 21
6.20221
  0
LINE
  8
0
 10
-3.21706
 20
6.20221
 11
-3.18762
 21
6.04793
  0
LINE
  8
0
 10
-3.18762
 20
6.04793
 11
-3.16794
 21
5.89212
  0
LINE
  8
0
 10
-3.16794
 20
5.89212
 11
-3.15808
 21
5.73537
  0
LINE
  8
0
 10
-3.15808
 20
5.73537
 11
-3.15808
 21
5.57832
  0
LINE
  8
0
 10
-3.15808
 20
5.57832
 11
-3.16794
 21
5.42157
  0
LINE
  8
0
 10
-3.16794
 20
5.42157
 11
-3.18762
 21
5.26576
  0
LINE
  8
0
 10
-3.18762
 20
5.26576
 11
-3.21706
 21
5.1115
  0
LINE
  8
0
 10
-3.21706
 20
5.1115
 11
-3.25612
 21
4.95937
  0
LINE
  8
0
 10
-3.25612
 20
4.95937
 11
-3.30464
 21
4.81
  0
LINE
  8
0
 10
-3.30464
 20
4.81
 11
-3.36246
 21
4.66397
  0
LINE
  8
0
 10
-3.36246
 20
4.66397
 11
-3.42934
 21
4.52187
  0
LINE
  8
0
 10
-3.42934
 20
4.52187
 11
-3.50499
 21
4.38425
  0
LINE
  8
0
 10
-3.50499
 20
4.38425
 11
-3.58914
 21
4.25163
  0
LINE
  8
0
 10
-3.58914
 20
4.25163
 11
-3.68146
 21
4.12457
  0
LINE
  8
0
 10
-3.68146
 20
4.12457
 11
-3.78157
 21
4.00357
  0
LINE
  8
0
 10
-3.78157
 20
4.00357
 11
-3.88908
 21
3.88908
  0
LINE
  8
0
 10
-3.88908
 20
3.88908
 11
-4.00357
 21
3.78157
  0
LINE
  8
0
 10
-4.00357
 20
3.78157
 11
-4.12457
 21
3.68146
  0
LINE
  8
0
 10
-4.12457
 20
3.68146
 11
-4.25163
 21
3.58914
  0
LINE
  8
0
 10
-4.25163
 20
3.58914
 11
-4.38425
 21
3.50499
  0
LINE
  8
0
 10
-4.38425
 20
3.50499
 11
-4.52187
 21
3.42934
  0
LINE
  8
0
 10
-4.52187
 20
3.42934
 11
-4.66397
 21
3.36246
  0
LINE
  8
0
 10
-4.66397
 20
3.36246
 11
-4.81
 21
3.30464
  0
LINE
  8
0
 10
-4.81
 20
3.30464
 11
-4.95937
 21
3.25612
  0
LINE
  8
0
 10
-4.95937
 20
3.25612
 11
-5.1115
 21
3.21706
  0
LINE
  8
0
 10
-5.1115
 20
3.21706
 11
-5.26576
 21
3.18762
  0
LINE
  8
0
 10
-5.26576
 20
3.18762
 11
-5.42157
 21
3.16794
  0
LINE
  8
0
 10
-5.42157
 20
3.16794
 11
-5.57832
 21
3.15808
  0
LINE
  8
0
 10
-5.57832
 20
3.15808
 11
-5.73537
 21
3.15808
  0
LINE
  8
0
 10
5.57832
 20
3.15808
 11
5.42157
 21
3.16794
  0
LINE
  8
0
 10
5.42157
 20
3.16794
 11
5.26576
 21
3.18762
  0
LINE
  8
0
 10
5.26576
 20
3.18762
 11
5.1115
 21
3.21706
  0
LINE
  8
0
 10
5.1115
 20
3.21706
 11
4.95937
 21
3.25612
  0
LINE
  8
0
 10
4.95937
 20
3.25612
 11
4.81
 21
3.30464
  0
LINE
  8
0
 10
4.81
 20
3.30464
 11
4.66397
 21
3.36246
  0
LINE
  8
0
 10
4.66397
 20
3.36246
 11
4.52187
 21
3.42934
  0
LINE
  8
0
 10
4.52187
 20
3.42934
 11
4.38425
 21
3.50499
  0
LINE
  8
0
 10
4.38425
 20
3.50499
 11
4.25163
 21
3.58914
  0
LINE
  8
0
 10
4.25163
 20
3.58914
 11
4.12457
 21
3.68146
  0
LINE
  8
0
 10
4.12457
 20
3.68146
 11
4.00357
 21
3.78157
  0
LINE
  8
0
 10
4.00357
 20
3.78157
 11
3.88908
 21
3.88908
  0
LINE
  8
0
 10
3.88908
 20
3.88908
 11
3.78157
 21
4.00357
  0
LINE
  8
0
 10
3.78157
 20
4.00357
 11
3.68146
 21
4.12457
  0
LINE
  8
0
 10
3.68146
 20
4.12457
 11
3.58914
 21
4.25163
  0
LINE
  8
0
 10
3.58914
 20
4.25163
 11
3.50499
 21
4.38425
  0
LINE
  8
0
 10
3.50499
 20
4.38425
 11
3.42934
 21
4.52187
  0
LINE
  8
0
 10
3.42934
 20
4.52187
 11
3.36246
 21
4.66397
  0
LINE
  8
0
 10
3.36246
 20
4.66397
 11
3.30464
 21
4.81
  0
LINE
  8
0
 10
3.30464
 20
4.81
 11
3.25612
 21
4.95937
  0
LINE
  8
0
 10
3.25612
 20
4.95937
 11
3.21706
 21
5.1115
  0
LINE
  8
0
 10
3.21706
 20
5.1115
 11
3.18762
 21
5.26576
  0
LINE
  8
0
 10
3.18762
 20
5.26576
 11
3.16794
 21
5.42157
  0
LINE
  8
0
 10
3.16794
 20
5.42157
 11
3.15808
 21
5.57832
  0
LINE
  8
0
 10
3.15808
 20
5.57832
 11
3.15808
 21
5.73537
  0
LINE
  8
0
 10
3.15808
 20
5.73537
 11
3.16794
 21
5.89212
  0
LINE
  8
0
 10
3.16794
 20
5.89212
 11
3.18762
 21
6.04793
  0
LINE
  8
0
 10
3.18762
 20
6.04793
 11
3.21706
 21
6.20221
  0
LINE
  8
0
 10
3.21706
 20
6.20221
 11
3.25612
 21
6.35432
  0
LINE
  8
0
 10
3.25612
 20
6.35432
 11
3.30464
 21
6.50369
  0
LINE
  8
0
 10
3.30464
 20
6.50369
 11
3.36246
 21
6.64972
  0
LINE
  8
0
 10
3.36246
 20
6.64972
 11
3.42934
 21
6.79182
  0
LINE
  8
0
 10
3.42934
 20
6.79182
 11
3.50499
 21
6.92944
  0
LINE
  8
0
 10
3.50499
 20
6.92944
 11
3.58914
 21
7.06206
  0
LINE
  8
0
 10
3.58914
 20
7.06206
 11
3.68146
 21
7.18912
  0
LINE
  8
0
 10
3.68146
 20
7.18912
 11
3.78157
 21
7.31012
  0
LINE
  8
0
 10
3.78157
 20
7.31012
 11
3.88908
 21
7.42461
  0
LINE
  8
0
 10
3.88908
 20
7.42461
 11
4.00357
 21
7.53212
  0
LINE
  8
0
 10
4.00357
 20
7.53212
 11
4.12457
 21
7.63223
  0
LINE
  8
0
 10
4.12457
 20
7.63223
 11
4.25163
 21
7.72455
  0
LINE
  8
0
 10
4.25163
 20
7.72455
 11
4.38425
 21
7.8087
  0
LINE
  8
0
 10
4.38425
 20
7.8087
 11
4.52187
 21
7.88437
  0
LINE
  8
0
 10
4.52187
 20
7.88437
 11
4.66397
 21
7.95123
  0
LINE
  8
0
 10
4.66397
 20
7.95123
 11
4.81
 21
8.00905
  0
LINE
  8
0
 10
4.81
 20
8.00905
 11
4.95937
 21
8.05759
  0
LINE
  8
0
 10
4.95937
 20
8.05759
 11
5.1115
 21
8.09663
  0
LINE
  8
0
 10
5.1115
 20
8.09663
 11
5.26576
 21
8.12607
  0
LINE
  8
0
 10
5.26576
 20
8.12607
 11
5.42157
 21
8.14575
  0
LINE
  8
0
 10
5.42157
 20
8.14575
 11
5.57832
 21
8.15561
  0
LINE
  8
0
 10
5.57832
 20
8.15561
 11
5.73537
 21
8.15561
  0
LINE
  8
0
 10
5.73537
 20
8.15561
 11
5.89212
 21
8.14575
  0
LINE
  8
0
 10
5.89212
 20
8.14575
 11
6.04793
 21
8.12607
  0
LINE
  8
0
 10
6.04793
 20
8.12607
 11
6.20221
 21
8.09663
  0
LINE
  8
0
 10
6.20221
 20
8.09663
 11
6.35432
 21
8.05759
  0
LINE
  8
0
 10
6.35432
 20
8.05759
 11
6.50369
 21
8.00905
  0
LINE
  8
0
 10
6.50369
 20
8.00905
 11
6.64972
 21
7.95123
  0
LINE
  8
0
 10
6.64972
 20
7.95123
 11
6.79182
 21
7.88437
  0
LINE
  8
0
 10
6.79182
 20
7.88437
 11
6.92944
 21
7.8087
  0
LINE
  8
0
 10
6.92944
 20
7.8087
 11
7.06206
 21
7.72455
  0
LINE
  8
0
 10
7.06206
 20
7.72455
 11
7.18912
 21
7.63223
  0
LINE
  8
0
 10
7.18912
 20
7.63223
 11
7.31012
 21
7.53212
  0
LINE
  8
0
 10
7.31012
 20
7.53212
 11
7.42461
 21
7.42461
  0
LINE
  8
0
 10
7.42461
 20
7.42461
 11
7.53212
 21
7.31012
  0
LINE
  8
0
 10
7.53212
 20
7.31012
 11
7.63223
 21
7.18912
  0
LINE
  8
0
 10
7.63223
 20
7.18912
 11
7.72455
 21
7.06206
  0
LINE
  8
0
 10
7.72455
 20
7.06206
 11
7.8087
 21
6.92944
  0
LINE
  8
0
 10
7.8087
 20
6.92944
 11
7.88437
 21
6.79182
  0
LINE
  8
0
 10
7.88437
 20
6.79182
 11
7.95123
 21
6.64972
  0
LINE
  8
0
 10
7.95123
 20
6.64972
 11
8.00905
 21
6.50369
  0
LINE
  8
0
 10
8.00905
 20
6.50369
 11
8.05759
 21
6.35432
  0
LINE
  8
0
 10
8.05759
 20
6.35432
 11
8.09663
 21
6.20221
  0
LINE
  8
0
 10
8.09663
 20
6.20221
 11
8.12607
 21
6.04793
  0
LINE
  8
0
 10
8.12607
 20
6.04793
 11
8.14575
 21
5.89212
  0
LINE
  8
0
 10
8.14575
 20
5.89212
 11
8.15561
 21
5.73537
  0
LINE
  8
0
 10
8.15561
 20
5.73537
 11
8.15561
 21
5.57832
  0
LINE
  8
0
 10
8.15561
 20
5.57832
 11
8.14575
 21
5.42157
  0
LINE
  8
0
 10
8.14575
 20
5.42157
 11
8.12607
 21
5.26576
  0
LINE
  8
0
 10
8.12607
 20
5.26576
 11
8.09663
 21
5.1115
  0
LINE
  8
0
 10
8.09663
 20
5.1115
 11
8.05759
 21
4.95937
  0
LINE
  8
0
 10
8.05759
 20
4.95937
 11
8.00905
 21
4.81
  0
LINE
  8
0
 10
8.00905
 20
4.81
 11
7.95123
 21
4.66397
  0
LINE
  8
0
 10
7.95123
 20
4.66397
 11
7.88437
 21
4.52187
  0
LINE
  8
0
 10
7.88437
 20
4.52187
 11
7.8087
 21
4.38425
  0
LINE
  8
0
 10
7.8087
 20
4.38425
 11
7.72455
 21
4.25163
  0
LINE
  8
0
 10
7.72455
 20
4.25163
 11
7.63223
 21
4.12457
  0
LINE
  8
0
 10
7.63223
 20
4.12457
 11
7.53212
 21
4.00357
  0
LINE
  8
0
 10
7.53212
 20
4.00357
 11
7.42461
 21
3.88908
  0
LINE
  8
0
 10
7.42461
 20
3.88908
 11
7.31012
 21
3.78157
  0
LINE
  8
0
 10
7.31012
 20
3.78157
 11
7.18912
 21
3.68146
  0
LINE
  8
0
 10
7.18912
 20
3.68146
 11
7.06206
 21
3.58914
  0
LINE
  8
0
 10
7.06206
 20
3.58914
 11
6.92944
 21
3.50499
  0
LINE
  8
0
 10
6.92944
 20
3.50499
 11
6.79182
 21
3.42934
  0
LINE
  8
0
 10
6.79182
 20
3.42934
 11
6.64972
 21
3.36246
  0
LINE
  8
0
 10
6.64972
 20
3.36246
 11
6.50369
 21
3.30464
  0
LINE
  8
0
 10
6.50369
 20
3.30464
 11
6.35432
 21
3.25612
  0
LINE
  8
0
 10
6.35432
 20
3.25612
 11
6.20221
 21
3.21706
  0
LINE
  8
0
 10
6.20221
 20
3.21706
 11
6.04793
 21
3.18762
  0
LINE
  8
0
 10
6.04793
 20
3.18762
 11
5.89212
 21
3.16794
  0
LINE
  8
0
 10
5.89212
 20
3.16794
 11
5.73537
 21
3.15808
  0
LINE
  8
0
 10
5.73537
 20
3.15808
 11
5.57832
 21
3.15808
  0
LINE
  8
0
 10
-8.15697
 20
-2.49506
 11
-8.31332
 21
-2.48029
  0
LINE
  8
0
 10
-8.31332
 20
-2.48029
 11
-8.46844
 21
-2.4557
  0
LINE
  8
0
 10
-8.46844
 20
-2.4557
 11
-8.62172
 21
-2.42145
  0
LINE
  8
0
 10
-8.62172
 20
-2.42145
 11
-8.77254
 21
-2.37764
  0
LINE
  8
0
 10
-8.77254
 20
-2.37764
 11
-8.9203
 21
-2.32443
  0
LINE
  8
0
 10
-8.9203
 20
-2.32443
 11
-9.06444
 21
-2.26205
  0
LINE
  8
0
 10
-9.06444
 20
-2.26205
 11
-9.20438
 21
-2.19077
  0
LINE
  8
0
 10
-9.20438
 20
-2.19077
 11
-9.33955
 21
-2.11081
  0
LINE
  8
0
 10
-9.33955
 20
-2.11081
 11
-9.46945
 21
-2.02254
  0
LINE
  8
0
 10
-9.46945
 20
-2.02254
 11
-9.59355
 21
-1.92627
  0
LINE
  8
0
 10
-9.59355
 20
-1.92627
 11
-9.71136
 21
-1.82242
  0
LINE
  8
0
 10
-9.71136
 20
-1.82242
 11
-9.82242
 21
-1.71136
  0
LINE
  8
0
 10
-9.82242
 20
-1.71136
 11
-9.92627
 21
-1.59355
  0
LINE
  8
0
 10
-9.92627
 20
-1.59355
 11
-10.0225
 21
-1.46945
  0
LINE
  8
0
 10
-10.0225
 20
-1.46945
 11
-10.1108
 21
-1.33955
  0
LINE
  8
0
 10
-10.1108
 20
-1.33955
 11
-10.1908
 21
-1.20438
  0
LINE
  8
0
 10
-10.1908
 20
-1.20438
 11
-10.2621
 21
-1.06444
  0
LINE
  8
0
 10
-10.2621
 20
-1.06444
 11
-10.3244
 21
-0.920303
  0
LINE
  8
0
 10
-10.3244
 20
-0.920303
 11
-10.3776
 21
-0.772537
  0
LINE
  8
0
 10
-10.3776
 20
-0.772537
 11
-10.4214
 21
-0.621719
  0
LINE
  8
0
 10
-10.4214
 20
-0.621719
 11
-10.4557
 21
-0.468445
  0
LINE
  8
0
 10
-10.4557
 20
-0.468445
 11
-10.4803
 21
-0.313324
  0
LINE
  8
0
 10
-10.4803
 20
-0.313324
 11
-10.4951
 21
-0.156967
  0
LINE
  8
0
 10
-10.4951
 20
-0.156967
 11
-10.5
 21
0
  0
LINE
  8
0
 10
-10.5
 20
0
 11
-10.4951
 21
0.156967
  0
LINE
  8
0
 10
-10.4951
 20
0.156967
 11
-10.4803
 21
0.313324
  0
LINE
  8
0
 10
-10.4803
 20
0.313324
 11
-10.4557
 21
0.468445
  0
LINE
  8
0
 10
-10.4557
 20
0.468445
 11
-10.4214
 21
0.621719
  0
LINE
  8
0
 10
-10.4214
 20
0.621719
 11
-10.3776
 21
0.772537
  0
LINE
  8
0
 10
-10.3776
 20
0.772537
 11
-10.3244
 21
0.920303
  0
LINE
  8
0
 10
-10.3244
 20
0.920303
 11
-10.2621
 21
1.06444
  0
LINE
  8
0
 10
-10.2621
 20
1.06444
 11
-10.1908
 21
1.20438
  0
LINE
  8
0
 10
-10.1908
 20
1.20438
 11
-10.1108
 21
1.33955
  0
LINE
  8
0
 10
-10.1108
 20
1.33955
 11
-10.0225
 21
1.46945
  0
LINE
  8
0
 10
-10.0225
 20
1.46945
 11
-9.92627
 21
1.59355
  0
LINE
  8
0
 10
-9.92627
 20
1.59355
 11
-9.82242
 21
1.71136
  0
LINE
  8
0
 10
-9.82242
 20
1.71136
 11
-9.71136
 21
1.82242
  0
LINE
  8
0
 10
-9.71136
 20
1.82242
 11
-9.59355
 21
1.92627
  0
LINE
  8
0
 10
-9.59355
 20
1.92627
 11
-9.46945
 21
2.02254
  0
LINE
  8
0
 10
-9.46945
 20
2.02254
 11
-9.33955
 21
2.11081
  0
LINE
  8
0
 10
-9.33955
 20
2.11081
 11
-9.20438
 21
2.19077
  0
LINE
  8
0
 10
-9.20438
 20
2.19077
 11
-9.06444
 21
2.26205
  0
LINE
  8
0
 10
-9.06444
 20
2.26205
 11
-8.9203
 21
2.32443
  0
LINE
  8
0
 10
-8.9203
 20
2.32443
 11
-8.77254
 21
2.37764
  0
LINE
  8
0
 10
-8.77254
 20
2.37764
 11
-8.62172
 21
2.42145
  0
LINE
  8
0
 10
-8.62172
 20
2.42145
 11
-8.46844
 21
2.4557
  0
LINE
  8
0
 10
-8.46844
 20
2.4557
 11
-8.31332
 21
2.48029
  0
LINE
  8
0
 10
-8.31332
 20
2.48029
 11
-8.15697
 21
2.49506
  0
LINE
  8
0
 10
-8.15697
 20
2.49506
 11
-7.99998
 21
2.5
  0
LINE
  8
0
 10
-7.99998
 20
2.5
 11
-7.84302
 21
2.49506
  0
LINE
  8
0
 10
-7.84302
 20
2.49506
 11
-7.68666
 21
2.48029
  0
LINE
  8
0
 10
-7.68666
 20
2.48029
 11
-7.53154
 21
2.4557
  0
LINE
  8
0
 10
-7.53154
 20
2.4557
 11
-7.37827
 21
2.42145
  0
LINE
  8
0
 10
-7.37827
 20
2.42145
 11
-7.22745
 21
2.37764
  0
LINE
  8
0
 10
-7.22745
 20
2.37764
 11
-7.07968
 21
2.32443
  0
LINE
  8
0
 10
-7.07968
 20
2.32443
 11
-6.93555
 21
2.26205
  0
LINE
  8
0
 10
-6.93555
 20
2.26205
 11
-6.79561
 21
2.19077
  0
LINE
  8
0
 10
-6.79561
 20
2.19077
 11
-6.66043
 21
2.11081
  0
LINE
  8
0
 10
-6.66043
 20
2.11081
 11
-6.53053
 21
2.02254
  0
LINE
  8
0
 10
-6.53053
 20
2.02254
 11
-6.40643
 21
1.92627
  0
LINE
  8
0
 10
-6.40643
 20
1.92627
 11
-6.28862
 21
1.82242
  0
LINE
  8
0
 10
-6.28862
 20
1.82242
 11
-6.17757
 21
1.71136
  0
LINE
  8
0
 10
-6.17757
 20
1.71136
 11
-6.07372
 21
1.59355
  0
LINE
  8
0
 10
-6.07372
 20
1.59355
 11
-5.97745
 21
1.46945
  0
LINE
  8
0
 10
-5.97745
 20
1.46945
 11
-5.88918
 21
1.33955
  0
LINE
  8
0
 10
-5.88918
 20
1.33955
 11
-5.80922
 21
1.20438
  0
LINE
  8
0
 10
-5.80922
 20
1.20438
 11
-5.73793
 21
1.06444
  0
LINE
  8
0
 10
-5.73793
 20
1.06444
 11
-5.67555
 21
0.920303
  0
LINE
  8
0
 10
-5.67555
 20
0.920303
 11
-5.62234
 21
0.772537
  0
LINE
  8
0
 10
-5.62234
 20
0.772537
 11
-5.57854
 21
0.621719
  0
LINE
  8
0
 10
-5.57854
 20
0.621719
 11
-5.54428
 21
0.468445
  0
LINE
  8
0
 10
-5.54428
 20
0.468445
 11
-5.5197
 21
0.313324
  0
LINE
  8
0
 10
-5.5197
 20
0.313324
 11
-5.50493
 21
0.156967
  0
LINE
  8
0
 10
-5.50493
 20
0.156967
 11
-5.5
 21
0
  0
LINE
  8
0
 10
-5.5
 20
0
 11
-5.50493
 21
-0.156967
  0
LINE
  8
0
 10
-5.50493
 20
-0.156967
 11
-5.5197
 21
-0.313324
  0
LINE
  8
0
 10
-5.5197
 20
-0.313324
 11
-5.54428
 21
-0.468445
  0
LINE
  8
0
 10
-5.54428
 20
-0.468445
 11
-5.57854
 21
-0.621719
  0
LINE
  8
0
 10
-5.57854
 20
-0.621719
 11
-5.62234
 21
-0.772537
  0
LINE
  8
0
 10
-5.62234
 20
-0.772537
 11
-5.67555
 21
-0.920303
  0
LINE
  8
0
 10
-5.67555
 20
-0.920303
 11
-5.73793
 21
-1.06444
  0
LINE
  8
0
 10
-5.73793
 20
-1.06444
 11
-5.80922
 21
-1.20438
  0
LINE
  8
0
 10
-5.80922
 20
-1.20438
 11
-5.88918
 21
-1.33955
  0
LINE
  8
0
 10
-5.88918
 20
-1.33955
 11
-5.97745
 21
-1.46945
  0
LINE
  8
0
 10
-5.97745
 20
-1.46945
 11
-6.07372
 21
-1.59355
  0
LINE
  8
0
 10
-6.07372
 20
-1.59355
 11
-6.17757
 21
-1.71136
  0
LINE
  8
0
 10
-6.17757
 20
-1.71136
 11
-6.28862
 21
-1.82242
  0
LINE
  8
0
 10
-6.28862
 20
-1.82242
 11
-6.40643
 21
-1.92627
  0
LINE
  8
0
 10
-6.40643
 20
-1.92627
 11
-6.53053
 21
-2.02254
  0
LINE
  8
0
 10
-6.53053
 20
-2.02254
 11
-6.66043
 21
-2.11081
  0
LINE
  8
0
 10
-6.66043
 20
-2.11081
 11
-6.79561
 21
-2.19077
  0
LINE
  8
0
 10
-6.79561
 20
-2.19077
 11
-6.93555
 21
-2.26205
  0
LINE
  8
0
 10
-6.93555
 20
-2.26205
 11
-7.07968
 21
-2.32443
  0
LINE
  8
0
 10
-7.07968
 20
-2.32443
 11
-7.22745
 21
-2.37764
  0
LINE
  8
0
 10
-7.22745
 20
-2.37764
 11
-7.37827
 21
-2.42145
  0
LINE
  8
0
 10
-7.37827
 20
-2.42145
 11
-7.53154
 21
-2.4557
  0
LINE
  8
0
 10
-7.53154
 20
-2.4557
 11
-7.68666
 21
-2.48029
  0
LINE
  8
0
 10
-7.68666
 20
-2.48029
 11
-7.84302
 21
-2.49506
  0
LINE
  8
0
 10
-7.84302
 20
-2.49506
 11
-8
 21
-2.49998
  0
LINE
  8
0
 10
-8
 20
-2.49998
 11
-8.15697
 21
-2.49506
  0
LINE
  8
0
 10
7.84302
 20
-2.49506
 11
7.68666
 21
-2.48029
  0
LINE
  8
0
 10
7.68666
 20
-2.48029
 11
7.53154
 21
-2.4557
  0
LINE
  8
0
 10
7.53154
 20
-2.4557
 11
7.37827
 21
-2.42145
  0
LINE
  8
0
 10
7.37827
 20
-2.42145
 11
7.22745
 21
-2.37764
  0
LINE
  8
0
 10
7.22745
 20
-2.37764
 11
7.07968
 21
-2.32443
  0
LINE
  8
0
 10
7.07968
 20
-2.32443
 11
6.93555
 21
-2.26205
  0
LINE
  8
0
 10
6.93555
 20
-2.26205
 11
6.79561
 21
-2.19077
  0
LINE
  8
0
 10
6.79561
 20
-2.19077
 11
6.66043
 21
-2.11081
  0
LINE
  8
0
 10
6.66043
 20
-2.11081
 11
6.53053
 21
-2.02254
  0
LINE
  8
0
 10
6.53053
 20
-2.02254
 11
6.40643
 21
-1.92627
  0
LINE
  8
0
 10
6.40643
 20
-1.92627
 11
6.28862
 21
-1.82242
  0
LINE
  8
0
 10
6.28862
 20
-1.82242
 11
6.17757
 21
-1.71136
  0
LINE
  8
0
 10
6.17757
 20
-1.71136
 11
6.07372
 21
-1.59355
  0
LINE
  8
0
 10
6.07372
 20
-1.59355
 11
5.97745
 21
-1.46945
  0
LINE
  8
0
 10
5.97745
 20
-1.46945
 11
5.88918
 21
-1.33955
  0
LINE
  8
0
 10
5.88918
 20
-1.33955
 11
5.80922
 21
-1.20438
  0
LINE
  8
0
 10
5.80922
 20
-1.20438
 11
5.73793
 21
-1.06444
  0
LINE
  8
0
 10
5.73793
 20
-1.06444
 11
5.67555
 21
-0.920303
  0
LINE
  8
0
 10
5.67555
 20
-0.920303
 11
5.62234
 21
-0.772537
  0
LINE
  8
0
 10
5.62234
 20
-0.772537
 11
5.57854
 21
-0.621719
  0
LINE
  8
0
 10
5.57854
 20
-0.621719
 11
5.54428
 21
-0.468445
  0
LINE
  8
0
 10
5.54428
 20
-0.468445
 11
5.5197
 21
-0.313324
  0
LINE
  8
0
 10
5.5197
 20
-0.313324
 11
5.50493
 21
-0.156967
  0
LINE
  8
0
 10
5.50493
 20
-0.156967
 11
5.5
 21
0
  0
LINE
  8
0
 10
5.5
 20
0
 11
5.50493
 21
0.156967
  0
LINE
  8
0
 10
5.50493
 20
0.156967
 11
5.5197
 21
0.313324
  0
LINE
  8
0
 10
5.5197
 20
0.313324
 11
5.54428
 21
0.468445
  0
LINE
  8
0
 10
5.54428
 20
0.468445
 11
5.57854
 21
0.621719
  0
LINE
  8
0
 10
5.57854
 20
0.621719
 11
5.62234
 21
0.772537
  0
LINE
  8
0
 10
5.62234
 20
0.772537
 11
5.67555
 21
0.920303
  0
LINE
  8
0
 10
5.67555
 20
0.920303
 11
5.73793
 21
1.06444
  0
LINE
  8
0
 10
5.73793
 20
1.06444
 11
5.80922
 21
1.20438
  0
LINE
  8
0
 10
5.80922
 20
1.20438
 11
5.88918
 21
1.33955
  0
LINE
  8
0
 10
5.88918
 20
1.33955
 11
5.97745
 21
1.46945
  0
LINE
  8
0
 10
5.97745
 20
1.46945
 11
6.07372
 21
1.59355
  0
LINE
  8
0
 10
6.07372
 20
1.59355
 11
6.17757
 21
1.71136
  0
LINE
  8
0
 10
6.17757
 20
1.71136
 11
6.28862
 21
1.82242
  0
LINE
  8
0
 10
6.28862
 20
1.82242
 11
6.40643
 21
1.92627
  0
LINE
  8
0
 10
6.40643
 20
1.92627
 11
6.53053
 21
2.02254
  0
LINE
  8
0
 10
6.53053
 20
2.02254
 11
6.66043
 21
2.11081
  0
LINE
  8
0
 10
6.66043
 20
2.11081
 11
6.79561
 21
2.19077
  0
LINE
  8
0
 10
6.79561
 20
2.19077
 11
6.93555
 21
2.26205
  0
LINE
  8
0
 10
6.93555
 20
2.26205
 11
7.07968
 21
2.32443
  0
LINE
  8
0
 10
7.07968
 20
2.32443
 11
7.22745
 21
2.37764
  0
LINE
  8
0
 10
7.22745
 20
2.37764
 11
7.37827
 21
2.42145
  0
LINE
  8
0
 10
7.37827
 20
2.42145
 11
7.53154
 21
2.4557
  0
LINE
  8
0
 10
7.53154
 20
2.4557
 11
7.68666
 21
2.48029
  0
LINE
  8
0
 10
7.68666
 20
2.48029
 11
7.84302
 21
2.49506
  0
LINE
  8
0
 10
7.84302
 20
2.49506
 11
8
 21
2.5
  0
LINE
  8
0
 10
8
 20
2.5
 11
8.15697
 21
2.49506
  0
LINE
  8
0
 10
8.15697
 20
2.49506
 11
8.31332
 21
2.48029
  0
LINE
  8
0
 10
8.31332
 20
2.48029
 11
8.46844
 21
2.4557
  0
LINE
  8
0
 10
8.46844
 20
2.4557
 11
8.62172
 21
2.42145
  0
LINE
  8
0
 10
8.62172
 20
2.42145
 11
8.77254
 21
2.37764
  0
LINE
  8
0
 10
8.77254
 20
2.37764
 11
8.9203
 21
2.32443
  0
LINE
  8
0
 10
8.9203
 20
2.32443
 11
9.06444
 21
2.26205
  0
LINE
  8
0
 10
9.06444
 20
2.26205
 11
9.20438
 21
2.19077
  0
LINE
  8
0
 10
9.20438
 20
2.19077
 11
9.33955
 21
2.11081
  0
LINE
  8
0
 10
9.33955
 20
2.11081
 11
9.46945
 21
2.02254
  0
LINE
  8
0
 10
9.46945
 20
2.02254
 11
9.59355
 21
1.92627
  0
LINE
  8
0
 10
9.59355
 20
1.92627
 11
9.71136
 21
1.82242
  0
LINE
  8
0
 10
9.71136
 20
1.82242
 11
9.82242
 21
1.71136
  0
LINE
  8
0
 10
9.82242
 20
1.71136
 11
9.92627
 21
1.59355
  0
LINE
  8
0
 10
9.92627
 20
1.59355
 11
10.0225
 21
1.46945
  0
LINE
  8
0
 10
10.0225
 20
1.46945
 11
10.1108
 21
1.33955
  0
LINE
  8
0
 10
10.1108
 20
1.33955
 11
10.1908
 21
1.20438
  0
LINE
  8
0
 10
10.1908
 20
1.20438
 11
10.2621
 21
1.06444
  0
LINE
  8
0
 10
10.2621
 20
1.06444
 11
10.3244
 21
0.920303
  0
LINE
  8
0
 10
10.3244
 20
0.920303
 11
10.3776
 21
0.772537
  0
LINE
  8
0
 10
10.3776
 20
0.772537
 11
10.4214
 21
0.621719
  0
LINE
  8
0
 10
10.4214
 20
0.621719
 11
10.4557
 21
0.468445
  0
LINE
  8
0
 10
10.4557
 20
0.468445
 11
10.4803
 21
0.313324
  0
LINE
  8
0
 10
10.4803
 20
0.313324
 11
10.4951
 21
0.156967
  0
LINE
  8
0
 10
10.4951
 20
0.156967
 11
10.5
 21
0
  0
LINE
  8
0
 10
10.5
 20
0
 11
10.4951
 21
-0.156967
  0
LINE
  8
0
 10
10.4951
 20
-0.156967
 11
10.4803
 21
-0.313324
  0
LINE
  8
0
 10
10.4803
 20
-0.313324
 11
10.4557
 21
-0.468445
  0
LINE
  8
0
 10
10.4557
 20
-0.468445
 11
10.4214
 21
-0.621719
  0
LINE
  8
0
 10
10.4214
 20
-0.621719
 11
10.3776
 21
-0.772537
  0
LINE
  8
0
 10
10.3776
 20
-0.772537
 11
10.3244
 21
-0.920303
  0
LINE
  8
0
 10
10.3244
 20
-0.920303
 11
10.2621
 21
-1.06444
  0
LINE
  8
0
 10
10.2621
 20
-1.06444
 11
10.1908
 21
-1.20438
  0
LINE
  8
0
 10
10.1908
 20
-1.20438
 11
10.1108
 21
-1.33955
  0
LINE
  8
0
 10
10.1108
 20
-1.33955
 11
10.0225
 21
-1.46945
  0
LINE
  8
0
 10
10.0225
 20
-1.46945
 11
9.92627
 21
-1.59355
  0
LINE
  8
0
 10
9.92627
 20
-1.59355
 11
9.82242
 21
-1.71136
  0
LINE
  8
0
 10
9.82242
 20
-1.71136
 11
9.71136
 21
-1.82242
  0
LINE
  8
0
 10
9.71136
 20
-1.82242
 11
9.59355
 21
-1.92627
  0
LINE
  8
0
 10
9.59355
 20
-1.92627
 11
9.46945
 21
-2.02254
  0
LINE
  8
0
 10
9.46945
 20
-2.02254
 11
9.33955
 21
-2.11081
  0
LINE
  8
0
 10
9.33955
 20
-2.11081
 11
9.20438
 21
-2.19077
  0
LINE
  8
0
 10
9.20438
 20
-2.19077
 11
9.06444
 21
-2.26205
  0
LINE
  8
0
 10
9.06444
 20
-2.26205
 11
8.9203
 21
-2.32443
  0
LINE
  8
0
 10
8.9203
 20
-2.32443
 11
8.77254
 21
-2.37764
  0
LINE
  8
0
 10
8.77254
 20
-2.37764
 11
8.62172
 21
-2.42145
  0
LINE
  8
0
 10
8.62172
 20
-2.42145
 11
8.46844
 21
-2.4557
  0
LINE
  8
0
 10
8.46844
 20
-2.4557
 11
8.31332
 21
-2.48029
  0
LINE
  8
0
 10
8.31332
 20
-2.48029
 11
8.15697
 21
-2.49506
  0
LINE
  8
0
 10
8.15697
 20
-2.49506
 11
7.99998
 21
-2.5
  0
LINE
  8
0
 10
7.99998
 20
-2.5
 11
7.84302
 21
-2.49506
  0
LINE
  8
0
 10
5.57832
 20
-8.15561
 11
5.42157
 21
-8.14575
  0
LINE
  8
0
 10
5.42157
 20
-8.14575
 11
5.26576
 21
-8.12607
  0
LINE
  8
0
 10
5.26576
 20
-8.12607
 11
5.1115
 21
-8.09663
  0
LINE
  8
0
 10
5.1115
 20
-8.09663
 11
4.95937
 21
-8.05759
  0
LINE
  8
0
 10
4.95937
 20
-8.05759
 11
4.81
 21
-8.00905
  0
LINE
  8
0
 10
4.81
 20
-8.00905
 11
4.66397
 21
-7.95123
  0
LINE
  8
0
 10
4.66397
 20
-7.95123
 11
4.52187
 21
-7.88437
  0
LINE
  8
0
 10
4.52187
 20
-7.88437
 11
4.38425
 21
-7.8087
  0
LINE
  8
0
 10
4.38425
 20
-7.8087
 11
4.25163
 21
-7.72455
  0
LINE
  8
0
 10
4.25163
 20
-7.72455
 11
4.12457
 21
-7.63223
  0
LINE
  8
0
 10
4.12457
 20
-7.63223
 11
4.00357
 21
-7.53212
  0
LINE
  8
0
 10
4.00357
 20
-7.53212
 11
3.88908
 21
-7.42461
  0
LINE
  8
0
 10
3.88908
 20
-7.42461
 11
3.78157
 21
-7.31012
  0
LINE
  8
0
 10
3.78157
 20
-7.31012
 11
3.68146
 21
-7.18912
  0
LINE
  8
0
 10
3.68146
 20
-7.18912
 11
3.58914
 21
-7.06206
  0
LINE
  8
0
 10
3.58914
 20
-7.06206
 11
3.50499
 21
-6.92944
  0
LINE
  8
0
 10
3.50499
 20
-6.92944
 11
3.42934
 21
-6.79182
  0
LINE
  8
0
 10
3.42934
 20
-6.79182
 11
3.36246
 21
-6.64972
  0
LINE
  8
0
 10
3.36246
 20
-6.64972
 11
3.30464
 21
-6.50369
  0
LINE
  8
0
 10
3.30464
 20
-6.50369
 11
3.25612
 21
-6.35432
  0
LINE
  8
0
 10
3.25612
 20
-6.35432
 11
3.21706
 21
-6.20221
  0
LINE
  8
0
 10
3.21706
 20
-6.20221
 11
3.18762
 21
-6.04793
  0
LINE
  8
0
 10
3.18762
 20
-6.04793
 11
3.16794
 21
-5.89212
  0
LINE
  8
0
 10
3.16794
 20
-5.89212
 11
3.15808
 21
-5.73537
  0
LINE
  8
0
 10
3.15808
 20
-5.73537
 11
3.15808
 21
-5.57832
  0
LINE
  8
0
 10
3.15808
 20
-5.57832
 11
3.16794
 21
-5.42157
  0
LINE
  8
0
 10
3.16794
 20
-5.42157
 11
3.18762
 21
-5.26576
  0
LINE
  8
0
 10
3.18762
 20
-5.26576
 11
3.21706
 21
-5.1115
  0
LINE
  8
0
 10
3.21706
 20
-5.1115
 11
3.25612
 21
-4.95937
  0
LINE
  8
0
 10
3.25612
 20
-4.95937
 11
3.30464
 21
-4.81
  0
LINE
  8
0
 10
3.30464
 20
-4.81
 11
3.36246
 21
-4.66397
  0
LINE
  8
0
 10
3.36246
 20
-4.66397
 11
3.42934
 21
-4.52187
  0
LINE
  8
0
 10
3.42934
 20
-4.52187
 11
3.50499
 21
-4.38425
  0
LINE
  8
0
 10
3.50499
 20
-4.38425
 11
3.58914
 21
-4.25163
  0
LINE
  8
0
 10
3.58914
 20
-4.25163
 11
3.68146
 21
-4.12457
  0
LINE
  8
0
 10
3.68146
 20
-4.12457
 11
3.78157
 21
-4.00357
  0
LINE
  8
0
 10
3.78157
 20
-4.00357
 11
3.88908
 21
-3.88908
  0
LINE
  8
0
 10
3.88908
 20
-3.88908
 11
4.00357
 21
-3.78157
  0
LINE
  8
0
 10
4.00357
 20
-3.78157
 11
4.12457
 21
-3.68146
  0
LINE
  8
0
 10
4.12457
 20
-3.68146
 11
4.25163
 21
-3.58914
  0
LINE
  8
0
 10
4.25163
 20
-3.58914
 11
4.38425
 21
-3.50499
  0
LINE
  8
0
 10
4.38425
 20
-3.50499
 11
4.52187
 21
-3.42934
  0
LINE
  8
0
 10
4.52187
 20
-3.42934
 11
4.66397
 21
-3.36246
  0
LINE
  8
0
 10
4.66397
 20
-3.36246
 11
4.81
 21
-3.30464
  0
LINE
  8
0
 10
4.81
 20
-3.30464
 11
4.95937
 21
-3.25612
  0
LINE
  8
0
 10
4.95937
 20
-3.25612
 11
5.1115
 21
-3.21706
  0
LINE
  8
0
 10
5.1115
 20
-3.21706
 11
5.26576
 21
-3.18762
  0
LINE
  8
0
 10
5.26576
 20
-3.18762
 11
5.42157
 21
-3.16794
  0
LINE
  8
0
 10
5.42157
 20
-3.16794
 11
5.57832
 21
-3.15808
  0
LINE
  8
0
 10
5.57832
 20
-3.15808
 11
5.73537
 21
-3.15808
  0
LINE
  8
0
 10
5.73537
 20
-3.15808
 11
5.89212
 21
-3.16794
  0
LINE
  8
0
 10
5.89212
 20
-3.16794
 11
6.04793
 21
-3.18762
  0
LINE
  8
0
 10
6.04793
 20
-3.18762
 11
6.20221
 21
-3.21706
  0
LINE
  8
0
 10
6.20221
 20
-3.21706
 11
6.35432
 21
-3.25612
  0
LINE
  8
0
 10
6.35432
 20
-3.25612
 11
6.50369
 21
-3.30464
  0
LINE
  8
0
 10
6.50369
 20
-3.30464
 11
6.64972
 21
-3.36246
  0
LINE
  8
0
 10
6.64972
 20
-3.36246
 11
6.79182
 21
-3.42934
  0
LINE
  8
0
 10
6.79182
 20
-3.42934
 11
6.92944
 21
-3.50499
  0
LINE
  8
0
 10
6.92944
 20
-3.50499
 11
7.06206
 21
-3.58914
  0
LINE
  8
0
 10
7.06206
 20
-3.58914
 11
7.18912
 21
-3.68146
  0
LINE
  8
0
 10
7.18912
 20
-3.68146
 11
7.31012
 21
-3.78157
  0
LINE
  8
0
 10
7.31012
 20
-3.78157
 11
7.42461
 21
-3.88908
  0
LINE
  8
0
 10
7.42461
 20
-3.88908
 11
7.53212
 21
-4.00357
  0
LINE
  8
0
 10
7.53212
 20
-4.00357
 11
7.63223
 21
-4.12457
  0
LINE
  8
0
 10
7.63223
 20
-4.12457
 11
7.72455
 21
-4.25163
  0
LINE
  8
0
 10
7.72455
 20
-4.25163
 11
7.8087
 21
-4.38425
  0
LINE
  8
0
 10
7.8087
 20
-4.38425
 11
7.88437
 21
-4.52187
  0
LINE
  8
0
 10
7.88437
 20
-4.52187
 11
7.95123
 21
-4.66397
  0
LINE
  8
0
 10
7.95123
 20
-4.66397
 11
8.00905
 21
-4.81
  0
LINE
  8
0
 10
8.00905
 20
-4.81
 11
8.05759
 21
-4.95937
  0
LINE
  8
0
 10
8.05759
 20
-4.95937
 11
8.09663
 21
-5.1115
  0
LINE
  8
0
 10
8.09663
 20
-5.1115
 11
8.12607
 21
-5.26576
  0
LINE
  8
0
 10
8.12607
 20
-5.26576
 11
8.14575
 21
-5.42157
  0
LINE
  8
0
 10
8.14575
 20
-5.42157
 11
8.15561
 21
-5.57832
  0
LINE
  8
0
 10
8.15561
 20
-5.57832
 11
8.15561
 21
-5.73537
  0
LINE
  8
0
 10
8.15561
 20
-5.73537
 11
8.14575
 21
-5.89212
  0
LINE
  8
0
 10
8.14575
 20
-5.89212
 11
8.12607
 21
-6.04793
  0
LINE
  8
0
 10
8.12607
 20
-6.04793
 11
8.09663
 21
-6.20221
  0
LINE
  8
0
 10
8.09663
 20
-6.20221
 11
8.05759
 21
-6.35432
  0
LINE
  8
0
 10
8.05759
 20
-6.35432
 11
8.00905
 21
-6.50369
  0
LINE
  8
0
 10
8.00905
 20
-6.50369
 11
7.95123
 21
-6.64972
  0
LINE
  8
0
 10
7.95123
 20
-6.64972
 11
7.88437
 21
-6.79182
  0
LINE
  8
0
 10
7.88437
 20
-6.79182
 11
7.8087
 21
-6.92944
  0
LINE
  8
0
 10
7.8087
 20
-6.92944
 11
7.72455
 21
-7.06206
  0
LINE
  8
0
 10
7.72455
 20
-7.06206
 11
7.63223
 21
-7.18912
  0
LINE
  8
0
 10
7.63223
 20
-7.18912
 11
7.53212
 21
-7.31012
  0
LINE
  8
0
 10
7.53212
 20
-7.31012
 11
7.42461
 21
-7.42461
  0
LINE
  8
0
 10
7.42461
 20
-7.42461
 11
7.31012
 21
-7.53212
  0
LINE
  8
0
 10
7.31012
 20
-7.53212
 11
7.18912
 21
-7.63223
  0
LINE
  8
0
 10
7.18912
 20
-7.63223
 11
7.06206
 21
-7.72455
  0
LINE
  8
0
 10
7.06206
 20
-7.72455
 11
6.92944
 21
-7.8087
  0
LINE
  8
0
 10
6.92944
 20
-7.8087
 11
6.79182
 21
-7.88437
  0
LINE
  8
0
 10
6.79182
 20
-7.88437
 11
6.64972
 21
-7.95123
  0
LINE
  8
0
 10
6.64972
 20
-7.95123
 11
6.50369
 21
-8.00905
  0
LINE
  8
0
 10
6.50369
 20
-8.00905
 11
6.35432
 21
-8.05759
  0
LINE
  8
0
 10
6.35432
 20
-8.05759
 11
6.20221
 21
-8.09663
  0
LINE
  8
0
 10
6.20221
 20
-8.09663
 11
6.04793
 21
-8.12607
  0
LINE
  8
0
 10
6.04793
 20
-8.12607
 11
5.89212
 21
-8.14575
  0
LINE
  8
0
 10
5.89212
 20
-8.14575
 11
5.73537
 21
-8.15561
  0
LINE
  8
0
 10
5.73537
 20
-8.15561
 11
5.57832
 21
-8.15561
  0
LINE
  8
0
 10
-5.73537
 20
-8.15561
 11
-5.89212
 21
-8.14575
  0
LINE
  8
0
 10
-5.89212
 20
-8.14575
 11
-6.04793
 21
-8.12607
  0
LINE
  8
0
 10
-6.04793
 20
-8.12607
 11
-6.20221
 21
-8.09663
  0
LINE
  8
0
 10
-6.20221
 20
-8.09663
 11
-6.35432
 21
-8.05759
  0
LINE
  8
0
 10
-6.35432
 20
-8.05759
 11
-6.50369
 21
-8.00905
  0
LINE
  8
0
 10
-6.50369
 20
-8.00905
 11
-6.64972
 21
-7.95123
  0
LINE
  8
0
 10
-6.64972
 20
-7.95123
 11
-6.79182
 21
-7.88437
  0
LINE
  8
0
 10
-6.79182
 20
-7.88437
 11
-6.92944
 21
-7.8087
  0
LINE
  8
0
 10
-6.92944
 20
-7.8087
 11
-7.06206
 21
-7.72455
  0
LINE
  8
0
 10
-7.06206
 20
-7.72455
 11
-7.18912
 21
-7.63223
  0
LINE
  8
0
 10
-7.18912
 20
-7.63223
 11
-7.31012
 21
-7.53212
  0
LINE
  8
0
 10
-7.31012
 20
-7.53212
 11
-7.42461
 21
-7.42461
  0
LINE
  8
0
 10
-7.42461
 20
-7.42461
 11
-7.53212
 21
-7.31012
  0
LINE
  8
0
 10
-7.53212
 20
-7.31012
 11
-7.63223
 21
-7.18912
  0
LINE
  8
0
 10
-7.63223
 20
-7.18912
 11
-7.72455
 21
-7.06206
  0
LINE
  8
0
 10
-7.72455
 20
-7.06206
 11
-7.8087
 21
-6.92944
  0
LINE
  8
0
 10
-7.8087
 20
-6.92944
 11
-7.88437
 21
-6.79182
  0
LINE
  8
0
 10
-7.88437
 20
-6.79182
 11
-7.95123
 21
-6.64972
  0
LINE
  8
0
 10
-7.95123
 20
-6.64972
 11
-8.00905
 21
-6.50369
  0
LINE
  8
0
 10
-8.00905
 20
-6.50369
 11
-8.05759
 21
-6.35432
  0
LINE
  8
0
 10
-8.05759
 20
-6.35432
 11
-8.09663
 21
-6.20221
  0
LINE
  8
0
 10
-8.09663
 20
-6.20221
 11
-8.12607
 21
-6.04793
  0
LINE
  8
0
 10
-8.12607
 20
-6.04793
 11
-8.14575
 21
-5.89212
  0
LINE
  8
0
 10
-8.14575
 20
-5.89212
 11
-8.15561
 21
-5.73537
  0
LINE
  8
0
 10
-8.15561
 20
-5.73537
 11
-8.15561
 21
-5.57832
  0
LINE
  8
0
 10
-8.15561
 20
-5.57832
 11
-8.14575
 21
-5.42157
  0
LINE
  8
0
 10
-8.14575
 20
-5.42157
 11
-8.12607
 21
-5.26576
  0
LINE
  8
0
 10
-8.12607
 20
-5.26576
 11
-8.09663
 21
-5.1115
  0
LINE
  8
0
 10
-8.09663
 20
-5.1115
 11
-8.05759
 21
-4.95937
  0
LINE
  8
0
 10
-8.05759
 20
-4.95937
 11
-8.00905
 21
-4.81
  0
LINE
  8
0
 10
-8.00905
 20
-4.81
 11
-7.95123
 21
-4.66397
  0
LINE
  8
0
 10
-7.95123
 20
-4.66397
 11
-7.88437
 21
-4.52187
  0
LINE
  8
0
 10
-7.88437
 20
-4.52187
 11
-7.8087
 21
-4.38425
  0
LINE
  8
0
 10
-7.8087
 20
-4.38425
 11
-7.72455
 21
-4.25163
  0
LINE
  8
0
 10
-7.72455
 20
-4.25163
 11
-7.63223
 21
-4.12457
  0
LINE
  8
0
 10
-7.63223
 20
-4.12457
 11
-7.53212
 21
-4.00357
  0
LINE
  8
0
 10
-7.53212
 20
-4.00357
 11
-7.42461
 21
-3.88908
  0
LINE
  8
0
 10
-7.42461
 20
-3.88908
 11
-7.31012
 21
-3.78157
  0
LINE
  8
0
 10
-7.31012
 20
-3.78157
 11
-7.18912
 21
-3.68146
  0
LINE
  8
0
 10
-7.18912
 20
-3.68146
 11
-7.06206
 21
-3.58914
  0
LINE
  8
0
 10
-7.06206
 20
-3.58914
 11
-6.92944
 21
-3.50499
  0
LINE
  8
0
 10
-6.92944
 20
-3.50499
 11
-6.79182
 21
-3.42934
  0
LINE
  8
0
 10
-6.79182
 20
-3.42934
 11
-6.64972
 21
-3.36246
  0
LINE
  8
0
 10
-6.64972
 20
-3.36246
 11
-6.50369
 21
-3.30464
  0
LINE
  8
0
 10
-6.50369
 20
-3.30464
 11
-6.35432
 21
-3.25612
  0
LINE
  8
0
 10
-6.35432
 20
-3.25612
 11
-6.20221
 21
-3.21706
  0
LINE
  8
0
 10
-6.20221
 20
-3.21706
 11
-6.04793
 21
-3.18762
  0
LINE
  8
0
 10
-6.04793
 20
-3.18762
 11
-5.89212
 21
-3.16794
  0
LINE
  8
0
 10
-5.89212
 20
-3.16794
 11
-5.73537
 21
-3.15808
  0
LINE
  8
0
 10
-5.73537
 20
-3.15808
 11
-5.57832
 21
-3.15808
  0
LINE
  8
0
 10
-5.57832
 20
-3.15808
 11
-5.42157
 21
-3.16794
  0
LINE
  8
0
 10
-5.42157
 20
-3.16794
 11
-5.26576
 21
-3.18762
  0
LINE
  8
0
 10
-5.26576
 20
-3.18762
 11
-5.1115
 21
-3.21706
  0
LINE
  8
0
 10
-5.1115
 20
-3.21706
 11
-4.95937
 21
-3.25612
  0
LINE
  8
0
 10
-4.95937
 20
-3.25612
 11
-4.81
 21
-3.30464
  0
LINE
  8
0
 10
-4.81
 20
-3.30464
 11
-4.66397
 21
-3.36246
  0
LINE
  8
0
 10
-4.66397
 20
-3.36246
 11
-4.52187
 21
-3.42934
  0
LINE
  8
0
 10
-4.52187
 20
-3.42934
 11
-4.38425
 21
-3.50499
  0
LINE
  8
0
 10
-4.38425
 20
-3.50499
 11
-4.25163
 21
-3.58914
  0
LINE
  8
0
 10
-4.25163
 20
-3.58914
 11
-4.12457
 21
-3.68146
  0
LINE
  8
0
 10
-4.12457
 20
-3.68146
 11
-4.00357
 21
-3.78157
  0
LINE
  8
0
 10
-4.00357
 20
-3.78157
 11
-3.88908
 21
-3.88908
  0
LINE
  8
0
 10
-3.88908
 20
-3.88908
 11
-3.78157
 21
-4.00357
  0
LINE
  8
0
 10
-3.78157
 20
-4.00357
 11
-3.68146
 21
-4.12457
  0
LINE
  8
0
 10
-3.68146
 20
-4.12457
 11
-3.58914
 21
-4.25163
  0
LINE
  8
0
 10
-3.58914
 20
-4.25163
 11
-3.50499
 21
-4.38425
  0
LINE
  8
0
 10
-3.50499
 20
-4.38425
 11
-3.42934
 21
-4.52187
  0
LINE
  8
0
 10
-3.42934
 20
-4.52187
 11
-3.36246
 21
-4.66397
  0
LINE
  8
0
 10
-3.36246
 20
-4.66397
 11
-3.30464
 21
-4.81
  0
LINE
  8
0
 10
-3.30464
 20
-4.81
 11
-3.25612
 21
-4.95937
  0
LINE
  8
0
 10
-3.25612
 20
-4.95937
 11
-3.21706
 21
-5.1115
  0
LINE
  8
0
 10
-3.21706
 20
-5.1115
 11
-3.18762
 21
-5.26576
  0
LINE
  8
0
 10
-3.18762
 20
-5.26576
 11
-3.16794
 21
-5.42157
  0
LINE
  8
0
 10
-3.16794
 20
-5.42157
 11
-3.15808
 21
-5.57832
  0
LINE
  8
0
 10
-3.15808
 20
-5.57832
 11
-3.15808
 21
-5.73537
  0
LINE
  8
0
 10
-3.15808
 20
-5.73537
 11
-3.16794
 21
-5.89212
  0
LINE
  8
0
 10
-3.16794
 20
-5.89212
 11
-3.18762
 21
-6.04793
  0
LINE
  8
0
 10
-3.18762
 20
-6.04793
 11
-3.21706
 21
-6.20221
  0
LINE
  8
0
 10
-3.21706
 20
-6.20221
 11
-3.25612
 21
-6.35432
  0
LINE
  8
0
 10
-3.25612
 20
-6.35432
 11
-3.30464
 21
-6.50369
  0
LINE
  8
0
 10
-3.30464
 20
-6.50369
 11
-3.36246
 21
-6.64972
  0
LINE
  8
0
 10
-3.36246
 20
-6.64972
 11
-3.42934
 21
-6.79182
  0
LINE
  8
0
 10
-3.42934
 20
-6.79182
 11
-3.50499
 21
-6.92944
  0
LINE
  8
0
 10
-3.50499
 20
-6.92944
 11
-3.58914
 21
-7.06206
  0
LINE
  8
0
 10
-3.58914
 20
-7.06206
 11
-3.68146
 21
-7.18912
  0
LINE
  8
0
 10
-3.68146
 20
-7.18912
 11
-3.78157
 21
-7.31012
  0
LINE
  8
0
 10
-3.78157
 20
-7.31012
 11
-3.88908
 21
-7.42461
  0
LINE
  8
0
 10
-3.88908
 20
-7.42461
 11
-4.00357
 21
-7.53212
  0
LINE
  8
0
 10
-4.00357
 20
-7.53212
 11
-4.12457
 21
-7.63223
  0
LINE
  8
0
 10
-4.12457
 20
-7.63223
 11
-4.25163
 21
-7.72455
  0
LINE
  8
0
 10
-4.25163
 20
-7.72455
 11
-4.38425
 21
-7.8087
  0
LINE
  8
0
 10
-4.38425
 20
-7.8087
 11
-4.52187
 21
-7.88437
  0
LINE
  8
0
 10
-4.52187
 20
-7.88437
 11
-4.66397
 21
-7.95123
  0
LINE
  8
0
 10
-4.66397
 20
-7.95123
 11
-4.81
 21
-8.00905
  0
LINE
  8
0
 10
-4.81
 20
-8.00905
 11
-4.95937
 21
-8.05759
  0
LINE
  8
0
 10
-4.95937
 20
-8.05759
 11
-5.1115
 21
-8.09663
  0
LINE
  8
0
 10
-5.1115
 20
-8.09663
 11
-5.26576
 21
-8.12607
  0
LINE
  8
0
 10
-5.26576
 20
-8.12607
 11
-5.42157
 21
-8.14575
  0
LINE
  8
0
 10
-5.42157
 20
-8.14575
 11
-5.57832
 21
-8.15561
  0
LINE
  8
0
 10
-5.57832
 20
-8.15561
 11
-5.73537
 21
-8.15561
  0
LINE
  8
0
 10
-0.156967
 20
-10.4951
 11
-0.313324
 21
-10.4803
  0
LINE
  8
0
 10
-0.313324
 20
-10.4803
 11
-0.468445
 21
-10.4557
  0
LINE
  8
0
 10
-0.468445
 20
-10.4557
 11
-0.621719
 21
-10.4214
  0
LINE
  8
0
 10
-0.621719
 20
-10.4214
 11
-0.772537
 21
-10.3776
  0
LINE
  8
0
 10
-0.772537
 20
-10.3776
 11
-0.920303
 21
-10.3244
  0
LINE
  8
0
 10
-0.920303
 20
-10.3244
 11
-1.06444
 21
-10.2621
  0
LINE
  8
0
 10
-1.06444
 20
-10.2621
 11
-1.20438
 21
-10.1908
  0
LINE
  8
0
 10
-1.20438
 20
-10.1908
 11
-1.33955
 21
-10.1108
  0
LINE
  8
0
 10
-1.33955
 20
-10.1108
 11
-1.46945
 21
-10.0225
  0
LINE
  8
0
 10
-1.46945
 20
-10.0225
 11
-1.59355
 21
-9.92627
  0
LINE
  8
0
 10
-1.59355
 20
-9.92627
 11
-1.71136
 21
-9.82242
  0
LINE
  8
0
 10
-1.71136
 20
-9.82242
 11
-1.82242
 21
-9.71136
  0
LINE
  8
0
 10
-1.82242
 20
-9.71136
 11
-1.92627
 21
-9.59355
  0
LINE
  8
0
 10
-1.92627
 20
-9.59355
 11
-2.02254
 21
-9.46945
  0
LINE
  8
0
 10
-2.02254
 20
-9.46945
 11
-2.11081
 21
-9.33955
  0
LINE
  8
0
 10
-2.11081
 20
-9.33955
 11
-2.19077
 21
-9.20438
  0
LINE
  8
0
 10
-2.19077
 20
-9.20438
 11
-2.26205
 21
-9.06444
  0
LINE
  8
0
 10
-2.26205
 20
-9.06444
 11
-2.32443
 21
-8.9203
  0
LINE
  8
0
 10
-2.32443
 20
-8.9203
 11
-2.37764
 21
-8.77254
  0
LINE
  8
0
 10
-2.37764
 20
-8.77254
 11
-2.42145
 21
-8.62172
  0
LINE
  8
0
 10
-2.42145
 20
-8.62172
 11
-2.4557
 21
-8.46844
  0
LINE
  8
0
 10
-2.4557
 20
-8.46844
 11
-2.48029
 21
-8.31332
  0
LINE
  8
0
 10
-2.48029
 20
-8.31332
 11
-2.49506
 21
-8.15697
  0
LINE
  8
0
 10
-2.49506
 20
-8.15697
 11
-2.5
 21
-7.99998
  0
LINE
  8
0
 10
-2.5
 20
-7.99998
 11
-2.49506
 21
-7.84302
  0
LINE
  8
0
 10
-2.49506
 20
-7.84302
 11
-2.48029
 21
-7.68666
  0
LINE
  8
0
 10
-2.48029
 20
-7.68666
 11
-2.4557
 21
-7.53154
  0
LINE
  8
0
 10
-2.4557
 20
-7.53154
 11
-2.42145
 21
-7.37827
  0
LINE
  8
0
 10
-2.42145
 20
-7.37827
 11
-2.37764
 21
-7.22745
  0
LINE
  8
0
 10
-2.37764
 20
-7.22745
 11
-2.32443
 21
-7.07968
  0
LINE
  8
0
 10
-2.32443
 20
-7.07968
 11
-2.26205
 21
-6.93555
  0
LINE
  8
0
 10
-2.26205
 20
-6.93555
 11
-2.19077
 21
-6.79561
  0
LINE
  8
0
 10
-2.19077
 20
-6.79561
 11
-2.11081
 21
-6.66043
  0
LINE
  8
0
 10
-2.11081
 20
-6.66043
 11
-2.02254
 21
-6.53053
  0
LINE
  8
0
 10
-2.02254
 20
-6.53053
 11
-1.92627
 21
-6.40643
  0
LINE
  8
0
 10
-1.92627
 20
-6.40643
 11
-1.82242
 21
-6.28862
  0
LINE
  8
0
 10
-1.82242
 20
-6.28862
 11
-1.71136
 21
-6.17757
  0
LINE
  8
0
 10
-1.71136
 20
-6.17757
 11
-1.59355
 21
-6.07372
  0
LINE
  8
0
 10
-1.59355
 20
-6.07372
 11
-1.46945
 21
-5.97745
  0
LINE
  8
0
 10
-1.46945
 20
-5.97745
 11
-1.33955
 21
-5.88918
  0
LINE
  8
0
 10
-1.33955
 20
-5.88918
 11
-1.20438
 21
-5.80922
  0
LINE
  8
0
 10
-1.20438
 20
-5.80922
 11
-1.06444
 21
-5.73793
  0
LINE
  8
0
 10
-1.06444
 20
-5.73793
 11
-0.920303
 21
-5.67555
  0
LINE
  8
0
 10
-0.920303
 20
-5.67555
 11
-0.772537
 21
-5.62234
  0
LINE
  8
0
 10
-0.772537
 20
-5.62234
 11
-0.621719
 21
-5.57854
  0
LINE
  8
0
 10
-0.621719
 20
-5.57854
 11
-0.468445
 21
-5.54428
  0
LINE
  8
0
 10
-0.468445
 20
-5.54428
 11
-0.313324
 21
-5.5197
  0
LINE
  8
0
 10
-0.313324
 20
-5.5197
 11
-0.156967
 21
-5.50493
  0
LINE
  8
0
 10
-0.156967
 20
-5.50493
 11
0
 21
-5.5
  0
LINE
  8
0
 10
0
 20
-5.5
 11
0.156967
 21
-5.50493
  0
LINE
  8
0
 10
0.156967
 20
-5.50493
 11
0.313324
 21
-5.5197
  0
LINE
  8
0
 10
0.313324
 20
-5.5197
 11
0.468445
 21
-5.54428
  0
LINE
  8
0
 10
0.468445
 20
-5.54428
 11
0.621719
 21
-5.57854
  0
LINE
  8
0
 10
0.621719
 20
-5.57854
 11
0.772537
 21
-5.62234
  0
LINE
  8
0
 10
0.772537
 20
-5.62234
 11
0.920303
 21
-5.67555
  0
LINE
  8
0
 10
0.920303
 20
-5.67555
 11
1.06444
 21
-5.73793
  0
LINE
  8
0
 10
1.06444
 20
-5.73793
 11
1.20438
 21
-5.80922
  0
LINE
  8
0
 10
1.20438
 20
-5.80922
 11
1.33955
 21
-5.88918
  0
LINE
  8
0
 10
1.33955
 20
-5.88918
 11
1.46945
 21
-5.97745
  0
LINE
  8
0
 10
1.46945
 20
-5.97745
 11
1.59355
 21
-6.07372
  0
LINE
  8
0
 10
1.59355
 20
-6.07372
 11
1.71136
 21
-6.17757
  0
LINE
  8
0
 10
1.71136
 20
-6.17757
 11
1.82242
 21
-6.28862
  0
LINE
  8
0
 10
1.82242
 20
-6.28862
 11
1.92627
 21
-6.40643
  0
LINE
  8
0
 10
1.92627
 20
-6.40643
 11
2.02254
 21
-6.53053
  0
LINE
  8
0
 10
2.02254
 20
-6.53053
 11
2.11081
 21
-6.66043
  0
LINE
  8
0
 10
2.11081
 20
-6.66043
 11
2.19077
 21
-6.79561
  0
LINE
  8
0
 10
2.19077
 20
-6.79561
 11
2.26205
 21
-6.93555
  0
LINE
  8
0
 10
2.26205
 20
-6.93555
 11
2.32443
 21
-7.07968
  0
LINE
  8
0
 10
2.32443
 20
-7.07968
 11
2.37764
 21
-7.22745
  0
LINE
  8
0
 10
2.37764
 20
-7.22745
 11
2.42145
 21
-7.37827
  0
LINE
  8
0
 10
2.42145
 20
-7.37827
 11
2.4557
 21
-7.53154
  0
LINE
  8
0
 10
2.4557
 20
-7.53154
 11
2.48029
 21
-7.68666
  0
LINE
  8
0
 10
2.48029
 20
-7.68666
 11
2.49506
 21
-7.84302
  0
LINE
  8
0
 10
2.49506
 20
-7.84302
 11
2.49998
 21
-8
  0
LINE
  8
0
 10
2.49998
 20
-8
 11
2.49506
 21
-8.15697
  0
LINE
  8
0
 10
2.49506
 20
-8.15697
 11
2.48029
 21
-8.31332
  0
LINE
  8
0
 10
2.48029
 20
-8.31332
 11
2.4557
 21
-8.46844
  0
LINE
  8
0
 10
2.4557
 20
-8.46844
 11
2.42145
 21
-8.62172
  0
LINE
  8
0
 10
2.42145
 20
-8.62172
 11
2.37764
 21
-8.77254
  0
LINE
  8
0
 10
2.37764
 20
-8.77254
 11
2.32443
 21
-8.9203
  0
LINE
  8
0
 10
2.32443
 20
-8.9203
 11
2.26205
 21
-9.06444
  0
LINE
  8
0
 10
2.26205
 20
-9.06444
 11
2.19077
 21
-9.20438
  0
LINE
  8
0
 10
2.19077
 20
-9.20438
 11
2.11081
 21
-9.33955
  0
LINE
  8
0
 10
2.11081
 20
-9.33955
 11
2.02254
 21
-9.46945
  0
LINE
  8
0
 10
2.02254
 20
-9.46945
 11
1.92627
 21
-9.59355
  0
LINE
  8
0
 10
1.92627
 20
-9.59355
 11
1.82242
 21
-9.71136
  0
LINE
  8
0
 10
1.82242
 20
-9.71136
 11
1.71136
 21
-9.82242
  0
LINE
  8
0
 10
1.71136
 20
-9.82242
 11
1.59355
 21
-9.92627
  0
LINE
  8
0
 10
1.59355
 20
-9.92627
 11
1.46945
 21
-10.0225
  0
LINE
  8
0
 10
1.46945
 20
-10.0225
 11
1.33955
 21
-10.1108
  0
LINE
  8
0
 10
1.33955
 20
-10.1108
 11
1.20438
 21
-10.1908
  0
LINE
  8
0
 10
1.20438
 20
-10.1908
 11
1.06444
 21
-10.2621
  0
LINE
  8
0
 10
1.06444
 20
-10.2621
 11
0.920303
 21
-10.3244
  0
LINE
  8
0
 10
0.920303
 20
-10.3244
 11
0.772537
 21
-10.3776
  0
LINE
  8
0
 10
0.772537
 20
-10.3776
 11
0.621719
 21
-10.4214
  0
LINE
  8
0
 10
0.621719
 20
-10.4214
 11
0.468445
 21
-10.4557
  0
LINE
  8
0
 10
0.468445
 20
-10.4557
 11
0.313324
 21
-10.4803
  0
LINE
  8
0
 10
0.313324
 20
-10.4803
 11
0.156967
 21
-10.4951
  0
LINE
  8
0
 10
0.156967
 20
-10.4951
 11
0
 21
-10.5
  0
LINE
  8
0
 10
0
 20
-10.5
 11
-0.156967
 21
-10.4951
  0
LINE
  8
0
 10
52.5
 20
-9.5
 11
55.5
 21
-9.5
  0
LINE
  8
0
 10
55.5
 20
-9.5
 11
55.5
 21
-6.5
  0
LINE
  8
0
 10
55.5
 20
-6.5
 11
52.5
 21
-6.5
  0
LINE
  8
0
 10
52.5
 20
-6.5
 11
52.5
 21
12.5
  0
LINE
  8
0
 10
52.5
 20
12.5
 11
40.5
 21
12.5
  0
LINE
  8
0
 10
40.5
 20
12.5
 11
40.5
 21
15.5
  0
LINE
  8
0
 10
40.5
 20
15.5
 11
34.5
 21
15.5
  0
LINE
  8
0
 10
34.5
 20
15.5
 11
34.5
 21
12.5
  0
LINE
  8
0
 10
34.5
 20
12.5
 11
22.5
 21
12.5
  0
LINE
  8
0
 10
22.5
 20
12.5
 11
22.5
 21
-6.5
  0
LINE
  8
0
 10
22.5
 20
-6.5
 11
19.5
 21
-6.5
  0
LINE
  8
0
 10
19.5
 20
-6.5
 11
19.5
 21
-9.5
  0
LINE
  8
0
 10
19.5
 20
-9.5
 11
22.5
 21
-9.5
  0
LINE
  8
0
 10
22.5
 20
-9.5
 11
22.5
 21
-12.5
  0
LINE
  8
0
 10
22.5
 20
-12.5
 11
52.5
 21
-12.5
  0
LINE
  8
0
 10
52.5
 20
-12.5
 11
52.5
 21
-9.5
  0
LINE
  8
0
 10
74.1667
 20
-45
 11
87.5
 21
-45
  0
LINE
  8
0
 10
87.5
 20
-45
 11
87.5
 21
-48
  0
LINE
  8
0
 10
87.5
 20
-48
 11
100.833
 21
-48
  0
LINE
  8
0
 10
100.833
 20
-48
 11
100.833
 21
-45
  0
LINE
  8
0
 10
100.833
 20
-45
 11
114.167
 21
-45
  0
LINE
  8
0
 10
114.167
 20
-45
 11
114.167
 21
-48
  0
LINE
  8
0
 10
114.167
 20
-48
 11
127.5
 21
-48
  0
LINE
  8
0
 10
127.5
 20
-48
 11
127.5
 21
-40.8333
  0
LINE
  8
0
 10
127.5
 20
-40.8333
 11
130.5
 21
-40.8333
  0
LINE
  8
0
 10
130.5
 20
-40.8333
 11
130.5
 21
-36.6667
  0
LINE
  8
0
 10
130.5
 20
-36.6667
 11
127.5
 21
-36.6667
  0
LINE
  8
0
 10
127.5
 20
-36.6667
 11
127.5
 21
-32.5
  0
LINE
  8
0
 10
127.5
 20
-32.5
 11
130.5
 21
-32.5
  0
LINE
  8
0
 10
130.5
 20
-32.5
 11
130.5
 21
-28.3333
  0
LINE
  8
0
 10
130.5
 20
-28.3333
 11
127.5
 21
-28.3333
  0
LINE
  8
0
 10
127.5
 20
-28.3333
 11
127.5
 21
-24.1667
  0
LINE
  8
0
 10
127.5
 20
-24.1667
 11
130.5
 21
-24.1667
  0
LINE
  8
0
 10
130.5
 20
-24.1667
 11
130.5
 21
-20
  0
LINE
  8
0
 10
130.5
 20
-20
 11
114.167
 21
-20
  0
LINE
  8
0
 10
114.167
 20
-20
 11
114.167
 21
-17
  0
LINE
  8
0
 10
114.167
 20
-17
 11
100.833
 21
-17
  0
LINE
  8
0
 10
100.833
 20
-17
 11
100.833
 21
-20
  0
LINE
  8
0
 10
100.833
 20
-20
 11
87.5
 21
-20
  0
LINE
  8
0
 10
87.5
 20
-20
 11
87.5
 21
-17
  0
LINE
  8
0
 10
87.5
 20
-17
 11
74.1667
 21
-17
  0
LINE
  8
0
 10
74.1667
 20
-17
 11
74.1667
 21
-20
  0
LINE
  8
0
 10
74.1667
 20
-20
 11
60.8333
 21
-20
  0
LINE
  8
0
 10
60.8333
 20
-20
 11
60.8333
 21
-17
  0
LINE
  8
0
 10
60.8333
 20
-17
 11
47.5
 21
-17
  0
LINE
  8
0
 10
47.5
 20
-17
 11
47.5
 21
-36.7928
  0
LINE
  8
0
 10
47.5
 20
-36.7928
 11
47.2969
 21
-36.8807
  0
LINE
  8
0
 10
47.2969
 20
-36.8807
 11
47.073
 21
-36.9948
  0
LINE
  8
0
 10
47.073
 20
-36.9948
 11
46.8567
 21
-37.1227
  0
LINE
  8
0
 10
46.8567
 20
-37.1227
 11
46.6488
 21
-37.2639
  0
LINE
  8
0
 10
46.6488
 20
-37.2639
 11
46.4503
 21
-37.4179
  0
LINE
  8
0
 10
46.4503
 20
-37.4179
 11
46.2618
 21
-37.5841
  0
LINE
  8
0
 10
46.2618
 20
-37.5841
 11
46.0841
 21
-37.7618
  0
LINE
  8
0
 10
46.0841
 20
-37.7618
 11
45.9179
 21
-37.9503
  0
LINE
  8
0
 10
45.9179
 20
-37.9503
 11
45.7639
 21
-38.1488
  0
LINE
  8
0
 10
45.7639
 20
-38.1488
 11
45.6227
 21
-38.3567
  0
LINE
  8
0
 10
45.6227
 20
-38.3567
 11
45.4948
 21
-38.573
  0
LINE
  8
0
 10
45.4948
 20
-38.573
 11
45.3807
 21
-38.7969
  0
LINE
  8
0
 10
45.3807
 20
-38.7969
 11
45.2809
 21
-39.0275
  0
LINE
  8
0
 10
45.2809
 20
-39.0275
 11
45.1958
 21
-39.2639
  0
LINE
  8
0
 10
45.1958
 20
-39.2639
 11
45.1257
 21
-39.5052
  0
LINE
  8
0
 10
45.1257
 20
-39.5052
 11
45.0708
 21
-39.7505
  0
LINE
  8
0
 10
45.0708
 20
-39.7505
 11
45.0315
 21
-39.9987
  0
LINE
  8
0
 10
45.0315
 20
-39.9987
 11
45.0079
 21
-40.2488
  0
LINE
  8
0
 10
45.0079
 20
-40.2488
 11
45
 21
-40.5
  0
LINE
  8
0
 10
45
 20
-40.5
 11
45.0079
 21
-40.7512
  0
LINE
  8
0
 10
45.0079
 20
-40.7512
 11
45.0315
 21
-41.0013
  0
LINE
  8
0
 10
45.0315
 20
-41.0013
 11
45.0708
 21
-41.2495
  0
LINE
  8
0
 10
45.0708
 20
-41.2495
 11
45.1257
 21
-41.4948
  0
LINE
  8
0
 10
45.1257
 20
-41.4948
 11
45.1958
 21
-41.7361
  0
LINE
  8
0
 10
45.1958
 20
-41.7361
 11
45.2809
 21
-41.9725
  0
LINE
  8
0
 10
45.2809
 20
-41.9725
 11
45.3807
 21
-42.2031
  0
LINE
  8
0
 10
45.3807
 20
-42.2031
 11
45.4948
 21
-42.427
  0
LINE
  8
0
 10
45.4948
 20
-42.427
 11
45.6227
 21
-42.6433
  0
LINE
  8
0
 10
45.6227
 20
-42.6433
 11
45.7639
 21
-42.8511
  0
LINE
  8
0
 10
45.7639
 20
-42.8511
 11
45.9179
 21
-43.0497
  0
LINE
  8
0
 10
45.9179
 20
-43.0497
 11
46.0841
 21
-43.2382
  0
LINE
  8
0
 10
46.0841
 20
-43.2382
 11
46.2618
 21
-43.4159
  0
LINE
  8
0
 10
46.2618
 20
-43.4159
 11
46.4503
 21
-43.582
  0
LINE
  8
0
 10
46.4503
 20
-43.582
 11
46.6488
 21
-43.7361
  0
LINE
  8
0
 10
46.6488
 20
-43.7361
 11
46.8567
 21
-43.8773
  0
LINE
  8
0
 10
46.8567
 20
-43.8773
 11
47.073
 21
-44.0052
  0
LINE
  8
0
 10
47.073
 20
-44.0052
 11
47.2969
 21
-44.1193
  0
LINE
  8
0
 10
47.2969
 20
-44.1193
 11
47.5
 21
-44.2072
  0
LINE
  8
0
 10
47.5
 20
-44.2072
 11
47.5
 21
-45
  0
LINE
  8
0
 10
47.5
 20
-45
 11
60.8333
 21
-45
  0
LINE
  8
0
 10
60.8333
 20
-45
 11
60.8333
 21
-48
  0
LINE
  8
0
 10
60.8333
 20
-48
 11
74.1667
 21
-48
  0
LINE
  8
0
 10
74.1667
 20
-48
 11
74.1667
 21
-45
  0
LINE
  8
0
 10
48.8744
 20
-42.496
 11
48.7493
 21
-42.4842
  0
LINE
  8
0
 10
48.7493
 20
-42.4842
 11
48.6252
 21
-42.4646
  0
LINE
  8
0
 10
48.6252
 20
-42.4646
 11
48.5026
 21
-42.4372
  0
LINE
  8
0
 10
48.5026
 20
-42.4372
 11
48.382
 21
-42.4021
  0
LINE
  8
0
 10
48.382
 20
-42.4021
 11
48.2637
 21
-42.3595
  0
LINE
  8
0
 10
48.2637
 20
-42.3595
 11
48.1484
 21
-42.3096
  0
LINE
  8
0
 10
48.1484
 20
-42.3096
 11
48.0365
 21
-42.2526
  0
LINE
  8
0
 10
48.0365
 20
-42.2526
 11
47.9283
 21
-42.1886
  0
LINE
  8
0
 10
47.9283
 20
-42.1886
 11
47.8244
 21
-42.118
  0
LINE
  8
0
 10
47.8244
 20
-42.118
 11
47.7251
 21
-42.041
  0
LINE
  8
0
 10
47.7251
 20
-42.041
 11
47.6309
 21
-41.9579
  0
LINE
  8
0
 10
47.6309
 20
-41.9579
 11
47.5421
 21
-41.8691
  0
LINE
  8
0
 10
47.5421
 20
-41.8691
 11
47.459
 21
-41.7748
  0
LINE
  8
0
 10
47.459
 20
-41.7748
 11
47.382
 21
-41.6756
  0
LINE
  8
0
 10
47.382
 20
-41.6756
 11
47.3113
 21
-41.5716
  0
LINE
  8
0
 10
47.3113
 20
-41.5716
 11
47.2474
 21
-41.4635
  0
LINE
  8
0
 10
47.2474
 20
-41.4635
 11
47.1903
 21
-41.3515
  0
LINE
  8
0
 10
47.1903
 20
-41.3515
 11
47.1404
 21
-41.2362
  0
LINE
  8
0
 10
47.1404
 20
-41.2362
 11
47.0979
 21
-41.118
  0
LINE
  8
0
 10
47.0979
 20
-41.118
 11
47.0628
 21
-40.9974
  0
LINE
  8
0
 10
47.0628
 20
-40.9974
 11
47.0354
 21
-40.8748
  0
LINE
  8
0
 10
47.0354
 20
-40.8748
 11
47.0158
 21
-40.7507
  0
LINE
  8
0
 10
47.0158
 20
-40.7507
 11
47.0039
 21
-40.6256
  0
LINE
  8
0
 10
47.0039
 20
-40.6256
 11
47
 21
-40.5
  0
LINE
  8
0
 10
47
 20
-40.5
 11
47.0039
 21
-40.3744
  0
LINE
  8
0
 10
47.0039
 20
-40.3744
 11
47.0158
 21
-40.2493
  0
LINE
  8
0
 10
47.0158
 20
-40.2493
 11
47.0354
 21
-40.1252
  0
LINE
  8
0
 10
47.0354
 20
-40.1252
 11
47.0628
 21
-40.0026
  0
LINE
  8
0
 10
47.0628
 20
-40.0026
 11
47.0979
 21
-39.882
  0
LINE
  8
0
 10
47.0979
 20
-39.882
 11
47.1404
 21
-39.7637
  0
LINE
  8
0
 10
47.1404
 20
-39.7637
 11
47.1903
 21
-39.6484
  0
LINE
  8
0
 10
47.1903
 20
-39.6484
 11
47.2474
 21
-39.5365
  0
LINE
  8
0
 10
47.2474
 20
-39.5365
 11
47.3113
 21
-39.4283
  0
LINE
  8
0
 10
47.3113
 20
-39.4283
 11
47.382
 21
-39.3244
  0
LINE
  8
0
 10
47.382
 20
-39.3244
 11
47.459
 21
-39.2251
  0
LINE
  8
0
 10
47.459
 20
-39.2251
 11
47.5421
 21
-39.1309
  0
LINE
  8
0
 10
47.5421
 20
-39.1309
 11
47.6309
 21
-39.0421
  0
LINE
  8
0
 10
47.6309
 20
-39.0421
 11
47.7251
 21
-38.959
  0
LINE
  8
0
 10
47.7251
 20
-38.959
 11
47.8244
 21
-38.882
  0
LINE
  8
0
 10
47.8244
 20
-38.882
 11
47.9283
 21
-38.8113
  0
LINE
  8
0
 10
47.9283
 20
-38.8113
 11
48.0365
 21
-38.7474
  0
LINE
  8
0
 10
48.0365
 20
-38.7474
 11
48.1484
 21
-38.6903
  0
LINE
  8
0
 10
48.1484
 20
-38.6903
 11
48.2637
 21
-38.6404
  0
LINE
  8
0
 10
48.2637
 20
-38.6404
 11
48.382
 21
-38.5979
  0
LINE
  8
0
 10
48.382
 20
-38.5979
 11
48.5026
 21
-38.5628
  0
LINE
  8
0
 10
48.5026
 20
-38.5628
 11
48.6252
 21
-38.5354
  0
LINE
  8
0
 10
48.6252
 20
-38.5354
 11
48.7493
 21
-38.5158
  0
LINE
  8
0
 10
48.7493
 20
-38.5158
 11
48.8744
 21
-38.5039
  0
LINE
  8
0
 10
48.8744
 20
-38.5039
 11
49
 21
-38.5
  0
LINE
  8
0
 10
49
 20
-38.5
 11
49.1256
 21
-38.5039
  0
LINE
  8
0
 10
49.1256
 20
-38.5039
 11
49.2507
 21
-38.5158
  0
LINE
  8
0
 10
49.2507
 20
-38.5158
 11
49.3748
 21
-38.5354
  0
LINE
  8
0
 10
49.3748
 20
-38.5354
 11
49.4974
 21
-38.5628
  0
LINE
  8
0
 10
49.4974
 20
-38.5628
 11
49.618
 21
-38.5979
  0
LINE
  8
0
 10
49.618
 20
-38.5979
 11
49.7362
 21
-38.6404
  0
LINE
  8
0
 10
49.7362
 20
-38.6404
 11
49.8515
 21
-38.6903
  0
LINE
  8
0
 10
49.8515
 20
-38.6903
 11
49.9635
 21
-38.7474
  0
LINE
  8
0
 10
49.9635
 20
-38.7474
 11
50.0716
 21
-38.8113
  0
LINE
  8
0
 10
50.0716
 20
-38.8113
 11
50.1756
 21
-38.882
  0
LINE
  8
0
 10
50.1756
 20
-38.882
 11
50.2748
 21
-38.959
  0
LINE
  8
0
 10
50.2748
 20
-38.959
 11
50.3691
 21
-39.0421
  0
LINE
  8
0
 10
50.3691
 20
-39.0421
 11
50.4579
 21
-39.1309
  0
LINE
  8
0
 10
50.4579
 20
-39.1309
 11
50.541
 21
-39.2251
  0
LINE
  8
0
 10
50.541
 20
-39.2251
 11
50.618
 21
-39.3244
  0
LINE
  8
0
 10
50.618
 20
-39.3244
 11
50.6886
 21
-39.4283
  0
LINE
  8
0
 10
50.6886
 20
-39.4283
 11
50.7526
 21
-39.5365
  0
LINE
  8
0
 10
50.7526
 20
-39.5365
 11
50.8096
 21
-39.6484
  0
LINE
  8
0
 10
50.8096
 20
-39.6484
 11
50.8595
 21
-39.7637
  0
LINE
  8
0
 10
50.8595
 20
-39.7637
 11
50.9021
 21
-39.882
  0
LINE
  8
0
 10
50.9021
 20
-39.882
 11
50.9372
 21
-40.0026
  0
LINE
  8
0
 10
50.9372
 20
-40.0026
 11
50.9646
 21
-40.1252
  0
LINE
  8
0
 10
50.9646
 20
-40.1252
 11
50.9842
 21
-40.2493
  0
LINE
  8
0
 10
50.9842
 20
-40.2493
 11
50.996
 21
-40.3744
  0
LINE
  8
0
 10
50.996
 20
-40.3744
 11
51
 21
-40.5
  0
LINE
  8
0
 10
51
 20
-40.5
 11
50.996
 21
-40.6256
  0
LINE
  8
0
 10
50.996
 20
-40.6256
 11
50.9842
 21
-40.7507
  0
LINE
  8
0
 10
50.9842
 20
-40.7507
 11
50.9646
 21
-40.8748
  0
LINE
  8
0
 10
50.9646
 20
-40.8748
 11
50.9372
 21
-40.9974
  0
LINE
  8
0
 10
50.9372
 20
-40.9974
 11
50.9021
 21
-41.118
  0
LINE
  8
0
 10
50.9021
 20
-41.118
 11
50.8595
 21
-41.2362
  0
LINE
  8
0
 10
50.8595
 20
-41.2362
 11
50.8096
 21
-41.3515
  0
LINE
  8
0
 10
50.8096
 20
-41.3515
 11
50.7526
 21
-41.4635
  0
LINE
  8
0
 10
50.7526
 20
-41.4635
 11
50.6886
 21
-41.5716
  0
LINE
  8
0
 10
50.6886
 20
-41.5716
 11
50.618
 21
-41.6756
  0
LINE
  8
0
 10
50.618
 20
-41.6756
 11
50.541
 21
-41.7748
  0
LINE
  8
0
 10
50.541
 20
-41.7748
 11
50.4579
 21
-41.8691
  0
LINE
  8
0
 10
50.4579
 20
-41.8691
 11
50.3691
 21
-41.9579
  0
LINE
  8
0
 10
50.3691
 20
-41.9579
 11
50.2748
 21
-42.041
  0
LINE
  8
0
 10
50.2748
 20
-42.041
 11
50.1756
 21
-42.118
  0
LINE
  8
0
 10
50.1756
 20
-42.118
 11
50.0716
 21
-42.1886
  0
LINE
  8
0
 10
50.0716
 20
-42.1886
 11
49.9635
 21
-42.2526
  0
LINE
  8
0
 10
49.9635
 20
-42.2526
 11
49.8515
 21
-42.3096
  0
LINE
  8
0
 10
49.8515
 20
-42.3096
 11
49.7362
 21
-42.3595
  0
LINE
  8
0
 10
49.7362
 20
-42.3595
 11
49.618
 21
-42.4021
  0
LINE
  8
0
 10
49.618
 20
-42.4021
 11
49.4974
 21
-42.4372
  0
LINE
  8
0
 10
49.4974
 20
-42.4372
 11
49.3748
 21
-42.4646
  0
LINE
  8
0
 10
49.3748
 20
-42.4646
 11
49.2507
 21
-42.4842
  0
LINE
  8
0
 10
49.2507
 20
-42.4842
 11
49.1256
 21
-42.496
  0
LINE
  8
0
 10
49.1256
 20
-42.496
 11
49
 21
-42.5
  0
LINE
  8
0
 10
49
 20
-42.5
 11
48.8744
 21
-42.496
  0
LINE
  8
0
 10
-13.3333
 20
-45
 11
0
 21
-45
  0
LINE
  8
0
 10
0
 20
-45
 11
0
 21
-48
  0
LINE
  8
0
 10
0
 20
-48
 11
13.3333
 21
-48
  0
LINE
  8
0
 10
13.3333
 20
-48
 11
13.3333
 21
-45
  0
LINE
  8
0
 10
13.3333
 20
-45
 11
26.6667
 21
-45
  0
LINE
  8
0
 10
26.6667
 20
-45
 11
26.6667
 21
-48
  0
LINE
  8
0
 10
26.6667
 20
-48
 11
40
 21
-48
  0
LINE
  8
0
 10
40
 20
-48
 11
40
 21
-40.8333
  0
LINE
  8
0
 10
40
 20
-40.8333
 11
43
 21
-40.8333
  0
LINE
  8
0
 10
43
 20
-40.8333
 11
43
 21
-36.6667
  0
LINE
  8
0
 10
43
 20
-36.6667
 11
40
 21
-36.6667
  0
LINE
  8
0
 10
40
 20
-36.6667
 11
40
 21
-32.5
  0
LINE
  8
0
 10
40
 20
-32.5
 11
43
 21
-32.5
  0
LINE
  8
0
 10
43
 20
-32.5
 11
43
 21
-28.3333
  0
LINE
  8
0
 10
43
 20
-28.3333
 11
40
 21
-28.3333
  0
LINE
  8
0
 10
40
 20
-28.3333
 11
40
 21
-24.1667
  0
LINE
  8
0
 10
40
 20
-24.1667
 11
43
 21
-24.1667
  0
LINE
  8
0
 10
43
 20
-24.1667
 11
43
 21
-20
  0
LINE
  8
0
 10
43
 20
-20
 11
26.6667
 21
-20
  0
LINE
  8
0
 10
26.6667
 20
-20
 11
26.6667
 21
-17
  0
LINE
  8
0
 10
26.6667
 20
-17
 11
13.3333
 21
-17
  0
LINE
  8
0
 10
13.3333
 20
-17
 11
13.3333
 21
-20
  0
LINE
  8
0
 10
13.3333
 20
-20
 11
0
 21
-20
  0
LINE
  8
0
 10
0
 20
-20
 11
0
 21
-17
  0
LINE
  8
0
 10
0
 20
-17
 11
-13.3333
 21
-17
  0
LINE
  8
0
 10
-13.3333
 20
-17
 11
-13.3333
 21
-20
  0
LINE
  8
0
 10
-13.3333
 20
-20
 11
-26.6667
 21
-20
  0
LINE
  8
0
 10
-26.6667
 20
-20
 11
-26.6667
 21
-17
  0
LINE
  8
0
 10
-26.6667
 20
-17
 11
-40
 21
-17
  0
LINE
  8
0
 10
-40
 20
-17
 11
-40
 21
-20.7928
  0
LINE
  8
0
 10
-40
 20
-20.7928
 11
-40.2031
 21
-20.8807
  0
LINE
  8
0
 10
-40.2031
 20
-20.8807
 11
-40.427
 21
-20.9948
  0
LINE
  8
0
 10
-40.427
 20
-20.9948
 11
-40.6433
 21
-21.1227
  0
LINE
  8
0
 10
-40.6433
 20
-21.1227
 11
-40.8511
 21
-21.2639
  0
LINE
  8
0
 10
-40.8511
 20
-21.2639
 11
-41.0497
 21
-21.418
  0
LINE
  8
0
 10
-41.0497
 20
-21.418
 11
-41.2382
 21
-21.5841
  0
LINE
  8
0
 10
-41.2382
 20
-21.5841
 11
-41.4159
 21
-21.7618
  0
LINE
  8
0
 10
-41.4159
 20
-21.7618
 11
-41.582
 21
-21.9503
  0
LINE
  8
0
 10
-41.582
 20
-21.9503
 11
-41.7361
 21
-22.1489
  0
LINE
  8
0
 10
-41.7361
 20
-22.1489
 11
-41.8773
 21
-22.3567
  0
LINE
  8
0
 10
-41.8773
 20
-22.3567
 11
-42.0052
 21
-22.573
  0
LINE
  8
0
 10
-42.0052
 20
-22.573
 11
-42.1193
 21
-22.7969
  0
LINE
  8
0
 10
-42.1193
 20
-22.7969
 11
-42.2191
 21
-23.0275
  0
LINE
  8
0
 10
-42.2191
 20
-23.0275
 11
-42.3042
 21
-23.2639
  0
LINE
  8
0
 10
-42.3042
 20
-23.2639
 11
-42.3743
 21
-23.5052
  0
LINE
  8
0
 10
-42.3743
 20
-23.5052
 11
-42.4291
 21
-23.7505
  0
LINE
  8
0
 10
-42.4291
 20
-23.7505
 11
-42.4684
 21
-23.9987
  0
LINE
  8
0
 10
-42.4684
 20
-23.9987
 11
-42.4921
 21
-24.2488
  0
LINE
  8
0
 10
-42.4921
 20
-24.2488
 11
-42.5
 21
-24.5
  0
LINE
  8
0
 10
-42.5
 20
-24.5
 11
-42.4921
 21
-24.7512
  0
LINE
  8
0
 10
-42.4921
 20
-24.7512
 11
-42.4684
 21
-25.0013
  0
LINE
  8
0
 10
-42.4684
 20
-25.0013
 11
-42.4291
 21
-25.2495
  0
LINE
  8
0
 10
-42.4291
 20
-25.2495
 11
-42.3743
 21
-25.4948
  0
LINE
  8
0
 10
-42.3743
 20
-25.4948
 11
-42.3042
 21
-25.7361
  0
LINE
  8
0
 10
-42.3042
 20
-25.7361
 11
-42.2191
 21
-25.9725
  0
LINE
  8
0
 10
-42.2191
 20
-25.9725
 11
-42.1193
 21
-26.2031
  0
LINE
  8
0
 10
-42.1193
 20
-26.2031
 11
-42.0052
 21
-26.427
  0
LINE
  8
0
 10
-42.0052
 20
-26.427
 11
-41.8773
 21
-26.6433
  0
LINE
  8
0
 10
-41.8773
 20
-26.6433
 11
-41.7361
 21
-26.8512
  0
LINE
  8
0
 10
-41.7361
 20
-26.8512
 11
-41.582
 21
-27.0497
  0
LINE
  8
0
 10
-41.582
 20
-27.0497
 11
-41.4159
 21
-27.2382
  0
LINE
  8
0
 10
-41.4159
 20
-27.2382
 11
-41.2382
 21
-27.4159
  0
LINE
  8
0
 10
-41.2382
 20
-27.4159
 11
-41.0497
 21
-27.5821
  0
LINE
  8
0
 10
-41.0497
 20
-27.5821
 11
-40.8511
 21
-27.7361
  0
LINE
  8
0
 10
-40.8511
 20
-27.7361
 11
-40.6433
 21
-27.8773
  0
LINE
  8
0
 10
-40.6433
 20
-27.8773
 11
-40.427
 21
-28.0052
  0
LINE
  8
0
 10
-40.427
 20
-28.0052
 11
-40.2031
 21
-28.1193
  0
LINE
  8
0
 10
-40.2031
 20
-28.1193
 11
-40
 21
-28.2072
  0
LINE
  8
0
 10
-40
 20
-28.2072
 11
-40
 21
-45
  0
LINE
  8
0
 10
-40
 20
-45
 11
-26.6667
 21
-45
  0
LINE
  8
0
 10
-26.6667
 20
-45
 11
-26.6667
 21
-48
  0
LINE
  8
0
 10
-26.6667
 20
-48
 11
-13.3333
 21
-48
  0
LINE
  8
0
 10
-13.3333
 20
-48
 11
-13.3333
 21
-45
  0
LINE
  8
0
 10
-38.6256
 20
-26.4961
 11
-38.7507
 21
-26.4842
  0
LINE
  8
0
 10
-38.7507
 20
-26.4842
 11
-38.8748
 21
-26.4646
  0
LINE
  8
0
 10
-38.8748
 20
-26.4646
 11
-38.9974
 21
-26.4372
  0
LINE
  8
0
 10
-38.9974
 20
-26.4372
 11
-39.118
 21
-26.4021
  0
LINE
  8
0
 10
-39.118
 20
-26.4021
 11
-39.2362
 21
-26.3596
  0
LINE
  8
0
 10
-39.2362
 20
-26.3596
 11
-39.3515
 21
-26.3097
  0
LINE
  8
0
 10
-39.3515
 20
-26.3097
 11
-39.4635
 21
-26.2526
  0
LINE
  8
0
 10
-39.4635
 20
-26.2526
 11
-39.5716
 21
-26.1887
  0
LINE
  8
0
 10
-39.5716
 20
-26.1887
 11
-39.6756
 21
-26.118
  0
LINE
  8
0
 10
-39.6756
 20
-26.118
 11
-39.7748
 21
-26.041
  0
LINE
  8
0
 10
-39.7748
 20
-26.041
 11
-39.8691
 21
-25.9579
  0
LINE
  8
0
 10
-39.8691
 20
-25.9579
 11
-39.9579
 21
-25.8691
  0
LINE
  8
0
 10
-39.9579
 20
-25.8691
 11
-40.041
 21
-25.7749
  0
LINE
  8
0
 10
-40.041
 20
-25.7749
 11
-40.118
 21
-25.6756
  0
LINE
  8
0
 10
-40.118
 20
-25.6756
 11
-40.1886
 21
-25.5717
  0
LINE
  8
0
 10
-40.1886
 20
-25.5717
 11
-40.2526
 21
-25.4635
  0
LINE
  8
0
 10
-40.2526
 20
-25.4635
 11
-40.3096
 21
-25.3516
  0
LINE
  8
0
 10
-40.3096
 20
-25.3516
 11
-40.3595
 21
-25.2363
  0
LINE
  8
0
 10
-40.3595
 20
-25.2363
 11
-40.4021
 21
-25.118
  0
LINE
  8
0
 10
-40.4021
 20
-25.118
 11
-40.4372
 21
-24.9974
  0
LINE
  8
0
 10
-40.4372
 20
-24.9974
 11
-40.4646
 21
-24.8748
  0
LINE
  8
0
 10
-40.4646
 20
-24.8748
 11
-40.4842
 21
-24.7507
  0
LINE
  8
0
 10
-40.4842
 20
-24.7507
 11
-40.496
 21
-24.6256
  0
LINE
  8
0
 10
-40.496
 20
-24.6256
 11
-40.5
 21
-24.5
  0
LINE
  8
0
 10
-40.5
 20
-24.5
 11
-40.496
 21
-24.3744
  0
LINE
  8
0
 10
-40.496
 20
-24.3744
 11
-40.4842
 21
-24.2493
  0
LINE
  8
0
 10
-40.4842
 20
-24.2493
 11
-40.4646
 21
-24.1252
  0
LINE
  8
0
 10
-40.4646
 20
-24.1252
 11
-40.4372
 21
-24.0026
  0
LINE
  8
0
 10
-40.4372
 20
-24.0026
 11
-40.4021
 21
-23.882
  0
LINE
  8
0
 10
-40.4021
 20
-23.882
 11
-40.3595
 21
-23.7638
  0
LINE
  8
0
 10
-40.3595
 20
-23.7638
 11
-40.3096
 21
-23.6485
  0
LINE
  8
0
 10
-40.3096
 20
-23.6485
 11
-40.2526
 21
-23.5365
  0
LINE
  8
0
 10
-40.2526
 20
-23.5365
 11
-40.1886
 21
-23.4284
  0
LINE
  8
0
 10
-40.1886
 20
-23.4284
 11
-40.118
 21
-23.3244
  0
LINE
  8
0
 10
-40.118
 20
-23.3244
 11
-40.041
 21
-23.2252
  0
LINE
  8
0
 10
-40.041
 20
-23.2252
 11
-39.9579
 21
-23.1309
  0
LINE
  8
0
 10
-39.9579
 20
-23.1309
 11
-39.8691
 21
-23.0421
  0
LINE
  8
0
 10
-39.8691
 20
-23.0421
 11
-39.7748
 21
-22.959
  0
LINE
  8
0
 10
-39.7748
 20
-22.959
 11
-39.6756
 21
-22.882
  0
LINE
  8
0
 10
-39.6756
 20
-22.882
 11
-39.5716
 21
-22.8114
  0
LINE
  8
0
 10
-39.5716
 20
-22.8114
 11
-39.4635
 21
-22.7474
  0
LINE
  8
0
 10
-39.4635
 20
-22.7474
 11
-39.3515
 21
-22.6904
  0
LINE
  8
0
 10
-39.3515
 20
-22.6904
 11
-39.2362
 21
-22.6405
  0
LINE
  8
0
 10
-39.2362
 20
-22.6405
 11
-39.118
 21
-22.5979
  0
LINE
  8
0
 10
-39.118
 20
-22.5979
 11
-38.9974
 21
-22.5628
  0
LINE
  8
0
 10
-38.9974
 20
-22.5628
 11
-38.8748
 21
-22.5354
  0
LINE
  8
0
 10
-38.8748
 20
-22.5354
 11
-38.7507
 21
-22.5158
  0
LINE
  8
0
 10
-38.7507
 20
-22.5158
 11
-38.6256
 21
-22.504
  0
LINE
  8
0
 10
-38.6256
 20
-22.504
 11
-38.5
 21
-22.5
  0
LINE
  8
0
 10
-38.5
 20
-22.5
 11
-38.3744
 21
-22.504
  0
LINE
  8
0
 10
-38.3744
 20
-22.504
 11
-38.2493
 21
-22.5158
  0
LINE
  8
0
 10
-38.2493
 20
-22.5158
 11
-38.1252
 21
-22.5354
  0
LINE
  8
0
 10
-38.1252
 20
-22.5354
 11
-38.0026
 21
-22.5628
  0
LINE
  8
0
 10
-38.0026
 20
-22.5628
 11
-37.882
 21
-22.5979
  0
LINE
  8
0
 10
-37.882
 20
-22.5979
 11
-37.7637
 21
-22.6405
  0
LINE
  8
0
 10
-37.7637
 20
-22.6405
 11
-37.6484
 21
-22.6904
  0
LINE
  8
0
 10
-37.6484
 20
-22.6904
 11
-37.5365
 21
-22.7474
  0
LINE
  8
0
 10
-37.5365
 20
-22.7474
 11
-37.4283
 21
-22.8114
  0
LINE
  8
0
 10
-37.4283
 20
-22.8114
 11
-37.3244
 21
-22.882
  0
LINE
  8
0
 10
-37.3244
 20
-22.882
 11
-37.2251
 21
-22.959
  0
LINE
  8
0
 10
-37.2251
 20
-22.959
 11
-37.1309
 21
-23.0421
  0
LINE
  8
0
 10
-37.1309
 20
-23.0421
 11
-37.0421
 21
-23.1309
  0
LINE
  8
0
 10
-37.0421
 20
-23.1309
 11
-36.959
 21
-23.2252
  0
LINE
  8
0
 10
-36.959
 20
-23.2252
 11
-36.882
 21
-23.3244
  0
LINE
  8
0
 10
-36.882
 20
-23.3244
 11
-36.8113
 21
-23.4284
  0
LINE
  8
0
 10
-36.8113
 20
-23.4284
 11
-36.7474
 21
-23.5365
  0
LINE
  8
0
 10
-36.7474
 20
-23.5365
 11
-36.6903
 21
-23.6485
  0
LINE
  8
0
 10
-36.6903
 20
-23.6485
 11
-36.6404
 21
-23.7638
  0
LINE
  8
0
 10
-36.6404
 20
-23.7638
 11
-36.5979
 21
-23.882
  0
LINE
  8
0
 10
-36.5979
 20
-23.882
 11
-36.5628
 21
-24.0026
  0
LINE
  8
0
 10
-36.5628
 20
-24.0026
 11
-36.5354
 21
-24.1252
  0
LINE
  8
0
 10
-36.5354
 20
-24.1252
 11
-36.5158
 21
-24.2493
  0
LINE
  8
0
 10
-36.5158
 20
-24.2493
 11
-36.5039
 21
-24.3744
  0
LINE
  8
0
 10
-36.5039
 20
-24.3744
 11
-36.5
 21
-24.5
  0
LINE
  8
0
 10
-36.5
 20
-24.5
 11
-36.5039
 21
-24.6256
  0
LINE
  8
0
 10
-36.5039
 20
-24.6256
 11
-36.5158
 21
-24.7507
  0
LINE
  8
0
 10
-36.5158
 20
-24.7507
 11
-36.5354
 21
-24.8748
  0
LINE
  8
0
 10
-36.5354
 20
-24.8748
 11
-36.5628
 21
-24.9974
  0
LINE
  8
0
 10
-36.5628
 20
-24.9974
 11
-36.5979
 21
-25.118
  0
LINE
  8
0
 10
-36.5979
 20
-25.118
 11
-36.6404
 21
-25.2363
  0
LINE
  8
0
 10
-36.6404
 20
-25.2363
 11
-36.6903
 21
-25.3516
  0
LINE
  8
0
 10
-36.6903
 20
-25.3516
 11
-36.7474
 21
-25.4635
  0
LINE
  8
0
 10
-36.7474
 20
-25.4635
 11
-36.8113
 21
-25.5717
  0
LINE
  8
0
 10
-36.8113
 20
-25.5717
 11
-36.882
 21
-25.6756
  0
LINE
  8
0
 10
-36.882
 20
-25.6756
 11
-36.959
 21
-25.7749
  0
LINE
  8
0
 10
-36.959
 20
-25.7749
 11
-37.0421
 21
-25.8691
  0
LINE
  8
0
 10
-37.0421
 20
-25.8691
 11
-37.1309
 21
-25.9579
  0
LINE
  8
0
 10
-37.1309
 20
-25.9579
 11
-37.2251
 21
-26.041
  0
LINE
  8
0
 10
-37.2251
 20
-26.041
 11
-37.3244
 21
-26.118
  0
LINE
  8
0
 10
-37.3244
 20
-26.118
 11
-37.4283
 21
-26.1887
  0
LINE
  8
0
 10
-37.4283
 20
-26.1887
 11
-37.5365
 21
-26.2526
  0
LINE
  8
0
 10
-37.5365
 20
-26.2526
 11
-37.6484
 21
-26.3097
  0
LINE
  8
0
 10
-37.6484
 20
-26.3097
 11
-37.7637
 21
-26.3596
  0
LINE
  8
0
 10
-37.7637
 20
-26.3596
 11
-37.882
 21
-26.4021
  0
LINE
  8
0
 10
-37.882
 20
-26.4021
 11
-38.0026
 21
-26.4372
  0
LINE
  8
0
 10
-38.0026
 20
-26.4372
 11
-38.1252
 21
-26.4646
  0
LINE
  8
0
 10
-38.1252
 20
-26.4646
 11
-38.2493
 21
-26.4842
  0
LINE
  8
0
 10
-38.2493
 20
-26.4842
 11
-38.3744
 21
-26.4961
  0
LINE
  8
0
 10
-38.3744
 20
-26.4961
 11
-38.5
 21
-26.5
  0
LINE
  8
0
 10
-38.5
 20
-26.5
 11
-38.6256
 21
-26.4961
  0
ENDSEC
  0
SECTION
  2
OBJECTS
  0
DICTIONARY
  0
ENDSEC
  0
EOF
