  0
SECTION
  2
BLOCKS
  0
ENDSEC
  0
SECTION
  2
ENTITIES
  0
LINE
  8
0
 10
310.38
 20
56.26
 11
310.33
 21
57.0559
  0
LINE
  8
0
 10
310.33
 20
57.0559
 11
310.18
 21
57.8392
  0
LINE
  8
0
 10
310.18
 20
57.8392
 11
309.934
 21
58.5976
  0
LINE
  8
0
 10
309.934
 20
58.5976
 11
309.595
 21
59.3191
  0
LINE
  8
0
 10
309.595
 20
59.3191
 11
309.167
 21
59.9924
  0
LINE
  8
0
 10
309.167
 20
59.9924
 11
308.659
 21
60.6069
  0
LINE
  8
0
 10
308.659
 20
60.6069
 11
308.078
 21
61.1528
  0
LINE
  8
0
 10
308.078
 20
61.1528
 11
307.432
 21
61.6215
  0
LINE
  8
0
 10
307.432
 20
61.6215
 11
306.734
 21
62.0056
  0
LINE
  8
0
 10
306.734
 20
62.0056
 11
305.992
 21
62.2992
  0
LINE
  8
0
 10
305.992
 20
62.2992
 11
305.22
 21
62.4975
  0
LINE
  8
0
 10
305.22
 20
62.4975
 11
304.429
 21
62.5975
  0
LINE
  8
0
 10
304.429
 20
62.5975
 11
221.971
 21
62.5975
  0
LINE
  8
0
 10
221.971
 20
62.5975
 11
221.18
 21
62.4975
  0
LINE
  8
0
 10
221.18
 20
62.4975
 11
220.408
 21
62.2992
  0
LINE
  8
0
 10
220.408
 20
62.2992
 11
219.666
 21
62.0056
  0
LINE
  8
0
 10
219.666
 20
62.0056
 11
218.967
 21
61.6215
  0
LINE
  8
0
 10
218.967
 20
61.6215
 11
218.322
 21
61.1528
  0
LINE
  8
0
 10
218.322
 20
61.1528
 11
217.741
 21
60.6069
  0
LINE
  8
0
 10
217.741
 20
60.6069
 11
217.233
 21
59.9924
  0
LINE
  8
0
 10
217.233
 20
59.9924
 11
216.805
 21
59.3191
  0
LINE
  8
0
 10
216.805
 20
59.3191
 11
216.466
 21
58.5976
  0
LINE
  8
0
 10
216.466
 20
58.5976
 11
216.219
 21
57.8392
  0
LINE
  8
0
 10
216.219
 20
57.8392
 11
216.07
 21
57.0559
  0
LINE
  8
0
 10
216.07
 20
57.0559
 11
216.02
 21
56.26
  0
LINE
  8
0
 10
216.02
 20
56.26
 11
216.02
 21
54
  0
LINE
  8
0
 10
216.02
 20
54
 11
231.52
 21
54
  0
LINE
  8
0
 10
231.52
 20
54
 11
231.52
 21
51
  0
LINE
  8
0
 10
231.52
 20
51
 11
238.02
 21
51
  0
LINE
  8
0
 10
238.02
 20
51
 11
238.02
 21
58.61
  0
LINE
  8
0
 10
238.02
 20
58.61
 11
297.02
 21
58.61
  0
LINE
  8
0
 10
297.02
 20
58.61
 11
297.02
 21
49.5
  0
LINE
  8
0
 10
297.02
 20
49.5
 11
310.38
 21
49.5
  0
LINE
  8
0
 10
310.38
 20
49.5
 11
310.38
 21
56.26
  0
LINE
  8
0
 10
234.504
 20
53.5739
 11
234.255
 21
53.6054
  0
LINE
  8
0
 10
234.255
 20
53.6054
 11
234.012
 21
53.6679
  0
LINE
  8
0
 10
234.012
 20
53.6679
 11
233.778
 21
53.7603
  0
LINE
  8
0
 10
233.778
 20
53.7603
 11
233.558
 21
53.8813
  0
LINE
  8
0
 10
233.558
 20
53.8813
 11
233.355
 21
54.029
  0
LINE
  8
0
 10
233.355
 20
54.029
 11
233.172
 21
54.2009
  0
LINE
  8
0
 10
233.172
 20
54.2009
 11
233.012
 21
54.3944
  0
LINE
  8
0
 10
233.012
 20
54.3944
 11
232.877
 21
54.6065
  0
LINE
  8
0
 10
232.877
 20
54.6065
 11
232.77
 21
54.8337
  0
LINE
  8
0
 10
232.77
 20
54.8337
 11
232.693
 21
55.0726
  0
LINE
  8
0
 10
232.693
 20
55.0726
 11
232.646
 21
55.3193
  0
LINE
  8
0
 10
232.646
 20
55.3193
 11
232.63
 21
55.57
  0
LINE
  8
0
 10
232.63
 20
55.57
 11
232.646
 21
55.8207
  0
LINE
  8
0
 10
232.646
 20
55.8207
 11
232.693
 21
56.0674
  0
LINE
  8
0
 10
232.693
 20
56.0674
 11
232.77
 21
56.3062
  0
LINE
  8
0
 10
232.77
 20
56.3062
 11
232.877
 21
56.5335
  0
LINE
  8
0
 10
232.877
 20
56.5335
 11
233.012
 21
56.7456
  0
LINE
  8
0
 10
233.012
 20
56.7456
 11
233.172
 21
56.9391
  0
LINE
  8
0
 10
233.172
 20
56.9391
 11
233.355
 21
57.111
  0
LINE
  8
0
 10
233.355
 20
57.111
 11
233.558
 21
57.2587
  0
LINE
  8
0
 10
233.558
 20
57.2587
 11
233.778
 21
57.3797
  0
LINE
  8
0
 10
233.778
 20
57.3797
 11
234.012
 21
57.4721
  0
LINE
  8
0
 10
234.012
 20
57.4721
 11
234.255
 21
57.5346
  0
LINE
  8
0
 10
234.255
 20
57.5346
 11
234.504
 21
57.566
  0
LINE
  8
0
 10
234.504
 20
57.566
 11
234.756
 21
57.566
  0
LINE
  8
0
 10
234.756
 20
57.566
 11
235.005
 21
57.5346
  0
LINE
  8
0
 10
235.005
 20
57.5346
 11
235.248
 21
57.4721
  0
LINE
  8
0
 10
235.248
 20
57.4721
 11
235.482
 21
57.3797
  0
LINE
  8
0
 10
235.482
 20
57.3797
 11
235.702
 21
57.2587
  0
LINE
  8
0
 10
235.702
 20
57.2587
 11
235.905
 21
57.111
  0
LINE
  8
0
 10
235.905
 20
57.111
 11
236.088
 21
56.9391
  0
LINE
  8
0
 10
236.088
 20
56.9391
 11
236.248
 21
56.7456
  0
LINE
  8
0
 10
236.248
 20
56.7456
 11
236.383
 21
56.5335
  0
LINE
  8
0
 10
236.383
 20
56.5335
 11
236.49
 21
56.3062
  0
LINE
  8
0
 10
236.49
 20
56.3062
 11
236.567
 21
56.0674
  0
LINE
  8
0
 10
236.567
 20
56.0674
 11
236.614
 21
55.8207
  0
LINE
  8
0
 10
236.614
 20
55.8207
 11
236.63
 21
55.57
  0
LINE
  8
0
 10
236.63
 20
55.57
 11
236.614
 21
55.3193
  0
LINE
  8
0
 10
236.614
 20
55.3193
 11
236.567
 21
55.0726
  0
LINE
  8
0
 10
236.567
 20
55.0726
 11
236.49
 21
54.8337
  0
LINE
  8
0
 10
236.49
 20
54.8337
 11
236.383
 21
54.6065
  0
LINE
  8
0
 10
236.383
 20
54.6065
 11
236.248
 21
54.3944
  0
LINE
  8
0
 10
236.248
 20
54.3944
 11
236.088
 21
54.2009
  0
LINE
  8
0
 10
236.088
 20
54.2009
 11
235.905
 21
54.029
  0
LINE
  8
0
 10
235.905
 20
54.029
 11
235.702
 21
53.8813
  0
LINE
  8
0
 10
235.702
 20
53.8813
 11
235.482
 21
53.7603
  0
LINE
  8
0
 10
235.482
 20
53.7603
 11
235.248
 21
53.6679
  0
LINE
  8
0
 10
235.248
 20
53.6679
 11
235.005
 21
53.6054
  0
LINE
  8
0
 10
235.005
 20
53.6054
 11
234.756
 21
53.5739
  0
LINE
  8
0
 10
234.756
 20
53.5739
 11
234.504
 21
53.5739
  0
LINE
  8
0
 10
300.604
 20
50.2639
 11
300.355
 21
50.2954
  0
LINE
  8
0
 10
300.355
 20
50.2954
 11
300.112
 21
50.3579
  0
LINE
  8
0
 10
300.112
 20
50.3579
 11
299.878
 21
50.4503
  0
LINE
  8
0
 10
299.878
 20
50.4503
 11
299.658
 21
50.5713
  0
LINE
  8
0
 10
299.658
 20
50.5713
 11
299.455
 21
50.719
  0
LINE
  8
0
 10
299.455
 20
50.719
 11
299.272
 21
50.8909
  0
LINE
  8
0
 10
299.272
 20
50.8909
 11
299.112
 21
51.0844
  0
LINE
  8
0
 10
299.112
 20
51.0844
 11
298.977
 21
51.2965
  0
LINE
  8
0
 10
298.977
 20
51.2965
 11
298.87
 21
51.5237
  0
LINE
  8
0
 10
298.87
 20
51.5237
 11
298.793
 21
51.7626
  0
LINE
  8
0
 10
298.793
 20
51.7626
 11
298.746
 21
52.0093
  0
LINE
  8
0
 10
298.746
 20
52.0093
 11
298.73
 21
52.26
  0
LINE
  8
0
 10
298.73
 20
52.26
 11
298.746
 21
52.5107
  0
LINE
  8
0
 10
298.746
 20
52.5107
 11
298.793
 21
52.7574
  0
LINE
  8
0
 10
298.793
 20
52.7574
 11
298.87
 21
52.9962
  0
LINE
  8
0
 10
298.87
 20
52.9962
 11
298.977
 21
53.2235
  0
LINE
  8
0
 10
298.977
 20
53.2235
 11
299.112
 21
53.4356
  0
LINE
  8
0
 10
299.112
 20
53.4356
 11
299.272
 21
53.6291
  0
LINE
  8
0
 10
299.272
 20
53.6291
 11
299.455
 21
53.801
  0
LINE
  8
0
 10
299.455
 20
53.801
 11
299.658
 21
53.9487
  0
LINE
  8
0
 10
299.658
 20
53.9487
 11
299.878
 21
54.0696
  0
LINE
  8
0
 10
299.878
 20
54.0696
 11
300.112
 21
54.1621
  0
LINE
  8
0
 10
300.112
 20
54.1621
 11
300.355
 21
54.2246
  0
LINE
  8
0
 10
300.355
 20
54.2246
 11
300.604
 21
54.256
  0
LINE
  8
0
 10
300.604
 20
54.256
 11
300.856
 21
54.256
  0
LINE
  8
0
 10
300.856
 20
54.256
 11
301.105
 21
54.2246
  0
LINE
  8
0
 10
301.105
 20
54.2246
 11
301.348
 21
54.1621
  0
LINE
  8
0
 10
301.348
 20
54.1621
 11
301.582
 21
54.0696
  0
LINE
  8
0
 10
301.582
 20
54.0696
 11
301.802
 21
53.9487
  0
LINE
  8
0
 10
301.802
 20
53.9487
 11
302.005
 21
53.801
  0
LINE
  8
0
 10
302.005
 20
53.801
 11
302.188
 21
53.6291
  0
LINE
  8
0
 10
302.188
 20
53.6291
 11
302.348
 21
53.4356
  0
LINE
  8
0
 10
302.348
 20
53.4356
 11
302.483
 21
53.2235
  0
LINE
  8
0
 10
302.483
 20
53.2235
 11
302.59
 21
52.9962
  0
LINE
  8
0
 10
302.59
 20
52.9962
 11
302.667
 21
52.7574
  0
LINE
  8
0
 10
302.667
 20
52.7574
 11
302.714
 21
52.5107
  0
LINE
  8
0
 10
302.714
 20
52.5107
 11
302.73
 21
52.26
  0
LINE
  8
0
 10
302.73
 20
52.26
 11
302.714
 21
52.0093
  0
LINE
  8
0
 10
302.714
 20
52.0093
 11
302.667
 21
51.7626
  0
LINE
  8
0
 10
302.667
 20
51.7626
 11
302.59
 21
51.5237
  0
LINE
  8
0
 10
302.59
 20
51.5237
 11
302.483
 21
51.2965
  0
LINE
  8
0
 10
302.483
 20
51.2965
 11
302.348
 21
51.0844
  0
LINE
  8
0
 10
302.348
 20
51.0844
 11
302.188
 21
50.8909
  0
LINE
  8
0
 10
302.188
 20
50.8909
 11
302.005
 21
50.719
  0
LINE
  8
0
 10
302.005
 20
50.719
 11
301.802
 21
50.5713
  0
LINE
  8
0
 10
301.802
 20
50.5713
 11
301.582
 21
50.4503
  0
LINE
  8
0
 10
301.582
 20
50.4503
 11
301.348
 21
50.3579
  0
LINE
  8
0
 10
301.348
 20
50.3579
 11
301.105
 21
50.2954
  0
LINE
  8
0
 10
301.105
 20
50.2954
 11
300.856
 21
50.2639
  0
LINE
  8
0
 10
300.856
 20
50.2639
 11
300.604
 21
50.2639
  0
LINE
  8
0
 10
415.58
 20
0.112473
 11
416.352
 21
0.310791
  0
LINE
  8
0
 10
416.352
 20
0.310791
 11
417.094
 21
0.60434
  0
LINE
  8
0
 10
417.094
 20
0.60434
 11
417.792
 21
0.98851
  0
LINE
  8
0
 10
417.792
 20
0.98851
 11
418.438
 21
1.45723
  0
LINE
  8
0
 10
418.438
 20
1.45723
 11
419.019
 21
2.00311
  0
LINE
  8
0
 10
419.019
 20
2.00311
 11
419.527
 21
2.61755
  0
LINE
  8
0
 10
419.527
 20
2.61755
 11
419.955
 21
3.29086
  0
LINE
  8
0
 10
419.955
 20
3.29086
 11
420.294
 21
4.01241
  0
LINE
  8
0
 10
420.294
 20
4.01241
 11
420.54
 21
4.77081
  0
LINE
  8
0
 10
420.54
 20
4.77081
 11
420.69
 21
5.55412
  0
LINE
  8
0
 10
420.69
 20
5.55412
 11
420.74
 21
6.34999
  0
LINE
  8
0
 10
420.74
 20
6.34999
 11
420.74
 21
23
  0
LINE
  8
0
 10
420.74
 20
23
 11
408.74
 21
23
  0
LINE
  8
0
 10
408.74
 20
23
 11
408.74
 21
34
  0
LINE
  8
0
 10
408.74
 20
34
 11
416.74
 21
34
  0
LINE
  8
0
 10
416.74
 20
34
 11
416.74
 21
49.5
  0
LINE
  8
0
 10
416.74
 20
49.5
 11
420.74
 21
49.5
  0
LINE
  8
0
 10
420.74
 20
49.5
 11
420.74
 21
56.26
  0
LINE
  8
0
 10
420.74
 20
56.26
 11
420.69
 21
57.0559
  0
LINE
  8
0
 10
420.69
 20
57.0559
 11
420.54
 21
57.8392
  0
LINE
  8
0
 10
420.54
 20
57.8392
 11
420.294
 21
58.5976
  0
LINE
  8
0
 10
420.294
 20
58.5976
 11
419.955
 21
59.3191
  0
LINE
  8
0
 10
419.955
 20
59.3191
 11
419.527
 21
59.9924
  0
LINE
  8
0
 10
419.527
 20
59.9924
 11
419.019
 21
60.6069
  0
LINE
  8
0
 10
419.019
 20
60.6069
 11
418.438
 21
61.1528
  0
LINE
  8
0
 10
418.438
 20
61.1528
 11
417.792
 21
61.6215
  0
LINE
  8
0
 10
417.792
 20
61.6215
 11
417.094
 21
62.0056
  0
LINE
  8
0
 10
417.094
 20
62.0056
 11
416.352
 21
62.2992
  0
LINE
  8
0
 10
416.352
 20
62.2992
 11
415.58
 21
62.4975
  0
LINE
  8
0
 10
415.58
 20
62.4975
 11
414.789
 21
62.5975
  0
LINE
  8
0
 10
414.789
 20
62.5975
 11
332.331
 21
62.5975
  0
LINE
  8
0
 10
332.331
 20
62.5975
 11
331.54
 21
62.4975
  0
LINE
  8
0
 10
331.54
 20
62.4975
 11
330.768
 21
62.2992
  0
LINE
  8
0
 10
330.768
 20
62.2992
 11
330.026
 21
62.0056
  0
LINE
  8
0
 10
330.026
 20
62.0056
 11
329.327
 21
61.6215
  0
LINE
  8
0
 10
329.327
 20
61.6215
 11
328.682
 21
61.1528
  0
LINE
  8
0
 10
328.682
 20
61.1528
 11
328.101
 21
60.6069
  0
LINE
  8
0
 10
328.101
 20
60.6069
 11
327.593
 21
59.9924
  0
LINE
  8
0
 10
327.593
 20
59.9924
 11
327.165
 21
59.3191
  0
LINE
  8
0
 10
327.165
 20
59.3191
 11
326.826
 21
58.5976
  0
LINE
  8
0
 10
326.826
 20
58.5976
 11
326.579
 21
57.8392
  0
LINE
  8
0
 10
326.579
 20
57.8392
 11
326.43
 21
57.0559
  0
LINE
  8
0
 10
326.43
 20
57.0559
 11
326.38
 21
56.26
  0
LINE
  8
0
 10
326.38
 20
56.26
 11
326.38
 21
54
  0
LINE
  8
0
 10
326.38
 20
54
 11
339.38
 21
54
  0
LINE
  8
0
 10
339.38
 20
54
 11
339.38
 21
42
  0
LINE
  8
0
 10
339.38
 20
42
 11
326.38
 21
42
  0
LINE
  8
0
 10
326.38
 20
42
 11
326.38
 21
6.34999
  0
LINE
  8
0
 10
326.38
 20
6.34999
 11
326.43
 21
5.55412
  0
LINE
  8
0
 10
326.43
 20
5.55412
 11
326.579
 21
4.77081
  0
LINE
  8
0
 10
326.579
 20
4.77081
 11
326.826
 21
4.01241
  0
LINE
  8
0
 10
326.826
 20
4.01241
 11
327.165
 21
3.29086
  0
LINE
  8
0
 10
327.165
 20
3.29086
 11
327.593
 21
2.61755
  0
LINE
  8
0
 10
327.593
 20
2.61755
 11
328.101
 21
2.00311
  0
LINE
  8
0
 10
328.101
 20
2.00311
 11
328.682
 21
1.45723
  0
LINE
  8
0
 10
328.682
 20
1.45723
 11
329.327
 21
0.98851
  0
LINE
  8
0
 10
329.327
 20
0.98851
 11
330.026
 21
0.60434
  0
LINE
  8
0
 10
330.026
 20
0.60434
 11
330.768
 21
0.310791
  0
LINE
  8
0
 10
330.768
 20
0.310791
 11
331.54
 21
0.112473
  0
LINE
  8
0
 10
331.54
 20
0.112473
 11
332.331
 21
0.0125275
  0
LINE
  8
0
 10
332.331
 20
0.0125275
 11
414.789
 21
0.0125275
  0
LINE
  8
0
 10
414.789
 20
0.0125275
 11
415.58
 21
0.112473
  0
LINE
  8
0
 10
344.864
 20
53.5739
 11
344.615
 21
53.6054
  0
LINE
  8
0
 10
344.615
 20
53.6054
 11
344.372
 21
53.6679
  0
LINE
  8
0
 10
344.372
 20
53.6679
 11
344.138
 21
53.7603
  0
LINE
  8
0
 10
344.138
 20
53.7603
 11
343.918
 21
53.8813
  0
LINE
  8
0
 10
343.918
 20
53.8813
 11
343.715
 21
54.029
  0
LINE
  8
0
 10
343.715
 20
54.029
 11
343.532
 21
54.2009
  0
LINE
  8
0
 10
343.532
 20
54.2009
 11
343.372
 21
54.3944
  0
LINE
  8
0
 10
343.372
 20
54.3944
 11
343.237
 21
54.6065
  0
LINE
  8
0
 10
343.237
 20
54.6065
 11
343.13
 21
54.8337
  0
LINE
  8
0
 10
343.13
 20
54.8337
 11
343.053
 21
55.0726
  0
LINE
  8
0
 10
343.053
 20
55.0726
 11
343.006
 21
55.3193
  0
LINE
  8
0
 10
343.006
 20
55.3193
 11
342.99
 21
55.57
  0
LINE
  8
0
 10
342.99
 20
55.57
 11
343.006
 21
55.8207
  0
LINE
  8
0
 10
343.006
 20
55.8207
 11
343.053
 21
56.0674
  0
LINE
  8
0
 10
343.053
 20
56.0674
 11
343.13
 21
56.3062
  0
LINE
  8
0
 10
343.13
 20
56.3062
 11
343.237
 21
56.5335
  0
LINE
  8
0
 10
343.237
 20
56.5335
 11
343.372
 21
56.7456
  0
LINE
  8
0
 10
343.372
 20
56.7456
 11
343.532
 21
56.9391
  0
LINE
  8
0
 10
343.532
 20
56.9391
 11
343.715
 21
57.111
  0
LINE
  8
0
 10
343.715
 20
57.111
 11
343.918
 21
57.2587
  0
LINE
  8
0
 10
343.918
 20
57.2587
 11
344.138
 21
57.3797
  0
LINE
  8
0
 10
344.138
 20
57.3797
 11
344.372
 21
57.4721
  0
LINE
  8
0
 10
344.372
 20
57.4721
 11
344.615
 21
57.5346
  0
LINE
  8
0
 10
344.615
 20
57.5346
 11
344.864
 21
57.566
  0
LINE
  8
0
 10
344.864
 20
57.566
 11
345.116
 21
57.566
  0
LINE
  8
0
 10
345.116
 20
57.566
 11
345.365
 21
57.5346
  0
LINE
  8
0
 10
345.365
 20
57.5346
 11
345.608
 21
57.4721
  0
LINE
  8
0
 10
345.608
 20
57.4721
 11
345.842
 21
57.3797
  0
LINE
  8
0
 10
345.842
 20
57.3797
 11
346.062
 21
57.2587
  0
LINE
  8
0
 10
346.062
 20
57.2587
 11
346.265
 21
57.111
  0
LINE
  8
0
 10
346.265
 20
57.111
 11
346.448
 21
56.9391
  0
LINE
  8
0
 10
346.448
 20
56.9391
 11
346.608
 21
56.7456
  0
LINE
  8
0
 10
346.608
 20
56.7456
 11
346.743
 21
56.5335
  0
LINE
  8
0
 10
346.743
 20
56.5335
 11
346.85
 21
56.3062
  0
LINE
  8
0
 10
346.85
 20
56.3062
 11
346.927
 21
56.0674
  0
LINE
  8
0
 10
346.927
 20
56.0674
 11
346.974
 21
55.8207
  0
LINE
  8
0
 10
346.974
 20
55.8207
 11
346.99
 21
55.57
  0
LINE
  8
0
 10
346.99
 20
55.57
 11
346.974
 21
55.3193
  0
LINE
  8
0
 10
346.974
 20
55.3193
 11
346.927
 21
55.0726
  0
LINE
  8
0
 10
346.927
 20
55.0726
 11
346.85
 21
54.8337
  0
LINE
  8
0
 10
346.85
 20
54.8337
 11
346.743
 21
54.6065
  0
LINE
  8
0
 10
346.743
 20
54.6065
 11
346.608
 21
54.3944
  0
LINE
  8
0
 10
346.608
 20
54.3944
 11
346.448
 21
54.2009
  0
LINE
  8
0
 10
346.448
 20
54.2009
 11
346.265
 21
54.029
  0
LINE
  8
0
 10
346.265
 20
54.029
 11
346.062
 21
53.8813
  0
LINE
  8
0
 10
346.062
 20
53.8813
 11
345.842
 21
53.7603
  0
LINE
  8
0
 10
345.842
 20
53.7603
 11
345.608
 21
53.6679
  0
LINE
  8
0
 10
345.608
 20
53.6679
 11
345.365
 21
53.6054
  0
LINE
  8
0
 10
345.365
 20
53.6054
 11
345.116
 21
53.5739
  0
LINE
  8
0
 10
345.116
 20
53.5739
 11
344.864
 21
53.5739
  0
LINE
  8
0
 10
410.964
 20
50.2639
 11
410.715
 21
50.2954
  0
LINE
  8
0
 10
410.715
 20
50.2954
 11
410.472
 21
50.3579
  0
LINE
  8
0
 10
410.472
 20
50.3579
 11
410.238
 21
50.4503
  0
LINE
  8
0
 10
410.238
 20
50.4503
 11
410.018
 21
50.5713
  0
LINE
  8
0
 10
410.018
 20
50.5713
 11
409.815
 21
50.719
  0
LINE
  8
0
 10
409.815
 20
50.719
 11
409.632
 21
50.8909
  0
LINE
  8
0
 10
409.632
 20
50.8909
 11
409.472
 21
51.0844
  0
LINE
  8
0
 10
409.472
 20
51.0844
 11
409.337
 21
51.2965
  0
LINE
  8
0
 10
409.337
 20
51.2965
 11
409.23
 21
51.5237
  0
LINE
  8
0
 10
409.23
 20
51.5237
 11
409.153
 21
51.7626
  0
LINE
  8
0
 10
409.153
 20
51.7626
 11
409.106
 21
52.0093
  0
LINE
  8
0
 10
409.106
 20
52.0093
 11
409.09
 21
52.26
  0
LINE
  8
0
 10
409.09
 20
52.26
 11
409.106
 21
52.5107
  0
LINE
  8
0
 10
409.106
 20
52.5107
 11
409.153
 21
52.7574
  0
LINE
  8
0
 10
409.153
 20
52.7574
 11
409.23
 21
52.9962
  0
LINE
  8
0
 10
409.23
 20
52.9962
 11
409.337
 21
53.2235
  0
LINE
  8
0
 10
409.337
 20
53.2235
 11
409.472
 21
53.4356
  0
LINE
  8
0
 10
409.472
 20
53.4356
 11
409.632
 21
53.6291
  0
LINE
  8
0
 10
409.632
 20
53.6291
 11
409.815
 21
53.801
  0
LINE
  8
0
 10
409.815
 20
53.801
 11
410.018
 21
53.9487
  0
LINE
  8
0
 10
410.018
 20
53.9487
 11
410.238
 21
54.0696
  0
LINE
  8
0
 10
410.238
 20
54.0696
 11
410.472
 21
54.1621
  0
LINE
  8
0
 10
410.472
 20
54.1621
 11
410.715
 21
54.2246
  0
LINE
  8
0
 10
410.715
 20
54.2246
 11
410.964
 21
54.256
  0
LINE
  8
0
 10
410.964
 20
54.256
 11
411.216
 21
54.256
  0
LINE
  8
0
 10
411.216
 20
54.256
 11
411.465
 21
54.2246
  0
LINE
  8
0
 10
411.465
 20
54.2246
 11
411.708
 21
54.1621
  0
LINE
  8
0
 10
411.708
 20
54.1621
 11
411.942
 21
54.0696
  0
LINE
  8
0
 10
411.942
 20
54.0696
 11
412.162
 21
53.9487
  0
LINE
  8
0
 10
412.162
 20
53.9487
 11
412.365
 21
53.801
  0
LINE
  8
0
 10
412.365
 20
53.801
 11
412.548
 21
53.6291
  0
LINE
  8
0
 10
412.548
 20
53.6291
 11
412.708
 21
53.4356
  0
LINE
  8
0
 10
412.708
 20
53.4356
 11
412.843
 21
53.2235
  0
LINE
  8
0
 10
412.843
 20
53.2235
 11
412.95
 21
52.9962
  0
LINE
  8
0
 10
412.95
 20
52.9962
 11
413.027
 21
52.7574
  0
LINE
  8
0
 10
413.027
 20
52.7574
 11
413.074
 21
52.5107
  0
LINE
  8
0
 10
413.074
 20
52.5107
 11
413.09
 21
52.26
  0
LINE
  8
0
 10
413.09
 20
52.26
 11
413.074
 21
52.0093
  0
LINE
  8
0
 10
413.074
 20
52.0093
 11
413.027
 21
51.7626
  0
LINE
  8
0
 10
413.027
 20
51.7626
 11
412.95
 21
51.5237
  0
LINE
  8
0
 10
412.95
 20
51.5237
 11
412.843
 21
51.2965
  0
LINE
  8
0
 10
412.843
 20
51.2965
 11
412.708
 21
51.0844
  0
LINE
  8
0
 10
412.708
 20
51.0844
 11
412.548
 21
50.8909
  0
LINE
  8
0
 10
412.548
 20
50.8909
 11
412.365
 21
50.719
  0
LINE
  8
0
 10
412.365
 20
50.719
 11
412.162
 21
50.5713
  0
LINE
  8
0
 10
412.162
 20
50.5713
 11
411.942
 21
50.4503
  0
LINE
  8
0
 10
411.942
 20
50.4503
 11
411.708
 21
50.3579
  0
LINE
  8
0
 10
411.708
 20
50.3579
 11
411.465
 21
50.2954
  0
LINE
  8
0
 10
411.465
 20
50.2954
 11
411.216
 21
50.2639
  0
LINE
  8
0
 10
411.216
 20
50.2639
 11
410.964
 21
50.2639
  0
LINE
  8
0
 10
410.964
 20
8.35394
 11
410.715
 21
8.38542
  0
LINE
  8
0
 10
410.715
 20
8.38542
 11
410.472
 21
8.44788
  0
LINE
  8
0
 10
410.472
 20
8.44788
 11
410.238
 21
8.54034
  0
LINE
  8
0
 10
410.238
 20
8.54034
 11
410.018
 21
8.66133
  0
LINE
  8
0
 10
410.018
 20
8.66133
 11
409.815
 21
8.80896
  0
LINE
  8
0
 10
409.815
 20
8.80896
 11
409.632
 21
8.9809
  0
LINE
  8
0
 10
409.632
 20
8.9809
 11
409.472
 21
9.17442
  0
LINE
  8
0
 10
409.472
 20
9.17442
 11
409.337
 21
9.38649
  0
LINE
  8
0
 10
409.337
 20
9.38649
 11
409.23
 21
9.61374
  0
LINE
  8
0
 10
409.23
 20
9.61374
 11
409.153
 21
9.85262
  0
LINE
  8
0
 10
409.153
 20
9.85262
 11
409.106
 21
10.0993
  0
LINE
  8
0
 10
409.106
 20
10.0993
 11
409.09
 21
10.35
  0
LINE
  8
0
 10
409.09
 20
10.35
 11
409.106
 21
10.6007
  0
LINE
  8
0
 10
409.106
 20
10.6007
 11
409.153
 21
10.8474
  0
LINE
  8
0
 10
409.153
 20
10.8474
 11
409.23
 21
11.0862
  0
LINE
  8
0
 10
409.23
 20
11.0862
 11
409.337
 21
11.3135
  0
LINE
  8
0
 10
409.337
 20
11.3135
 11
409.472
 21
11.5256
  0
LINE
  8
0
 10
409.472
 20
11.5256
 11
409.632
 21
11.7191
  0
LINE
  8
0
 10
409.632
 20
11.7191
 11
409.815
 21
11.891
  0
LINE
  8
0
 10
409.815
 20
11.891
 11
410.018
 21
12.0387
  0
LINE
  8
0
 10
410.018
 20
12.0387
 11
410.238
 21
12.1597
  0
LINE
  8
0
 10
410.238
 20
12.1597
 11
410.472
 21
12.2521
  0
LINE
  8
0
 10
410.472
 20
12.2521
 11
410.715
 21
12.3146
  0
LINE
  8
0
 10
410.715
 20
12.3146
 11
410.964
 21
12.346
  0
LINE
  8
0
 10
410.964
 20
12.346
 11
411.216
 21
12.346
  0
LINE
  8
0
 10
411.216
 20
12.346
 11
411.465
 21
12.3146
  0
LINE
  8
0
 10
411.465
 20
12.3146
 11
411.708
 21
12.2521
  0
LINE
  8
0
 10
411.708
 20
12.2521
 11
411.942
 21
12.1597
  0
LINE
  8
0
 10
411.942
 20
12.1597
 11
412.162
 21
12.0387
  0
LINE
  8
0
 10
412.162
 20
12.0387
 11
412.365
 21
11.891
  0
LINE
  8
0
 10
412.365
 20
11.891
 11
412.548
 21
11.7191
  0
LINE
  8
0
 10
412.548
 20
11.7191
 11
412.708
 21
11.5256
  0
LINE
  8
0
 10
412.708
 20
11.5256
 11
412.843
 21
11.3135
  0
LINE
  8
0
 10
412.843
 20
11.3135
 11
412.95
 21
11.0862
  0
LINE
  8
0
 10
412.95
 20
11.0862
 11
413.027
 21
10.8474
  0
LINE
  8
0
 10
413.027
 20
10.8474
 11
413.074
 21
10.6007
  0
LINE
  8
0
 10
413.074
 20
10.6007
 11
413.09
 21
10.35
  0
LINE
  8
0
 10
413.09
 20
10.35
 11
413.074
 21
10.0993
  0
LINE
  8
0
 10
413.074
 20
10.0993
 11
413.027
 21
9.85262
  0
LINE
  8
0
 10
413.027
 20
9.85262
 11
412.95
 21
9.61374
  0
LINE
  8
0
 10
412.95
 20
9.61374
 11
412.843
 21
9.38649
  0
LINE
  8
0
 10
412.843
 20
9.38649
 11
412.708
 21
9.17442
  0
LINE
  8
0
 10
412.708
 20
9.17442
 11
412.548
 21
8.9809
  0
LINE
  8
0
 10
412.548
 20
8.9809
 11
412.365
 21
8.80896
  0
LINE
  8
0
 10
412.365
 20
8.80896
 11
412.162
 21
8.66133
  0
LINE
  8
0
 10
412.162
 20
8.66133
 11
411.942
 21
8.54034
  0
LINE
  8
0
 10
411.942
 20
8.54034
 11
411.708
 21
8.44788
  0
LINE
  8
0
 10
411.708
 20
8.44788
 11
411.465
 21
8.38542
  0
LINE
  8
0
 10
411.465
 20
8.38542
 11
411.216
 21
8.35394
  0
LINE
  8
0
 10
411.216
 20
8.35394
 11
410.964
 21
8.35394
  0
LINE
  8
0
 10
344.864
 20
5.18394
 11
344.615
 21
5.21542
  0
LINE
  8
0
 10
344.615
 20
5.21542
 11
344.372
 21
5.27788
  0
LINE
  8
0
 10
344.372
 20
5.27788
 11
344.138
 21
5.37035
  0
LINE
  8
0
 10
344.138
 20
5.37035
 11
343.918
 21
5.49133
  0
LINE
  8
0
 10
343.918
 20
5.49133
 11
343.715
 21
5.63896
  0
LINE
  8
0
 10
343.715
 20
5.63896
 11
343.532
 21
5.8109
  0
LINE
  8
0
 10
343.532
 20
5.8109
 11
343.372
 21
6.00443
  0
LINE
  8
0
 10
343.372
 20
6.00443
 11
343.237
 21
6.21649
  0
LINE
  8
0
 10
343.237
 20
6.21649
 11
343.13
 21
6.44374
  0
LINE
  8
0
 10
343.13
 20
6.44374
 11
343.053
 21
6.68262
  0
LINE
  8
0
 10
343.053
 20
6.68262
 11
343.006
 21
6.92932
  0
LINE
  8
0
 10
343.006
 20
6.92932
 11
342.99
 21
7.17999
  0
LINE
  8
0
 10
342.99
 20
7.17999
 11
343.006
 21
7.43066
  0
LINE
  8
0
 10
343.006
 20
7.43066
 11
343.053
 21
7.67737
  0
LINE
  8
0
 10
343.053
 20
7.67737
 11
343.13
 21
7.91624
  0
LINE
  8
0
 10
343.13
 20
7.91624
 11
343.237
 21
8.14349
  0
LINE
  8
0
 10
343.237
 20
8.14349
 11
343.372
 21
8.35556
  0
LINE
  8
0
 10
343.372
 20
8.35556
 11
343.532
 21
8.54909
  0
LINE
  8
0
 10
343.532
 20
8.54909
 11
343.715
 21
8.72102
  0
LINE
  8
0
 10
343.715
 20
8.72102
 11
343.918
 21
8.86865
  0
LINE
  8
0
 10
343.918
 20
8.86865
 11
344.138
 21
8.98964
  0
LINE
  8
0
 10
344.138
 20
8.98964
 11
344.372
 21
9.08211
  0
LINE
  8
0
 10
344.372
 20
9.08211
 11
344.615
 21
9.14456
  0
LINE
  8
0
 10
344.615
 20
9.14456
 11
344.864
 21
9.17604
  0
LINE
  8
0
 10
344.864
 20
9.17604
 11
345.116
 21
9.17604
  0
LINE
  8
0
 10
345.116
 20
9.17604
 11
345.365
 21
9.14456
  0
LINE
  8
0
 10
345.365
 20
9.14456
 11
345.608
 21
9.08211
  0
LINE
  8
0
 10
345.608
 20
9.08211
 11
345.842
 21
8.98964
  0
LINE
  8
0
 10
345.842
 20
8.98964
 11
346.062
 21
8.86865
  0
LINE
  8
0
 10
346.062
 20
8.86865
 11
346.265
 21
8.72102
  0
LINE
  8
0
 10
346.265
 20
8.72102
 11
346.448
 21
8.54909
  0
LINE
  8
0
 10
346.448
 20
8.54909
 11
346.608
 21
8.35556
  0
LINE
  8
0
 10
346.608
 20
8.35556
 11
346.743
 21
8.14349
  0
LINE
  8
0
 10
346.743
 20
8.14349
 11
346.85
 21
7.91624
  0
LINE
  8
0
 10
346.85
 20
7.91624
 11
346.927
 21
7.67737
  0
LINE
  8
0
 10
346.927
 20
7.67737
 11
346.974
 21
7.43066
  0
LINE
  8
0
 10
346.974
 20
7.43066
 11
346.99
 21
7.17999
  0
LINE
  8
0
 10
346.99
 20
7.17999
 11
346.974
 21
6.92932
  0
LINE
  8
0
 10
346.974
 20
6.92932
 11
346.927
 21
6.68262
  0
LINE
  8
0
 10
346.927
 20
6.68262
 11
346.85
 21
6.44374
  0
LINE
  8
0
 10
346.85
 20
6.44374
 11
346.743
 21
6.21649
  0
LINE
  8
0
 10
346.743
 20
6.21649
 11
346.608
 21
6.00443
  0
LINE
  8
0
 10
346.608
 20
6.00443
 11
346.448
 21
5.8109
  0
LINE
  8
0
 10
346.448
 20
5.8109
 11
346.265
 21
5.63896
  0
LINE
  8
0
 10
346.265
 20
5.63896
 11
346.062
 21
5.49133
  0
LINE
  8
0
 10
346.062
 20
5.49133
 11
345.842
 21
5.37035
  0
LINE
  8
0
 10
345.842
 20
5.37035
 11
345.608
 21
5.27788
  0
LINE
  8
0
 10
345.608
 20
5.27788
 11
345.365
 21
5.21542
  0
LINE
  8
0
 10
345.365
 20
5.21542
 11
345.116
 21
5.18394
  0
LINE
  8
0
 10
345.116
 20
5.18394
 11
344.864
 21
5.18394
  0
LINE
  8
0
 10
89.1999
 20
0.112473
 11
89.9723
 21
0.310791
  0
LINE
  8
0
 10
89.9723
 20
0.310791
 11
90.7137
 21
0.60434
  0
LINE
  8
0
 10
90.7137
 20
0.60434
 11
91.4125
 21
0.98851
  0
LINE
  8
0
 10
91.4125
 20
0.98851
 11
92.0576
 21
1.45723
  0
LINE
  8
0
 10
92.0576
 20
1.45723
 11
92.6389
 21
2.00311
  0
LINE
  8
0
 10
92.6389
 20
2.00311
 11
93.1472
 21
2.61755
  0
LINE
  8
0
 10
93.1472
 20
2.61755
 11
93.5745
 21
3.29086
  0
LINE
  8
0
 10
93.5745
 20
3.29086
 11
93.9141
 21
4.01241
  0
LINE
  8
0
 10
93.9141
 20
4.01241
 11
94.1605
 21
4.77081
  0
LINE
  8
0
 10
94.1605
 20
4.77081
 11
94.3099
 21
5.55412
  0
LINE
  8
0
 10
94.3099
 20
5.55412
 11
94.36
 21
6.34999
  0
LINE
  8
0
 10
94.36
 20
6.34999
 11
94.36
 21
13.5
  0
LINE
  8
0
 10
94.36
 20
13.5
 11
76.11
 21
13.5
  0
LINE
  8
0
 10
76.11
 20
13.5
 11
76.11
 21
28.5
  0
LINE
  8
0
 10
76.11
 20
28.5
 11
94.36
 21
28.5
  0
LINE
  8
0
 10
94.36
 20
28.5
 11
94.36
 21
56.26
  0
LINE
  8
0
 10
94.36
 20
56.26
 11
94.3099
 21
57.0559
  0
LINE
  8
0
 10
94.3099
 20
57.0559
 11
94.1605
 21
57.8392
  0
LINE
  8
0
 10
94.1605
 20
57.8392
 11
93.9141
 21
58.5976
  0
LINE
  8
0
 10
93.9141
 20
58.5976
 11
93.5745
 21
59.3191
  0
LINE
  8
0
 10
93.5745
 20
59.3191
 11
93.1472
 21
59.9924
  0
LINE
  8
0
 10
93.1472
 20
59.9924
 11
92.6389
 21
60.6069
  0
LINE
  8
0
 10
92.6389
 20
60.6069
 11
92.0576
 21
61.1528
  0
LINE
  8
0
 10
92.0576
 20
61.1528
 11
91.4125
 21
61.6215
  0
LINE
  8
0
 10
91.4125
 20
61.6215
 11
90.7137
 21
62.0056
  0
LINE
  8
0
 10
90.7137
 20
62.0056
 11
89.9723
 21
62.2992
  0
LINE
  8
0
 10
89.9723
 20
62.2992
 11
89.1999
 21
62.4975
  0
LINE
  8
0
 10
89.1999
 20
62.4975
 11
88.4087
 21
62.5975
  0
LINE
  8
0
 10
88.4087
 20
62.5975
 11
5.95128
 21
62.5975
  0
LINE
  8
0
 10
5.95128
 20
62.5975
 11
5.16013
 21
62.4975
  0
LINE
  8
0
 10
5.16013
 20
62.4975
 11
4.38774
 21
62.2992
  0
LINE
  8
0
 10
4.38774
 20
62.2992
 11
3.6463
 21
62.0056
  0
LINE
  8
0
 10
3.6463
 20
62.0056
 11
2.94749
 21
61.6215
  0
LINE
  8
0
 10
2.94749
 20
61.6215
 11
2.30235
 21
61.1528
  0
LINE
  8
0
 10
2.30235
 20
61.1528
 11
1.72104
 21
60.6069
  0
LINE
  8
0
 10
1.72104
 20
60.6069
 11
1.21274
 21
59.9924
  0
LINE
  8
0
 10
1.21274
 20
59.9924
 11
0.785446
 21
59.3191
  0
LINE
  8
0
 10
0.785446
 20
59.3191
 11
0.445908
 21
58.5976
  0
LINE
  8
0
 10
0.445908
 20
58.5976
 11
0.199493
 21
57.8392
  0
LINE
  8
0
 10
0.199493
 20
57.8392
 11
0.0500641
 21
57.0559
  0
LINE
  8
0
 10
0.0500641
 20
57.0559
 11
0
 21
56.26
  0
LINE
  8
0
 10
0
 20
56.26
 11
0
 21
43
  0
LINE
  8
0
 10
0
 20
43
 11
24
 21
43
  0
LINE
  8
0
 10
24
 20
43
 11
24
 21
25
  0
LINE
  8
0
 10
24
 20
25
 11
0
 21
25
  0
LINE
  8
0
 10
0
 20
25
 11
0
 21
19
  0
LINE
  8
0
 10
0
 20
19
 11
15.5
 21
19
  0
LINE
  8
0
 10
15.5
 20
19
 11
15.5
 21
7.99998
  0
LINE
  8
0
 10
15.5
 20
7.99998
 11
0
 21
7.99998
  0
LINE
  8
0
 10
0
 20
7.99998
 11
0
 21
6.34999
  0
LINE
  8
0
 10
0
 20
6.34999
 11
0.0500641
 21
5.55412
  0
LINE
  8
0
 10
0.0500641
 20
5.55412
 11
0.199493
 21
4.77081
  0
LINE
  8
0
 10
0.199493
 20
4.77081
 11
0.445908
 21
4.01241
  0
LINE
  8
0
 10
0.445908
 20
4.01241
 11
0.785446
 21
3.29086
  0
LINE
  8
0
 10
0.785446
 20
3.29086
 11
1.21274
 21
2.61755
  0
LINE
  8
0
 10
1.21274
 20
2.61755
 11
1.72104
 21
2.00311
  0
LINE
  8
0
 10
1.72104
 20
2.00311
 11
2.30235
 21
1.45723
  0
LINE
  8
0
 10
2.30235
 20
1.45723
 11
2.94749
 21
0.98851
  0
LINE
  8
0
 10
2.94749
 20
0.98851
 11
3.6463
 21
0.60434
  0
LINE
  8
0
 10
3.6463
 20
0.60434
 11
4.38774
 21
0.310791
  0
LINE
  8
0
 10
4.38774
 20
0.310791
 11
5.16013
 21
0.112473
  0
LINE
  8
0
 10
5.16013
 20
0.112473
 11
5.95128
 21
0.0125275
  0
LINE
  8
0
 10
5.95128
 20
0.0125275
 11
88.4087
 21
0.0125275
  0
LINE
  8
0
 10
88.4087
 20
0.0125275
 11
89.1999
 21
0.112473
  0
LINE
  8
0
 10
22
 20
52.61
 11
22
 21
58.61
  0
LINE
  8
0
 10
22
 20
58.61
 11
81
 21
58.61
  0
LINE
  8
0
 10
81
 20
58.61
 11
81
 21
52.61
  0
LINE
  8
0
 10
81
 20
52.61
 11
22
 21
52.61
  0
LINE
  8
0
 10
9
 20
53.57
 11
9
 21
57.57
  0
LINE
  8
0
 10
9
 20
57.57
 11
15
 21
57.57
  0
LINE
  8
0
 10
15
 20
57.57
 11
15
 21
53.57
  0
LINE
  8
0
 10
15
 20
53.57
 11
9
 21
53.57
  0
LINE
  8
0
 10
18.4844
 20
53.5739
 11
18.2352
 21
53.6054
  0
LINE
  8
0
 10
18.2352
 20
53.6054
 11
17.992
 21
53.6679
  0
LINE
  8
0
 10
17.992
 20
53.6679
 11
17.7584
 21
53.7603
  0
LINE
  8
0
 10
17.7584
 20
53.7603
 11
17.5383
 21
53.8813
  0
LINE
  8
0
 10
17.5383
 20
53.8813
 11
17.3351
 21
54.029
  0
LINE
  8
0
 10
17.3351
 20
54.029
 11
17.1521
 21
54.2009
  0
LINE
  8
0
 10
17.1521
 20
54.2009
 11
16.992
 21
54.3944
  0
LINE
  8
0
 10
16.992
 20
54.3944
 11
16.8574
 21
54.6065
  0
LINE
  8
0
 10
16.8574
 20
54.6065
 11
16.7504
 21
54.8337
  0
LINE
  8
0
 10
16.7504
 20
54.8337
 11
16.6728
 21
55.0726
  0
LINE
  8
0
 10
16.6728
 20
55.0726
 11
16.6258
 21
55.3193
  0
LINE
  8
0
 10
16.6258
 20
55.3193
 11
16.61
 21
55.57
  0
LINE
  8
0
 10
16.61
 20
55.57
 11
16.6258
 21
55.8207
  0
LINE
  8
0
 10
16.6258
 20
55.8207
 11
16.6728
 21
56.0674
  0
LINE
  8
0
 10
16.6728
 20
56.0674
 11
16.7504
 21
56.3062
  0
LINE
  8
0
 10
16.7504
 20
56.3062
 11
16.8574
 21
56.5335
  0
LINE
  8
0
 10
16.8574
 20
56.5335
 11
16.992
 21
56.7456
  0
LINE
  8
0
 10
16.992
 20
56.7456
 11
17.1521
 21
56.9391
  0
LINE
  8
0
 10
17.1521
 20
56.9391
 11
17.3351
 21
57.111
  0
LINE
  8
0
 10
17.3351
 20
57.111
 11
17.5383
 21
57.2587
  0
LINE
  8
0
 10
17.5383
 20
57.2587
 11
17.7584
 21
57.3797
  0
LINE
  8
0
 10
17.7584
 20
57.3797
 11
17.992
 21
57.4721
  0
LINE
  8
0
 10
17.992
 20
57.4721
 11
18.2352
 21
57.5346
  0
LINE
  8
0
 10
18.2352
 20
57.5346
 11
18.4844
 21
57.566
  0
LINE
  8
0
 10
18.4844
 20
57.566
 11
18.7356
 21
57.566
  0
LINE
  8
0
 10
18.7356
 20
57.566
 11
18.9848
 21
57.5346
  0
LINE
  8
0
 10
18.9848
 20
57.5346
 11
19.228
 21
57.4721
  0
LINE
  8
0
 10
19.228
 20
57.4721
 11
19.4615
 21
57.3797
  0
LINE
  8
0
 10
19.4615
 20
57.3797
 11
19.6816
 21
57.2587
  0
LINE
  8
0
 10
19.6816
 20
57.2587
 11
19.8848
 21
57.111
  0
LINE
  8
0
 10
19.8848
 20
57.111
 11
20.0679
 21
56.9391
  0
LINE
  8
0
 10
20.0679
 20
56.9391
 11
20.228
 21
56.7456
  0
LINE
  8
0
 10
20.228
 20
56.7456
 11
20.3626
 21
56.5335
  0
LINE
  8
0
 10
20.3626
 20
56.5335
 11
20.4695
 21
56.3062
  0
LINE
  8
0
 10
20.4695
 20
56.3062
 11
20.5472
 21
56.0674
  0
LINE
  8
0
 10
20.5472
 20
56.0674
 11
20.5942
 21
55.8207
  0
LINE
  8
0
 10
20.5942
 20
55.8207
 11
20.61
 21
55.57
  0
LINE
  8
0
 10
20.61
 20
55.57
 11
20.5942
 21
55.3193
  0
LINE
  8
0
 10
20.5942
 20
55.3193
 11
20.5472
 21
55.0726
  0
LINE
  8
0
 10
20.5472
 20
55.0726
 11
20.4695
 21
54.8337
  0
LINE
  8
0
 10
20.4695
 20
54.8337
 11
20.3626
 21
54.6065
  0
LINE
  8
0
 10
20.3626
 20
54.6065
 11
20.228
 21
54.3944
  0
LINE
  8
0
 10
20.228
 20
54.3944
 11
20.0679
 21
54.2009
  0
LINE
  8
0
 10
20.0679
 20
54.2009
 11
19.8848
 21
54.029
  0
LINE
  8
0
 10
19.8848
 20
54.029
 11
19.6816
 21
53.8813
  0
LINE
  8
0
 10
19.6816
 20
53.8813
 11
19.4615
 21
53.7603
  0
LINE
  8
0
 10
19.4615
 20
53.7603
 11
19.228
 21
53.6679
  0
LINE
  8
0
 10
19.228
 20
53.6679
 11
18.9848
 21
53.6054
  0
LINE
  8
0
 10
18.9848
 20
53.6054
 11
18.7356
 21
53.5739
  0
LINE
  8
0
 10
18.7356
 20
53.5739
 11
18.4844
 21
53.5739
  0
LINE
  8
0
 10
84.5844
 20
50.2639
 11
84.3352
 21
50.2954
  0
LINE
  8
0
 10
84.3352
 20
50.2954
 11
84.092
 21
50.3579
  0
LINE
  8
0
 10
84.092
 20
50.3579
 11
83.8584
 21
50.4503
  0
LINE
  8
0
 10
83.8584
 20
50.4503
 11
83.6383
 21
50.5713
  0
LINE
  8
0
 10
83.6383
 20
50.5713
 11
83.4352
 21
50.719
  0
LINE
  8
0
 10
83.4352
 20
50.719
 11
83.2521
 21
50.8909
  0
LINE
  8
0
 10
83.2521
 20
50.8909
 11
83.092
 21
51.0844
  0
LINE
  8
0
 10
83.092
 20
51.0844
 11
82.9574
 21
51.2965
  0
LINE
  8
0
 10
82.9574
 20
51.2965
 11
82.8504
 21
51.5237
  0
LINE
  8
0
 10
82.8504
 20
51.5237
 11
82.7728
 21
51.7626
  0
LINE
  8
0
 10
82.7728
 20
51.7626
 11
82.7258
 21
52.0093
  0
LINE
  8
0
 10
82.7258
 20
52.0093
 11
82.71
 21
52.26
  0
LINE
  8
0
 10
82.71
 20
52.26
 11
82.7258
 21
52.5107
  0
LINE
  8
0
 10
82.7258
 20
52.5107
 11
82.7728
 21
52.7574
  0
LINE
  8
0
 10
82.7728
 20
52.7574
 11
82.8504
 21
52.9962
  0
LINE
  8
0
 10
82.8504
 20
52.9962
 11
82.9574
 21
53.2235
  0
LINE
  8
0
 10
82.9574
 20
53.2235
 11
83.092
 21
53.4356
  0
LINE
  8
0
 10
83.092
 20
53.4356
 11
83.2521
 21
53.6291
  0
LINE
  8
0
 10
83.2521
 20
53.6291
 11
83.4352
 21
53.801
  0
LINE
  8
0
 10
83.4352
 20
53.801
 11
83.6383
 21
53.9487
  0
LINE
  8
0
 10
83.6383
 20
53.9487
 11
83.8584
 21
54.0696
  0
LINE
  8
0
 10
83.8584
 20
54.0696
 11
84.092
 21
54.1621
  0
LINE
  8
0
 10
84.092
 20
54.1621
 11
84.3352
 21
54.2246
  0
LINE
  8
0
 10
84.3352
 20
54.2246
 11
84.5844
 21
54.256
  0
LINE
  8
0
 10
84.5844
 20
54.256
 11
84.8356
 21
54.256
  0
LINE
  8
0
 10
84.8356
 20
54.256
 11
85.0848
 21
54.2246
  0
LINE
  8
0
 10
85.0848
 20
54.2246
 11
85.328
 21
54.1621
  0
LINE
  8
0
 10
85.328
 20
54.1621
 11
85.5616
 21
54.0696
  0
LINE
  8
0
 10
85.5616
 20
54.0696
 11
85.7816
 21
53.9487
  0
LINE
  8
0
 10
85.7816
 20
53.9487
 11
85.9848
 21
53.801
  0
LINE
  8
0
 10
85.9848
 20
53.801
 11
86.1679
 21
53.6291
  0
LINE
  8
0
 10
86.1679
 20
53.6291
 11
86.328
 21
53.4356
  0
LINE
  8
0
 10
86.328
 20
53.4356
 11
86.4626
 21
53.2235
  0
LINE
  8
0
 10
86.4626
 20
53.2235
 11
86.5695
 21
52.9962
  0
LINE
  8
0
 10
86.5695
 20
52.9962
 11
86.6472
 21
52.7574
  0
LINE
  8
0
 10
86.6472
 20
52.7574
 11
86.6942
 21
52.5107
  0
LINE
  8
0
 10
86.6942
 20
52.5107
 11
86.71
 21
52.26
  0
LINE
  8
0
 10
86.71
 20
52.26
 11
86.6942
 21
52.0093
  0
LINE
  8
0
 10
86.6942
 20
52.0093
 11
86.6472
 21
51.7626
  0
LINE
  8
0
 10
86.6472
 20
51.7626
 11
86.5695
 21
51.5237
  0
LINE
  8
0
 10
86.5695
 20
51.5237
 11
86.4626
 21
51.2965
  0
LINE
  8
0
 10
86.4626
 20
51.2965
 11
86.328
 21
51.0844
  0
LINE
  8
0
 10
86.328
 20
51.0844
 11
86.1679
 21
50.8909
  0
LINE
  8
0
 10
86.1679
 20
50.8909
 11
85.9848
 21
50.719
  0
LINE
  8
0
 10
85.9848
 20
50.719
 11
85.7816
 21
50.5713
  0
LINE
  8
0
 10
85.7816
 20
50.5713
 11
85.5616
 21
50.4503
  0
LINE
  8
0
 10
85.5616
 20
50.4503
 11
85.328
 21
50.3579
  0
LINE
  8
0
 10
85.328
 20
50.3579
 11
85.0848
 21
50.2954
  0
LINE
  8
0
 10
85.0848
 20
50.2954
 11
84.8356
 21
50.2639
  0
LINE
  8
0
 10
84.8356
 20
50.2639
 11
84.5844
 21
50.2639
  0
LINE
  8
0
 10
76.36
 20
45.25
 11
76.36
 21
49.25
  0
LINE
  8
0
 10
76.36
 20
49.25
 11
82.36
 21
49.25
  0
LINE
  8
0
 10
82.36
 20
49.25
 11
82.36
 21
45.25
  0
LINE
  8
0
 10
82.36
 20
45.25
 11
76.36
 21
45.25
  0
LINE
  8
0
 10
9
 20
44
 11
9
 21
48
  0
LINE
  8
0
 10
9
 20
48
 11
15
 21
48
  0
LINE
  8
0
 10
15
 20
48
 11
15
 21
44
  0
LINE
  8
0
 10
15
 20
44
 11
9
 21
44
  0
LINE
  8
0
 10
64.36
 20
11.5
 11
64.36
 21
19.5
  0
LINE
  8
0
 10
64.36
 20
19.5
 11
74.86
 21
19.5
  0
LINE
  8
0
 10
74.86
 20
19.5
 11
74.86
 21
11.5
  0
LINE
  8
0
 10
74.86
 20
11.5
 11
64.36
 21
11.5
  0
LINE
  8
0
 10
22
 20
4
 11
22
 21
10
  0
LINE
  8
0
 10
22
 20
10
 11
44.185
 21
10
  0
LINE
  8
0
 10
44.185
 20
10
 11
44.185
 21
14
  0
LINE
  8
0
 10
44.185
 20
14
 11
61.685
 21
14
  0
LINE
  8
0
 10
61.685
 20
14
 11
61.685
 21
10
  0
LINE
  8
0
 10
61.685
 20
10
 11
81
 21
10
  0
LINE
  8
0
 10
81
 20
10
 11
81
 21
4
  0
LINE
  8
0
 10
81
 20
4
 11
22
 21
4
  0
LINE
  8
0
 10
84.5844
 20
8.35394
 11
84.3352
 21
8.38542
  0
LINE
  8
0
 10
84.3352
 20
8.38542
 11
84.092
 21
8.44788
  0
LINE
  8
0
 10
84.092
 20
8.44788
 11
83.8584
 21
8.54034
  0
LINE
  8
0
 10
83.8584
 20
8.54034
 11
83.6383
 21
8.66133
  0
LINE
  8
0
 10
83.6383
 20
8.66133
 11
83.4352
 21
8.80896
  0
LINE
  8
0
 10
83.4352
 20
8.80896
 11
83.2521
 21
8.9809
  0
LINE
  8
0
 10
83.2521
 20
8.9809
 11
83.092
 21
9.17442
  0
LINE
  8
0
 10
83.092
 20
9.17442
 11
82.9574
 21
9.38649
  0
LINE
  8
0
 10
82.9574
 20
9.38649
 11
82.8504
 21
9.61374
  0
LINE
  8
0
 10
82.8504
 20
9.61374
 11
82.7728
 21
9.85262
  0
LINE
  8
0
 10
82.7728
 20
9.85262
 11
82.7258
 21
10.0993
  0
LINE
  8
0
 10
82.7258
 20
10.0993
 11
82.71
 21
10.35
  0
LINE
  8
0
 10
82.71
 20
10.35
 11
82.7258
 21
10.6007
  0
LINE
  8
0
 10
82.7258
 20
10.6007
 11
82.7728
 21
10.8474
  0
LINE
  8
0
 10
82.7728
 20
10.8474
 11
82.8504
 21
11.0862
  0
LINE
  8
0
 10
82.8504
 20
11.0862
 11
82.9574
 21
11.3135
  0
LINE
  8
0
 10
82.9574
 20
11.3135
 11
83.092
 21
11.5256
  0
LINE
  8
0
 10
83.092
 20
11.5256
 11
83.2521
 21
11.7191
  0
LINE
  8
0
 10
83.2521
 20
11.7191
 11
83.4352
 21
11.891
  0
LINE
  8
0
 10
83.4352
 20
11.891
 11
83.6383
 21
12.0387
  0
LINE
  8
0
 10
83.6383
 20
12.0387
 11
83.8584
 21
12.1597
  0
LINE
  8
0
 10
83.8584
 20
12.1597
 11
84.092
 21
12.2521
  0
LINE
  8
0
 10
84.092
 20
12.2521
 11
84.3352
 21
12.3146
  0
LINE
  8
0
 10
84.3352
 20
12.3146
 11
84.5844
 21
12.346
  0
LINE
  8
0
 10
84.5844
 20
12.346
 11
84.8356
 21
12.346
  0
LINE
  8
0
 10
84.8356
 20
12.346
 11
85.0848
 21
12.3146
  0
LINE
  8
0
 10
85.0848
 20
12.3146
 11
85.328
 21
12.2521
  0
LINE
  8
0
 10
85.328
 20
12.2521
 11
85.5616
 21
12.1597
  0
LINE
  8
0
 10
85.5616
 20
12.1597
 11
85.7816
 21
12.0387
  0
LINE
  8
0
 10
85.7816
 20
12.0387
 11
85.9848
 21
11.891
  0
LINE
  8
0
 10
85.9848
 20
11.891
 11
86.1679
 21
11.7191
  0
LINE
  8
0
 10
86.1679
 20
11.7191
 11
86.328
 21
11.5256
  0
LINE
  8
0
 10
86.328
 20
11.5256
 11
86.4626
 21
11.3135
  0
LINE
  8
0
 10
86.4626
 20
11.3135
 11
86.5695
 21
11.0862
  0
LINE
  8
0
 10
86.5695
 20
11.0862
 11
86.6472
 21
10.8474
  0
LINE
  8
0
 10
86.6472
 20
10.8474
 11
86.6942
 21
10.6007
  0
LINE
  8
0
 10
86.6942
 20
10.6007
 11
86.71
 21
10.35
  0
LINE
  8
0
 10
86.71
 20
10.35
 11
86.6942
 21
10.0993
  0
LINE
  8
0
 10
86.6942
 20
10.0993
 11
86.6472
 21
9.85262
  0
LINE
  8
0
 10
86.6472
 20
9.85262
 11
86.5695
 21
9.61374
  0
LINE
  8
0
 10
86.5695
 20
9.61374
 11
86.4626
 21
9.38649
  0
LINE
  8
0
 10
86.4626
 20
9.38649
 11
86.328
 21
9.17442
  0
LINE
  8
0
 10
86.328
 20
9.17442
 11
86.1679
 21
8.9809
  0
LINE
  8
0
 10
86.1679
 20
8.9809
 11
85.9848
 21
8.80896
  0
LINE
  8
0
 10
85.9848
 20
8.80896
 11
85.7816
 21
8.66133
  0
LINE
  8
0
 10
85.7816
 20
8.66133
 11
85.5616
 21
8.54034
  0
LINE
  8
0
 10
85.5616
 20
8.54034
 11
85.328
 21
8.44788
  0
LINE
  8
0
 10
85.328
 20
8.44788
 11
85.0848
 21
8.38542
  0
LINE
  8
0
 10
85.0848
 20
8.38542
 11
84.8356
 21
8.35394
  0
LINE
  8
0
 10
84.8356
 20
8.35394
 11
84.5844
 21
8.35394
  0
LINE
  8
0
 10
18.4844
 20
5.18394
 11
18.2352
 21
5.21542
  0
LINE
  8
0
 10
18.2352
 20
5.21542
 11
17.992
 21
5.27788
  0
LINE
  8
0
 10
17.992
 20
5.27788
 11
17.7584
 21
5.37035
  0
LINE
  8
0
 10
17.7584
 20
5.37035
 11
17.5383
 21
5.49133
  0
LINE
  8
0
 10
17.5383
 20
5.49133
 11
17.3351
 21
5.63896
  0
LINE
  8
0
 10
17.3351
 20
5.63896
 11
17.1521
 21
5.8109
  0
LINE
  8
0
 10
17.1521
 20
5.8109
 11
16.992
 21
6.00443
  0
LINE
  8
0
 10
16.992
 20
6.00443
 11
16.8574
 21
6.21649
  0
LINE
  8
0
 10
16.8574
 20
6.21649
 11
16.7504
 21
6.44374
  0
LINE
  8
0
 10
16.7504
 20
6.44374
 11
16.6728
 21
6.68262
  0
LINE
  8
0
 10
16.6728
 20
6.68262
 11
16.6258
 21
6.92932
  0
LINE
  8
0
 10
16.6258
 20
6.92932
 11
16.61
 21
7.17999
  0
LINE
  8
0
 10
16.61
 20
7.17999
 11
16.6258
 21
7.43066
  0
LINE
  8
0
 10
16.6258
 20
7.43066
 11
16.6728
 21
7.67737
  0
LINE
  8
0
 10
16.6728
 20
7.67737
 11
16.7504
 21
7.91624
  0
LINE
  8
0
 10
16.7504
 20
7.91624
 11
16.8574
 21
8.14349
  0
LINE
  8
0
 10
16.8574
 20
8.14349
 11
16.992
 21
8.35556
  0
LINE
  8
0
 10
16.992
 20
8.35556
 11
17.1521
 21
8.54909
  0
LINE
  8
0
 10
17.1521
 20
8.54909
 11
17.3351
 21
8.72102
  0
LINE
  8
0
 10
17.3351
 20
8.72102
 11
17.5383
 21
8.86865
  0
LINE
  8
0
 10
17.5383
 20
8.86865
 11
17.7584
 21
8.98964
  0
LINE
  8
0
 10
17.7584
 20
8.98964
 11
17.992
 21
9.08211
  0
LINE
  8
0
 10
17.992
 20
9.08211
 11
18.2352
 21
9.14456
  0
LINE
  8
0
 10
18.2352
 20
9.14456
 11
18.4844
 21
9.17604
  0
LINE
  8
0
 10
18.4844
 20
9.17604
 11
18.7356
 21
9.17604
  0
LINE
  8
0
 10
18.7356
 20
9.17604
 11
18.9848
 21
9.14456
  0
LINE
  8
0
 10
18.9848
 20
9.14456
 11
19.228
 21
9.08211
  0
LINE
  8
0
 10
19.228
 20
9.08211
 11
19.4615
 21
8.98964
  0
LINE
  8
0
 10
19.4615
 20
8.98964
 11
19.6816
 21
8.86865
  0
LINE
  8
0
 10
19.6816
 20
8.86865
 11
19.8848
 21
8.72102
  0
LINE
  8
0
 10
19.8848
 20
8.72102
 11
20.0679
 21
8.54909
  0
LINE
  8
0
 10
20.0679
 20
8.54909
 11
20.228
 21
8.35556
  0
LINE
  8
0
 10
20.228
 20
8.35556
 11
20.3626
 21
8.14349
  0
LINE
  8
0
 10
20.3626
 20
8.14349
 11
20.4695
 21
7.91624
  0
LINE
  8
0
 10
20.4695
 20
7.91624
 11
20.5472
 21
7.67737
  0
LINE
  8
0
 10
20.5472
 20
7.67737
 11
20.5942
 21
7.43066
  0
LINE
  8
0
 10
20.5942
 20
7.43066
 11
20.61
 21
7.17999
  0
LINE
  8
0
 10
20.61
 20
7.17999
 11
20.5942
 21
6.92932
  0
LINE
  8
0
 10
20.5942
 20
6.92932
 11
20.5472
 21
6.68262
  0
LINE
  8
0
 10
20.5472
 20
6.68262
 11
20.4695
 21
6.44374
  0
LINE
  8
0
 10
20.4695
 20
6.44374
 11
20.3626
 21
6.21649
  0
LINE
  8
0
 10
20.3626
 20
6.21649
 11
20.228
 21
6.00443
  0
LINE
  8
0
 10
20.228
 20
6.00443
 11
20.0679
 21
5.8109
  0
LINE
  8
0
 10
20.0679
 20
5.8109
 11
19.8848
 21
5.63896
  0
LINE
  8
0
 10
19.8848
 20
5.63896
 11
19.6816
 21
5.49133
  0
LINE
  8
0
 10
19.6816
 20
5.49133
 11
19.4615
 21
5.37035
  0
LINE
  8
0
 10
19.4615
 20
5.37035
 11
19.228
 21
5.27788
  0
LINE
  8
0
 10
19.228
 20
5.27788
 11
18.9848
 21
5.21542
  0
LINE
  8
0
 10
18.9848
 20
5.21542
 11
18.7356
 21
5.18394
  0
LINE
  8
0
 10
18.7356
 20
5.18394
 11
18.4844
 21
5.18394
  0
LINE
  8
0
 10
200.02
 20
56.26
 11
199.97
 21
57.0559
  0
LINE
  8
0
 10
199.97
 20
57.0559
 11
199.82
 21
57.8392
  0
LINE
  8
0
 10
199.82
 20
57.8392
 11
199.574
 21
58.5976
  0
LINE
  8
0
 10
199.574
 20
58.5976
 11
199.235
 21
59.3191
  0
LINE
  8
0
 10
199.235
 20
59.3191
 11
198.807
 21
59.9924
  0
LINE
  8
0
 10
198.807
 20
59.9924
 11
198.299
 21
60.6069
  0
LINE
  8
0
 10
198.299
 20
60.6069
 11
197.718
 21
61.1528
  0
LINE
  8
0
 10
197.718
 20
61.1528
 11
197.072
 21
61.6215
  0
LINE
  8
0
 10
197.072
 20
61.6215
 11
196.374
 21
62.0056
  0
LINE
  8
0
 10
196.374
 20
62.0056
 11
195.632
 21
62.2992
  0
LINE
  8
0
 10
195.632
 20
62.2992
 11
194.86
 21
62.4975
  0
LINE
  8
0
 10
194.86
 20
62.4975
 11
194.069
 21
62.5975
  0
LINE
  8
0
 10
194.069
 20
62.5975
 11
111.611
 21
62.5975
  0
LINE
  8
0
 10
111.611
 20
62.5975
 11
110.82
 21
62.4975
  0
LINE
  8
0
 10
110.82
 20
62.4975
 11
110.048
 21
62.2992
  0
LINE
  8
0
 10
110.048
 20
62.2992
 11
109.306
 21
62.0056
  0
LINE
  8
0
 10
109.306
 20
62.0056
 11
108.607
 21
61.6215
  0
LINE
  8
0
 10
108.607
 20
61.6215
 11
107.962
 21
61.1528
  0
LINE
  8
0
 10
107.962
 20
61.1528
 11
107.381
 21
60.6069
  0
LINE
  8
0
 10
107.381
 20
60.6069
 11
106.873
 21
59.9924
  0
LINE
  8
0
 10
106.873
 20
59.9924
 11
106.445
 21
59.3191
  0
LINE
  8
0
 10
106.445
 20
59.3191
 11
106.106
 21
58.5976
  0
LINE
  8
0
 10
106.106
 20
58.5976
 11
105.859
 21
57.8392
  0
LINE
  8
0
 10
105.859
 20
57.8392
 11
105.71
 21
57.0559
  0
LINE
  8
0
 10
105.71
 20
57.0559
 11
105.66
 21
56.26
  0
LINE
  8
0
 10
105.66
 20
56.26
 11
105.66
 21
54
  0
LINE
  8
0
 10
105.66
 20
54
 11
114.66
 21
54
  0
LINE
  8
0
 10
114.66
 20
54
 11
114.66
 21
57.57
  0
LINE
  8
0
 10
114.66
 20
57.57
 11
120.66
 21
57.57
  0
LINE
  8
0
 10
120.66
 20
57.57
 11
120.66
 21
54
  0
LINE
  8
0
 10
120.66
 20
54
 11
121.16
 21
54
  0
LINE
  8
0
 10
121.16
 20
54
 11
121.16
 21
51
  0
LINE
  8
0
 10
121.16
 20
51
 11
127.66
 21
51
  0
LINE
  8
0
 10
127.66
 20
51
 11
127.66
 21
58.61
  0
LINE
  8
0
 10
127.66
 20
58.61
 11
186.66
 21
58.61
  0
LINE
  8
0
 10
186.66
 20
58.61
 11
186.66
 21
49.5
  0
LINE
  8
0
 10
186.66
 20
49.5
 11
200.02
 21
49.5
  0
LINE
  8
0
 10
200.02
 20
49.5
 11
200.02
 21
56.26
  0
LINE
  8
0
 10
124.144
 20
53.5739
 11
123.895
 21
53.6054
  0
LINE
  8
0
 10
123.895
 20
53.6054
 11
123.652
 21
53.6679
  0
LINE
  8
0
 10
123.652
 20
53.6679
 11
123.418
 21
53.7603
  0
LINE
  8
0
 10
123.418
 20
53.7603
 11
123.198
 21
53.8813
  0
LINE
  8
0
 10
123.198
 20
53.8813
 11
122.995
 21
54.029
  0
LINE
  8
0
 10
122.995
 20
54.029
 11
122.812
 21
54.2009
  0
LINE
  8
0
 10
122.812
 20
54.2009
 11
122.652
 21
54.3944
  0
LINE
  8
0
 10
122.652
 20
54.3944
 11
122.517
 21
54.6065
  0
LINE
  8
0
 10
122.517
 20
54.6065
 11
122.41
 21
54.8337
  0
LINE
  8
0
 10
122.41
 20
54.8337
 11
122.333
 21
55.0726
  0
LINE
  8
0
 10
122.333
 20
55.0726
 11
122.286
 21
55.3193
  0
LINE
  8
0
 10
122.286
 20
55.3193
 11
122.27
 21
55.57
  0
LINE
  8
0
 10
122.27
 20
55.57
 11
122.286
 21
55.8207
  0
LINE
  8
0
 10
122.286
 20
55.8207
 11
122.333
 21
56.0674
  0
LINE
  8
0
 10
122.333
 20
56.0674
 11
122.41
 21
56.3062
  0
LINE
  8
0
 10
122.41
 20
56.3062
 11
122.517
 21
56.5335
  0
LINE
  8
0
 10
122.517
 20
56.5335
 11
122.652
 21
56.7456
  0
LINE
  8
0
 10
122.652
 20
56.7456
 11
122.812
 21
56.9391
  0
LINE
  8
0
 10
122.812
 20
56.9391
 11
122.995
 21
57.111
  0
LINE
  8
0
 10
122.995
 20
57.111
 11
123.198
 21
57.2587
  0
LINE
  8
0
 10
123.198
 20
57.2587
 11
123.418
 21
57.3797
  0
LINE
  8
0
 10
123.418
 20
57.3797
 11
123.652
 21
57.4721
  0
LINE
  8
0
 10
123.652
 20
57.4721
 11
123.895
 21
57.5346
  0
LINE
  8
0
 10
123.895
 20
57.5346
 11
124.144
 21
57.566
  0
LINE
  8
0
 10
124.144
 20
57.566
 11
124.396
 21
57.566
  0
LINE
  8
0
 10
124.396
 20
57.566
 11
124.645
 21
57.5346
  0
LINE
  8
0
 10
124.645
 20
57.5346
 11
124.888
 21
57.4721
  0
LINE
  8
0
 10
124.888
 20
57.4721
 11
125.122
 21
57.3797
  0
LINE
  8
0
 10
125.122
 20
57.3797
 11
125.342
 21
57.2587
  0
LINE
  8
0
 10
125.342
 20
57.2587
 11
125.545
 21
57.111
  0
LINE
  8
0
 10
125.545
 20
57.111
 11
125.728
 21
56.9391
  0
LINE
  8
0
 10
125.728
 20
56.9391
 11
125.888
 21
56.7456
  0
LINE
  8
0
 10
125.888
 20
56.7456
 11
126.023
 21
56.5335
  0
LINE
  8
0
 10
126.023
 20
56.5335
 11
126.13
 21
56.3062
  0
LINE
  8
0
 10
126.13
 20
56.3062
 11
126.207
 21
56.0674
  0
LINE
  8
0
 10
126.207
 20
56.0674
 11
126.254
 21
55.8207
  0
LINE
  8
0
 10
126.254
 20
55.8207
 11
126.27
 21
55.57
  0
LINE
  8
0
 10
126.27
 20
55.57
 11
126.254
 21
55.3193
  0
LINE
  8
0
 10
126.254
 20
55.3193
 11
126.207
 21
55.0726
  0
LINE
  8
0
 10
126.207
 20
55.0726
 11
126.13
 21
54.8337
  0
LINE
  8
0
 10
126.13
 20
54.8337
 11
126.023
 21
54.6065
  0
LINE
  8
0
 10
126.023
 20
54.6065
 11
125.888
 21
54.3944
  0
LINE
  8
0
 10
125.888
 20
54.3944
 11
125.728
 21
54.2009
  0
LINE
  8
0
 10
125.728
 20
54.2009
 11
125.545
 21
54.029
  0
LINE
  8
0
 10
125.545
 20
54.029
 11
125.342
 21
53.8813
  0
LINE
  8
0
 10
125.342
 20
53.8813
 11
125.122
 21
53.7603
  0
LINE
  8
0
 10
125.122
 20
53.7603
 11
124.888
 21
53.6679
  0
LINE
  8
0
 10
124.888
 20
53.6679
 11
124.645
 21
53.6054
  0
LINE
  8
0
 10
124.645
 20
53.6054
 11
124.396
 21
53.5739
  0
LINE
  8
0
 10
124.396
 20
53.5739
 11
124.144
 21
53.5739
  0
LINE
  8
0
 10
190.244
 20
50.2639
 11
189.995
 21
50.2954
  0
LINE
  8
0
 10
189.995
 20
50.2954
 11
189.752
 21
50.3579
  0
LINE
  8
0
 10
189.752
 20
50.3579
 11
189.518
 21
50.4503
  0
LINE
  8
0
 10
189.518
 20
50.4503
 11
189.298
 21
50.5713
  0
LINE
  8
0
 10
189.298
 20
50.5713
 11
189.095
 21
50.719
  0
LINE
  8
0
 10
189.095
 20
50.719
 11
188.912
 21
50.8909
  0
LINE
  8
0
 10
188.912
 20
50.8909
 11
188.752
 21
51.0844
  0
LINE
  8
0
 10
188.752
 20
51.0844
 11
188.617
 21
51.2965
  0
LINE
  8
0
 10
188.617
 20
51.2965
 11
188.51
 21
51.5237
  0
LINE
  8
0
 10
188.51
 20
51.5237
 11
188.433
 21
51.7626
  0
LINE
  8
0
 10
188.433
 20
51.7626
 11
188.386
 21
52.0093
  0
LINE
  8
0
 10
188.386
 20
52.0093
 11
188.37
 21
52.26
  0
LINE
  8
0
 10
188.37
 20
52.26
 11
188.386
 21
52.5107
  0
LINE
  8
0
 10
188.386
 20
52.5107
 11
188.433
 21
52.7574
  0
LINE
  8
0
 10
188.433
 20
52.7574
 11
188.51
 21
52.9962
  0
LINE
  8
0
 10
188.51
 20
52.9962
 11
188.617
 21
53.2235
  0
LINE
  8
0
 10
188.617
 20
53.2235
 11
188.752
 21
53.4356
  0
LINE
  8
0
 10
188.752
 20
53.4356
 11
188.912
 21
53.6291
  0
LINE
  8
0
 10
188.912
 20
53.6291
 11
189.095
 21
53.801
  0
LINE
  8
0
 10
189.095
 20
53.801
 11
189.298
 21
53.9487
  0
LINE
  8
0
 10
189.298
 20
53.9487
 11
189.518
 21
54.0696
  0
LINE
  8
0
 10
189.518
 20
54.0696
 11
189.752
 21
54.1621
  0
LINE
  8
0
 10
189.752
 20
54.1621
 11
189.995
 21
54.2246
  0
LINE
  8
0
 10
189.995
 20
54.2246
 11
190.244
 21
54.256
  0
LINE
  8
0
 10
190.244
 20
54.256
 11
190.496
 21
54.256
  0
LINE
  8
0
 10
190.496
 20
54.256
 11
190.745
 21
54.2246
  0
LINE
  8
0
 10
190.745
 20
54.2246
 11
190.988
 21
54.1621
  0
LINE
  8
0
 10
190.988
 20
54.1621
 11
191.222
 21
54.0696
  0
LINE
  8
0
 10
191.222
 20
54.0696
 11
191.442
 21
53.9487
  0
LINE
  8
0
 10
191.442
 20
53.9487
 11
191.645
 21
53.801
  0
LINE
  8
0
 10
191.645
 20
53.801
 11
191.828
 21
53.6291
  0
LINE
  8
0
 10
191.828
 20
53.6291
 11
191.988
 21
53.4356
  0
LINE
  8
0
 10
191.988
 20
53.4356
 11
192.123
 21
53.2235
  0
LINE
  8
0
 10
192.123
 20
53.2235
 11
192.23
 21
52.9962
  0
LINE
  8
0
 10
192.23
 20
52.9962
 11
192.307
 21
52.7574
  0
LINE
  8
0
 10
192.307
 20
52.7574
 11
192.354
 21
52.5107
  0
LINE
  8
0
 10
192.354
 20
52.5107
 11
192.37
 21
52.26
  0
LINE
  8
0
 10
192.37
 20
52.26
 11
192.354
 21
52.0093
  0
LINE
  8
0
 10
192.354
 20
52.0093
 11
192.307
 21
51.7626
  0
LINE
  8
0
 10
192.307
 20
51.7626
 11
192.23
 21
51.5237
  0
LINE
  8
0
 10
192.23
 20
51.5237
 11
192.123
 21
51.2965
  0
LINE
  8
0
 10
192.123
 20
51.2965
 11
191.988
 21
51.0844
  0
LINE
  8
0
 10
191.988
 20
51.0844
 11
191.828
 21
50.8909
  0
LINE
  8
0
 10
191.828
 20
50.8909
 11
191.645
 21
50.719
  0
LINE
  8
0
 10
191.645
 20
50.719
 11
191.442
 21
50.5713
  0
LINE
  8
0
 10
191.442
 20
50.5713
 11
191.222
 21
50.4503
  0
LINE
  8
0
 10
191.222
 20
50.4503
 11
190.988
 21
50.3579
  0
LINE
  8
0
 10
190.988
 20
50.3579
 11
190.745
 21
50.2954
  0
LINE
  8
0
 10
190.745
 20
50.2954
 11
190.496
 21
50.2639
  0
LINE
  8
0
 10
190.496
 20
50.2639
 11
190.244
 21
50.2639
  0
LINE
  8
0
 10
305.22
 20
0.112473
 11
305.992
 21
0.310791
  0
LINE
  8
0
 10
305.992
 20
0.310791
 11
306.734
 21
0.60434
  0
LINE
  8
0
 10
306.734
 20
0.60434
 11
307.432
 21
0.98851
  0
LINE
  8
0
 10
307.432
 20
0.98851
 11
308.078
 21
1.45723
  0
LINE
  8
0
 10
308.078
 20
1.45723
 11
308.659
 21
2.00311
  0
LINE
  8
0
 10
308.659
 20
2.00311
 11
309.167
 21
2.61755
  0
LINE
  8
0
 10
309.167
 20
2.61755
 11
309.595
 21
3.29086
  0
LINE
  8
0
 10
309.595
 20
3.29086
 11
309.934
 21
4.01241
  0
LINE
  8
0
 10
309.934
 20
4.01241
 11
310.18
 21
4.77081
  0
LINE
  8
0
 10
310.18
 20
4.77081
 11
310.33
 21
5.55412
  0
LINE
  8
0
 10
310.33
 20
5.55412
 11
310.38
 21
6.34999
  0
LINE
  8
0
 10
310.38
 20
6.34999
 11
310.38
 21
13.5
  0
LINE
  8
0
 10
310.38
 20
13.5
 11
297.02
 21
13.5
  0
LINE
  8
0
 10
297.02
 20
13.5
 11
297.02
 21
4
  0
LINE
  8
0
 10
297.02
 20
4
 11
238.02
 21
4
  0
LINE
  8
0
 10
238.02
 20
4
 11
238.02
 21
11
  0
LINE
  8
0
 10
238.02
 20
11
 11
231.52
 21
11
  0
LINE
  8
0
 10
231.52
 20
11
 11
231.52
 21
7.99998
  0
LINE
  8
0
 10
231.52
 20
7.99998
 11
216.02
 21
7.99998
  0
LINE
  8
0
 10
216.02
 20
7.99998
 11
216.02
 21
6.34999
  0
LINE
  8
0
 10
216.02
 20
6.34999
 11
216.07
 21
5.55412
  0
LINE
  8
0
 10
216.07
 20
5.55412
 11
216.219
 21
4.77081
  0
LINE
  8
0
 10
216.219
 20
4.77081
 11
216.466
 21
4.01241
  0
LINE
  8
0
 10
216.466
 20
4.01241
 11
216.805
 21
3.29086
  0
LINE
  8
0
 10
216.805
 20
3.29086
 11
217.233
 21
2.61755
  0
LINE
  8
0
 10
217.233
 20
2.61755
 11
217.741
 21
2.00311
  0
LINE
  8
0
 10
217.741
 20
2.00311
 11
218.322
 21
1.45723
  0
LINE
  8
0
 10
218.322
 20
1.45723
 11
218.967
 21
0.98851
  0
LINE
  8
0
 10
218.967
 20
0.98851
 11
219.666
 21
0.60434
  0
LINE
  8
0
 10
219.666
 20
0.60434
 11
220.408
 21
0.310791
  0
LINE
  8
0
 10
220.408
 20
0.310791
 11
221.18
 21
0.112473
  0
LINE
  8
0
 10
221.18
 20
0.112473
 11
221.971
 21
0.0125275
  0
LINE
  8
0
 10
221.971
 20
0.0125275
 11
304.429
 21
0.0125275
  0
LINE
  8
0
 10
304.429
 20
0.0125275
 11
305.22
 21
0.112473
  0
LINE
  8
0
 10
300.604
 20
8.35394
 11
300.355
 21
8.38542
  0
LINE
  8
0
 10
300.355
 20
8.38542
 11
300.112
 21
8.44788
  0
LINE
  8
0
 10
300.112
 20
8.44788
 11
299.878
 21
8.54034
  0
LINE
  8
0
 10
299.878
 20
8.54034
 11
299.658
 21
8.66133
  0
LINE
  8
0
 10
299.658
 20
8.66133
 11
299.455
 21
8.80896
  0
LINE
  8
0
 10
299.455
 20
8.80896
 11
299.272
 21
8.9809
  0
LINE
  8
0
 10
299.272
 20
8.9809
 11
299.112
 21
9.17442
  0
LINE
  8
0
 10
299.112
 20
9.17442
 11
298.977
 21
9.38649
  0
LINE
  8
0
 10
298.977
 20
9.38649
 11
298.87
 21
9.61374
  0
LINE
  8
0
 10
298.87
 20
9.61374
 11
298.793
 21
9.85262
  0
LINE
  8
0
 10
298.793
 20
9.85262
 11
298.746
 21
10.0993
  0
LINE
  8
0
 10
298.746
 20
10.0993
 11
298.73
 21
10.35
  0
LINE
  8
0
 10
298.73
 20
10.35
 11
298.746
 21
10.6007
  0
LINE
  8
0
 10
298.746
 20
10.6007
 11
298.793
 21
10.8474
  0
LINE
  8
0
 10
298.793
 20
10.8474
 11
298.87
 21
11.0862
  0
LINE
  8
0
 10
298.87
 20
11.0862
 11
298.977
 21
11.3135
  0
LINE
  8
0
 10
298.977
 20
11.3135
 11
299.112
 21
11.5256
  0
LINE
  8
0
 10
299.112
 20
11.5256
 11
299.272
 21
11.7191
  0
LINE
  8
0
 10
299.272
 20
11.7191
 11
299.455
 21
11.891
  0
LINE
  8
0
 10
299.455
 20
11.891
 11
299.658
 21
12.0387
  0
LINE
  8
0
 10
299.658
 20
12.0387
 11
299.878
 21
12.1597
  0
LINE
  8
0
 10
299.878
 20
12.1597
 11
300.112
 21
12.2521
  0
LINE
  8
0
 10
300.112
 20
12.2521
 11
300.355
 21
12.3146
  0
LINE
  8
0
 10
300.355
 20
12.3146
 11
300.604
 21
12.346
  0
LINE
  8
0
 10
300.604
 20
12.346
 11
300.856
 21
12.346
  0
LINE
  8
0
 10
300.856
 20
12.346
 11
301.105
 21
12.3146
  0
LINE
  8
0
 10
301.105
 20
12.3146
 11
301.348
 21
12.2521
  0
LINE
  8
0
 10
301.348
 20
12.2521
 11
301.582
 21
12.1597
  0
LINE
  8
0
 10
301.582
 20
12.1597
 11
301.802
 21
12.0387
  0
LINE
  8
0
 10
301.802
 20
12.0387
 11
302.005
 21
11.891
  0
LINE
  8
0
 10
302.005
 20
11.891
 11
302.188
 21
11.7191
  0
LINE
  8
0
 10
302.188
 20
11.7191
 11
302.348
 21
11.5256
  0
LINE
  8
0
 10
302.348
 20
11.5256
 11
302.483
 21
11.3135
  0
LINE
  8
0
 10
302.483
 20
11.3135
 11
302.59
 21
11.0862
  0
LINE
  8
0
 10
302.59
 20
11.0862
 11
302.667
 21
10.8474
  0
LINE
  8
0
 10
302.667
 20
10.8474
 11
302.714
 21
10.6007
  0
LINE
  8
0
 10
302.714
 20
10.6007
 11
302.73
 21
10.35
  0
LINE
  8
0
 10
302.73
 20
10.35
 11
302.714
 21
10.0993
  0
LINE
  8
0
 10
302.714
 20
10.0993
 11
302.667
 21
9.85262
  0
LINE
  8
0
 10
302.667
 20
9.85262
 11
302.59
 21
9.61374
  0
LINE
  8
0
 10
302.59
 20
9.61374
 11
302.483
 21
9.38649
  0
LINE
  8
0
 10
302.483
 20
9.38649
 11
302.348
 21
9.17442
  0
LINE
  8
0
 10
302.348
 20
9.17442
 11
302.188
 21
8.9809
  0
LINE
  8
0
 10
302.188
 20
8.9809
 11
302.005
 21
8.80896
  0
LINE
  8
0
 10
302.005
 20
8.80896
 11
301.802
 21
8.66133
  0
LINE
  8
0
 10
301.802
 20
8.66133
 11
301.582
 21
8.54034
  0
LINE
  8
0
 10
301.582
 20
8.54034
 11
301.348
 21
8.44788
  0
LINE
  8
0
 10
301.348
 20
8.44788
 11
301.105
 21
8.38542
  0
LINE
  8
0
 10
301.105
 20
8.38542
 11
300.856
 21
8.35394
  0
LINE
  8
0
 10
300.856
 20
8.35394
 11
300.604
 21
8.35394
  0
LINE
  8
0
 10
234.504
 20
5.18394
 11
234.255
 21
5.21542
  0
LINE
  8
0
 10
234.255
 20
5.21542
 11
234.012
 21
5.27788
  0
LINE
  8
0
 10
234.012
 20
5.27788
 11
233.778
 21
5.37035
  0
LINE
  8
0
 10
233.778
 20
5.37035
 11
233.558
 21
5.49133
  0
LINE
  8
0
 10
233.558
 20
5.49133
 11
233.355
 21
5.63896
  0
LINE
  8
0
 10
233.355
 20
5.63896
 11
233.172
 21
5.8109
  0
LINE
  8
0
 10
233.172
 20
5.8109
 11
233.012
 21
6.00443
  0
LINE
  8
0
 10
233.012
 20
6.00443
 11
232.877
 21
6.21649
  0
LINE
  8
0
 10
232.877
 20
6.21649
 11
232.77
 21
6.44374
  0
LINE
  8
0
 10
232.77
 20
6.44374
 11
232.693
 21
6.68262
  0
LINE
  8
0
 10
232.693
 20
6.68262
 11
232.646
 21
6.92932
  0
LINE
  8
0
 10
232.646
 20
6.92932
 11
232.63
 21
7.17999
  0
LINE
  8
0
 10
232.63
 20
7.17999
 11
232.646
 21
7.43066
  0
LINE
  8
0
 10
232.646
 20
7.43066
 11
232.693
 21
7.67737
  0
LINE
  8
0
 10
232.693
 20
7.67737
 11
232.77
 21
7.91624
  0
LINE
  8
0
 10
232.77
 20
7.91624
 11
232.877
 21
8.14349
  0
LINE
  8
0
 10
232.877
 20
8.14349
 11
233.012
 21
8.35556
  0
LINE
  8
0
 10
233.012
 20
8.35556
 11
233.172
 21
8.54909
  0
LINE
  8
0
 10
233.172
 20
8.54909
 11
233.355
 21
8.72102
  0
LINE
  8
0
 10
233.355
 20
8.72102
 11
233.558
 21
8.86865
  0
LINE
  8
0
 10
233.558
 20
8.86865
 11
233.778
 21
8.98964
  0
LINE
  8
0
 10
233.778
 20
8.98964
 11
234.012
 21
9.08211
  0
LINE
  8
0
 10
234.012
 20
9.08211
 11
234.255
 21
9.14456
  0
LINE
  8
0
 10
234.255
 20
9.14456
 11
234.504
 21
9.17604
  0
LINE
  8
0
 10
234.504
 20
9.17604
 11
234.756
 21
9.17604
  0
LINE
  8
0
 10
234.756
 20
9.17604
 11
235.005
 21
9.14456
  0
LINE
  8
0
 10
235.005
 20
9.14456
 11
235.248
 21
9.08211
  0
LINE
  8
0
 10
235.248
 20
9.08211
 11
235.482
 21
8.98964
  0
LINE
  8
0
 10
235.482
 20
8.98964
 11
235.702
 21
8.86865
  0
LINE
  8
0
 10
235.702
 20
8.86865
 11
235.905
 21
8.72102
  0
LINE
  8
0
 10
235.905
 20
8.72102
 11
236.088
 21
8.54909
  0
LINE
  8
0
 10
236.088
 20
8.54909
 11
236.248
 21
8.35556
  0
LINE
  8
0
 10
236.248
 20
8.35556
 11
236.383
 21
8.14349
  0
LINE
  8
0
 10
236.383
 20
8.14349
 11
236.49
 21
7.91624
  0
LINE
  8
0
 10
236.49
 20
7.91624
 11
236.567
 21
7.67737
  0
LINE
  8
0
 10
236.567
 20
7.67737
 11
236.614
 21
7.43066
  0
LINE
  8
0
 10
236.614
 20
7.43066
 11
236.63
 21
7.17999
  0
LINE
  8
0
 10
236.63
 20
7.17999
 11
236.614
 21
6.92932
  0
LINE
  8
0
 10
236.614
 20
6.92932
 11
236.567
 21
6.68262
  0
LINE
  8
0
 10
236.567
 20
6.68262
 11
236.49
 21
6.44374
  0
LINE
  8
0
 10
236.49
 20
6.44374
 11
236.383
 21
6.21649
  0
LINE
  8
0
 10
236.383
 20
6.21649
 11
236.248
 21
6.00443
  0
LINE
  8
0
 10
236.248
 20
6.00443
 11
236.088
 21
5.8109
  0
LINE
  8
0
 10
236.088
 20
5.8109
 11
235.905
 21
5.63896
  0
LINE
  8
0
 10
235.905
 20
5.63896
 11
235.702
 21
5.49133
  0
LINE
  8
0
 10
235.702
 20
5.49133
 11
235.482
 21
5.37035
  0
LINE
  8
0
 10
235.482
 20
5.37035
 11
235.248
 21
5.27788
  0
LINE
  8
0
 10
235.248
 20
5.27788
 11
235.005
 21
5.21542
  0
LINE
  8
0
 10
235.005
 20
5.21542
 11
234.756
 21
5.18394
  0
LINE
  8
0
 10
234.756
 20
5.18394
 11
234.504
 21
5.18394
  0
LINE
  8
0
 10
194.86
 20
0.112473
 11
195.632
 21
0.310791
  0
LINE
  8
0
 10
195.632
 20
0.310791
 11
196.374
 21
0.60434
  0
LINE
  8
0
 10
196.374
 20
0.60434
 11
197.072
 21
0.98851
  0
LINE
  8
0
 10
197.072
 20
0.98851
 11
197.718
 21
1.45723
  0
LINE
  8
0
 10
197.718
 20
1.45723
 11
198.299
 21
2.00311
  0
LINE
  8
0
 10
198.299
 20
2.00311
 11
198.807
 21
2.61755
  0
LINE
  8
0
 10
198.807
 20
2.61755
 11
199.235
 21
3.29086
  0
LINE
  8
0
 10
199.235
 20
3.29086
 11
199.574
 21
4.01241
  0
LINE
  8
0
 10
199.574
 20
4.01241
 11
199.82
 21
4.77081
  0
LINE
  8
0
 10
199.82
 20
4.77081
 11
199.97
 21
5.55412
  0
LINE
  8
0
 10
199.97
 20
5.55412
 11
200.02
 21
6.34999
  0
LINE
  8
0
 10
200.02
 20
6.34999
 11
200.02
 21
13.5
  0
LINE
  8
0
 10
200.02
 20
13.5
 11
186.66
 21
13.5
  0
LINE
  8
0
 10
186.66
 20
13.5
 11
186.66
 21
4
  0
LINE
  8
0
 10
186.66
 20
4
 11
127.66
 21
4
  0
LINE
  8
0
 10
127.66
 20
4
 11
127.66
 21
11
  0
LINE
  8
0
 10
127.66
 20
11
 11
121.16
 21
11
  0
LINE
  8
0
 10
121.16
 20
11
 11
121.16
 21
7.99998
  0
LINE
  8
0
 10
121.16
 20
7.99998
 11
105.66
 21
7.99998
  0
LINE
  8
0
 10
105.66
 20
7.99998
 11
105.66
 21
6.34999
  0
LINE
  8
0
 10
105.66
 20
6.34999
 11
105.71
 21
5.55412
  0
LINE
  8
0
 10
105.71
 20
5.55412
 11
105.859
 21
4.77081
  0
LINE
  8
0
 10
105.859
 20
4.77081
 11
106.106
 21
4.01241
  0
LINE
  8
0
 10
106.106
 20
4.01241
 11
106.445
 21
3.29086
  0
LINE
  8
0
 10
106.445
 20
3.29086
 11
106.873
 21
2.61755
  0
LINE
  8
0
 10
106.873
 20
2.61755
 11
107.381
 21
2.00311
  0
LINE
  8
0
 10
107.381
 20
2.00311
 11
107.962
 21
1.45723
  0
LINE
  8
0
 10
107.962
 20
1.45723
 11
108.607
 21
0.98851
  0
LINE
  8
0
 10
108.607
 20
0.98851
 11
109.306
 21
0.60434
  0
LINE
  8
0
 10
109.306
 20
0.60434
 11
110.048
 21
0.310791
  0
LINE
  8
0
 10
110.048
 20
0.310791
 11
110.82
 21
0.112473
  0
LINE
  8
0
 10
110.82
 20
0.112473
 11
111.611
 21
0.0125275
  0
LINE
  8
0
 10
111.611
 20
0.0125275
 11
194.069
 21
0.0125275
  0
LINE
  8
0
 10
194.069
 20
0.0125275
 11
194.86
 21
0.112473
  0
LINE
  8
0
 10
190.244
 20
8.35394
 11
189.995
 21
8.38542
  0
LINE
  8
0
 10
189.995
 20
8.38542
 11
189.752
 21
8.44788
  0
LINE
  8
0
 10
189.752
 20
8.44788
 11
189.518
 21
8.54034
  0
LINE
  8
0
 10
189.518
 20
8.54034
 11
189.298
 21
8.66133
  0
LINE
  8
0
 10
189.298
 20
8.66133
 11
189.095
 21
8.80896
  0
LINE
  8
0
 10
189.095
 20
8.80896
 11
188.912
 21
8.9809
  0
LINE
  8
0
 10
188.912
 20
8.9809
 11
188.752
 21
9.17442
  0
LINE
  8
0
 10
188.752
 20
9.17442
 11
188.617
 21
9.38649
  0
LINE
  8
0
 10
188.617
 20
9.38649
 11
188.51
 21
9.61374
  0
LINE
  8
0
 10
188.51
 20
9.61374
 11
188.433
 21
9.85262
  0
LINE
  8
0
 10
188.433
 20
9.85262
 11
188.386
 21
10.0993
  0
LINE
  8
0
 10
188.386
 20
10.0993
 11
188.37
 21
10.35
  0
LINE
  8
0
 10
188.37
 20
10.35
 11
188.386
 21
10.6007
  0
LINE
  8
0
 10
188.386
 20
10.6007
 11
188.433
 21
10.8474
  0
LINE
  8
0
 10
188.433
 20
10.8474
 11
188.51
 21
11.0862
  0
LINE
  8
0
 10
188.51
 20
11.0862
 11
188.617
 21
11.3135
  0
LINE
  8
0
 10
188.617
 20
11.3135
 11
188.752
 21
11.5256
  0
LINE
  8
0
 10
188.752
 20
11.5256
 11
188.912
 21
11.7191
  0
LINE
  8
0
 10
188.912
 20
11.7191
 11
189.095
 21
11.891
  0
LINE
  8
0
 10
189.095
 20
11.891
 11
189.298
 21
12.0387
  0
LINE
  8
0
 10
189.298
 20
12.0387
 11
189.518
 21
12.1597
  0
LINE
  8
0
 10
189.518
 20
12.1597
 11
189.752
 21
12.2521
  0
LINE
  8
0
 10
189.752
 20
12.2521
 11
189.995
 21
12.3146
  0
LINE
  8
0
 10
189.995
 20
12.3146
 11
190.244
 21
12.346
  0
LINE
  8
0
 10
190.244
 20
12.346
 11
190.496
 21
12.346
  0
LINE
  8
0
 10
190.496
 20
12.346
 11
190.745
 21
12.3146
  0
LINE
  8
0
 10
190.745
 20
12.3146
 11
190.988
 21
12.2521
  0
LINE
  8
0
 10
190.988
 20
12.2521
 11
191.222
 21
12.1597
  0
LINE
  8
0
 10
191.222
 20
12.1597
 11
191.442
 21
12.0387
  0
LINE
  8
0
 10
191.442
 20
12.0387
 11
191.645
 21
11.891
  0
LINE
  8
0
 10
191.645
 20
11.891
 11
191.828
 21
11.7191
  0
LINE
  8
0
 10
191.828
 20
11.7191
 11
191.988
 21
11.5256
  0
LINE
  8
0
 10
191.988
 20
11.5256
 11
192.123
 21
11.3135
  0
LINE
  8
0
 10
192.123
 20
11.3135
 11
192.23
 21
11.0862
  0
LINE
  8
0
 10
192.23
 20
11.0862
 11
192.307
 21
10.8474
  0
LINE
  8
0
 10
192.307
 20
10.8474
 11
192.354
 21
10.6007
  0
LINE
  8
0
 10
192.354
 20
10.6007
 11
192.37
 21
10.35
  0
LINE
  8
0
 10
192.37
 20
10.35
 11
192.354
 21
10.0993
  0
LINE
  8
0
 10
192.354
 20
10.0993
 11
192.307
 21
9.85262
  0
LINE
  8
0
 10
192.307
 20
9.85262
 11
192.23
 21
9.61374
  0
LINE
  8
0
 10
192.23
 20
9.61374
 11
192.123
 21
9.38649
  0
LINE
  8
0
 10
192.123
 20
9.38649
 11
191.988
 21
9.17442
  0
LINE
  8
0
 10
191.988
 20
9.17442
 11
191.828
 21
8.9809
  0
LINE
  8
0
 10
191.828
 20
8.9809
 11
191.645
 21
8.80896
  0
LINE
  8
0
 10
191.645
 20
8.80896
 11
191.442
 21
8.66133
  0
LINE
  8
0
 10
191.442
 20
8.66133
 11
191.222
 21
8.54034
  0
LINE
  8
0
 10
191.222
 20
8.54034
 11
190.988
 21
8.44788
  0
LINE
  8
0
 10
190.988
 20
8.44788
 11
190.745
 21
8.38542
  0
LINE
  8
0
 10
190.745
 20
8.38542
 11
190.496
 21
8.35394
  0
LINE
  8
0
 10
190.496
 20
8.35394
 11
190.244
 21
8.35394
  0
LINE
  8
0
 10
124.144
 20
5.18394
 11
123.895
 21
5.21542
  0
LINE
  8
0
 10
123.895
 20
5.21542
 11
123.652
 21
5.27788
  0
LINE
  8
0
 10
123.652
 20
5.27788
 11
123.418
 21
5.37035
  0
LINE
  8
0
 10
123.418
 20
5.37035
 11
123.198
 21
5.49133
  0
LINE
  8
0
 10
123.198
 20
5.49133
 11
122.995
 21
5.63896
  0
LINE
  8
0
 10
122.995
 20
5.63896
 11
122.812
 21
5.8109
  0
LINE
  8
0
 10
122.812
 20
5.8109
 11
122.652
 21
6.00443
  0
LINE
  8
0
 10
122.652
 20
6.00443
 11
122.517
 21
6.21649
  0
LINE
  8
0
 10
122.517
 20
6.21649
 11
122.41
 21
6.44374
  0
LINE
  8
0
 10
122.41
 20
6.44374
 11
122.333
 21
6.68262
  0
LINE
  8
0
 10
122.333
 20
6.68262
 11
122.286
 21
6.92932
  0
LINE
  8
0
 10
122.286
 20
6.92932
 11
122.27
 21
7.17999
  0
LINE
  8
0
 10
122.27
 20
7.17999
 11
122.286
 21
7.43066
  0
LINE
  8
0
 10
122.286
 20
7.43066
 11
122.333
 21
7.67737
  0
LINE
  8
0
 10
122.333
 20
7.67737
 11
122.41
 21
7.91624
  0
LINE
  8
0
 10
122.41
 20
7.91624
 11
122.517
 21
8.14349
  0
LINE
  8
0
 10
122.517
 20
8.14349
 11
122.652
 21
8.35556
  0
LINE
  8
0
 10
122.652
 20
8.35556
 11
122.812
 21
8.54909
  0
LINE
  8
0
 10
122.812
 20
8.54909
 11
122.995
 21
8.72102
  0
LINE
  8
0
 10
122.995
 20
8.72102
 11
123.198
 21
8.86865
  0
LINE
  8
0
 10
123.198
 20
8.86865
 11
123.418
 21
8.98964
  0
LINE
  8
0
 10
123.418
 20
8.98964
 11
123.652
 21
9.08211
  0
LINE
  8
0
 10
123.652
 20
9.08211
 11
123.895
 21
9.14456
  0
LINE
  8
0
 10
123.895
 20
9.14456
 11
124.144
 21
9.17604
  0
LINE
  8
0
 10
124.144
 20
9.17604
 11
124.396
 21
9.17604
  0
LINE
  8
0
 10
124.396
 20
9.17604
 11
124.645
 21
9.14456
  0
LINE
  8
0
 10
124.645
 20
9.14456
 11
124.888
 21
9.08211
  0
LINE
  8
0
 10
124.888
 20
9.08211
 11
125.122
 21
8.98964
  0
LINE
  8
0
 10
125.122
 20
8.98964
 11
125.342
 21
8.86865
  0
LINE
  8
0
 10
125.342
 20
8.86865
 11
125.545
 21
8.72102
  0
LINE
  8
0
 10
125.545
 20
8.72102
 11
125.728
 21
8.54909
  0
LINE
  8
0
 10
125.728
 20
8.54909
 11
125.888
 21
8.35556
  0
LINE
  8
0
 10
125.888
 20
8.35556
 11
126.023
 21
8.14349
  0
LINE
  8
0
 10
126.023
 20
8.14349
 11
126.13
 21
7.91624
  0
LINE
  8
0
 10
126.13
 20
7.91624
 11
126.207
 21
7.67737
  0
LINE
  8
0
 10
126.207
 20
7.67737
 11
126.254
 21
7.43066
  0
LINE
  8
0
 10
126.254
 20
7.43066
 11
126.27
 21
7.17999
  0
LINE
  8
0
 10
126.27
 20
7.17999
 11
126.254
 21
6.92932
  0
LINE
  8
0
 10
126.254
 20
6.92932
 11
126.207
 21
6.68262
  0
LINE
  8
0
 10
126.207
 20
6.68262
 11
126.13
 21
6.44374
  0
LINE
  8
0
 10
126.13
 20
6.44374
 11
126.023
 21
6.21649
  0
LINE
  8
0
 10
126.023
 20
6.21649
 11
125.888
 21
6.00443
  0
LINE
  8
0
 10
125.888
 20
6.00443
 11
125.728
 21
5.8109
  0
LINE
  8
0
 10
125.728
 20
5.8109
 11
125.545
 21
5.63896
  0
LINE
  8
0
 10
125.545
 20
5.63896
 11
125.342
 21
5.49133
  0
LINE
  8
0
 10
125.342
 20
5.49133
 11
125.122
 21
5.37035
  0
LINE
  8
0
 10
125.122
 20
5.37035
 11
124.888
 21
5.27788
  0
LINE
  8
0
 10
124.888
 20
5.27788
 11
124.645
 21
5.21542
  0
LINE
  8
0
 10
124.645
 20
5.21542
 11
124.396
 21
5.18394
  0
LINE
  8
0
 10
124.396
 20
5.18394
 11
124.144
 21
5.18394
  0
ENDSEC
  0
SECTION
  2
OBJECTS
  0
DICTIONARY
  0
ENDSEC
  0
EOF
