999
dxfrw 0.6.3
  0
SECTION
  2
HEADER
  9
$ACADVER
  1
AC1021
  9
$DWGCODEPAGE
  3
ANSI_1252
  9
$INSBASE
 10
0
 20
0
 30
0
  9
$EXTMIN
 10
0
 20
0.0125275
 30
0
  9
$EXTMAX
 10
420.74
 20
126.9134736969737
 30
0
  9
$LIMMIN
 10
0
 20
0
  9
$LIMMAX
 10
420
 20
297
  9
$ORTHOMODE
 70
    0
  9
$REGENMODE
 70
    1
  9
$FILLMODE
 70
    1
  9
$QTEXTMODE
 70
    0
  9
$MIRRTEXT
 70
    0
  9
$LTSCALE
 40
1
  9
$ATTMODE
 70
    0
  9
$TEXTSIZE
 40
2.5
  9
$TRACEWID
 40
15.68
  9
$TEXTSTYLE
  7
STANDARD
  9
$CLAYER
  8
0
  9
$CELTYPE
  6
BYLAYER
  9
$CECOLOR
 62
  256
  9
$CELTSCALE
 40
1
  9
$DISPSILH
 70
    0
  9
$DIMSCALE
 40
2.5
  9
$DIMASZ
 40
2.5
  9
$DIMEXO
 40
0.625
  9
$DIMDLI
 40
3.75
  9
$DIMRND
 40
0
  9
$DIMDLE
 40
0
  9
$DIMEXE
 40
1.25
  9
$DIMTP
 40
0
  9
$DIMTM
 40
0
  9
$DIMTXT
 40
2.5
  9
$DIMCEN
 40
2.5
  9
$DIMTSZ
 40
0
  9
$DIMTOL
 70
    0
  9
$DIMLIM
 70
    0
  9
$DIMTIH
 70
    0
  9
$DIMTOH
 70
    0
  9
$DIMSE1
 70
    0
  9
$DIMSE2
 70
    0
  9
$DIMTAD
 70
    1
  9
$DIMZIN
 70
    8
  9
$DIMBLK
  1

  9
$DIMASO
 70
    1
  9
$DIMSHO
 70
    1
  9
$DIMPOST
  1

  9
$DIMAPOST
  1

  9
$DIMALT
 70
    0
  9
$DIMALTD
 70
    3
  9
$DIMALTF
 40
0.03937
  9
$DIMLFAC
 40
1
  9
$DIMTOFL
 70
    1
  9
$DIMTVP
 40
0
  9
$DIMTIX
 70
    0
  9
$DIMSOXD
 70
    0
  9
$DIMSAH
 70
    0
  9
$DIMBLK1
  1

  9
$DIMBLK2
  1

  9
$DIMSTYLE
  2
Standard
  9
$DIMCLRD
 70
    0
  9
$DIMCLRE
 70
    0
  9
$DIMCLRT
 70
    0
  9
$DIMTFAC
 40
1
  9
$DIMGAP
 40
0.625
  9
$DIMJUST
 70
    0
  9
$DIMSD1
 70
    0
  9
$DIMSD2
 70
    0
  9
$DIMTOLJ
 70
    0
  9
$DIMTZIN
 70
    8
  9
$DIMALTZ
 70
    0
  9
$DIMALTTZ
 70
    0
  9
$DIMUPT
 70
    0
  9
$DIMDEC
 70
    2
  9
$DIMTDEC
 70
    2
  9
$DIMALTU
 70
    2
  9
$DIMALTTD
 70
    3
  9
$DIMTXSTY
  7
STANDARD
  9
$DIMAUNIT
 70
    0
  9
$DIMADEC
 70
    0
  9
$DIMALTRND
 40
0
  9
$DIMAZIN
 70
    0
  9
$DIMDSEP
 70
   44
  9
$DIMATFIT
 70
    3
  9
$DIMFRAC
 70
    0
  9
$DIMLDRBLK
  1
STANDARD
  9
$DIMLUNIT
 70
    2
  9
$DIMLWD
 70
   -2
  9
$DIMLWE
 70
   -2
  9
$DIMTMOVE
 70
    0
  9
$DIMFXL
 40
1
  9
$DIMFXLON
 70
    0
  9
$DIMJOGANG
 40
0.7854
  9
$DIMTFILL
 70
    0
  9
$DIMTFILLCLR
 70
    0
  9
$DIMARCSYM
 70
    0
  9
$DIMLTYPE
  6

  9
$DIMLTEX1
  6

  9
$DIMLTEX2
  6

  9
$LUNITS
 70
    2
  9
$LUPREC
 70
    4
  9
$SKETCHINC
 40
1
  9
$FILLETRAD
 40
0
  9
$AUNITS
 70
    0
  9
$AUPREC
 70
    2
  9
$MENU
  1
.
  9
$ELEVATION
 40
0
  9
$PELEVATION
 40
0
  9
$THICKNESS
 40
0
  9
$LIMCHECK
 70
    0
  9
$CHAMFERA
 40
0
  9
$CHAMFERB
 40
0
  9
$CHAMFERC
 40
0
  9
$CHAMFERD
 40
0
  9
$SKPOLY
 70
    0
  9
$USRTIMER
 70
    1
  9
$ANGBASE
 50
0
  9
$ANGDIR
 70
    0
  9
$PDMODE
 70
   34
  9
$PDSIZE
 40
0
  9
$PLINEWID
 40
0
  9
$SPLFRAME
 70
    0
  9
$SPLINETYPE
 70
    2
  9
$SPLINESEGS
 70
    8
  9
$HANDSEED
  5
20000
  9
$SURFTAB1
 70
    6
  9
$SURFTAB2
 70
    6
  9
$SURFTYPE
 70
    6
  9
$SURFU
 70
    6
  9
$SURFV
 70
    6
  9
$UCSBASE
  2

  9
$UCSNAME
  2

  9
$UCSORG
 10
0
 20
0
 30
0
  9
$UCSXDIR
 10
1
 20
0
 30
0
  9
$UCSYDIR
 10
0
 20
1
 30
0
  9
$UCSORTHOREF
  2

  9
$UCSORTHOVIEW
 70
    0
  9
$UCSORGTOP
 10
0
 20
0
 30
0
  9
$UCSORGBOTTOM
 10
0
 20
0
 30
0
  9
$UCSORGLEFT
 10
0
 20
0
 30
0
  9
$UCSORGRIGHT
 10
0
 20
0
 30
0
  9
$UCSORGFRONT
 10
0
 20
0
 30
0
  9
$UCSORGBACK
 10
0
 20
0
 30
0
  9
$PUCSBASE
  2

  9
$PUCSNAME
  2

  9
$PUCSORG
 10
0
 20
0
 30
0
  9
$PUCSXDIR
 10
1
 20
0
 30
0
  9
$PUCSYDIR
 10
0
 20
1
 30
0
  9
$PUCSORTHOREF
  2

  9
$PUCSORTHOVIEW
 70
    0
  9
$PUCSORGTOP
 10
0
 20
0
 30
0
  9
$PUCSORGBOTTOM
 10
0
 20
0
 30
0
  9
$PUCSORGLEFT
 10
0
 20
0
 30
0
  9
$PUCSORGRIGHT
 10
0
 20
0
 30
0
  9
$PUCSORGFRONT
 10
0
 20
0
 30
0
  9
$PUCSORGBACK
 10
0
 20
0
 30
0
  9
$USERI1
 70
    0
  9
$USERI2
 70
    0
  9
$USERI3
 70
    0
  9
$USERI4
 70
    0
  9
$USERI5
 70
    0
  9
$USERR1
 40
0
  9
$USERR2
 40
0
  9
$USERR3
 40
0
  9
$USERR4
 40
0
  9
$USERR5
 40
0
  9
$WORLDVIEW
 70
    1
  9
$SHADEDGE
 70
    3
  9
$SHADEDIF
 70
   70
  9
$TILEMODE
 70
    1
  9
$MAXACTVP
 70
   64
  9
$PINSBASE
 10
0
 20
0
 30
0
  9
$PLIMCHECK
 70
    0
  9
$PEXTMIN
 10
0
 20
0
 30
0
  9
$PEXTMAX
 10
0
 20
0
 30
0
  9
$SNAPSTYLE
 70
    0
  9
$PLIMMIN
 10
0
 20
0
  9
$PLIMMAX
 10
210
 20
297
  9
$UNITMODE
 70
    0
  9
$VISRETAIN
 70
    1
  9
$PLINEGEN
 70
    0
  9
$PSLTSCALE
 70
    1
  9
$TREEDEPTH
 70
 3020
  9
$CMLSTYLE
  2
Standard
  9
$CMLJUST
 70
    0
  9
$CMLSCALE
 40
20
  9
$PROXYGRAPHICS
 70
    1
  9
$MEASUREMENT
 70
    1
  9
$CELWEIGHT
370
   -1
  9
$ENDCAPS
280
    0
  9
$JOINSTYLE
280
    0
  9
$LWDISPLAY
290
    0
  9
$INSUNITS
 70
    4
  9
$HYPERLINKBASE
  1

  9
$STYLESHEET
  1

  9
$XEDIT
290
    1
  9
$CEPSNTYPE
380
    0
  9
$PSTYLEMODE
290
    1
  9
$EXTNAMES
290
    1
  9
$PSVPSCALE
 40
1
  9
$OLESTARTUP
290
    0
  9
$SORTENTS
280
  127
  9
$INDEXCTL
280
    0
  9
$HIDETEXT
280
    1
  9
$XCLIPFRAME
290
    0
  9
$HALOGAP
280
    0
  9
$OBSCOLOR
 70
  257
  9
$OBSLTYPE
280
    0
  9
$INTERSECTIONDISPLAY
280
    0
  9
$INTERSECTIONCOLOR
 70
  257
  9
$DIMASSOC
280
    1
  9
$PROJECTNAME
  1

  9
$CAMERADISPLAY
290
    0
  9
$LENSLENGTH
 40
50
  9
$CAMERAHEIGHT
 40
0
  9
$STEPSPERSEC
 40
2
  9
$STEPSIZE
 40
50
  9
$3DDWFPREC
 40
2
  9
$PSOLWIDTH
 40
5
  9
$PSOLHEIGHT
 40
80
  9
$LOFTANG1
 40
1.570796326794897
  9
$LOFTANG2
 40
1.570796326794897
  9
$LOFTMAG1
 40
0
  9
$LOFTMAG2
 40
0
  9
$LOFTPARAM
 70
    7
  9
$LOFTNORMALS
280
    1
  9
$LATITUDE
 40
1
  9
$LONGITUDE
 40
1
  9
$NORTHDIRECTION
 40
0
  9
$TIMEZONE
 70
-8000
  9
$LIGHTGLYPHDISPLAY
280
    1
  9
$TILEMODELIGHTSYNCH
280
    1
  9
$SOLIDHIST
280
    1
  9
$SHOWHIST
280
    1
  9
$DWFFRAME
280
    2
  9
$DGNFRAME
280
    0
  9
$REALWORLDSCALE
290
    1
  9
$INTERFERECOLOR
 62
    1
  9
$CSHADOW
280
    0
  9
$SHADOWPLANELOCATION
 40
0
  0
ENDSEC
  0
SECTION
  2
CLASSES
  0
ENDSEC
  0
SECTION
  2
TABLES
  0
TABLE
  2
VPORT
  5
8
330
0
100
AcDbSymbolTable
 70
    1
  0
VPORT
  5
31
330
2
100
AcDbSymbolTableRecord
100
AcDbViewportTableRecord
  2
*ACTIVE
 70
    0
 10
0
 20
0
 11
1
 21
1
 12
103.6250000000009
 22
51.50000000000047
 13
0
 23
0
 14
10
 24
10
 15
10
 25
10
 16
0
 26
0
 36
1
 17
0
 27
0
 37
0
 40
126.0000000000012
 41
1.996031746031746
 42
50
 43
0
 44
0
 50
0
 51
0
 71
    0
 72
  100
 73
    1
 74
    3
 75
    0
 76
    1
 77
    0
 78
    0
281
    0
 65
    1
110
0
120
0
130
0
111
1
121
0
131
0
112
0
122
1
132
0
 79
    0
146
0
348
10020
 60
    7
 61
    5
292
1
282
    1
141
0
142
0
 63
  250
421
3358443
  0
ENDTAB
  0
TABLE
  2
LTYPE
  5
5
330
0
100
AcDbSymbolTable
 70
    4
  0
LTYPE
  5
14
330
5
100
AcDbSymbolTableRecord
100
AcDbLinetypeTableRecord
  2
ByBlock
 70
    0
  3

 72
   65
 73
    0
 40
0
  0
LTYPE
  5
15
330
5
100
AcDbSymbolTableRecord
100
AcDbLinetypeTableRecord
  2
ByLayer
 70
    0
  3

 72
   65
 73
    0
 40
0
  0
LTYPE
  5
16
330
5
100
AcDbSymbolTableRecord
100
AcDbLinetypeTableRecord
  2
Continuous
 70
    0
  3
Solid line
 72
   65
 73
    0
 40
0
  0
LTYPE
  5
32
330
5
100
AcDbSymbolTableRecord
100
AcDbLinetypeTableRecord
  2
DOT
 70
    0
  3
Dot . . . . . . . . . . . . . . . . . . . . . .
 72
   65
 73
    2
 40
6.35
 49
0
 74
    0
 49
-6.35
 74
    0
  0
LTYPE
  5
33
330
5
100
AcDbSymbolTableRecord
100
AcDbLinetypeTableRecord
  2
DOTTINY
 70
    0
  3
Dot (.15x) .....................................
 72
   65
 73
    2
 40
0.9525
 49
0
 74
    0
 49
-0.9525
 74
    0
  0
LTYPE
  5
34
330
5
100
AcDbSymbolTableRecord
100
AcDbLinetypeTableRecord
  2
DOT2
 70
    0
  3
Dot (.5x) .....................................
 72
   65
 73
    2
 40
3.175
 49
0
 74
    0
 49
-3.175
 74
    0
  0
LTYPE
  5
35
330
5
100
AcDbSymbolTableRecord
100
AcDbLinetypeTableRecord
  2
DOTX2
 70
    0
  3
Dot (2x) .  .  .  .  .  .  .  .  .  .  .  .  .
 72
   65
 73
    2
 40
12.7
 49
0
 74
    0
 49
-12.7
 74
    0
  0
LTYPE
  5
36
330
5
100
AcDbSymbolTableRecord
100
AcDbLinetypeTableRecord
  2
DASHED
 70
    0
  3
Dashed _ _ _ _ _ _ _ _ _ _ _ _ _ _ _ _ _
 72
   65
 73
    2
 40
19.05
 49
12.7
 74
    0
 49
-6.35
 74
    0
  0
LTYPE
  5
37
330
5
100
AcDbSymbolTableRecord
100
AcDbLinetypeTableRecord
  2
DASHEDTINY
 70
    0
  3
Dashed (.15x) _ _ _ _ _ _ _ _ _ _ _ _ _ _ _ _ _
 72
   65
 73
    2
 40
2.8575
 49
1.905
 74
    0
 49
-0.9525
 74
    0
  0
LTYPE
  5
38
330
5
100
AcDbSymbolTableRecord
100
AcDbLinetypeTableRecord
  2
DASHED2
 70
    0
  3
Dashed (.5x) _ _ _ _ _ _ _ _ _ _ _ _ _ _ _ _ _
 72
   65
 73
    2
 40
9.524999999999999
 49
6.35
 74
    0
 49
-3.175
 74
    0
  0
LTYPE
  5
39
330
5
100
AcDbSymbolTableRecord
100
AcDbLinetypeTableRecord
  2
DASHEDX2
 70
    0
  3
Dashed (2x) ____  ____  ____  ____  ____  ___
 72
   65
 73
    2
 40
38.09999999999999
 49
25.4
 74
    0
 49
-12.7
 74
    0
  0
LTYPE
  5
3A
330
5
100
AcDbSymbolTableRecord
100
AcDbLinetypeTableRecord
  2
DASHDOT
 70
    0
  3
Dash dot __ . __ . __ . __ . __ . __ . __ . __
 72
   65
 73
    4
 40
25.4
 49
12.7
 74
    0
 49
-6.35
 74
    0
 49
0
 74
    0
 49
-6.35
 74
    0
  0
LTYPE
  5
3B
330
5
100
AcDbSymbolTableRecord
100
AcDbLinetypeTableRecord
  2
DASHDOTTINY
 70
    0
  3
Dash dot (.15x) _._._._._._._._._._._._._._._.
 72
   65
 73
    4
 40
3.81
 49
1.905
 74
    0
 49
-0.9525
 74
    0
 49
0
 74
    0
 49
-0.9525
 74
    0
  0
LTYPE
  5
3C
330
5
100
AcDbSymbolTableRecord
100
AcDbLinetypeTableRecord
  2
DASHDOT2
 70
    0
  3
Dash dot (.5x) _._._._._._._._._._._._._._._.
 72
   65
 73
    4
 40
12.7
 49
6.35
 74
    0
 49
-3.175
 74
    0
 49
0
 74
    0
 49
-3.175
 74
    0
  0
LTYPE
  5
3D
330
5
100
AcDbSymbolTableRecord
100
AcDbLinetypeTableRecord
  2
DASHDOTX2
 70
    0
  3
Dash dot (2x) ____  .  ____  .  ____  .  ___
 72
   65
 73
    4
 40
50.8
 49
25.4
 74
    0
 49
-12.7
 74
    0
 49
0
 74
    0
 49
-12.7
 74
    0
  0
LTYPE
  5
3E
330
5
100
AcDbSymbolTableRecord
100
AcDbLinetypeTableRecord
  2
DIVIDE
 70
    0
  3
Divide ____ . . ____ . . ____ . . ____ . . ____
 72
   65
 73
    6
 40
31.75
 49
12.7
 74
    0
 49
-6.35
 74
    0
 49
0
 74
    0
 49
-6.35
 74
    0
 49
0
 74
    0
 49
-6.35
 74
    0
  0
LTYPE
  5
3F
330
5
100
AcDbSymbolTableRecord
100
AcDbLinetypeTableRecord
  2
DIVIDETINY
 70
    0
  3
Divide (.15x) __..__..__..__..__..__..__..__.._
 72
   65
 73
    6
 40
4.7625
 49
1.905
 74
    0
 49
-0.9525
 74
    0
 49
0
 74
    0
 49
-0.9525
 74
    0
 49
0
 74
    0
 49
-0.9525
 74
    0
  0
LTYPE
  5
40
330
5
100
AcDbSymbolTableRecord
100
AcDbLinetypeTableRecord
  2
DIVIDE2
 70
    0
  3
Divide (.5x) __..__..__..__..__..__..__..__.._
 72
   65
 73
    6
 40
15.875
 49
6.35
 74
    0
 49
-3.175
 74
    0
 49
0
 74
    0
 49
-3.175
 74
    0
 49
0
 74
    0
 49
-3.175
 74
    0
  0
LTYPE
  5
41
330
5
100
AcDbSymbolTableRecord
100
AcDbLinetypeTableRecord
  2
DIVIDEX2
 70
    0
  3
Divide (2x) ________  .  .  ________  .  .  _
 72
   65
 73
    6
 40
63.5
 49
25.4
 74
    0
 49
-12.7
 74
    0
 49
0
 74
    0
 49
-12.7
 74
    0
 49
0
 74
    0
 49
-12.7
 74
    0
  0
LTYPE
  5
42
330
5
100
AcDbSymbolTableRecord
100
AcDbLinetypeTableRecord
  2
BORDER
 70
    0
  3
Border __ __ . __ __ . __ __ . __ __ . __ __ .
 72
   65
 73
    6
 40
44.45
 49
12.7
 74
    0
 49
-6.35
 74
    0
 49
12.7
 74
    0
 49
-6.35
 74
    0
 49
0
 74
    0
 49
-6.35
 74
    0
  0
LTYPE
  5
43
330
5
100
AcDbSymbolTableRecord
100
AcDbLinetypeTableRecord
  2
BORDERTINY
 70
    0
  3
Border (.15x) __.__.__.__.__.__.__.__.__.__.__.
 72
   65
 73
    6
 40
6.6675
 49
1.905
 74
    0
 49
-0.9525
 74
    0
 49
1.905
 74
    0
 49
-0.9525
 74
    0
 49
0
 74
    0
 49
-0.9525
 74
    0
  0
LTYPE
  5
44
330
5
100
AcDbSymbolTableRecord
100
AcDbLinetypeTableRecord
  2
BORDER2
 70
    0
  3
Border (.5x) __.__.__.__.__.__.__.__.__.__.__.
 72
   65
 73
    6
 40
22.225
 49
6.35
 74
    0
 49
-3.175
 74
    0
 49
6.35
 74
    0
 49
-3.175
 74
    0
 49
0
 74
    0
 49
-3.175
 74
    0
  0
LTYPE
  5
45
330
5
100
AcDbSymbolTableRecord
100
AcDbLinetypeTableRecord
  2
BORDERX2
 70
    0
  3
Border (2x) ____  ____  .  ____  ____  .  ___
 72
   65
 73
    6
 40
88.89999999999999
 49
25.4
 74
    0
 49
-12.7
 74
    0
 49
25.4
 74
    0
 49
-12.7
 74
    0
 49
0
 74
    0
 49
-12.7
 74
    0
  0
LTYPE
  5
46
330
5
100
AcDbSymbolTableRecord
100
AcDbLinetypeTableRecord
  2
CENTER
 70
    0
  3
Center ____ _ ____ _ ____ _ ____ _ ____ _ ____
 72
   65
 73
    4
 40
50.8
 49
31.75
 74
    0
 49
-6.35
 74
    0
 49
6.35
 74
    0
 49
-6.35
 74
    0
  0
LTYPE
  5
47
330
5
100
AcDbSymbolTableRecord
100
AcDbLinetypeTableRecord
  2
CENTERTINY
 70
    0
  3
Center (.15x) ___ _ ___ _ ___ _ ___ _ ___ _ ___
 72
   65
 73
    4
 40
7.619999999999999
 49
4.7625
 74
    0
 49
-0.9525
 74
    0
 49
0.9525
 74
    0
 49
-0.9525
 74
    0
  0
LTYPE
  5
48
330
5
100
AcDbSymbolTableRecord
100
AcDbLinetypeTableRecord
  2
CENTER2
 70
    0
  3
Center (.5x) ___ _ ___ _ ___ _ ___ _ ___ _ ___
 72
   65
 73
    4
 40
28.575
 49
19.05
 74
    0
 49
-3.175
 74
    0
 49
3.175
 74
    0
 49
-3.175
 74
    0
  0
LTYPE
  5
49
330
5
100
AcDbSymbolTableRecord
100
AcDbLinetypeTableRecord
  2
CENTERX2
 70
    0
  3
Center (2x) ________  __  ________  __  _____
 72
   65
 73
    4
 40
101.6
 49
63.5
 74
    0
 49
-12.7
 74
    0
 49
12.7
 74
    0
 49
-12.7
 74
    0
  0
ENDTAB
  0
TABLE
  2
LAYER
  5
2
330
0
100
AcDbSymbolTable
 70
    1
  0
LAYER
  5
10
330
2
100
AcDbSymbolTableRecord
100
AcDbLayerTableRecord
  2
0
 70
    0
 62
    7
  6
CONTINUOUS
370
    0
390
F
  0
ENDTAB
  0
TABLE
  2
STYLE
  5
3
330
0
100
AcDbSymbolTable
 70
    3
  0
STYLE
  5
4A
330
2
100
AcDbSymbolTableRecord
100
AcDbTextStyleTableRecord
  2
Standard
 70
    0
 40
0
 41
1
 50
0
 71
    0
 42
1
  3
txt
  4

  0
ENDTAB
  0
TABLE
  2
VIEW
  5
6
330
0
100
AcDbSymbolTable
 70
    0
  0
ENDTAB
  0
TABLE
  2
UCS
  5
7
330
0
100
AcDbSymbolTable
 70
    0
  0
ENDTAB
  0
TABLE
  2
APPID
  5
9
330
0
100
AcDbSymbolTable
 70
    1
  0
APPID
  5
12
330
9
100
AcDbSymbolTableRecord
100
AcDbRegAppTableRecord
  2
ACAD
 70
    0
  0
APPID
  5
4B
330
9
100
AcDbSymbolTableRecord
100
AcDbRegAppTableRecord
  2
LibreCad
 70
    0
  0
ENDTAB
  0
TABLE
  2
DIMSTYLE
  5
A
330
0
100
AcDbSymbolTable
 70
    1
100
AcDbDimStyleTable
 71
    1
  0
DIMSTYLE
105
4C
330
A
100
AcDbSymbolTableRecord
100
AcDbDimStyleTableRecord
  2
Standard
 70
    0
 40
1
 41
2.5
 42
0.625
 43
0.38
 44
1.25
 45
0
 46
0
 47
0
 48
0
 49
1
140
2.5
141
0.09
142
2.5
143
25.4
144
1
145
0
146
1
147
0.625
148
0
 71
    0
 72
    0
 73
    0
 74
    1
 75
    0
 76
    0
 77
    0
 78
    1
 79
    0
170
    0
171
    2
172
    0
173
    0
174
    0
175
    0
176
    0
177
    0
178
    0
179
    0
271
    2
272
    4
273
    2
274
    2
275
    0
276
    0
277
    2
278
    0
279
    0
280
    0
281
    0
282
    0
283
    1
284
    0
285
    0
286
    0
288
    0
289
    3
340
standard
341

371
   -2
372
   -2
  0
ENDTAB
  0
TABLE
  2
BLOCK_RECORD
  5
1
330
0
100
AcDbSymbolTable
 70
    2
  0
BLOCK_RECORD
  5
1F
330
1
100
AcDbSymbolTableRecord
100
AcDbBlockTableRecord
  2
*Model_Space
 70
    0
280
    1
281
    0
  0
BLOCK_RECORD
  5
1E
330
1
100
AcDbSymbolTableRecord
100
AcDbBlockTableRecord
  2
*Paper_Space
 70
    0
280
    1
281
    0
  0
ENDTAB
  0
ENDSEC
  0
SECTION
  2
BLOCKS
  0
BLOCK
  5
20
330
1F
100
AcDbEntity
  8
0
100
AcDbBlockBegin
  2
*Model_Space
 70
    0
 10
0
 20
0
 30
0
  3
*Model_Space
  1

  0
ENDBLK
  5
21
330
1F
100
AcDbEntity
  8
0
100
AcDbBlockEnd
  0
BLOCK
  5
1C
330
1B
100
AcDbEntity
  8
0
100
AcDbBlockBegin
  2
*Paper_Space
 70
    0
 10
0
 20
0
 30
0
  3
*Paper_Space
  1

  0
ENDBLK
  5
1D
330
1F
100
AcDbEntity
  8
0
100
AcDbBlockEnd
  0
ENDSEC
  0
SECTION
  2
ENTITIES
  0
LINE
  5
4D
100
AcDbEntity
  8
0
  6
ByLayer
 62
  256
370
   -1
100
AcDbLine
 10
89.1999
 20
0.112473
 11
89.9723
 21
0.310791
  0
LINE
  5
4E
100
AcDbEntity
  8
0
  6
ByLayer
 62
  256
370
   -1
100
AcDbLine
 10
89.9723
 20
0.310791
 11
90.7137
 21
0.60434
  0
LINE
  5
4F
100
AcDbEntity
  8
0
  6
ByLayer
 62
  256
370
   -1
100
AcDbLine
 10
90.7137
 20
0.60434
 11
91.41249999999999
 21
0.98851
  0
LINE
  5
50
100
AcDbEntity
  8
0
  6
ByLayer
 62
  256
370
   -1
100
AcDbLine
 10
91.41249999999999
 20
0.98851
 11
92.05759999999999
 21
1.45723
  0
LINE
  5
51
100
AcDbEntity
  8
0
  6
ByLayer
 62
  256
370
   -1
100
AcDbLine
 10
92.05759999999999
 20
1.45723
 11
92.63890000000001
 21
2.00311
  0
LINE
  5
52
100
AcDbEntity
  8
0
  6
ByLayer
 62
  256
370
   -1
100
AcDbLine
 10
92.63890000000001
 20
2.00311
 11
93.1472
 21
2.61755
  0
LINE
  5
53
100
AcDbEntity
  8
0
  6
ByLayer
 62
  256
370
   -1
100
AcDbLine
 10
93.1472
 20
2.61755
 11
93.5745
 21
3.29086
  0
LINE
  5
54
100
AcDbEntity
  8
0
  6
ByLayer
 62
  256
370
   -1
100
AcDbLine
 10
93.5745
 20
3.29086
 11
93.9141
 21
4.01241
  0
LINE
  5
55
100
AcDbEntity
  8
0
  6
ByLayer
 62
  256
370
   -1
100
AcDbLine
 10
93.9141
 20
4.01241
 11
94.1605
 21
4.77081
  0
LINE
  5
56
100
AcDbEntity
  8
0
  6
ByLayer
 62
  256
370
   -1
100
AcDbLine
 10
94.1605
 20
4.77081
 11
94.3099
 21
5.55412
  0
LINE
  5
57
100
AcDbEntity
  8
0
  6
ByLayer
 62
  256
370
   -1
100
AcDbLine
 10
94.3099
 20
5.55412
 11
94.36
 21
6.34999
  0
LINE
  5
58
100
AcDbEntity
  8
0
  6
ByLayer
 62
  256
370
   -1
100
AcDbLine
 10
94.36
 20
6.34999
 11
94.36
 21
13.5
  0
LINE
  5
59
100
AcDbEntity
  8
0
  6
ByLayer
 62
  256
370
   -1
100
AcDbLine
 10
94.36
 20
13.5
 11
76.11
 21
13.5
  0
LINE
  5
5A
100
AcDbEntity
  8
0
  6
ByLayer
 62
  256
370
   -1
100
AcDbLine
 10
76.11
 20
13.5
 11
76.11
 21
28.5
  0
LINE
  5
5B
100
AcDbEntity
  8
0
  6
ByLayer
 62
  256
370
   -1
100
AcDbLine
 10
76.11
 20
28.5
 11
94.36
 21
28.5
  0
LINE
  5
5C
100
AcDbEntity
  8
0
  6
ByLayer
 62
  256
370
   -1
100
AcDbLine
 10
94.36
 20
28.5
 11
94.36
 21
56.26
  0
LINE
  5
5D
100
AcDbEntity
  8
0
  6
ByLayer
 62
  256
370
   -1
100
AcDbLine
 10
94.36
 20
56.26
 11
94.3099
 21
57.0559
  0
LINE
  5
5E
100
AcDbEntity
  8
0
  6
ByLayer
 62
  256
370
   -1
100
AcDbLine
 10
94.3099
 20
57.0559
 11
94.1605
 21
57.8392
  0
LINE
  5
5F
100
AcDbEntity
  8
0
  6
ByLayer
 62
  256
370
   -1
100
AcDbLine
 10
94.1605
 20
57.8392
 11
93.9141
 21
58.5976
  0
LINE
  5
60
100
AcDbEntity
  8
0
  6
ByLayer
 62
  256
370
   -1
100
AcDbLine
 10
93.9141
 20
58.5976
 11
93.5745
 21
59.3191
  0
LINE
  5
61
100
AcDbEntity
  8
0
  6
ByLayer
 62
  256
370
   -1
100
AcDbLine
 10
93.5745
 20
59.3191
 11
93.1472
 21
59.9924
  0
LINE
  5
62
100
AcDbEntity
  8
0
  6
ByLayer
 62
  256
370
   -1
100
AcDbLine
 10
93.1472
 20
59.9924
 11
92.63890000000001
 21
60.6069
  0
LINE
  5
63
100
AcDbEntity
  8
0
  6
ByLayer
 62
  256
370
   -1
100
AcDbLine
 10
92.63890000000001
 20
60.6069
 11
92.05759999999999
 21
61.1528
  0
LINE
  5
64
100
AcDbEntity
  8
0
  6
ByLayer
 62
  256
370
   -1
100
AcDbLine
 10
92.05759999999999
 20
61.1528
 11
91.41249999999999
 21
61.6215
  0
LINE
  5
65
100
AcDbEntity
  8
0
  6
ByLayer
 62
  256
370
   -1
100
AcDbLine
 10
91.41249999999999
 20
61.6215
 11
90.7137
 21
62.0056
  0
LINE
  5
66
100
AcDbEntity
  8
0
  6
ByLayer
 62
  256
370
   -1
100
AcDbLine
 10
90.7137
 20
62.0056
 11
89.9723
 21
62.2992
  0
LINE
  5
67
100
AcDbEntity
  8
0
  6
ByLayer
 62
  256
370
   -1
100
AcDbLine
 10
89.9723
 20
62.2992
 11
89.1999
 21
62.4975
  0
LINE
  5
68
100
AcDbEntity
  8
0
  6
ByLayer
 62
  256
370
   -1
100
AcDbLine
 10
89.1999
 20
62.4975
 11
88.4087
 21
62.5975
  0
LINE
  5
69
100
AcDbEntity
  8
0
  6
ByLayer
 62
  256
370
   -1
100
AcDbLine
 10
88.4087
 20
62.5975
 11
5.95128
 21
62.5975
  0
LINE
  5
6A
100
AcDbEntity
  8
0
  6
ByLayer
 62
  256
370
   -1
100
AcDbLine
 10
5.95128
 20
62.5975
 11
5.16013
 21
62.4975
  0
LINE
  5
6B
100
AcDbEntity
  8
0
  6
ByLayer
 62
  256
370
   -1
100
AcDbLine
 10
5.16013
 20
62.4975
 11
4.38774
 21
62.2992
  0
LINE
  5
6C
100
AcDbEntity
  8
0
  6
ByLayer
 62
  256
370
   -1
100
AcDbLine
 10
4.38774
 20
62.2992
 11
3.6463
 21
62.0056
  0
LINE
  5
6D
100
AcDbEntity
  8
0
  6
ByLayer
 62
  256
370
   -1
100
AcDbLine
 10
3.6463
 20
62.0056
 11
2.94749
 21
61.6215
  0
LINE
  5
6E
100
AcDbEntity
  8
0
  6
ByLayer
 62
  256
370
   -1
100
AcDbLine
 10
2.94749
 20
61.6215
 11
2.30235
 21
61.1528
  0
LINE
  5
6F
100
AcDbEntity
  8
0
  6
ByLayer
 62
  256
370
   -1
100
AcDbLine
 10
2.30235
 20
61.1528
 11
1.72104
 21
60.6069
  0
LINE
  5
70
100
AcDbEntity
  8
0
  6
ByLayer
 62
  256
370
   -1
100
AcDbLine
 10
1.72104
 20
60.6069
 11
1.21274
 21
59.9924
  0
LINE
  5
71
100
AcDbEntity
  8
0
  6
ByLayer
 62
  256
370
   -1
100
AcDbLine
 10
1.21274
 20
59.9924
 11
0.785446
 21
59.3191
  0
LINE
  5
72
100
AcDbEntity
  8
0
  6
ByLayer
 62
  256
370
   -1
100
AcDbLine
 10
0.785446
 20
59.3191
 11
0.445908
 21
58.5976
  0
LINE
  5
73
100
AcDbEntity
  8
0
  6
ByLayer
 62
  256
370
   -1
100
AcDbLine
 10
0.445908
 20
58.5976
 11
0.199493
 21
57.8392
  0
LINE
  5
74
100
AcDbEntity
  8
0
  6
ByLayer
 62
  256
370
   -1
100
AcDbLine
 10
0.199493
 20
57.8392
 11
0.0500641
 21
57.0559
  0
LINE
  5
75
100
AcDbEntity
  8
0
  6
ByLayer
 62
  256
370
   -1
100
AcDbLine
 10
0.0500641
 20
57.0559
 11
0
 21
56.26
  0
LINE
  5
76
100
AcDbEntity
  8
0
  6
ByLayer
 62
  256
370
   -1
100
AcDbLine
 10
0
 20
56.26
 11
0
 21
43
  0
LINE
  5
77
100
AcDbEntity
  8
0
  6
ByLayer
 62
  256
370
   -1
100
AcDbLine
 10
0
 20
43
 11
24
 21
43
  0
LINE
  5
78
100
AcDbEntity
  8
0
  6
ByLayer
 62
  256
370
   -1
100
AcDbLine
 10
24
 20
43
 11
24
 21
25
  0
LINE
  5
79
100
AcDbEntity
  8
0
  6
ByLayer
 62
  256
370
   -1
100
AcDbLine
 10
24
 20
25
 11
0
 21
25
  0
LINE
  5
7A
100
AcDbEntity
  8
0
  6
ByLayer
 62
  256
370
   -1
100
AcDbLine
 10
0
 20
25
 11
0
 21
19
  0
LINE
  5
7B
100
AcDbEntity
  8
0
  6
ByLayer
 62
  256
370
   -1
100
AcDbLine
 10
0
 20
19
 11
15.5
 21
19
  0
LINE
  5
7C
100
AcDbEntity
  8
0
  6
ByLayer
 62
  256
370
   -1
100
AcDbLine
 10
15.5
 20
19
 11
15.5
 21
7.99998
  0
LINE
  5
7D
100
AcDbEntity
  8
0
  6
ByLayer
 62
  256
370
   -1
100
AcDbLine
 10
15.5
 20
7.99998
 11
0
 21
7.99998
  0
LINE
  5
7E
100
AcDbEntity
  8
0
  6
ByLayer
 62
  256
370
   -1
100
AcDbLine
 10
0
 20
7.99998
 11
0
 21
6.34999
  0
LINE
  5
7F
100
AcDbEntity
  8
0
  6
ByLayer
 62
  256
370
   -1
100
AcDbLine
 10
0
 20
6.34999
 11
0.0500641
 21
5.55412
  0
LINE
  5
80
100
AcDbEntity
  8
0
  6
ByLayer
 62
  256
370
   -1
100
AcDbLine
 10
0.0500641
 20
5.55412
 11
0.199493
 21
4.77081
  0
LINE
  5
81
100
AcDbEntity
  8
0
  6
ByLayer
 62
  256
370
   -1
100
AcDbLine
 10
0.199493
 20
4.77081
 11
0.445908
 21
4.01241
  0
LINE
  5
82
100
AcDbEntity
  8
0
  6
ByLayer
 62
  256
370
   -1
100
AcDbLine
 10
0.445908
 20
4.01241
 11
0.785446
 21
3.29086
  0
LINE
  5
83
100
AcDbEntity
  8
0
  6
ByLayer
 62
  256
370
   -1
100
AcDbLine
 10
0.785446
 20
3.29086
 11
1.21274
 21
2.61755
  0
LINE
  5
84
100
AcDbEntity
  8
0
  6
ByLayer
 62
  256
370
   -1
100
AcDbLine
 10
1.21274
 20
2.61755
 11
1.72104
 21
2.00311
  0
LINE
  5
85
100
AcDbEntity
  8
0
  6
ByLayer
 62
  256
370
   -1
100
AcDbLine
 10
1.72104
 20
2.00311
 11
2.30235
 21
1.45723
  0
LINE
  5
86
100
AcDbEntity
  8
0
  6
ByLayer
 62
  256
370
   -1
100
AcDbLine
 10
2.30235
 20
1.45723
 11
2.94749
 21
0.98851
  0
LINE
  5
87
100
AcDbEntity
  8
0
  6
ByLayer
 62
  256
370
   -1
100
AcDbLine
 10
2.94749
 20
0.98851
 11
3.6463
 21
0.60434
  0
LINE
  5
88
100
AcDbEntity
  8
0
  6
ByLayer
 62
  256
370
   -1
100
AcDbLine
 10
3.6463
 20
0.60434
 11
4.38774
 21
0.310791
  0
LINE
  5
89
100
AcDbEntity
  8
0
  6
ByLayer
 62
  256
370
   -1
100
AcDbLine
 10
4.38774
 20
0.310791
 11
5.16013
 21
0.112473
  0
LINE
  5
8A
100
AcDbEntity
  8
0
  6
ByLayer
 62
  256
370
   -1
100
AcDbLine
 10
5.16013
 20
0.112473
 11
5.95128
 21
0.0125275
  0
LINE
  5
8B
100
AcDbEntity
  8
0
  6
ByLayer
 62
  256
370
   -1
100
AcDbLine
 10
5.95128
 20
0.0125275
 11
88.4087
 21
0.0125275
  0
LINE
  5
8C
100
AcDbEntity
  8
0
  6
ByLayer
 62
  256
370
   -1
100
AcDbLine
 10
88.4087
 20
0.0125275
 11
89.1999
 21
0.112473
  0
LINE
  5
8D
100
AcDbEntity
  8
0
  6
ByLayer
 62
  256
370
   -1
100
AcDbLine
 10
22
 20
52.61
 11
22
 21
58.61
  0
LINE
  5
8E
100
AcDbEntity
  8
0
  6
ByLayer
 62
  256
370
   -1
100
AcDbLine
 10
22
 20
58.61
 11
81
 21
58.61
  0
LINE
  5
8F
100
AcDbEntity
  8
0
  6
ByLayer
 62
  256
370
   -1
100
AcDbLine
 10
81
 20
58.61
 11
81
 21
52.61
  0
LINE
  5
90
100
AcDbEntity
  8
0
  6
ByLayer
 62
  256
370
   -1
100
AcDbLine
 10
81
 20
52.61
 11
22
 21
52.61
  0
LINE
  5
91
100
AcDbEntity
  8
0
  6
ByLayer
 62
  256
370
   -1
100
AcDbLine
 10
9
 20
53.57
 11
9
 21
57.57
  0
LINE
  5
92
100
AcDbEntity
  8
0
  6
ByLayer
 62
  256
370
   -1
100
AcDbLine
 10
9
 20
57.57
 11
15
 21
57.57
  0
LINE
  5
93
100
AcDbEntity
  8
0
  6
ByLayer
 62
  256
370
   -1
100
AcDbLine
 10
15
 20
57.57
 11
15
 21
53.57
  0
LINE
  5
94
100
AcDbEntity
  8
0
  6
ByLayer
 62
  256
370
   -1
100
AcDbLine
 10
15
 20
53.57
 11
9
 21
53.57
  0
LINE
  5
95
100
AcDbEntity
  8
0
  6
ByLayer
 62
  256
370
   -1
100
AcDbLine
 10
18.4844
 20
53.5739
 11
18.2352
 21
53.6054
  0
LINE
  5
96
100
AcDbEntity
  8
0
  6
ByLayer
 62
  256
370
   -1
100
AcDbLine
 10
18.2352
 20
53.6054
 11
17.992
 21
53.6679
  0
LINE
  5
97
100
AcDbEntity
  8
0
  6
ByLayer
 62
  256
370
   -1
100
AcDbLine
 10
17.992
 20
53.6679
 11
17.7584
 21
53.7603
  0
LINE
  5
98
100
AcDbEntity
  8
0
  6
ByLayer
 62
  256
370
   -1
100
AcDbLine
 10
17.7584
 20
53.7603
 11
17.5383
 21
53.8813
  0
LINE
  5
99
100
AcDbEntity
  8
0
  6
ByLayer
 62
  256
370
   -1
100
AcDbLine
 10
17.5383
 20
53.8813
 11
17.3351
 21
54.029
  0
LINE
  5
9A
100
AcDbEntity
  8
0
  6
ByLayer
 62
  256
370
   -1
100
AcDbLine
 10
17.3351
 20
54.029
 11
17.1521
 21
54.2009
  0
LINE
  5
9B
100
AcDbEntity
  8
0
  6
ByLayer
 62
  256
370
   -1
100
AcDbLine
 10
17.1521
 20
54.2009
 11
16.992
 21
54.3944
  0
LINE
  5
9C
100
AcDbEntity
  8
0
  6
ByLayer
 62
  256
370
   -1
100
AcDbLine
 10
16.992
 20
54.3944
 11
16.8574
 21
54.6065
  0
LINE
  5
9D
100
AcDbEntity
  8
0
  6
ByLayer
 62
  256
370
   -1
100
AcDbLine
 10
16.8574
 20
54.6065
 11
16.7504
 21
54.8337
  0
LINE
  5
9E
100
AcDbEntity
  8
0
  6
ByLayer
 62
  256
370
   -1
100
AcDbLine
 10
16.7504
 20
54.8337
 11
16.6728
 21
55.0726
  0
LINE
  5
9F
100
AcDbEntity
  8
0
  6
ByLayer
 62
  256
370
   -1
100
AcDbLine
 10
16.6728
 20
55.0726
 11
16.6258
 21
55.3193
  0
LINE
  5
A0
100
AcDbEntity
  8
0
  6
ByLayer
 62
  256
370
   -1
100
AcDbLine
 10
16.6258
 20
55.3193
 11
16.61
 21
55.57
  0
LINE
  5
A1
100
AcDbEntity
  8
0
  6
ByLayer
 62
  256
370
   -1
100
AcDbLine
 10
16.61
 20
55.57
 11
16.6258
 21
55.8207
  0
LINE
  5
A2
100
AcDbEntity
  8
0
  6
ByLayer
 62
  256
370
   -1
100
AcDbLine
 10
16.6258
 20
55.8207
 11
16.6728
 21
56.0674
  0
LINE
  5
A3
100
AcDbEntity
  8
0
  6
ByLayer
 62
  256
370
   -1
100
AcDbLine
 10
16.6728
 20
56.0674
 11
16.7504
 21
56.3062
  0
LINE
  5
A4
100
AcDbEntity
  8
0
  6
ByLayer
 62
  256
370
   -1
100
AcDbLine
 10
16.7504
 20
56.3062
 11
16.8574
 21
56.5335
  0
LINE
  5
A5
100
AcDbEntity
  8
0
  6
ByLayer
 62
  256
370
   -1
100
AcDbLine
 10
16.8574
 20
56.5335
 11
16.992
 21
56.7456
  0
LINE
  5
A6
100
AcDbEntity
  8
0
  6
ByLayer
 62
  256
370
   -1
100
AcDbLine
 10
16.992
 20
56.7456
 11
17.1521
 21
56.9391
  0
LINE
  5
A7
100
AcDbEntity
  8
0
  6
ByLayer
 62
  256
370
   -1
100
AcDbLine
 10
17.1521
 20
56.9391
 11
17.3351
 21
57.111
  0
LINE
  5
A8
100
AcDbEntity
  8
0
  6
ByLayer
 62
  256
370
   -1
100
AcDbLine
 10
17.3351
 20
57.111
 11
17.5383
 21
57.2587
  0
LINE
  5
A9
100
AcDbEntity
  8
0
  6
ByLayer
 62
  256
370
   -1
100
AcDbLine
 10
17.5383
 20
57.2587
 11
17.7584
 21
57.3797
  0
LINE
  5
AA
100
AcDbEntity
  8
0
  6
ByLayer
 62
  256
370
   -1
100
AcDbLine
 10
17.7584
 20
57.3797
 11
17.992
 21
57.4721
  0
LINE
  5
AB
100
AcDbEntity
  8
0
  6
ByLayer
 62
  256
370
   -1
100
AcDbLine
 10
17.992
 20
57.4721
 11
18.2352
 21
57.5346
  0
LINE
  5
AC
100
AcDbEntity
  8
0
  6
ByLayer
 62
  256
370
   -1
100
AcDbLine
 10
18.2352
 20
57.5346
 11
18.4844
 21
57.566
  0
LINE
  5
AD
100
AcDbEntity
  8
0
  6
ByLayer
 62
  256
370
   -1
100
AcDbLine
 10
18.4844
 20
57.566
 11
18.7356
 21
57.566
  0
LINE
  5
AE
100
AcDbEntity
  8
0
  6
ByLayer
 62
  256
370
   -1
100
AcDbLine
 10
18.7356
 20
57.566
 11
18.9848
 21
57.5346
  0
LINE
  5
AF
100
AcDbEntity
  8
0
  6
ByLayer
 62
  256
370
   -1
100
AcDbLine
 10
18.9848
 20
57.5346
 11
19.228
 21
57.4721
  0
LINE
  5
B0
100
AcDbEntity
  8
0
  6
ByLayer
 62
  256
370
   -1
100
AcDbLine
 10
19.228
 20
57.4721
 11
19.4615
 21
57.3797
  0
LINE
  5
B1
100
AcDbEntity
  8
0
  6
ByLayer
 62
  256
370
   -1
100
AcDbLine
 10
19.4615
 20
57.3797
 11
19.6816
 21
57.2587
  0
LINE
  5
B2
100
AcDbEntity
  8
0
  6
ByLayer
 62
  256
370
   -1
100
AcDbLine
 10
19.6816
 20
57.2587
 11
19.8848
 21
57.111
  0
LINE
  5
B3
100
AcDbEntity
  8
0
  6
ByLayer
 62
  256
370
   -1
100
AcDbLine
 10
19.8848
 20
57.111
 11
20.0679
 21
56.9391
  0
LINE
  5
B4
100
AcDbEntity
  8
0
  6
ByLayer
 62
  256
370
   -1
100
AcDbLine
 10
20.0679
 20
56.9391
 11
20.228
 21
56.7456
  0
LINE
  5
B5
100
AcDbEntity
  8
0
  6
ByLayer
 62
  256
370
   -1
100
AcDbLine
 10
20.228
 20
56.7456
 11
20.3626
 21
56.5335
  0
LINE
  5
B6
100
AcDbEntity
  8
0
  6
ByLayer
 62
  256
370
   -1
100
AcDbLine
 10
20.3626
 20
56.5335
 11
20.4695
 21
56.3062
  0
LINE
  5
B7
100
AcDbEntity
  8
0
  6
ByLayer
 62
  256
370
   -1
100
AcDbLine
 10
20.4695
 20
56.3062
 11
20.5472
 21
56.0674
  0
LINE
  5
B8
100
AcDbEntity
  8
0
  6
ByLayer
 62
  256
370
   -1
100
AcDbLine
 10
20.5472
 20
56.0674
 11
20.5942
 21
55.8207
  0
LINE
  5
B9
100
AcDbEntity
  8
0
  6
ByLayer
 62
  256
370
   -1
100
AcDbLine
 10
20.5942
 20
55.8207
 11
20.61
 21
55.57
  0
LINE
  5
BA
100
AcDbEntity
  8
0
  6
ByLayer
 62
  256
370
   -1
100
AcDbLine
 10
20.61
 20
55.57
 11
20.5942
 21
55.3193
  0
LINE
  5
BB
100
AcDbEntity
  8
0
  6
ByLayer
 62
  256
370
   -1
100
AcDbLine
 10
20.5942
 20
55.3193
 11
20.5472
 21
55.0726
  0
LINE
  5
BC
100
AcDbEntity
  8
0
  6
ByLayer
 62
  256
370
   -1
100
AcDbLine
 10
20.5472
 20
55.0726
 11
20.4695
 21
54.8337
  0
LINE
  5
BD
100
AcDbEntity
  8
0
  6
ByLayer
 62
  256
370
   -1
100
AcDbLine
 10
20.4695
 20
54.8337
 11
20.3626
 21
54.6065
  0
LINE
  5
BE
100
AcDbEntity
  8
0
  6
ByLayer
 62
  256
370
   -1
100
AcDbLine
 10
20.3626
 20
54.6065
 11
20.228
 21
54.3944
  0
LINE
  5
BF
100
AcDbEntity
  8
0
  6
ByLayer
 62
  256
370
   -1
100
AcDbLine
 10
20.228
 20
54.3944
 11
20.0679
 21
54.2009
  0
LINE
  5
C0
100
AcDbEntity
  8
0
  6
ByLayer
 62
  256
370
   -1
100
AcDbLine
 10
20.0679
 20
54.2009
 11
19.8848
 21
54.029
  0
LINE
  5
C1
100
AcDbEntity
  8
0
  6
ByLayer
 62
  256
370
   -1
100
AcDbLine
 10
19.8848
 20
54.029
 11
19.6816
 21
53.8813
  0
LINE
  5
C2
100
AcDbEntity
  8
0
  6
ByLayer
 62
  256
370
   -1
100
AcDbLine
 10
19.6816
 20
53.8813
 11
19.4615
 21
53.7603
  0
LINE
  5
C3
100
AcDbEntity
  8
0
  6
ByLayer
 62
  256
370
   -1
100
AcDbLine
 10
19.4615
 20
53.7603
 11
19.228
 21
53.6679
  0
LINE
  5
C4
100
AcDbEntity
  8
0
  6
ByLayer
 62
  256
370
   -1
100
AcDbLine
 10
19.228
 20
53.6679
 11
18.9848
 21
53.6054
  0
LINE
  5
C5
100
AcDbEntity
  8
0
  6
ByLayer
 62
  256
370
   -1
100
AcDbLine
 10
18.9848
 20
53.6054
 11
18.7356
 21
53.5739
  0
LINE
  5
C6
100
AcDbEntity
  8
0
  6
ByLayer
 62
  256
370
   -1
100
AcDbLine
 10
18.7356
 20
53.5739
 11
18.4844
 21
53.5739
  0
LINE
  5
C7
100
AcDbEntity
  8
0
  6
ByLayer
 62
  256
370
   -1
100
AcDbLine
 10
84.5844
 20
50.2639
 11
84.3352
 21
50.2954
  0
LINE
  5
C8
100
AcDbEntity
  8
0
  6
ByLayer
 62
  256
370
   -1
100
AcDbLine
 10
84.3352
 20
50.2954
 11
84.092
 21
50.3579
  0
LINE
  5
C9
100
AcDbEntity
  8
0
  6
ByLayer
 62
  256
370
   -1
100
AcDbLine
 10
84.092
 20
50.3579
 11
83.8584
 21
50.4503
  0
LINE
  5
CA
100
AcDbEntity
  8
0
  6
ByLayer
 62
  256
370
   -1
100
AcDbLine
 10
83.8584
 20
50.4503
 11
83.6383
 21
50.5713
  0
LINE
  5
CB
100
AcDbEntity
  8
0
  6
ByLayer
 62
  256
370
   -1
100
AcDbLine
 10
83.6383
 20
50.5713
 11
83.43519999999999
 21
50.719
  0
LINE
  5
CC
100
AcDbEntity
  8
0
  6
ByLayer
 62
  256
370
   -1
100
AcDbLine
 10
83.43519999999999
 20
50.719
 11
83.2521
 21
50.8909
  0
LINE
  5
CD
100
AcDbEntity
  8
0
  6
ByLayer
 62
  256
370
   -1
100
AcDbLine
 10
83.2521
 20
50.8909
 11
83.092
 21
51.0844
  0
LINE
  5
CE
100
AcDbEntity
  8
0
  6
ByLayer
 62
  256
370
   -1
100
AcDbLine
 10
83.092
 20
51.0844
 11
82.95740000000001
 21
51.2965
  0
LINE
  5
CF
100
AcDbEntity
  8
0
  6
ByLayer
 62
  256
370
   -1
100
AcDbLine
 10
82.95740000000001
 20
51.2965
 11
82.85039999999999
 21
51.5237
  0
LINE
  5
D0
100
AcDbEntity
  8
0
  6
ByLayer
 62
  256
370
   -1
100
AcDbLine
 10
82.85039999999999
 20
51.5237
 11
82.7728
 21
51.7626
  0
LINE
  5
D1
100
AcDbEntity
  8
0
  6
ByLayer
 62
  256
370
   -1
100
AcDbLine
 10
82.7728
 20
51.7626
 11
82.72580000000001
 21
52.0093
  0
LINE
  5
D2
100
AcDbEntity
  8
0
  6
ByLayer
 62
  256
370
   -1
100
AcDbLine
 10
82.72580000000001
 20
52.0093
 11
82.70999999999999
 21
52.26
  0
LINE
  5
D3
100
AcDbEntity
  8
0
  6
ByLayer
 62
  256
370
   -1
100
AcDbLine
 10
82.70999999999999
 20
52.26
 11
82.72580000000001
 21
52.5107
  0
LINE
  5
D4
100
AcDbEntity
  8
0
  6
ByLayer
 62
  256
370
   -1
100
AcDbLine
 10
82.72580000000001
 20
52.5107
 11
82.7728
 21
52.7574
  0
LINE
  5
D5
100
AcDbEntity
  8
0
  6
ByLayer
 62
  256
370
   -1
100
AcDbLine
 10
82.7728
 20
52.7574
 11
82.85039999999999
 21
52.9962
  0
LINE
  5
D6
100
AcDbEntity
  8
0
  6
ByLayer
 62
  256
370
   -1
100
AcDbLine
 10
82.85039999999999
 20
52.9962
 11
82.95740000000001
 21
53.2235
  0
LINE
  5
D7
100
AcDbEntity
  8
0
  6
ByLayer
 62
  256
370
   -1
100
AcDbLine
 10
82.95740000000001
 20
53.2235
 11
83.092
 21
53.4356
  0
LINE
  5
D8
100
AcDbEntity
  8
0
  6
ByLayer
 62
  256
370
   -1
100
AcDbLine
 10
83.092
 20
53.4356
 11
83.2521
 21
53.6291
  0
LINE
  5
D9
100
AcDbEntity
  8
0
  6
ByLayer
 62
  256
370
   -1
100
AcDbLine
 10
83.2521
 20
53.6291
 11
83.43519999999999
 21
53.801
  0
LINE
  5
DA
100
AcDbEntity
  8
0
  6
ByLayer
 62
  256
370
   -1
100
AcDbLine
 10
83.43519999999999
 20
53.801
 11
83.6383
 21
53.9487
  0
LINE
  5
DB
100
AcDbEntity
  8
0
  6
ByLayer
 62
  256
370
   -1
100
AcDbLine
 10
83.6383
 20
53.9487
 11
83.8584
 21
54.0696
  0
LINE
  5
DC
100
AcDbEntity
  8
0
  6
ByLayer
 62
  256
370
   -1
100
AcDbLine
 10
83.8584
 20
54.0696
 11
84.092
 21
54.1621
  0
LINE
  5
DD
100
AcDbEntity
  8
0
  6
ByLayer
 62
  256
370
   -1
100
AcDbLine
 10
84.092
 20
54.1621
 11
84.3352
 21
54.2246
  0
LINE
  5
DE
100
AcDbEntity
  8
0
  6
ByLayer
 62
  256
370
   -1
100
AcDbLine
 10
84.3352
 20
54.2246
 11
84.5844
 21
54.256
  0
LINE
  5
DF
100
AcDbEntity
  8
0
  6
ByLayer
 62
  256
370
   -1
100
AcDbLine
 10
84.5844
 20
54.256
 11
84.8356
 21
54.256
  0
LINE
  5
E0
100
AcDbEntity
  8
0
  6
ByLayer
 62
  256
370
   -1
100
AcDbLine
 10
84.8356
 20
54.256
 11
85.0848
 21
54.2246
  0
LINE
  5
E1
100
AcDbEntity
  8
0
  6
ByLayer
 62
  256
370
   -1
100
AcDbLine
 10
85.0848
 20
54.2246
 11
85.328
 21
54.1621
  0
LINE
  5
E2
100
AcDbEntity
  8
0
  6
ByLayer
 62
  256
370
   -1
100
AcDbLine
 10
85.328
 20
54.1621
 11
85.5616
 21
54.0696
  0
LINE
  5
E3
100
AcDbEntity
  8
0
  6
ByLayer
 62
  256
370
   -1
100
AcDbLine
 10
85.5616
 20
54.0696
 11
85.7816
 21
53.9487
  0
LINE
  5
E4
100
AcDbEntity
  8
0
  6
ByLayer
 62
  256
370
   -1
100
AcDbLine
 10
85.7816
 20
53.9487
 11
85.98480000000001
 21
53.801
  0
LINE
  5
E5
100
AcDbEntity
  8
0
  6
ByLayer
 62
  256
370
   -1
100
AcDbLine
 10
85.98480000000001
 20
53.801
 11
86.1679
 21
53.6291
  0
LINE
  5
E6
100
AcDbEntity
  8
0
  6
ByLayer
 62
  256
370
   -1
100
AcDbLine
 10
86.1679
 20
53.6291
 11
86.328
 21
53.4356
  0
LINE
  5
E7
100
AcDbEntity
  8
0
  6
ByLayer
 62
  256
370
   -1
100
AcDbLine
 10
86.328
 20
53.4356
 11
86.46259999999999
 21
53.2235
  0
LINE
  5
E8
100
AcDbEntity
  8
0
  6
ByLayer
 62
  256
370
   -1
100
AcDbLine
 10
86.46259999999999
 20
53.2235
 11
86.56950000000001
 21
52.9962
  0
LINE
  5
E9
100
AcDbEntity
  8
0
  6
ByLayer
 62
  256
370
   -1
100
AcDbLine
 10
86.56950000000001
 20
52.9962
 11
86.6472
 21
52.7574
  0
LINE
  5
EA
100
AcDbEntity
  8
0
  6
ByLayer
 62
  256
370
   -1
100
AcDbLine
 10
86.6472
 20
52.7574
 11
86.6942
 21
52.5107
  0
LINE
  5
EB
100
AcDbEntity
  8
0
  6
ByLayer
 62
  256
370
   -1
100
AcDbLine
 10
86.6942
 20
52.5107
 11
86.70999999999999
 21
52.26
  0
LINE
  5
EC
100
AcDbEntity
  8
0
  6
ByLayer
 62
  256
370
   -1
100
AcDbLine
 10
86.70999999999999
 20
52.26
 11
86.6942
 21
52.0093
  0
LINE
  5
ED
100
AcDbEntity
  8
0
  6
ByLayer
 62
  256
370
   -1
100
AcDbLine
 10
86.6942
 20
52.0093
 11
86.6472
 21
51.7626
  0
LINE
  5
EE
100
AcDbEntity
  8
0
  6
ByLayer
 62
  256
370
   -1
100
AcDbLine
 10
86.6472
 20
51.7626
 11
86.56950000000001
 21
51.5237
  0
LINE
  5
EF
100
AcDbEntity
  8
0
  6
ByLayer
 62
  256
370
   -1
100
AcDbLine
 10
86.56950000000001
 20
51.5237
 11
86.46259999999999
 21
51.2965
  0
LINE
  5
F0
100
AcDbEntity
  8
0
  6
ByLayer
 62
  256
370
   -1
100
AcDbLine
 10
86.46259999999999
 20
51.2965
 11
86.328
 21
51.0844
  0
LINE
  5
F1
100
AcDbEntity
  8
0
  6
ByLayer
 62
  256
370
   -1
100
AcDbLine
 10
86.328
 20
51.0844
 11
86.1679
 21
50.8909
  0
LINE
  5
F2
100
AcDbEntity
  8
0
  6
ByLayer
 62
  256
370
   -1
100
AcDbLine
 10
86.1679
 20
50.8909
 11
85.98480000000001
 21
50.719
  0
LINE
  5
F3
100
AcDbEntity
  8
0
  6
ByLayer
 62
  256
370
   -1
100
AcDbLine
 10
85.98480000000001
 20
50.719
 11
85.7816
 21
50.5713
  0
LINE
  5
F4
100
AcDbEntity
  8
0
  6
ByLayer
 62
  256
370
   -1
100
AcDbLine
 10
85.7816
 20
50.5713
 11
85.5616
 21
50.4503
  0
LINE
  5
F5
100
AcDbEntity
  8
0
  6
ByLayer
 62
  256
370
   -1
100
AcDbLine
 10
85.5616
 20
50.4503
 11
85.328
 21
50.3579
  0
LINE
  5
F6
100
AcDbEntity
  8
0
  6
ByLayer
 62
  256
370
   -1
100
AcDbLine
 10
85.328
 20
50.3579
 11
85.0848
 21
50.2954
  0
LINE
  5
F7
100
AcDbEntity
  8
0
  6
ByLayer
 62
  256
370
   -1
100
AcDbLine
 10
85.0848
 20
50.2954
 11
84.8356
 21
50.2639
  0
LINE
  5
F8
100
AcDbEntity
  8
0
  6
ByLayer
 62
  256
370
   -1
100
AcDbLine
 10
84.8356
 20
50.2639
 11
84.5844
 21
50.2639
  0
LINE
  5
F9
100
AcDbEntity
  8
0
  6
ByLayer
 62
  256
370
   -1
100
AcDbLine
 10
76.36
 20
45.25
 11
76.36
 21
49.25
  0
LINE
  5
FA
100
AcDbEntity
  8
0
  6
ByLayer
 62
  256
370
   -1
100
AcDbLine
 10
76.36
 20
49.25
 11
82.36
 21
49.25
  0
LINE
  5
FB
100
AcDbEntity
  8
0
  6
ByLayer
 62
  256
370
   -1
100
AcDbLine
 10
82.36
 20
49.25
 11
82.36
 21
45.25
  0
LINE
  5
FC
100
AcDbEntity
  8
0
  6
ByLayer
 62
  256
370
   -1
100
AcDbLine
 10
82.36
 20
45.25
 11
76.36
 21
45.25
  0
LINE
  5
FD
100
AcDbEntity
  8
0
  6
ByLayer
 62
  256
370
   -1
100
AcDbLine
 10
9
 20
44
 11
9
 21
48
  0
LINE
  5
FE
100
AcDbEntity
  8
0
  6
ByLayer
 62
  256
370
   -1
100
AcDbLine
 10
9
 20
48
 11
15
 21
48
  0
LINE
  5
FF
100
AcDbEntity
  8
0
  6
ByLayer
 62
  256
370
   -1
100
AcDbLine
 10
15
 20
48
 11
15
 21
44
  0
LINE
  5
100
100
AcDbEntity
  8
0
  6
ByLayer
 62
  256
370
   -1
100
AcDbLine
 10
15
 20
44
 11
9
 21
44
  0
LINE
  5
101
100
AcDbEntity
  8
0
  6
ByLayer
 62
  256
370
   -1
100
AcDbLine
 10
64.36
 20
11.5
 11
64.36
 21
19.5
  0
LINE
  5
102
100
AcDbEntity
  8
0
  6
ByLayer
 62
  256
370
   -1
100
AcDbLine
 10
64.36
 20
19.5
 11
74.86
 21
19.5
  0
LINE
  5
103
100
AcDbEntity
  8
0
  6
ByLayer
 62
  256
370
   -1
100
AcDbLine
 10
74.86
 20
19.5
 11
74.86
 21
11.5
  0
LINE
  5
104
100
AcDbEntity
  8
0
  6
ByLayer
 62
  256
370
   -1
100
AcDbLine
 10
74.86
 20
11.5
 11
64.36
 21
11.5
  0
LINE
  5
105
100
AcDbEntity
  8
0
  6
ByLayer
 62
  256
370
   -1
100
AcDbLine
 10
22
 20
4
 11
22
 21
10
  0
LINE
  5
106
100
AcDbEntity
  8
0
  6
ByLayer
 62
  256
370
   -1
100
AcDbLine
 10
22
 20
10
 11
44.185
 21
10
  0
LINE
  5
107
100
AcDbEntity
  8
0
  6
ByLayer
 62
  256
370
   -1
100
AcDbLine
 10
44.185
 20
10
 11
44.185
 21
14
  0
LINE
  5
108
100
AcDbEntity
  8
0
  6
ByLayer
 62
  256
370
   -1
100
AcDbLine
 10
44.185
 20
14
 11
61.685
 21
14
  0
LINE
  5
109
100
AcDbEntity
  8
0
  6
ByLayer
 62
  256
370
   -1
100
AcDbLine
 10
61.685
 20
14
 11
61.685
 21
10
  0
LINE
  5
10A
100
AcDbEntity
  8
0
  6
ByLayer
 62
  256
370
   -1
100
AcDbLine
 10
61.685
 20
10
 11
81
 21
10
  0
LINE
  5
10B
100
AcDbEntity
  8
0
  6
ByLayer
 62
  256
370
   -1
100
AcDbLine
 10
81
 20
10
 11
81
 21
4
  0
LINE
  5
10C
100
AcDbEntity
  8
0
  6
ByLayer
 62
  256
370
   -1
100
AcDbLine
 10
81
 20
4
 11
22
 21
4
  0
LINE
  5
10D
100
AcDbEntity
  8
0
  6
ByLayer
 62
  256
370
   -1
100
AcDbLine
 10
84.5844
 20
8.35394
 11
84.3352
 21
8.38542
  0
LINE
  5
10E
100
AcDbEntity
  8
0
  6
ByLayer
 62
  256
370
   -1
100
AcDbLine
 10
84.3352
 20
8.38542
 11
84.092
 21
8.44788
  0
LINE
  5
10F
100
AcDbEntity
  8
0
  6
ByLayer
 62
  256
370
   -1
100
AcDbLine
 10
84.092
 20
8.44788
 11
83.8584
 21
8.54034
  0
LINE
  5
110
100
AcDbEntity
  8
0
  6
ByLayer
 62
  256
370
   -1
100
AcDbLine
 10
83.8584
 20
8.54034
 11
83.6383
 21
8.66133
  0
LINE
  5
111
100
AcDbEntity
  8
0
  6
ByLayer
 62
  256
370
   -1
100
AcDbLine
 10
83.6383
 20
8.66133
 11
83.43519999999999
 21
8.808960000000001
  0
LINE
  5
112
100
AcDbEntity
  8
0
  6
ByLayer
 62
  256
370
   -1
100
AcDbLine
 10
83.43519999999999
 20
8.808960000000001
 11
83.2521
 21
8.9809
  0
LINE
  5
113
100
AcDbEntity
  8
0
  6
ByLayer
 62
  256
370
   -1
100
AcDbLine
 10
83.2521
 20
8.9809
 11
83.092
 21
9.17442
  0
LINE
  5
114
100
AcDbEntity
  8
0
  6
ByLayer
 62
  256
370
   -1
100
AcDbLine
 10
83.092
 20
9.17442
 11
82.95740000000001
 21
9.38649
  0
LINE
  5
115
100
AcDbEntity
  8
0
  6
ByLayer
 62
  256
370
   -1
100
AcDbLine
 10
82.95740000000001
 20
9.38649
 11
82.85039999999999
 21
9.61374
  0
LINE
  5
116
100
AcDbEntity
  8
0
  6
ByLayer
 62
  256
370
   -1
100
AcDbLine
 10
82.85039999999999
 20
9.61374
 11
82.7728
 21
9.85262
  0
LINE
  5
117
100
AcDbEntity
  8
0
  6
ByLayer
 62
  256
370
   -1
100
AcDbLine
 10
82.7728
 20
9.85262
 11
82.72580000000001
 21
10.0993
  0
LINE
  5
118
100
AcDbEntity
  8
0
  6
ByLayer
 62
  256
370
   -1
100
AcDbLine
 10
82.72580000000001
 20
10.0993
 11
82.70999999999999
 21
10.35
  0
LINE
  5
119
100
AcDbEntity
  8
0
  6
ByLayer
 62
  256
370
   -1
100
AcDbLine
 10
82.70999999999999
 20
10.35
 11
82.72580000000001
 21
10.6007
  0
LINE
  5
11A
100
AcDbEntity
  8
0
  6
ByLayer
 62
  256
370
   -1
100
AcDbLine
 10
82.72580000000001
 20
10.6007
 11
82.7728
 21
10.8474
  0
LINE
  5
11B
100
AcDbEntity
  8
0
  6
ByLayer
 62
  256
370
   -1
100
AcDbLine
 10
82.7728
 20
10.8474
 11
82.85039999999999
 21
11.0862
  0
LINE
  5
11C
100
AcDbEntity
  8
0
  6
ByLayer
 62
  256
370
   -1
100
AcDbLine
 10
82.85039999999999
 20
11.0862
 11
82.95740000000001
 21
11.3135
  0
LINE
  5
11D
100
AcDbEntity
  8
0
  6
ByLayer
 62
  256
370
   -1
100
AcDbLine
 10
82.95740000000001
 20
11.3135
 11
83.092
 21
11.5256
  0
LINE
  5
11E
100
AcDbEntity
  8
0
  6
ByLayer
 62
  256
370
   -1
100
AcDbLine
 10
83.092
 20
11.5256
 11
83.2521
 21
11.7191
  0
LINE
  5
11F
100
AcDbEntity
  8
0
  6
ByLayer
 62
  256
370
   -1
100
AcDbLine
 10
83.2521
 20
11.7191
 11
83.43519999999999
 21
11.891
  0
LINE
  5
120
100
AcDbEntity
  8
0
  6
ByLayer
 62
  256
370
   -1
100
AcDbLine
 10
83.43519999999999
 20
11.891
 11
83.6383
 21
12.0387
  0
LINE
  5
121
100
AcDbEntity
  8
0
  6
ByLayer
 62
  256
370
   -1
100
AcDbLine
 10
83.6383
 20
12.0387
 11
83.8584
 21
12.1597
  0
LINE
  5
122
100
AcDbEntity
  8
0
  6
ByLayer
 62
  256
370
   -1
100
AcDbLine
 10
83.8584
 20
12.1597
 11
84.092
 21
12.2521
  0
LINE
  5
123
100
AcDbEntity
  8
0
  6
ByLayer
 62
  256
370
   -1
100
AcDbLine
 10
84.092
 20
12.2521
 11
84.3352
 21
12.3146
  0
LINE
  5
124
100
AcDbEntity
  8
0
  6
ByLayer
 62
  256
370
   -1
100
AcDbLine
 10
84.3352
 20
12.3146
 11
84.5844
 21
12.346
  0
LINE
  5
125
100
AcDbEntity
  8
0
  6
ByLayer
 62
  256
370
   -1
100
AcDbLine
 10
84.5844
 20
12.346
 11
84.8356
 21
12.346
  0
LINE
  5
126
100
AcDbEntity
  8
0
  6
ByLayer
 62
  256
370
   -1
100
AcDbLine
 10
84.8356
 20
12.346
 11
85.0848
 21
12.3146
  0
LINE
  5
127
100
AcDbEntity
  8
0
  6
ByLayer
 62
  256
370
   -1
100
AcDbLine
 10
85.0848
 20
12.3146
 11
85.328
 21
12.2521
  0
LINE
  5
128
100
AcDbEntity
  8
0
  6
ByLayer
 62
  256
370
   -1
100
AcDbLine
 10
85.328
 20
12.2521
 11
85.5616
 21
12.1597
  0
LINE
  5
129
100
AcDbEntity
  8
0
  6
ByLayer
 62
  256
370
   -1
100
AcDbLine
 10
85.5616
 20
12.1597
 11
85.7816
 21
12.0387
  0
LINE
  5
12A
100
AcDbEntity
  8
0
  6
ByLayer
 62
  256
370
   -1
100
AcDbLine
 10
85.7816
 20
12.0387
 11
85.98480000000001
 21
11.891
  0
LINE
  5
12B
100
AcDbEntity
  8
0
  6
ByLayer
 62
  256
370
   -1
100
AcDbLine
 10
85.98480000000001
 20
11.891
 11
86.1679
 21
11.7191
  0
LINE
  5
12C
100
AcDbEntity
  8
0
  6
ByLayer
 62
  256
370
   -1
100
AcDbLine
 10
86.1679
 20
11.7191
 11
86.328
 21
11.5256
  0
LINE
  5
12D
100
AcDbEntity
  8
0
  6
ByLayer
 62
  256
370
   -1
100
AcDbLine
 10
86.328
 20
11.5256
 11
86.46259999999999
 21
11.3135
  0
LINE
  5
12E
100
AcDbEntity
  8
0
  6
ByLayer
 62
  256
370
   -1
100
AcDbLine
 10
86.46259999999999
 20
11.3135
 11
86.56950000000001
 21
11.0862
  0
LINE
  5
12F
100
AcDbEntity
  8
0
  6
ByLayer
 62
  256
370
   -1
100
AcDbLine
 10
86.56950000000001
 20
11.0862
 11
86.6472
 21
10.8474
  0
LINE
  5
130
100
AcDbEntity
  8
0
  6
ByLayer
 62
  256
370
   -1
100
AcDbLine
 10
86.6472
 20
10.8474
 11
86.6942
 21
10.6007
  0
LINE
  5
131
100
AcDbEntity
  8
0
  6
ByLayer
 62
  256
370
   -1
100
AcDbLine
 10
86.6942
 20
10.6007
 11
86.70999999999999
 21
10.35
  0
LINE
  5
132
100
AcDbEntity
  8
0
  6
ByLayer
 62
  256
370
   -1
100
AcDbLine
 10
86.70999999999999
 20
10.35
 11
86.6942
 21
10.0993
  0
LINE
  5
133
100
AcDbEntity
  8
0
  6
ByLayer
 62
  256
370
   -1
100
AcDbLine
 10
86.6942
 20
10.0993
 11
86.6472
 21
9.85262
  0
LINE
  5
134
100
AcDbEntity
  8
0
  6
ByLayer
 62
  256
370
   -1
100
AcDbLine
 10
86.6472
 20
9.85262
 11
86.56950000000001
 21
9.61374
  0
LINE
  5
135
100
AcDbEntity
  8
0
  6
ByLayer
 62
  256
370
   -1
100
AcDbLine
 10
86.56950000000001
 20
9.61374
 11
86.46259999999999
 21
9.38649
  0
LINE
  5
136
100
AcDbEntity
  8
0
  6
ByLayer
 62
  256
370
   -1
100
AcDbLine
 10
86.46259999999999
 20
9.38649
 11
86.328
 21
9.17442
  0
LINE
  5
137
100
AcDbEntity
  8
0
  6
ByLayer
 62
  256
370
   -1
100
AcDbLine
 10
86.328
 20
9.17442
 11
86.1679
 21
8.9809
  0
LINE
  5
138
100
AcDbEntity
  8
0
  6
ByLayer
 62
  256
370
   -1
100
AcDbLine
 10
86.1679
 20
8.9809
 11
85.98480000000001
 21
8.808960000000001
  0
LINE
  5
139
100
AcDbEntity
  8
0
  6
ByLayer
 62
  256
370
   -1
100
AcDbLine
 10
85.98480000000001
 20
8.808960000000001
 11
85.7816
 21
8.66133
  0
LINE
  5
13A
100
AcDbEntity
  8
0
  6
ByLayer
 62
  256
370
   -1
100
AcDbLine
 10
85.7816
 20
8.66133
 11
85.5616
 21
8.54034
  0
LINE
  5
13B
100
AcDbEntity
  8
0
  6
ByLayer
 62
  256
370
   -1
100
AcDbLine
 10
85.5616
 20
8.54034
 11
85.328
 21
8.44788
  0
LINE
  5
13C
100
AcDbEntity
  8
0
  6
ByLayer
 62
  256
370
   -1
100
AcDbLine
 10
85.328
 20
8.44788
 11
85.0848
 21
8.38542
  0
LINE
  5
13D
100
AcDbEntity
  8
0
  6
ByLayer
 62
  256
370
   -1
100
AcDbLine
 10
85.0848
 20
8.38542
 11
84.8356
 21
8.35394
  0
LINE
  5
13E
100
AcDbEntity
  8
0
  6
ByLayer
 62
  256
370
   -1
100
AcDbLine
 10
84.8356
 20
8.35394
 11
84.5844
 21
8.35394
  0
LINE
  5
13F
100
AcDbEntity
  8
0
  6
ByLayer
 62
  256
370
   -1
100
AcDbLine
 10
18.4844
 20
5.18394
 11
18.2352
 21
5.21542
  0
LINE
  5
140
100
AcDbEntity
  8
0
  6
ByLayer
 62
  256
370
   -1
100
AcDbLine
 10
18.2352
 20
5.21542
 11
17.992
 21
5.27788
  0
LINE
  5
141
100
AcDbEntity
  8
0
  6
ByLayer
 62
  256
370
   -1
100
AcDbLine
 10
17.992
 20
5.27788
 11
17.7584
 21
5.37035
  0
LINE
  5
142
100
AcDbEntity
  8
0
  6
ByLayer
 62
  256
370
   -1
100
AcDbLine
 10
17.7584
 20
5.37035
 11
17.5383
 21
5.49133
  0
LINE
  5
143
100
AcDbEntity
  8
0
  6
ByLayer
 62
  256
370
   -1
100
AcDbLine
 10
17.5383
 20
5.49133
 11
17.3351
 21
5.63896
  0
LINE
  5
144
100
AcDbEntity
  8
0
  6
ByLayer
 62
  256
370
   -1
100
AcDbLine
 10
17.3351
 20
5.63896
 11
17.1521
 21
5.8109
  0
LINE
  5
145
100
AcDbEntity
  8
0
  6
ByLayer
 62
  256
370
   -1
100
AcDbLine
 10
17.1521
 20
5.8109
 11
16.992
 21
6.00443
  0
LINE
  5
146
100
AcDbEntity
  8
0
  6
ByLayer
 62
  256
370
   -1
100
AcDbLine
 10
16.992
 20
6.00443
 11
16.8574
 21
6.21649
  0
LINE
  5
147
100
AcDbEntity
  8
0
  6
ByLayer
 62
  256
370
   -1
100
AcDbLine
 10
16.8574
 20
6.21649
 11
16.7504
 21
6.44374
  0
LINE
  5
148
100
AcDbEntity
  8
0
  6
ByLayer
 62
  256
370
   -1
100
AcDbLine
 10
16.7504
 20
6.44374
 11
16.6728
 21
6.68262
  0
LINE
  5
149
100
AcDbEntity
  8
0
  6
ByLayer
 62
  256
370
   -1
100
AcDbLine
 10
16.6728
 20
6.68262
 11
16.6258
 21
6.92932
  0
LINE
  5
14A
100
AcDbEntity
  8
0
  6
ByLayer
 62
  256
370
   -1
100
AcDbLine
 10
16.6258
 20
6.92932
 11
16.61
 21
7.17999
  0
LINE
  5
14B
100
AcDbEntity
  8
0
  6
ByLayer
 62
  256
370
   -1
100
AcDbLine
 10
16.61
 20
7.17999
 11
16.6258
 21
7.43066
  0
LINE
  5
14C
100
AcDbEntity
  8
0
  6
ByLayer
 62
  256
370
   -1
100
AcDbLine
 10
16.6258
 20
7.43066
 11
16.6728
 21
7.67737
  0
LINE
  5
14D
100
AcDbEntity
  8
0
  6
ByLayer
 62
  256
370
   -1
100
AcDbLine
 10
16.6728
 20
7.67737
 11
16.7504
 21
7.91624
  0
LINE
  5
14E
100
AcDbEntity
  8
0
  6
ByLayer
 62
  256
370
   -1
100
AcDbLine
 10
16.7504
 20
7.91624
 11
16.8574
 21
8.14349
  0
LINE
  5
14F
100
AcDbEntity
  8
0
  6
ByLayer
 62
  256
370
   -1
100
AcDbLine
 10
16.8574
 20
8.14349
 11
16.992
 21
8.355560000000001
  0
LINE
  5
150
100
AcDbEntity
  8
0
  6
ByLayer
 62
  256
370
   -1
100
AcDbLine
 10
16.992
 20
8.355560000000001
 11
17.1521
 21
8.54909
  0
LINE
  5
151
100
AcDbEntity
  8
0
  6
ByLayer
 62
  256
370
   -1
100
AcDbLine
 10
17.1521
 20
8.54909
 11
17.3351
 21
8.721019999999999
  0
LINE
  5
152
100
AcDbEntity
  8
0
  6
ByLayer
 62
  256
370
   -1
100
AcDbLine
 10
17.3351
 20
8.721019999999999
 11
17.5383
 21
8.868650000000001
  0
LINE
  5
153
100
AcDbEntity
  8
0
  6
ByLayer
 62
  256
370
   -1
100
AcDbLine
 10
17.5383
 20
8.868650000000001
 11
17.7584
 21
8.98964
  0
LINE
  5
154
100
AcDbEntity
  8
0
  6
ByLayer
 62
  256
370
   -1
100
AcDbLine
 10
17.7584
 20
8.98964
 11
17.992
 21
9.08211
  0
LINE
  5
155
100
AcDbEntity
  8
0
  6
ByLayer
 62
  256
370
   -1
100
AcDbLine
 10
17.992
 20
9.08211
 11
18.2352
 21
9.14456
  0
LINE
  5
156
100
AcDbEntity
  8
0
  6
ByLayer
 62
  256
370
   -1
100
AcDbLine
 10
18.2352
 20
9.14456
 11
18.4844
 21
9.17604
  0
LINE
  5
157
100
AcDbEntity
  8
0
  6
ByLayer
 62
  256
370
   -1
100
AcDbLine
 10
18.4844
 20
9.17604
 11
18.7356
 21
9.17604
  0
LINE
  5
158
100
AcDbEntity
  8
0
  6
ByLayer
 62
  256
370
   -1
100
AcDbLine
 10
18.7356
 20
9.17604
 11
18.9848
 21
9.14456
  0
LINE
  5
159
100
AcDbEntity
  8
0
  6
ByLayer
 62
  256
370
   -1
100
AcDbLine
 10
18.9848
 20
9.14456
 11
19.228
 21
9.08211
  0
LINE
  5
15A
100
AcDbEntity
  8
0
  6
ByLayer
 62
  256
370
   -1
100
AcDbLine
 10
19.228
 20
9.08211
 11
19.4615
 21
8.98964
  0
LINE
  5
15B
100
AcDbEntity
  8
0
  6
ByLayer
 62
  256
370
   -1
100
AcDbLine
 10
19.4615
 20
8.98964
 11
19.6816
 21
8.868650000000001
  0
LINE
  5
15C
100
AcDbEntity
  8
0
  6
ByLayer
 62
  256
370
   -1
100
AcDbLine
 10
19.6816
 20
8.868650000000001
 11
19.8848
 21
8.721019999999999
  0
LINE
  5
15D
100
AcDbEntity
  8
0
  6
ByLayer
 62
  256
370
   -1
100
AcDbLine
 10
19.8848
 20
8.721019999999999
 11
20.0679
 21
8.54909
  0
LINE
  5
15E
100
AcDbEntity
  8
0
  6
ByLayer
 62
  256
370
   -1
100
AcDbLine
 10
20.0679
 20
8.54909
 11
20.228
 21
8.355560000000001
  0
LINE
  5
15F
100
AcDbEntity
  8
0
  6
ByLayer
 62
  256
370
   -1
100
AcDbLine
 10
20.228
 20
8.355560000000001
 11
20.3626
 21
8.14349
  0
LINE
  5
160
100
AcDbEntity
  8
0
  6
ByLayer
 62
  256
370
   -1
100
AcDbLine
 10
20.3626
 20
8.14349
 11
20.4695
 21
7.91624
  0
LINE
  5
161
100
AcDbEntity
  8
0
  6
ByLayer
 62
  256
370
   -1
100
AcDbLine
 10
20.4695
 20
7.91624
 11
20.5472
 21
7.67737
  0
LINE
  5
162
100
AcDbEntity
  8
0
  6
ByLayer
 62
  256
370
   -1
100
AcDbLine
 10
20.5472
 20
7.67737
 11
20.5942
 21
7.43066
  0
LINE
  5
163
100
AcDbEntity
  8
0
  6
ByLayer
 62
  256
370
   -1
100
AcDbLine
 10
20.5942
 20
7.43066
 11
20.61
 21
7.17999
  0
LINE
  5
164
100
AcDbEntity
  8
0
  6
ByLayer
 62
  256
370
   -1
100
AcDbLine
 10
20.61
 20
7.17999
 11
20.5942
 21
6.92932
  0
LINE
  5
165
100
AcDbEntity
  8
0
  6
ByLayer
 62
  256
370
   -1
100
AcDbLine
 10
20.5942
 20
6.92932
 11
20.5472
 21
6.68262
  0
LINE
  5
166
100
AcDbEntity
  8
0
  6
ByLayer
 62
  256
370
   -1
100
AcDbLine
 10
20.5472
 20
6.68262
 11
20.4695
 21
6.44374
  0
LINE
  5
167
100
AcDbEntity
  8
0
  6
ByLayer
 62
  256
370
   -1
100
AcDbLine
 10
20.4695
 20
6.44374
 11
20.3626
 21
6.21649
  0
LINE
  5
168
100
AcDbEntity
  8
0
  6
ByLayer
 62
  256
370
   -1
100
AcDbLine
 10
20.3626
 20
6.21649
 11
20.228
 21
6.00443
  0
LINE
  5
169
100
AcDbEntity
  8
0
  6
ByLayer
 62
  256
370
   -1
100
AcDbLine
 10
20.228
 20
6.00443
 11
20.0679
 21
5.8109
  0
LINE
  5
16A
100
AcDbEntity
  8
0
  6
ByLayer
 62
  256
370
   -1
100
AcDbLine
 10
20.0679
 20
5.8109
 11
19.8848
 21
5.63896
  0
LINE
  5
16B
100
AcDbEntity
  8
0
  6
ByLayer
 62
  256
370
   -1
100
AcDbLine
 10
19.8848
 20
5.63896
 11
19.6816
 21
5.49133
  0
LINE
  5
16C
100
AcDbEntity
  8
0
  6
ByLayer
 62
  256
370
   -1
100
AcDbLine
 10
19.6816
 20
5.49133
 11
19.4615
 21
5.37035
  0
LINE
  5
16D
100
AcDbEntity
  8
0
  6
ByLayer
 62
  256
370
   -1
100
AcDbLine
 10
19.4615
 20
5.37035
 11
19.228
 21
5.27788
  0
LINE
  5
16E
100
AcDbEntity
  8
0
  6
ByLayer
 62
  256
370
   -1
100
AcDbLine
 10
19.228
 20
5.27788
 11
18.9848
 21
5.21542
  0
LINE
  5
16F
100
AcDbEntity
  8
0
  6
ByLayer
 62
  256
370
   -1
100
AcDbLine
 10
18.9848
 20
5.21542
 11
18.7356
 21
5.18394
  0
LINE
  5
170
100
AcDbEntity
  8
0
  6
ByLayer
 62
  256
370
   -1
100
AcDbLine
 10
18.7356
 20
5.18394
 11
18.4844
 21
5.18394
  0
LINE
  5
171
100
AcDbEntity
  8
0
  6
ByLayer
 62
  256
370
   -1
100
AcDbLine
 10
90.79209549999997
 20
64.42773075000002
 11
91.56409549999996
 21
64.62604875000002
  0
LINE
  5
172
100
AcDbEntity
  8
0
  6
ByLayer
 62
  256
370
   -1
100
AcDbLine
 10
91.56409549999996
 20
64.62604875000002
 11
92.30609549999996
 21
64.91959775000002
  0
LINE
  5
173
100
AcDbEntity
  8
0
  6
ByLayer
 62
  256
370
   -1
100
AcDbLine
 10
92.30609549999996
 20
64.91959775000002
 11
93.00409549999996
 21
65.30376775000003
  0
LINE
  5
174
100
AcDbEntity
  8
0
  6
ByLayer
 62
  256
370
   -1
100
AcDbLine
 10
93.00409549999996
 20
65.30376775000003
 11
93.65009549999995
 21
65.77248775000002
  0
LINE
  5
175
100
AcDbEntity
  8
0
  6
ByLayer
 62
  256
370
   -1
100
AcDbLine
 10
93.65009549999995
 20
65.77248775000002
 11
94.23109549999997
 21
66.31836775000004
  0
LINE
  5
176
100
AcDbEntity
  8
0
  6
ByLayer
 62
  256
370
   -1
100
AcDbLine
 10
94.23109549999997
 20
66.31836775000004
 11
94.73909549999995
 21
66.93280775000002
  0
LINE
  5
177
100
AcDbEntity
  8
0
  6
ByLayer
 62
  256
370
   -1
100
AcDbLine
 10
94.73909549999995
 20
66.93280775000002
 11
95.16709549999997
 21
67.60611775000002
  0
LINE
  5
178
100
AcDbEntity
  8
0
  6
ByLayer
 62
  256
370
   -1
100
AcDbLine
 10
95.16709549999997
 20
67.60611775000002
 11
95.50609549999997
 21
68.32766775000003
  0
LINE
  5
179
100
AcDbEntity
  8
0
  6
ByLayer
 62
  256
370
   -1
100
AcDbLine
 10
95.50609549999997
 20
68.32766775000003
 11
95.75209549999995
 21
69.08606775000003
  0
LINE
  5
17A
100
AcDbEntity
  8
0
  6
ByLayer
 62
  256
370
   -1
100
AcDbLine
 10
95.75209549999995
 20
69.08606775000003
 11
95.90209549999996
 21
69.86937775000003
  0
LINE
  5
17B
100
AcDbEntity
  8
0
  6
ByLayer
 62
  256
370
   -1
100
AcDbLine
 10
95.90209549999996
 20
69.86937775000003
 11
95.95209549999997
 21
70.66524775000003
  0
LINE
  5
17C
100
AcDbEntity
  8
0
  6
ByLayer
 62
  256
370
   -1
100
AcDbLine
 10
95.95209549999997
 20
70.66524775000003
 11
95.95209549999997
 21
77.81525775000003
  0
LINE
  5
17D
100
AcDbEntity
  8
0
  6
ByLayer
 62
  256
370
   -1
100
AcDbLine
 10
95.95209549999997
 20
77.81525775000003
 11
82.59209549999996
 21
77.81525775000003
  0
LINE
  5
17E
100
AcDbEntity
  8
0
  6
ByLayer
 62
  256
370
   -1
100
AcDbLine
 10
82.59209549999996
 20
77.81525775000003
 11
82.59209549999996
 21
68.31525775000003
  0
LINE
  5
17F
100
AcDbEntity
  8
0
  6
ByLayer
 62
  256
370
   -1
100
AcDbLine
 10
82.59209549999996
 20
68.31525775000003
 11
23.59209549999996
 21
68.31525775000003
  0
LINE
  5
180
100
AcDbEntity
  8
0
  6
ByLayer
 62
  256
370
   -1
100
AcDbLine
 10
23.59209549999996
 20
68.31525775000003
 11
23.59209549999996
 21
75.31525775000003
  0
LINE
  5
181
100
AcDbEntity
  8
0
  6
ByLayer
 62
  256
370
   -1
100
AcDbLine
 10
23.59209549999996
 20
75.31525775000003
 11
17.09209549999996
 21
75.31525775000003
  0
LINE
  5
182
100
AcDbEntity
  8
0
  6
ByLayer
 62
  256
370
   -1
100
AcDbLine
 10
17.09209549999996
 20
75.31525775000003
 11
17.09209549999996
 21
72.31523775000002
  0
LINE
  5
183
100
AcDbEntity
  8
0
  6
ByLayer
 62
  256
370
   -1
100
AcDbLine
 10
17.09209549999996
 20
72.31523775000002
 11
1.592095499999957
 21
72.31523775000002
  0
LINE
  5
184
100
AcDbEntity
  8
0
  6
ByLayer
 62
  256
370
   -1
100
AcDbLine
 10
1.592095499999957
 20
72.31523775000002
 11
1.592095499999957
 21
70.66524775000003
  0
LINE
  5
185
100
AcDbEntity
  8
0
  6
ByLayer
 62
  256
370
   -1
100
AcDbLine
 10
1.592095499999957
 20
70.66524775000003
 11
1.642095499999954
 21
69.86937775000003
  0
LINE
  5
186
100
AcDbEntity
  8
0
  6
ByLayer
 62
  256
370
   -1
100
AcDbLine
 10
1.642095499999954
 20
69.86937775000003
 11
1.791095499999955
 21
69.08606775000003
  0
LINE
  5
187
100
AcDbEntity
  8
0
  6
ByLayer
 62
  256
370
   -1
100
AcDbLine
 10
1.791095499999955
 20
69.08606775000003
 11
2.038095499999955
 21
68.32766775000003
  0
LINE
  5
188
100
AcDbEntity
  8
0
  6
ByLayer
 62
  256
370
   -1
100
AcDbLine
 10
2.038095499999955
 20
68.32766775000003
 11
2.377095499999953
 21
67.60611775000002
  0
LINE
  5
189
100
AcDbEntity
  8
0
  6
ByLayer
 62
  256
370
   -1
100
AcDbLine
 10
2.377095499999953
 20
67.60611775000002
 11
2.805095499999965
 21
66.93280775000002
  0
LINE
  5
18A
100
AcDbEntity
  8
0
  6
ByLayer
 62
  256
370
   -1
100
AcDbLine
 10
2.805095499999965
 20
66.93280775000002
 11
3.31309549999996
 21
66.31836775000004
  0
LINE
  5
18B
100
AcDbEntity
  8
0
  6
ByLayer
 62
  256
370
   -1
100
AcDbLine
 10
3.31309549999996
 20
66.31836775000004
 11
3.894095499999963
 21
65.77248775000002
  0
LINE
  5
18C
100
AcDbEntity
  8
0
  6
ByLayer
 62
  256
370
   -1
100
AcDbLine
 10
3.894095499999963
 20
65.77248775000002
 11
4.539095499999959
 21
65.30376775000003
  0
LINE
  5
18D
100
AcDbEntity
  8
0
  6
ByLayer
 62
  256
370
   -1
100
AcDbLine
 10
4.539095499999959
 20
65.30376775000003
 11
5.238095499999957
 21
64.91959775000002
  0
LINE
  5
18E
100
AcDbEntity
  8
0
  6
ByLayer
 62
  256
370
   -1
100
AcDbLine
 10
5.238095499999957
 20
64.91959775000002
 11
5.980095499999962
 21
64.62604875000002
  0
LINE
  5
18F
100
AcDbEntity
  8
0
  6
ByLayer
 62
  256
370
   -1
100
AcDbLine
 10
5.980095499999962
 20
64.62604875000002
 11
6.752095499999953
 21
64.42773075000002
  0
LINE
  5
190
100
AcDbEntity
  8
0
  6
ByLayer
 62
  256
370
   -1
100
AcDbLine
 10
6.752095499999953
 20
64.42773075000002
 11
7.543095499999964
 21
64.32778525000003
  0
LINE
  5
191
100
AcDbEntity
  8
0
  6
ByLayer
 62
  256
370
   -1
100
AcDbLine
 10
7.543095499999964
 20
64.32778525000003
 11
90.00109549999995
 21
64.32778525000003
  0
LINE
  5
192
100
AcDbEntity
  8
0
  6
ByLayer
 62
  256
370
   -1
100
AcDbLine
 10
90.00109549999995
 20
64.32778525000003
 11
90.79209549999997
 21
64.42773075000002
  0
LINE
  5
193
100
AcDbEntity
  8
0
  6
ByLayer
 62
  256
370
   -1
100
AcDbLine
 10
86.17609549999996
 20
72.66919775000002
 11
85.92709549999996
 21
72.70067775000003
  0
LINE
  5
194
100
AcDbEntity
  8
0
  6
ByLayer
 62
  256
370
   -1
100
AcDbLine
 10
85.92709549999996
 20
72.70067775000003
 11
85.68409549999997
 21
72.76313775000003
  0
LINE
  5
195
100
AcDbEntity
  8
0
  6
ByLayer
 62
  256
370
   -1
100
AcDbLine
 10
85.68409549999997
 20
72.76313775000003
 11
85.45009549999996
 21
72.85559775000003
  0
LINE
  5
196
100
AcDbEntity
  8
0
  6
ByLayer
 62
  256
370
   -1
100
AcDbLine
 10
85.45009549999996
 20
72.85559775000003
 11
85.23009549999996
 21
72.97658775000002
  0
LINE
  5
197
100
AcDbEntity
  8
0
  6
ByLayer
 62
  256
370
   -1
100
AcDbLine
 10
85.23009549999996
 20
72.97658775000002
 11
85.02709549999996
 21
73.12421775000003
  0
LINE
  5
198
100
AcDbEntity
  8
0
  6
ByLayer
 62
  256
370
   -1
100
AcDbLine
 10
85.02709549999996
 20
73.12421775000003
 11
84.84409549999997
 21
73.29615775000003
  0
LINE
  5
199
100
AcDbEntity
  8
0
  6
ByLayer
 62
  256
370
   -1
100
AcDbLine
 10
84.84409549999997
 20
73.29615775000003
 11
84.68409549999997
 21
73.48967775000003
  0
LINE
  5
19A
100
AcDbEntity
  8
0
  6
ByLayer
 62
  256
370
   -1
100
AcDbLine
 10
84.68409549999997
 20
73.48967775000003
 11
84.54909549999995
 21
73.70174775000002
  0
LINE
  5
19B
100
AcDbEntity
  8
0
  6
ByLayer
 62
  256
370
   -1
100
AcDbLine
 10
84.54909549999995
 20
73.70174775000002
 11
84.44209549999995
 21
73.92899775000004
  0
LINE
  5
19C
100
AcDbEntity
  8
0
  6
ByLayer
 62
  256
370
   -1
100
AcDbLine
 10
84.44209549999995
 20
73.92899775000004
 11
84.36509549999995
 21
74.16787775000003
  0
LINE
  5
19D
100
AcDbEntity
  8
0
  6
ByLayer
 62
  256
370
   -1
100
AcDbLine
 10
84.36509549999995
 20
74.16787775000003
 11
84.31809549999996
 21
74.41455775000003
  0
LINE
  5
19E
100
AcDbEntity
  8
0
  6
ByLayer
 62
  256
370
   -1
100
AcDbLine
 10
84.31809549999996
 20
74.41455775000003
 11
84.30209549999996
 21
74.66525775000002
  0
LINE
  5
19F
100
AcDbEntity
  8
0
  6
ByLayer
 62
  256
370
   -1
100
AcDbLine
 10
84.30209549999996
 20
74.66525775000002
 11
84.31809549999996
 21
74.91595775000003
  0
LINE
  5
1A0
100
AcDbEntity
  8
0
  6
ByLayer
 62
  256
370
   -1
100
AcDbLine
 10
84.31809549999996
 20
74.91595775000003
 11
84.36509549999995
 21
75.16265775000002
  0
LINE
  5
1A1
100
AcDbEntity
  8
0
  6
ByLayer
 62
  256
370
   -1
100
AcDbLine
 10
84.36509549999995
 20
75.16265775000002
 11
84.44209549999995
 21
75.40145775000003
  0
LINE
  5
1A2
100
AcDbEntity
  8
0
  6
ByLayer
 62
  256
370
   -1
100
AcDbLine
 10
84.44209549999995
 20
75.40145775000003
 11
84.54909549999995
 21
75.62875775000003
  0
LINE
  5
1A3
100
AcDbEntity
  8
0
  6
ByLayer
 62
  256
370
   -1
100
AcDbLine
 10
84.54909549999995
 20
75.62875775000003
 11
84.68409549999997
 21
75.84085775000003
  0
LINE
  5
1A4
100
AcDbEntity
  8
0
  6
ByLayer
 62
  256
370
   -1
100
AcDbLine
 10
84.68409549999997
 20
75.84085775000003
 11
84.84409549999997
 21
76.03435775000003
  0
LINE
  5
1A5
100
AcDbEntity
  8
0
  6
ByLayer
 62
  256
370
   -1
100
AcDbLine
 10
84.84409549999997
 20
76.03435775000003
 11
85.02709549999996
 21
76.20625775000003
  0
LINE
  5
1A6
100
AcDbEntity
  8
0
  6
ByLayer
 62
  256
370
   -1
100
AcDbLine
 10
85.02709549999996
 20
76.20625775000003
 11
85.23009549999996
 21
76.35395775000003
  0
LINE
  5
1A7
100
AcDbEntity
  8
0
  6
ByLayer
 62
  256
370
   -1
100
AcDbLine
 10
85.23009549999996
 20
76.35395775000003
 11
85.45009549999996
 21
76.47495775000003
  0
LINE
  5
1A8
100
AcDbEntity
  8
0
  6
ByLayer
 62
  256
370
   -1
100
AcDbLine
 10
85.45009549999996
 20
76.47495775000003
 11
85.68409549999997
 21
76.56735775000003
  0
LINE
  5
1A9
100
AcDbEntity
  8
0
  6
ByLayer
 62
  256
370
   -1
100
AcDbLine
 10
85.68409549999997
 20
76.56735775000003
 11
85.92709549999996
 21
76.62985775000003
  0
LINE
  5
1AA
100
AcDbEntity
  8
0
  6
ByLayer
 62
  256
370
   -1
100
AcDbLine
 10
85.92709549999996
 20
76.62985775000003
 11
86.17609549999996
 21
76.66125775000003
  0
LINE
  5
1AB
100
AcDbEntity
  8
0
  6
ByLayer
 62
  256
370
   -1
100
AcDbLine
 10
86.17609549999996
 20
76.66125775000003
 11
86.42809549999997
 21
76.66125775000003
  0
LINE
  5
1AC
100
AcDbEntity
  8
0
  6
ByLayer
 62
  256
370
   -1
100
AcDbLine
 10
86.42809549999997
 20
76.66125775000003
 11
86.67709549999996
 21
76.62985775000003
  0
LINE
  5
1AD
100
AcDbEntity
  8
0
  6
ByLayer
 62
  256
370
   -1
100
AcDbLine
 10
86.67709549999996
 20
76.62985775000003
 11
86.92009549999996
 21
76.56735775000003
  0
LINE
  5
1AE
100
AcDbEntity
  8
0
  6
ByLayer
 62
  256
370
   -1
100
AcDbLine
 10
86.92009549999996
 20
76.56735775000003
 11
87.15409549999997
 21
76.47495775000003
  0
LINE
  5
1AF
100
AcDbEntity
  8
0
  6
ByLayer
 62
  256
370
   -1
100
AcDbLine
 10
87.15409549999997
 20
76.47495775000003
 11
87.37409549999997
 21
76.35395775000003
  0
LINE
  5
1B0
100
AcDbEntity
  8
0
  6
ByLayer
 62
  256
370
   -1
100
AcDbLine
 10
87.37409549999997
 20
76.35395775000003
 11
87.57709549999997
 21
76.20625775000003
  0
LINE
  5
1B1
100
AcDbEntity
  8
0
  6
ByLayer
 62
  256
370
   -1
100
AcDbLine
 10
87.57709549999997
 20
76.20625775000003
 11
87.76009549999996
 21
76.03435775000003
  0
LINE
  5
1B2
100
AcDbEntity
  8
0
  6
ByLayer
 62
  256
370
   -1
100
AcDbLine
 10
87.76009549999996
 20
76.03435775000003
 11
87.92009549999996
 21
75.84085775000003
  0
LINE
  5
1B3
100
AcDbEntity
  8
0
  6
ByLayer
 62
  256
370
   -1
100
AcDbLine
 10
87.92009549999996
 20
75.84085775000003
 11
88.05509549999995
 21
75.62875775000003
  0
LINE
  5
1B4
100
AcDbEntity
  8
0
  6
ByLayer
 62
  256
370
   -1
100
AcDbLine
 10
88.05509549999995
 20
75.62875775000003
 11
88.16209549999995
 21
75.40145775000003
  0
LINE
  5
1B5
100
AcDbEntity
  8
0
  6
ByLayer
 62
  256
370
   -1
100
AcDbLine
 10
88.16209549999995
 20
75.40145775000003
 11
88.23909549999995
 21
75.16265775000002
  0
LINE
  5
1B6
100
AcDbEntity
  8
0
  6
ByLayer
 62
  256
370
   -1
100
AcDbLine
 10
88.23909549999995
 20
75.16265775000002
 11
88.28609549999997
 21
74.91595775000003
  0
LINE
  5
1B7
100
AcDbEntity
  8
0
  6
ByLayer
 62
  256
370
   -1
100
AcDbLine
 10
88.28609549999997
 20
74.91595775000003
 11
88.30209549999996
 21
74.66525775000002
  0
LINE
  5
1B8
100
AcDbEntity
  8
0
  6
ByLayer
 62
  256
370
   -1
100
AcDbLine
 10
88.30209549999996
 20
74.66525775000002
 11
88.28609549999997
 21
74.41455775000003
  0
LINE
  5
1B9
100
AcDbEntity
  8
0
  6
ByLayer
 62
  256
370
   -1
100
AcDbLine
 10
88.28609549999997
 20
74.41455775000003
 11
88.23909549999995
 21
74.16787775000003
  0
LINE
  5
1BA
100
AcDbEntity
  8
0
  6
ByLayer
 62
  256
370
   -1
100
AcDbLine
 10
88.23909549999995
 20
74.16787775000003
 11
88.16209549999995
 21
73.92899775000004
  0
LINE
  5
1BB
100
AcDbEntity
  8
0
  6
ByLayer
 62
  256
370
   -1
100
AcDbLine
 10
88.16209549999995
 20
73.92899775000004
 11
88.05509549999995
 21
73.70174775000002
  0
LINE
  5
1BC
100
AcDbEntity
  8
0
  6
ByLayer
 62
  256
370
   -1
100
AcDbLine
 10
88.05509549999995
 20
73.70174775000002
 11
87.92009549999996
 21
73.48967775000003
  0
LINE
  5
1BD
100
AcDbEntity
  8
0
  6
ByLayer
 62
  256
370
   -1
100
AcDbLine
 10
87.92009549999996
 20
73.48967775000003
 11
87.76009549999996
 21
73.29615775000003
  0
LINE
  5
1BE
100
AcDbEntity
  8
0
  6
ByLayer
 62
  256
370
   -1
100
AcDbLine
 10
87.76009549999996
 20
73.29615775000003
 11
87.57709549999997
 21
73.12421775000003
  0
LINE
  5
1BF
100
AcDbEntity
  8
0
  6
ByLayer
 62
  256
370
   -1
100
AcDbLine
 10
87.57709549999997
 20
73.12421775000003
 11
87.37409549999997
 21
72.97658775000002
  0
LINE
  5
1C0
100
AcDbEntity
  8
0
  6
ByLayer
 62
  256
370
   -1
100
AcDbLine
 10
87.37409549999997
 20
72.97658775000002
 11
87.15409549999997
 21
72.85559775000003
  0
LINE
  5
1C1
100
AcDbEntity
  8
0
  6
ByLayer
 62
  256
370
   -1
100
AcDbLine
 10
87.15409549999997
 20
72.85559775000003
 11
86.92009549999996
 21
72.76313775000003
  0
LINE
  5
1C2
100
AcDbEntity
  8
0
  6
ByLayer
 62
  256
370
   -1
100
AcDbLine
 10
86.92009549999996
 20
72.76313775000003
 11
86.67709549999996
 21
72.70067775000003
  0
LINE
  5
1C3
100
AcDbEntity
  8
0
  6
ByLayer
 62
  256
370
   -1
100
AcDbLine
 10
86.67709549999996
 20
72.70067775000003
 11
86.42809549999997
 21
72.66919775000002
  0
LINE
  5
1C4
100
AcDbEntity
  8
0
  6
ByLayer
 62
  256
370
   -1
100
AcDbLine
 10
86.42809549999997
 20
72.66919775000002
 11
86.17609549999996
 21
72.66919775000002
  0
LINE
  5
1C5
100
AcDbEntity
  8
0
  6
ByLayer
 62
  256
370
   -1
100
AcDbLine
 10
20.07609549999997
 20
69.49919775000004
 11
19.82709549999996
 21
69.53067775000002
  0
LINE
  5
1C6
100
AcDbEntity
  8
0
  6
ByLayer
 62
  256
370
   -1
100
AcDbLine
 10
19.82709549999996
 20
69.53067775000002
 11
19.58409549999996
 21
69.59313775000003
  0
LINE
  5
1C7
100
AcDbEntity
  8
0
  6
ByLayer
 62
  256
370
   -1
100
AcDbLine
 10
19.58409549999996
 20
69.59313775000003
 11
19.35009549999997
 21
69.68560775000003
  0
LINE
  5
1C8
100
AcDbEntity
  8
0
  6
ByLayer
 62
  256
370
   -1
100
AcDbLine
 10
19.35009549999997
 20
69.68560775000003
 11
19.13009549999995
 21
69.80658775000003
  0
LINE
  5
1C9
100
AcDbEntity
  8
0
  6
ByLayer
 62
  256
370
   -1
100
AcDbLine
 10
19.13009549999995
 20
69.80658775000003
 11
18.92709549999996
 21
69.95421775000003
  0
LINE
  5
1CA
100
AcDbEntity
  8
0
  6
ByLayer
 62
  256
370
   -1
100
AcDbLine
 10
18.92709549999996
 20
69.95421775000003
 11
18.74409549999996
 21
70.12615775000003
  0
LINE
  5
1CB
100
AcDbEntity
  8
0
  6
ByLayer
 62
  256
370
   -1
100
AcDbLine
 10
18.74409549999996
 20
70.12615775000003
 11
18.58409549999996
 21
70.31968775000003
  0
LINE
  5
1CC
100
AcDbEntity
  8
0
  6
ByLayer
 62
  256
370
   -1
100
AcDbLine
 10
18.58409549999996
 20
70.31968775000003
 11
18.44909549999996
 21
70.53174775000002
  0
LINE
  5
1CD
100
AcDbEntity
  8
0
  6
ByLayer
 62
  256
370
   -1
100
AcDbLine
 10
18.44909549999996
 20
70.53174775000002
 11
18.34209549999996
 21
70.75899775000003
  0
LINE
  5
1CE
100
AcDbEntity
  8
0
  6
ByLayer
 62
  256
370
   -1
100
AcDbLine
 10
18.34209549999996
 20
70.75899775000003
 11
18.26509549999996
 21
70.99787775000003
  0
LINE
  5
1CF
100
AcDbEntity
  8
0
  6
ByLayer
 62
  256
370
   -1
100
AcDbLine
 10
18.26509549999996
 20
70.99787775000003
 11
18.21809549999996
 21
71.24457775000003
  0
LINE
  5
1D0
100
AcDbEntity
  8
0
  6
ByLayer
 62
  256
370
   -1
100
AcDbLine
 10
18.21809549999996
 20
71.24457775000003
 11
18.20209549999996
 21
71.49524775000003
  0
LINE
  5
1D1
100
AcDbEntity
  8
0
  6
ByLayer
 62
  256
370
   -1
100
AcDbLine
 10
18.20209549999996
 20
71.49524775000003
 11
18.21809549999996
 21
71.74591775000003
  0
LINE
  5
1D2
100
AcDbEntity
  8
0
  6
ByLayer
 62
  256
370
   -1
100
AcDbLine
 10
18.21809549999996
 20
71.74591775000003
 11
18.26509549999996
 21
71.99262775000003
  0
LINE
  5
1D3
100
AcDbEntity
  8
0
  6
ByLayer
 62
  256
370
   -1
100
AcDbLine
 10
18.26509549999996
 20
71.99262775000003
 11
18.34209549999996
 21
72.23149775000003
  0
LINE
  5
1D4
100
AcDbEntity
  8
0
  6
ByLayer
 62
  256
370
   -1
100
AcDbLine
 10
18.34209549999996
 20
72.23149775000003
 11
18.44909549999996
 21
72.45874775000003
  0
LINE
  5
1D5
100
AcDbEntity
  8
0
  6
ByLayer
 62
  256
370
   -1
100
AcDbLine
 10
18.44909549999996
 20
72.45874775000003
 11
18.58409549999996
 21
72.67081775000003
  0
LINE
  5
1D6
100
AcDbEntity
  8
0
  6
ByLayer
 62
  256
370
   -1
100
AcDbLine
 10
18.58409549999996
 20
72.67081775000003
 11
18.74409549999996
 21
72.86434775000004
  0
LINE
  5
1D7
100
AcDbEntity
  8
0
  6
ByLayer
 62
  256
370
   -1
100
AcDbLine
 10
18.74409549999996
 20
72.86434775000004
 11
18.92709549999996
 21
73.03627775000002
  0
LINE
  5
1D8
100
AcDbEntity
  8
0
  6
ByLayer
 62
  256
370
   -1
100
AcDbLine
 10
18.92709549999996
 20
73.03627775000002
 11
19.13009549999995
 21
73.18390775000003
  0
LINE
  5
1D9
100
AcDbEntity
  8
0
  6
ByLayer
 62
  256
370
   -1
100
AcDbLine
 10
19.13009549999995
 20
73.18390775000003
 11
19.35009549999997
 21
73.30489775000002
  0
LINE
  5
1DA
100
AcDbEntity
  8
0
  6
ByLayer
 62
  256
370
   -1
100
AcDbLine
 10
19.35009549999997
 20
73.30489775000002
 11
19.58409549999996
 21
73.39736775000003
  0
LINE
  5
1DB
100
AcDbEntity
  8
0
  6
ByLayer
 62
  256
370
   -1
100
AcDbLine
 10
19.58409549999996
 20
73.39736775000003
 11
19.82709549999996
 21
73.45981775000003
  0
LINE
  5
1DC
100
AcDbEntity
  8
0
  6
ByLayer
 62
  256
370
   -1
100
AcDbLine
 10
19.82709549999996
 20
73.45981775000003
 11
20.07609549999997
 21
73.49129775000003
  0
LINE
  5
1DD
100
AcDbEntity
  8
0
  6
ByLayer
 62
  256
370
   -1
100
AcDbLine
 10
20.07609549999997
 20
73.49129775000003
 11
20.32809549999996
 21
73.49129775000003
  0
LINE
  5
1DE
100
AcDbEntity
  8
0
  6
ByLayer
 62
  256
370
   -1
100
AcDbLine
 10
20.32809549999996
 20
73.49129775000003
 11
20.57709549999996
 21
73.45981775000003
  0
LINE
  5
1DF
100
AcDbEntity
  8
0
  6
ByLayer
 62
  256
370
   -1
100
AcDbLine
 10
20.57709549999996
 20
73.45981775000003
 11
20.82009549999997
 21
73.39736775000003
  0
LINE
  5
1E0
100
AcDbEntity
  8
0
  6
ByLayer
 62
  256
370
   -1
100
AcDbLine
 10
20.82009549999997
 20
73.39736775000003
 11
21.05409549999996
 21
73.30489775000002
  0
LINE
  5
1E1
100
AcDbEntity
  8
0
  6
ByLayer
 62
  256
370
   -1
100
AcDbLine
 10
21.05409549999996
 20
73.30489775000002
 11
21.27409549999996
 21
73.18390775000003
  0
LINE
  5
1E2
100
AcDbEntity
  8
0
  6
ByLayer
 62
  256
370
   -1
100
AcDbLine
 10
21.27409549999996
 20
73.18390775000003
 11
21.47709549999996
 21
73.03627775000002
  0
LINE
  5
1E3
100
AcDbEntity
  8
0
  6
ByLayer
 62
  256
370
   -1
100
AcDbLine
 10
21.47709549999996
 20
73.03627775000002
 11
21.66009549999995
 21
72.86434775000004
  0
LINE
  5
1E4
100
AcDbEntity
  8
0
  6
ByLayer
 62
  256
370
   -1
100
AcDbLine
 10
21.66009549999995
 20
72.86434775000004
 11
21.82009549999997
 21
72.67081775000003
  0
LINE
  5
1E5
100
AcDbEntity
  8
0
  6
ByLayer
 62
  256
370
   -1
100
AcDbLine
 10
21.82009549999997
 20
72.67081775000003
 11
21.95509549999996
 21
72.45874775000003
  0
LINE
  5
1E6
100
AcDbEntity
  8
0
  6
ByLayer
 62
  256
370
   -1
100
AcDbLine
 10
21.95509549999996
 20
72.45874775000003
 11
22.06209549999996
 21
72.23149775000003
  0
LINE
  5
1E7
100
AcDbEntity
  8
0
  6
ByLayer
 62
  256
370
   -1
100
AcDbLine
 10
22.06209549999996
 20
72.23149775000003
 11
22.13909549999995
 21
71.99262775000003
  0
LINE
  5
1E8
100
AcDbEntity
  8
0
  6
ByLayer
 62
  256
370
   -1
100
AcDbLine
 10
22.13909549999995
 20
71.99262775000003
 11
22.18609549999996
 21
71.74591775000003
  0
LINE
  5
1E9
100
AcDbEntity
  8
0
  6
ByLayer
 62
  256
370
   -1
100
AcDbLine
 10
22.18609549999996
 20
71.74591775000003
 11
22.20209549999996
 21
71.49524775000003
  0
LINE
  5
1EA
100
AcDbEntity
  8
0
  6
ByLayer
 62
  256
370
   -1
100
AcDbLine
 10
22.20209549999996
 20
71.49524775000003
 11
22.18609549999996
 21
71.24457775000003
  0
LINE
  5
1EB
100
AcDbEntity
  8
0
  6
ByLayer
 62
  256
370
   -1
100
AcDbLine
 10
22.18609549999996
 20
71.24457775000003
 11
22.13909549999995
 21
70.99787775000003
  0
LINE
  5
1EC
100
AcDbEntity
  8
0
  6
ByLayer
 62
  256
370
   -1
100
AcDbLine
 10
22.13909549999995
 20
70.99787775000003
 11
22.06209549999996
 21
70.75899775000003
  0
LINE
  5
1ED
100
AcDbEntity
  8
0
  6
ByLayer
 62
  256
370
   -1
100
AcDbLine
 10
22.06209549999996
 20
70.75899775000003
 11
21.95509549999996
 21
70.53174775000002
  0
LINE
  5
1EE
100
AcDbEntity
  8
0
  6
ByLayer
 62
  256
370
   -1
100
AcDbLine
 10
21.95509549999996
 20
70.53174775000002
 11
21.82009549999997
 21
70.31968775000003
  0
LINE
  5
1EF
100
AcDbEntity
  8
0
  6
ByLayer
 62
  256
370
   -1
100
AcDbLine
 10
21.82009549999997
 20
70.31968775000003
 11
21.66009549999995
 21
70.12615775000003
  0
LINE
  5
1F0
100
AcDbEntity
  8
0
  6
ByLayer
 62
  256
370
   -1
100
AcDbLine
 10
21.66009549999995
 20
70.12615775000003
 11
21.47709549999996
 21
69.95421775000003
  0
LINE
  5
1F1
100
AcDbEntity
  8
0
  6
ByLayer
 62
  256
370
   -1
100
AcDbLine
 10
21.47709549999996
 20
69.95421775000003
 11
21.27409549999996
 21
69.80658775000003
  0
LINE
  5
1F2
100
AcDbEntity
  8
0
  6
ByLayer
 62
  256
370
   -1
100
AcDbLine
 10
21.27409549999996
 20
69.80658775000003
 11
21.05409549999996
 21
69.68560775000003
  0
LINE
  5
1F3
100
AcDbEntity
  8
0
  6
ByLayer
 62
  256
370
   -1
100
AcDbLine
 10
21.05409549999996
 20
69.68560775000003
 11
20.82009549999997
 21
69.59313775000003
  0
LINE
  5
1F4
100
AcDbEntity
  8
0
  6
ByLayer
 62
  256
370
   -1
100
AcDbLine
 10
20.82009549999997
 20
69.59313775000003
 11
20.57709549999996
 21
69.53067775000002
  0
LINE
  5
1F5
100
AcDbEntity
  8
0
  6
ByLayer
 62
  256
370
   -1
100
AcDbLine
 10
20.57709549999996
 20
69.53067775000002
 11
20.32809549999996
 21
69.49919775000004
  0
LINE
  5
1F6
100
AcDbEntity
  8
0
  6
ByLayer
 62
  256
370
   -1
100
AcDbLine
 10
20.32809549999996
 20
69.49919775000004
 11
20.07609549999997
 21
69.49919775000004
  0
LINE
  5
1F7
100
AcDbEntity
  8
0
  6
ByLayer
 62
  256
370
   -1
100
AcDbLine
 10
186.5799999999998
 20
0.3624730000000002
 11
187.3519999999997
 21
0.5607910000000003
  0
LINE
  5
1F8
100
AcDbEntity
  8
0
  6
ByLayer
 62
  256
370
   -1
100
AcDbLine
 10
187.3519999999997
 20
0.5607910000000003
 11
188.0939999999998
 21
0.8543400000000002
  0
LINE
  5
1F9
100
AcDbEntity
  8
0
  6
ByLayer
 62
  256
370
   -1
100
AcDbLine
 10
188.0939999999998
 20
0.8543400000000002
 11
188.7919999999997
 21
1.23851
  0
LINE
  5
1FA
100
AcDbEntity
  8
0
  6
ByLayer
 62
  256
370
   -1
100
AcDbLine
 10
188.7919999999997
 20
1.23851
 11
189.4379999999998
 21
1.70723
  0
LINE
  5
1FB
100
AcDbEntity
  8
0
  6
ByLayer
 62
  256
370
   -1
100
AcDbLine
 10
189.4379999999998
 20
1.70723
 11
190.0189999999998
 21
2.25311
  0
LINE
  5
1FC
100
AcDbEntity
  8
0
  6
ByLayer
 62
  256
370
   -1
100
AcDbLine
 10
190.0189999999998
 20
2.25311
 11
190.5269999999998
 21
2.86755
  0
LINE
  5
1FD
100
AcDbEntity
  8
0
  6
ByLayer
 62
  256
370
   -1
100
AcDbLine
 10
190.5269999999998
 20
2.86755
 11
190.9549999999998
 21
3.54086
  0
LINE
  5
1FE
100
AcDbEntity
  8
0
  6
ByLayer
 62
  256
370
   -1
100
AcDbLine
 10
190.9549999999998
 20
3.54086
 11
191.2939999999998
 21
4.26241
  0
LINE
  5
1FF
100
AcDbEntity
  8
0
  6
ByLayer
 62
  256
370
   -1
100
AcDbLine
 10
191.2939999999998
 20
4.26241
 11
191.5399999999998
 21
5.02081
  0
LINE
  5
200
100
AcDbEntity
  8
0
  6
ByLayer
 62
  256
370
   -1
100
AcDbLine
 10
191.5399999999998
 20
5.02081
 11
191.6899999999998
 21
5.80412
  0
LINE
  5
201
100
AcDbEntity
  8
0
  6
ByLayer
 62
  256
370
   -1
100
AcDbLine
 10
191.6899999999998
 20
5.80412
 11
191.7399999999998
 21
6.59999
  0
LINE
  5
202
100
AcDbEntity
  8
0
  6
ByLayer
 62
  256
370
   -1
100
AcDbLine
 10
191.7399999999998
 20
6.59999
 11
191.7399999999998
 21
23.25
  0
LINE
  5
203
100
AcDbEntity
  8
0
  6
ByLayer
 62
  256
370
   -1
100
AcDbLine
 10
191.7399999999998
 20
23.25
 11
179.7399999999998
 21
23.25
  0
LINE
  5
204
100
AcDbEntity
  8
0
  6
ByLayer
 62
  256
370
   -1
100
AcDbLine
 10
179.7399999999998
 20
23.25
 11
179.7399999999998
 21
34.25
  0
LINE
  5
205
100
AcDbEntity
  8
0
  6
ByLayer
 62
  256
370
   -1
100
AcDbLine
 10
179.7399999999998
 20
34.25
 11
187.7399999999998
 21
34.25
  0
LINE
  5
206
100
AcDbEntity
  8
0
  6
ByLayer
 62
  256
370
   -1
100
AcDbLine
 10
187.7399999999998
 20
34.25
 11
187.7399999999998
 21
49.75
  0
LINE
  5
207
100
AcDbEntity
  8
0
  6
ByLayer
 62
  256
370
   -1
100
AcDbLine
 10
187.7399999999998
 20
49.75
 11
191.7399999999998
 21
49.75
  0
LINE
  5
208
100
AcDbEntity
  8
0
  6
ByLayer
 62
  256
370
   -1
100
AcDbLine
 10
191.7399999999998
 20
49.75
 11
191.7399999999998
 21
56.51
  0
LINE
  5
209
100
AcDbEntity
  8
0
  6
ByLayer
 62
  256
370
   -1
100
AcDbLine
 10
191.7399999999998
 20
56.51
 11
191.6899999999998
 21
57.3059
  0
LINE
  5
20A
100
AcDbEntity
  8
0
  6
ByLayer
 62
  256
370
   -1
100
AcDbLine
 10
191.6899999999998
 20
57.3059
 11
191.5399999999998
 21
58.0892
  0
LINE
  5
20B
100
AcDbEntity
  8
0
  6
ByLayer
 62
  256
370
   -1
100
AcDbLine
 10
191.5399999999998
 20
58.0892
 11
191.2939999999998
 21
58.8476
  0
LINE
  5
20C
100
AcDbEntity
  8
0
  6
ByLayer
 62
  256
370
   -1
100
AcDbLine
 10
191.2939999999998
 20
58.8476
 11
190.9549999999998
 21
59.5691
  0
LINE
  5
20D
100
AcDbEntity
  8
0
  6
ByLayer
 62
  256
370
   -1
100
AcDbLine
 10
190.9549999999998
 20
59.5691
 11
190.5269999999998
 21
60.2424
  0
LINE
  5
20E
100
AcDbEntity
  8
0
  6
ByLayer
 62
  256
370
   -1
100
AcDbLine
 10
190.5269999999998
 20
60.2424
 11
190.0189999999998
 21
60.8569
  0
LINE
  5
20F
100
AcDbEntity
  8
0
  6
ByLayer
 62
  256
370
   -1
100
AcDbLine
 10
190.0189999999998
 20
60.8569
 11
189.4379999999998
 21
61.4028
  0
LINE
  5
210
100
AcDbEntity
  8
0
  6
ByLayer
 62
  256
370
   -1
100
AcDbLine
 10
189.4379999999998
 20
61.4028
 11
188.7919999999997
 21
61.8715
  0
LINE
  5
211
100
AcDbEntity
  8
0
  6
ByLayer
 62
  256
370
   -1
100
AcDbLine
 10
188.7919999999997
 20
61.8715
 11
188.0939999999998
 21
62.2556
  0
LINE
  5
212
100
AcDbEntity
  8
0
  6
ByLayer
 62
  256
370
   -1
100
AcDbLine
 10
188.0939999999998
 20
62.2556
 11
187.3519999999997
 21
62.5492
  0
LINE
  5
213
100
AcDbEntity
  8
0
  6
ByLayer
 62
  256
370
   -1
100
AcDbLine
 10
187.3519999999997
 20
62.5492
 11
186.5799999999998
 21
62.7475
  0
LINE
  5
214
100
AcDbEntity
  8
0
  6
ByLayer
 62
  256
370
   -1
100
AcDbLine
 10
186.5799999999998
 20
62.7475
 11
185.7889999999998
 21
62.8475
  0
LINE
  5
215
100
AcDbEntity
  8
0
  6
ByLayer
 62
  256
370
   -1
100
AcDbLine
 10
185.7889999999998
 20
62.8475
 11
103.3309999999998
 21
62.8475
  0
LINE
  5
216
100
AcDbEntity
  8
0
  6
ByLayer
 62
  256
370
   -1
100
AcDbLine
 10
103.3309999999998
 20
62.8475
 11
102.5399999999998
 21
62.7475
  0
LINE
  5
217
100
AcDbEntity
  8
0
  6
ByLayer
 62
  256
370
   -1
100
AcDbLine
 10
102.5399999999998
 20
62.7475
 11
101.7679999999997
 21
62.5492
  0
LINE
  5
218
100
AcDbEntity
  8
0
  6
ByLayer
 62
  256
370
   -1
100
AcDbLine
 10
101.7679999999997
 20
62.5492
 11
101.0259999999998
 21
62.2556
  0
LINE
  5
219
100
AcDbEntity
  8
0
  6
ByLayer
 62
  256
370
   -1
100
AcDbLine
 10
101.0259999999998
 20
62.2556
 11
100.3269999999998
 21
61.8715
  0
LINE
  5
21A
100
AcDbEntity
  8
0
  6
ByLayer
 62
  256
370
   -1
100
AcDbLine
 10
100.3269999999998
 20
61.8715
 11
99.68199999999979
 21
61.4028
  0
LINE
  5
21B
100
AcDbEntity
  8
0
  6
ByLayer
 62
  256
370
   -1
100
AcDbLine
 10
99.68199999999979
 20
61.4028
 11
99.10099999999977
 21
60.8569
  0
LINE
  5
21C
100
AcDbEntity
  8
0
  6
ByLayer
 62
  256
370
   -1
100
AcDbLine
 10
99.10099999999977
 20
60.8569
 11
98.59299999999979
 21
60.2424
  0
LINE
  5
21D
100
AcDbEntity
  8
0
  6
ByLayer
 62
  256
370
   -1
100
AcDbLine
 10
98.59299999999979
 20
60.2424
 11
98.16499999999979
 21
59.5691
  0
LINE
  5
21E
100
AcDbEntity
  8
0
  6
ByLayer
 62
  256
370
   -1
100
AcDbLine
 10
98.16499999999979
 20
59.5691
 11
97.82599999999979
 21
58.8476
  0
LINE
  5
21F
100
AcDbEntity
  8
0
  6
ByLayer
 62
  256
370
   -1
100
AcDbLine
 10
97.82599999999979
 20
58.8476
 11
97.57899999999978
 21
58.0892
  0
LINE
  5
220
100
AcDbEntity
  8
0
  6
ByLayer
 62
  256
370
   -1
100
AcDbLine
 10
97.57899999999978
 20
58.0892
 11
97.42999999999978
 21
57.3059
  0
LINE
  5
221
100
AcDbEntity
  8
0
  6
ByLayer
 62
  256
370
   -1
100
AcDbLine
 10
97.42999999999978
 20
57.3059
 11
97.37999999999977
 21
56.51
  0
LINE
  5
222
100
AcDbEntity
  8
0
  6
ByLayer
 62
  256
370
   -1
100
AcDbLine
 10
97.37999999999977
 20
56.51
 11
97.37999999999977
 21
54.25
  0
LINE
  5
223
100
AcDbEntity
  8
0
  6
ByLayer
 62
  256
370
   -1
100
AcDbLine
 10
97.37999999999977
 20
54.25
 11
110.3799999999998
 21
54.25
  0
LINE
  5
224
100
AcDbEntity
  8
0
  6
ByLayer
 62
  256
370
   -1
100
AcDbLine
 10
110.3799999999998
 20
54.25
 11
110.3799999999998
 21
42.25
  0
LINE
  5
225
100
AcDbEntity
  8
0
  6
ByLayer
 62
  256
370
   -1
100
AcDbLine
 10
110.3799999999998
 20
42.25
 11
97.37999999999977
 21
42.25
  0
LINE
  5
226
100
AcDbEntity
  8
0
  6
ByLayer
 62
  256
370
   -1
100
AcDbLine
 10
97.37999999999977
 20
42.25
 11
97.37999999999977
 21
6.59999
  0
LINE
  5
227
100
AcDbEntity
  8
0
  6
ByLayer
 62
  256
370
   -1
100
AcDbLine
 10
97.37999999999977
 20
6.59999
 11
97.42999999999978
 21
5.80412
  0
LINE
  5
228
100
AcDbEntity
  8
0
  6
ByLayer
 62
  256
370
   -1
100
AcDbLine
 10
97.42999999999978
 20
5.80412
 11
97.57899999999978
 21
5.02081
  0
LINE
  5
229
100
AcDbEntity
  8
0
  6
ByLayer
 62
  256
370
   -1
100
AcDbLine
 10
97.57899999999978
 20
5.02081
 11
97.82599999999979
 21
4.26241
  0
LINE
  5
22A
100
AcDbEntity
  8
0
  6
ByLayer
 62
  256
370
   -1
100
AcDbLine
 10
97.82599999999979
 20
4.26241
 11
98.16499999999979
 21
3.54086
  0
LINE
  5
22B
100
AcDbEntity
  8
0
  6
ByLayer
 62
  256
370
   -1
100
AcDbLine
 10
98.16499999999979
 20
3.54086
 11
98.59299999999979
 21
2.86755
  0
LINE
  5
22C
100
AcDbEntity
  8
0
  6
ByLayer
 62
  256
370
   -1
100
AcDbLine
 10
98.59299999999979
 20
2.86755
 11
99.10099999999977
 21
2.25311
  0
LINE
  5
22D
100
AcDbEntity
  8
0
  6
ByLayer
 62
  256
370
   -1
100
AcDbLine
 10
99.10099999999977
 20
2.25311
 11
99.68199999999979
 21
1.70723
  0
LINE
  5
22E
100
AcDbEntity
  8
0
  6
ByLayer
 62
  256
370
   -1
100
AcDbLine
 10
99.68199999999979
 20
1.70723
 11
100.3269999999998
 21
1.23851
  0
LINE
  5
22F
100
AcDbEntity
  8
0
  6
ByLayer
 62
  256
370
   -1
100
AcDbLine
 10
100.3269999999998
 20
1.23851
 11
101.0259999999998
 21
0.8543400000000002
  0
LINE
  5
230
100
AcDbEntity
  8
0
  6
ByLayer
 62
  256
370
   -1
100
AcDbLine
 10
101.0259999999998
 20
0.8543400000000002
 11
101.7679999999997
 21
0.5607910000000003
  0
LINE
  5
231
100
AcDbEntity
  8
0
  6
ByLayer
 62
  256
370
   -1
100
AcDbLine
 10
101.7679999999997
 20
0.5607910000000003
 11
102.5399999999998
 21
0.3624730000000002
  0
LINE
  5
232
100
AcDbEntity
  8
0
  6
ByLayer
 62
  256
370
   -1
100
AcDbLine
 10
102.5399999999998
 20
0.3624730000000002
 11
103.3309999999998
 21
0.2625275000000002
  0
LINE
  5
233
100
AcDbEntity
  8
0
  6
ByLayer
 62
  256
370
   -1
100
AcDbLine
 10
103.3309999999998
 20
0.2625275000000002
 11
185.7889999999998
 21
0.2625275000000002
  0
LINE
  5
234
100
AcDbEntity
  8
0
  6
ByLayer
 62
  256
370
   -1
100
AcDbLine
 10
185.7889999999998
 20
0.2625275000000002
 11
186.5799999999998
 21
0.3624730000000002
  0
LINE
  5
235
100
AcDbEntity
  8
0
  6
ByLayer
 62
  256
370
   -1
100
AcDbLine
 10
115.8639999999997
 20
53.8239
 11
115.6149999999998
 21
53.8554
  0
LINE
  5
236
100
AcDbEntity
  8
0
  6
ByLayer
 62
  256
370
   -1
100
AcDbLine
 10
115.6149999999998
 20
53.8554
 11
115.3719999999998
 21
53.9179
  0
LINE
  5
237
100
AcDbEntity
  8
0
  6
ByLayer
 62
  256
370
   -1
100
AcDbLine
 10
115.3719999999998
 20
53.9179
 11
115.1379999999997
 21
54.0103
  0
LINE
  5
238
100
AcDbEntity
  8
0
  6
ByLayer
 62
  256
370
   -1
100
AcDbLine
 10
115.1379999999997
 20
54.0103
 11
114.9179999999998
 21
54.1313
  0
LINE
  5
239
100
AcDbEntity
  8
0
  6
ByLayer
 62
  256
370
   -1
100
AcDbLine
 10
114.9179999999998
 20
54.1313
 11
114.7149999999997
 21
54.279
  0
LINE
  5
23A
100
AcDbEntity
  8
0
  6
ByLayer
 62
  256
370
   -1
100
AcDbLine
 10
114.7149999999997
 20
54.279
 11
114.5319999999998
 21
54.4509
  0
LINE
  5
23B
100
AcDbEntity
  8
0
  6
ByLayer
 62
  256
370
   -1
100
AcDbLine
 10
114.5319999999998
 20
54.4509
 11
114.3719999999998
 21
54.6444
  0
LINE
  5
23C
100
AcDbEntity
  8
0
  6
ByLayer
 62
  256
370
   -1
100
AcDbLine
 10
114.3719999999998
 20
54.6444
 11
114.2369999999998
 21
54.8565
  0
LINE
  5
23D
100
AcDbEntity
  8
0
  6
ByLayer
 62
  256
370
   -1
100
AcDbLine
 10
114.2369999999998
 20
54.8565
 11
114.1299999999998
 21
55.0837
  0
LINE
  5
23E
100
AcDbEntity
  8
0
  6
ByLayer
 62
  256
370
   -1
100
AcDbLine
 10
114.1299999999998
 20
55.0837
 11
114.0529999999998
 21
55.3226
  0
LINE
  5
23F
100
AcDbEntity
  8
0
  6
ByLayer
 62
  256
370
   -1
100
AcDbLine
 10
114.0529999999998
 20
55.3226
 11
114.0059999999997
 21
55.5693
  0
LINE
  5
240
100
AcDbEntity
  8
0
  6
ByLayer
 62
  256
370
   -1
100
AcDbLine
 10
114.0059999999997
 20
55.5693
 11
113.9899999999998
 21
55.82
  0
LINE
  5
241
100
AcDbEntity
  8
0
  6
ByLayer
 62
  256
370
   -1
100
AcDbLine
 10
113.9899999999998
 20
55.82
 11
114.0059999999997
 21
56.0707
  0
LINE
  5
242
100
AcDbEntity
  8
0
  6
ByLayer
 62
  256
370
   -1
100
AcDbLine
 10
114.0059999999997
 20
56.0707
 11
114.0529999999998
 21
56.3174
  0
LINE
  5
243
100
AcDbEntity
  8
0
  6
ByLayer
 62
  256
370
   -1
100
AcDbLine
 10
114.0529999999998
 20
56.3174
 11
114.1299999999998
 21
56.5562
  0
LINE
  5
244
100
AcDbEntity
  8
0
  6
ByLayer
 62
  256
370
   -1
100
AcDbLine
 10
114.1299999999998
 20
56.5562
 11
114.2369999999998
 21
56.7835
  0
LINE
  5
245
100
AcDbEntity
  8
0
  6
ByLayer
 62
  256
370
   -1
100
AcDbLine
 10
114.2369999999998
 20
56.7835
 11
114.3719999999998
 21
56.9956
  0
LINE
  5
246
100
AcDbEntity
  8
0
  6
ByLayer
 62
  256
370
   -1
100
AcDbLine
 10
114.3719999999998
 20
56.9956
 11
114.5319999999998
 21
57.1891
  0
LINE
  5
247
100
AcDbEntity
  8
0
  6
ByLayer
 62
  256
370
   -1
100
AcDbLine
 10
114.5319999999998
 20
57.1891
 11
114.7149999999997
 21
57.361
  0
LINE
  5
248
100
AcDbEntity
  8
0
  6
ByLayer
 62
  256
370
   -1
100
AcDbLine
 10
114.7149999999997
 20
57.361
 11
114.9179999999998
 21
57.5087
  0
LINE
  5
249
100
AcDbEntity
  8
0
  6
ByLayer
 62
  256
370
   -1
100
AcDbLine
 10
114.9179999999998
 20
57.5087
 11
115.1379999999997
 21
57.6297
  0
LINE
  5
24A
100
AcDbEntity
  8
0
  6
ByLayer
 62
  256
370
   -1
100
AcDbLine
 10
115.1379999999997
 20
57.6297
 11
115.3719999999998
 21
57.7221
  0
LINE
  5
24B
100
AcDbEntity
  8
0
  6
ByLayer
 62
  256
370
   -1
100
AcDbLine
 10
115.3719999999998
 20
57.7221
 11
115.6149999999998
 21
57.7846
  0
LINE
  5
24C
100
AcDbEntity
  8
0
  6
ByLayer
 62
  256
370
   -1
100
AcDbLine
 10
115.6149999999998
 20
57.7846
 11
115.8639999999997
 21
57.816
  0
LINE
  5
24D
100
AcDbEntity
  8
0
  6
ByLayer
 62
  256
370
   -1
100
AcDbLine
 10
115.8639999999997
 20
57.816
 11
116.1159999999998
 21
57.816
  0
LINE
  5
24E
100
AcDbEntity
  8
0
  6
ByLayer
 62
  256
370
   -1
100
AcDbLine
 10
116.1159999999998
 20
57.816
 11
116.3649999999998
 21
57.7846
  0
LINE
  5
24F
100
AcDbEntity
  8
0
  6
ByLayer
 62
  256
370
   -1
100
AcDbLine
 10
116.3649999999998
 20
57.7846
 11
116.6079999999998
 21
57.7221
  0
LINE
  5
250
100
AcDbEntity
  8
0
  6
ByLayer
 62
  256
370
   -1
100
AcDbLine
 10
116.6079999999998
 20
57.7221
 11
116.8419999999998
 21
57.6297
  0
LINE
  5
251
100
AcDbEntity
  8
0
  6
ByLayer
 62
  256
370
   -1
100
AcDbLine
 10
116.8419999999998
 20
57.6297
 11
117.0619999999998
 21
57.5087
  0
LINE
  5
252
100
AcDbEntity
  8
0
  6
ByLayer
 62
  256
370
   -1
100
AcDbLine
 10
117.0619999999998
 20
57.5087
 11
117.2649999999998
 21
57.361
  0
LINE
  5
253
100
AcDbEntity
  8
0
  6
ByLayer
 62
  256
370
   -1
100
AcDbLine
 10
117.2649999999998
 20
57.361
 11
117.4479999999998
 21
57.1891
  0
LINE
  5
254
100
AcDbEntity
  8
0
  6
ByLayer
 62
  256
370
   -1
100
AcDbLine
 10
117.4479999999998
 20
57.1891
 11
117.6079999999998
 21
56.9956
  0
LINE
  5
255
100
AcDbEntity
  8
0
  6
ByLayer
 62
  256
370
   -1
100
AcDbLine
 10
117.6079999999998
 20
56.9956
 11
117.7429999999998
 21
56.7835
  0
LINE
  5
256
100
AcDbEntity
  8
0
  6
ByLayer
 62
  256
370
   -1
100
AcDbLine
 10
117.7429999999998
 20
56.7835
 11
117.8499999999998
 21
56.5562
  0
LINE
  5
257
100
AcDbEntity
  8
0
  6
ByLayer
 62
  256
370
   -1
100
AcDbLine
 10
117.8499999999998
 20
56.5562
 11
117.9269999999998
 21
56.3174
  0
LINE
  5
258
100
AcDbEntity
  8
0
  6
ByLayer
 62
  256
370
   -1
100
AcDbLine
 10
117.9269999999998
 20
56.3174
 11
117.9739999999998
 21
56.0707
  0
LINE
  5
259
100
AcDbEntity
  8
0
  6
ByLayer
 62
  256
370
   -1
100
AcDbLine
 10
117.9739999999998
 20
56.0707
 11
117.9899999999998
 21
55.82
  0
LINE
  5
25A
100
AcDbEntity
  8
0
  6
ByLayer
 62
  256
370
   -1
100
AcDbLine
 10
117.9899999999998
 20
55.82
 11
117.9739999999998
 21
55.5693
  0
LINE
  5
25B
100
AcDbEntity
  8
0
  6
ByLayer
 62
  256
370
   -1
100
AcDbLine
 10
117.9739999999998
 20
55.5693
 11
117.9269999999998
 21
55.3226
  0
LINE
  5
25C
100
AcDbEntity
  8
0
  6
ByLayer
 62
  256
370
   -1
100
AcDbLine
 10
117.9269999999998
 20
55.3226
 11
117.8499999999998
 21
55.0837
  0
LINE
  5
25D
100
AcDbEntity
  8
0
  6
ByLayer
 62
  256
370
   -1
100
AcDbLine
 10
117.8499999999998
 20
55.0837
 11
117.7429999999998
 21
54.8565
  0
LINE
  5
25E
100
AcDbEntity
  8
0
  6
ByLayer
 62
  256
370
   -1
100
AcDbLine
 10
117.7429999999998
 20
54.8565
 11
117.6079999999998
 21
54.6444
  0
LINE
  5
25F
100
AcDbEntity
  8
0
  6
ByLayer
 62
  256
370
   -1
100
AcDbLine
 10
117.6079999999998
 20
54.6444
 11
117.4479999999998
 21
54.4509
  0
LINE
  5
260
100
AcDbEntity
  8
0
  6
ByLayer
 62
  256
370
   -1
100
AcDbLine
 10
117.4479999999998
 20
54.4509
 11
117.2649999999998
 21
54.279
  0
LINE
  5
261
100
AcDbEntity
  8
0
  6
ByLayer
 62
  256
370
   -1
100
AcDbLine
 10
117.2649999999998
 20
54.279
 11
117.0619999999998
 21
54.1313
  0
LINE
  5
262
100
AcDbEntity
  8
0
  6
ByLayer
 62
  256
370
   -1
100
AcDbLine
 10
117.0619999999998
 20
54.1313
 11
116.8419999999998
 21
54.0103
  0
LINE
  5
263
100
AcDbEntity
  8
0
  6
ByLayer
 62
  256
370
   -1
100
AcDbLine
 10
116.8419999999998
 20
54.0103
 11
116.6079999999998
 21
53.9179
  0
LINE
  5
264
100
AcDbEntity
  8
0
  6
ByLayer
 62
  256
370
   -1
100
AcDbLine
 10
116.6079999999998
 20
53.9179
 11
116.3649999999998
 21
53.8554
  0
LINE
  5
265
100
AcDbEntity
  8
0
  6
ByLayer
 62
  256
370
   -1
100
AcDbLine
 10
116.3649999999998
 20
53.8554
 11
116.1159999999998
 21
53.8239
  0
LINE
  5
266
100
AcDbEntity
  8
0
  6
ByLayer
 62
  256
370
   -1
100
AcDbLine
 10
116.1159999999998
 20
53.8239
 11
115.8639999999997
 21
53.8239
  0
LINE
  5
267
100
AcDbEntity
  8
0
  6
ByLayer
 62
  256
370
   -1
100
AcDbLine
 10
181.9639999999998
 20
50.5139
 11
181.7149999999997
 21
50.5454
  0
LINE
  5
268
100
AcDbEntity
  8
0
  6
ByLayer
 62
  256
370
   -1
100
AcDbLine
 10
181.7149999999997
 20
50.5454
 11
181.4719999999998
 21
50.6079
  0
LINE
  5
269
100
AcDbEntity
  8
0
  6
ByLayer
 62
  256
370
   -1
100
AcDbLine
 10
181.4719999999998
 20
50.6079
 11
181.2379999999998
 21
50.7003
  0
LINE
  5
26A
100
AcDbEntity
  8
0
  6
ByLayer
 62
  256
370
   -1
100
AcDbLine
 10
181.2379999999998
 20
50.7003
 11
181.0179999999997
 21
50.8213
  0
LINE
  5
26B
100
AcDbEntity
  8
0
  6
ByLayer
 62
  256
370
   -1
100
AcDbLine
 10
181.0179999999997
 20
50.8213
 11
180.8149999999998
 21
50.969
  0
LINE
  5
26C
100
AcDbEntity
  8
0
  6
ByLayer
 62
  256
370
   -1
100
AcDbLine
 10
180.8149999999998
 20
50.969
 11
180.6319999999998
 21
51.1409
  0
LINE
  5
26D
100
AcDbEntity
  8
0
  6
ByLayer
 62
  256
370
   -1
100
AcDbLine
 10
180.6319999999998
 20
51.1409
 11
180.4719999999998
 21
51.3344
  0
LINE
  5
26E
100
AcDbEntity
  8
0
  6
ByLayer
 62
  256
370
   -1
100
AcDbLine
 10
180.4719999999998
 20
51.3344
 11
180.3369999999998
 21
51.5465
  0
LINE
  5
26F
100
AcDbEntity
  8
0
  6
ByLayer
 62
  256
370
   -1
100
AcDbLine
 10
180.3369999999998
 20
51.5465
 11
180.2299999999998
 21
51.7737
  0
LINE
  5
270
100
AcDbEntity
  8
0
  6
ByLayer
 62
  256
370
   -1
100
AcDbLine
 10
180.2299999999998
 20
51.7737
 11
180.1529999999998
 21
52.0126
  0
LINE
  5
271
100
AcDbEntity
  8
0
  6
ByLayer
 62
  256
370
   -1
100
AcDbLine
 10
180.1529999999998
 20
52.0126
 11
180.1059999999998
 21
52.2593
  0
LINE
  5
272
100
AcDbEntity
  8
0
  6
ByLayer
 62
  256
370
   -1
100
AcDbLine
 10
180.1059999999998
 20
52.2593
 11
180.0899999999997
 21
52.51
  0
LINE
  5
273
100
AcDbEntity
  8
0
  6
ByLayer
 62
  256
370
   -1
100
AcDbLine
 10
180.0899999999997
 20
52.51
 11
180.1059999999998
 21
52.7607
  0
LINE
  5
274
100
AcDbEntity
  8
0
  6
ByLayer
 62
  256
370
   -1
100
AcDbLine
 10
180.1059999999998
 20
52.7607
 11
180.1529999999998
 21
53.0074
  0
LINE
  5
275
100
AcDbEntity
  8
0
  6
ByLayer
 62
  256
370
   -1
100
AcDbLine
 10
180.1529999999998
 20
53.0074
 11
180.2299999999998
 21
53.2462
  0
LINE
  5
276
100
AcDbEntity
  8
0
  6
ByLayer
 62
  256
370
   -1
100
AcDbLine
 10
180.2299999999998
 20
53.2462
 11
180.3369999999998
 21
53.4735
  0
LINE
  5
277
100
AcDbEntity
  8
0
  6
ByLayer
 62
  256
370
   -1
100
AcDbLine
 10
180.3369999999998
 20
53.4735
 11
180.4719999999998
 21
53.6856
  0
LINE
  5
278
100
AcDbEntity
  8
0
  6
ByLayer
 62
  256
370
   -1
100
AcDbLine
 10
180.4719999999998
 20
53.6856
 11
180.6319999999998
 21
53.8791
  0
LINE
  5
279
100
AcDbEntity
  8
0
  6
ByLayer
 62
  256
370
   -1
100
AcDbLine
 10
180.6319999999998
 20
53.8791
 11
180.8149999999998
 21
54.051
  0
LINE
  5
27A
100
AcDbEntity
  8
0
  6
ByLayer
 62
  256
370
   -1
100
AcDbLine
 10
180.8149999999998
 20
54.051
 11
181.0179999999997
 21
54.1987
  0
LINE
  5
27B
100
AcDbEntity
  8
0
  6
ByLayer
 62
  256
370
   -1
100
AcDbLine
 10
181.0179999999997
 20
54.1987
 11
181.2379999999998
 21
54.3196
  0
LINE
  5
27C
100
AcDbEntity
  8
0
  6
ByLayer
 62
  256
370
   -1
100
AcDbLine
 10
181.2379999999998
 20
54.3196
 11
181.4719999999998
 21
54.4121
  0
LINE
  5
27D
100
AcDbEntity
  8
0
  6
ByLayer
 62
  256
370
   -1
100
AcDbLine
 10
181.4719999999998
 20
54.4121
 11
181.7149999999997
 21
54.4746
  0
LINE
  5
27E
100
AcDbEntity
  8
0
  6
ByLayer
 62
  256
370
   -1
100
AcDbLine
 10
181.7149999999997
 20
54.4746
 11
181.9639999999998
 21
54.506
  0
LINE
  5
27F
100
AcDbEntity
  8
0
  6
ByLayer
 62
  256
370
   -1
100
AcDbLine
 10
181.9639999999998
 20
54.506
 11
182.2159999999998
 21
54.506
  0
LINE
  5
280
100
AcDbEntity
  8
0
  6
ByLayer
 62
  256
370
   -1
100
AcDbLine
 10
182.2159999999998
 20
54.506
 11
182.4649999999997
 21
54.4746
  0
LINE
  5
281
100
AcDbEntity
  8
0
  6
ByLayer
 62
  256
370
   -1
100
AcDbLine
 10
182.4649999999997
 20
54.4746
 11
182.7079999999998
 21
54.4121
  0
LINE
  5
282
100
AcDbEntity
  8
0
  6
ByLayer
 62
  256
370
   -1
100
AcDbLine
 10
182.7079999999998
 20
54.4121
 11
182.9419999999998
 21
54.3196
  0
LINE
  5
283
100
AcDbEntity
  8
0
  6
ByLayer
 62
  256
370
   -1
100
AcDbLine
 10
182.9419999999998
 20
54.3196
 11
183.1619999999998
 21
54.1987
  0
LINE
  5
284
100
AcDbEntity
  8
0
  6
ByLayer
 62
  256
370
   -1
100
AcDbLine
 10
183.1619999999998
 20
54.1987
 11
183.3649999999998
 21
54.051
  0
LINE
  5
285
100
AcDbEntity
  8
0
  6
ByLayer
 62
  256
370
   -1
100
AcDbLine
 10
183.3649999999998
 20
54.051
 11
183.5479999999998
 21
53.8791
  0
LINE
  5
286
100
AcDbEntity
  8
0
  6
ByLayer
 62
  256
370
   -1
100
AcDbLine
 10
183.5479999999998
 20
53.8791
 11
183.7079999999998
 21
53.6856
  0
LINE
  5
287
100
AcDbEntity
  8
0
  6
ByLayer
 62
  256
370
   -1
100
AcDbLine
 10
183.7079999999998
 20
53.6856
 11
183.8429999999998
 21
53.4735
  0
LINE
  5
288
100
AcDbEntity
  8
0
  6
ByLayer
 62
  256
370
   -1
100
AcDbLine
 10
183.8429999999998
 20
53.4735
 11
183.9499999999998
 21
53.2462
  0
LINE
  5
289
100
AcDbEntity
  8
0
  6
ByLayer
 62
  256
370
   -1
100
AcDbLine
 10
183.9499999999998
 20
53.2462
 11
184.0269999999998
 21
53.0074
  0
LINE
  5
28A
100
AcDbEntity
  8
0
  6
ByLayer
 62
  256
370
   -1
100
AcDbLine
 10
184.0269999999998
 20
53.0074
 11
184.0739999999998
 21
52.7607
  0
LINE
  5
28B
100
AcDbEntity
  8
0
  6
ByLayer
 62
  256
370
   -1
100
AcDbLine
 10
184.0739999999998
 20
52.7607
 11
184.0899999999997
 21
52.51
  0
LINE
  5
28C
100
AcDbEntity
  8
0
  6
ByLayer
 62
  256
370
   -1
100
AcDbLine
 10
184.0899999999997
 20
52.51
 11
184.0739999999998
 21
52.2593
  0
LINE
  5
28D
100
AcDbEntity
  8
0
  6
ByLayer
 62
  256
370
   -1
100
AcDbLine
 10
184.0739999999998
 20
52.2593
 11
184.0269999999998
 21
52.0126
  0
LINE
  5
28E
100
AcDbEntity
  8
0
  6
ByLayer
 62
  256
370
   -1
100
AcDbLine
 10
184.0269999999998
 20
52.0126
 11
183.9499999999998
 21
51.7737
  0
LINE
  5
28F
100
AcDbEntity
  8
0
  6
ByLayer
 62
  256
370
   -1
100
AcDbLine
 10
183.9499999999998
 20
51.7737
 11
183.8429999999998
 21
51.5465
  0
LINE
  5
290
100
AcDbEntity
  8
0
  6
ByLayer
 62
  256
370
   -1
100
AcDbLine
 10
183.8429999999998
 20
51.5465
 11
183.7079999999998
 21
51.3344
  0
LINE
  5
291
100
AcDbEntity
  8
0
  6
ByLayer
 62
  256
370
   -1
100
AcDbLine
 10
183.7079999999998
 20
51.3344
 11
183.5479999999998
 21
51.1409
  0
LINE
  5
292
100
AcDbEntity
  8
0
  6
ByLayer
 62
  256
370
   -1
100
AcDbLine
 10
183.5479999999998
 20
51.1409
 11
183.3649999999998
 21
50.969
  0
LINE
  5
293
100
AcDbEntity
  8
0
  6
ByLayer
 62
  256
370
   -1
100
AcDbLine
 10
183.3649999999998
 20
50.969
 11
183.1619999999998
 21
50.8213
  0
LINE
  5
294
100
AcDbEntity
  8
0
  6
ByLayer
 62
  256
370
   -1
100
AcDbLine
 10
183.1619999999998
 20
50.8213
 11
182.9419999999998
 21
50.7003
  0
LINE
  5
295
100
AcDbEntity
  8
0
  6
ByLayer
 62
  256
370
   -1
100
AcDbLine
 10
182.9419999999998
 20
50.7003
 11
182.7079999999998
 21
50.6079
  0
LINE
  5
296
100
AcDbEntity
  8
0
  6
ByLayer
 62
  256
370
   -1
100
AcDbLine
 10
182.7079999999998
 20
50.6079
 11
182.4649999999997
 21
50.5454
  0
LINE
  5
297
100
AcDbEntity
  8
0
  6
ByLayer
 62
  256
370
   -1
100
AcDbLine
 10
182.4649999999997
 20
50.5454
 11
182.2159999999998
 21
50.5139
  0
LINE
  5
298
100
AcDbEntity
  8
0
  6
ByLayer
 62
  256
370
   -1
100
AcDbLine
 10
182.2159999999998
 20
50.5139
 11
181.9639999999998
 21
50.5139
  0
LINE
  5
299
100
AcDbEntity
  8
0
  6
ByLayer
 62
  256
370
   -1
100
AcDbLine
 10
181.9639999999998
 20
8.60394
 11
181.7149999999997
 21
8.63542
  0
LINE
  5
29A
100
AcDbEntity
  8
0
  6
ByLayer
 62
  256
370
   -1
100
AcDbLine
 10
181.7149999999997
 20
8.63542
 11
181.4719999999998
 21
8.69788
  0
LINE
  5
29B
100
AcDbEntity
  8
0
  6
ByLayer
 62
  256
370
   -1
100
AcDbLine
 10
181.4719999999998
 20
8.69788
 11
181.2379999999998
 21
8.79034
  0
LINE
  5
29C
100
AcDbEntity
  8
0
  6
ByLayer
 62
  256
370
   -1
100
AcDbLine
 10
181.2379999999998
 20
8.79034
 11
181.0179999999997
 21
8.91133
  0
LINE
  5
29D
100
AcDbEntity
  8
0
  6
ByLayer
 62
  256
370
   -1
100
AcDbLine
 10
181.0179999999997
 20
8.91133
 11
180.8149999999998
 21
9.058960000000001
  0
LINE
  5
29E
100
AcDbEntity
  8
0
  6
ByLayer
 62
  256
370
   -1
100
AcDbLine
 10
180.8149999999998
 20
9.058960000000001
 11
180.6319999999998
 21
9.2309
  0
LINE
  5
29F
100
AcDbEntity
  8
0
  6
ByLayer
 62
  256
370
   -1
100
AcDbLine
 10
180.6319999999998
 20
9.2309
 11
180.4719999999998
 21
9.42442
  0
LINE
  5
2A0
100
AcDbEntity
  8
0
  6
ByLayer
 62
  256
370
   -1
100
AcDbLine
 10
180.4719999999998
 20
9.42442
 11
180.3369999999998
 21
9.63649
  0
LINE
  5
2A1
100
AcDbEntity
  8
0
  6
ByLayer
 62
  256
370
   -1
100
AcDbLine
 10
180.3369999999998
 20
9.63649
 11
180.2299999999998
 21
9.86374
  0
LINE
  5
2A2
100
AcDbEntity
  8
0
  6
ByLayer
 62
  256
370
   -1
100
AcDbLine
 10
180.2299999999998
 20
9.86374
 11
180.1529999999998
 21
10.10262
  0
LINE
  5
2A3
100
AcDbEntity
  8
0
  6
ByLayer
 62
  256
370
   -1
100
AcDbLine
 10
180.1529999999998
 20
10.10262
 11
180.1059999999998
 21
10.3493
  0
LINE
  5
2A4
100
AcDbEntity
  8
0
  6
ByLayer
 62
  256
370
   -1
100
AcDbLine
 10
180.1059999999998
 20
10.3493
 11
180.0899999999997
 21
10.6
  0
LINE
  5
2A5
100
AcDbEntity
  8
0
  6
ByLayer
 62
  256
370
   -1
100
AcDbLine
 10
180.0899999999997
 20
10.6
 11
180.1059999999998
 21
10.8507
  0
LINE
  5
2A6
100
AcDbEntity
  8
0
  6
ByLayer
 62
  256
370
   -1
100
AcDbLine
 10
180.1059999999998
 20
10.8507
 11
180.1529999999998
 21
11.0974
  0
LINE
  5
2A7
100
AcDbEntity
  8
0
  6
ByLayer
 62
  256
370
   -1
100
AcDbLine
 10
180.1529999999998
 20
11.0974
 11
180.2299999999998
 21
11.3362
  0
LINE
  5
2A8
100
AcDbEntity
  8
0
  6
ByLayer
 62
  256
370
   -1
100
AcDbLine
 10
180.2299999999998
 20
11.3362
 11
180.3369999999998
 21
11.5635
  0
LINE
  5
2A9
100
AcDbEntity
  8
0
  6
ByLayer
 62
  256
370
   -1
100
AcDbLine
 10
180.3369999999998
 20
11.5635
 11
180.4719999999998
 21
11.7756
  0
LINE
  5
2AA
100
AcDbEntity
  8
0
  6
ByLayer
 62
  256
370
   -1
100
AcDbLine
 10
180.4719999999998
 20
11.7756
 11
180.6319999999998
 21
11.9691
  0
LINE
  5
2AB
100
AcDbEntity
  8
0
  6
ByLayer
 62
  256
370
   -1
100
AcDbLine
 10
180.6319999999998
 20
11.9691
 11
180.8149999999998
 21
12.141
  0
LINE
  5
2AC
100
AcDbEntity
  8
0
  6
ByLayer
 62
  256
370
   -1
100
AcDbLine
 10
180.8149999999998
 20
12.141
 11
181.0179999999997
 21
12.2887
  0
LINE
  5
2AD
100
AcDbEntity
  8
0
  6
ByLayer
 62
  256
370
   -1
100
AcDbLine
 10
181.0179999999997
 20
12.2887
 11
181.2379999999998
 21
12.4097
  0
LINE
  5
2AE
100
AcDbEntity
  8
0
  6
ByLayer
 62
  256
370
   -1
100
AcDbLine
 10
181.2379999999998
 20
12.4097
 11
181.4719999999998
 21
12.5021
  0
LINE
  5
2AF
100
AcDbEntity
  8
0
  6
ByLayer
 62
  256
370
   -1
100
AcDbLine
 10
181.4719999999998
 20
12.5021
 11
181.7149999999997
 21
12.5646
  0
LINE
  5
2B0
100
AcDbEntity
  8
0
  6
ByLayer
 62
  256
370
   -1
100
AcDbLine
 10
181.7149999999997
 20
12.5646
 11
181.9639999999998
 21
12.596
  0
LINE
  5
2B1
100
AcDbEntity
  8
0
  6
ByLayer
 62
  256
370
   -1
100
AcDbLine
 10
181.9639999999998
 20
12.596
 11
182.2159999999998
 21
12.596
  0
LINE
  5
2B2
100
AcDbEntity
  8
0
  6
ByLayer
 62
  256
370
   -1
100
AcDbLine
 10
182.2159999999998
 20
12.596
 11
182.4649999999997
 21
12.5646
  0
LINE
  5
2B3
100
AcDbEntity
  8
0
  6
ByLayer
 62
  256
370
   -1
100
AcDbLine
 10
182.4649999999997
 20
12.5646
 11
182.7079999999998
 21
12.5021
  0
LINE
  5
2B4
100
AcDbEntity
  8
0
  6
ByLayer
 62
  256
370
   -1
100
AcDbLine
 10
182.7079999999998
 20
12.5021
 11
182.9419999999998
 21
12.4097
  0
LINE
  5
2B5
100
AcDbEntity
  8
0
  6
ByLayer
 62
  256
370
   -1
100
AcDbLine
 10
182.9419999999998
 20
12.4097
 11
183.1619999999998
 21
12.2887
  0
LINE
  5
2B6
100
AcDbEntity
  8
0
  6
ByLayer
 62
  256
370
   -1
100
AcDbLine
 10
183.1619999999998
 20
12.2887
 11
183.3649999999998
 21
12.141
  0
LINE
  5
2B7
100
AcDbEntity
  8
0
  6
ByLayer
 62
  256
370
   -1
100
AcDbLine
 10
183.3649999999998
 20
12.141
 11
183.5479999999998
 21
11.9691
  0
LINE
  5
2B8
100
AcDbEntity
  8
0
  6
ByLayer
 62
  256
370
   -1
100
AcDbLine
 10
183.5479999999998
 20
11.9691
 11
183.7079999999998
 21
11.7756
  0
LINE
  5
2B9
100
AcDbEntity
  8
0
  6
ByLayer
 62
  256
370
   -1
100
AcDbLine
 10
183.7079999999998
 20
11.7756
 11
183.8429999999998
 21
11.5635
  0
LINE
  5
2BA
100
AcDbEntity
  8
0
  6
ByLayer
 62
  256
370
   -1
100
AcDbLine
 10
183.8429999999998
 20
11.5635
 11
183.9499999999998
 21
11.3362
  0
LINE
  5
2BB
100
AcDbEntity
  8
0
  6
ByLayer
 62
  256
370
   -1
100
AcDbLine
 10
183.9499999999998
 20
11.3362
 11
184.0269999999998
 21
11.0974
  0
LINE
  5
2BC
100
AcDbEntity
  8
0
  6
ByLayer
 62
  256
370
   -1
100
AcDbLine
 10
184.0269999999998
 20
11.0974
 11
184.0739999999998
 21
10.8507
  0
LINE
  5
2BD
100
AcDbEntity
  8
0
  6
ByLayer
 62
  256
370
   -1
100
AcDbLine
 10
184.0739999999998
 20
10.8507
 11
184.0899999999997
 21
10.6
  0
LINE
  5
2BE
100
AcDbEntity
  8
0
  6
ByLayer
 62
  256
370
   -1
100
AcDbLine
 10
184.0899999999997
 20
10.6
 11
184.0739999999998
 21
10.3493
  0
LINE
  5
2BF
100
AcDbEntity
  8
0
  6
ByLayer
 62
  256
370
   -1
100
AcDbLine
 10
184.0739999999998
 20
10.3493
 11
184.0269999999998
 21
10.10262
  0
LINE
  5
2C0
100
AcDbEntity
  8
0
  6
ByLayer
 62
  256
370
   -1
100
AcDbLine
 10
184.0269999999998
 20
10.10262
 11
183.9499999999998
 21
9.86374
  0
LINE
  5
2C1
100
AcDbEntity
  8
0
  6
ByLayer
 62
  256
370
   -1
100
AcDbLine
 10
183.9499999999998
 20
9.86374
 11
183.8429999999998
 21
9.63649
  0
LINE
  5
2C2
100
AcDbEntity
  8
0
  6
ByLayer
 62
  256
370
   -1
100
AcDbLine
 10
183.8429999999998
 20
9.63649
 11
183.7079999999998
 21
9.42442
  0
LINE
  5
2C3
100
AcDbEntity
  8
0
  6
ByLayer
 62
  256
370
   -1
100
AcDbLine
 10
183.7079999999998
 20
9.42442
 11
183.5479999999998
 21
9.2309
  0
LINE
  5
2C4
100
AcDbEntity
  8
0
  6
ByLayer
 62
  256
370
   -1
100
AcDbLine
 10
183.5479999999998
 20
9.2309
 11
183.3649999999998
 21
9.058960000000001
  0
LINE
  5
2C5
100
AcDbEntity
  8
0
  6
ByLayer
 62
  256
370
   -1
100
AcDbLine
 10
183.3649999999998
 20
9.058960000000001
 11
183.1619999999998
 21
8.91133
  0
LINE
  5
2C6
100
AcDbEntity
  8
0
  6
ByLayer
 62
  256
370
   -1
100
AcDbLine
 10
183.1619999999998
 20
8.91133
 11
182.9419999999998
 21
8.79034
  0
LINE
  5
2C7
100
AcDbEntity
  8
0
  6
ByLayer
 62
  256
370
   -1
100
AcDbLine
 10
182.9419999999998
 20
8.79034
 11
182.7079999999998
 21
8.69788
  0
LINE
  5
2C8
100
AcDbEntity
  8
0
  6
ByLayer
 62
  256
370
   -1
100
AcDbLine
 10
182.7079999999998
 20
8.69788
 11
182.4649999999997
 21
8.63542
  0
LINE
  5
2C9
100
AcDbEntity
  8
0
  6
ByLayer
 62
  256
370
   -1
100
AcDbLine
 10
182.4649999999997
 20
8.63542
 11
182.2159999999998
 21
8.60394
  0
LINE
  5
2CA
100
AcDbEntity
  8
0
  6
ByLayer
 62
  256
370
   -1
100
AcDbLine
 10
182.2159999999998
 20
8.60394
 11
181.9639999999998
 21
8.60394
  0
LINE
  5
2CB
100
AcDbEntity
  8
0
  6
ByLayer
 62
  256
370
   -1
100
AcDbLine
 10
115.8639999999997
 20
5.43394
 11
115.6149999999998
 21
5.46542
  0
LINE
  5
2CC
100
AcDbEntity
  8
0
  6
ByLayer
 62
  256
370
   -1
100
AcDbLine
 10
115.6149999999998
 20
5.46542
 11
115.3719999999998
 21
5.52788
  0
LINE
  5
2CD
100
AcDbEntity
  8
0
  6
ByLayer
 62
  256
370
   -1
100
AcDbLine
 10
115.3719999999998
 20
5.52788
 11
115.1379999999997
 21
5.62035
  0
LINE
  5
2CE
100
AcDbEntity
  8
0
  6
ByLayer
 62
  256
370
   -1
100
AcDbLine
 10
115.1379999999997
 20
5.62035
 11
114.9179999999998
 21
5.74133
  0
LINE
  5
2CF
100
AcDbEntity
  8
0
  6
ByLayer
 62
  256
370
   -1
100
AcDbLine
 10
114.9179999999998
 20
5.74133
 11
114.7149999999997
 21
5.88896
  0
LINE
  5
2D0
100
AcDbEntity
  8
0
  6
ByLayer
 62
  256
370
   -1
100
AcDbLine
 10
114.7149999999997
 20
5.88896
 11
114.5319999999998
 21
6.0609
  0
LINE
  5
2D1
100
AcDbEntity
  8
0
  6
ByLayer
 62
  256
370
   -1
100
AcDbLine
 10
114.5319999999998
 20
6.0609
 11
114.3719999999998
 21
6.25443
  0
LINE
  5
2D2
100
AcDbEntity
  8
0
  6
ByLayer
 62
  256
370
   -1
100
AcDbLine
 10
114.3719999999998
 20
6.25443
 11
114.2369999999998
 21
6.46649
  0
LINE
  5
2D3
100
AcDbEntity
  8
0
  6
ByLayer
 62
  256
370
   -1
100
AcDbLine
 10
114.2369999999998
 20
6.46649
 11
114.1299999999998
 21
6.69374
  0
LINE
  5
2D4
100
AcDbEntity
  8
0
  6
ByLayer
 62
  256
370
   -1
100
AcDbLine
 10
114.1299999999998
 20
6.69374
 11
114.0529999999998
 21
6.93262
  0
LINE
  5
2D5
100
AcDbEntity
  8
0
  6
ByLayer
 62
  256
370
   -1
100
AcDbLine
 10
114.0529999999998
 20
6.93262
 11
114.0059999999997
 21
7.17932
  0
LINE
  5
2D6
100
AcDbEntity
  8
0
  6
ByLayer
 62
  256
370
   -1
100
AcDbLine
 10
114.0059999999997
 20
7.17932
 11
113.9899999999998
 21
7.42999
  0
LINE
  5
2D7
100
AcDbEntity
  8
0
  6
ByLayer
 62
  256
370
   -1
100
AcDbLine
 10
113.9899999999998
 20
7.42999
 11
114.0059999999997
 21
7.68066
  0
LINE
  5
2D8
100
AcDbEntity
  8
0
  6
ByLayer
 62
  256
370
   -1
100
AcDbLine
 10
114.0059999999997
 20
7.68066
 11
114.0529999999998
 21
7.92737
  0
LINE
  5
2D9
100
AcDbEntity
  8
0
  6
ByLayer
 62
  256
370
   -1
100
AcDbLine
 10
114.0529999999998
 20
7.92737
 11
114.1299999999998
 21
8.16624
  0
LINE
  5
2DA
100
AcDbEntity
  8
0
  6
ByLayer
 62
  256
370
   -1
100
AcDbLine
 10
114.1299999999998
 20
8.16624
 11
114.2369999999998
 21
8.39349
  0
LINE
  5
2DB
100
AcDbEntity
  8
0
  6
ByLayer
 62
  256
370
   -1
100
AcDbLine
 10
114.2369999999998
 20
8.39349
 11
114.3719999999998
 21
8.605560000000001
  0
LINE
  5
2DC
100
AcDbEntity
  8
0
  6
ByLayer
 62
  256
370
   -1
100
AcDbLine
 10
114.3719999999998
 20
8.605560000000001
 11
114.5319999999998
 21
8.79909
  0
LINE
  5
2DD
100
AcDbEntity
  8
0
  6
ByLayer
 62
  256
370
   -1
100
AcDbLine
 10
114.5319999999998
 20
8.79909
 11
114.7149999999997
 21
8.971019999999999
  0
LINE
  5
2DE
100
AcDbEntity
  8
0
  6
ByLayer
 62
  256
370
   -1
100
AcDbLine
 10
114.7149999999997
 20
8.971019999999999
 11
114.9179999999998
 21
9.118650000000001
  0
LINE
  5
2DF
100
AcDbEntity
  8
0
  6
ByLayer
 62
  256
370
   -1
100
AcDbLine
 10
114.9179999999998
 20
9.118650000000001
 11
115.1379999999997
 21
9.23964
  0
LINE
  5
2E0
100
AcDbEntity
  8
0
  6
ByLayer
 62
  256
370
   -1
100
AcDbLine
 10
115.1379999999997
 20
9.23964
 11
115.3719999999998
 21
9.33211
  0
LINE
  5
2E1
100
AcDbEntity
  8
0
  6
ByLayer
 62
  256
370
   -1
100
AcDbLine
 10
115.3719999999998
 20
9.33211
 11
115.6149999999998
 21
9.39456
  0
LINE
  5
2E2
100
AcDbEntity
  8
0
  6
ByLayer
 62
  256
370
   -1
100
AcDbLine
 10
115.6149999999998
 20
9.39456
 11
115.8639999999997
 21
9.42604
  0
LINE
  5
2E3
100
AcDbEntity
  8
0
  6
ByLayer
 62
  256
370
   -1
100
AcDbLine
 10
115.8639999999997
 20
9.42604
 11
116.1159999999998
 21
9.42604
  0
LINE
  5
2E4
100
AcDbEntity
  8
0
  6
ByLayer
 62
  256
370
   -1
100
AcDbLine
 10
116.1159999999998
 20
9.42604
 11
116.3649999999998
 21
9.39456
  0
LINE
  5
2E5
100
AcDbEntity
  8
0
  6
ByLayer
 62
  256
370
   -1
100
AcDbLine
 10
116.3649999999998
 20
9.39456
 11
116.6079999999998
 21
9.33211
  0
LINE
  5
2E6
100
AcDbEntity
  8
0
  6
ByLayer
 62
  256
370
   -1
100
AcDbLine
 10
116.6079999999998
 20
9.33211
 11
116.8419999999998
 21
9.23964
  0
LINE
  5
2E7
100
AcDbEntity
  8
0
  6
ByLayer
 62
  256
370
   -1
100
AcDbLine
 10
116.8419999999998
 20
9.23964
 11
117.0619999999998
 21
9.118650000000001
  0
LINE
  5
2E8
100
AcDbEntity
  8
0
  6
ByLayer
 62
  256
370
   -1
100
AcDbLine
 10
117.0619999999998
 20
9.118650000000001
 11
117.2649999999998
 21
8.971019999999999
  0
LINE
  5
2E9
100
AcDbEntity
  8
0
  6
ByLayer
 62
  256
370
   -1
100
AcDbLine
 10
117.2649999999998
 20
8.971019999999999
 11
117.4479999999998
 21
8.79909
  0
LINE
  5
2EA
100
AcDbEntity
  8
0
  6
ByLayer
 62
  256
370
   -1
100
AcDbLine
 10
117.4479999999998
 20
8.79909
 11
117.6079999999998
 21
8.605560000000001
  0
LINE
  5
2EB
100
AcDbEntity
  8
0
  6
ByLayer
 62
  256
370
   -1
100
AcDbLine
 10
117.6079999999998
 20
8.605560000000001
 11
117.7429999999998
 21
8.39349
  0
LINE
  5
2EC
100
AcDbEntity
  8
0
  6
ByLayer
 62
  256
370
   -1
100
AcDbLine
 10
117.7429999999998
 20
8.39349
 11
117.8499999999998
 21
8.16624
  0
LINE
  5
2ED
100
AcDbEntity
  8
0
  6
ByLayer
 62
  256
370
   -1
100
AcDbLine
 10
117.8499999999998
 20
8.16624
 11
117.9269999999998
 21
7.92737
  0
LINE
  5
2EE
100
AcDbEntity
  8
0
  6
ByLayer
 62
  256
370
   -1
100
AcDbLine
 10
117.9269999999998
 20
7.92737
 11
117.9739999999998
 21
7.68066
  0
LINE
  5
2EF
100
AcDbEntity
  8
0
  6
ByLayer
 62
  256
370
   -1
100
AcDbLine
 10
117.9739999999998
 20
7.68066
 11
117.9899999999998
 21
7.42999
  0
LINE
  5
2F0
100
AcDbEntity
  8
0
  6
ByLayer
 62
  256
370
   -1
100
AcDbLine
 10
117.9899999999998
 20
7.42999
 11
117.9739999999998
 21
7.17932
  0
LINE
  5
2F1
100
AcDbEntity
  8
0
  6
ByLayer
 62
  256
370
   -1
100
AcDbLine
 10
117.9739999999998
 20
7.17932
 11
117.9269999999998
 21
6.93262
  0
LINE
  5
2F2
100
AcDbEntity
  8
0
  6
ByLayer
 62
  256
370
   -1
100
AcDbLine
 10
117.9269999999998
 20
6.93262
 11
117.8499999999998
 21
6.69374
  0
LINE
  5
2F3
100
AcDbEntity
  8
0
  6
ByLayer
 62
  256
370
   -1
100
AcDbLine
 10
117.8499999999998
 20
6.69374
 11
117.7429999999998
 21
6.46649
  0
LINE
  5
2F4
100
AcDbEntity
  8
0
  6
ByLayer
 62
  256
370
   -1
100
AcDbLine
 10
117.7429999999998
 20
6.46649
 11
117.6079999999998
 21
6.25443
  0
LINE
  5
2F5
100
AcDbEntity
  8
0
  6
ByLayer
 62
  256
370
   -1
100
AcDbLine
 10
117.6079999999998
 20
6.25443
 11
117.4479999999998
 21
6.0609
  0
LINE
  5
2F6
100
AcDbEntity
  8
0
  6
ByLayer
 62
  256
370
   -1
100
AcDbLine
 10
117.4479999999998
 20
6.0609
 11
117.2649999999998
 21
5.88896
  0
LINE
  5
2F7
100
AcDbEntity
  8
0
  6
ByLayer
 62
  256
370
   -1
100
AcDbLine
 10
117.2649999999998
 20
5.88896
 11
117.0619999999998
 21
5.74133
  0
LINE
  5
2F8
100
AcDbEntity
  8
0
  6
ByLayer
 62
  256
370
   -1
100
AcDbLine
 10
117.0619999999998
 20
5.74133
 11
116.8419999999998
 21
5.62035
  0
LINE
  5
2F9
100
AcDbEntity
  8
0
  6
ByLayer
 62
  256
370
   -1
100
AcDbLine
 10
116.8419999999998
 20
5.62035
 11
116.6079999999998
 21
5.52788
  0
LINE
  5
2FA
100
AcDbEntity
  8
0
  6
ByLayer
 62
  256
370
   -1
100
AcDbLine
 10
116.6079999999998
 20
5.52788
 11
116.3649999999998
 21
5.46542
  0
LINE
  5
2FB
100
AcDbEntity
  8
0
  6
ByLayer
 62
  256
370
   -1
100
AcDbLine
 10
116.3649999999998
 20
5.46542
 11
116.1159999999998
 21
5.43394
  0
LINE
  5
2FC
100
AcDbEntity
  8
0
  6
ByLayer
 62
  256
370
   -1
100
AcDbLine
 10
116.1159999999998
 20
5.43394
 11
115.8639999999997
 21
5.43394
  0
LINE
  5
2FD
100
AcDbEntity
  8
0
  6
ByLayer
 62
  256
370
   -1
100
AcDbLine
 10
188.0139814659544
 20
64.42844669697369
 11
188.7859814659544
 21
64.62676469697369
  0
LINE
  5
2FE
100
AcDbEntity
  8
0
  6
ByLayer
 62
  256
370
   -1
100
AcDbLine
 10
188.7859814659544
 20
64.62676469697369
 11
189.5279814659544
 21
64.92031369697369
  0
LINE
  5
2FF
100
AcDbEntity
  8
0
  6
ByLayer
 62
  256
370
   -1
100
AcDbLine
 10
189.5279814659544
 20
64.92031369697369
 11
190.2259814659544
 21
65.3044836969737
  0
LINE
  5
300
100
AcDbEntity
  8
0
  6
ByLayer
 62
  256
370
   -1
100
AcDbLine
 10
190.2259814659544
 20
65.3044836969737
 11
190.8719814659544
 21
65.7732036969737
  0
LINE
  5
301
100
AcDbEntity
  8
0
  6
ByLayer
 62
  256
370
   -1
100
AcDbLine
 10
190.8719814659544
 20
65.7732036969737
 11
191.4529814659544
 21
66.31908369697371
  0
LINE
  5
302
100
AcDbEntity
  8
0
  6
ByLayer
 62
  256
370
   -1
100
AcDbLine
 10
191.4529814659544
 20
66.31908369697371
 11
191.9609814659544
 21
66.93352369697369
  0
LINE
  5
303
100
AcDbEntity
  8
0
  6
ByLayer
 62
  256
370
   -1
100
AcDbLine
 10
191.9609814659544
 20
66.93352369697369
 11
192.3889814659544
 21
67.60683369697369
  0
LINE
  5
304
100
AcDbEntity
  8
0
  6
ByLayer
 62
  256
370
   -1
100
AcDbLine
 10
192.3889814659544
 20
67.60683369697369
 11
192.7279814659544
 21
68.3283836969737
  0
LINE
  5
305
100
AcDbEntity
  8
0
  6
ByLayer
 62
  256
370
   -1
100
AcDbLine
 10
192.7279814659544
 20
68.3283836969737
 11
192.9739814659544
 21
69.0867836969737
  0
LINE
  5
306
100
AcDbEntity
  8
0
  6
ByLayer
 62
  256
370
   -1
100
AcDbLine
 10
192.9739814659544
 20
69.0867836969737
 11
193.1239814659544
 21
69.8700936969737
  0
LINE
  5
307
100
AcDbEntity
  8
0
  6
ByLayer
 62
  256
370
   -1
100
AcDbLine
 10
193.1239814659544
 20
69.8700936969737
 11
193.1739814659544
 21
70.66596369697371
  0
LINE
  5
308
100
AcDbEntity
  8
0
  6
ByLayer
 62
  256
370
   -1
100
AcDbLine
 10
193.1739814659544
 20
70.66596369697371
 11
193.1739814659544
 21
77.8159736969737
  0
LINE
  5
309
100
AcDbEntity
  8
0
  6
ByLayer
 62
  256
370
   -1
100
AcDbLine
 10
193.1739814659544
 20
77.8159736969737
 11
179.8139814659544
 21
77.8159736969737
  0
LINE
  5
30A
100
AcDbEntity
  8
0
  6
ByLayer
 62
  256
370
   -1
100
AcDbLine
 10
179.8139814659544
 20
77.8159736969737
 11
179.8139814659544
 21
68.3159736969737
  0
LINE
  5
30B
100
AcDbEntity
  8
0
  6
ByLayer
 62
  256
370
   -1
100
AcDbLine
 10
179.8139814659544
 20
68.3159736969737
 11
120.8139814659544
 21
68.3159736969737
  0
LINE
  5
30C
100
AcDbEntity
  8
0
  6
ByLayer
 62
  256
370
   -1
100
AcDbLine
 10
120.8139814659544
 20
68.3159736969737
 11
120.8139814659544
 21
75.3159736969737
  0
LINE
  5
30D
100
AcDbEntity
  8
0
  6
ByLayer
 62
  256
370
   -1
100
AcDbLine
 10
120.8139814659544
 20
75.3159736969737
 11
114.3139814659544
 21
75.3159736969737
  0
LINE
  5
30E
100
AcDbEntity
  8
0
  6
ByLayer
 62
  256
370
   -1
100
AcDbLine
 10
114.3139814659544
 20
75.3159736969737
 11
114.3139814659544
 21
72.31595369697369
  0
LINE
  5
30F
100
AcDbEntity
  8
0
  6
ByLayer
 62
  256
370
   -1
100
AcDbLine
 10
114.3139814659544
 20
72.31595369697369
 11
98.81398146595441
 21
72.31595369697369
  0
LINE
  5
310
100
AcDbEntity
  8
0
  6
ByLayer
 62
  256
370
   -1
100
AcDbLine
 10
98.81398146595441
 20
72.31595369697369
 11
98.81398146595441
 21
70.66596369697371
  0
LINE
  5
311
100
AcDbEntity
  8
0
  6
ByLayer
 62
  256
370
   -1
100
AcDbLine
 10
98.81398146595441
 20
70.66596369697371
 11
98.8639814659544
 21
69.8700936969737
  0
LINE
  5
312
100
AcDbEntity
  8
0
  6
ByLayer
 62
  256
370
   -1
100
AcDbLine
 10
98.8639814659544
 20
69.8700936969737
 11
99.0129814659544
 21
69.0867836969737
  0
LINE
  5
313
100
AcDbEntity
  8
0
  6
ByLayer
 62
  256
370
   -1
100
AcDbLine
 10
99.0129814659544
 20
69.0867836969737
 11
99.25998146595441
 21
68.3283836969737
  0
LINE
  5
314
100
AcDbEntity
  8
0
  6
ByLayer
 62
  256
370
   -1
100
AcDbLine
 10
99.25998146595441
 20
68.3283836969737
 11
99.59898146595441
 21
67.60683369697369
  0
LINE
  5
315
100
AcDbEntity
  8
0
  6
ByLayer
 62
  256
370
   -1
100
AcDbLine
 10
99.59898146595441
 20
67.60683369697369
 11
100.0269814659544
 21
66.93352369697369
  0
LINE
  5
316
100
AcDbEntity
  8
0
  6
ByLayer
 62
  256
370
   -1
100
AcDbLine
 10
100.0269814659544
 20
66.93352369697369
 11
100.5349814659544
 21
66.31908369697371
  0
LINE
  5
317
100
AcDbEntity
  8
0
  6
ByLayer
 62
  256
370
   -1
100
AcDbLine
 10
100.5349814659544
 20
66.31908369697371
 11
101.1159814659544
 21
65.7732036969737
  0
LINE
  5
318
100
AcDbEntity
  8
0
  6
ByLayer
 62
  256
370
   -1
100
AcDbLine
 10
101.1159814659544
 20
65.7732036969737
 11
101.7609814659544
 21
65.3044836969737
  0
LINE
  5
319
100
AcDbEntity
  8
0
  6
ByLayer
 62
  256
370
   -1
100
AcDbLine
 10
101.7609814659544
 20
65.3044836969737
 11
102.4599814659544
 21
64.92031369697369
  0
LINE
  5
31A
100
AcDbEntity
  8
0
  6
ByLayer
 62
  256
370
   -1
100
AcDbLine
 10
102.4599814659544
 20
64.92031369697369
 11
103.2019814659544
 21
64.62676469697369
  0
LINE
  5
31B
100
AcDbEntity
  8
0
  6
ByLayer
 62
  256
370
   -1
100
AcDbLine
 10
103.2019814659544
 20
64.62676469697369
 11
103.9739814659544
 21
64.42844669697369
  0
LINE
  5
31C
100
AcDbEntity
  8
0
  6
ByLayer
 62
  256
370
   -1
100
AcDbLine
 10
103.9739814659544
 20
64.42844669697369
 11
104.7649814659544
 21
64.3285011969737
  0
LINE
  5
31D
100
AcDbEntity
  8
0
  6
ByLayer
 62
  256
370
   -1
100
AcDbLine
 10
104.7649814659544
 20
64.3285011969737
 11
187.2229814659544
 21
64.3285011969737
  0
LINE
  5
31E
100
AcDbEntity
  8
0
  6
ByLayer
 62
  256
370
   -1
100
AcDbLine
 10
187.2229814659544
 20
64.3285011969737
 11
188.0139814659544
 21
64.42844669697369
  0
LINE
  5
31F
100
AcDbEntity
  8
0
  6
ByLayer
 62
  256
370
   -1
100
AcDbLine
 10
183.3979814659544
 20
72.66991369697369
 11
183.1489814659544
 21
72.7013936969737
  0
LINE
  5
320
100
AcDbEntity
  8
0
  6
ByLayer
 62
  256
370
   -1
100
AcDbLine
 10
183.1489814659544
 20
72.7013936969737
 11
182.9059814659544
 21
72.7638536969737
  0
LINE
  5
321
100
AcDbEntity
  8
0
  6
ByLayer
 62
  256
370
   -1
100
AcDbLine
 10
182.9059814659544
 20
72.7638536969737
 11
182.6719814659544
 21
72.8563136969737
  0
LINE
  5
322
100
AcDbEntity
  8
0
  6
ByLayer
 62
  256
370
   -1
100
AcDbLine
 10
182.6719814659544
 20
72.8563136969737
 11
182.4519814659544
 21
72.97730369697369
  0
LINE
  5
323
100
AcDbEntity
  8
0
  6
ByLayer
 62
  256
370
   -1
100
AcDbLine
 10
182.4519814659544
 20
72.97730369697369
 11
182.2489814659544
 21
73.1249336969737
  0
LINE
  5
324
100
AcDbEntity
  8
0
  6
ByLayer
 62
  256
370
   -1
100
AcDbLine
 10
182.2489814659544
 20
73.1249336969737
 11
182.0659814659544
 21
73.29687369697371
  0
LINE
  5
325
100
AcDbEntity
  8
0
  6
ByLayer
 62
  256
370
   -1
100
AcDbLine
 10
182.0659814659544
 20
73.29687369697371
 11
181.9059814659544
 21
73.4903936969737
  0
LINE
  5
326
100
AcDbEntity
  8
0
  6
ByLayer
 62
  256
370
   -1
100
AcDbLine
 10
181.9059814659544
 20
73.4903936969737
 11
181.7709814659544
 21
73.70246369697369
  0
LINE
  5
327
100
AcDbEntity
  8
0
  6
ByLayer
 62
  256
370
   -1
100
AcDbLine
 10
181.7709814659544
 20
73.70246369697369
 11
181.6639814659544
 21
73.92971369697371
  0
LINE
  5
328
100
AcDbEntity
  8
0
  6
ByLayer
 62
  256
370
   -1
100
AcDbLine
 10
181.6639814659544
 20
73.92971369697371
 11
181.5869814659544
 21
74.1685936969737
  0
LINE
  5
329
100
AcDbEntity
  8
0
  6
ByLayer
 62
  256
370
   -1
100
AcDbLine
 10
181.5869814659544
 20
74.1685936969737
 11
181.5399814659544
 21
74.4152736969737
  0
LINE
  5
32A
100
AcDbEntity
  8
0
  6
ByLayer
 62
  256
370
   -1
100
AcDbLine
 10
181.5399814659544
 20
74.4152736969737
 11
181.5239814659544
 21
74.66597369697369
  0
LINE
  5
32B
100
AcDbEntity
  8
0
  6
ByLayer
 62
  256
370
   -1
100
AcDbLine
 10
181.5239814659544
 20
74.66597369697369
 11
181.5399814659544
 21
74.9166736969737
  0
LINE
  5
32C
100
AcDbEntity
  8
0
  6
ByLayer
 62
  256
370
   -1
100
AcDbLine
 10
181.5399814659544
 20
74.9166736969737
 11
181.5869814659544
 21
75.16337369697369
  0
LINE
  5
32D
100
AcDbEntity
  8
0
  6
ByLayer
 62
  256
370
   -1
100
AcDbLine
 10
181.5869814659544
 20
75.16337369697369
 11
181.6639814659544
 21
75.4021736969737
  0
LINE
  5
32E
100
AcDbEntity
  8
0
  6
ByLayer
 62
  256
370
   -1
100
AcDbLine
 10
181.6639814659544
 20
75.4021736969737
 11
181.7709814659544
 21
75.6294736969737
  0
LINE
  5
32F
100
AcDbEntity
  8
0
  6
ByLayer
 62
  256
370
   -1
100
AcDbLine
 10
181.7709814659544
 20
75.6294736969737
 11
181.9059814659544
 21
75.8415736969737
  0
LINE
  5
330
100
AcDbEntity
  8
0
  6
ByLayer
 62
  256
370
   -1
100
AcDbLine
 10
181.9059814659544
 20
75.8415736969737
 11
182.0659814659544
 21
76.0350736969737
  0
LINE
  5
331
100
AcDbEntity
  8
0
  6
ByLayer
 62
  256
370
   -1
100
AcDbLine
 10
182.0659814659544
 20
76.0350736969737
 11
182.2489814659544
 21
76.20697369697371
  0
LINE
  5
332
100
AcDbEntity
  8
0
  6
ByLayer
 62
  256
370
   -1
100
AcDbLine
 10
182.2489814659544
 20
76.20697369697371
 11
182.4519814659544
 21
76.35467369697371
  0
LINE
  5
333
100
AcDbEntity
  8
0
  6
ByLayer
 62
  256
370
   -1
100
AcDbLine
 10
182.4519814659544
 20
76.35467369697371
 11
182.6719814659544
 21
76.4756736969737
  0
LINE
  5
334
100
AcDbEntity
  8
0
  6
ByLayer
 62
  256
370
   -1
100
AcDbLine
 10
182.6719814659544
 20
76.4756736969737
 11
182.9059814659544
 21
76.5680736969737
  0
LINE
  5
335
100
AcDbEntity
  8
0
  6
ByLayer
 62
  256
370
   -1
100
AcDbLine
 10
182.9059814659544
 20
76.5680736969737
 11
183.1489814659544
 21
76.6305736969737
  0
LINE
  5
336
100
AcDbEntity
  8
0
  6
ByLayer
 62
  256
370
   -1
100
AcDbLine
 10
183.1489814659544
 20
76.6305736969737
 11
183.3979814659544
 21
76.6619736969737
  0
LINE
  5
337
100
AcDbEntity
  8
0
  6
ByLayer
 62
  256
370
   -1
100
AcDbLine
 10
183.3979814659544
 20
76.6619736969737
 11
183.6499814659544
 21
76.6619736969737
  0
LINE
  5
338
100
AcDbEntity
  8
0
  6
ByLayer
 62
  256
370
   -1
100
AcDbLine
 10
183.6499814659544
 20
76.6619736969737
 11
183.8989814659544
 21
76.6305736969737
  0
LINE
  5
339
100
AcDbEntity
  8
0
  6
ByLayer
 62
  256
370
   -1
100
AcDbLine
 10
183.8989814659544
 20
76.6305736969737
 11
184.1419814659544
 21
76.5680736969737
  0
LINE
  5
33A
100
AcDbEntity
  8
0
  6
ByLayer
 62
  256
370
   -1
100
AcDbLine
 10
184.1419814659544
 20
76.5680736969737
 11
184.3759814659544
 21
76.4756736969737
  0
LINE
  5
33B
100
AcDbEntity
  8
0
  6
ByLayer
 62
  256
370
   -1
100
AcDbLine
 10
184.3759814659544
 20
76.4756736969737
 11
184.5959814659544
 21
76.35467369697371
  0
LINE
  5
33C
100
AcDbEntity
  8
0
  6
ByLayer
 62
  256
370
   -1
100
AcDbLine
 10
184.5959814659544
 20
76.35467369697371
 11
184.7989814659544
 21
76.20697369697371
  0
LINE
  5
33D
100
AcDbEntity
  8
0
  6
ByLayer
 62
  256
370
   -1
100
AcDbLine
 10
184.7989814659544
 20
76.20697369697371
 11
184.9819814659544
 21
76.0350736969737
  0
LINE
  5
33E
100
AcDbEntity
  8
0
  6
ByLayer
 62
  256
370
   -1
100
AcDbLine
 10
184.9819814659544
 20
76.0350736969737
 11
185.1419814659544
 21
75.8415736969737
  0
LINE
  5
33F
100
AcDbEntity
  8
0
  6
ByLayer
 62
  256
370
   -1
100
AcDbLine
 10
185.1419814659544
 20
75.8415736969737
 11
185.2769814659544
 21
75.6294736969737
  0
LINE
  5
340
100
AcDbEntity
  8
0
  6
ByLayer
 62
  256
370
   -1
100
AcDbLine
 10
185.2769814659544
 20
75.6294736969737
 11
185.3839814659544
 21
75.4021736969737
  0
LINE
  5
341
100
AcDbEntity
  8
0
  6
ByLayer
 62
  256
370
   -1
100
AcDbLine
 10
185.3839814659544
 20
75.4021736969737
 11
185.4609814659544
 21
75.16337369697369
  0
LINE
  5
342
100
AcDbEntity
  8
0
  6
ByLayer
 62
  256
370
   -1
100
AcDbLine
 10
185.4609814659544
 20
75.16337369697369
 11
185.5079814659544
 21
74.9166736969737
  0
LINE
  5
343
100
AcDbEntity
  8
0
  6
ByLayer
 62
  256
370
   -1
100
AcDbLine
 10
185.5079814659544
 20
74.9166736969737
 11
185.5239814659544
 21
74.66597369697369
  0
LINE
  5
344
100
AcDbEntity
  8
0
  6
ByLayer
 62
  256
370
   -1
100
AcDbLine
 10
185.5239814659544
 20
74.66597369697369
 11
185.5079814659544
 21
74.4152736969737
  0
LINE
  5
345
100
AcDbEntity
  8
0
  6
ByLayer
 62
  256
370
   -1
100
AcDbLine
 10
185.5079814659544
 20
74.4152736969737
 11
185.4609814659544
 21
74.1685936969737
  0
LINE
  5
346
100
AcDbEntity
  8
0
  6
ByLayer
 62
  256
370
   -1
100
AcDbLine
 10
185.4609814659544
 20
74.1685936969737
 11
185.3839814659544
 21
73.92971369697371
  0
LINE
  5
347
100
AcDbEntity
  8
0
  6
ByLayer
 62
  256
370
   -1
100
AcDbLine
 10
185.3839814659544
 20
73.92971369697371
 11
185.2769814659544
 21
73.70246369697369
  0
LINE
  5
348
100
AcDbEntity
  8
0
  6
ByLayer
 62
  256
370
   -1
100
AcDbLine
 10
185.2769814659544
 20
73.70246369697369
 11
185.1419814659544
 21
73.4903936969737
  0
LINE
  5
349
100
AcDbEntity
  8
0
  6
ByLayer
 62
  256
370
   -1
100
AcDbLine
 10
185.1419814659544
 20
73.4903936969737
 11
184.9819814659544
 21
73.29687369697371
  0
LINE
  5
34A
100
AcDbEntity
  8
0
  6
ByLayer
 62
  256
370
   -1
100
AcDbLine
 10
184.9819814659544
 20
73.29687369697371
 11
184.7989814659544
 21
73.1249336969737
  0
LINE
  5
34B
100
AcDbEntity
  8
0
  6
ByLayer
 62
  256
370
   -1
100
AcDbLine
 10
184.7989814659544
 20
73.1249336969737
 11
184.5959814659544
 21
72.97730369697369
  0
LINE
  5
34C
100
AcDbEntity
  8
0
  6
ByLayer
 62
  256
370
   -1
100
AcDbLine
 10
184.5959814659544
 20
72.97730369697369
 11
184.3759814659544
 21
72.8563136969737
  0
LINE
  5
34D
100
AcDbEntity
  8
0
  6
ByLayer
 62
  256
370
   -1
100
AcDbLine
 10
184.3759814659544
 20
72.8563136969737
 11
184.1419814659544
 21
72.7638536969737
  0
LINE
  5
34E
100
AcDbEntity
  8
0
  6
ByLayer
 62
  256
370
   -1
100
AcDbLine
 10
184.1419814659544
 20
72.7638536969737
 11
183.8989814659544
 21
72.7013936969737
  0
LINE
  5
34F
100
AcDbEntity
  8
0
  6
ByLayer
 62
  256
370
   -1
100
AcDbLine
 10
183.8989814659544
 20
72.7013936969737
 11
183.6499814659544
 21
72.66991369697369
  0
LINE
  5
350
100
AcDbEntity
  8
0
  6
ByLayer
 62
  256
370
   -1
100
AcDbLine
 10
183.6499814659544
 20
72.66991369697369
 11
183.3979814659544
 21
72.66991369697369
  0
LINE
  5
351
100
AcDbEntity
  8
0
  6
ByLayer
 62
  256
370
   -1
100
AcDbLine
 10
117.2979814659544
 20
69.49991369697371
 11
117.0489814659544
 21
69.53139369697369
  0
LINE
  5
352
100
AcDbEntity
  8
0
  6
ByLayer
 62
  256
370
   -1
100
AcDbLine
 10
117.0489814659544
 20
69.53139369697369
 11
116.8059814659544
 21
69.5938536969737
  0
LINE
  5
353
100
AcDbEntity
  8
0
  6
ByLayer
 62
  256
370
   -1
100
AcDbLine
 10
116.8059814659544
 20
69.5938536969737
 11
116.5719814659544
 21
69.6863236969737
  0
LINE
  5
354
100
AcDbEntity
  8
0
  6
ByLayer
 62
  256
370
   -1
100
AcDbLine
 10
116.5719814659544
 20
69.6863236969737
 11
116.3519814659544
 21
69.8073036969737
  0
LINE
  5
355
100
AcDbEntity
  8
0
  6
ByLayer
 62
  256
370
   -1
100
AcDbLine
 10
116.3519814659544
 20
69.8073036969737
 11
116.1489814659544
 21
69.9549336969737
  0
LINE
  5
356
100
AcDbEntity
  8
0
  6
ByLayer
 62
  256
370
   -1
100
AcDbLine
 10
116.1489814659544
 20
69.9549336969737
 11
115.9659814659544
 21
70.1268736969737
  0
LINE
  5
357
100
AcDbEntity
  8
0
  6
ByLayer
 62
  256
370
   -1
100
AcDbLine
 10
115.9659814659544
 20
70.1268736969737
 11
115.8059814659544
 21
70.3204036969737
  0
LINE
  5
358
100
AcDbEntity
  8
0
  6
ByLayer
 62
  256
370
   -1
100
AcDbLine
 10
115.8059814659544
 20
70.3204036969737
 11
115.6709814659544
 21
70.53246369697369
  0
LINE
  5
359
100
AcDbEntity
  8
0
  6
ByLayer
 62
  256
370
   -1
100
AcDbLine
 10
115.6709814659544
 20
70.53246369697369
 11
115.5639814659544
 21
70.75971369697371
  0
LINE
  5
35A
100
AcDbEntity
  8
0
  6
ByLayer
 62
  256
370
   -1
100
AcDbLine
 10
115.5639814659544
 20
70.75971369697371
 11
115.4869814659544
 21
70.9985936969737
  0
LINE
  5
35B
100
AcDbEntity
  8
0
  6
ByLayer
 62
  256
370
   -1
100
AcDbLine
 10
115.4869814659544
 20
70.9985936969737
 11
115.4399814659544
 21
71.2452936969737
  0
LINE
  5
35C
100
AcDbEntity
  8
0
  6
ByLayer
 62
  256
370
   -1
100
AcDbLine
 10
115.4399814659544
 20
71.2452936969737
 11
115.4239814659544
 21
71.4959636969737
  0
LINE
  5
35D
100
AcDbEntity
  8
0
  6
ByLayer
 62
  256
370
   -1
100
AcDbLine
 10
115.4239814659544
 20
71.4959636969737
 11
115.4399814659544
 21
71.7466336969737
  0
LINE
  5
35E
100
AcDbEntity
  8
0
  6
ByLayer
 62
  256
370
   -1
100
AcDbLine
 10
115.4399814659544
 20
71.7466336969737
 11
115.4869814659544
 21
71.9933436969737
  0
LINE
  5
35F
100
AcDbEntity
  8
0
  6
ByLayer
 62
  256
370
   -1
100
AcDbLine
 10
115.4869814659544
 20
71.9933436969737
 11
115.5639814659544
 21
72.2322136969737
  0
LINE
  5
360
100
AcDbEntity
  8
0
  6
ByLayer
 62
  256
370
   -1
100
AcDbLine
 10
115.5639814659544
 20
72.2322136969737
 11
115.6709814659544
 21
72.4594636969737
  0
LINE
  5
361
100
AcDbEntity
  8
0
  6
ByLayer
 62
  256
370
   -1
100
AcDbLine
 10
115.6709814659544
 20
72.4594636969737
 11
115.8059814659544
 21
72.6715336969737
  0
LINE
  5
362
100
AcDbEntity
  8
0
  6
ByLayer
 62
  256
370
   -1
100
AcDbLine
 10
115.8059814659544
 20
72.6715336969737
 11
115.9659814659544
 21
72.86506369697371
  0
LINE
  5
363
100
AcDbEntity
  8
0
  6
ByLayer
 62
  256
370
   -1
100
AcDbLine
 10
115.9659814659544
 20
72.86506369697371
 11
116.1489814659544
 21
73.0369936969737
  0
LINE
  5
364
100
AcDbEntity
  8
0
  6
ByLayer
 62
  256
370
   -1
100
AcDbLine
 10
116.1489814659544
 20
73.0369936969737
 11
116.3519814659544
 21
73.1846236969737
  0
LINE
  5
365
100
AcDbEntity
  8
0
  6
ByLayer
 62
  256
370
   -1
100
AcDbLine
 10
116.3519814659544
 20
73.1846236969737
 11
116.5719814659544
 21
73.30561369697369
  0
LINE
  5
366
100
AcDbEntity
  8
0
  6
ByLayer
 62
  256
370
   -1
100
AcDbLine
 10
116.5719814659544
 20
73.30561369697369
 11
116.8059814659544
 21
73.3980836969737
  0
LINE
  5
367
100
AcDbEntity
  8
0
  6
ByLayer
 62
  256
370
   -1
100
AcDbLine
 10
116.8059814659544
 20
73.3980836969737
 11
117.0489814659544
 21
73.4605336969737
  0
LINE
  5
368
100
AcDbEntity
  8
0
  6
ByLayer
 62
  256
370
   -1
100
AcDbLine
 10
117.0489814659544
 20
73.4605336969737
 11
117.2979814659544
 21
73.4920136969737
  0
LINE
  5
369
100
AcDbEntity
  8
0
  6
ByLayer
 62
  256
370
   -1
100
AcDbLine
 10
117.2979814659544
 20
73.4920136969737
 11
117.5499814659544
 21
73.4920136969737
  0
LINE
  5
36A
100
AcDbEntity
  8
0
  6
ByLayer
 62
  256
370
   -1
100
AcDbLine
 10
117.5499814659544
 20
73.4920136969737
 11
117.7989814659544
 21
73.4605336969737
  0
LINE
  5
36B
100
AcDbEntity
  8
0
  6
ByLayer
 62
  256
370
   -1
100
AcDbLine
 10
117.7989814659544
 20
73.4605336969737
 11
118.0419814659544
 21
73.3980836969737
  0
LINE
  5
36C
100
AcDbEntity
  8
0
  6
ByLayer
 62
  256
370
   -1
100
AcDbLine
 10
118.0419814659544
 20
73.3980836969737
 11
118.2759814659544
 21
73.30561369697369
  0
LINE
  5
36D
100
AcDbEntity
  8
0
  6
ByLayer
 62
  256
370
   -1
100
AcDbLine
 10
118.2759814659544
 20
73.30561369697369
 11
118.4959814659544
 21
73.1846236969737
  0
LINE
  5
36E
100
AcDbEntity
  8
0
  6
ByLayer
 62
  256
370
   -1
100
AcDbLine
 10
118.4959814659544
 20
73.1846236969737
 11
118.6989814659544
 21
73.0369936969737
  0
LINE
  5
36F
100
AcDbEntity
  8
0
  6
ByLayer
 62
  256
370
   -1
100
AcDbLine
 10
118.6989814659544
 20
73.0369936969737
 11
118.8819814659544
 21
72.86506369697371
  0
LINE
  5
370
100
AcDbEntity
  8
0
  6
ByLayer
 62
  256
370
   -1
100
AcDbLine
 10
118.8819814659544
 20
72.86506369697371
 11
119.0419814659544
 21
72.6715336969737
  0
LINE
  5
371
100
AcDbEntity
  8
0
  6
ByLayer
 62
  256
370
   -1
100
AcDbLine
 10
119.0419814659544
 20
72.6715336969737
 11
119.1769814659544
 21
72.4594636969737
  0
LINE
  5
372
100
AcDbEntity
  8
0
  6
ByLayer
 62
  256
370
   -1
100
AcDbLine
 10
119.1769814659544
 20
72.4594636969737
 11
119.2839814659544
 21
72.2322136969737
  0
LINE
  5
373
100
AcDbEntity
  8
0
  6
ByLayer
 62
  256
370
   -1
100
AcDbLine
 10
119.2839814659544
 20
72.2322136969737
 11
119.3609814659544
 21
71.9933436969737
  0
LINE
  5
374
100
AcDbEntity
  8
0
  6
ByLayer
 62
  256
370
   -1
100
AcDbLine
 10
119.3609814659544
 20
71.9933436969737
 11
119.4079814659544
 21
71.7466336969737
  0
LINE
  5
375
100
AcDbEntity
  8
0
  6
ByLayer
 62
  256
370
   -1
100
AcDbLine
 10
119.4079814659544
 20
71.7466336969737
 11
119.4239814659544
 21
71.4959636969737
  0
LINE
  5
376
100
AcDbEntity
  8
0
  6
ByLayer
 62
  256
370
   -1
100
AcDbLine
 10
119.4239814659544
 20
71.4959636969737
 11
119.4079814659544
 21
71.2452936969737
  0
LINE
  5
377
100
AcDbEntity
  8
0
  6
ByLayer
 62
  256
370
   -1
100
AcDbLine
 10
119.4079814659544
 20
71.2452936969737
 11
119.3609814659544
 21
70.9985936969737
  0
LINE
  5
378
100
AcDbEntity
  8
0
  6
ByLayer
 62
  256
370
   -1
100
AcDbLine
 10
119.3609814659544
 20
70.9985936969737
 11
119.2839814659544
 21
70.75971369697371
  0
LINE
  5
379
100
AcDbEntity
  8
0
  6
ByLayer
 62
  256
370
   -1
100
AcDbLine
 10
119.2839814659544
 20
70.75971369697371
 11
119.1769814659544
 21
70.53246369697369
  0
LINE
  5
37A
100
AcDbEntity
  8
0
  6
ByLayer
 62
  256
370
   -1
100
AcDbLine
 10
119.1769814659544
 20
70.53246369697369
 11
119.0419814659544
 21
70.3204036969737
  0
LINE
  5
37B
100
AcDbEntity
  8
0
  6
ByLayer
 62
  256
370
   -1
100
AcDbLine
 10
119.0419814659544
 20
70.3204036969737
 11
118.8819814659544
 21
70.1268736969737
  0
LINE
  5
37C
100
AcDbEntity
  8
0
  6
ByLayer
 62
  256
370
   -1
100
AcDbLine
 10
118.8819814659544
 20
70.1268736969737
 11
118.6989814659544
 21
69.9549336969737
  0
LINE
  5
37D
100
AcDbEntity
  8
0
  6
ByLayer
 62
  256
370
   -1
100
AcDbLine
 10
118.6989814659544
 20
69.9549336969737
 11
118.4959814659544
 21
69.8073036969737
  0
LINE
  5
37E
100
AcDbEntity
  8
0
  6
ByLayer
 62
  256
370
   -1
100
AcDbLine
 10
118.4959814659544
 20
69.8073036969737
 11
118.2759814659544
 21
69.6863236969737
  0
LINE
  5
37F
100
AcDbEntity
  8
0
  6
ByLayer
 62
  256
370
   -1
100
AcDbLine
 10
118.2759814659544
 20
69.6863236969737
 11
118.0419814659544
 21
69.5938536969737
  0
LINE
  5
380
100
AcDbEntity
  8
0
  6
ByLayer
 62
  256
370
   -1
100
AcDbLine
 10
118.0419814659544
 20
69.5938536969737
 11
117.7989814659544
 21
69.53139369697369
  0
LINE
  5
381
100
AcDbEntity
  8
0
  6
ByLayer
 62
  256
370
   -1
100
AcDbLine
 10
117.7989814659544
 20
69.53139369697369
 11
117.5499814659544
 21
69.49991369697371
  0
LINE
  5
382
100
AcDbEntity
  8
0
  6
ByLayer
 62
  256
370
   -1
100
AcDbLine
 10
117.5499814659544
 20
69.49991369697371
 11
117.2979814659544
 21
69.49991369697371
  0
LINE
  5
383
100
AcDbEntity
  8
0
  6
ByLayer
 62
  256
370
   -1
100
AcDbLine
 10
95.73679444196846
 20
86.22413039525719
 11
95.68679444196844
 21
87.02003039525721
  0
LINE
  5
384
100
AcDbEntity
  8
0
  6
ByLayer
 62
  256
370
   -1
100
AcDbLine
 10
95.68679444196844
 20
87.02003039525721
 11
95.53679444196844
 21
87.80333039525721
  0
LINE
  5
385
100
AcDbEntity
  8
0
  6
ByLayer
 62
  256
370
   -1
100
AcDbLine
 10
95.53679444196844
 20
87.80333039525721
 11
95.29079444196846
 21
88.5617303952572
  0
LINE
  5
386
100
AcDbEntity
  8
0
  6
ByLayer
 62
  256
370
   -1
100
AcDbLine
 10
95.29079444196846
 20
88.5617303952572
 11
94.95179444196846
 21
89.28323039525719
  0
LINE
  5
387
100
AcDbEntity
  8
0
  6
ByLayer
 62
  256
370
   -1
100
AcDbLine
 10
94.95179444196846
 20
89.28323039525719
 11
94.52379444196843
 21
89.9565303952572
  0
LINE
  5
388
100
AcDbEntity
  8
0
  6
ByLayer
 62
  256
370
   -1
100
AcDbLine
 10
94.52379444196843
 20
89.9565303952572
 11
94.01579444196845
 21
90.5710303952572
  0
LINE
  5
389
100
AcDbEntity
  8
0
  6
ByLayer
 62
  256
370
   -1
100
AcDbLine
 10
94.01579444196845
 20
90.5710303952572
 11
93.43479444196844
 21
91.1169303952572
  0
LINE
  5
38A
100
AcDbEntity
  8
0
  6
ByLayer
 62
  256
370
   -1
100
AcDbLine
 10
93.43479444196844
 20
91.1169303952572
 11
92.78879444196845
 21
91.5856303952572
  0
LINE
  5
38B
100
AcDbEntity
  8
0
  6
ByLayer
 62
  256
370
   -1
100
AcDbLine
 10
92.78879444196845
 20
91.5856303952572
 11
92.09079444196844
 21
91.9697303952572
  0
LINE
  5
38C
100
AcDbEntity
  8
0
  6
ByLayer
 62
  256
370
   -1
100
AcDbLine
 10
92.09079444196844
 20
91.9697303952572
 11
91.34879444196845
 21
92.2633303952572
  0
LINE
  5
38D
100
AcDbEntity
  8
0
  6
ByLayer
 62
  256
370
   -1
100
AcDbLine
 10
91.34879444196845
 20
92.2633303952572
 11
90.57679444196846
 21
92.4616303952572
  0
LINE
  5
38E
100
AcDbEntity
  8
0
  6
ByLayer
 62
  256
370
   -1
100
AcDbLine
 10
90.57679444196846
 20
92.4616303952572
 11
89.78579444196843
 21
92.5616303952572
  0
LINE
  5
38F
100
AcDbEntity
  8
0
  6
ByLayer
 62
  256
370
   -1
100
AcDbLine
 10
89.78579444196843
 20
92.5616303952572
 11
7.32779444196845
 21
92.5616303952572
  0
LINE
  5
390
100
AcDbEntity
  8
0
  6
ByLayer
 62
  256
370
   -1
100
AcDbLine
 10
7.32779444196845
 20
92.5616303952572
 11
6.536794441968439
 21
92.4616303952572
  0
LINE
  5
391
100
AcDbEntity
  8
0
  6
ByLayer
 62
  256
370
   -1
100
AcDbLine
 10
6.536794441968439
 20
92.4616303952572
 11
5.764794441968448
 21
92.2633303952572
  0
LINE
  5
392
100
AcDbEntity
  8
0
  6
ByLayer
 62
  256
370
   -1
100
AcDbLine
 10
5.764794441968448
 20
92.2633303952572
 11
5.022794441968443
 21
91.9697303952572
  0
LINE
  5
393
100
AcDbEntity
  8
0
  6
ByLayer
 62
  256
370
   -1
100
AcDbLine
 10
5.022794441968443
 20
91.9697303952572
 11
4.323794441968445
 21
91.5856303952572
  0
LINE
  5
394
100
AcDbEntity
  8
0
  6
ByLayer
 62
  256
370
   -1
100
AcDbLine
 10
4.323794441968445
 20
91.5856303952572
 11
3.678794441968449
 21
91.1169303952572
  0
LINE
  5
395
100
AcDbEntity
  8
0
  6
ByLayer
 62
  256
370
   -1
100
AcDbLine
 10
3.678794441968449
 20
91.1169303952572
 11
3.097794441968446
 21
90.5710303952572
  0
LINE
  5
396
100
AcDbEntity
  8
0
  6
ByLayer
 62
  256
370
   -1
100
AcDbLine
 10
3.097794441968446
 20
90.5710303952572
 11
2.589794441968451
 21
89.9565303952572
  0
LINE
  5
397
100
AcDbEntity
  8
0
  6
ByLayer
 62
  256
370
   -1
100
AcDbLine
 10
2.589794441968451
 20
89.9565303952572
 11
2.161794441968439
 21
89.28323039525719
  0
LINE
  5
398
100
AcDbEntity
  8
0
  6
ByLayer
 62
  256
370
   -1
100
AcDbLine
 10
2.161794441968439
 20
89.28323039525719
 11
1.822794441968441
 21
88.5617303952572
  0
LINE
  5
399
100
AcDbEntity
  8
0
  6
ByLayer
 62
  256
370
   -1
100
AcDbLine
 10
1.822794441968441
 20
88.5617303952572
 11
1.575794441968441
 21
87.80333039525721
  0
LINE
  5
39A
100
AcDbEntity
  8
0
  6
ByLayer
 62
  256
370
   -1
100
AcDbLine
 10
1.575794441968441
 20
87.80333039525721
 11
1.42679444196844
 21
87.02003039525721
  0
LINE
  5
39B
100
AcDbEntity
  8
0
  6
ByLayer
 62
  256
370
   -1
100
AcDbLine
 10
1.42679444196844
 20
87.02003039525721
 11
1.376794441968443
 21
86.22413039525719
  0
LINE
  5
39C
100
AcDbEntity
  8
0
  6
ByLayer
 62
  256
370
   -1
100
AcDbLine
 10
1.376794441968443
 20
86.22413039525719
 11
1.376794441968443
 21
83.9641303952572
  0
LINE
  5
39D
100
AcDbEntity
  8
0
  6
ByLayer
 62
  256
370
   -1
100
AcDbLine
 10
1.376794441968443
 20
83.9641303952572
 11
10.37679444196844
 21
83.9641303952572
  0
LINE
  5
39E
100
AcDbEntity
  8
0
  6
ByLayer
 62
  256
370
   -1
100
AcDbLine
 10
10.37679444196844
 20
83.9641303952572
 11
10.37679444196844
 21
87.53413039525719
  0
LINE
  5
39F
100
AcDbEntity
  8
0
  6
ByLayer
 62
  256
370
   -1
100
AcDbLine
 10
10.37679444196844
 20
87.53413039525719
 11
16.37679444196844
 21
87.53413039525719
  0
LINE
  5
3A0
100
AcDbEntity
  8
0
  6
ByLayer
 62
  256
370
   -1
100
AcDbLine
 10
16.37679444196844
 20
87.53413039525719
 11
16.37679444196844
 21
83.9641303952572
  0
LINE
  5
3A1
100
AcDbEntity
  8
0
  6
ByLayer
 62
  256
370
   -1
100
AcDbLine
 10
16.37679444196844
 20
83.9641303952572
 11
16.87679444196844
 21
83.9641303952572
  0
LINE
  5
3A2
100
AcDbEntity
  8
0
  6
ByLayer
 62
  256
370
   -1
100
AcDbLine
 10
16.87679444196844
 20
83.9641303952572
 11
16.87679444196844
 21
80.9641303952572
  0
LINE
  5
3A3
100
AcDbEntity
  8
0
  6
ByLayer
 62
  256
370
   -1
100
AcDbLine
 10
16.87679444196844
 20
80.9641303952572
 11
23.37679444196844
 21
80.9641303952572
  0
LINE
  5
3A4
100
AcDbEntity
  8
0
  6
ByLayer
 62
  256
370
   -1
100
AcDbLine
 10
23.37679444196844
 20
80.9641303952572
 11
23.37679444196844
 21
88.5741303952572
  0
LINE
  5
3A5
100
AcDbEntity
  8
0
  6
ByLayer
 62
  256
370
   -1
100
AcDbLine
 10
23.37679444196844
 20
88.5741303952572
 11
82.37679444196844
 21
88.5741303952572
  0
LINE
  5
3A6
100
AcDbEntity
  8
0
  6
ByLayer
 62
  256
370
   -1
100
AcDbLine
 10
82.37679444196844
 20
88.5741303952572
 11
82.37679444196844
 21
79.4641303952572
  0
LINE
  5
3A7
100
AcDbEntity
  8
0
  6
ByLayer
 62
  256
370
   -1
100
AcDbLine
 10
82.37679444196844
 20
79.4641303952572
 11
95.73679444196846
 21
79.4641303952572
  0
LINE
  5
3A8
100
AcDbEntity
  8
0
  6
ByLayer
 62
  256
370
   -1
100
AcDbLine
 10
95.73679444196846
 20
79.4641303952572
 11
95.73679444196846
 21
86.22413039525719
  0
LINE
  5
3A9
100
AcDbEntity
  8
0
  6
ByLayer
 62
  256
370
   -1
100
AcDbLine
 10
19.86079444196845
 20
83.53803039525721
 11
19.61179444196844
 21
83.5695303952572
  0
LINE
  5
3AA
100
AcDbEntity
  8
0
  6
ByLayer
 62
  256
370
   -1
100
AcDbLine
 10
19.61179444196844
 20
83.5695303952572
 11
19.36879444196845
 21
83.6320303952572
  0
LINE
  5
3AB
100
AcDbEntity
  8
0
  6
ByLayer
 62
  256
370
   -1
100
AcDbLine
 10
19.36879444196845
 20
83.6320303952572
 11
19.13479444196845
 21
83.7244303952572
  0
LINE
  5
3AC
100
AcDbEntity
  8
0
  6
ByLayer
 62
  256
370
   -1
100
AcDbLine
 10
19.13479444196845
 20
83.7244303952572
 11
18.91479444196844
 21
83.84543039525721
  0
LINE
  5
3AD
100
AcDbEntity
  8
0
  6
ByLayer
 62
  256
370
   -1
100
AcDbLine
 10
18.91479444196844
 20
83.84543039525721
 11
18.71179444196845
 21
83.9931303952572
  0
LINE
  5
3AE
100
AcDbEntity
  8
0
  6
ByLayer
 62
  256
370
   -1
100
AcDbLine
 10
18.71179444196845
 20
83.9931303952572
 11
18.52879444196844
 21
84.16503039525719
  0
LINE
  5
3AF
100
AcDbEntity
  8
0
  6
ByLayer
 62
  256
370
   -1
100
AcDbLine
 10
18.52879444196844
 20
84.16503039525719
 11
18.36879444196845
 21
84.35853039525719
  0
LINE
  5
3B0
100
AcDbEntity
  8
0
  6
ByLayer
 62
  256
370
   -1
100
AcDbLine
 10
18.36879444196845
 20
84.35853039525719
 11
18.23379444196844
 21
84.5706303952572
  0
LINE
  5
3B1
100
AcDbEntity
  8
0
  6
ByLayer
 62
  256
370
   -1
100
AcDbLine
 10
18.23379444196844
 20
84.5706303952572
 11
18.12679444196844
 21
84.79783039525719
  0
LINE
  5
3B2
100
AcDbEntity
  8
0
  6
ByLayer
 62
  256
370
   -1
100
AcDbLine
 10
18.12679444196844
 20
84.79783039525719
 11
18.04979444196844
 21
85.03673039525719
  0
LINE
  5
3B3
100
AcDbEntity
  8
0
  6
ByLayer
 62
  256
370
   -1
100
AcDbLine
 10
18.04979444196844
 20
85.03673039525719
 11
18.00279444196845
 21
85.2834303952572
  0
LINE
  5
3B4
100
AcDbEntity
  8
0
  6
ByLayer
 62
  256
370
   -1
100
AcDbLine
 10
18.00279444196845
 20
85.2834303952572
 11
17.98679444196844
 21
85.53413039525719
  0
LINE
  5
3B5
100
AcDbEntity
  8
0
  6
ByLayer
 62
  256
370
   -1
100
AcDbLine
 10
17.98679444196844
 20
85.53413039525719
 11
18.00279444196845
 21
85.7848303952572
  0
LINE
  5
3B6
100
AcDbEntity
  8
0
  6
ByLayer
 62
  256
370
   -1
100
AcDbLine
 10
18.00279444196845
 20
85.7848303952572
 11
18.04979444196844
 21
86.03153039525719
  0
LINE
  5
3B7
100
AcDbEntity
  8
0
  6
ByLayer
 62
  256
370
   -1
100
AcDbLine
 10
18.04979444196844
 20
86.03153039525719
 11
18.12679444196844
 21
86.27033039525719
  0
LINE
  5
3B8
100
AcDbEntity
  8
0
  6
ByLayer
 62
  256
370
   -1
100
AcDbLine
 10
18.12679444196844
 20
86.27033039525719
 11
18.23379444196844
 21
86.4976303952572
  0
LINE
  5
3B9
100
AcDbEntity
  8
0
  6
ByLayer
 62
  256
370
   -1
100
AcDbLine
 10
18.23379444196844
 20
86.4976303952572
 11
18.36879444196845
 21
86.7097303952572
  0
LINE
  5
3BA
100
AcDbEntity
  8
0
  6
ByLayer
 62
  256
370
   -1
100
AcDbLine
 10
18.36879444196845
 20
86.7097303952572
 11
18.52879444196844
 21
86.9032303952572
  0
LINE
  5
3BB
100
AcDbEntity
  8
0
  6
ByLayer
 62
  256
370
   -1
100
AcDbLine
 10
18.52879444196844
 20
86.9032303952572
 11
18.71179444196845
 21
87.07513039525719
  0
LINE
  5
3BC
100
AcDbEntity
  8
0
  6
ByLayer
 62
  256
370
   -1
100
AcDbLine
 10
18.71179444196845
 20
87.07513039525719
 11
18.91479444196844
 21
87.2228303952572
  0
LINE
  5
3BD
100
AcDbEntity
  8
0
  6
ByLayer
 62
  256
370
   -1
100
AcDbLine
 10
18.91479444196844
 20
87.2228303952572
 11
19.13479444196845
 21
87.3438303952572
  0
LINE
  5
3BE
100
AcDbEntity
  8
0
  6
ByLayer
 62
  256
370
   -1
100
AcDbLine
 10
19.13479444196845
 20
87.3438303952572
 11
19.36879444196845
 21
87.4362303952572
  0
LINE
  5
3BF
100
AcDbEntity
  8
0
  6
ByLayer
 62
  256
370
   -1
100
AcDbLine
 10
19.36879444196845
 20
87.4362303952572
 11
19.61179444196844
 21
87.4987303952572
  0
LINE
  5
3C0
100
AcDbEntity
  8
0
  6
ByLayer
 62
  256
370
   -1
100
AcDbLine
 10
19.61179444196844
 20
87.4987303952572
 11
19.86079444196845
 21
87.5301303952572
  0
LINE
  5
3C1
100
AcDbEntity
  8
0
  6
ByLayer
 62
  256
370
   -1
100
AcDbLine
 10
19.86079444196845
 20
87.5301303952572
 11
20.11279444196845
 21
87.5301303952572
  0
LINE
  5
3C2
100
AcDbEntity
  8
0
  6
ByLayer
 62
  256
370
   -1
100
AcDbLine
 10
20.11279444196845
 20
87.5301303952572
 11
20.36179444196844
 21
87.4987303952572
  0
LINE
  5
3C3
100
AcDbEntity
  8
0
  6
ByLayer
 62
  256
370
   -1
100
AcDbLine
 10
20.36179444196844
 20
87.4987303952572
 11
20.60479444196845
 21
87.4362303952572
  0
LINE
  5
3C4
100
AcDbEntity
  8
0
  6
ByLayer
 62
  256
370
   -1
100
AcDbLine
 10
20.60479444196845
 20
87.4362303952572
 11
20.83879444196845
 21
87.3438303952572
  0
LINE
  5
3C5
100
AcDbEntity
  8
0
  6
ByLayer
 62
  256
370
   -1
100
AcDbLine
 10
20.83879444196845
 20
87.3438303952572
 11
21.05879444196844
 21
87.2228303952572
  0
LINE
  5
3C6
100
AcDbEntity
  8
0
  6
ByLayer
 62
  256
370
   -1
100
AcDbLine
 10
21.05879444196844
 20
87.2228303952572
 11
21.26179444196845
 21
87.07513039525719
  0
LINE
  5
3C7
100
AcDbEntity
  8
0
  6
ByLayer
 62
  256
370
   -1
100
AcDbLine
 10
21.26179444196845
 20
87.07513039525719
 11
21.44479444196844
 21
86.9032303952572
  0
LINE
  5
3C8
100
AcDbEntity
  8
0
  6
ByLayer
 62
  256
370
   -1
100
AcDbLine
 10
21.44479444196844
 20
86.9032303952572
 11
21.60479444196845
 21
86.7097303952572
  0
LINE
  5
3C9
100
AcDbEntity
  8
0
  6
ByLayer
 62
  256
370
   -1
100
AcDbLine
 10
21.60479444196845
 20
86.7097303952572
 11
21.73979444196844
 21
86.4976303952572
  0
LINE
  5
3CA
100
AcDbEntity
  8
0
  6
ByLayer
 62
  256
370
   -1
100
AcDbLine
 10
21.73979444196844
 20
86.4976303952572
 11
21.84679444196844
 21
86.27033039525719
  0
LINE
  5
3CB
100
AcDbEntity
  8
0
  6
ByLayer
 62
  256
370
   -1
100
AcDbLine
 10
21.84679444196844
 20
86.27033039525719
 11
21.92379444196844
 21
86.03153039525719
  0
LINE
  5
3CC
100
AcDbEntity
  8
0
  6
ByLayer
 62
  256
370
   -1
100
AcDbLine
 10
21.92379444196844
 20
86.03153039525719
 11
21.97079444196845
 21
85.7848303952572
  0
LINE
  5
3CD
100
AcDbEntity
  8
0
  6
ByLayer
 62
  256
370
   -1
100
AcDbLine
 10
21.97079444196845
 20
85.7848303952572
 11
21.98679444196844
 21
85.53413039525719
  0
LINE
  5
3CE
100
AcDbEntity
  8
0
  6
ByLayer
 62
  256
370
   -1
100
AcDbLine
 10
21.98679444196844
 20
85.53413039525719
 11
21.97079444196845
 21
85.2834303952572
  0
LINE
  5
3CF
100
AcDbEntity
  8
0
  6
ByLayer
 62
  256
370
   -1
100
AcDbLine
 10
21.97079444196845
 20
85.2834303952572
 11
21.92379444196844
 21
85.03673039525719
  0
LINE
  5
3D0
100
AcDbEntity
  8
0
  6
ByLayer
 62
  256
370
   -1
100
AcDbLine
 10
21.92379444196844
 20
85.03673039525719
 11
21.84679444196844
 21
84.79783039525719
  0
LINE
  5
3D1
100
AcDbEntity
  8
0
  6
ByLayer
 62
  256
370
   -1
100
AcDbLine
 10
21.84679444196844
 20
84.79783039525719
 11
21.73979444196844
 21
84.5706303952572
  0
LINE
  5
3D2
100
AcDbEntity
  8
0
  6
ByLayer
 62
  256
370
   -1
100
AcDbLine
 10
21.73979444196844
 20
84.5706303952572
 11
21.60479444196845
 21
84.35853039525719
  0
LINE
  5
3D3
100
AcDbEntity
  8
0
  6
ByLayer
 62
  256
370
   -1
100
AcDbLine
 10
21.60479444196845
 20
84.35853039525719
 11
21.44479444196844
 21
84.16503039525719
  0
LINE
  5
3D4
100
AcDbEntity
  8
0
  6
ByLayer
 62
  256
370
   -1
100
AcDbLine
 10
21.44479444196844
 20
84.16503039525719
 11
21.26179444196845
 21
83.9931303952572
  0
LINE
  5
3D5
100
AcDbEntity
  8
0
  6
ByLayer
 62
  256
370
   -1
100
AcDbLine
 10
21.26179444196845
 20
83.9931303952572
 11
21.05879444196844
 21
83.84543039525721
  0
LINE
  5
3D6
100
AcDbEntity
  8
0
  6
ByLayer
 62
  256
370
   -1
100
AcDbLine
 10
21.05879444196844
 20
83.84543039525721
 11
20.83879444196845
 21
83.7244303952572
  0
LINE
  5
3D7
100
AcDbEntity
  8
0
  6
ByLayer
 62
  256
370
   -1
100
AcDbLine
 10
20.83879444196845
 20
83.7244303952572
 11
20.60479444196845
 21
83.6320303952572
  0
LINE
  5
3D8
100
AcDbEntity
  8
0
  6
ByLayer
 62
  256
370
   -1
100
AcDbLine
 10
20.60479444196845
 20
83.6320303952572
 11
20.36179444196844
 21
83.5695303952572
  0
LINE
  5
3D9
100
AcDbEntity
  8
0
  6
ByLayer
 62
  256
370
   -1
100
AcDbLine
 10
20.36179444196844
 20
83.5695303952572
 11
20.11279444196845
 21
83.53803039525721
  0
LINE
  5
3DA
100
AcDbEntity
  8
0
  6
ByLayer
 62
  256
370
   -1
100
AcDbLine
 10
20.11279444196845
 20
83.53803039525721
 11
19.86079444196845
 21
83.53803039525721
  0
LINE
  5
3DB
100
AcDbEntity
  8
0
  6
ByLayer
 62
  256
370
   -1
100
AcDbLine
 10
85.96079444196845
 20
80.22803039525721
 11
85.71179444196845
 21
80.2595303952572
  0
LINE
  5
3DC
100
AcDbEntity
  8
0
  6
ByLayer
 62
  256
370
   -1
100
AcDbLine
 10
85.71179444196845
 20
80.2595303952572
 11
85.46879444196846
 21
80.3220303952572
  0
LINE
  5
3DD
100
AcDbEntity
  8
0
  6
ByLayer
 62
  256
370
   -1
100
AcDbLine
 10
85.46879444196846
 20
80.3220303952572
 11
85.23479444196845
 21
80.4144303952572
  0
LINE
  5
3DE
100
AcDbEntity
  8
0
  6
ByLayer
 62
  256
370
   -1
100
AcDbLine
 10
85.23479444196845
 20
80.4144303952572
 11
85.01479444196845
 21
80.53543039525721
  0
LINE
  5
3DF
100
AcDbEntity
  8
0
  6
ByLayer
 62
  256
370
   -1
100
AcDbLine
 10
85.01479444196845
 20
80.53543039525721
 11
84.81179444196844
 21
80.68313039525719
  0
LINE
  5
3E0
100
AcDbEntity
  8
0
  6
ByLayer
 62
  256
370
   -1
100
AcDbLine
 10
84.81179444196844
 20
80.68313039525719
 11
84.62879444196845
 21
80.8550303952572
  0
LINE
  5
3E1
100
AcDbEntity
  8
0
  6
ByLayer
 62
  256
370
   -1
100
AcDbLine
 10
84.62879444196845
 20
80.8550303952572
 11
84.46879444196846
 21
81.0485303952572
  0
LINE
  5
3E2
100
AcDbEntity
  8
0
  6
ByLayer
 62
  256
370
   -1
100
AcDbLine
 10
84.46879444196846
 20
81.0485303952572
 11
84.33379444196844
 21
81.26063039525721
  0
LINE
  5
3E3
100
AcDbEntity
  8
0
  6
ByLayer
 62
  256
370
   -1
100
AcDbLine
 10
84.33379444196844
 20
81.26063039525721
 11
84.22679444196844
 21
81.48783039525719
  0
LINE
  5
3E4
100
AcDbEntity
  8
0
  6
ByLayer
 62
  256
370
   -1
100
AcDbLine
 10
84.22679444196844
 20
81.48783039525719
 11
84.14979444196844
 21
81.72673039525719
  0
LINE
  5
3E5
100
AcDbEntity
  8
0
  6
ByLayer
 62
  256
370
   -1
100
AcDbLine
 10
84.14979444196844
 20
81.72673039525719
 11
84.10279444196844
 21
81.9734303952572
  0
LINE
  5
3E6
100
AcDbEntity
  8
0
  6
ByLayer
 62
  256
370
   -1
100
AcDbLine
 10
84.10279444196844
 20
81.9734303952572
 11
84.08679444196845
 21
82.22413039525719
  0
LINE
  5
3E7
100
AcDbEntity
  8
0
  6
ByLayer
 62
  256
370
   -1
100
AcDbLine
 10
84.08679444196845
 20
82.22413039525719
 11
84.10279444196844
 21
82.4748303952572
  0
LINE
  5
3E8
100
AcDbEntity
  8
0
  6
ByLayer
 62
  256
370
   -1
100
AcDbLine
 10
84.10279444196844
 20
82.4748303952572
 11
84.14979444196844
 21
82.72153039525719
  0
LINE
  5
3E9
100
AcDbEntity
  8
0
  6
ByLayer
 62
  256
370
   -1
100
AcDbLine
 10
84.14979444196844
 20
82.72153039525719
 11
84.22679444196844
 21
82.9603303952572
  0
LINE
  5
3EA
100
AcDbEntity
  8
0
  6
ByLayer
 62
  256
370
   -1
100
AcDbLine
 10
84.22679444196844
 20
82.9603303952572
 11
84.33379444196844
 21
83.1876303952572
  0
LINE
  5
3EB
100
AcDbEntity
  8
0
  6
ByLayer
 62
  256
370
   -1
100
AcDbLine
 10
84.33379444196844
 20
83.1876303952572
 11
84.46879444196846
 21
83.39973039525719
  0
LINE
  5
3EC
100
AcDbEntity
  8
0
  6
ByLayer
 62
  256
370
   -1
100
AcDbLine
 10
84.46879444196846
 20
83.39973039525719
 11
84.62879444196845
 21
83.59323039525719
  0
LINE
  5
3ED
100
AcDbEntity
  8
0
  6
ByLayer
 62
  256
370
   -1
100
AcDbLine
 10
84.62879444196845
 20
83.59323039525719
 11
84.81179444196844
 21
83.7651303952572
  0
LINE
  5
3EE
100
AcDbEntity
  8
0
  6
ByLayer
 62
  256
370
   -1
100
AcDbLine
 10
84.81179444196844
 20
83.7651303952572
 11
85.01479444196845
 21
83.9128303952572
  0
LINE
  5
3EF
100
AcDbEntity
  8
0
  6
ByLayer
 62
  256
370
   -1
100
AcDbLine
 10
85.01479444196845
 20
83.9128303952572
 11
85.23479444196845
 21
84.03373039525721
  0
LINE
  5
3F0
100
AcDbEntity
  8
0
  6
ByLayer
 62
  256
370
   -1
100
AcDbLine
 10
85.23479444196845
 20
84.03373039525721
 11
85.46879444196846
 21
84.12623039525721
  0
LINE
  5
3F1
100
AcDbEntity
  8
0
  6
ByLayer
 62
  256
370
   -1
100
AcDbLine
 10
85.46879444196846
 20
84.12623039525721
 11
85.71179444196845
 21
84.18873039525721
  0
LINE
  5
3F2
100
AcDbEntity
  8
0
  6
ByLayer
 62
  256
370
   -1
100
AcDbLine
 10
85.71179444196845
 20
84.18873039525721
 11
85.96079444196845
 21
84.2201303952572
  0
LINE
  5
3F3
100
AcDbEntity
  8
0
  6
ByLayer
 62
  256
370
   -1
100
AcDbLine
 10
85.96079444196845
 20
84.2201303952572
 11
86.21279444196846
 21
84.2201303952572
  0
LINE
  5
3F4
100
AcDbEntity
  8
0
  6
ByLayer
 62
  256
370
   -1
100
AcDbLine
 10
86.21279444196846
 20
84.2201303952572
 11
86.46179444196845
 21
84.18873039525721
  0
LINE
  5
3F5
100
AcDbEntity
  8
0
  6
ByLayer
 62
  256
370
   -1
100
AcDbLine
 10
86.46179444196845
 20
84.18873039525721
 11
86.70479444196845
 21
84.12623039525721
  0
LINE
  5
3F6
100
AcDbEntity
  8
0
  6
ByLayer
 62
  256
370
   -1
100
AcDbLine
 10
86.70479444196845
 20
84.12623039525721
 11
86.93879444196845
 21
84.03373039525721
  0
LINE
  5
3F7
100
AcDbEntity
  8
0
  6
ByLayer
 62
  256
370
   -1
100
AcDbLine
 10
86.93879444196845
 20
84.03373039525721
 11
87.15879444196845
 21
83.9128303952572
  0
LINE
  5
3F8
100
AcDbEntity
  8
0
  6
ByLayer
 62
  256
370
   -1
100
AcDbLine
 10
87.15879444196845
 20
83.9128303952572
 11
87.36179444196846
 21
83.7651303952572
  0
LINE
  5
3F9
100
AcDbEntity
  8
0
  6
ByLayer
 62
  256
370
   -1
100
AcDbLine
 10
87.36179444196846
 20
83.7651303952572
 11
87.54479444196845
 21
83.59323039525719
  0
LINE
  5
3FA
100
AcDbEntity
  8
0
  6
ByLayer
 62
  256
370
   -1
100
AcDbLine
 10
87.54479444196845
 20
83.59323039525719
 11
87.70479444196845
 21
83.39973039525719
  0
LINE
  5
3FB
100
AcDbEntity
  8
0
  6
ByLayer
 62
  256
370
   -1
100
AcDbLine
 10
87.70479444196845
 20
83.39973039525719
 11
87.83979444196844
 21
83.1876303952572
  0
LINE
  5
3FC
100
AcDbEntity
  8
0
  6
ByLayer
 62
  256
370
   -1
100
AcDbLine
 10
87.83979444196844
 20
83.1876303952572
 11
87.94679444196844
 21
82.9603303952572
  0
LINE
  5
3FD
100
AcDbEntity
  8
0
  6
ByLayer
 62
  256
370
   -1
100
AcDbLine
 10
87.94679444196844
 20
82.9603303952572
 11
88.02379444196843
 21
82.72153039525719
  0
LINE
  5
3FE
100
AcDbEntity
  8
0
  6
ByLayer
 62
  256
370
   -1
100
AcDbLine
 10
88.02379444196843
 20
82.72153039525719
 11
88.07079444196846
 21
82.4748303952572
  0
LINE
  5
3FF
100
AcDbEntity
  8
0
  6
ByLayer
 62
  256
370
   -1
100
AcDbLine
 10
88.07079444196846
 20
82.4748303952572
 11
88.08679444196845
 21
82.22413039525719
  0
LINE
  5
400
100
AcDbEntity
  8
0
  6
ByLayer
 62
  256
370
   -1
100
AcDbLine
 10
88.08679444196845
 20
82.22413039525719
 11
88.07079444196846
 21
81.9734303952572
  0
LINE
  5
401
100
AcDbEntity
  8
0
  6
ByLayer
 62
  256
370
   -1
100
AcDbLine
 10
88.07079444196846
 20
81.9734303952572
 11
88.02379444196843
 21
81.72673039525719
  0
LINE
  5
402
100
AcDbEntity
  8
0
  6
ByLayer
 62
  256
370
   -1
100
AcDbLine
 10
88.02379444196843
 20
81.72673039525719
 11
87.94679444196844
 21
81.48783039525719
  0
LINE
  5
403
100
AcDbEntity
  8
0
  6
ByLayer
 62
  256
370
   -1
100
AcDbLine
 10
87.94679444196844
 20
81.48783039525719
 11
87.83979444196844
 21
81.26063039525721
  0
LINE
  5
404
100
AcDbEntity
  8
0
  6
ByLayer
 62
  256
370
   -1
100
AcDbLine
 10
87.83979444196844
 20
81.26063039525721
 11
87.70479444196845
 21
81.0485303952572
  0
LINE
  5
405
100
AcDbEntity
  8
0
  6
ByLayer
 62
  256
370
   -1
100
AcDbLine
 10
87.70479444196845
 20
81.0485303952572
 11
87.54479444196845
 21
80.8550303952572
  0
LINE
  5
406
100
AcDbEntity
  8
0
  6
ByLayer
 62
  256
370
   -1
100
AcDbLine
 10
87.54479444196845
 20
80.8550303952572
 11
87.36179444196846
 21
80.68313039525719
  0
LINE
  5
407
100
AcDbEntity
  8
0
  6
ByLayer
 62
  256
370
   -1
100
AcDbLine
 10
87.36179444196846
 20
80.68313039525719
 11
87.15879444196845
 21
80.53543039525721
  0
LINE
  5
408
100
AcDbEntity
  8
0
  6
ByLayer
 62
  256
370
   -1
100
AcDbLine
 10
87.15879444196845
 20
80.53543039525721
 11
86.93879444196845
 21
80.4144303952572
  0
LINE
  5
409
100
AcDbEntity
  8
0
  6
ByLayer
 62
  256
370
   -1
100
AcDbLine
 10
86.93879444196845
 20
80.4144303952572
 11
86.70479444196845
 21
80.3220303952572
  0
LINE
  5
40A
100
AcDbEntity
  8
0
  6
ByLayer
 62
  256
370
   -1
100
AcDbLine
 10
86.70479444196845
 20
80.3220303952572
 11
86.46179444196845
 21
80.2595303952572
  0
LINE
  5
40B
100
AcDbEntity
  8
0
  6
ByLayer
 62
  256
370
   -1
100
AcDbLine
 10
86.46179444196845
 20
80.2595303952572
 11
86.21279444196846
 21
80.22803039525721
  0
LINE
  5
40C
100
AcDbEntity
  8
0
  6
ByLayer
 62
  256
370
   -1
100
AcDbLine
 10
86.21279444196846
 20
80.22803039525721
 11
85.96079444196845
 21
80.22803039525721
  0
LINE
  5
40D
100
AcDbEntity
  8
0
  6
ByLayer
 62
  256
370
   -1
100
AcDbLine
 10
192.9586804079229
 20
86.22484634223086
 11
192.9086804079229
 21
87.02074634223088
  0
LINE
  5
40E
100
AcDbEntity
  8
0
  6
ByLayer
 62
  256
370
   -1
100
AcDbLine
 10
192.9086804079229
 20
87.02074634223088
 11
192.7586804079229
 21
87.80404634223088
  0
LINE
  5
40F
100
AcDbEntity
  8
0
  6
ByLayer
 62
  256
370
   -1
100
AcDbLine
 10
192.7586804079229
 20
87.80404634223088
 11
192.5126804079229
 21
88.56244634223087
  0
LINE
  5
410
100
AcDbEntity
  8
0
  6
ByLayer
 62
  256
370
   -1
100
AcDbLine
 10
192.5126804079229
 20
88.56244634223087
 11
192.1736804079229
 21
89.28394634223086
  0
LINE
  5
411
100
AcDbEntity
  8
0
  6
ByLayer
 62
  256
370
   -1
100
AcDbLine
 10
192.1736804079229
 20
89.28394634223086
 11
191.7456804079229
 21
89.95724634223087
  0
LINE
  5
412
100
AcDbEntity
  8
0
  6
ByLayer
 62
  256
370
   -1
100
AcDbLine
 10
191.7456804079229
 20
89.95724634223087
 11
191.2376804079229
 21
90.57174634223087
  0
LINE
  5
413
100
AcDbEntity
  8
0
  6
ByLayer
 62
  256
370
   -1
100
AcDbLine
 10
191.2376804079229
 20
90.57174634223087
 11
190.6566804079229
 21
91.11764634223087
  0
LINE
  5
414
100
AcDbEntity
  8
0
  6
ByLayer
 62
  256
370
   -1
100
AcDbLine
 10
190.6566804079229
 20
91.11764634223087
 11
190.0106804079229
 21
91.58634634223087
  0
LINE
  5
415
100
AcDbEntity
  8
0
  6
ByLayer
 62
  256
370
   -1
100
AcDbLine
 10
190.0106804079229
 20
91.58634634223087
 11
189.3126804079229
 21
91.97044634223087
  0
LINE
  5
416
100
AcDbEntity
  8
0
  6
ByLayer
 62
  256
370
   -1
100
AcDbLine
 10
189.3126804079229
 20
91.97044634223087
 11
188.5706804079229
 21
92.26404634223087
  0
LINE
  5
417
100
AcDbEntity
  8
0
  6
ByLayer
 62
  256
370
   -1
100
AcDbLine
 10
188.5706804079229
 20
92.26404634223087
 11
187.7986804079229
 21
92.46234634223087
  0
LINE
  5
418
100
AcDbEntity
  8
0
  6
ByLayer
 62
  256
370
   -1
100
AcDbLine
 10
187.7986804079229
 20
92.46234634223087
 11
187.0076804079229
 21
92.56234634223087
  0
LINE
  5
419
100
AcDbEntity
  8
0
  6
ByLayer
 62
  256
370
   -1
100
AcDbLine
 10
187.0076804079229
 20
92.56234634223087
 11
104.5496804079229
 21
92.56234634223087
  0
LINE
  5
41A
100
AcDbEntity
  8
0
  6
ByLayer
 62
  256
370
   -1
100
AcDbLine
 10
104.5496804079229
 20
92.56234634223087
 11
103.7586804079229
 21
92.46234634223087
  0
LINE
  5
41B
100
AcDbEntity
  8
0
  6
ByLayer
 62
  256
370
   -1
100
AcDbLine
 10
103.7586804079229
 20
92.46234634223087
 11
102.9866804079229
 21
92.26404634223087
  0
LINE
  5
41C
100
AcDbEntity
  8
0
  6
ByLayer
 62
  256
370
   -1
100
AcDbLine
 10
102.9866804079229
 20
92.26404634223087
 11
102.2446804079229
 21
91.97044634223087
  0
LINE
  5
41D
100
AcDbEntity
  8
0
  6
ByLayer
 62
  256
370
   -1
100
AcDbLine
 10
102.2446804079229
 20
91.97044634223087
 11
101.5456804079229
 21
91.58634634223087
  0
LINE
  5
41E
100
AcDbEntity
  8
0
  6
ByLayer
 62
  256
370
   -1
100
AcDbLine
 10
101.5456804079229
 20
91.58634634223087
 11
100.9006804079229
 21
91.11764634223087
  0
LINE
  5
41F
100
AcDbEntity
  8
0
  6
ByLayer
 62
  256
370
   -1
100
AcDbLine
 10
100.9006804079229
 20
91.11764634223087
 11
100.3196804079229
 21
90.57174634223087
  0
LINE
  5
420
100
AcDbEntity
  8
0
  6
ByLayer
 62
  256
370
   -1
100
AcDbLine
 10
100.3196804079229
 20
90.57174634223087
 11
99.81168040792289
 21
89.95724634223087
  0
LINE
  5
421
100
AcDbEntity
  8
0
  6
ByLayer
 62
  256
370
   -1
100
AcDbLine
 10
99.81168040792289
 20
89.95724634223087
 11
99.3836804079229
 21
89.28394634223086
  0
LINE
  5
422
100
AcDbEntity
  8
0
  6
ByLayer
 62
  256
370
   -1
100
AcDbLine
 10
99.3836804079229
 20
89.28394634223086
 11
99.0446804079229
 21
88.56244634223087
  0
LINE
  5
423
100
AcDbEntity
  8
0
  6
ByLayer
 62
  256
370
   -1
100
AcDbLine
 10
99.0446804079229
 20
88.56244634223087
 11
98.79768040792288
 21
87.80404634223088
  0
LINE
  5
424
100
AcDbEntity
  8
0
  6
ByLayer
 62
  256
370
   -1
100
AcDbLine
 10
98.79768040792288
 20
87.80404634223088
 11
98.64868040792288
 21
87.02074634223088
  0
LINE
  5
425
100
AcDbEntity
  8
0
  6
ByLayer
 62
  256
370
   -1
100
AcDbLine
 10
98.64868040792288
 20
87.02074634223088
 11
98.5986804079229
 21
86.22484634223086
  0
LINE
  5
426
100
AcDbEntity
  8
0
  6
ByLayer
 62
  256
370
   -1
100
AcDbLine
 10
98.5986804079229
 20
86.22484634223086
 11
98.5986804079229
 21
83.96484634223087
  0
LINE
  5
427
100
AcDbEntity
  8
0
  6
ByLayer
 62
  256
370
   -1
100
AcDbLine
 10
98.5986804079229
 20
83.96484634223087
 11
114.0986804079229
 21
83.96484634223087
  0
LINE
  5
428
100
AcDbEntity
  8
0
  6
ByLayer
 62
  256
370
   -1
100
AcDbLine
 10
114.0986804079229
 20
83.96484634223087
 11
114.0986804079229
 21
80.96484634223087
  0
LINE
  5
429
100
AcDbEntity
  8
0
  6
ByLayer
 62
  256
370
   -1
100
AcDbLine
 10
114.0986804079229
 20
80.96484634223087
 11
120.5986804079229
 21
80.96484634223087
  0
LINE
  5
42A
100
AcDbEntity
  8
0
  6
ByLayer
 62
  256
370
   -1
100
AcDbLine
 10
120.5986804079229
 20
80.96484634223087
 11
120.5986804079229
 21
88.57484634223087
  0
LINE
  5
42B
100
AcDbEntity
  8
0
  6
ByLayer
 62
  256
370
   -1
100
AcDbLine
 10
120.5986804079229
 20
88.57484634223087
 11
179.5986804079229
 21
88.57484634223087
  0
LINE
  5
42C
100
AcDbEntity
  8
0
  6
ByLayer
 62
  256
370
   -1
100
AcDbLine
 10
179.5986804079229
 20
88.57484634223087
 11
179.5986804079229
 21
79.46484634223087
  0
LINE
  5
42D
100
AcDbEntity
  8
0
  6
ByLayer
 62
  256
370
   -1
100
AcDbLine
 10
179.5986804079229
 20
79.46484634223087
 11
192.9586804079229
 21
79.46484634223087
  0
LINE
  5
42E
100
AcDbEntity
  8
0
  6
ByLayer
 62
  256
370
   -1
100
AcDbLine
 10
192.9586804079229
 20
79.46484634223087
 11
192.9586804079229
 21
86.22484634223086
  0
LINE
  5
42F
100
AcDbEntity
  8
0
  6
ByLayer
 62
  256
370
   -1
100
AcDbLine
 10
117.0826804079229
 20
83.53874634223088
 11
116.8336804079229
 21
83.57024634223087
  0
LINE
  5
430
100
AcDbEntity
  8
0
  6
ByLayer
 62
  256
370
   -1
100
AcDbLine
 10
116.8336804079229
 20
83.57024634223087
 11
116.5906804079229
 21
83.63274634223087
  0
LINE
  5
431
100
AcDbEntity
  8
0
  6
ByLayer
 62
  256
370
   -1
100
AcDbLine
 10
116.5906804079229
 20
83.63274634223087
 11
116.3566804079229
 21
83.72514634223087
  0
LINE
  5
432
100
AcDbEntity
  8
0
  6
ByLayer
 62
  256
370
   -1
100
AcDbLine
 10
116.3566804079229
 20
83.72514634223087
 11
116.1366804079229
 21
83.84614634223088
  0
LINE
  5
433
100
AcDbEntity
  8
0
  6
ByLayer
 62
  256
370
   -1
100
AcDbLine
 10
116.1366804079229
 20
83.84614634223088
 11
115.9336804079229
 21
83.99384634223087
  0
LINE
  5
434
100
AcDbEntity
  8
0
  6
ByLayer
 62
  256
370
   -1
100
AcDbLine
 10
115.9336804079229
 20
83.99384634223087
 11
115.7506804079229
 21
84.16574634223086
  0
LINE
  5
435
100
AcDbEntity
  8
0
  6
ByLayer
 62
  256
370
   -1
100
AcDbLine
 10
115.7506804079229
 20
84.16574634223086
 11
115.5906804079229
 21
84.35924634223086
  0
LINE
  5
436
100
AcDbEntity
  8
0
  6
ByLayer
 62
  256
370
   -1
100
AcDbLine
 10
115.5906804079229
 20
84.35924634223086
 11
115.4556804079229
 21
84.57134634223087
  0
LINE
  5
437
100
AcDbEntity
  8
0
  6
ByLayer
 62
  256
370
   -1
100
AcDbLine
 10
115.4556804079229
 20
84.57134634223087
 11
115.3486804079229
 21
84.79854634223086
  0
LINE
  5
438
100
AcDbEntity
  8
0
  6
ByLayer
 62
  256
370
   -1
100
AcDbLine
 10
115.3486804079229
 20
84.79854634223086
 11
115.2716804079229
 21
85.03744634223087
  0
LINE
  5
439
100
AcDbEntity
  8
0
  6
ByLayer
 62
  256
370
   -1
100
AcDbLine
 10
115.2716804079229
 20
85.03744634223087
 11
115.2246804079229
 21
85.28414634223087
  0
LINE
  5
43A
100
AcDbEntity
  8
0
  6
ByLayer
 62
  256
370
   -1
100
AcDbLine
 10
115.2246804079229
 20
85.28414634223087
 11
115.2086804079229
 21
85.53484634223086
  0
LINE
  5
43B
100
AcDbEntity
  8
0
  6
ByLayer
 62
  256
370
   -1
100
AcDbLine
 10
115.2086804079229
 20
85.53484634223086
 11
115.2246804079229
 21
85.78554634223087
  0
LINE
  5
43C
100
AcDbEntity
  8
0
  6
ByLayer
 62
  256
370
   -1
100
AcDbLine
 10
115.2246804079229
 20
85.78554634223087
 11
115.2716804079229
 21
86.03224634223086
  0
LINE
  5
43D
100
AcDbEntity
  8
0
  6
ByLayer
 62
  256
370
   -1
100
AcDbLine
 10
115.2716804079229
 20
86.03224634223086
 11
115.3486804079229
 21
86.27104634223086
  0
LINE
  5
43E
100
AcDbEntity
  8
0
  6
ByLayer
 62
  256
370
   -1
100
AcDbLine
 10
115.3486804079229
 20
86.27104634223086
 11
115.4556804079229
 21
86.49834634223087
  0
LINE
  5
43F
100
AcDbEntity
  8
0
  6
ByLayer
 62
  256
370
   -1
100
AcDbLine
 10
115.4556804079229
 20
86.49834634223087
 11
115.5906804079229
 21
86.71044634223087
  0
LINE
  5
440
100
AcDbEntity
  8
0
  6
ByLayer
 62
  256
370
   -1
100
AcDbLine
 10
115.5906804079229
 20
86.71044634223087
 11
115.7506804079229
 21
86.90394634223087
  0
LINE
  5
441
100
AcDbEntity
  8
0
  6
ByLayer
 62
  256
370
   -1
100
AcDbLine
 10
115.7506804079229
 20
86.90394634223087
 11
115.9336804079229
 21
87.07584634223086
  0
LINE
  5
442
100
AcDbEntity
  8
0
  6
ByLayer
 62
  256
370
   -1
100
AcDbLine
 10
115.9336804079229
 20
87.07584634223086
 11
116.1366804079229
 21
87.22354634223088
  0
LINE
  5
443
100
AcDbEntity
  8
0
  6
ByLayer
 62
  256
370
   -1
100
AcDbLine
 10
116.1366804079229
 20
87.22354634223088
 11
116.3566804079229
 21
87.34454634223087
  0
LINE
  5
444
100
AcDbEntity
  8
0
  6
ByLayer
 62
  256
370
   -1
100
AcDbLine
 10
116.3566804079229
 20
87.34454634223087
 11
116.5906804079229
 21
87.43694634223087
  0
LINE
  5
445
100
AcDbEntity
  8
0
  6
ByLayer
 62
  256
370
   -1
100
AcDbLine
 10
116.5906804079229
 20
87.43694634223087
 11
116.8336804079229
 21
87.49944634223087
  0
LINE
  5
446
100
AcDbEntity
  8
0
  6
ByLayer
 62
  256
370
   -1
100
AcDbLine
 10
116.8336804079229
 20
87.49944634223087
 11
117.0826804079229
 21
87.53084634223087
  0
LINE
  5
447
100
AcDbEntity
  8
0
  6
ByLayer
 62
  256
370
   -1
100
AcDbLine
 10
117.0826804079229
 20
87.53084634223087
 11
117.3346804079229
 21
87.53084634223087
  0
LINE
  5
448
100
AcDbEntity
  8
0
  6
ByLayer
 62
  256
370
   -1
100
AcDbLine
 10
117.3346804079229
 20
87.53084634223087
 11
117.5836804079229
 21
87.49944634223087
  0
LINE
  5
449
100
AcDbEntity
  8
0
  6
ByLayer
 62
  256
370
   -1
100
AcDbLine
 10
117.5836804079229
 20
87.49944634223087
 11
117.8266804079229
 21
87.43694634223087
  0
LINE
  5
44A
100
AcDbEntity
  8
0
  6
ByLayer
 62
  256
370
   -1
100
AcDbLine
 10
117.8266804079229
 20
87.43694634223087
 11
118.0606804079229
 21
87.34454634223087
  0
LINE
  5
44B
100
AcDbEntity
  8
0
  6
ByLayer
 62
  256
370
   -1
100
AcDbLine
 10
118.0606804079229
 20
87.34454634223087
 11
118.2806804079229
 21
87.22354634223088
  0
LINE
  5
44C
100
AcDbEntity
  8
0
  6
ByLayer
 62
  256
370
   -1
100
AcDbLine
 10
118.2806804079229
 20
87.22354634223088
 11
118.4836804079229
 21
87.07584634223086
  0
LINE
  5
44D
100
AcDbEntity
  8
0
  6
ByLayer
 62
  256
370
   -1
100
AcDbLine
 10
118.4836804079229
 20
87.07584634223086
 11
118.6666804079229
 21
86.90394634223087
  0
LINE
  5
44E
100
AcDbEntity
  8
0
  6
ByLayer
 62
  256
370
   -1
100
AcDbLine
 10
118.6666804079229
 20
86.90394634223087
 11
118.8266804079229
 21
86.71044634223087
  0
LINE
  5
44F
100
AcDbEntity
  8
0
  6
ByLayer
 62
  256
370
   -1
100
AcDbLine
 10
118.8266804079229
 20
86.71044634223087
 11
118.9616804079229
 21
86.49834634223087
  0
LINE
  5
450
100
AcDbEntity
  8
0
  6
ByLayer
 62
  256
370
   -1
100
AcDbLine
 10
118.9616804079229
 20
86.49834634223087
 11
119.0686804079229
 21
86.27104634223086
  0
LINE
  5
451
100
AcDbEntity
  8
0
  6
ByLayer
 62
  256
370
   -1
100
AcDbLine
 10
119.0686804079229
 20
86.27104634223086
 11
119.1456804079229
 21
86.03224634223086
  0
LINE
  5
452
100
AcDbEntity
  8
0
  6
ByLayer
 62
  256
370
   -1
100
AcDbLine
 10
119.1456804079229
 20
86.03224634223086
 11
119.1926804079229
 21
85.78554634223087
  0
LINE
  5
453
100
AcDbEntity
  8
0
  6
ByLayer
 62
  256
370
   -1
100
AcDbLine
 10
119.1926804079229
 20
85.78554634223087
 11
119.2086804079229
 21
85.53484634223086
  0
LINE
  5
454
100
AcDbEntity
  8
0
  6
ByLayer
 62
  256
370
   -1
100
AcDbLine
 10
119.2086804079229
 20
85.53484634223086
 11
119.1926804079229
 21
85.28414634223087
  0
LINE
  5
455
100
AcDbEntity
  8
0
  6
ByLayer
 62
  256
370
   -1
100
AcDbLine
 10
119.1926804079229
 20
85.28414634223087
 11
119.1456804079229
 21
85.03744634223087
  0
LINE
  5
456
100
AcDbEntity
  8
0
  6
ByLayer
 62
  256
370
   -1
100
AcDbLine
 10
119.1456804079229
 20
85.03744634223087
 11
119.0686804079229
 21
84.79854634223086
  0
LINE
  5
457
100
AcDbEntity
  8
0
  6
ByLayer
 62
  256
370
   -1
100
AcDbLine
 10
119.0686804079229
 20
84.79854634223086
 11
118.9616804079229
 21
84.57134634223087
  0
LINE
  5
458
100
AcDbEntity
  8
0
  6
ByLayer
 62
  256
370
   -1
100
AcDbLine
 10
118.9616804079229
 20
84.57134634223087
 11
118.8266804079229
 21
84.35924634223086
  0
LINE
  5
459
100
AcDbEntity
  8
0
  6
ByLayer
 62
  256
370
   -1
100
AcDbLine
 10
118.8266804079229
 20
84.35924634223086
 11
118.6666804079229
 21
84.16574634223086
  0
LINE
  5
45A
100
AcDbEntity
  8
0
  6
ByLayer
 62
  256
370
   -1
100
AcDbLine
 10
118.6666804079229
 20
84.16574634223086
 11
118.4836804079229
 21
83.99384634223087
  0
LINE
  5
45B
100
AcDbEntity
  8
0
  6
ByLayer
 62
  256
370
   -1
100
AcDbLine
 10
118.4836804079229
 20
83.99384634223087
 11
118.2806804079229
 21
83.84614634223088
  0
LINE
  5
45C
100
AcDbEntity
  8
0
  6
ByLayer
 62
  256
370
   -1
100
AcDbLine
 10
118.2806804079229
 20
83.84614634223088
 11
118.0606804079229
 21
83.72514634223087
  0
LINE
  5
45D
100
AcDbEntity
  8
0
  6
ByLayer
 62
  256
370
   -1
100
AcDbLine
 10
118.0606804079229
 20
83.72514634223087
 11
117.8266804079229
 21
83.63274634223087
  0
LINE
  5
45E
100
AcDbEntity
  8
0
  6
ByLayer
 62
  256
370
   -1
100
AcDbLine
 10
117.8266804079229
 20
83.63274634223087
 11
117.5836804079229
 21
83.57024634223087
  0
LINE
  5
45F
100
AcDbEntity
  8
0
  6
ByLayer
 62
  256
370
   -1
100
AcDbLine
 10
117.5836804079229
 20
83.57024634223087
 11
117.3346804079229
 21
83.53874634223088
  0
LINE
  5
460
100
AcDbEntity
  8
0
  6
ByLayer
 62
  256
370
   -1
100
AcDbLine
 10
117.3346804079229
 20
83.53874634223088
 11
117.0826804079229
 21
83.53874634223088
  0
LINE
  5
461
100
AcDbEntity
  8
0
  6
ByLayer
 62
  256
370
   -1
100
AcDbLine
 10
183.1826804079229
 20
80.22874634223088
 11
182.9336804079229
 21
80.26024634223087
  0
LINE
  5
462
100
AcDbEntity
  8
0
  6
ByLayer
 62
  256
370
   -1
100
AcDbLine
 10
182.9336804079229
 20
80.26024634223087
 11
182.6906804079229
 21
80.32274634223087
  0
LINE
  5
463
100
AcDbEntity
  8
0
  6
ByLayer
 62
  256
370
   -1
100
AcDbLine
 10
182.6906804079229
 20
80.32274634223087
 11
182.4566804079229
 21
80.41514634223087
  0
LINE
  5
464
100
AcDbEntity
  8
0
  6
ByLayer
 62
  256
370
   -1
100
AcDbLine
 10
182.4566804079229
 20
80.41514634223087
 11
182.2366804079229
 21
80.53614634223088
  0
LINE
  5
465
100
AcDbEntity
  8
0
  6
ByLayer
 62
  256
370
   -1
100
AcDbLine
 10
182.2366804079229
 20
80.53614634223088
 11
182.0336804079229
 21
80.68384634223086
  0
LINE
  5
466
100
AcDbEntity
  8
0
  6
ByLayer
 62
  256
370
   -1
100
AcDbLine
 10
182.0336804079229
 20
80.68384634223086
 11
181.8506804079229
 21
80.85574634223087
  0
LINE
  5
467
100
AcDbEntity
  8
0
  6
ByLayer
 62
  256
370
   -1
100
AcDbLine
 10
181.8506804079229
 20
80.85574634223087
 11
181.6906804079229
 21
81.04924634223087
  0
LINE
  5
468
100
AcDbEntity
  8
0
  6
ByLayer
 62
  256
370
   -1
100
AcDbLine
 10
181.6906804079229
 20
81.04924634223087
 11
181.5556804079229
 21
81.26134634223088
  0
LINE
  5
469
100
AcDbEntity
  8
0
  6
ByLayer
 62
  256
370
   -1
100
AcDbLine
 10
181.5556804079229
 20
81.26134634223088
 11
181.4486804079229
 21
81.48854634223086
  0
LINE
  5
46A
100
AcDbEntity
  8
0
  6
ByLayer
 62
  256
370
   -1
100
AcDbLine
 10
181.4486804079229
 20
81.48854634223086
 11
181.3716804079229
 21
81.72744634223086
  0
LINE
  5
46B
100
AcDbEntity
  8
0
  6
ByLayer
 62
  256
370
   -1
100
AcDbLine
 10
181.3716804079229
 20
81.72744634223086
 11
181.3246804079229
 21
81.97414634223087
  0
LINE
  5
46C
100
AcDbEntity
  8
0
  6
ByLayer
 62
  256
370
   -1
100
AcDbLine
 10
181.3246804079229
 20
81.97414634223087
 11
181.3086804079229
 21
82.22484634223086
  0
LINE
  5
46D
100
AcDbEntity
  8
0
  6
ByLayer
 62
  256
370
   -1
100
AcDbLine
 10
181.3086804079229
 20
82.22484634223086
 11
181.3246804079229
 21
82.47554634223087
  0
LINE
  5
46E
100
AcDbEntity
  8
0
  6
ByLayer
 62
  256
370
   -1
100
AcDbLine
 10
181.3246804079229
 20
82.47554634223087
 11
181.3716804079229
 21
82.72224634223086
  0
LINE
  5
46F
100
AcDbEntity
  8
0
  6
ByLayer
 62
  256
370
   -1
100
AcDbLine
 10
181.3716804079229
 20
82.72224634223086
 11
181.4486804079229
 21
82.96104634223087
  0
LINE
  5
470
100
AcDbEntity
  8
0
  6
ByLayer
 62
  256
370
   -1
100
AcDbLine
 10
181.4486804079229
 20
82.96104634223087
 11
181.5556804079229
 21
83.18834634223087
  0
LINE
  5
471
100
AcDbEntity
  8
0
  6
ByLayer
 62
  256
370
   -1
100
AcDbLine
 10
181.5556804079229
 20
83.18834634223087
 11
181.6906804079229
 21
83.40044634223086
  0
LINE
  5
472
100
AcDbEntity
  8
0
  6
ByLayer
 62
  256
370
   -1
100
AcDbLine
 10
181.6906804079229
 20
83.40044634223086
 11
181.8506804079229
 21
83.59394634223086
  0
LINE
  5
473
100
AcDbEntity
  8
0
  6
ByLayer
 62
  256
370
   -1
100
AcDbLine
 10
181.8506804079229
 20
83.59394634223086
 11
182.0336804079229
 21
83.76584634223087
  0
LINE
  5
474
100
AcDbEntity
  8
0
  6
ByLayer
 62
  256
370
   -1
100
AcDbLine
 10
182.0336804079229
 20
83.76584634223087
 11
182.2366804079229
 21
83.91354634223087
  0
LINE
  5
475
100
AcDbEntity
  8
0
  6
ByLayer
 62
  256
370
   -1
100
AcDbLine
 10
182.2366804079229
 20
83.91354634223087
 11
182.4566804079229
 21
84.03444634223088
  0
LINE
  5
476
100
AcDbEntity
  8
0
  6
ByLayer
 62
  256
370
   -1
100
AcDbLine
 10
182.4566804079229
 20
84.03444634223088
 11
182.6906804079229
 21
84.12694634223088
  0
LINE
  5
477
100
AcDbEntity
  8
0
  6
ByLayer
 62
  256
370
   -1
100
AcDbLine
 10
182.6906804079229
 20
84.12694634223088
 11
182.9336804079229
 21
84.18944634223088
  0
LINE
  5
478
100
AcDbEntity
  8
0
  6
ByLayer
 62
  256
370
   -1
100
AcDbLine
 10
182.9336804079229
 20
84.18944634223088
 11
183.1826804079229
 21
84.22084634223087
  0
LINE
  5
479
100
AcDbEntity
  8
0
  6
ByLayer
 62
  256
370
   -1
100
AcDbLine
 10
183.1826804079229
 20
84.22084634223087
 11
183.4346804079229
 21
84.22084634223087
  0
LINE
  5
47A
100
AcDbEntity
  8
0
  6
ByLayer
 62
  256
370
   -1
100
AcDbLine
 10
183.4346804079229
 20
84.22084634223087
 11
183.6836804079229
 21
84.18944634223088
  0
LINE
  5
47B
100
AcDbEntity
  8
0
  6
ByLayer
 62
  256
370
   -1
100
AcDbLine
 10
183.6836804079229
 20
84.18944634223088
 11
183.9266804079229
 21
84.12694634223088
  0
LINE
  5
47C
100
AcDbEntity
  8
0
  6
ByLayer
 62
  256
370
   -1
100
AcDbLine
 10
183.9266804079229
 20
84.12694634223088
 11
184.1606804079229
 21
84.03444634223088
  0
LINE
  5
47D
100
AcDbEntity
  8
0
  6
ByLayer
 62
  256
370
   -1
100
AcDbLine
 10
184.1606804079229
 20
84.03444634223088
 11
184.3806804079229
 21
83.91354634223087
  0
LINE
  5
47E
100
AcDbEntity
  8
0
  6
ByLayer
 62
  256
370
   -1
100
AcDbLine
 10
184.3806804079229
 20
83.91354634223087
 11
184.5836804079229
 21
83.76584634223087
  0
LINE
  5
47F
100
AcDbEntity
  8
0
  6
ByLayer
 62
  256
370
   -1
100
AcDbLine
 10
184.5836804079229
 20
83.76584634223087
 11
184.7666804079229
 21
83.59394634223086
  0
LINE
  5
480
100
AcDbEntity
  8
0
  6
ByLayer
 62
  256
370
   -1
100
AcDbLine
 10
184.7666804079229
 20
83.59394634223086
 11
184.9266804079229
 21
83.40044634223086
  0
LINE
  5
481
100
AcDbEntity
  8
0
  6
ByLayer
 62
  256
370
   -1
100
AcDbLine
 10
184.9266804079229
 20
83.40044634223086
 11
185.0616804079229
 21
83.18834634223087
  0
LINE
  5
482
100
AcDbEntity
  8
0
  6
ByLayer
 62
  256
370
   -1
100
AcDbLine
 10
185.0616804079229
 20
83.18834634223087
 11
185.1686804079229
 21
82.96104634223087
  0
LINE
  5
483
100
AcDbEntity
  8
0
  6
ByLayer
 62
  256
370
   -1
100
AcDbLine
 10
185.1686804079229
 20
82.96104634223087
 11
185.2456804079229
 21
82.72224634223086
  0
LINE
  5
484
100
AcDbEntity
  8
0
  6
ByLayer
 62
  256
370
   -1
100
AcDbLine
 10
185.2456804079229
 20
82.72224634223086
 11
185.2926804079229
 21
82.47554634223087
  0
LINE
  5
485
100
AcDbEntity
  8
0
  6
ByLayer
 62
  256
370
   -1
100
AcDbLine
 10
185.2926804079229
 20
82.47554634223087
 11
185.3086804079229
 21
82.22484634223086
  0
LINE
  5
486
100
AcDbEntity
  8
0
  6
ByLayer
 62
  256
370
   -1
100
AcDbLine
 10
185.3086804079229
 20
82.22484634223086
 11
185.2926804079229
 21
81.97414634223087
  0
LINE
  5
487
100
AcDbEntity
  8
0
  6
ByLayer
 62
  256
370
   -1
100
AcDbLine
 10
185.2926804079229
 20
81.97414634223087
 11
185.2456804079229
 21
81.72744634223086
  0
LINE
  5
488
100
AcDbEntity
  8
0
  6
ByLayer
 62
  256
370
   -1
100
AcDbLine
 10
185.2456804079229
 20
81.72744634223086
 11
185.1686804079229
 21
81.48854634223086
  0
LINE
  5
489
100
AcDbEntity
  8
0
  6
ByLayer
 62
  256
370
   -1
100
AcDbLine
 10
185.1686804079229
 20
81.48854634223086
 11
185.0616804079229
 21
81.26134634223088
  0
LINE
  5
48A
100
AcDbEntity
  8
0
  6
ByLayer
 62
  256
370
   -1
100
AcDbLine
 10
185.0616804079229
 20
81.26134634223088
 11
184.9266804079229
 21
81.04924634223087
  0
LINE
  5
48B
100
AcDbEntity
  8
0
  6
ByLayer
 62
  256
370
   -1
100
AcDbLine
 10
184.9266804079229
 20
81.04924634223087
 11
184.7666804079229
 21
80.85574634223087
  0
LINE
  5
48C
100
AcDbEntity
  8
0
  6
ByLayer
 62
  256
370
   -1
100
AcDbLine
 10
184.7666804079229
 20
80.85574634223087
 11
184.5836804079229
 21
80.68384634223086
  0
LINE
  5
48D
100
AcDbEntity
  8
0
  6
ByLayer
 62
  256
370
   -1
100
AcDbLine
 10
184.5836804079229
 20
80.68384634223086
 11
184.3806804079229
 21
80.53614634223088
  0
LINE
  5
48E
100
AcDbEntity
  8
0
  6
ByLayer
 62
  256
370
   -1
100
AcDbLine
 10
184.3806804079229
 20
80.53614634223088
 11
184.1606804079229
 21
80.41514634223087
  0
LINE
  5
48F
100
AcDbEntity
  8
0
  6
ByLayer
 62
  256
370
   -1
100
AcDbLine
 10
184.1606804079229
 20
80.41514634223087
 11
183.9266804079229
 21
80.32274634223087
  0
LINE
  5
490
100
AcDbEntity
  8
0
  6
ByLayer
 62
  256
370
   -1
100
AcDbLine
 10
183.9266804079229
 20
80.32274634223087
 11
183.6836804079229
 21
80.26024634223087
  0
LINE
  5
491
100
AcDbEntity
  8
0
  6
ByLayer
 62
  256
370
   -1
100
AcDbLine
 10
183.6836804079229
 20
80.26024634223087
 11
183.4346804079229
 21
80.22874634223088
  0
LINE
  5
492
100
AcDbEntity
  8
0
  6
ByLayer
 62
  256
370
   -1
100
AcDbLine
 10
183.4346804079229
 20
80.22874634223088
 11
183.1826804079229
 21
80.22874634223088
  0
ENDSEC
  0
SECTION
  2
OBJECTS
  0
DICTIONARY
  5
C
330
0
100
AcDbDictionary
281
    1
  3
ACAD_GROUP
350
D
  0
DICTIONARY
  5
D
330
C
100
AcDbDictionary
281
    1
  0
ENDSEC
  0
EOF
