999
dxfrw 0.6.3
  0
SECTION
  2
HEADER
  9
$ACADVER
  1
AC1021
  9
$DWGCODEPAGE
  3
ANSI_1252
  9
$INSBASE
 10
0
 20
0
 30
0
  9
$EXTMIN
 10
0
 20
0.0125275
 30
0
  9
$EXTMAX
 10
420.74
 20
98.56529029492658
 30
0
  9
$LIMMIN
 10
0
 20
0
  9
$LIMMAX
 10
420
 20
297
  9
$ORTHOMODE
 70
    0
  9
$REGENMODE
 70
    1
  9
$FILLMODE
 70
    1
  9
$QTEXTMODE
 70
    0
  9
$MIRRTEXT
 70
    0
  9
$LTSCALE
 40
1
  9
$ATTMODE
 70
    0
  9
$TEXTSIZE
 40
2.5
  9
$TRACEWID
 40
15.68
  9
$TEXTSTYLE
  7
STANDARD
  9
$CLAYER
  8
0
  9
$CELTYPE
  6
BYLAYER
  9
$CECOLOR
 62
  256
  9
$CELTSCALE
 40
1
  9
$DISPSILH
 70
    0
  9
$DIMSCALE
 40
2.5
  9
$DIMASZ
 40
2.5
  9
$DIMEXO
 40
0.625
  9
$DIMDLI
 40
3.75
  9
$DIMRND
 40
0
  9
$DIMDLE
 40
0
  9
$DIMEXE
 40
1.25
  9
$DIMTP
 40
0
  9
$DIMTM
 40
0
  9
$DIMTXT
 40
2.5
  9
$DIMCEN
 40
2.5
  9
$DIMTSZ
 40
0
  9
$DIMTOL
 70
    0
  9
$DIMLIM
 70
    0
  9
$DIMTIH
 70
    0
  9
$DIMTOH
 70
    0
  9
$DIMSE1
 70
    0
  9
$DIMSE2
 70
    0
  9
$DIMTAD
 70
    1
  9
$DIMZIN
 70
    8
  9
$DIMBLK
  1

  9
$DIMASO
 70
    1
  9
$DIMSHO
 70
    1
  9
$DIMPOST
  1

  9
$DIMAPOST
  1

  9
$DIMALT
 70
    0
  9
$DIMALTD
 70
    3
  9
$DIMALTF
 40
0.03937
  9
$DIMLFAC
 40
1
  9
$DIMTOFL
 70
    1
  9
$DIMTVP
 40
0
  9
$DIMTIX
 70
    0
  9
$DIMSOXD
 70
    0
  9
$DIMSAH
 70
    0
  9
$DIMBLK1
  1

  9
$DIMBLK2
  1

  9
$DIMSTYLE
  2
Standard
  9
$DIMCLRD
 70
    0
  9
$DIMCLRE
 70
    0
  9
$DIMCLRT
 70
    0
  9
$DIMTFAC
 40
1
  9
$DIMGAP
 40
0.625
  9
$DIMJUST
 70
    0
  9
$DIMSD1
 70
    0
  9
$DIMSD2
 70
    0
  9
$DIMTOLJ
 70
    0
  9
$DIMTZIN
 70
    8
  9
$DIMALTZ
 70
    0
  9
$DIMALTTZ
 70
    0
  9
$DIMUPT
 70
    0
  9
$DIMDEC
 70
    2
  9
$DIMTDEC
 70
    2
  9
$DIMALTU
 70
    2
  9
$DIMALTTD
 70
    3
  9
$DIMTXSTY
  7
STANDARD
  9
$DIMAUNIT
 70
    0
  9
$DIMADEC
 70
    0
  9
$DIMALTRND
 40
0
  9
$DIMAZIN
 70
    0
  9
$DIMDSEP
 70
   44
  9
$DIMATFIT
 70
    3
  9
$DIMFRAC
 70
    0
  9
$DIMLDRBLK
  1
STANDARD
  9
$DIMLUNIT
 70
    2
  9
$DIMLWD
 70
   -2
  9
$DIMLWE
 70
   -2
  9
$DIMTMOVE
 70
    0
  9
$DIMFXL
 40
1
  9
$DIMFXLON
 70
    0
  9
$DIMJOGANG
 40
0.7854
  9
$DIMTFILL
 70
    0
  9
$DIMTFILLCLR
 70
    0
  9
$DIMARCSYM
 70
    0
  9
$DIMLTYPE
  6

  9
$DIMLTEX1
  6

  9
$DIMLTEX2
  6

  9
$LUNITS
 70
    2
  9
$LUPREC
 70
    4
  9
$SKETCHINC
 40
1
  9
$FILLETRAD
 40
0
  9
$AUNITS
 70
    0
  9
$AUPREC
 70
    2
  9
$MENU
  1
.
  9
$ELEVATION
 40
0
  9
$PELEVATION
 40
0
  9
$THICKNESS
 40
0
  9
$LIMCHECK
 70
    0
  9
$CHAMFERA
 40
0
  9
$CHAMFERB
 40
0
  9
$CHAMFERC
 40
0
  9
$CHAMFERD
 40
0
  9
$SKPOLY
 70
    0
  9
$USRTIMER
 70
    1
  9
$ANGBASE
 50
0
  9
$ANGDIR
 70
    0
  9
$PDMODE
 70
   34
  9
$PDSIZE
 40
0
  9
$PLINEWID
 40
0
  9
$SPLFRAME
 70
    0
  9
$SPLINETYPE
 70
    2
  9
$SPLINESEGS
 70
    8
  9
$HANDSEED
  5
20000
  9
$SURFTAB1
 70
    6
  9
$SURFTAB2
 70
    6
  9
$SURFTYPE
 70
    6
  9
$SURFU
 70
    6
  9
$SURFV
 70
    6
  9
$UCSBASE
  2

  9
$UCSNAME
  2

  9
$UCSORG
 10
0
 20
0
 30
0
  9
$UCSXDIR
 10
1
 20
0
 30
0
  9
$UCSYDIR
 10
0
 20
1
 30
0
  9
$UCSORTHOREF
  2

  9
$UCSORTHOVIEW
 70
    0
  9
$UCSORGTOP
 10
0
 20
0
 30
0
  9
$UCSORGBOTTOM
 10
0
 20
0
 30
0
  9
$UCSORGLEFT
 10
0
 20
0
 30
0
  9
$UCSORGRIGHT
 10
0
 20
0
 30
0
  9
$UCSORGFRONT
 10
0
 20
0
 30
0
  9
$UCSORGBACK
 10
0
 20
0
 30
0
  9
$PUCSBASE
  2

  9
$PUCSNAME
  2

  9
$PUCSORG
 10
0
 20
0
 30
0
  9
$PUCSXDIR
 10
1
 20
0
 30
0
  9
$PUCSYDIR
 10
0
 20
1
 30
0
  9
$PUCSORTHOREF
  2

  9
$PUCSORTHOVIEW
 70
    0
  9
$PUCSORGTOP
 10
0
 20
0
 30
0
  9
$PUCSORGBOTTOM
 10
0
 20
0
 30
0
  9
$PUCSORGLEFT
 10
0
 20
0
 30
0
  9
$PUCSORGRIGHT
 10
0
 20
0
 30
0
  9
$PUCSORGFRONT
 10
0
 20
0
 30
0
  9
$PUCSORGBACK
 10
0
 20
0
 30
0
  9
$USERI1
 70
    0
  9
$USERI2
 70
    0
  9
$USERI3
 70
    0
  9
$USERI4
 70
    0
  9
$USERI5
 70
    0
  9
$USERR1
 40
0
  9
$USERR2
 40
0
  9
$USERR3
 40
0
  9
$USERR4
 40
0
  9
$USERR5
 40
0
  9
$WORLDVIEW
 70
    1
  9
$SHADEDGE
 70
    3
  9
$SHADEDIF
 70
   70
  9
$TILEMODE
 70
    1
  9
$MAXACTVP
 70
   64
  9
$PINSBASE
 10
0
 20
0
 30
0
  9
$PLIMCHECK
 70
    0
  9
$PEXTMIN
 10
0
 20
0
 30
0
  9
$PEXTMAX
 10
0
 20
0
 30
0
  9
$SNAPSTYLE
 70
    0
  9
$PLIMMIN
 10
0
 20
0
  9
$PLIMMAX
 10
210
 20
297
  9
$UNITMODE
 70
    0
  9
$VISRETAIN
 70
    1
  9
$PLINEGEN
 70
    0
  9
$PSLTSCALE
 70
    1
  9
$TREEDEPTH
 70
 3020
  9
$CMLSTYLE
  2
Standard
  9
$CMLJUST
 70
    0
  9
$CMLSCALE
 40
20
  9
$PROXYGRAPHICS
 70
    1
  9
$MEASUREMENT
 70
    1
  9
$CELWEIGHT
370
   -1
  9
$ENDCAPS
280
    0
  9
$JOINSTYLE
280
    0
  9
$LWDISPLAY
290
    0
  9
$INSUNITS
 70
    4
  9
$HYPERLINKBASE
  1

  9
$STYLESHEET
  1

  9
$XEDIT
290
    1
  9
$CEPSNTYPE
380
    0
  9
$PSTYLEMODE
290
    1
  9
$EXTNAMES
290
    1
  9
$PSVPSCALE
 40
1
  9
$OLESTARTUP
290
    0
  9
$SORTENTS
280
  127
  9
$INDEXCTL
280
    0
  9
$HIDETEXT
280
    1
  9
$XCLIPFRAME
290
    0
  9
$HALOGAP
280
    0
  9
$OBSCOLOR
 70
  257
  9
$OBSLTYPE
280
    0
  9
$INTERSECTIONDISPLAY
280
    0
  9
$INTERSECTIONCOLOR
 70
  257
  9
$DIMASSOC
280
    1
  9
$PROJECTNAME
  1

  9
$CAMERADISPLAY
290
    0
  9
$LENSLENGTH
 40
50
  9
$CAMERAHEIGHT
 40
0
  9
$STEPSPERSEC
 40
2
  9
$STEPSIZE
 40
50
  9
$3DDWFPREC
 40
2
  9
$PSOLWIDTH
 40
5
  9
$PSOLHEIGHT
 40
80
  9
$LOFTANG1
 40
1.570796326794897
  9
$LOFTANG2
 40
1.570796326794897
  9
$LOFTMAG1
 40
0
  9
$LOFTMAG2
 40
0
  9
$LOFTPARAM
 70
    7
  9
$LOFTNORMALS
280
    1
  9
$LATITUDE
 40
1
  9
$LONGITUDE
 40
1
  9
$NORTHDIRECTION
 40
0
  9
$TIMEZONE
 70
-8000
  9
$LIGHTGLYPHDISPLAY
280
    1
  9
$TILEMODELIGHTSYNCH
280
    1
  9
$SOLIDHIST
280
    1
  9
$SHOWHIST
280
    1
  9
$DWFFRAME
280
    2
  9
$DGNFRAME
280
    0
  9
$REALWORLDSCALE
290
    1
  9
$INTERFERECOLOR
 62
    1
  9
$CSHADOW
280
    0
  9
$SHADOWPLANELOCATION
 40
0
  0
ENDSEC
  0
SECTION
  2
CLASSES
  0
ENDSEC
  0
SECTION
  2
TABLES
  0
TABLE
  2
VPORT
  5
8
330
0
100
AcDbSymbolTable
 70
    1
  0
VPORT
  5
31
330
2
100
AcDbSymbolTableRecord
100
AcDbViewportTableRecord
  2
*ACTIVE
 70
    0
 10
0
 20
0
 11
1
 21
1
 12
207.8619286155247
 22
71.23710317376273
 13
0
 23
0
 14
10
 24
10
 15
10
 25
10
 16
0
 26
0
 36
1
 17
0
 27
0
 37
0
 40
210.5777126074863
 41
1.996031746031746
 42
50
 43
0
 44
0
 50
0
 51
0
 71
    0
 72
  100
 73
    1
 74
    3
 75
    0
 76
    1
 77
    0
 78
    0
281
    0
 65
    1
110
0
120
0
130
0
111
1
121
0
131
0
112
0
122
1
132
0
 79
    0
146
0
348
10020
 60
    7
 61
    5
292
1
282
    1
141
0
142
0
 63
  250
421
3358443
  0
ENDTAB
  0
TABLE
  2
LTYPE
  5
5
330
0
100
AcDbSymbolTable
 70
    4
  0
LTYPE
  5
14
330
5
100
AcDbSymbolTableRecord
100
AcDbLinetypeTableRecord
  2
ByBlock
 70
    0
  3

 72
   65
 73
    0
 40
0
  0
LTYPE
  5
15
330
5
100
AcDbSymbolTableRecord
100
AcDbLinetypeTableRecord
  2
ByLayer
 70
    0
  3

 72
   65
 73
    0
 40
0
  0
LTYPE
  5
16
330
5
100
AcDbSymbolTableRecord
100
AcDbLinetypeTableRecord
  2
Continuous
 70
    0
  3
Solid line
 72
   65
 73
    0
 40
0
  0
LTYPE
  5
32
330
5
100
AcDbSymbolTableRecord
100
AcDbLinetypeTableRecord
  2
DOT
 70
    0
  3
Dot . . . . . . . . . . . . . . . . . . . . . .
 72
   65
 73
    2
 40
6.35
 49
0
 74
    0
 49
-6.35
 74
    0
  0
LTYPE
  5
33
330
5
100
AcDbSymbolTableRecord
100
AcDbLinetypeTableRecord
  2
DOTTINY
 70
    0
  3
Dot (.15x) .....................................
 72
   65
 73
    2
 40
0.9525
 49
0
 74
    0
 49
-0.9525
 74
    0
  0
LTYPE
  5
34
330
5
100
AcDbSymbolTableRecord
100
AcDbLinetypeTableRecord
  2
DOT2
 70
    0
  3
Dot (.5x) .....................................
 72
   65
 73
    2
 40
3.175
 49
0
 74
    0
 49
-3.175
 74
    0
  0
LTYPE
  5
35
330
5
100
AcDbSymbolTableRecord
100
AcDbLinetypeTableRecord
  2
DOTX2
 70
    0
  3
Dot (2x) .  .  .  .  .  .  .  .  .  .  .  .  .
 72
   65
 73
    2
 40
12.7
 49
0
 74
    0
 49
-12.7
 74
    0
  0
LTYPE
  5
36
330
5
100
AcDbSymbolTableRecord
100
AcDbLinetypeTableRecord
  2
DASHED
 70
    0
  3
Dashed _ _ _ _ _ _ _ _ _ _ _ _ _ _ _ _ _
 72
   65
 73
    2
 40
19.05
 49
12.7
 74
    0
 49
-6.35
 74
    0
  0
LTYPE
  5
37
330
5
100
AcDbSymbolTableRecord
100
AcDbLinetypeTableRecord
  2
DASHEDTINY
 70
    0
  3
Dashed (.15x) _ _ _ _ _ _ _ _ _ _ _ _ _ _ _ _ _
 72
   65
 73
    2
 40
2.8575
 49
1.905
 74
    0
 49
-0.9525
 74
    0
  0
LTYPE
  5
38
330
5
100
AcDbSymbolTableRecord
100
AcDbLinetypeTableRecord
  2
DASHED2
 70
    0
  3
Dashed (.5x) _ _ _ _ _ _ _ _ _ _ _ _ _ _ _ _ _
 72
   65
 73
    2
 40
9.524999999999999
 49
6.35
 74
    0
 49
-3.175
 74
    0
  0
LTYPE
  5
39
330
5
100
AcDbSymbolTableRecord
100
AcDbLinetypeTableRecord
  2
DASHEDX2
 70
    0
  3
Dashed (2x) ____  ____  ____  ____  ____  ___
 72
   65
 73
    2
 40
38.09999999999999
 49
25.4
 74
    0
 49
-12.7
 74
    0
  0
LTYPE
  5
3A
330
5
100
AcDbSymbolTableRecord
100
AcDbLinetypeTableRecord
  2
DASHDOT
 70
    0
  3
Dash dot __ . __ . __ . __ . __ . __ . __ . __
 72
   65
 73
    4
 40
25.4
 49
12.7
 74
    0
 49
-6.35
 74
    0
 49
0
 74
    0
 49
-6.35
 74
    0
  0
LTYPE
  5
3B
330
5
100
AcDbSymbolTableRecord
100
AcDbLinetypeTableRecord
  2
DASHDOTTINY
 70
    0
  3
Dash dot (.15x) _._._._._._._._._._._._._._._.
 72
   65
 73
    4
 40
3.81
 49
1.905
 74
    0
 49
-0.9525
 74
    0
 49
0
 74
    0
 49
-0.9525
 74
    0
  0
LTYPE
  5
3C
330
5
100
AcDbSymbolTableRecord
100
AcDbLinetypeTableRecord
  2
DASHDOT2
 70
    0
  3
Dash dot (.5x) _._._._._._._._._._._._._._._.
 72
   65
 73
    4
 40
12.7
 49
6.35
 74
    0
 49
-3.175
 74
    0
 49
0
 74
    0
 49
-3.175
 74
    0
  0
LTYPE
  5
3D
330
5
100
AcDbSymbolTableRecord
100
AcDbLinetypeTableRecord
  2
DASHDOTX2
 70
    0
  3
Dash dot (2x) ____  .  ____  .  ____  .  ___
 72
   65
 73
    4
 40
50.8
 49
25.4
 74
    0
 49
-12.7
 74
    0
 49
0
 74
    0
 49
-12.7
 74
    0
  0
LTYPE
  5
3E
330
5
100
AcDbSymbolTableRecord
100
AcDbLinetypeTableRecord
  2
DIVIDE
 70
    0
  3
Divide ____ . . ____ . . ____ . . ____ . . ____
 72
   65
 73
    6
 40
31.75
 49
12.7
 74
    0
 49
-6.35
 74
    0
 49
0
 74
    0
 49
-6.35
 74
    0
 49
0
 74
    0
 49
-6.35
 74
    0
  0
LTYPE
  5
3F
330
5
100
AcDbSymbolTableRecord
100
AcDbLinetypeTableRecord
  2
DIVIDETINY
 70
    0
  3
Divide (.15x) __..__..__..__..__..__..__..__.._
 72
   65
 73
    6
 40
4.7625
 49
1.905
 74
    0
 49
-0.9525
 74
    0
 49
0
 74
    0
 49
-0.9525
 74
    0
 49
0
 74
    0
 49
-0.9525
 74
    0
  0
LTYPE
  5
40
330
5
100
AcDbSymbolTableRecord
100
AcDbLinetypeTableRecord
  2
DIVIDE2
 70
    0
  3
Divide (.5x) __..__..__..__..__..__..__..__.._
 72
   65
 73
    6
 40
15.875
 49
6.35
 74
    0
 49
-3.175
 74
    0
 49
0
 74
    0
 49
-3.175
 74
    0
 49
0
 74
    0
 49
-3.175
 74
    0
  0
LTYPE
  5
41
330
5
100
AcDbSymbolTableRecord
100
AcDbLinetypeTableRecord
  2
DIVIDEX2
 70
    0
  3
Divide (2x) ________  .  .  ________  .  .  _
 72
   65
 73
    6
 40
63.5
 49
25.4
 74
    0
 49
-12.7
 74
    0
 49
0
 74
    0
 49
-12.7
 74
    0
 49
0
 74
    0
 49
-12.7
 74
    0
  0
LTYPE
  5
42
330
5
100
AcDbSymbolTableRecord
100
AcDbLinetypeTableRecord
  2
BORDER
 70
    0
  3
Border __ __ . __ __ . __ __ . __ __ . __ __ .
 72
   65
 73
    6
 40
44.45
 49
12.7
 74
    0
 49
-6.35
 74
    0
 49
12.7
 74
    0
 49
-6.35
 74
    0
 49
0
 74
    0
 49
-6.35
 74
    0
  0
LTYPE
  5
43
330
5
100
AcDbSymbolTableRecord
100
AcDbLinetypeTableRecord
  2
BORDERTINY
 70
    0
  3
Border (.15x) __.__.__.__.__.__.__.__.__.__.__.
 72
   65
 73
    6
 40
6.6675
 49
1.905
 74
    0
 49
-0.9525
 74
    0
 49
1.905
 74
    0
 49
-0.9525
 74
    0
 49
0
 74
    0
 49
-0.9525
 74
    0
  0
LTYPE
  5
44
330
5
100
AcDbSymbolTableRecord
100
AcDbLinetypeTableRecord
  2
BORDER2
 70
    0
  3
Border (.5x) __.__.__.__.__.__.__.__.__.__.__.
 72
   65
 73
    6
 40
22.225
 49
6.35
 74
    0
 49
-3.175
 74
    0
 49
6.35
 74
    0
 49
-3.175
 74
    0
 49
0
 74
    0
 49
-3.175
 74
    0
  0
LTYPE
  5
45
330
5
100
AcDbSymbolTableRecord
100
AcDbLinetypeTableRecord
  2
BORDERX2
 70
    0
  3
Border (2x) ____  ____  .  ____  ____  .  ___
 72
   65
 73
    6
 40
88.89999999999999
 49
25.4
 74
    0
 49
-12.7
 74
    0
 49
25.4
 74
    0
 49
-12.7
 74
    0
 49
0
 74
    0
 49
-12.7
 74
    0
  0
LTYPE
  5
46
330
5
100
AcDbSymbolTableRecord
100
AcDbLinetypeTableRecord
  2
CENTER
 70
    0
  3
Center ____ _ ____ _ ____ _ ____ _ ____ _ ____
 72
   65
 73
    4
 40
50.8
 49
31.75
 74
    0
 49
-6.35
 74
    0
 49
6.35
 74
    0
 49
-6.35
 74
    0
  0
LTYPE
  5
47
330
5
100
AcDbSymbolTableRecord
100
AcDbLinetypeTableRecord
  2
CENTERTINY
 70
    0
  3
Center (.15x) ___ _ ___ _ ___ _ ___ _ ___ _ ___
 72
   65
 73
    4
 40
7.619999999999999
 49
4.7625
 74
    0
 49
-0.9525
 74
    0
 49
0.9525
 74
    0
 49
-0.9525
 74
    0
  0
LTYPE
  5
48
330
5
100
AcDbSymbolTableRecord
100
AcDbLinetypeTableRecord
  2
CENTER2
 70
    0
  3
Center (.5x) ___ _ ___ _ ___ _ ___ _ ___ _ ___
 72
   65
 73
    4
 40
28.575
 49
19.05
 74
    0
 49
-3.175
 74
    0
 49
3.175
 74
    0
 49
-3.175
 74
    0
  0
LTYPE
  5
49
330
5
100
AcDbSymbolTableRecord
100
AcDbLinetypeTableRecord
  2
CENTERX2
 70
    0
  3
Center (2x) ________  __  ________  __  _____
 72
   65
 73
    4
 40
101.6
 49
63.5
 74
    0
 49
-12.7
 74
    0
 49
12.7
 74
    0
 49
-12.7
 74
    0
  0
ENDTAB
  0
TABLE
  2
LAYER
  5
2
330
0
100
AcDbSymbolTable
 70
    1
  0
LAYER
  5
10
330
2
100
AcDbSymbolTableRecord
100
AcDbLayerTableRecord
  2
0
 70
    0
 62
    7
  6
CONTINUOUS
370
    0
390
F
  0
ENDTAB
  0
TABLE
  2
STYLE
  5
3
330
0
100
AcDbSymbolTable
 70
    3
  0
STYLE
  5
4A
330
2
100
AcDbSymbolTableRecord
100
AcDbTextStyleTableRecord
  2
Standard
 70
    0
 40
0
 41
1
 50
0
 71
    0
 42
1
  3
txt
  4

  0
ENDTAB
  0
TABLE
  2
VIEW
  5
6
330
0
100
AcDbSymbolTable
 70
    0
  0
ENDTAB
  0
TABLE
  2
UCS
  5
7
330
0
100
AcDbSymbolTable
 70
    0
  0
ENDTAB
  0
TABLE
  2
APPID
  5
9
330
0
100
AcDbSymbolTable
 70
    1
  0
APPID
  5
12
330
9
100
AcDbSymbolTableRecord
100
AcDbRegAppTableRecord
  2
ACAD
 70
    0
  0
APPID
  5
4B
330
9
100
AcDbSymbolTableRecord
100
AcDbRegAppTableRecord
  2
LibreCad
 70
    0
  0
ENDTAB
  0
TABLE
  2
DIMSTYLE
  5
A
330
0
100
AcDbSymbolTable
 70
    1
100
AcDbDimStyleTable
 71
    1
  0
DIMSTYLE
105
4C
330
A
100
AcDbSymbolTableRecord
100
AcDbDimStyleTableRecord
  2
Standard
 70
    0
 40
1
 41
2.5
 42
0.625
 43
0.38
 44
1.25
 45
0
 46
0
 47
0
 48
0
 49
1
140
2.5
141
0.09
142
2.5
143
25.4
144
1
145
0
146
1
147
0.625
148
0
 71
    0
 72
    0
 73
    0
 74
    1
 75
    0
 76
    0
 77
    0
 78
    1
 79
    0
170
    0
171
    2
172
    0
173
    0
174
    0
175
    0
176
    0
177
    0
178
    0
179
    0
271
    2
272
    4
273
    2
274
    2
275
    0
276
    0
277
    2
278
    0
279
    0
280
    0
281
    0
282
    0
283
    1
284
    0
285
    0
286
    0
288
    0
289
    3
340
standard
341

371
   -2
372
   -2
  0
ENDTAB
  0
TABLE
  2
BLOCK_RECORD
  5
1
330
0
100
AcDbSymbolTable
 70
    2
  0
BLOCK_RECORD
  5
1F
330
1
100
AcDbSymbolTableRecord
100
AcDbBlockTableRecord
  2
*Model_Space
 70
    0
280
    1
281
    0
  0
BLOCK_RECORD
  5
1E
330
1
100
AcDbSymbolTableRecord
100
AcDbBlockTableRecord
  2
*Paper_Space
 70
    0
280
    1
281
    0
  0
ENDTAB
  0
ENDSEC
  0
SECTION
  2
BLOCKS
  0
BLOCK
  5
20
330
1F
100
AcDbEntity
  8
0
100
AcDbBlockBegin
  2
*Model_Space
 70
    0
 10
0
 20
0
 30
0
  3
*Model_Space
  1

  0
ENDBLK
  5
21
330
1F
100
AcDbEntity
  8
0
100
AcDbBlockEnd
  0
BLOCK
  5
1C
330
1B
100
AcDbEntity
  8
0
100
AcDbBlockBegin
  2
*Paper_Space
 70
    0
 10
0
 20
0
 30
0
  3
*Paper_Space
  1

  0
ENDBLK
  5
1D
330
1F
100
AcDbEntity
  8
0
100
AcDbBlockEnd
  0
ENDSEC
  0
SECTION
  2
ENTITIES
  0
LINE
  5
4D
100
AcDbEntity
  8
0
  6
ByLayer
 62
  256
370
   -1
100
AcDbLine
 10
194.86
 20
0.112473
 11
195.632
 21
0.310791
  0
LINE
  5
4E
100
AcDbEntity
  8
0
  6
ByLayer
 62
  256
370
   -1
100
AcDbLine
 10
195.632
 20
0.310791
 11
196.374
 21
0.60434
  0
LINE
  5
4F
100
AcDbEntity
  8
0
  6
ByLayer
 62
  256
370
   -1
100
AcDbLine
 10
196.374
 20
0.60434
 11
197.072
 21
0.98851
  0
LINE
  5
50
100
AcDbEntity
  8
0
  6
ByLayer
 62
  256
370
   -1
100
AcDbLine
 10
197.072
 20
0.98851
 11
197.718
 21
1.45723
  0
LINE
  5
51
100
AcDbEntity
  8
0
  6
ByLayer
 62
  256
370
   -1
100
AcDbLine
 10
197.718
 20
1.45723
 11
198.299
 21
2.00311
  0
LINE
  5
52
100
AcDbEntity
  8
0
  6
ByLayer
 62
  256
370
   -1
100
AcDbLine
 10
198.299
 20
2.00311
 11
198.807
 21
2.61755
  0
LINE
  5
53
100
AcDbEntity
  8
0
  6
ByLayer
 62
  256
370
   -1
100
AcDbLine
 10
198.807
 20
2.61755
 11
199.235
 21
3.29086
  0
LINE
  5
54
100
AcDbEntity
  8
0
  6
ByLayer
 62
  256
370
   -1
100
AcDbLine
 10
199.235
 20
3.29086
 11
199.574
 21
4.01241
  0
LINE
  5
55
100
AcDbEntity
  8
0
  6
ByLayer
 62
  256
370
   -1
100
AcDbLine
 10
199.574
 20
4.01241
 11
199.82
 21
4.77081
  0
LINE
  5
56
100
AcDbEntity
  8
0
  6
ByLayer
 62
  256
370
   -1
100
AcDbLine
 10
199.82
 20
4.77081
 11
199.97
 21
5.55412
  0
LINE
  5
57
100
AcDbEntity
  8
0
  6
ByLayer
 62
  256
370
   -1
100
AcDbLine
 10
199.97
 20
5.55412
 11
200.02
 21
6.34999
  0
LINE
  5
58
100
AcDbEntity
  8
0
  6
ByLayer
 62
  256
370
   -1
100
AcDbLine
 10
200.02
 20
6.34999
 11
200.02
 21
13.5
  0
LINE
  5
59
100
AcDbEntity
  8
0
  6
ByLayer
 62
  256
370
   -1
100
AcDbLine
 10
200.02
 20
13.5
 11
186.66
 21
13.5
  0
LINE
  5
5A
100
AcDbEntity
  8
0
  6
ByLayer
 62
  256
370
   -1
100
AcDbLine
 10
186.66
 20
13.5
 11
186.66
 21
4
  0
LINE
  5
5B
100
AcDbEntity
  8
0
  6
ByLayer
 62
  256
370
   -1
100
AcDbLine
 10
186.66
 20
4
 11
127.66
 21
4
  0
LINE
  5
5C
100
AcDbEntity
  8
0
  6
ByLayer
 62
  256
370
   -1
100
AcDbLine
 10
127.66
 20
4
 11
127.66
 21
11
  0
LINE
  5
5D
100
AcDbEntity
  8
0
  6
ByLayer
 62
  256
370
   -1
100
AcDbLine
 10
127.66
 20
11
 11
121.66
 21
11
  0
LINE
  5
5E
100
AcDbEntity
  8
0
  6
ByLayer
 62
  256
370
   -1
100
AcDbLine
 10
121.66
 20
11
 11
121.66
 21
7.99998
  0
LINE
  5
5F
100
AcDbEntity
  8
0
  6
ByLayer
 62
  256
370
   -1
100
AcDbLine
 10
121.66
 20
7.99998
 11
105.66
 21
7.99998
  0
LINE
  5
60
100
AcDbEntity
  8
0
  6
ByLayer
 62
  256
370
   -1
100
AcDbLine
 10
105.66
 20
7.99998
 11
105.66
 21
6.34999
  0
LINE
  5
61
100
AcDbEntity
  8
0
  6
ByLayer
 62
  256
370
   -1
100
AcDbLine
 10
105.66
 20
6.34999
 11
105.71
 21
5.55412
  0
LINE
  5
62
100
AcDbEntity
  8
0
  6
ByLayer
 62
  256
370
   -1
100
AcDbLine
 10
105.71
 20
5.55412
 11
105.859
 21
4.77081
  0
LINE
  5
63
100
AcDbEntity
  8
0
  6
ByLayer
 62
  256
370
   -1
100
AcDbLine
 10
105.859
 20
4.77081
 11
106.106
 21
4.01241
  0
LINE
  5
64
100
AcDbEntity
  8
0
  6
ByLayer
 62
  256
370
   -1
100
AcDbLine
 10
106.106
 20
4.01241
 11
106.445
 21
3.29086
  0
LINE
  5
65
100
AcDbEntity
  8
0
  6
ByLayer
 62
  256
370
   -1
100
AcDbLine
 10
106.445
 20
3.29086
 11
106.873
 21
2.61755
  0
LINE
  5
66
100
AcDbEntity
  8
0
  6
ByLayer
 62
  256
370
   -1
100
AcDbLine
 10
106.873
 20
2.61755
 11
107.381
 21
2.00311
  0
LINE
  5
67
100
AcDbEntity
  8
0
  6
ByLayer
 62
  256
370
   -1
100
AcDbLine
 10
107.381
 20
2.00311
 11
107.962
 21
1.45723
  0
LINE
  5
68
100
AcDbEntity
  8
0
  6
ByLayer
 62
  256
370
   -1
100
AcDbLine
 10
107.962
 20
1.45723
 11
108.607
 21
0.98851
  0
LINE
  5
69
100
AcDbEntity
  8
0
  6
ByLayer
 62
  256
370
   -1
100
AcDbLine
 10
108.607
 20
0.98851
 11
109.306
 21
0.60434
  0
LINE
  5
6A
100
AcDbEntity
  8
0
  6
ByLayer
 62
  256
370
   -1
100
AcDbLine
 10
109.306
 20
0.60434
 11
110.048
 21
0.310791
  0
LINE
  5
6B
100
AcDbEntity
  8
0
  6
ByLayer
 62
  256
370
   -1
100
AcDbLine
 10
110.048
 20
0.310791
 11
110.82
 21
0.112473
  0
LINE
  5
6C
100
AcDbEntity
  8
0
  6
ByLayer
 62
  256
370
   -1
100
AcDbLine
 10
110.82
 20
0.112473
 11
111.611
 21
0.0125275
  0
LINE
  5
6D
100
AcDbEntity
  8
0
  6
ByLayer
 62
  256
370
   -1
100
AcDbLine
 10
111.611
 20
0.0125275
 11
194.069
 21
0.0125275
  0
LINE
  5
6E
100
AcDbEntity
  8
0
  6
ByLayer
 62
  256
370
   -1
100
AcDbLine
 10
194.069
 20
0.0125275
 11
194.86
 21
0.112473
  0
LINE
  5
6F
100
AcDbEntity
  8
0
  6
ByLayer
 62
  256
370
   -1
100
AcDbLine
 10
190.244
 20
8.35394
 11
189.995
 21
8.38542
  0
LINE
  5
70
100
AcDbEntity
  8
0
  6
ByLayer
 62
  256
370
   -1
100
AcDbLine
 10
189.995
 20
8.38542
 11
189.752
 21
8.44788
  0
LINE
  5
71
100
AcDbEntity
  8
0
  6
ByLayer
 62
  256
370
   -1
100
AcDbLine
 10
189.752
 20
8.44788
 11
189.518
 21
8.54034
  0
LINE
  5
72
100
AcDbEntity
  8
0
  6
ByLayer
 62
  256
370
   -1
100
AcDbLine
 10
189.518
 20
8.54034
 11
189.298
 21
8.66133
  0
LINE
  5
73
100
AcDbEntity
  8
0
  6
ByLayer
 62
  256
370
   -1
100
AcDbLine
 10
189.298
 20
8.66133
 11
189.095
 21
8.808960000000001
  0
LINE
  5
74
100
AcDbEntity
  8
0
  6
ByLayer
 62
  256
370
   -1
100
AcDbLine
 10
189.095
 20
8.808960000000001
 11
188.912
 21
8.9809
  0
LINE
  5
75
100
AcDbEntity
  8
0
  6
ByLayer
 62
  256
370
   -1
100
AcDbLine
 10
188.912
 20
8.9809
 11
188.752
 21
9.17442
  0
LINE
  5
76
100
AcDbEntity
  8
0
  6
ByLayer
 62
  256
370
   -1
100
AcDbLine
 10
188.752
 20
9.17442
 11
188.617
 21
9.38649
  0
LINE
  5
77
100
AcDbEntity
  8
0
  6
ByLayer
 62
  256
370
   -1
100
AcDbLine
 10
188.617
 20
9.38649
 11
188.51
 21
9.61374
  0
LINE
  5
78
100
AcDbEntity
  8
0
  6
ByLayer
 62
  256
370
   -1
100
AcDbLine
 10
188.51
 20
9.61374
 11
188.433
 21
9.85262
  0
LINE
  5
79
100
AcDbEntity
  8
0
  6
ByLayer
 62
  256
370
   -1
100
AcDbLine
 10
188.433
 20
9.85262
 11
188.386
 21
10.0993
  0
LINE
  5
7A
100
AcDbEntity
  8
0
  6
ByLayer
 62
  256
370
   -1
100
AcDbLine
 10
188.386
 20
10.0993
 11
188.37
 21
10.35
  0
LINE
  5
7B
100
AcDbEntity
  8
0
  6
ByLayer
 62
  256
370
   -1
100
AcDbLine
 10
188.37
 20
10.35
 11
188.386
 21
10.6007
  0
LINE
  5
7C
100
AcDbEntity
  8
0
  6
ByLayer
 62
  256
370
   -1
100
AcDbLine
 10
188.386
 20
10.6007
 11
188.433
 21
10.8474
  0
LINE
  5
7D
100
AcDbEntity
  8
0
  6
ByLayer
 62
  256
370
   -1
100
AcDbLine
 10
188.433
 20
10.8474
 11
188.51
 21
11.0862
  0
LINE
  5
7E
100
AcDbEntity
  8
0
  6
ByLayer
 62
  256
370
   -1
100
AcDbLine
 10
188.51
 20
11.0862
 11
188.617
 21
11.3135
  0
LINE
  5
7F
100
AcDbEntity
  8
0
  6
ByLayer
 62
  256
370
   -1
100
AcDbLine
 10
188.617
 20
11.3135
 11
188.752
 21
11.5256
  0
LINE
  5
80
100
AcDbEntity
  8
0
  6
ByLayer
 62
  256
370
   -1
100
AcDbLine
 10
188.752
 20
11.5256
 11
188.912
 21
11.7191
  0
LINE
  5
81
100
AcDbEntity
  8
0
  6
ByLayer
 62
  256
370
   -1
100
AcDbLine
 10
188.912
 20
11.7191
 11
189.095
 21
11.891
  0
LINE
  5
82
100
AcDbEntity
  8
0
  6
ByLayer
 62
  256
370
   -1
100
AcDbLine
 10
189.095
 20
11.891
 11
189.298
 21
12.0387
  0
LINE
  5
83
100
AcDbEntity
  8
0
  6
ByLayer
 62
  256
370
   -1
100
AcDbLine
 10
189.298
 20
12.0387
 11
189.518
 21
12.1597
  0
LINE
  5
84
100
AcDbEntity
  8
0
  6
ByLayer
 62
  256
370
   -1
100
AcDbLine
 10
189.518
 20
12.1597
 11
189.752
 21
12.2521
  0
LINE
  5
85
100
AcDbEntity
  8
0
  6
ByLayer
 62
  256
370
   -1
100
AcDbLine
 10
189.752
 20
12.2521
 11
189.995
 21
12.3146
  0
LINE
  5
86
100
AcDbEntity
  8
0
  6
ByLayer
 62
  256
370
   -1
100
AcDbLine
 10
189.995
 20
12.3146
 11
190.244
 21
12.346
  0
LINE
  5
87
100
AcDbEntity
  8
0
  6
ByLayer
 62
  256
370
   -1
100
AcDbLine
 10
190.244
 20
12.346
 11
190.496
 21
12.346
  0
LINE
  5
88
100
AcDbEntity
  8
0
  6
ByLayer
 62
  256
370
   -1
100
AcDbLine
 10
190.496
 20
12.346
 11
190.745
 21
12.3146
  0
LINE
  5
89
100
AcDbEntity
  8
0
  6
ByLayer
 62
  256
370
   -1
100
AcDbLine
 10
190.745
 20
12.3146
 11
190.988
 21
12.2521
  0
LINE
  5
8A
100
AcDbEntity
  8
0
  6
ByLayer
 62
  256
370
   -1
100
AcDbLine
 10
190.988
 20
12.2521
 11
191.222
 21
12.1597
  0
LINE
  5
8B
100
AcDbEntity
  8
0
  6
ByLayer
 62
  256
370
   -1
100
AcDbLine
 10
191.222
 20
12.1597
 11
191.442
 21
12.0387
  0
LINE
  5
8C
100
AcDbEntity
  8
0
  6
ByLayer
 62
  256
370
   -1
100
AcDbLine
 10
191.442
 20
12.0387
 11
191.645
 21
11.891
  0
LINE
  5
8D
100
AcDbEntity
  8
0
  6
ByLayer
 62
  256
370
   -1
100
AcDbLine
 10
191.645
 20
11.891
 11
191.828
 21
11.7191
  0
LINE
  5
8E
100
AcDbEntity
  8
0
  6
ByLayer
 62
  256
370
   -1
100
AcDbLine
 10
191.828
 20
11.7191
 11
191.988
 21
11.5256
  0
LINE
  5
8F
100
AcDbEntity
  8
0
  6
ByLayer
 62
  256
370
   -1
100
AcDbLine
 10
191.988
 20
11.5256
 11
192.123
 21
11.3135
  0
LINE
  5
90
100
AcDbEntity
  8
0
  6
ByLayer
 62
  256
370
   -1
100
AcDbLine
 10
192.123
 20
11.3135
 11
192.23
 21
11.0862
  0
LINE
  5
91
100
AcDbEntity
  8
0
  6
ByLayer
 62
  256
370
   -1
100
AcDbLine
 10
192.23
 20
11.0862
 11
192.307
 21
10.8474
  0
LINE
  5
92
100
AcDbEntity
  8
0
  6
ByLayer
 62
  256
370
   -1
100
AcDbLine
 10
192.307
 20
10.8474
 11
192.354
 21
10.6007
  0
LINE
  5
93
100
AcDbEntity
  8
0
  6
ByLayer
 62
  256
370
   -1
100
AcDbLine
 10
192.354
 20
10.6007
 11
192.37
 21
10.35
  0
LINE
  5
94
100
AcDbEntity
  8
0
  6
ByLayer
 62
  256
370
   -1
100
AcDbLine
 10
192.37
 20
10.35
 11
192.354
 21
10.0993
  0
LINE
  5
95
100
AcDbEntity
  8
0
  6
ByLayer
 62
  256
370
   -1
100
AcDbLine
 10
192.354
 20
10.0993
 11
192.307
 21
9.85262
  0
LINE
  5
96
100
AcDbEntity
  8
0
  6
ByLayer
 62
  256
370
   -1
100
AcDbLine
 10
192.307
 20
9.85262
 11
192.23
 21
9.61374
  0
LINE
  5
97
100
AcDbEntity
  8
0
  6
ByLayer
 62
  256
370
   -1
100
AcDbLine
 10
192.23
 20
9.61374
 11
192.123
 21
9.38649
  0
LINE
  5
98
100
AcDbEntity
  8
0
  6
ByLayer
 62
  256
370
   -1
100
AcDbLine
 10
192.123
 20
9.38649
 11
191.988
 21
9.17442
  0
LINE
  5
99
100
AcDbEntity
  8
0
  6
ByLayer
 62
  256
370
   -1
100
AcDbLine
 10
191.988
 20
9.17442
 11
191.828
 21
8.9809
  0
LINE
  5
9A
100
AcDbEntity
  8
0
  6
ByLayer
 62
  256
370
   -1
100
AcDbLine
 10
191.828
 20
8.9809
 11
191.645
 21
8.808960000000001
  0
LINE
  5
9B
100
AcDbEntity
  8
0
  6
ByLayer
 62
  256
370
   -1
100
AcDbLine
 10
191.645
 20
8.808960000000001
 11
191.442
 21
8.66133
  0
LINE
  5
9C
100
AcDbEntity
  8
0
  6
ByLayer
 62
  256
370
   -1
100
AcDbLine
 10
191.442
 20
8.66133
 11
191.222
 21
8.54034
  0
LINE
  5
9D
100
AcDbEntity
  8
0
  6
ByLayer
 62
  256
370
   -1
100
AcDbLine
 10
191.222
 20
8.54034
 11
190.988
 21
8.44788
  0
LINE
  5
9E
100
AcDbEntity
  8
0
  6
ByLayer
 62
  256
370
   -1
100
AcDbLine
 10
190.988
 20
8.44788
 11
190.745
 21
8.38542
  0
LINE
  5
9F
100
AcDbEntity
  8
0
  6
ByLayer
 62
  256
370
   -1
100
AcDbLine
 10
190.745
 20
8.38542
 11
190.496
 21
8.35394
  0
LINE
  5
A0
100
AcDbEntity
  8
0
  6
ByLayer
 62
  256
370
   -1
100
AcDbLine
 10
190.496
 20
8.35394
 11
190.244
 21
8.35394
  0
LINE
  5
A1
100
AcDbEntity
  8
0
  6
ByLayer
 62
  256
370
   -1
100
AcDbLine
 10
124.144
 20
5.18394
 11
123.895
 21
5.21542
  0
LINE
  5
A2
100
AcDbEntity
  8
0
  6
ByLayer
 62
  256
370
   -1
100
AcDbLine
 10
123.895
 20
5.21542
 11
123.652
 21
5.27788
  0
LINE
  5
A3
100
AcDbEntity
  8
0
  6
ByLayer
 62
  256
370
   -1
100
AcDbLine
 10
123.652
 20
5.27788
 11
123.418
 21
5.37035
  0
LINE
  5
A4
100
AcDbEntity
  8
0
  6
ByLayer
 62
  256
370
   -1
100
AcDbLine
 10
123.418
 20
5.37035
 11
123.198
 21
5.49133
  0
LINE
  5
A5
100
AcDbEntity
  8
0
  6
ByLayer
 62
  256
370
   -1
100
AcDbLine
 10
123.198
 20
5.49133
 11
122.995
 21
5.63896
  0
LINE
  5
A6
100
AcDbEntity
  8
0
  6
ByLayer
 62
  256
370
   -1
100
AcDbLine
 10
122.995
 20
5.63896
 11
122.812
 21
5.8109
  0
LINE
  5
A7
100
AcDbEntity
  8
0
  6
ByLayer
 62
  256
370
   -1
100
AcDbLine
 10
122.812
 20
5.8109
 11
122.652
 21
6.00443
  0
LINE
  5
A8
100
AcDbEntity
  8
0
  6
ByLayer
 62
  256
370
   -1
100
AcDbLine
 10
122.652
 20
6.00443
 11
122.517
 21
6.21649
  0
LINE
  5
A9
100
AcDbEntity
  8
0
  6
ByLayer
 62
  256
370
   -1
100
AcDbLine
 10
122.517
 20
6.21649
 11
122.41
 21
6.44374
  0
LINE
  5
AA
100
AcDbEntity
  8
0
  6
ByLayer
 62
  256
370
   -1
100
AcDbLine
 10
122.41
 20
6.44374
 11
122.333
 21
6.68262
  0
LINE
  5
AB
100
AcDbEntity
  8
0
  6
ByLayer
 62
  256
370
   -1
100
AcDbLine
 10
122.333
 20
6.68262
 11
122.286
 21
6.92932
  0
LINE
  5
AC
100
AcDbEntity
  8
0
  6
ByLayer
 62
  256
370
   -1
100
AcDbLine
 10
122.286
 20
6.92932
 11
122.27
 21
7.17999
  0
LINE
  5
AD
100
AcDbEntity
  8
0
  6
ByLayer
 62
  256
370
   -1
100
AcDbLine
 10
122.27
 20
7.17999
 11
122.286
 21
7.43066
  0
LINE
  5
AE
100
AcDbEntity
  8
0
  6
ByLayer
 62
  256
370
   -1
100
AcDbLine
 10
122.286
 20
7.43066
 11
122.333
 21
7.67737
  0
LINE
  5
AF
100
AcDbEntity
  8
0
  6
ByLayer
 62
  256
370
   -1
100
AcDbLine
 10
122.333
 20
7.67737
 11
122.41
 21
7.91624
  0
LINE
  5
B0
100
AcDbEntity
  8
0
  6
ByLayer
 62
  256
370
   -1
100
AcDbLine
 10
122.41
 20
7.91624
 11
122.517
 21
8.14349
  0
LINE
  5
B1
100
AcDbEntity
  8
0
  6
ByLayer
 62
  256
370
   -1
100
AcDbLine
 10
122.517
 20
8.14349
 11
122.652
 21
8.355560000000001
  0
LINE
  5
B2
100
AcDbEntity
  8
0
  6
ByLayer
 62
  256
370
   -1
100
AcDbLine
 10
122.652
 20
8.355560000000001
 11
122.812
 21
8.54909
  0
LINE
  5
B3
100
AcDbEntity
  8
0
  6
ByLayer
 62
  256
370
   -1
100
AcDbLine
 10
122.812
 20
8.54909
 11
122.995
 21
8.721019999999999
  0
LINE
  5
B4
100
AcDbEntity
  8
0
  6
ByLayer
 62
  256
370
   -1
100
AcDbLine
 10
122.995
 20
8.721019999999999
 11
123.198
 21
8.868650000000001
  0
LINE
  5
B5
100
AcDbEntity
  8
0
  6
ByLayer
 62
  256
370
   -1
100
AcDbLine
 10
123.198
 20
8.868650000000001
 11
123.418
 21
8.98964
  0
LINE
  5
B6
100
AcDbEntity
  8
0
  6
ByLayer
 62
  256
370
   -1
100
AcDbLine
 10
123.418
 20
8.98964
 11
123.652
 21
9.08211
  0
LINE
  5
B7
100
AcDbEntity
  8
0
  6
ByLayer
 62
  256
370
   -1
100
AcDbLine
 10
123.652
 20
9.08211
 11
123.895
 21
9.14456
  0
LINE
  5
B8
100
AcDbEntity
  8
0
  6
ByLayer
 62
  256
370
   -1
100
AcDbLine
 10
123.895
 20
9.14456
 11
124.144
 21
9.17604
  0
LINE
  5
B9
100
AcDbEntity
  8
0
  6
ByLayer
 62
  256
370
   -1
100
AcDbLine
 10
124.144
 20
9.17604
 11
124.396
 21
9.17604
  0
LINE
  5
BA
100
AcDbEntity
  8
0
  6
ByLayer
 62
  256
370
   -1
100
AcDbLine
 10
124.396
 20
9.17604
 11
124.645
 21
9.14456
  0
LINE
  5
BB
100
AcDbEntity
  8
0
  6
ByLayer
 62
  256
370
   -1
100
AcDbLine
 10
124.645
 20
9.14456
 11
124.888
 21
9.08211
  0
LINE
  5
BC
100
AcDbEntity
  8
0
  6
ByLayer
 62
  256
370
   -1
100
AcDbLine
 10
124.888
 20
9.08211
 11
125.122
 21
8.98964
  0
LINE
  5
BD
100
AcDbEntity
  8
0
  6
ByLayer
 62
  256
370
   -1
100
AcDbLine
 10
125.122
 20
8.98964
 11
125.342
 21
8.868650000000001
  0
LINE
  5
BE
100
AcDbEntity
  8
0
  6
ByLayer
 62
  256
370
   -1
100
AcDbLine
 10
125.342
 20
8.868650000000001
 11
125.545
 21
8.721019999999999
  0
LINE
  5
BF
100
AcDbEntity
  8
0
  6
ByLayer
 62
  256
370
   -1
100
AcDbLine
 10
125.545
 20
8.721019999999999
 11
125.728
 21
8.54909
  0
LINE
  5
C0
100
AcDbEntity
  8
0
  6
ByLayer
 62
  256
370
   -1
100
AcDbLine
 10
125.728
 20
8.54909
 11
125.888
 21
8.355560000000001
  0
LINE
  5
C1
100
AcDbEntity
  8
0
  6
ByLayer
 62
  256
370
   -1
100
AcDbLine
 10
125.888
 20
8.355560000000001
 11
126.023
 21
8.14349
  0
LINE
  5
C2
100
AcDbEntity
  8
0
  6
ByLayer
 62
  256
370
   -1
100
AcDbLine
 10
126.023
 20
8.14349
 11
126.13
 21
7.91624
  0
LINE
  5
C3
100
AcDbEntity
  8
0
  6
ByLayer
 62
  256
370
   -1
100
AcDbLine
 10
126.13
 20
7.91624
 11
126.207
 21
7.67737
  0
LINE
  5
C4
100
AcDbEntity
  8
0
  6
ByLayer
 62
  256
370
   -1
100
AcDbLine
 10
126.207
 20
7.67737
 11
126.254
 21
7.43066
  0
LINE
  5
C5
100
AcDbEntity
  8
0
  6
ByLayer
 62
  256
370
   -1
100
AcDbLine
 10
126.254
 20
7.43066
 11
126.27
 21
7.17999
  0
LINE
  5
C6
100
AcDbEntity
  8
0
  6
ByLayer
 62
  256
370
   -1
100
AcDbLine
 10
126.27
 20
7.17999
 11
126.254
 21
6.92932
  0
LINE
  5
C7
100
AcDbEntity
  8
0
  6
ByLayer
 62
  256
370
   -1
100
AcDbLine
 10
126.254
 20
6.92932
 11
126.207
 21
6.68262
  0
LINE
  5
C8
100
AcDbEntity
  8
0
  6
ByLayer
 62
  256
370
   -1
100
AcDbLine
 10
126.207
 20
6.68262
 11
126.13
 21
6.44374
  0
LINE
  5
C9
100
AcDbEntity
  8
0
  6
ByLayer
 62
  256
370
   -1
100
AcDbLine
 10
126.13
 20
6.44374
 11
126.023
 21
6.21649
  0
LINE
  5
CA
100
AcDbEntity
  8
0
  6
ByLayer
 62
  256
370
   -1
100
AcDbLine
 10
126.023
 20
6.21649
 11
125.888
 21
6.00443
  0
LINE
  5
CB
100
AcDbEntity
  8
0
  6
ByLayer
 62
  256
370
   -1
100
AcDbLine
 10
125.888
 20
6.00443
 11
125.728
 21
5.8109
  0
LINE
  5
CC
100
AcDbEntity
  8
0
  6
ByLayer
 62
  256
370
   -1
100
AcDbLine
 10
125.728
 20
5.8109
 11
125.545
 21
5.63896
  0
LINE
  5
CD
100
AcDbEntity
  8
0
  6
ByLayer
 62
  256
370
   -1
100
AcDbLine
 10
125.545
 20
5.63896
 11
125.342
 21
5.49133
  0
LINE
  5
CE
100
AcDbEntity
  8
0
  6
ByLayer
 62
  256
370
   -1
100
AcDbLine
 10
125.342
 20
5.49133
 11
125.122
 21
5.37035
  0
LINE
  5
CF
100
AcDbEntity
  8
0
  6
ByLayer
 62
  256
370
   -1
100
AcDbLine
 10
125.122
 20
5.37035
 11
124.888
 21
5.27788
  0
LINE
  5
D0
100
AcDbEntity
  8
0
  6
ByLayer
 62
  256
370
   -1
100
AcDbLine
 10
124.888
 20
5.27788
 11
124.645
 21
5.21542
  0
LINE
  5
D1
100
AcDbEntity
  8
0
  6
ByLayer
 62
  256
370
   -1
100
AcDbLine
 10
124.645
 20
5.21542
 11
124.396
 21
5.18394
  0
LINE
  5
D2
100
AcDbEntity
  8
0
  6
ByLayer
 62
  256
370
   -1
100
AcDbLine
 10
124.396
 20
5.18394
 11
124.144
 21
5.18394
  0
LINE
  5
D3
100
AcDbEntity
  8
0
  6
ByLayer
 62
  256
370
   -1
100
AcDbLine
 10
195.1367841455173
 20
35.74146990992735
 11
195.9091841455173
 21
35.93978790992735
  0
LINE
  5
D4
100
AcDbEntity
  8
0
  6
ByLayer
 62
  256
370
   -1
100
AcDbLine
 10
195.9091841455173
 20
35.93978790992735
 11
196.6505841455173
 21
36.23333690992735
  0
LINE
  5
D5
100
AcDbEntity
  8
0
  6
ByLayer
 62
  256
370
   -1
100
AcDbLine
 10
196.6505841455173
 20
36.23333690992735
 11
197.3493841455173
 21
36.61750690992735
  0
LINE
  5
D6
100
AcDbEntity
  8
0
  6
ByLayer
 62
  256
370
   -1
100
AcDbLine
 10
197.3493841455173
 20
36.61750690992735
 11
197.9944841455173
 21
37.08622690992735
  0
LINE
  5
D7
100
AcDbEntity
  8
0
  6
ByLayer
 62
  256
370
   -1
100
AcDbLine
 10
197.9944841455173
 20
37.08622690992735
 11
198.5757841455173
 21
37.63210690992735
  0
LINE
  5
D8
100
AcDbEntity
  8
0
  6
ByLayer
 62
  256
370
   -1
100
AcDbLine
 10
198.5757841455173
 20
37.63210690992735
 11
199.0840841455173
 21
38.24654690992735
  0
LINE
  5
D9
100
AcDbEntity
  8
0
  6
ByLayer
 62
  256
370
   -1
100
AcDbLine
 10
199.0840841455173
 20
38.24654690992735
 11
199.5113841455173
 21
38.91985690992735
  0
LINE
  5
DA
100
AcDbEntity
  8
0
  6
ByLayer
 62
  256
370
   -1
100
AcDbLine
 10
199.5113841455173
 20
38.91985690992735
 11
199.8509841455173
 21
39.64140690992735
  0
LINE
  5
DB
100
AcDbEntity
  8
0
  6
ByLayer
 62
  256
370
   -1
100
AcDbLine
 10
199.8509841455173
 20
39.64140690992735
 11
200.0973841455173
 21
40.39980690992735
  0
LINE
  5
DC
100
AcDbEntity
  8
0
  6
ByLayer
 62
  256
370
   -1
100
AcDbLine
 10
200.0973841455173
 20
40.39980690992735
 11
200.2467841455173
 21
41.18311690992735
  0
LINE
  5
DD
100
AcDbEntity
  8
0
  6
ByLayer
 62
  256
370
   -1
100
AcDbLine
 10
200.2467841455173
 20
41.18311690992735
 11
200.2968841455173
 21
41.97898690992735
  0
LINE
  5
DE
100
AcDbEntity
  8
0
  6
ByLayer
 62
  256
370
   -1
100
AcDbLine
 10
200.2968841455173
 20
41.97898690992735
 11
200.2968841455173
 21
49.12899690992735
  0
LINE
  5
DF
100
AcDbEntity
  8
0
  6
ByLayer
 62
  256
370
   -1
100
AcDbLine
 10
200.2968841455173
 20
49.12899690992735
 11
182.2968841455173
 21
49.12899690992735
  0
LINE
  5
E0
100
AcDbEntity
  8
0
  6
ByLayer
 62
  256
370
   -1
100
AcDbLine
 10
182.2968841455173
 20
49.12899690992735
 11
182.2968841455173
 21
47.62899690992735
  0
LINE
  5
E1
100
AcDbEntity
  8
0
  6
ByLayer
 62
  256
370
   -1
100
AcDbLine
 10
182.2968841455173
 20
47.62899690992735
 11
171.2968841455173
 21
47.62899690992735
  0
LINE
  5
E2
100
AcDbEntity
  8
0
  6
ByLayer
 62
  256
370
   -1
100
AcDbLine
 10
171.2968841455173
 20
47.62899690992735
 11
171.2968841455173
 21
55.62899690992735
  0
LINE
  5
E3
100
AcDbEntity
  8
0
  6
ByLayer
 62
  256
370
   -1
100
AcDbLine
 10
171.2968841455173
 20
55.62899690992735
 11
181.2968841455173
 21
55.62899690992735
  0
LINE
  5
E4
100
AcDbEntity
  8
0
  6
ByLayer
 62
  256
370
   -1
100
AcDbLine
 10
181.2968841455173
 20
55.62899690992735
 11
181.2968841455173
 21
64.12899690992735
  0
LINE
  5
E5
100
AcDbEntity
  8
0
  6
ByLayer
 62
  256
370
   -1
100
AcDbLine
 10
181.2968841455173
 20
64.12899690992735
 11
200.2968841455173
 21
64.12899690992735
  0
LINE
  5
E6
100
AcDbEntity
  8
0
  6
ByLayer
 62
  256
370
   -1
100
AcDbLine
 10
200.2968841455173
 20
64.12899690992735
 11
200.2968841455173
 21
91.88899690992736
  0
LINE
  5
E7
100
AcDbEntity
  8
0
  6
ByLayer
 62
  256
370
   -1
100
AcDbLine
 10
200.2968841455173
 20
91.88899690992736
 11
200.2467841455173
 21
92.68489690992735
  0
LINE
  5
E8
100
AcDbEntity
  8
0
  6
ByLayer
 62
  256
370
   -1
100
AcDbLine
 10
200.2467841455173
 20
92.68489690992735
 11
200.0973841455173
 21
93.46819690992734
  0
LINE
  5
E9
100
AcDbEntity
  8
0
  6
ByLayer
 62
  256
370
   -1
100
AcDbLine
 10
200.0973841455173
 20
93.46819690992734
 11
199.8509841455173
 21
94.22659690992735
  0
LINE
  5
EA
100
AcDbEntity
  8
0
  6
ByLayer
 62
  256
370
   -1
100
AcDbLine
 10
199.8509841455173
 20
94.22659690992735
 11
199.5113841455173
 21
94.94809690992736
  0
LINE
  5
EB
100
AcDbEntity
  8
0
  6
ByLayer
 62
  256
370
   -1
100
AcDbLine
 10
199.5113841455173
 20
94.94809690992736
 11
199.0840841455173
 21
95.62139690992736
  0
LINE
  5
EC
100
AcDbEntity
  8
0
  6
ByLayer
 62
  256
370
   -1
100
AcDbLine
 10
199.0840841455173
 20
95.62139690992736
 11
198.5757841455173
 21
96.23589690992736
  0
LINE
  5
ED
100
AcDbEntity
  8
0
  6
ByLayer
 62
  256
370
   -1
100
AcDbLine
 10
198.5757841455173
 20
96.23589690992736
 11
197.9944841455173
 21
96.78179690992735
  0
LINE
  5
EE
100
AcDbEntity
  8
0
  6
ByLayer
 62
  256
370
   -1
100
AcDbLine
 10
197.9944841455173
 20
96.78179690992735
 11
197.3493841455173
 21
97.25049690992735
  0
LINE
  5
EF
100
AcDbEntity
  8
0
  6
ByLayer
 62
  256
370
   -1
100
AcDbLine
 10
197.3493841455173
 20
97.25049690992735
 11
196.6505841455173
 21
97.63459690992735
  0
LINE
  5
F0
100
AcDbEntity
  8
0
  6
ByLayer
 62
  256
370
   -1
100
AcDbLine
 10
196.6505841455173
 20
97.63459690992735
 11
195.9091841455173
 21
97.92819690992735
  0
LINE
  5
F1
100
AcDbEntity
  8
0
  6
ByLayer
 62
  256
370
   -1
100
AcDbLine
 10
195.9091841455173
 20
97.92819690992735
 11
195.1367841455173
 21
98.12649690992735
  0
LINE
  5
F2
100
AcDbEntity
  8
0
  6
ByLayer
 62
  256
370
   -1
100
AcDbLine
 10
195.1367841455173
 20
98.12649690992735
 11
194.3455841455173
 21
98.22649690992735
  0
LINE
  5
F3
100
AcDbEntity
  8
0
  6
ByLayer
 62
  256
370
   -1
100
AcDbLine
 10
194.3455841455173
 20
98.22649690992735
 11
111.8881641455173
 21
98.22649690992735
  0
LINE
  5
F4
100
AcDbEntity
  8
0
  6
ByLayer
 62
  256
370
   -1
100
AcDbLine
 10
111.8881641455173
 20
98.22649690992735
 11
111.0970141455173
 21
98.12649690992735
  0
LINE
  5
F5
100
AcDbEntity
  8
0
  6
ByLayer
 62
  256
370
   -1
100
AcDbLine
 10
111.0970141455173
 20
98.12649690992735
 11
110.3246241455173
 21
97.92819690992735
  0
LINE
  5
F6
100
AcDbEntity
  8
0
  6
ByLayer
 62
  256
370
   -1
100
AcDbLine
 10
110.3246241455173
 20
97.92819690992735
 11
109.5831841455173
 21
97.63459690992735
  0
LINE
  5
F7
100
AcDbEntity
  8
0
  6
ByLayer
 62
  256
370
   -1
100
AcDbLine
 10
109.5831841455173
 20
97.63459690992735
 11
108.8843741455173
 21
97.25049690992735
  0
LINE
  5
F8
100
AcDbEntity
  8
0
  6
ByLayer
 62
  256
370
   -1
100
AcDbLine
 10
108.8843741455173
 20
97.25049690992735
 11
108.2392341455173
 21
96.78179690992735
  0
LINE
  5
F9
100
AcDbEntity
  8
0
  6
ByLayer
 62
  256
370
   -1
100
AcDbLine
 10
108.2392341455173
 20
96.78179690992735
 11
107.6579241455173
 21
96.23589690992736
  0
LINE
  5
FA
100
AcDbEntity
  8
0
  6
ByLayer
 62
  256
370
   -1
100
AcDbLine
 10
107.6579241455173
 20
96.23589690992736
 11
107.1496241455173
 21
95.62139690992736
  0
LINE
  5
FB
100
AcDbEntity
  8
0
  6
ByLayer
 62
  256
370
   -1
100
AcDbLine
 10
107.1496241455173
 20
95.62139690992736
 11
106.7223301455173
 21
94.94809690992736
  0
LINE
  5
FC
100
AcDbEntity
  8
0
  6
ByLayer
 62
  256
370
   -1
100
AcDbLine
 10
106.7223301455173
 20
94.94809690992736
 11
106.3827921455173
 21
94.22659690992735
  0
LINE
  5
FD
100
AcDbEntity
  8
0
  6
ByLayer
 62
  256
370
   -1
100
AcDbLine
 10
106.3827921455173
 20
94.22659690992735
 11
106.1363771455173
 21
93.46819690992734
  0
LINE
  5
FE
100
AcDbEntity
  8
0
  6
ByLayer
 62
  256
370
   -1
100
AcDbLine
 10
106.1363771455173
 20
93.46819690992734
 11
105.9869482455173
 21
92.68489690992735
  0
LINE
  5
FF
100
AcDbEntity
  8
0
  6
ByLayer
 62
  256
370
   -1
100
AcDbLine
 10
105.9869482455173
 20
92.68489690992735
 11
105.9368841455173
 21
91.88899690992736
  0
LINE
  5
100
100
AcDbEntity
  8
0
  6
ByLayer
 62
  256
370
   -1
100
AcDbLine
 10
105.9368841455173
 20
91.88899690992736
 11
105.9368841455173
 21
78.62899690992735
  0
LINE
  5
101
100
AcDbEntity
  8
0
  6
ByLayer
 62
  256
370
   -1
100
AcDbLine
 10
105.9368841455173
 20
78.62899690992735
 11
129.9368841455173
 21
78.62899690992735
  0
LINE
  5
102
100
AcDbEntity
  8
0
  6
ByLayer
 62
  256
370
   -1
100
AcDbLine
 10
129.9368841455173
 20
78.62899690992735
 11
129.9368841455173
 21
60.62899690992735
  0
LINE
  5
103
100
AcDbEntity
  8
0
  6
ByLayer
 62
  256
370
   -1
100
AcDbLine
 10
129.9368841455173
 20
60.62899690992735
 11
105.9368841455173
 21
60.62899690992735
  0
LINE
  5
104
100
AcDbEntity
  8
0
  6
ByLayer
 62
  256
370
   -1
100
AcDbLine
 10
105.9368841455173
 20
60.62899690992735
 11
105.9368841455173
 21
54.62899690992735
  0
LINE
  5
105
100
AcDbEntity
  8
0
  6
ByLayer
 62
  256
370
   -1
100
AcDbLine
 10
105.9368841455173
 20
54.62899690992735
 11
121.9368841455173
 21
54.62899690992735
  0
LINE
  5
106
100
AcDbEntity
  8
0
  6
ByLayer
 62
  256
370
   -1
100
AcDbLine
 10
121.9368841455173
 20
54.62899690992735
 11
121.9368841455173
 21
43.62897690992735
  0
LINE
  5
107
100
AcDbEntity
  8
0
  6
ByLayer
 62
  256
370
   -1
100
AcDbLine
 10
121.9368841455173
 20
43.62897690992735
 11
105.9368841455173
 21
43.62897690992735
  0
LINE
  5
108
100
AcDbEntity
  8
0
  6
ByLayer
 62
  256
370
   -1
100
AcDbLine
 10
105.9368841455173
 20
43.62897690992735
 11
105.9368841455173
 21
41.97898690992735
  0
LINE
  5
109
100
AcDbEntity
  8
0
  6
ByLayer
 62
  256
370
   -1
100
AcDbLine
 10
105.9368841455173
 20
41.97898690992735
 11
105.9869482455173
 21
41.18311690992735
  0
LINE
  5
10A
100
AcDbEntity
  8
0
  6
ByLayer
 62
  256
370
   -1
100
AcDbLine
 10
105.9869482455173
 20
41.18311690992735
 11
106.1363771455173
 21
40.39980690992735
  0
LINE
  5
10B
100
AcDbEntity
  8
0
  6
ByLayer
 62
  256
370
   -1
100
AcDbLine
 10
106.1363771455173
 20
40.39980690992735
 11
106.3827921455173
 21
39.64140690992735
  0
LINE
  5
10C
100
AcDbEntity
  8
0
  6
ByLayer
 62
  256
370
   -1
100
AcDbLine
 10
106.3827921455173
 20
39.64140690992735
 11
106.7223301455173
 21
38.91985690992735
  0
LINE
  5
10D
100
AcDbEntity
  8
0
  6
ByLayer
 62
  256
370
   -1
100
AcDbLine
 10
106.7223301455173
 20
38.91985690992735
 11
107.1496241455173
 21
38.24654690992735
  0
LINE
  5
10E
100
AcDbEntity
  8
0
  6
ByLayer
 62
  256
370
   -1
100
AcDbLine
 10
107.1496241455173
 20
38.24654690992735
 11
107.6579241455173
 21
37.63210690992735
  0
LINE
  5
10F
100
AcDbEntity
  8
0
  6
ByLayer
 62
  256
370
   -1
100
AcDbLine
 10
107.6579241455173
 20
37.63210690992735
 11
108.2392341455173
 21
37.08622690992735
  0
LINE
  5
110
100
AcDbEntity
  8
0
  6
ByLayer
 62
  256
370
   -1
100
AcDbLine
 10
108.2392341455173
 20
37.08622690992735
 11
108.8843741455173
 21
36.61750690992735
  0
LINE
  5
111
100
AcDbEntity
  8
0
  6
ByLayer
 62
  256
370
   -1
100
AcDbLine
 10
108.8843741455173
 20
36.61750690992735
 11
109.5831841455173
 21
36.23333690992735
  0
LINE
  5
112
100
AcDbEntity
  8
0
  6
ByLayer
 62
  256
370
   -1
100
AcDbLine
 10
109.5831841455173
 20
36.23333690992735
 11
110.3246241455173
 21
35.93978790992735
  0
LINE
  5
113
100
AcDbEntity
  8
0
  6
ByLayer
 62
  256
370
   -1
100
AcDbLine
 10
110.3246241455173
 20
35.93978790992735
 11
111.0970141455173
 21
35.74146990992735
  0
LINE
  5
114
100
AcDbEntity
  8
0
  6
ByLayer
 62
  256
370
   -1
100
AcDbLine
 10
111.0970141455173
 20
35.74146990992735
 11
111.8881641455173
 21
35.64152440992735
  0
LINE
  5
115
100
AcDbEntity
  8
0
  6
ByLayer
 62
  256
370
   -1
100
AcDbLine
 10
111.8881641455173
 20
35.64152440992735
 11
194.3455841455173
 21
35.64152440992735
  0
LINE
  5
116
100
AcDbEntity
  8
0
  6
ByLayer
 62
  256
370
   -1
100
AcDbLine
 10
194.3455841455173
 20
35.64152440992735
 11
195.1367841455173
 21
35.74146990992735
  0
LINE
  5
117
100
AcDbEntity
  8
0
  6
ByLayer
 62
  256
370
   -1
100
AcDbLine
 10
127.9368841455173
 20
88.23899690992735
 11
127.9368841455173
 21
94.23899690992735
  0
LINE
  5
118
100
AcDbEntity
  8
0
  6
ByLayer
 62
  256
370
   -1
100
AcDbLine
 10
127.9368841455173
 20
94.23899690992735
 11
186.9368841455173
 21
94.23899690992735
  0
LINE
  5
119
100
AcDbEntity
  8
0
  6
ByLayer
 62
  256
370
   -1
100
AcDbLine
 10
186.9368841455173
 20
94.23899690992735
 11
186.9368841455173
 21
88.23899690992735
  0
LINE
  5
11A
100
AcDbEntity
  8
0
  6
ByLayer
 62
  256
370
   -1
100
AcDbLine
 10
186.9368841455173
 20
88.23899690992735
 11
127.9368841455173
 21
88.23899690992735
  0
LINE
  5
11B
100
AcDbEntity
  8
0
  6
ByLayer
 62
  256
370
   -1
100
AcDbLine
 10
114.9368841455173
 20
89.19899690992736
 11
114.9368841455173
 21
93.19899690992736
  0
LINE
  5
11C
100
AcDbEntity
  8
0
  6
ByLayer
 62
  256
370
   -1
100
AcDbLine
 10
114.9368841455173
 20
93.19899690992736
 11
120.9368841455173
 21
93.19899690992736
  0
LINE
  5
11D
100
AcDbEntity
  8
0
  6
ByLayer
 62
  256
370
   -1
100
AcDbLine
 10
120.9368841455173
 20
93.19899690992736
 11
120.9368841455173
 21
89.19899690992736
  0
LINE
  5
11E
100
AcDbEntity
  8
0
  6
ByLayer
 62
  256
370
   -1
100
AcDbLine
 10
120.9368841455173
 20
89.19899690992736
 11
114.9368841455173
 21
89.19899690992736
  0
LINE
  5
11F
100
AcDbEntity
  8
0
  6
ByLayer
 62
  256
370
   -1
100
AcDbLine
 10
124.4212841455173
 20
89.20289690992735
 11
124.1720841455173
 21
89.23439690992736
  0
LINE
  5
120
100
AcDbEntity
  8
0
  6
ByLayer
 62
  256
370
   -1
100
AcDbLine
 10
124.1720841455173
 20
89.23439690992736
 11
123.9288841455173
 21
89.29689690992736
  0
LINE
  5
121
100
AcDbEntity
  8
0
  6
ByLayer
 62
  256
370
   -1
100
AcDbLine
 10
123.9288841455173
 20
89.29689690992736
 11
123.6952841455173
 21
89.38929690992735
  0
LINE
  5
122
100
AcDbEntity
  8
0
  6
ByLayer
 62
  256
370
   -1
100
AcDbLine
 10
123.6952841455173
 20
89.38929690992735
 11
123.4751841455173
 21
89.51029690992735
  0
LINE
  5
123
100
AcDbEntity
  8
0
  6
ByLayer
 62
  256
370
   -1
100
AcDbLine
 10
123.4751841455173
 20
89.51029690992735
 11
123.2719841455173
 21
89.65799690992736
  0
LINE
  5
124
100
AcDbEntity
  8
0
  6
ByLayer
 62
  256
370
   -1
100
AcDbLine
 10
123.2719841455173
 20
89.65799690992736
 11
123.0889841455173
 21
89.82989690992736
  0
LINE
  5
125
100
AcDbEntity
  8
0
  6
ByLayer
 62
  256
370
   -1
100
AcDbLine
 10
123.0889841455173
 20
89.82989690992736
 11
122.9288841455173
 21
90.02339690992736
  0
LINE
  5
126
100
AcDbEntity
  8
0
  6
ByLayer
 62
  256
370
   -1
100
AcDbLine
 10
122.9288841455173
 20
90.02339690992736
 11
122.7942841455173
 21
90.23549690992735
  0
LINE
  5
127
100
AcDbEntity
  8
0
  6
ByLayer
 62
  256
370
   -1
100
AcDbLine
 10
122.7942841455173
 20
90.23549690992735
 11
122.6872841455173
 21
90.46269690992736
  0
LINE
  5
128
100
AcDbEntity
  8
0
  6
ByLayer
 62
  256
370
   -1
100
AcDbLine
 10
122.6872841455173
 20
90.46269690992736
 11
122.6096841455173
 21
90.70159690992736
  0
LINE
  5
129
100
AcDbEntity
  8
0
  6
ByLayer
 62
  256
370
   -1
100
AcDbLine
 10
122.6096841455173
 20
90.70159690992736
 11
122.5626841455173
 21
90.94829690992735
  0
LINE
  5
12A
100
AcDbEntity
  8
0
  6
ByLayer
 62
  256
370
   -1
100
AcDbLine
 10
122.5626841455173
 20
90.94829690992735
 11
122.5468841455173
 21
91.19899690992736
  0
LINE
  5
12B
100
AcDbEntity
  8
0
  6
ByLayer
 62
  256
370
   -1
100
AcDbLine
 10
122.5468841455173
 20
91.19899690992736
 11
122.5626841455173
 21
91.44969690992735
  0
LINE
  5
12C
100
AcDbEntity
  8
0
  6
ByLayer
 62
  256
370
   -1
100
AcDbLine
 10
122.5626841455173
 20
91.44969690992735
 11
122.6096841455173
 21
91.69639690992736
  0
LINE
  5
12D
100
AcDbEntity
  8
0
  6
ByLayer
 62
  256
370
   -1
100
AcDbLine
 10
122.6096841455173
 20
91.69639690992736
 11
122.6872841455173
 21
91.93519690992736
  0
LINE
  5
12E
100
AcDbEntity
  8
0
  6
ByLayer
 62
  256
370
   -1
100
AcDbLine
 10
122.6872841455173
 20
91.93519690992736
 11
122.7942841455173
 21
92.16249690992734
  0
LINE
  5
12F
100
AcDbEntity
  8
0
  6
ByLayer
 62
  256
370
   -1
100
AcDbLine
 10
122.7942841455173
 20
92.16249690992734
 11
122.9288841455173
 21
92.37459690992736
  0
LINE
  5
130
100
AcDbEntity
  8
0
  6
ByLayer
 62
  256
370
   -1
100
AcDbLine
 10
122.9288841455173
 20
92.37459690992736
 11
123.0889841455173
 21
92.56809690992736
  0
LINE
  5
131
100
AcDbEntity
  8
0
  6
ByLayer
 62
  256
370
   -1
100
AcDbLine
 10
123.0889841455173
 20
92.56809690992736
 11
123.2719841455173
 21
92.73999690992736
  0
LINE
  5
132
100
AcDbEntity
  8
0
  6
ByLayer
 62
  256
370
   -1
100
AcDbLine
 10
123.2719841455173
 20
92.73999690992736
 11
123.4751841455173
 21
92.88769690992734
  0
LINE
  5
133
100
AcDbEntity
  8
0
  6
ByLayer
 62
  256
370
   -1
100
AcDbLine
 10
123.4751841455173
 20
92.88769690992734
 11
123.6952841455173
 21
93.00869690992735
  0
LINE
  5
134
100
AcDbEntity
  8
0
  6
ByLayer
 62
  256
370
   -1
100
AcDbLine
 10
123.6952841455173
 20
93.00869690992735
 11
123.9288841455173
 21
93.10109690992735
  0
LINE
  5
135
100
AcDbEntity
  8
0
  6
ByLayer
 62
  256
370
   -1
100
AcDbLine
 10
123.9288841455173
 20
93.10109690992735
 11
124.1720841455173
 21
93.16359690992735
  0
LINE
  5
136
100
AcDbEntity
  8
0
  6
ByLayer
 62
  256
370
   -1
100
AcDbLine
 10
124.1720841455173
 20
93.16359690992735
 11
124.4212841455173
 21
93.19499690992735
  0
LINE
  5
137
100
AcDbEntity
  8
0
  6
ByLayer
 62
  256
370
   -1
100
AcDbLine
 10
124.4212841455173
 20
93.19499690992735
 11
124.6724841455173
 21
93.19499690992735
  0
LINE
  5
138
100
AcDbEntity
  8
0
  6
ByLayer
 62
  256
370
   -1
100
AcDbLine
 10
124.6724841455173
 20
93.19499690992735
 11
124.9216841455173
 21
93.16359690992735
  0
LINE
  5
139
100
AcDbEntity
  8
0
  6
ByLayer
 62
  256
370
   -1
100
AcDbLine
 10
124.9216841455173
 20
93.16359690992735
 11
125.1648841455173
 21
93.10109690992735
  0
LINE
  5
13A
100
AcDbEntity
  8
0
  6
ByLayer
 62
  256
370
   -1
100
AcDbLine
 10
125.1648841455173
 20
93.10109690992735
 11
125.3983841455173
 21
93.00869690992735
  0
LINE
  5
13B
100
AcDbEntity
  8
0
  6
ByLayer
 62
  256
370
   -1
100
AcDbLine
 10
125.3983841455173
 20
93.00869690992735
 11
125.6184841455173
 21
92.88769690992734
  0
LINE
  5
13C
100
AcDbEntity
  8
0
  6
ByLayer
 62
  256
370
   -1
100
AcDbLine
 10
125.6184841455173
 20
92.88769690992734
 11
125.8216841455173
 21
92.73999690992736
  0
LINE
  5
13D
100
AcDbEntity
  8
0
  6
ByLayer
 62
  256
370
   -1
100
AcDbLine
 10
125.8216841455173
 20
92.73999690992736
 11
126.0047841455173
 21
92.56809690992736
  0
LINE
  5
13E
100
AcDbEntity
  8
0
  6
ByLayer
 62
  256
370
   -1
100
AcDbLine
 10
126.0047841455173
 20
92.56809690992736
 11
126.1648841455173
 21
92.37459690992736
  0
LINE
  5
13F
100
AcDbEntity
  8
0
  6
ByLayer
 62
  256
370
   -1
100
AcDbLine
 10
126.1648841455173
 20
92.37459690992736
 11
126.2994841455173
 21
92.16249690992734
  0
LINE
  5
140
100
AcDbEntity
  8
0
  6
ByLayer
 62
  256
370
   -1
100
AcDbLine
 10
126.2994841455173
 20
92.16249690992734
 11
126.4063841455173
 21
91.93519690992736
  0
LINE
  5
141
100
AcDbEntity
  8
0
  6
ByLayer
 62
  256
370
   -1
100
AcDbLine
 10
126.4063841455173
 20
91.93519690992736
 11
126.4840841455173
 21
91.69639690992736
  0
LINE
  5
142
100
AcDbEntity
  8
0
  6
ByLayer
 62
  256
370
   -1
100
AcDbLine
 10
126.4840841455173
 20
91.69639690992736
 11
126.5310841455173
 21
91.44969690992735
  0
LINE
  5
143
100
AcDbEntity
  8
0
  6
ByLayer
 62
  256
370
   -1
100
AcDbLine
 10
126.5310841455173
 20
91.44969690992735
 11
126.5468841455173
 21
91.19899690992736
  0
LINE
  5
144
100
AcDbEntity
  8
0
  6
ByLayer
 62
  256
370
   -1
100
AcDbLine
 10
126.5468841455173
 20
91.19899690992736
 11
126.5310841455173
 21
90.94829690992735
  0
LINE
  5
145
100
AcDbEntity
  8
0
  6
ByLayer
 62
  256
370
   -1
100
AcDbLine
 10
126.5310841455173
 20
90.94829690992735
 11
126.4840841455173
 21
90.70159690992736
  0
LINE
  5
146
100
AcDbEntity
  8
0
  6
ByLayer
 62
  256
370
   -1
100
AcDbLine
 10
126.4840841455173
 20
90.70159690992736
 11
126.4063841455173
 21
90.46269690992736
  0
LINE
  5
147
100
AcDbEntity
  8
0
  6
ByLayer
 62
  256
370
   -1
100
AcDbLine
 10
126.4063841455173
 20
90.46269690992736
 11
126.2994841455173
 21
90.23549690992735
  0
LINE
  5
148
100
AcDbEntity
  8
0
  6
ByLayer
 62
  256
370
   -1
100
AcDbLine
 10
126.2994841455173
 20
90.23549690992735
 11
126.1648841455173
 21
90.02339690992736
  0
LINE
  5
149
100
AcDbEntity
  8
0
  6
ByLayer
 62
  256
370
   -1
100
AcDbLine
 10
126.1648841455173
 20
90.02339690992736
 11
126.0047841455173
 21
89.82989690992736
  0
LINE
  5
14A
100
AcDbEntity
  8
0
  6
ByLayer
 62
  256
370
   -1
100
AcDbLine
 10
126.0047841455173
 20
89.82989690992736
 11
125.8216841455173
 21
89.65799690992736
  0
LINE
  5
14B
100
AcDbEntity
  8
0
  6
ByLayer
 62
  256
370
   -1
100
AcDbLine
 10
125.8216841455173
 20
89.65799690992736
 11
125.6184841455173
 21
89.51029690992735
  0
LINE
  5
14C
100
AcDbEntity
  8
0
  6
ByLayer
 62
  256
370
   -1
100
AcDbLine
 10
125.6184841455173
 20
89.51029690992735
 11
125.3983841455173
 21
89.38929690992735
  0
LINE
  5
14D
100
AcDbEntity
  8
0
  6
ByLayer
 62
  256
370
   -1
100
AcDbLine
 10
125.3983841455173
 20
89.38929690992735
 11
125.1648841455173
 21
89.29689690992736
  0
LINE
  5
14E
100
AcDbEntity
  8
0
  6
ByLayer
 62
  256
370
   -1
100
AcDbLine
 10
125.1648841455173
 20
89.29689690992736
 11
124.9216841455173
 21
89.23439690992736
  0
LINE
  5
14F
100
AcDbEntity
  8
0
  6
ByLayer
 62
  256
370
   -1
100
AcDbLine
 10
124.9216841455173
 20
89.23439690992736
 11
124.6724841455173
 21
89.20289690992735
  0
LINE
  5
150
100
AcDbEntity
  8
0
  6
ByLayer
 62
  256
370
   -1
100
AcDbLine
 10
124.6724841455173
 20
89.20289690992735
 11
124.4212841455173
 21
89.20289690992735
  0
LINE
  5
151
100
AcDbEntity
  8
0
  6
ByLayer
 62
  256
370
   -1
100
AcDbLine
 10
190.5212841455173
 20
85.89289690992734
 11
190.2720841455173
 21
85.92439690992735
  0
LINE
  5
152
100
AcDbEntity
  8
0
  6
ByLayer
 62
  256
370
   -1
100
AcDbLine
 10
190.2720841455173
 20
85.92439690992735
 11
190.0288841455173
 21
85.98689690992735
  0
LINE
  5
153
100
AcDbEntity
  8
0
  6
ByLayer
 62
  256
370
   -1
100
AcDbLine
 10
190.0288841455173
 20
85.98689690992735
 11
189.7952841455173
 21
86.07929690992735
  0
LINE
  5
154
100
AcDbEntity
  8
0
  6
ByLayer
 62
  256
370
   -1
100
AcDbLine
 10
189.7952841455173
 20
86.07929690992735
 11
189.5751841455173
 21
86.20029690992735
  0
LINE
  5
155
100
AcDbEntity
  8
0
  6
ByLayer
 62
  256
370
   -1
100
AcDbLine
 10
189.5751841455173
 20
86.20029690992735
 11
189.3720841455173
 21
86.34799690992736
  0
LINE
  5
156
100
AcDbEntity
  8
0
  6
ByLayer
 62
  256
370
   -1
100
AcDbLine
 10
189.3720841455173
 20
86.34799690992736
 11
189.1889841455173
 21
86.51989690992735
  0
LINE
  5
157
100
AcDbEntity
  8
0
  6
ByLayer
 62
  256
370
   -1
100
AcDbLine
 10
189.1889841455173
 20
86.51989690992735
 11
189.0288841455173
 21
86.71339690992735
  0
LINE
  5
158
100
AcDbEntity
  8
0
  6
ByLayer
 62
  256
370
   -1
100
AcDbLine
 10
189.0288841455173
 20
86.71339690992735
 11
188.8942841455173
 21
86.92549690992735
  0
LINE
  5
159
100
AcDbEntity
  8
0
  6
ByLayer
 62
  256
370
   -1
100
AcDbLine
 10
188.8942841455173
 20
86.92549690992735
 11
188.7872841455173
 21
87.15269690992736
  0
LINE
  5
15A
100
AcDbEntity
  8
0
  6
ByLayer
 62
  256
370
   -1
100
AcDbLine
 10
188.7872841455173
 20
87.15269690992736
 11
188.7096841455173
 21
87.39159690992736
  0
LINE
  5
15B
100
AcDbEntity
  8
0
  6
ByLayer
 62
  256
370
   -1
100
AcDbLine
 10
188.7096841455173
 20
87.39159690992736
 11
188.6626841455173
 21
87.63829690992736
  0
LINE
  5
15C
100
AcDbEntity
  8
0
  6
ByLayer
 62
  256
370
   -1
100
AcDbLine
 10
188.6626841455173
 20
87.63829690992736
 11
188.6468841455173
 21
87.88899690992736
  0
LINE
  5
15D
100
AcDbEntity
  8
0
  6
ByLayer
 62
  256
370
   -1
100
AcDbLine
 10
188.6468841455173
 20
87.88899690992736
 11
188.6626841455173
 21
88.13969690992735
  0
LINE
  5
15E
100
AcDbEntity
  8
0
  6
ByLayer
 62
  256
370
   -1
100
AcDbLine
 10
188.6626841455173
 20
88.13969690992735
 11
188.7096841455173
 21
88.38639690992736
  0
LINE
  5
15F
100
AcDbEntity
  8
0
  6
ByLayer
 62
  256
370
   -1
100
AcDbLine
 10
188.7096841455173
 20
88.38639690992736
 11
188.7872841455173
 21
88.62519690992735
  0
LINE
  5
160
100
AcDbEntity
  8
0
  6
ByLayer
 62
  256
370
   -1
100
AcDbLine
 10
188.7872841455173
 20
88.62519690992735
 11
188.8942841455173
 21
88.85249690992735
  0
LINE
  5
161
100
AcDbEntity
  8
0
  6
ByLayer
 62
  256
370
   -1
100
AcDbLine
 10
188.8942841455173
 20
88.85249690992735
 11
189.0288841455173
 21
89.06459690992736
  0
LINE
  5
162
100
AcDbEntity
  8
0
  6
ByLayer
 62
  256
370
   -1
100
AcDbLine
 10
189.0288841455173
 20
89.06459690992736
 11
189.1889841455173
 21
89.25809690992736
  0
LINE
  5
163
100
AcDbEntity
  8
0
  6
ByLayer
 62
  256
370
   -1
100
AcDbLine
 10
189.1889841455173
 20
89.25809690992736
 11
189.3720841455173
 21
89.42999690992735
  0
LINE
  5
164
100
AcDbEntity
  8
0
  6
ByLayer
 62
  256
370
   -1
100
AcDbLine
 10
189.3720841455173
 20
89.42999690992735
 11
189.5751841455173
 21
89.57769690992735
  0
LINE
  5
165
100
AcDbEntity
  8
0
  6
ByLayer
 62
  256
370
   -1
100
AcDbLine
 10
189.5751841455173
 20
89.57769690992735
 11
189.7952841455173
 21
89.69859690992735
  0
LINE
  5
166
100
AcDbEntity
  8
0
  6
ByLayer
 62
  256
370
   -1
100
AcDbLine
 10
189.7952841455173
 20
89.69859690992735
 11
190.0288841455173
 21
89.79109690992735
  0
LINE
  5
167
100
AcDbEntity
  8
0
  6
ByLayer
 62
  256
370
   -1
100
AcDbLine
 10
190.0288841455173
 20
89.79109690992735
 11
190.2720841455173
 21
89.85359690992735
  0
LINE
  5
168
100
AcDbEntity
  8
0
  6
ByLayer
 62
  256
370
   -1
100
AcDbLine
 10
190.2720841455173
 20
89.85359690992735
 11
190.5212841455173
 21
89.88499690992735
  0
LINE
  5
169
100
AcDbEntity
  8
0
  6
ByLayer
 62
  256
370
   -1
100
AcDbLine
 10
190.5212841455173
 20
89.88499690992735
 11
190.7724841455173
 21
89.88499690992735
  0
LINE
  5
16A
100
AcDbEntity
  8
0
  6
ByLayer
 62
  256
370
   -1
100
AcDbLine
 10
190.7724841455173
 20
89.88499690992735
 11
191.0216841455173
 21
89.85359690992735
  0
LINE
  5
16B
100
AcDbEntity
  8
0
  6
ByLayer
 62
  256
370
   -1
100
AcDbLine
 10
191.0216841455173
 20
89.85359690992735
 11
191.2648841455173
 21
89.79109690992735
  0
LINE
  5
16C
100
AcDbEntity
  8
0
  6
ByLayer
 62
  256
370
   -1
100
AcDbLine
 10
191.2648841455173
 20
89.79109690992735
 11
191.4984841455173
 21
89.69859690992735
  0
LINE
  5
16D
100
AcDbEntity
  8
0
  6
ByLayer
 62
  256
370
   -1
100
AcDbLine
 10
191.4984841455173
 20
89.69859690992735
 11
191.7184841455173
 21
89.57769690992735
  0
LINE
  5
16E
100
AcDbEntity
  8
0
  6
ByLayer
 62
  256
370
   -1
100
AcDbLine
 10
191.7184841455173
 20
89.57769690992735
 11
191.9216841455173
 21
89.42999690992735
  0
LINE
  5
16F
100
AcDbEntity
  8
0
  6
ByLayer
 62
  256
370
   -1
100
AcDbLine
 10
191.9216841455173
 20
89.42999690992735
 11
192.1047841455173
 21
89.25809690992736
  0
LINE
  5
170
100
AcDbEntity
  8
0
  6
ByLayer
 62
  256
370
   -1
100
AcDbLine
 10
192.1047841455173
 20
89.25809690992736
 11
192.2648841455173
 21
89.06459690992736
  0
LINE
  5
171
100
AcDbEntity
  8
0
  6
ByLayer
 62
  256
370
   -1
100
AcDbLine
 10
192.2648841455173
 20
89.06459690992736
 11
192.3994841455173
 21
88.85249690992735
  0
LINE
  5
172
100
AcDbEntity
  8
0
  6
ByLayer
 62
  256
370
   -1
100
AcDbLine
 10
192.3994841455173
 20
88.85249690992735
 11
192.5063841455173
 21
88.62519690992735
  0
LINE
  5
173
100
AcDbEntity
  8
0
  6
ByLayer
 62
  256
370
   -1
100
AcDbLine
 10
192.5063841455173
 20
88.62519690992735
 11
192.5840841455173
 21
88.38639690992736
  0
LINE
  5
174
100
AcDbEntity
  8
0
  6
ByLayer
 62
  256
370
   -1
100
AcDbLine
 10
192.5840841455173
 20
88.38639690992736
 11
192.6310841455173
 21
88.13969690992735
  0
LINE
  5
175
100
AcDbEntity
  8
0
  6
ByLayer
 62
  256
370
   -1
100
AcDbLine
 10
192.6310841455173
 20
88.13969690992735
 11
192.6468841455173
 21
87.88899690992736
  0
LINE
  5
176
100
AcDbEntity
  8
0
  6
ByLayer
 62
  256
370
   -1
100
AcDbLine
 10
192.6468841455173
 20
87.88899690992736
 11
192.6310841455173
 21
87.63829690992736
  0
LINE
  5
177
100
AcDbEntity
  8
0
  6
ByLayer
 62
  256
370
   -1
100
AcDbLine
 10
192.6310841455173
 20
87.63829690992736
 11
192.5840841455173
 21
87.39159690992736
  0
LINE
  5
178
100
AcDbEntity
  8
0
  6
ByLayer
 62
  256
370
   -1
100
AcDbLine
 10
192.5840841455173
 20
87.39159690992736
 11
192.5063841455173
 21
87.15269690992736
  0
LINE
  5
179
100
AcDbEntity
  8
0
  6
ByLayer
 62
  256
370
   -1
100
AcDbLine
 10
192.5063841455173
 20
87.15269690992736
 11
192.3994841455173
 21
86.92549690992735
  0
LINE
  5
17A
100
AcDbEntity
  8
0
  6
ByLayer
 62
  256
370
   -1
100
AcDbLine
 10
192.3994841455173
 20
86.92549690992735
 11
192.2648841455173
 21
86.71339690992735
  0
LINE
  5
17B
100
AcDbEntity
  8
0
  6
ByLayer
 62
  256
370
   -1
100
AcDbLine
 10
192.2648841455173
 20
86.71339690992735
 11
192.1047841455173
 21
86.51989690992735
  0
LINE
  5
17C
100
AcDbEntity
  8
0
  6
ByLayer
 62
  256
370
   -1
100
AcDbLine
 10
192.1047841455173
 20
86.51989690992735
 11
191.9216841455173
 21
86.34799690992736
  0
LINE
  5
17D
100
AcDbEntity
  8
0
  6
ByLayer
 62
  256
370
   -1
100
AcDbLine
 10
191.9216841455173
 20
86.34799690992736
 11
191.7184841455173
 21
86.20029690992735
  0
LINE
  5
17E
100
AcDbEntity
  8
0
  6
ByLayer
 62
  256
370
   -1
100
AcDbLine
 10
191.7184841455173
 20
86.20029690992735
 11
191.4984841455173
 21
86.07929690992735
  0
LINE
  5
17F
100
AcDbEntity
  8
0
  6
ByLayer
 62
  256
370
   -1
100
AcDbLine
 10
191.4984841455173
 20
86.07929690992735
 11
191.2648841455173
 21
85.98689690992735
  0
LINE
  5
180
100
AcDbEntity
  8
0
  6
ByLayer
 62
  256
370
   -1
100
AcDbLine
 10
191.2648841455173
 20
85.98689690992735
 11
191.0216841455173
 21
85.92439690992735
  0
LINE
  5
181
100
AcDbEntity
  8
0
  6
ByLayer
 62
  256
370
   -1
100
AcDbLine
 10
191.0216841455173
 20
85.92439690992735
 11
190.7724841455173
 21
85.89289690992734
  0
LINE
  5
182
100
AcDbEntity
  8
0
  6
ByLayer
 62
  256
370
   -1
100
AcDbLine
 10
190.7724841455173
 20
85.89289690992734
 11
190.5212841455173
 21
85.89289690992734
  0
LINE
  5
183
100
AcDbEntity
  8
0
  6
ByLayer
 62
  256
370
   -1
100
AcDbLine
 10
183.2968841455173
 20
79.62899690992735
 11
183.2968841455173
 21
83.62899690992735
  0
LINE
  5
184
100
AcDbEntity
  8
0
  6
ByLayer
 62
  256
370
   -1
100
AcDbLine
 10
183.2968841455173
 20
83.62899690992735
 11
189.2968841455173
 21
83.62899690992735
  0
LINE
  5
185
100
AcDbEntity
  8
0
  6
ByLayer
 62
  256
370
   -1
100
AcDbLine
 10
189.2968841455173
 20
83.62899690992735
 11
189.2968841455173
 21
79.62899690992735
  0
LINE
  5
186
100
AcDbEntity
  8
0
  6
ByLayer
 62
  256
370
   -1
100
AcDbLine
 10
189.2968841455173
 20
79.62899690992735
 11
183.2968841455173
 21
79.62899690992735
  0
LINE
  5
187
100
AcDbEntity
  8
0
  6
ByLayer
 62
  256
370
   -1
100
AcDbLine
 10
114.9368841455173
 20
79.62899690992735
 11
114.9368841455173
 21
83.62899690992735
  0
LINE
  5
188
100
AcDbEntity
  8
0
  6
ByLayer
 62
  256
370
   -1
100
AcDbLine
 10
114.9368841455173
 20
83.62899690992735
 11
120.9368841455173
 21
83.62899690992735
  0
LINE
  5
189
100
AcDbEntity
  8
0
  6
ByLayer
 62
  256
370
   -1
100
AcDbLine
 10
120.9368841455173
 20
83.62899690992735
 11
120.9368841455173
 21
79.62899690992735
  0
LINE
  5
18A
100
AcDbEntity
  8
0
  6
ByLayer
 62
  256
370
   -1
100
AcDbLine
 10
120.9368841455173
 20
79.62899690992735
 11
114.9368841455173
 21
79.62899690992735
  0
LINE
  5
18B
100
AcDbEntity
  8
0
  6
ByLayer
 62
  256
370
   -1
100
AcDbLine
 10
127.9368841455173
 20
39.62899690992735
 11
127.9368841455173
 21
45.62899690992735
  0
LINE
  5
18C
100
AcDbEntity
  8
0
  6
ByLayer
 62
  256
370
   -1
100
AcDbLine
 10
127.9368841455173
 20
45.62899690992735
 11
149.6218841455173
 21
45.62899690992735
  0
LINE
  5
18D
100
AcDbEntity
  8
0
  6
ByLayer
 62
  256
370
   -1
100
AcDbLine
 10
149.6218841455173
 20
45.62899690992735
 11
149.6218841455173
 21
50.62899690992735
  0
LINE
  5
18E
100
AcDbEntity
  8
0
  6
ByLayer
 62
  256
370
   -1
100
AcDbLine
 10
149.6218841455173
 20
50.62899690992735
 11
168.6218841455173
 21
50.62899690992735
  0
LINE
  5
18F
100
AcDbEntity
  8
0
  6
ByLayer
 62
  256
370
   -1
100
AcDbLine
 10
168.6218841455173
 20
50.62899690992735
 11
168.6218841455173
 21
45.62899690992735
  0
LINE
  5
190
100
AcDbEntity
  8
0
  6
ByLayer
 62
  256
370
   -1
100
AcDbLine
 10
168.6218841455173
 20
45.62899690992735
 11
186.9368841455173
 21
45.62899690992735
  0
LINE
  5
191
100
AcDbEntity
  8
0
  6
ByLayer
 62
  256
370
   -1
100
AcDbLine
 10
186.9368841455173
 20
45.62899690992735
 11
186.9368841455173
 21
39.62899690992735
  0
LINE
  5
192
100
AcDbEntity
  8
0
  6
ByLayer
 62
  256
370
   -1
100
AcDbLine
 10
186.9368841455173
 20
39.62899690992735
 11
127.9368841455173
 21
39.62899690992735
  0
LINE
  5
193
100
AcDbEntity
  8
0
  6
ByLayer
 62
  256
370
   -1
100
AcDbLine
 10
190.5212841455173
 20
43.98293690992735
 11
190.2720841455173
 21
44.01441690992735
  0
LINE
  5
194
100
AcDbEntity
  8
0
  6
ByLayer
 62
  256
370
   -1
100
AcDbLine
 10
190.2720841455173
 20
44.01441690992735
 11
190.0288841455173
 21
44.07687690992735
  0
LINE
  5
195
100
AcDbEntity
  8
0
  6
ByLayer
 62
  256
370
   -1
100
AcDbLine
 10
190.0288841455173
 20
44.07687690992735
 11
189.7952841455173
 21
44.16933690992735
  0
LINE
  5
196
100
AcDbEntity
  8
0
  6
ByLayer
 62
  256
370
   -1
100
AcDbLine
 10
189.7952841455173
 20
44.16933690992735
 11
189.5751841455173
 21
44.29032690992735
  0
LINE
  5
197
100
AcDbEntity
  8
0
  6
ByLayer
 62
  256
370
   -1
100
AcDbLine
 10
189.5751841455173
 20
44.29032690992735
 11
189.3720841455173
 21
44.43795690992735
  0
LINE
  5
198
100
AcDbEntity
  8
0
  6
ByLayer
 62
  256
370
   -1
100
AcDbLine
 10
189.3720841455173
 20
44.43795690992735
 11
189.1889841455173
 21
44.60989690992735
  0
LINE
  5
199
100
AcDbEntity
  8
0
  6
ByLayer
 62
  256
370
   -1
100
AcDbLine
 10
189.1889841455173
 20
44.60989690992735
 11
189.0288841455173
 21
44.80341690992735
  0
LINE
  5
19A
100
AcDbEntity
  8
0
  6
ByLayer
 62
  256
370
   -1
100
AcDbLine
 10
189.0288841455173
 20
44.80341690992735
 11
188.8942841455173
 21
45.01548690992735
  0
LINE
  5
19B
100
AcDbEntity
  8
0
  6
ByLayer
 62
  256
370
   -1
100
AcDbLine
 10
188.8942841455173
 20
45.01548690992735
 11
188.7872841455173
 21
45.24273690992735
  0
LINE
  5
19C
100
AcDbEntity
  8
0
  6
ByLayer
 62
  256
370
   -1
100
AcDbLine
 10
188.7872841455173
 20
45.24273690992735
 11
188.7096841455173
 21
45.48161690992735
  0
LINE
  5
19D
100
AcDbEntity
  8
0
  6
ByLayer
 62
  256
370
   -1
100
AcDbLine
 10
188.7096841455173
 20
45.48161690992735
 11
188.6626841455173
 21
45.72829690992735
  0
LINE
  5
19E
100
AcDbEntity
  8
0
  6
ByLayer
 62
  256
370
   -1
100
AcDbLine
 10
188.6626841455173
 20
45.72829690992735
 11
188.6468841455173
 21
45.97899690992735
  0
LINE
  5
19F
100
AcDbEntity
  8
0
  6
ByLayer
 62
  256
370
   -1
100
AcDbLine
 10
188.6468841455173
 20
45.97899690992735
 11
188.6626841455173
 21
46.22969690992736
  0
LINE
  5
1A0
100
AcDbEntity
  8
0
  6
ByLayer
 62
  256
370
   -1
100
AcDbLine
 10
188.6626841455173
 20
46.22969690992736
 11
188.7096841455173
 21
46.47639690992735
  0
LINE
  5
1A1
100
AcDbEntity
  8
0
  6
ByLayer
 62
  256
370
   -1
100
AcDbLine
 10
188.7096841455173
 20
46.47639690992735
 11
188.7872841455173
 21
46.71519690992735
  0
LINE
  5
1A2
100
AcDbEntity
  8
0
  6
ByLayer
 62
  256
370
   -1
100
AcDbLine
 10
188.7872841455173
 20
46.71519690992735
 11
188.8942841455173
 21
46.94249690992735
  0
LINE
  5
1A3
100
AcDbEntity
  8
0
  6
ByLayer
 62
  256
370
   -1
100
AcDbLine
 10
188.8942841455173
 20
46.94249690992735
 11
189.0288841455173
 21
47.15459690992735
  0
LINE
  5
1A4
100
AcDbEntity
  8
0
  6
ByLayer
 62
  256
370
   -1
100
AcDbLine
 10
189.0288841455173
 20
47.15459690992735
 11
189.1889841455173
 21
47.34809690992735
  0
LINE
  5
1A5
100
AcDbEntity
  8
0
  6
ByLayer
 62
  256
370
   -1
100
AcDbLine
 10
189.1889841455173
 20
47.34809690992735
 11
189.3720841455173
 21
47.51999690992735
  0
LINE
  5
1A6
100
AcDbEntity
  8
0
  6
ByLayer
 62
  256
370
   -1
100
AcDbLine
 10
189.3720841455173
 20
47.51999690992735
 11
189.5751841455173
 21
47.66769690992735
  0
LINE
  5
1A7
100
AcDbEntity
  8
0
  6
ByLayer
 62
  256
370
   -1
100
AcDbLine
 10
189.5751841455173
 20
47.66769690992735
 11
189.7952841455173
 21
47.78869690992735
  0
LINE
  5
1A8
100
AcDbEntity
  8
0
  6
ByLayer
 62
  256
370
   -1
100
AcDbLine
 10
189.7952841455173
 20
47.78869690992735
 11
190.0288841455173
 21
47.88109690992735
  0
LINE
  5
1A9
100
AcDbEntity
  8
0
  6
ByLayer
 62
  256
370
   -1
100
AcDbLine
 10
190.0288841455173
 20
47.88109690992735
 11
190.2720841455173
 21
47.94359690992735
  0
LINE
  5
1AA
100
AcDbEntity
  8
0
  6
ByLayer
 62
  256
370
   -1
100
AcDbLine
 10
190.2720841455173
 20
47.94359690992735
 11
190.5212841455173
 21
47.97499690992736
  0
LINE
  5
1AB
100
AcDbEntity
  8
0
  6
ByLayer
 62
  256
370
   -1
100
AcDbLine
 10
190.5212841455173
 20
47.97499690992736
 11
190.7724841455173
 21
47.97499690992736
  0
LINE
  5
1AC
100
AcDbEntity
  8
0
  6
ByLayer
 62
  256
370
   -1
100
AcDbLine
 10
190.7724841455173
 20
47.97499690992736
 11
191.0216841455173
 21
47.94359690992735
  0
LINE
  5
1AD
100
AcDbEntity
  8
0
  6
ByLayer
 62
  256
370
   -1
100
AcDbLine
 10
191.0216841455173
 20
47.94359690992735
 11
191.2648841455173
 21
47.88109690992735
  0
LINE
  5
1AE
100
AcDbEntity
  8
0
  6
ByLayer
 62
  256
370
   -1
100
AcDbLine
 10
191.2648841455173
 20
47.88109690992735
 11
191.4984841455173
 21
47.78869690992735
  0
LINE
  5
1AF
100
AcDbEntity
  8
0
  6
ByLayer
 62
  256
370
   -1
100
AcDbLine
 10
191.4984841455173
 20
47.78869690992735
 11
191.7184841455173
 21
47.66769690992735
  0
LINE
  5
1B0
100
AcDbEntity
  8
0
  6
ByLayer
 62
  256
370
   -1
100
AcDbLine
 10
191.7184841455173
 20
47.66769690992735
 11
191.9216841455173
 21
47.51999690992735
  0
LINE
  5
1B1
100
AcDbEntity
  8
0
  6
ByLayer
 62
  256
370
   -1
100
AcDbLine
 10
191.9216841455173
 20
47.51999690992735
 11
192.1047841455173
 21
47.34809690992735
  0
LINE
  5
1B2
100
AcDbEntity
  8
0
  6
ByLayer
 62
  256
370
   -1
100
AcDbLine
 10
192.1047841455173
 20
47.34809690992735
 11
192.2648841455173
 21
47.15459690992735
  0
LINE
  5
1B3
100
AcDbEntity
  8
0
  6
ByLayer
 62
  256
370
   -1
100
AcDbLine
 10
192.2648841455173
 20
47.15459690992735
 11
192.3994841455173
 21
46.94249690992735
  0
LINE
  5
1B4
100
AcDbEntity
  8
0
  6
ByLayer
 62
  256
370
   -1
100
AcDbLine
 10
192.3994841455173
 20
46.94249690992735
 11
192.5063841455173
 21
46.71519690992735
  0
LINE
  5
1B5
100
AcDbEntity
  8
0
  6
ByLayer
 62
  256
370
   -1
100
AcDbLine
 10
192.5063841455173
 20
46.71519690992735
 11
192.5840841455173
 21
46.47639690992735
  0
LINE
  5
1B6
100
AcDbEntity
  8
0
  6
ByLayer
 62
  256
370
   -1
100
AcDbLine
 10
192.5840841455173
 20
46.47639690992735
 11
192.6310841455173
 21
46.22969690992736
  0
LINE
  5
1B7
100
AcDbEntity
  8
0
  6
ByLayer
 62
  256
370
   -1
100
AcDbLine
 10
192.6310841455173
 20
46.22969690992736
 11
192.6468841455173
 21
45.97899690992735
  0
LINE
  5
1B8
100
AcDbEntity
  8
0
  6
ByLayer
 62
  256
370
   -1
100
AcDbLine
 10
192.6468841455173
 20
45.97899690992735
 11
192.6310841455173
 21
45.72829690992735
  0
LINE
  5
1B9
100
AcDbEntity
  8
0
  6
ByLayer
 62
  256
370
   -1
100
AcDbLine
 10
192.6310841455173
 20
45.72829690992735
 11
192.5840841455173
 21
45.48161690992735
  0
LINE
  5
1BA
100
AcDbEntity
  8
0
  6
ByLayer
 62
  256
370
   -1
100
AcDbLine
 10
192.5840841455173
 20
45.48161690992735
 11
192.5063841455173
 21
45.24273690992735
  0
LINE
  5
1BB
100
AcDbEntity
  8
0
  6
ByLayer
 62
  256
370
   -1
100
AcDbLine
 10
192.5063841455173
 20
45.24273690992735
 11
192.3994841455173
 21
45.01548690992735
  0
LINE
  5
1BC
100
AcDbEntity
  8
0
  6
ByLayer
 62
  256
370
   -1
100
AcDbLine
 10
192.3994841455173
 20
45.01548690992735
 11
192.2648841455173
 21
44.80341690992735
  0
LINE
  5
1BD
100
AcDbEntity
  8
0
  6
ByLayer
 62
  256
370
   -1
100
AcDbLine
 10
192.2648841455173
 20
44.80341690992735
 11
192.1047841455173
 21
44.60989690992735
  0
LINE
  5
1BE
100
AcDbEntity
  8
0
  6
ByLayer
 62
  256
370
   -1
100
AcDbLine
 10
192.1047841455173
 20
44.60989690992735
 11
191.9216841455173
 21
44.43795690992735
  0
LINE
  5
1BF
100
AcDbEntity
  8
0
  6
ByLayer
 62
  256
370
   -1
100
AcDbLine
 10
191.9216841455173
 20
44.43795690992735
 11
191.7184841455173
 21
44.29032690992735
  0
LINE
  5
1C0
100
AcDbEntity
  8
0
  6
ByLayer
 62
  256
370
   -1
100
AcDbLine
 10
191.7184841455173
 20
44.29032690992735
 11
191.4984841455173
 21
44.16933690992735
  0
LINE
  5
1C1
100
AcDbEntity
  8
0
  6
ByLayer
 62
  256
370
   -1
100
AcDbLine
 10
191.4984841455173
 20
44.16933690992735
 11
191.2648841455173
 21
44.07687690992735
  0
LINE
  5
1C2
100
AcDbEntity
  8
0
  6
ByLayer
 62
  256
370
   -1
100
AcDbLine
 10
191.2648841455173
 20
44.07687690992735
 11
191.0216841455173
 21
44.01441690992735
  0
LINE
  5
1C3
100
AcDbEntity
  8
0
  6
ByLayer
 62
  256
370
   -1
100
AcDbLine
 10
191.0216841455173
 20
44.01441690992735
 11
190.7724841455173
 21
43.98293690992735
  0
LINE
  5
1C4
100
AcDbEntity
  8
0
  6
ByLayer
 62
  256
370
   -1
100
AcDbLine
 10
190.7724841455173
 20
43.98293690992735
 11
190.5212841455173
 21
43.98293690992735
  0
LINE
  5
1C5
100
AcDbEntity
  8
0
  6
ByLayer
 62
  256
370
   -1
100
AcDbLine
 10
124.4212841455173
 20
40.81293690992735
 11
124.1720841455173
 21
40.84441690992735
  0
LINE
  5
1C6
100
AcDbEntity
  8
0
  6
ByLayer
 62
  256
370
   -1
100
AcDbLine
 10
124.1720841455173
 20
40.84441690992735
 11
123.9288841455173
 21
40.90687690992735
  0
LINE
  5
1C7
100
AcDbEntity
  8
0
  6
ByLayer
 62
  256
370
   -1
100
AcDbLine
 10
123.9288841455173
 20
40.90687690992735
 11
123.6952841455173
 21
40.99934690992735
  0
LINE
  5
1C8
100
AcDbEntity
  8
0
  6
ByLayer
 62
  256
370
   -1
100
AcDbLine
 10
123.6952841455173
 20
40.99934690992735
 11
123.4751841455173
 21
41.12032690992735
  0
LINE
  5
1C9
100
AcDbEntity
  8
0
  6
ByLayer
 62
  256
370
   -1
100
AcDbLine
 10
123.4751841455173
 20
41.12032690992735
 11
123.2719841455173
 21
41.26795690992735
  0
LINE
  5
1CA
100
AcDbEntity
  8
0
  6
ByLayer
 62
  256
370
   -1
100
AcDbLine
 10
123.2719841455173
 20
41.26795690992735
 11
123.0889841455173
 21
41.43989690992736
  0
LINE
  5
1CB
100
AcDbEntity
  8
0
  6
ByLayer
 62
  256
370
   -1
100
AcDbLine
 10
123.0889841455173
 20
41.43989690992736
 11
122.9288841455173
 21
41.63342690992735
  0
LINE
  5
1CC
100
AcDbEntity
  8
0
  6
ByLayer
 62
  256
370
   -1
100
AcDbLine
 10
122.9288841455173
 20
41.63342690992735
 11
122.7942841455173
 21
41.84548690992735
  0
LINE
  5
1CD
100
AcDbEntity
  8
0
  6
ByLayer
 62
  256
370
   -1
100
AcDbLine
 10
122.7942841455173
 20
41.84548690992735
 11
122.6872841455173
 21
42.07273690992735
  0
LINE
  5
1CE
100
AcDbEntity
  8
0
  6
ByLayer
 62
  256
370
   -1
100
AcDbLine
 10
122.6872841455173
 20
42.07273690992735
 11
122.6096841455173
 21
42.31161690992735
  0
LINE
  5
1CF
100
AcDbEntity
  8
0
  6
ByLayer
 62
  256
370
   -1
100
AcDbLine
 10
122.6096841455173
 20
42.31161690992735
 11
122.5626841455173
 21
42.55831690992735
  0
LINE
  5
1D0
100
AcDbEntity
  8
0
  6
ByLayer
 62
  256
370
   -1
100
AcDbLine
 10
122.5626841455173
 20
42.55831690992735
 11
122.5468841455173
 21
42.80898690992736
  0
LINE
  5
1D1
100
AcDbEntity
  8
0
  6
ByLayer
 62
  256
370
   -1
100
AcDbLine
 10
122.5468841455173
 20
42.80898690992736
 11
122.5626841455173
 21
43.05965690992736
  0
LINE
  5
1D2
100
AcDbEntity
  8
0
  6
ByLayer
 62
  256
370
   -1
100
AcDbLine
 10
122.5626841455173
 20
43.05965690992736
 11
122.6096841455173
 21
43.30636690992735
  0
LINE
  5
1D3
100
AcDbEntity
  8
0
  6
ByLayer
 62
  256
370
   -1
100
AcDbLine
 10
122.6096841455173
 20
43.30636690992735
 11
122.6872841455173
 21
43.54523690992735
  0
LINE
  5
1D4
100
AcDbEntity
  8
0
  6
ByLayer
 62
  256
370
   -1
100
AcDbLine
 10
122.6872841455173
 20
43.54523690992735
 11
122.7942841455173
 21
43.77248690992735
  0
LINE
  5
1D5
100
AcDbEntity
  8
0
  6
ByLayer
 62
  256
370
   -1
100
AcDbLine
 10
122.7942841455173
 20
43.77248690992735
 11
122.9288841455173
 21
43.98455690992735
  0
LINE
  5
1D6
100
AcDbEntity
  8
0
  6
ByLayer
 62
  256
370
   -1
100
AcDbLine
 10
122.9288841455173
 20
43.98455690992735
 11
123.0889841455173
 21
44.17808690992735
  0
LINE
  5
1D7
100
AcDbEntity
  8
0
  6
ByLayer
 62
  256
370
   -1
100
AcDbLine
 10
123.0889841455173
 20
44.17808690992735
 11
123.2719841455173
 21
44.35001690992735
  0
LINE
  5
1D8
100
AcDbEntity
  8
0
  6
ByLayer
 62
  256
370
   -1
100
AcDbLine
 10
123.2719841455173
 20
44.35001690992735
 11
123.4751841455173
 21
44.49764690992735
  0
LINE
  5
1D9
100
AcDbEntity
  8
0
  6
ByLayer
 62
  256
370
   -1
100
AcDbLine
 10
123.4751841455173
 20
44.49764690992735
 11
123.6952841455173
 21
44.61863690992735
  0
LINE
  5
1DA
100
AcDbEntity
  8
0
  6
ByLayer
 62
  256
370
   -1
100
AcDbLine
 10
123.6952841455173
 20
44.61863690992735
 11
123.9288841455173
 21
44.71110690992735
  0
LINE
  5
1DB
100
AcDbEntity
  8
0
  6
ByLayer
 62
  256
370
   -1
100
AcDbLine
 10
123.9288841455173
 20
44.71110690992735
 11
124.1720841455173
 21
44.77355690992735
  0
LINE
  5
1DC
100
AcDbEntity
  8
0
  6
ByLayer
 62
  256
370
   -1
100
AcDbLine
 10
124.1720841455173
 20
44.77355690992735
 11
124.4212841455173
 21
44.80503690992735
  0
LINE
  5
1DD
100
AcDbEntity
  8
0
  6
ByLayer
 62
  256
370
   -1
100
AcDbLine
 10
124.4212841455173
 20
44.80503690992735
 11
124.6724841455173
 21
44.80503690992735
  0
LINE
  5
1DE
100
AcDbEntity
  8
0
  6
ByLayer
 62
  256
370
   -1
100
AcDbLine
 10
124.6724841455173
 20
44.80503690992735
 11
124.9216841455173
 21
44.77355690992735
  0
LINE
  5
1DF
100
AcDbEntity
  8
0
  6
ByLayer
 62
  256
370
   -1
100
AcDbLine
 10
124.9216841455173
 20
44.77355690992735
 11
125.1648841455173
 21
44.71110690992735
  0
LINE
  5
1E0
100
AcDbEntity
  8
0
  6
ByLayer
 62
  256
370
   -1
100
AcDbLine
 10
125.1648841455173
 20
44.71110690992735
 11
125.3983841455173
 21
44.61863690992735
  0
LINE
  5
1E1
100
AcDbEntity
  8
0
  6
ByLayer
 62
  256
370
   -1
100
AcDbLine
 10
125.3983841455173
 20
44.61863690992735
 11
125.6184841455173
 21
44.49764690992735
  0
LINE
  5
1E2
100
AcDbEntity
  8
0
  6
ByLayer
 62
  256
370
   -1
100
AcDbLine
 10
125.6184841455173
 20
44.49764690992735
 11
125.8216841455173
 21
44.35001690992735
  0
LINE
  5
1E3
100
AcDbEntity
  8
0
  6
ByLayer
 62
  256
370
   -1
100
AcDbLine
 10
125.8216841455173
 20
44.35001690992735
 11
126.0047841455173
 21
44.17808690992735
  0
LINE
  5
1E4
100
AcDbEntity
  8
0
  6
ByLayer
 62
  256
370
   -1
100
AcDbLine
 10
126.0047841455173
 20
44.17808690992735
 11
126.1648841455173
 21
43.98455690992735
  0
LINE
  5
1E5
100
AcDbEntity
  8
0
  6
ByLayer
 62
  256
370
   -1
100
AcDbLine
 10
126.1648841455173
 20
43.98455690992735
 11
126.2994841455173
 21
43.77248690992735
  0
LINE
  5
1E6
100
AcDbEntity
  8
0
  6
ByLayer
 62
  256
370
   -1
100
AcDbLine
 10
126.2994841455173
 20
43.77248690992735
 11
126.4063841455173
 21
43.54523690992735
  0
LINE
  5
1E7
100
AcDbEntity
  8
0
  6
ByLayer
 62
  256
370
   -1
100
AcDbLine
 10
126.4063841455173
 20
43.54523690992735
 11
126.4840841455173
 21
43.30636690992735
  0
LINE
  5
1E8
100
AcDbEntity
  8
0
  6
ByLayer
 62
  256
370
   -1
100
AcDbLine
 10
126.4840841455173
 20
43.30636690992735
 11
126.5310841455173
 21
43.05965690992736
  0
LINE
  5
1E9
100
AcDbEntity
  8
0
  6
ByLayer
 62
  256
370
   -1
100
AcDbLine
 10
126.5310841455173
 20
43.05965690992736
 11
126.5468841455173
 21
42.80898690992736
  0
LINE
  5
1EA
100
AcDbEntity
  8
0
  6
ByLayer
 62
  256
370
   -1
100
AcDbLine
 10
126.5468841455173
 20
42.80898690992736
 11
126.5310841455173
 21
42.55831690992735
  0
LINE
  5
1EB
100
AcDbEntity
  8
0
  6
ByLayer
 62
  256
370
   -1
100
AcDbLine
 10
126.5310841455173
 20
42.55831690992735
 11
126.4840841455173
 21
42.31161690992735
  0
LINE
  5
1EC
100
AcDbEntity
  8
0
  6
ByLayer
 62
  256
370
   -1
100
AcDbLine
 10
126.4840841455173
 20
42.31161690992735
 11
126.4063841455173
 21
42.07273690992735
  0
LINE
  5
1ED
100
AcDbEntity
  8
0
  6
ByLayer
 62
  256
370
   -1
100
AcDbLine
 10
126.4063841455173
 20
42.07273690992735
 11
126.2994841455173
 21
41.84548690992735
  0
LINE
  5
1EE
100
AcDbEntity
  8
0
  6
ByLayer
 62
  256
370
   -1
100
AcDbLine
 10
126.2994841455173
 20
41.84548690992735
 11
126.1648841455173
 21
41.63342690992735
  0
LINE
  5
1EF
100
AcDbEntity
  8
0
  6
ByLayer
 62
  256
370
   -1
100
AcDbLine
 10
126.1648841455173
 20
41.63342690992735
 11
126.0047841455173
 21
41.43989690992736
  0
LINE
  5
1F0
100
AcDbEntity
  8
0
  6
ByLayer
 62
  256
370
   -1
100
AcDbLine
 10
126.0047841455173
 20
41.43989690992736
 11
125.8216841455173
 21
41.26795690992735
  0
LINE
  5
1F1
100
AcDbEntity
  8
0
  6
ByLayer
 62
  256
370
   -1
100
AcDbLine
 10
125.8216841455173
 20
41.26795690992735
 11
125.6184841455173
 21
41.12032690992735
  0
LINE
  5
1F2
100
AcDbEntity
  8
0
  6
ByLayer
 62
  256
370
   -1
100
AcDbLine
 10
125.6184841455173
 20
41.12032690992735
 11
125.3983841455173
 21
40.99934690992735
  0
LINE
  5
1F3
100
AcDbEntity
  8
0
  6
ByLayer
 62
  256
370
   -1
100
AcDbLine
 10
125.3983841455173
 20
40.99934690992735
 11
125.1648841455173
 21
40.90687690992735
  0
LINE
  5
1F4
100
AcDbEntity
  8
0
  6
ByLayer
 62
  256
370
   -1
100
AcDbLine
 10
125.1648841455173
 20
40.90687690992735
 11
124.9216841455173
 21
40.84441690992735
  0
LINE
  5
1F5
100
AcDbEntity
  8
0
  6
ByLayer
 62
  256
370
   -1
100
AcDbLine
 10
124.9216841455173
 20
40.84441690992735
 11
124.6724841455173
 21
40.81293690992735
  0
LINE
  5
1F6
100
AcDbEntity
  8
0
  6
ByLayer
 62
  256
370
   -1
100
AcDbLine
 10
124.6724841455173
 20
40.81293690992735
 11
124.4212841455173
 21
40.81293690992735
  0
LINE
  5
1F7
100
AcDbEntity
  8
0
  6
ByLayer
 62
  256
370
   -1
100
AcDbLine
 10
200.0005298342647
 20
23.6331838849992
 11
199.9505298342647
 21
24.4290838849992
  0
LINE
  5
1F8
100
AcDbEntity
  8
0
  6
ByLayer
 62
  256
370
   -1
100
AcDbLine
 10
199.9505298342647
 20
24.4290838849992
 11
199.8005298342647
 21
25.2123838849992
  0
LINE
  5
1F9
100
AcDbEntity
  8
0
  6
ByLayer
 62
  256
370
   -1
100
AcDbLine
 10
199.8005298342647
 20
25.2123838849992
 11
199.5545298342647
 21
25.9707838849992
  0
LINE
  5
1FA
100
AcDbEntity
  8
0
  6
ByLayer
 62
  256
370
   -1
100
AcDbLine
 10
199.5545298342647
 20
25.9707838849992
 11
199.2155298342647
 21
26.6922838849992
  0
LINE
  5
1FB
100
AcDbEntity
  8
0
  6
ByLayer
 62
  256
370
   -1
100
AcDbLine
 10
199.2155298342647
 20
26.6922838849992
 11
198.7875298342647
 21
27.36558388499921
  0
LINE
  5
1FC
100
AcDbEntity
  8
0
  6
ByLayer
 62
  256
370
   -1
100
AcDbLine
 10
198.7875298342647
 20
27.36558388499921
 11
198.2795298342647
 21
27.98008388499921
  0
LINE
  5
1FD
100
AcDbEntity
  8
0
  6
ByLayer
 62
  256
370
   -1
100
AcDbLine
 10
198.2795298342647
 20
27.98008388499921
 11
197.6985298342647
 21
28.5259838849992
  0
LINE
  5
1FE
100
AcDbEntity
  8
0
  6
ByLayer
 62
  256
370
   -1
100
AcDbLine
 10
197.6985298342647
 20
28.5259838849992
 11
197.0525298342647
 21
28.9946838849992
  0
LINE
  5
1FF
100
AcDbEntity
  8
0
  6
ByLayer
 62
  256
370
   -1
100
AcDbLine
 10
197.0525298342647
 20
28.9946838849992
 11
196.3545298342647
 21
29.3787838849992
  0
LINE
  5
200
100
AcDbEntity
  8
0
  6
ByLayer
 62
  256
370
   -1
100
AcDbLine
 10
196.3545298342647
 20
29.3787838849992
 11
195.6125298342647
 21
29.6723838849992
  0
LINE
  5
201
100
AcDbEntity
  8
0
  6
ByLayer
 62
  256
370
   -1
100
AcDbLine
 10
195.6125298342647
 20
29.6723838849992
 11
194.8405298342647
 21
29.87068388499921
  0
LINE
  5
202
100
AcDbEntity
  8
0
  6
ByLayer
 62
  256
370
   -1
100
AcDbLine
 10
194.8405298342647
 20
29.87068388499921
 11
194.0495298342647
 21
29.9706838849992
  0
LINE
  5
203
100
AcDbEntity
  8
0
  6
ByLayer
 62
  256
370
   -1
100
AcDbLine
 10
194.0495298342647
 20
29.9706838849992
 11
111.5915298342647
 21
29.9706838849992
  0
LINE
  5
204
100
AcDbEntity
  8
0
  6
ByLayer
 62
  256
370
   -1
100
AcDbLine
 10
111.5915298342647
 20
29.9706838849992
 11
110.8005298342647
 21
29.87068388499921
  0
LINE
  5
205
100
AcDbEntity
  8
0
  6
ByLayer
 62
  256
370
   -1
100
AcDbLine
 10
110.8005298342647
 20
29.87068388499921
 11
110.0285298342647
 21
29.6723838849992
  0
LINE
  5
206
100
AcDbEntity
  8
0
  6
ByLayer
 62
  256
370
   -1
100
AcDbLine
 10
110.0285298342647
 20
29.6723838849992
 11
109.2865298342647
 21
29.3787838849992
  0
LINE
  5
207
100
AcDbEntity
  8
0
  6
ByLayer
 62
  256
370
   -1
100
AcDbLine
 10
109.2865298342647
 20
29.3787838849992
 11
108.5875298342647
 21
28.9946838849992
  0
LINE
  5
208
100
AcDbEntity
  8
0
  6
ByLayer
 62
  256
370
   -1
100
AcDbLine
 10
108.5875298342647
 20
28.9946838849992
 11
107.9425298342647
 21
28.5259838849992
  0
LINE
  5
209
100
AcDbEntity
  8
0
  6
ByLayer
 62
  256
370
   -1
100
AcDbLine
 10
107.9425298342647
 20
28.5259838849992
 11
107.3615298342647
 21
27.98008388499921
  0
LINE
  5
20A
100
AcDbEntity
  8
0
  6
ByLayer
 62
  256
370
   -1
100
AcDbLine
 10
107.3615298342647
 20
27.98008388499921
 11
106.8535298342647
 21
27.36558388499921
  0
LINE
  5
20B
100
AcDbEntity
  8
0
  6
ByLayer
 62
  256
370
   -1
100
AcDbLine
 10
106.8535298342647
 20
27.36558388499921
 11
106.4255298342647
 21
26.6922838849992
  0
LINE
  5
20C
100
AcDbEntity
  8
0
  6
ByLayer
 62
  256
370
   -1
100
AcDbLine
 10
106.4255298342647
 20
26.6922838849992
 11
106.0865298342647
 21
25.9707838849992
  0
LINE
  5
20D
100
AcDbEntity
  8
0
  6
ByLayer
 62
  256
370
   -1
100
AcDbLine
 10
106.0865298342647
 20
25.9707838849992
 11
105.8395298342647
 21
25.2123838849992
  0
LINE
  5
20E
100
AcDbEntity
  8
0
  6
ByLayer
 62
  256
370
   -1
100
AcDbLine
 10
105.8395298342647
 20
25.2123838849992
 11
105.6905298342647
 21
24.4290838849992
  0
LINE
  5
20F
100
AcDbEntity
  8
0
  6
ByLayer
 62
  256
370
   -1
100
AcDbLine
 10
105.6905298342647
 20
24.4290838849992
 11
105.6405298342647
 21
23.6331838849992
  0
LINE
  5
210
100
AcDbEntity
  8
0
  6
ByLayer
 62
  256
370
   -1
100
AcDbLine
 10
105.6405298342647
 20
23.6331838849992
 11
105.6405298342647
 21
20.3731838849992
  0
LINE
  5
211
100
AcDbEntity
  8
0
  6
ByLayer
 62
  256
370
   -1
100
AcDbLine
 10
105.6405298342647
 20
20.3731838849992
 11
121.6405298342647
 21
20.3731838849992
  0
LINE
  5
212
100
AcDbEntity
  8
0
  6
ByLayer
 62
  256
370
   -1
100
AcDbLine
 10
121.6405298342647
 20
20.3731838849992
 11
121.6405298342647
 21
18.3731838849992
  0
LINE
  5
213
100
AcDbEntity
  8
0
  6
ByLayer
 62
  256
370
   -1
100
AcDbLine
 10
121.6405298342647
 20
18.3731838849992
 11
127.6405298342647
 21
18.3731838849992
  0
LINE
  5
214
100
AcDbEntity
  8
0
  6
ByLayer
 62
  256
370
   -1
100
AcDbLine
 10
127.6405298342647
 20
18.3731838849992
 11
127.6405298342647
 21
25.9831838849992
  0
LINE
  5
215
100
AcDbEntity
  8
0
  6
ByLayer
 62
  256
370
   -1
100
AcDbLine
 10
127.6405298342647
 20
25.9831838849992
 11
186.6405298342647
 21
25.9831838849992
  0
LINE
  5
216
100
AcDbEntity
  8
0
  6
ByLayer
 62
  256
370
   -1
100
AcDbLine
 10
186.6405298342647
 20
25.9831838849992
 11
186.6405298342647
 21
16.8731838849992
  0
LINE
  5
217
100
AcDbEntity
  8
0
  6
ByLayer
 62
  256
370
   -1
100
AcDbLine
 10
186.6405298342647
 20
16.8731838849992
 11
200.0005298342647
 21
16.8731838849992
  0
LINE
  5
218
100
AcDbEntity
  8
0
  6
ByLayer
 62
  256
370
   -1
100
AcDbLine
 10
200.0005298342647
 20
16.8731838849992
 11
200.0005298342647
 21
23.6331838849992
  0
LINE
  5
219
100
AcDbEntity
  8
0
  6
ByLayer
 62
  256
370
   -1
100
AcDbLine
 10
124.1245298342647
 20
20.94708388499921
 11
123.8755298342647
 21
20.97858388499921
  0
LINE
  5
21A
100
AcDbEntity
  8
0
  6
ByLayer
 62
  256
370
   -1
100
AcDbLine
 10
123.8755298342647
 20
20.97858388499921
 11
123.6325298342647
 21
21.04108388499921
  0
LINE
  5
21B
100
AcDbEntity
  8
0
  6
ByLayer
 62
  256
370
   -1
100
AcDbLine
 10
123.6325298342647
 20
21.04108388499921
 11
123.3985298342647
 21
21.1334838849992
  0
LINE
  5
21C
100
AcDbEntity
  8
0
  6
ByLayer
 62
  256
370
   -1
100
AcDbLine
 10
123.3985298342647
 20
21.1334838849992
 11
123.1785298342647
 21
21.25448388499921
  0
LINE
  5
21D
100
AcDbEntity
  8
0
  6
ByLayer
 62
  256
370
   -1
100
AcDbLine
 10
123.1785298342647
 20
21.25448388499921
 11
122.9755298342647
 21
21.40218388499921
  0
LINE
  5
21E
100
AcDbEntity
  8
0
  6
ByLayer
 62
  256
370
   -1
100
AcDbLine
 10
122.9755298342647
 20
21.40218388499921
 11
122.7925298342647
 21
21.5740838849992
  0
LINE
  5
21F
100
AcDbEntity
  8
0
  6
ByLayer
 62
  256
370
   -1
100
AcDbLine
 10
122.7925298342647
 20
21.5740838849992
 11
122.6325298342647
 21
21.7675838849992
  0
LINE
  5
220
100
AcDbEntity
  8
0
  6
ByLayer
 62
  256
370
   -1
100
AcDbLine
 10
122.6325298342647
 20
21.7675838849992
 11
122.4975298342647
 21
21.9796838849992
  0
LINE
  5
221
100
AcDbEntity
  8
0
  6
ByLayer
 62
  256
370
   -1
100
AcDbLine
 10
122.4975298342647
 20
21.9796838849992
 11
122.3905298342647
 21
22.2068838849992
  0
LINE
  5
222
100
AcDbEntity
  8
0
  6
ByLayer
 62
  256
370
   -1
100
AcDbLine
 10
122.3905298342647
 20
22.2068838849992
 11
122.3135298342647
 21
22.44578388499921
  0
LINE
  5
223
100
AcDbEntity
  8
0
  6
ByLayer
 62
  256
370
   -1
100
AcDbLine
 10
122.3135298342647
 20
22.44578388499921
 11
122.2665298342647
 21
22.6924838849992
  0
LINE
  5
224
100
AcDbEntity
  8
0
  6
ByLayer
 62
  256
370
   -1
100
AcDbLine
 10
122.2665298342647
 20
22.6924838849992
 11
122.2505298342647
 21
22.9431838849992
  0
LINE
  5
225
100
AcDbEntity
  8
0
  6
ByLayer
 62
  256
370
   -1
100
AcDbLine
 10
122.2505298342647
 20
22.9431838849992
 11
122.2665298342647
 21
23.19388388499921
  0
LINE
  5
226
100
AcDbEntity
  8
0
  6
ByLayer
 62
  256
370
   -1
100
AcDbLine
 10
122.2665298342647
 20
23.19388388499921
 11
122.3135298342647
 21
23.4405838849992
  0
LINE
  5
227
100
AcDbEntity
  8
0
  6
ByLayer
 62
  256
370
   -1
100
AcDbLine
 10
122.3135298342647
 20
23.4405838849992
 11
122.3905298342647
 21
23.6793838849992
  0
LINE
  5
228
100
AcDbEntity
  8
0
  6
ByLayer
 62
  256
370
   -1
100
AcDbLine
 10
122.3905298342647
 20
23.6793838849992
 11
122.4975298342647
 21
23.9066838849992
  0
LINE
  5
229
100
AcDbEntity
  8
0
  6
ByLayer
 62
  256
370
   -1
100
AcDbLine
 10
122.4975298342647
 20
23.9066838849992
 11
122.6325298342647
 21
24.11878388499921
  0
LINE
  5
22A
100
AcDbEntity
  8
0
  6
ByLayer
 62
  256
370
   -1
100
AcDbLine
 10
122.6325298342647
 20
24.11878388499921
 11
122.7925298342647
 21
24.31228388499921
  0
LINE
  5
22B
100
AcDbEntity
  8
0
  6
ByLayer
 62
  256
370
   -1
100
AcDbLine
 10
122.7925298342647
 20
24.31228388499921
 11
122.9755298342647
 21
24.4841838849992
  0
LINE
  5
22C
100
AcDbEntity
  8
0
  6
ByLayer
 62
  256
370
   -1
100
AcDbLine
 10
122.9755298342647
 20
24.4841838849992
 11
123.1785298342647
 21
24.6318838849992
  0
LINE
  5
22D
100
AcDbEntity
  8
0
  6
ByLayer
 62
  256
370
   -1
100
AcDbLine
 10
123.1785298342647
 20
24.6318838849992
 11
123.3985298342647
 21
24.7528838849992
  0
LINE
  5
22E
100
AcDbEntity
  8
0
  6
ByLayer
 62
  256
370
   -1
100
AcDbLine
 10
123.3985298342647
 20
24.7528838849992
 11
123.6325298342647
 21
24.8452838849992
  0
LINE
  5
22F
100
AcDbEntity
  8
0
  6
ByLayer
 62
  256
370
   -1
100
AcDbLine
 10
123.6325298342647
 20
24.8452838849992
 11
123.8755298342647
 21
24.9077838849992
  0
LINE
  5
230
100
AcDbEntity
  8
0
  6
ByLayer
 62
  256
370
   -1
100
AcDbLine
 10
123.8755298342647
 20
24.9077838849992
 11
124.1245298342647
 21
24.93918388499921
  0
LINE
  5
231
100
AcDbEntity
  8
0
  6
ByLayer
 62
  256
370
   -1
100
AcDbLine
 10
124.1245298342647
 20
24.93918388499921
 11
124.3765298342647
 21
24.93918388499921
  0
LINE
  5
232
100
AcDbEntity
  8
0
  6
ByLayer
 62
  256
370
   -1
100
AcDbLine
 10
124.3765298342647
 20
24.93918388499921
 11
124.6255298342647
 21
24.9077838849992
  0
LINE
  5
233
100
AcDbEntity
  8
0
  6
ByLayer
 62
  256
370
   -1
100
AcDbLine
 10
124.6255298342647
 20
24.9077838849992
 11
124.8685298342647
 21
24.8452838849992
  0
LINE
  5
234
100
AcDbEntity
  8
0
  6
ByLayer
 62
  256
370
   -1
100
AcDbLine
 10
124.8685298342647
 20
24.8452838849992
 11
125.1025298342647
 21
24.7528838849992
  0
LINE
  5
235
100
AcDbEntity
  8
0
  6
ByLayer
 62
  256
370
   -1
100
AcDbLine
 10
125.1025298342647
 20
24.7528838849992
 11
125.3225298342647
 21
24.6318838849992
  0
LINE
  5
236
100
AcDbEntity
  8
0
  6
ByLayer
 62
  256
370
   -1
100
AcDbLine
 10
125.3225298342647
 20
24.6318838849992
 11
125.5255298342647
 21
24.4841838849992
  0
LINE
  5
237
100
AcDbEntity
  8
0
  6
ByLayer
 62
  256
370
   -1
100
AcDbLine
 10
125.5255298342647
 20
24.4841838849992
 11
125.7085298342647
 21
24.31228388499921
  0
LINE
  5
238
100
AcDbEntity
  8
0
  6
ByLayer
 62
  256
370
   -1
100
AcDbLine
 10
125.7085298342647
 20
24.31228388499921
 11
125.8685298342647
 21
24.11878388499921
  0
LINE
  5
239
100
AcDbEntity
  8
0
  6
ByLayer
 62
  256
370
   -1
100
AcDbLine
 10
125.8685298342647
 20
24.11878388499921
 11
126.0035298342647
 21
23.9066838849992
  0
LINE
  5
23A
100
AcDbEntity
  8
0
  6
ByLayer
 62
  256
370
   -1
100
AcDbLine
 10
126.0035298342647
 20
23.9066838849992
 11
126.1105298342647
 21
23.6793838849992
  0
LINE
  5
23B
100
AcDbEntity
  8
0
  6
ByLayer
 62
  256
370
   -1
100
AcDbLine
 10
126.1105298342647
 20
23.6793838849992
 11
126.1875298342647
 21
23.4405838849992
  0
LINE
  5
23C
100
AcDbEntity
  8
0
  6
ByLayer
 62
  256
370
   -1
100
AcDbLine
 10
126.1875298342647
 20
23.4405838849992
 11
126.2345298342647
 21
23.19388388499921
  0
LINE
  5
23D
100
AcDbEntity
  8
0
  6
ByLayer
 62
  256
370
   -1
100
AcDbLine
 10
126.2345298342647
 20
23.19388388499921
 11
126.2505298342647
 21
22.9431838849992
  0
LINE
  5
23E
100
AcDbEntity
  8
0
  6
ByLayer
 62
  256
370
   -1
100
AcDbLine
 10
126.2505298342647
 20
22.9431838849992
 11
126.2345298342647
 21
22.6924838849992
  0
LINE
  5
23F
100
AcDbEntity
  8
0
  6
ByLayer
 62
  256
370
   -1
100
AcDbLine
 10
126.2345298342647
 20
22.6924838849992
 11
126.1875298342647
 21
22.44578388499921
  0
LINE
  5
240
100
AcDbEntity
  8
0
  6
ByLayer
 62
  256
370
   -1
100
AcDbLine
 10
126.1875298342647
 20
22.44578388499921
 11
126.1105298342647
 21
22.2068838849992
  0
LINE
  5
241
100
AcDbEntity
  8
0
  6
ByLayer
 62
  256
370
   -1
100
AcDbLine
 10
126.1105298342647
 20
22.2068838849992
 11
126.0035298342647
 21
21.9796838849992
  0
LINE
  5
242
100
AcDbEntity
  8
0
  6
ByLayer
 62
  256
370
   -1
100
AcDbLine
 10
126.0035298342647
 20
21.9796838849992
 11
125.8685298342647
 21
21.7675838849992
  0
LINE
  5
243
100
AcDbEntity
  8
0
  6
ByLayer
 62
  256
370
   -1
100
AcDbLine
 10
125.8685298342647
 20
21.7675838849992
 11
125.7085298342647
 21
21.5740838849992
  0
LINE
  5
244
100
AcDbEntity
  8
0
  6
ByLayer
 62
  256
370
   -1
100
AcDbLine
 10
125.7085298342647
 20
21.5740838849992
 11
125.5255298342647
 21
21.40218388499921
  0
LINE
  5
245
100
AcDbEntity
  8
0
  6
ByLayer
 62
  256
370
   -1
100
AcDbLine
 10
125.5255298342647
 20
21.40218388499921
 11
125.3225298342647
 21
21.25448388499921
  0
LINE
  5
246
100
AcDbEntity
  8
0
  6
ByLayer
 62
  256
370
   -1
100
AcDbLine
 10
125.3225298342647
 20
21.25448388499921
 11
125.1025298342647
 21
21.1334838849992
  0
LINE
  5
247
100
AcDbEntity
  8
0
  6
ByLayer
 62
  256
370
   -1
100
AcDbLine
 10
125.1025298342647
 20
21.1334838849992
 11
124.8685298342647
 21
21.04108388499921
  0
LINE
  5
248
100
AcDbEntity
  8
0
  6
ByLayer
 62
  256
370
   -1
100
AcDbLine
 10
124.8685298342647
 20
21.04108388499921
 11
124.6255298342647
 21
20.97858388499921
  0
LINE
  5
249
100
AcDbEntity
  8
0
  6
ByLayer
 62
  256
370
   -1
100
AcDbLine
 10
124.6255298342647
 20
20.97858388499921
 11
124.3765298342647
 21
20.94708388499921
  0
LINE
  5
24A
100
AcDbEntity
  8
0
  6
ByLayer
 62
  256
370
   -1
100
AcDbLine
 10
124.3765298342647
 20
20.94708388499921
 11
124.1245298342647
 21
20.94708388499921
  0
LINE
  5
24B
100
AcDbEntity
  8
0
  6
ByLayer
 62
  256
370
   -1
100
AcDbLine
 10
190.2245298342647
 20
17.6370838849992
 11
189.9755298342647
 21
17.6685838849992
  0
LINE
  5
24C
100
AcDbEntity
  8
0
  6
ByLayer
 62
  256
370
   -1
100
AcDbLine
 10
189.9755298342647
 20
17.6685838849992
 11
189.7325298342647
 21
17.7310838849992
  0
LINE
  5
24D
100
AcDbEntity
  8
0
  6
ByLayer
 62
  256
370
   -1
100
AcDbLine
 10
189.7325298342647
 20
17.7310838849992
 11
189.4985298342647
 21
17.8234838849992
  0
LINE
  5
24E
100
AcDbEntity
  8
0
  6
ByLayer
 62
  256
370
   -1
100
AcDbLine
 10
189.4985298342647
 20
17.8234838849992
 11
189.2785298342647
 21
17.9444838849992
  0
LINE
  5
24F
100
AcDbEntity
  8
0
  6
ByLayer
 62
  256
370
   -1
100
AcDbLine
 10
189.2785298342647
 20
17.9444838849992
 11
189.0755298342647
 21
18.0921838849992
  0
LINE
  5
250
100
AcDbEntity
  8
0
  6
ByLayer
 62
  256
370
   -1
100
AcDbLine
 10
189.0755298342647
 20
18.0921838849992
 11
188.8925298342647
 21
18.26408388499921
  0
LINE
  5
251
100
AcDbEntity
  8
0
  6
ByLayer
 62
  256
370
   -1
100
AcDbLine
 10
188.8925298342647
 20
18.26408388499921
 11
188.7325298342647
 21
18.45758388499921
  0
LINE
  5
252
100
AcDbEntity
  8
0
  6
ByLayer
 62
  256
370
   -1
100
AcDbLine
 10
188.7325298342647
 20
18.45758388499921
 11
188.5975298342647
 21
18.66968388499921
  0
LINE
  5
253
100
AcDbEntity
  8
0
  6
ByLayer
 62
  256
370
   -1
100
AcDbLine
 10
188.5975298342647
 20
18.66968388499921
 11
188.4905298342647
 21
18.8968838849992
  0
LINE
  5
254
100
AcDbEntity
  8
0
  6
ByLayer
 62
  256
370
   -1
100
AcDbLine
 10
188.4905298342647
 20
18.8968838849992
 11
188.4135298342647
 21
19.1357838849992
  0
LINE
  5
255
100
AcDbEntity
  8
0
  6
ByLayer
 62
  256
370
   -1
100
AcDbLine
 10
188.4135298342647
 20
19.1357838849992
 11
188.3665298342647
 21
19.38248388499921
  0
LINE
  5
256
100
AcDbEntity
  8
0
  6
ByLayer
 62
  256
370
   -1
100
AcDbLine
 10
188.3665298342647
 20
19.38248388499921
 11
188.3505298342647
 21
19.6331838849992
  0
LINE
  5
257
100
AcDbEntity
  8
0
  6
ByLayer
 62
  256
370
   -1
100
AcDbLine
 10
188.3505298342647
 20
19.6331838849992
 11
188.3665298342647
 21
19.8838838849992
  0
LINE
  5
258
100
AcDbEntity
  8
0
  6
ByLayer
 62
  256
370
   -1
100
AcDbLine
 10
188.3665298342647
 20
19.8838838849992
 11
188.4135298342647
 21
20.1305838849992
  0
LINE
  5
259
100
AcDbEntity
  8
0
  6
ByLayer
 62
  256
370
   -1
100
AcDbLine
 10
188.4135298342647
 20
20.1305838849992
 11
188.4905298342647
 21
20.36938388499921
  0
LINE
  5
25A
100
AcDbEntity
  8
0
  6
ByLayer
 62
  256
370
   -1
100
AcDbLine
 10
188.4905298342647
 20
20.36938388499921
 11
188.5975298342647
 21
20.59668388499921
  0
LINE
  5
25B
100
AcDbEntity
  8
0
  6
ByLayer
 62
  256
370
   -1
100
AcDbLine
 10
188.5975298342647
 20
20.59668388499921
 11
188.7325298342647
 21
20.8087838849992
  0
LINE
  5
25C
100
AcDbEntity
  8
0
  6
ByLayer
 62
  256
370
   -1
100
AcDbLine
 10
188.7325298342647
 20
20.8087838849992
 11
188.8925298342647
 21
21.0022838849992
  0
LINE
  5
25D
100
AcDbEntity
  8
0
  6
ByLayer
 62
  256
370
   -1
100
AcDbLine
 10
188.8925298342647
 20
21.0022838849992
 11
189.0755298342647
 21
21.17418388499921
  0
LINE
  5
25E
100
AcDbEntity
  8
0
  6
ByLayer
 62
  256
370
   -1
100
AcDbLine
 10
189.0755298342647
 20
21.17418388499921
 11
189.2785298342647
 21
21.32188388499921
  0
LINE
  5
25F
100
AcDbEntity
  8
0
  6
ByLayer
 62
  256
370
   -1
100
AcDbLine
 10
189.2785298342647
 20
21.32188388499921
 11
189.4985298342647
 21
21.4427838849992
  0
LINE
  5
260
100
AcDbEntity
  8
0
  6
ByLayer
 62
  256
370
   -1
100
AcDbLine
 10
189.4985298342647
 20
21.4427838849992
 11
189.7325298342647
 21
21.53528388499921
  0
LINE
  5
261
100
AcDbEntity
  8
0
  6
ByLayer
 62
  256
370
   -1
100
AcDbLine
 10
189.7325298342647
 20
21.53528388499921
 11
189.9755298342647
 21
21.59778388499921
  0
LINE
  5
262
100
AcDbEntity
  8
0
  6
ByLayer
 62
  256
370
   -1
100
AcDbLine
 10
189.9755298342647
 20
21.59778388499921
 11
190.2245298342647
 21
21.6291838849992
  0
LINE
  5
263
100
AcDbEntity
  8
0
  6
ByLayer
 62
  256
370
   -1
100
AcDbLine
 10
190.2245298342647
 20
21.6291838849992
 11
190.4765298342647
 21
21.6291838849992
  0
LINE
  5
264
100
AcDbEntity
  8
0
  6
ByLayer
 62
  256
370
   -1
100
AcDbLine
 10
190.4765298342647
 20
21.6291838849992
 11
190.7255298342647
 21
21.59778388499921
  0
LINE
  5
265
100
AcDbEntity
  8
0
  6
ByLayer
 62
  256
370
   -1
100
AcDbLine
 10
190.7255298342647
 20
21.59778388499921
 11
190.9685298342647
 21
21.53528388499921
  0
LINE
  5
266
100
AcDbEntity
  8
0
  6
ByLayer
 62
  256
370
   -1
100
AcDbLine
 10
190.9685298342647
 20
21.53528388499921
 11
191.2025298342647
 21
21.4427838849992
  0
LINE
  5
267
100
AcDbEntity
  8
0
  6
ByLayer
 62
  256
370
   -1
100
AcDbLine
 10
191.2025298342647
 20
21.4427838849992
 11
191.4225298342647
 21
21.32188388499921
  0
LINE
  5
268
100
AcDbEntity
  8
0
  6
ByLayer
 62
  256
370
   -1
100
AcDbLine
 10
191.4225298342647
 20
21.32188388499921
 11
191.6255298342647
 21
21.17418388499921
  0
LINE
  5
269
100
AcDbEntity
  8
0
  6
ByLayer
 62
  256
370
   -1
100
AcDbLine
 10
191.6255298342647
 20
21.17418388499921
 11
191.8085298342647
 21
21.0022838849992
  0
LINE
  5
26A
100
AcDbEntity
  8
0
  6
ByLayer
 62
  256
370
   -1
100
AcDbLine
 10
191.8085298342647
 20
21.0022838849992
 11
191.9685298342647
 21
20.8087838849992
  0
LINE
  5
26B
100
AcDbEntity
  8
0
  6
ByLayer
 62
  256
370
   -1
100
AcDbLine
 10
191.9685298342647
 20
20.8087838849992
 11
192.1035298342647
 21
20.59668388499921
  0
LINE
  5
26C
100
AcDbEntity
  8
0
  6
ByLayer
 62
  256
370
   -1
100
AcDbLine
 10
192.1035298342647
 20
20.59668388499921
 11
192.2105298342647
 21
20.36938388499921
  0
LINE
  5
26D
100
AcDbEntity
  8
0
  6
ByLayer
 62
  256
370
   -1
100
AcDbLine
 10
192.2105298342647
 20
20.36938388499921
 11
192.2875298342647
 21
20.1305838849992
  0
LINE
  5
26E
100
AcDbEntity
  8
0
  6
ByLayer
 62
  256
370
   -1
100
AcDbLine
 10
192.2875298342647
 20
20.1305838849992
 11
192.3345298342647
 21
19.8838838849992
  0
LINE
  5
26F
100
AcDbEntity
  8
0
  6
ByLayer
 62
  256
370
   -1
100
AcDbLine
 10
192.3345298342647
 20
19.8838838849992
 11
192.3505298342647
 21
19.6331838849992
  0
LINE
  5
270
100
AcDbEntity
  8
0
  6
ByLayer
 62
  256
370
   -1
100
AcDbLine
 10
192.3505298342647
 20
19.6331838849992
 11
192.3345298342647
 21
19.38248388499921
  0
LINE
  5
271
100
AcDbEntity
  8
0
  6
ByLayer
 62
  256
370
   -1
100
AcDbLine
 10
192.3345298342647
 20
19.38248388499921
 11
192.2875298342647
 21
19.1357838849992
  0
LINE
  5
272
100
AcDbEntity
  8
0
  6
ByLayer
 62
  256
370
   -1
100
AcDbLine
 10
192.2875298342647
 20
19.1357838849992
 11
192.2105298342647
 21
18.8968838849992
  0
LINE
  5
273
100
AcDbEntity
  8
0
  6
ByLayer
 62
  256
370
   -1
100
AcDbLine
 10
192.2105298342647
 20
18.8968838849992
 11
192.1035298342647
 21
18.66968388499921
  0
LINE
  5
274
100
AcDbEntity
  8
0
  6
ByLayer
 62
  256
370
   -1
100
AcDbLine
 10
192.1035298342647
 20
18.66968388499921
 11
191.9685298342647
 21
18.45758388499921
  0
LINE
  5
275
100
AcDbEntity
  8
0
  6
ByLayer
 62
  256
370
   -1
100
AcDbLine
 10
191.9685298342647
 20
18.45758388499921
 11
191.8085298342647
 21
18.26408388499921
  0
LINE
  5
276
100
AcDbEntity
  8
0
  6
ByLayer
 62
  256
370
   -1
100
AcDbLine
 10
191.8085298342647
 20
18.26408388499921
 11
191.6255298342647
 21
18.0921838849992
  0
LINE
  5
277
100
AcDbEntity
  8
0
  6
ByLayer
 62
  256
370
   -1
100
AcDbLine
 10
191.6255298342647
 20
18.0921838849992
 11
191.4225298342647
 21
17.9444838849992
  0
LINE
  5
278
100
AcDbEntity
  8
0
  6
ByLayer
 62
  256
370
   -1
100
AcDbLine
 10
191.4225298342647
 20
17.9444838849992
 11
191.2025298342647
 21
17.8234838849992
  0
LINE
  5
279
100
AcDbEntity
  8
0
  6
ByLayer
 62
  256
370
   -1
100
AcDbLine
 10
191.2025298342647
 20
17.8234838849992
 11
190.9685298342647
 21
17.7310838849992
  0
LINE
  5
27A
100
AcDbEntity
  8
0
  6
ByLayer
 62
  256
370
   -1
100
AcDbLine
 10
190.9685298342647
 20
17.7310838849992
 11
190.7255298342647
 21
17.6685838849992
  0
LINE
  5
27B
100
AcDbEntity
  8
0
  6
ByLayer
 62
  256
370
   -1
100
AcDbLine
 10
190.7255298342647
 20
17.6685838849992
 11
190.4765298342647
 21
17.6370838849992
  0
LINE
  5
27C
100
AcDbEntity
  8
0
  6
ByLayer
 62
  256
370
   -1
100
AcDbLine
 10
190.4765298342647
 20
17.6370838849992
 11
190.2245298342647
 21
17.6370838849992
  0
LINE
  5
27D
100
AcDbEntity
  8
0
  6
ByLayer
 62
  256
370
   -1
100
AcDbLine
 10
293.97
 20
0.112473
 11
294.742
 21
0.310791
  0
LINE
  5
27E
100
AcDbEntity
  8
0
  6
ByLayer
 62
  256
370
   -1
100
AcDbLine
 10
294.742
 20
0.310791
 11
295.484
 21
0.60434
  0
LINE
  5
27F
100
AcDbEntity
  8
0
  6
ByLayer
 62
  256
370
   -1
100
AcDbLine
 10
295.484
 20
0.60434
 11
296.182
 21
0.98851
  0
LINE
  5
280
100
AcDbEntity
  8
0
  6
ByLayer
 62
  256
370
   -1
100
AcDbLine
 10
296.182
 20
0.98851
 11
296.828
 21
1.45723
  0
LINE
  5
281
100
AcDbEntity
  8
0
  6
ByLayer
 62
  256
370
   -1
100
AcDbLine
 10
296.828
 20
1.45723
 11
297.409
 21
2.00311
  0
LINE
  5
282
100
AcDbEntity
  8
0
  6
ByLayer
 62
  256
370
   -1
100
AcDbLine
 10
297.409
 20
2.00311
 11
297.917
 21
2.61755
  0
LINE
  5
283
100
AcDbEntity
  8
0
  6
ByLayer
 62
  256
370
   -1
100
AcDbLine
 10
297.917
 20
2.61755
 11
298.345
 21
3.29086
  0
LINE
  5
284
100
AcDbEntity
  8
0
  6
ByLayer
 62
  256
370
   -1
100
AcDbLine
 10
298.345
 20
3.29086
 11
298.684
 21
4.01241
  0
LINE
  5
285
100
AcDbEntity
  8
0
  6
ByLayer
 62
  256
370
   -1
100
AcDbLine
 10
298.684
 20
4.01241
 11
298.93
 21
4.77081
  0
LINE
  5
286
100
AcDbEntity
  8
0
  6
ByLayer
 62
  256
370
   -1
100
AcDbLine
 10
298.93
 20
4.77081
 11
299.08
 21
5.55412
  0
LINE
  5
287
100
AcDbEntity
  8
0
  6
ByLayer
 62
  256
370
   -1
100
AcDbLine
 10
299.08
 20
5.55412
 11
299.13
 21
6.34999
  0
LINE
  5
288
100
AcDbEntity
  8
0
  6
ByLayer
 62
  256
370
   -1
100
AcDbLine
 10
299.13
 20
6.34999
 11
299.13
 21
13.5
  0
LINE
  5
289
100
AcDbEntity
  8
0
  6
ByLayer
 62
  256
370
   -1
100
AcDbLine
 10
299.13
 20
13.5
 11
285.77
 21
13.5
  0
LINE
  5
28A
100
AcDbEntity
  8
0
  6
ByLayer
 62
  256
370
   -1
100
AcDbLine
 10
285.77
 20
13.5
 11
285.77
 21
4
  0
LINE
  5
28B
100
AcDbEntity
  8
0
  6
ByLayer
 62
  256
370
   -1
100
AcDbLine
 10
285.77
 20
4
 11
226.77
 21
4
  0
LINE
  5
28C
100
AcDbEntity
  8
0
  6
ByLayer
 62
  256
370
   -1
100
AcDbLine
 10
226.77
 20
4
 11
226.77
 21
11
  0
LINE
  5
28D
100
AcDbEntity
  8
0
  6
ByLayer
 62
  256
370
   -1
100
AcDbLine
 10
226.77
 20
11
 11
220.77
 21
11
  0
LINE
  5
28E
100
AcDbEntity
  8
0
  6
ByLayer
 62
  256
370
   -1
100
AcDbLine
 10
220.77
 20
11
 11
220.77
 21
7.99998
  0
LINE
  5
28F
100
AcDbEntity
  8
0
  6
ByLayer
 62
  256
370
   -1
100
AcDbLine
 10
220.77
 20
7.99998
 11
204.77
 21
7.99998
  0
LINE
  5
290
100
AcDbEntity
  8
0
  6
ByLayer
 62
  256
370
   -1
100
AcDbLine
 10
204.77
 20
7.99998
 11
204.77
 21
6.34999
  0
LINE
  5
291
100
AcDbEntity
  8
0
  6
ByLayer
 62
  256
370
   -1
100
AcDbLine
 10
204.77
 20
6.34999
 11
204.82
 21
5.55412
  0
LINE
  5
292
100
AcDbEntity
  8
0
  6
ByLayer
 62
  256
370
   -1
100
AcDbLine
 10
204.82
 20
5.55412
 11
204.969
 21
4.77081
  0
LINE
  5
293
100
AcDbEntity
  8
0
  6
ByLayer
 62
  256
370
   -1
100
AcDbLine
 10
204.969
 20
4.77081
 11
205.216
 21
4.01241
  0
LINE
  5
294
100
AcDbEntity
  8
0
  6
ByLayer
 62
  256
370
   -1
100
AcDbLine
 10
205.216
 20
4.01241
 11
205.555
 21
3.29086
  0
LINE
  5
295
100
AcDbEntity
  8
0
  6
ByLayer
 62
  256
370
   -1
100
AcDbLine
 10
205.555
 20
3.29086
 11
205.983
 21
2.61755
  0
LINE
  5
296
100
AcDbEntity
  8
0
  6
ByLayer
 62
  256
370
   -1
100
AcDbLine
 10
205.983
 20
2.61755
 11
206.491
 21
2.00311
  0
LINE
  5
297
100
AcDbEntity
  8
0
  6
ByLayer
 62
  256
370
   -1
100
AcDbLine
 10
206.491
 20
2.00311
 11
207.072
 21
1.45723
  0
LINE
  5
298
100
AcDbEntity
  8
0
  6
ByLayer
 62
  256
370
   -1
100
AcDbLine
 10
207.072
 20
1.45723
 11
207.717
 21
0.98851
  0
LINE
  5
299
100
AcDbEntity
  8
0
  6
ByLayer
 62
  256
370
   -1
100
AcDbLine
 10
207.717
 20
0.98851
 11
208.416
 21
0.60434
  0
LINE
  5
29A
100
AcDbEntity
  8
0
  6
ByLayer
 62
  256
370
   -1
100
AcDbLine
 10
208.416
 20
0.60434
 11
209.158
 21
0.310791
  0
LINE
  5
29B
100
AcDbEntity
  8
0
  6
ByLayer
 62
  256
370
   -1
100
AcDbLine
 10
209.158
 20
0.310791
 11
209.93
 21
0.112473
  0
LINE
  5
29C
100
AcDbEntity
  8
0
  6
ByLayer
 62
  256
370
   -1
100
AcDbLine
 10
209.93
 20
0.112473
 11
210.721
 21
0.0125275
  0
LINE
  5
29D
100
AcDbEntity
  8
0
  6
ByLayer
 62
  256
370
   -1
100
AcDbLine
 10
210.721
 20
0.0125275
 11
293.179
 21
0.0125275
  0
LINE
  5
29E
100
AcDbEntity
  8
0
  6
ByLayer
 62
  256
370
   -1
100
AcDbLine
 10
293.179
 20
0.0125275
 11
293.97
 21
0.112473
  0
LINE
  5
29F
100
AcDbEntity
  8
0
  6
ByLayer
 62
  256
370
   -1
100
AcDbLine
 10
289.354
 20
8.35394
 11
289.105
 21
8.38542
  0
LINE
  5
2A0
100
AcDbEntity
  8
0
  6
ByLayer
 62
  256
370
   -1
100
AcDbLine
 10
289.105
 20
8.38542
 11
288.862
 21
8.44788
  0
LINE
  5
2A1
100
AcDbEntity
  8
0
  6
ByLayer
 62
  256
370
   -1
100
AcDbLine
 10
288.862
 20
8.44788
 11
288.628
 21
8.54034
  0
LINE
  5
2A2
100
AcDbEntity
  8
0
  6
ByLayer
 62
  256
370
   -1
100
AcDbLine
 10
288.628
 20
8.54034
 11
288.408
 21
8.66133
  0
LINE
  5
2A3
100
AcDbEntity
  8
0
  6
ByLayer
 62
  256
370
   -1
100
AcDbLine
 10
288.408
 20
8.66133
 11
288.205
 21
8.808960000000001
  0
LINE
  5
2A4
100
AcDbEntity
  8
0
  6
ByLayer
 62
  256
370
   -1
100
AcDbLine
 10
288.205
 20
8.808960000000001
 11
288.022
 21
8.9809
  0
LINE
  5
2A5
100
AcDbEntity
  8
0
  6
ByLayer
 62
  256
370
   -1
100
AcDbLine
 10
288.022
 20
8.9809
 11
287.862
 21
9.17442
  0
LINE
  5
2A6
100
AcDbEntity
  8
0
  6
ByLayer
 62
  256
370
   -1
100
AcDbLine
 10
287.862
 20
9.17442
 11
287.727
 21
9.38649
  0
LINE
  5
2A7
100
AcDbEntity
  8
0
  6
ByLayer
 62
  256
370
   -1
100
AcDbLine
 10
287.727
 20
9.38649
 11
287.62
 21
9.61374
  0
LINE
  5
2A8
100
AcDbEntity
  8
0
  6
ByLayer
 62
  256
370
   -1
100
AcDbLine
 10
287.62
 20
9.61374
 11
287.543
 21
9.85262
  0
LINE
  5
2A9
100
AcDbEntity
  8
0
  6
ByLayer
 62
  256
370
   -1
100
AcDbLine
 10
287.543
 20
9.85262
 11
287.496
 21
10.0993
  0
LINE
  5
2AA
100
AcDbEntity
  8
0
  6
ByLayer
 62
  256
370
   -1
100
AcDbLine
 10
287.496
 20
10.0993
 11
287.48
 21
10.35
  0
LINE
  5
2AB
100
AcDbEntity
  8
0
  6
ByLayer
 62
  256
370
   -1
100
AcDbLine
 10
287.48
 20
10.35
 11
287.496
 21
10.6007
  0
LINE
  5
2AC
100
AcDbEntity
  8
0
  6
ByLayer
 62
  256
370
   -1
100
AcDbLine
 10
287.496
 20
10.6007
 11
287.543
 21
10.8474
  0
LINE
  5
2AD
100
AcDbEntity
  8
0
  6
ByLayer
 62
  256
370
   -1
100
AcDbLine
 10
287.543
 20
10.8474
 11
287.62
 21
11.0862
  0
LINE
  5
2AE
100
AcDbEntity
  8
0
  6
ByLayer
 62
  256
370
   -1
100
AcDbLine
 10
287.62
 20
11.0862
 11
287.727
 21
11.3135
  0
LINE
  5
2AF
100
AcDbEntity
  8
0
  6
ByLayer
 62
  256
370
   -1
100
AcDbLine
 10
287.727
 20
11.3135
 11
287.862
 21
11.5256
  0
LINE
  5
2B0
100
AcDbEntity
  8
0
  6
ByLayer
 62
  256
370
   -1
100
AcDbLine
 10
287.862
 20
11.5256
 11
288.022
 21
11.7191
  0
LINE
  5
2B1
100
AcDbEntity
  8
0
  6
ByLayer
 62
  256
370
   -1
100
AcDbLine
 10
288.022
 20
11.7191
 11
288.205
 21
11.891
  0
LINE
  5
2B2
100
AcDbEntity
  8
0
  6
ByLayer
 62
  256
370
   -1
100
AcDbLine
 10
288.205
 20
11.891
 11
288.408
 21
12.0387
  0
LINE
  5
2B3
100
AcDbEntity
  8
0
  6
ByLayer
 62
  256
370
   -1
100
AcDbLine
 10
288.408
 20
12.0387
 11
288.628
 21
12.1597
  0
LINE
  5
2B4
100
AcDbEntity
  8
0
  6
ByLayer
 62
  256
370
   -1
100
AcDbLine
 10
288.628
 20
12.1597
 11
288.862
 21
12.2521
  0
LINE
  5
2B5
100
AcDbEntity
  8
0
  6
ByLayer
 62
  256
370
   -1
100
AcDbLine
 10
288.862
 20
12.2521
 11
289.105
 21
12.3146
  0
LINE
  5
2B6
100
AcDbEntity
  8
0
  6
ByLayer
 62
  256
370
   -1
100
AcDbLine
 10
289.105
 20
12.3146
 11
289.354
 21
12.346
  0
LINE
  5
2B7
100
AcDbEntity
  8
0
  6
ByLayer
 62
  256
370
   -1
100
AcDbLine
 10
289.354
 20
12.346
 11
289.606
 21
12.346
  0
LINE
  5
2B8
100
AcDbEntity
  8
0
  6
ByLayer
 62
  256
370
   -1
100
AcDbLine
 10
289.606
 20
12.346
 11
289.855
 21
12.3146
  0
LINE
  5
2B9
100
AcDbEntity
  8
0
  6
ByLayer
 62
  256
370
   -1
100
AcDbLine
 10
289.855
 20
12.3146
 11
290.098
 21
12.2521
  0
LINE
  5
2BA
100
AcDbEntity
  8
0
  6
ByLayer
 62
  256
370
   -1
100
AcDbLine
 10
290.098
 20
12.2521
 11
290.332
 21
12.1597
  0
LINE
  5
2BB
100
AcDbEntity
  8
0
  6
ByLayer
 62
  256
370
   -1
100
AcDbLine
 10
290.332
 20
12.1597
 11
290.552
 21
12.0387
  0
LINE
  5
2BC
100
AcDbEntity
  8
0
  6
ByLayer
 62
  256
370
   -1
100
AcDbLine
 10
290.552
 20
12.0387
 11
290.755
 21
11.891
  0
LINE
  5
2BD
100
AcDbEntity
  8
0
  6
ByLayer
 62
  256
370
   -1
100
AcDbLine
 10
290.755
 20
11.891
 11
290.938
 21
11.7191
  0
LINE
  5
2BE
100
AcDbEntity
  8
0
  6
ByLayer
 62
  256
370
   -1
100
AcDbLine
 10
290.938
 20
11.7191
 11
291.098
 21
11.5256
  0
LINE
  5
2BF
100
AcDbEntity
  8
0
  6
ByLayer
 62
  256
370
   -1
100
AcDbLine
 10
291.098
 20
11.5256
 11
291.233
 21
11.3135
  0
LINE
  5
2C0
100
AcDbEntity
  8
0
  6
ByLayer
 62
  256
370
   -1
100
AcDbLine
 10
291.233
 20
11.3135
 11
291.34
 21
11.0862
  0
LINE
  5
2C1
100
AcDbEntity
  8
0
  6
ByLayer
 62
  256
370
   -1
100
AcDbLine
 10
291.34
 20
11.0862
 11
291.417
 21
10.8474
  0
LINE
  5
2C2
100
AcDbEntity
  8
0
  6
ByLayer
 62
  256
370
   -1
100
AcDbLine
 10
291.417
 20
10.8474
 11
291.464
 21
10.6007
  0
LINE
  5
2C3
100
AcDbEntity
  8
0
  6
ByLayer
 62
  256
370
   -1
100
AcDbLine
 10
291.464
 20
10.6007
 11
291.48
 21
10.35
  0
LINE
  5
2C4
100
AcDbEntity
  8
0
  6
ByLayer
 62
  256
370
   -1
100
AcDbLine
 10
291.48
 20
10.35
 11
291.464
 21
10.0993
  0
LINE
  5
2C5
100
AcDbEntity
  8
0
  6
ByLayer
 62
  256
370
   -1
100
AcDbLine
 10
291.464
 20
10.0993
 11
291.417
 21
9.85262
  0
LINE
  5
2C6
100
AcDbEntity
  8
0
  6
ByLayer
 62
  256
370
   -1
100
AcDbLine
 10
291.417
 20
9.85262
 11
291.34
 21
9.61374
  0
LINE
  5
2C7
100
AcDbEntity
  8
0
  6
ByLayer
 62
  256
370
   -1
100
AcDbLine
 10
291.34
 20
9.61374
 11
291.233
 21
9.38649
  0
LINE
  5
2C8
100
AcDbEntity
  8
0
  6
ByLayer
 62
  256
370
   -1
100
AcDbLine
 10
291.233
 20
9.38649
 11
291.098
 21
9.17442
  0
LINE
  5
2C9
100
AcDbEntity
  8
0
  6
ByLayer
 62
  256
370
   -1
100
AcDbLine
 10
291.098
 20
9.17442
 11
290.938
 21
8.9809
  0
LINE
  5
2CA
100
AcDbEntity
  8
0
  6
ByLayer
 62
  256
370
   -1
100
AcDbLine
 10
290.938
 20
8.9809
 11
290.755
 21
8.808960000000001
  0
LINE
  5
2CB
100
AcDbEntity
  8
0
  6
ByLayer
 62
  256
370
   -1
100
AcDbLine
 10
290.755
 20
8.808960000000001
 11
290.552
 21
8.66133
  0
LINE
  5
2CC
100
AcDbEntity
  8
0
  6
ByLayer
 62
  256
370
   -1
100
AcDbLine
 10
290.552
 20
8.66133
 11
290.332
 21
8.54034
  0
LINE
  5
2CD
100
AcDbEntity
  8
0
  6
ByLayer
 62
  256
370
   -1
100
AcDbLine
 10
290.332
 20
8.54034
 11
290.098
 21
8.44788
  0
LINE
  5
2CE
100
AcDbEntity
  8
0
  6
ByLayer
 62
  256
370
   -1
100
AcDbLine
 10
290.098
 20
8.44788
 11
289.855
 21
8.38542
  0
LINE
  5
2CF
100
AcDbEntity
  8
0
  6
ByLayer
 62
  256
370
   -1
100
AcDbLine
 10
289.855
 20
8.38542
 11
289.606
 21
8.35394
  0
LINE
  5
2D0
100
AcDbEntity
  8
0
  6
ByLayer
 62
  256
370
   -1
100
AcDbLine
 10
289.606
 20
8.35394
 11
289.354
 21
8.35394
  0
LINE
  5
2D1
100
AcDbEntity
  8
0
  6
ByLayer
 62
  256
370
   -1
100
AcDbLine
 10
223.254
 20
5.18394
 11
223.005
 21
5.21542
  0
LINE
  5
2D2
100
AcDbEntity
  8
0
  6
ByLayer
 62
  256
370
   -1
100
AcDbLine
 10
223.005
 20
5.21542
 11
222.762
 21
5.27788
  0
LINE
  5
2D3
100
AcDbEntity
  8
0
  6
ByLayer
 62
  256
370
   -1
100
AcDbLine
 10
222.762
 20
5.27788
 11
222.528
 21
5.37035
  0
LINE
  5
2D4
100
AcDbEntity
  8
0
  6
ByLayer
 62
  256
370
   -1
100
AcDbLine
 10
222.528
 20
5.37035
 11
222.308
 21
5.49133
  0
LINE
  5
2D5
100
AcDbEntity
  8
0
  6
ByLayer
 62
  256
370
   -1
100
AcDbLine
 10
222.308
 20
5.49133
 11
222.105
 21
5.63896
  0
LINE
  5
2D6
100
AcDbEntity
  8
0
  6
ByLayer
 62
  256
370
   -1
100
AcDbLine
 10
222.105
 20
5.63896
 11
221.922
 21
5.8109
  0
LINE
  5
2D7
100
AcDbEntity
  8
0
  6
ByLayer
 62
  256
370
   -1
100
AcDbLine
 10
221.922
 20
5.8109
 11
221.762
 21
6.00443
  0
LINE
  5
2D8
100
AcDbEntity
  8
0
  6
ByLayer
 62
  256
370
   -1
100
AcDbLine
 10
221.762
 20
6.00443
 11
221.627
 21
6.21649
  0
LINE
  5
2D9
100
AcDbEntity
  8
0
  6
ByLayer
 62
  256
370
   -1
100
AcDbLine
 10
221.627
 20
6.21649
 11
221.52
 21
6.44374
  0
LINE
  5
2DA
100
AcDbEntity
  8
0
  6
ByLayer
 62
  256
370
   -1
100
AcDbLine
 10
221.52
 20
6.44374
 11
221.443
 21
6.68262
  0
LINE
  5
2DB
100
AcDbEntity
  8
0
  6
ByLayer
 62
  256
370
   -1
100
AcDbLine
 10
221.443
 20
6.68262
 11
221.396
 21
6.92932
  0
LINE
  5
2DC
100
AcDbEntity
  8
0
  6
ByLayer
 62
  256
370
   -1
100
AcDbLine
 10
221.396
 20
6.92932
 11
221.38
 21
7.17999
  0
LINE
  5
2DD
100
AcDbEntity
  8
0
  6
ByLayer
 62
  256
370
   -1
100
AcDbLine
 10
221.38
 20
7.17999
 11
221.396
 21
7.43066
  0
LINE
  5
2DE
100
AcDbEntity
  8
0
  6
ByLayer
 62
  256
370
   -1
100
AcDbLine
 10
221.396
 20
7.43066
 11
221.443
 21
7.67737
  0
LINE
  5
2DF
100
AcDbEntity
  8
0
  6
ByLayer
 62
  256
370
   -1
100
AcDbLine
 10
221.443
 20
7.67737
 11
221.52
 21
7.91624
  0
LINE
  5
2E0
100
AcDbEntity
  8
0
  6
ByLayer
 62
  256
370
   -1
100
AcDbLine
 10
221.52
 20
7.91624
 11
221.627
 21
8.14349
  0
LINE
  5
2E1
100
AcDbEntity
  8
0
  6
ByLayer
 62
  256
370
   -1
100
AcDbLine
 10
221.627
 20
8.14349
 11
221.762
 21
8.355560000000001
  0
LINE
  5
2E2
100
AcDbEntity
  8
0
  6
ByLayer
 62
  256
370
   -1
100
AcDbLine
 10
221.762
 20
8.355560000000001
 11
221.922
 21
8.54909
  0
LINE
  5
2E3
100
AcDbEntity
  8
0
  6
ByLayer
 62
  256
370
   -1
100
AcDbLine
 10
221.922
 20
8.54909
 11
222.105
 21
8.721019999999999
  0
LINE
  5
2E4
100
AcDbEntity
  8
0
  6
ByLayer
 62
  256
370
   -1
100
AcDbLine
 10
222.105
 20
8.721019999999999
 11
222.308
 21
8.868650000000001
  0
LINE
  5
2E5
100
AcDbEntity
  8
0
  6
ByLayer
 62
  256
370
   -1
100
AcDbLine
 10
222.308
 20
8.868650000000001
 11
222.528
 21
8.98964
  0
LINE
  5
2E6
100
AcDbEntity
  8
0
  6
ByLayer
 62
  256
370
   -1
100
AcDbLine
 10
222.528
 20
8.98964
 11
222.762
 21
9.08211
  0
LINE
  5
2E7
100
AcDbEntity
  8
0
  6
ByLayer
 62
  256
370
   -1
100
AcDbLine
 10
222.762
 20
9.08211
 11
223.005
 21
9.14456
  0
LINE
  5
2E8
100
AcDbEntity
  8
0
  6
ByLayer
 62
  256
370
   -1
100
AcDbLine
 10
223.005
 20
9.14456
 11
223.254
 21
9.17604
  0
LINE
  5
2E9
100
AcDbEntity
  8
0
  6
ByLayer
 62
  256
370
   -1
100
AcDbLine
 10
223.254
 20
9.17604
 11
223.506
 21
9.17604
  0
LINE
  5
2EA
100
AcDbEntity
  8
0
  6
ByLayer
 62
  256
370
   -1
100
AcDbLine
 10
223.506
 20
9.17604
 11
223.755
 21
9.14456
  0
LINE
  5
2EB
100
AcDbEntity
  8
0
  6
ByLayer
 62
  256
370
   -1
100
AcDbLine
 10
223.755
 20
9.14456
 11
223.998
 21
9.08211
  0
LINE
  5
2EC
100
AcDbEntity
  8
0
  6
ByLayer
 62
  256
370
   -1
100
AcDbLine
 10
223.998
 20
9.08211
 11
224.232
 21
8.98964
  0
LINE
  5
2ED
100
AcDbEntity
  8
0
  6
ByLayer
 62
  256
370
   -1
100
AcDbLine
 10
224.232
 20
8.98964
 11
224.452
 21
8.868650000000001
  0
LINE
  5
2EE
100
AcDbEntity
  8
0
  6
ByLayer
 62
  256
370
   -1
100
AcDbLine
 10
224.452
 20
8.868650000000001
 11
224.655
 21
8.721019999999999
  0
LINE
  5
2EF
100
AcDbEntity
  8
0
  6
ByLayer
 62
  256
370
   -1
100
AcDbLine
 10
224.655
 20
8.721019999999999
 11
224.838
 21
8.54909
  0
LINE
  5
2F0
100
AcDbEntity
  8
0
  6
ByLayer
 62
  256
370
   -1
100
AcDbLine
 10
224.838
 20
8.54909
 11
224.998
 21
8.355560000000001
  0
LINE
  5
2F1
100
AcDbEntity
  8
0
  6
ByLayer
 62
  256
370
   -1
100
AcDbLine
 10
224.998
 20
8.355560000000001
 11
225.133
 21
8.14349
  0
LINE
  5
2F2
100
AcDbEntity
  8
0
  6
ByLayer
 62
  256
370
   -1
100
AcDbLine
 10
225.133
 20
8.14349
 11
225.24
 21
7.91624
  0
LINE
  5
2F3
100
AcDbEntity
  8
0
  6
ByLayer
 62
  256
370
   -1
100
AcDbLine
 10
225.24
 20
7.91624
 11
225.317
 21
7.67737
  0
LINE
  5
2F4
100
AcDbEntity
  8
0
  6
ByLayer
 62
  256
370
   -1
100
AcDbLine
 10
225.317
 20
7.67737
 11
225.364
 21
7.43066
  0
LINE
  5
2F5
100
AcDbEntity
  8
0
  6
ByLayer
 62
  256
370
   -1
100
AcDbLine
 10
225.364
 20
7.43066
 11
225.38
 21
7.17999
  0
LINE
  5
2F6
100
AcDbEntity
  8
0
  6
ByLayer
 62
  256
370
   -1
100
AcDbLine
 10
225.38
 20
7.17999
 11
225.364
 21
6.92932
  0
LINE
  5
2F7
100
AcDbEntity
  8
0
  6
ByLayer
 62
  256
370
   -1
100
AcDbLine
 10
225.364
 20
6.92932
 11
225.317
 21
6.68262
  0
LINE
  5
2F8
100
AcDbEntity
  8
0
  6
ByLayer
 62
  256
370
   -1
100
AcDbLine
 10
225.317
 20
6.68262
 11
225.24
 21
6.44374
  0
LINE
  5
2F9
100
AcDbEntity
  8
0
  6
ByLayer
 62
  256
370
   -1
100
AcDbLine
 10
225.24
 20
6.44374
 11
225.133
 21
6.21649
  0
LINE
  5
2FA
100
AcDbEntity
  8
0
  6
ByLayer
 62
  256
370
   -1
100
AcDbLine
 10
225.133
 20
6.21649
 11
224.998
 21
6.00443
  0
LINE
  5
2FB
100
AcDbEntity
  8
0
  6
ByLayer
 62
  256
370
   -1
100
AcDbLine
 10
224.998
 20
6.00443
 11
224.838
 21
5.8109
  0
LINE
  5
2FC
100
AcDbEntity
  8
0
  6
ByLayer
 62
  256
370
   -1
100
AcDbLine
 10
224.838
 20
5.8109
 11
224.655
 21
5.63896
  0
LINE
  5
2FD
100
AcDbEntity
  8
0
  6
ByLayer
 62
  256
370
   -1
100
AcDbLine
 10
224.655
 20
5.63896
 11
224.452
 21
5.49133
  0
LINE
  5
2FE
100
AcDbEntity
  8
0
  6
ByLayer
 62
  256
370
   -1
100
AcDbLine
 10
224.452
 20
5.49133
 11
224.232
 21
5.37035
  0
LINE
  5
2FF
100
AcDbEntity
  8
0
  6
ByLayer
 62
  256
370
   -1
100
AcDbLine
 10
224.232
 20
5.37035
 11
223.998
 21
5.27788
  0
LINE
  5
300
100
AcDbEntity
  8
0
  6
ByLayer
 62
  256
370
   -1
100
AcDbLine
 10
223.998
 20
5.27788
 11
223.755
 21
5.21542
  0
LINE
  5
301
100
AcDbEntity
  8
0
  6
ByLayer
 62
  256
370
   -1
100
AcDbLine
 10
223.755
 20
5.21542
 11
223.506
 21
5.18394
  0
LINE
  5
302
100
AcDbEntity
  8
0
  6
ByLayer
 62
  256
370
   -1
100
AcDbLine
 10
223.506
 20
5.18394
 11
223.254
 21
5.18394
  0
LINE
  5
303
100
AcDbEntity
  8
0
  6
ByLayer
 62
  256
370
   -1
100
AcDbLine
 10
299.1105298342648
 20
23.6331838849992
 11
299.0605298342647
 21
24.4290838849992
  0
LINE
  5
304
100
AcDbEntity
  8
0
  6
ByLayer
 62
  256
370
   -1
100
AcDbLine
 10
299.0605298342647
 20
24.4290838849992
 11
298.9105298342647
 21
25.2123838849992
  0
LINE
  5
305
100
AcDbEntity
  8
0
  6
ByLayer
 62
  256
370
   -1
100
AcDbLine
 10
298.9105298342647
 20
25.2123838849992
 11
298.6645298342647
 21
25.9707838849992
  0
LINE
  5
306
100
AcDbEntity
  8
0
  6
ByLayer
 62
  256
370
   -1
100
AcDbLine
 10
298.6645298342647
 20
25.9707838849992
 11
298.3255298342648
 21
26.6922838849992
  0
LINE
  5
307
100
AcDbEntity
  8
0
  6
ByLayer
 62
  256
370
   -1
100
AcDbLine
 10
298.3255298342648
 20
26.6922838849992
 11
297.8975298342647
 21
27.36558388499921
  0
LINE
  5
308
100
AcDbEntity
  8
0
  6
ByLayer
 62
  256
370
   -1
100
AcDbLine
 10
297.8975298342647
 20
27.36558388499921
 11
297.3895298342647
 21
27.98008388499921
  0
LINE
  5
309
100
AcDbEntity
  8
0
  6
ByLayer
 62
  256
370
   -1
100
AcDbLine
 10
297.3895298342647
 20
27.98008388499921
 11
296.8085298342647
 21
28.5259838849992
  0
LINE
  5
30A
100
AcDbEntity
  8
0
  6
ByLayer
 62
  256
370
   -1
100
AcDbLine
 10
296.8085298342647
 20
28.5259838849992
 11
296.1625298342648
 21
28.9946838849992
  0
LINE
  5
30B
100
AcDbEntity
  8
0
  6
ByLayer
 62
  256
370
   -1
100
AcDbLine
 10
296.1625298342648
 20
28.9946838849992
 11
295.4645298342647
 21
29.3787838849992
  0
LINE
  5
30C
100
AcDbEntity
  8
0
  6
ByLayer
 62
  256
370
   -1
100
AcDbLine
 10
295.4645298342647
 20
29.3787838849992
 11
294.7225298342647
 21
29.6723838849992
  0
LINE
  5
30D
100
AcDbEntity
  8
0
  6
ByLayer
 62
  256
370
   -1
100
AcDbLine
 10
294.7225298342647
 20
29.6723838849992
 11
293.9505298342648
 21
29.87068388499921
  0
LINE
  5
30E
100
AcDbEntity
  8
0
  6
ByLayer
 62
  256
370
   -1
100
AcDbLine
 10
293.9505298342648
 20
29.87068388499921
 11
293.1595298342647
 21
29.9706838849992
  0
LINE
  5
30F
100
AcDbEntity
  8
0
  6
ByLayer
 62
  256
370
   -1
100
AcDbLine
 10
293.1595298342647
 20
29.9706838849992
 11
210.7015298342647
 21
29.9706838849992
  0
LINE
  5
310
100
AcDbEntity
  8
0
  6
ByLayer
 62
  256
370
   -1
100
AcDbLine
 10
210.7015298342647
 20
29.9706838849992
 11
209.9105298342647
 21
29.87068388499921
  0
LINE
  5
311
100
AcDbEntity
  8
0
  6
ByLayer
 62
  256
370
   -1
100
AcDbLine
 10
209.9105298342647
 20
29.87068388499921
 11
209.1385298342647
 21
29.6723838849992
  0
LINE
  5
312
100
AcDbEntity
  8
0
  6
ByLayer
 62
  256
370
   -1
100
AcDbLine
 10
209.1385298342647
 20
29.6723838849992
 11
208.3965298342647
 21
29.3787838849992
  0
LINE
  5
313
100
AcDbEntity
  8
0
  6
ByLayer
 62
  256
370
   -1
100
AcDbLine
 10
208.3965298342647
 20
29.3787838849992
 11
207.6975298342647
 21
28.9946838849992
  0
LINE
  5
314
100
AcDbEntity
  8
0
  6
ByLayer
 62
  256
370
   -1
100
AcDbLine
 10
207.6975298342647
 20
28.9946838849992
 11
207.0525298342647
 21
28.5259838849992
  0
LINE
  5
315
100
AcDbEntity
  8
0
  6
ByLayer
 62
  256
370
   -1
100
AcDbLine
 10
207.0525298342647
 20
28.5259838849992
 11
206.4715298342647
 21
27.98008388499921
  0
LINE
  5
316
100
AcDbEntity
  8
0
  6
ByLayer
 62
  256
370
   -1
100
AcDbLine
 10
206.4715298342647
 20
27.98008388499921
 11
205.9635298342647
 21
27.36558388499921
  0
LINE
  5
317
100
AcDbEntity
  8
0
  6
ByLayer
 62
  256
370
   -1
100
AcDbLine
 10
205.9635298342647
 20
27.36558388499921
 11
205.5355298342647
 21
26.6922838849992
  0
LINE
  5
318
100
AcDbEntity
  8
0
  6
ByLayer
 62
  256
370
   -1
100
AcDbLine
 10
205.5355298342647
 20
26.6922838849992
 11
205.1965298342647
 21
25.9707838849992
  0
LINE
  5
319
100
AcDbEntity
  8
0
  6
ByLayer
 62
  256
370
   -1
100
AcDbLine
 10
205.1965298342647
 20
25.9707838849992
 11
204.9495298342647
 21
25.2123838849992
  0
LINE
  5
31A
100
AcDbEntity
  8
0
  6
ByLayer
 62
  256
370
   -1
100
AcDbLine
 10
204.9495298342647
 20
25.2123838849992
 11
204.8005298342647
 21
24.4290838849992
  0
LINE
  5
31B
100
AcDbEntity
  8
0
  6
ByLayer
 62
  256
370
   -1
100
AcDbLine
 10
204.8005298342647
 20
24.4290838849992
 11
204.7505298342647
 21
23.6331838849992
  0
LINE
  5
31C
100
AcDbEntity
  8
0
  6
ByLayer
 62
  256
370
   -1
100
AcDbLine
 10
204.7505298342647
 20
23.6331838849992
 11
204.7505298342647
 21
20.3731838849992
  0
LINE
  5
31D
100
AcDbEntity
  8
0
  6
ByLayer
 62
  256
370
   -1
100
AcDbLine
 10
204.7505298342647
 20
20.3731838849992
 11
220.7505298342647
 21
20.3731838849992
  0
LINE
  5
31E
100
AcDbEntity
  8
0
  6
ByLayer
 62
  256
370
   -1
100
AcDbLine
 10
220.7505298342647
 20
20.3731838849992
 11
220.7505298342647
 21
18.3731838849992
  0
LINE
  5
31F
100
AcDbEntity
  8
0
  6
ByLayer
 62
  256
370
   -1
100
AcDbLine
 10
220.7505298342647
 20
18.3731838849992
 11
226.7505298342647
 21
18.3731838849992
  0
LINE
  5
320
100
AcDbEntity
  8
0
  6
ByLayer
 62
  256
370
   -1
100
AcDbLine
 10
226.7505298342647
 20
18.3731838849992
 11
226.7505298342647
 21
25.9831838849992
  0
LINE
  5
321
100
AcDbEntity
  8
0
  6
ByLayer
 62
  256
370
   -1
100
AcDbLine
 10
226.7505298342647
 20
25.9831838849992
 11
285.7505298342647
 21
25.9831838849992
  0
LINE
  5
322
100
AcDbEntity
  8
0
  6
ByLayer
 62
  256
370
   -1
100
AcDbLine
 10
285.7505298342647
 20
25.9831838849992
 11
285.7505298342647
 21
16.8731838849992
  0
LINE
  5
323
100
AcDbEntity
  8
0
  6
ByLayer
 62
  256
370
   -1
100
AcDbLine
 10
285.7505298342647
 20
16.8731838849992
 11
299.1105298342648
 21
16.8731838849992
  0
LINE
  5
324
100
AcDbEntity
  8
0
  6
ByLayer
 62
  256
370
   -1
100
AcDbLine
 10
299.1105298342648
 20
16.8731838849992
 11
299.1105298342648
 21
23.6331838849992
  0
LINE
  5
325
100
AcDbEntity
  8
0
  6
ByLayer
 62
  256
370
   -1
100
AcDbLine
 10
223.2345298342647
 20
20.94708388499921
 11
222.9855298342647
 21
20.97858388499921
  0
LINE
  5
326
100
AcDbEntity
  8
0
  6
ByLayer
 62
  256
370
   -1
100
AcDbLine
 10
222.9855298342647
 20
20.97858388499921
 11
222.7425298342647
 21
21.04108388499921
  0
LINE
  5
327
100
AcDbEntity
  8
0
  6
ByLayer
 62
  256
370
   -1
100
AcDbLine
 10
222.7425298342647
 20
21.04108388499921
 11
222.5085298342647
 21
21.1334838849992
  0
LINE
  5
328
100
AcDbEntity
  8
0
  6
ByLayer
 62
  256
370
   -1
100
AcDbLine
 10
222.5085298342647
 20
21.1334838849992
 11
222.2885298342647
 21
21.25448388499921
  0
LINE
  5
329
100
AcDbEntity
  8
0
  6
ByLayer
 62
  256
370
   -1
100
AcDbLine
 10
222.2885298342647
 20
21.25448388499921
 11
222.0855298342647
 21
21.40218388499921
  0
LINE
  5
32A
100
AcDbEntity
  8
0
  6
ByLayer
 62
  256
370
   -1
100
AcDbLine
 10
222.0855298342647
 20
21.40218388499921
 11
221.9025298342647
 21
21.5740838849992
  0
LINE
  5
32B
100
AcDbEntity
  8
0
  6
ByLayer
 62
  256
370
   -1
100
AcDbLine
 10
221.9025298342647
 20
21.5740838849992
 11
221.7425298342647
 21
21.7675838849992
  0
LINE
  5
32C
100
AcDbEntity
  8
0
  6
ByLayer
 62
  256
370
   -1
100
AcDbLine
 10
221.7425298342647
 20
21.7675838849992
 11
221.6075298342647
 21
21.9796838849992
  0
LINE
  5
32D
100
AcDbEntity
  8
0
  6
ByLayer
 62
  256
370
   -1
100
AcDbLine
 10
221.6075298342647
 20
21.9796838849992
 11
221.5005298342647
 21
22.2068838849992
  0
LINE
  5
32E
100
AcDbEntity
  8
0
  6
ByLayer
 62
  256
370
   -1
100
AcDbLine
 10
221.5005298342647
 20
22.2068838849992
 11
221.4235298342647
 21
22.44578388499921
  0
LINE
  5
32F
100
AcDbEntity
  8
0
  6
ByLayer
 62
  256
370
   -1
100
AcDbLine
 10
221.4235298342647
 20
22.44578388499921
 11
221.3765298342647
 21
22.6924838849992
  0
LINE
  5
330
100
AcDbEntity
  8
0
  6
ByLayer
 62
  256
370
   -1
100
AcDbLine
 10
221.3765298342647
 20
22.6924838849992
 11
221.3605298342647
 21
22.9431838849992
  0
LINE
  5
331
100
AcDbEntity
  8
0
  6
ByLayer
 62
  256
370
   -1
100
AcDbLine
 10
221.3605298342647
 20
22.9431838849992
 11
221.3765298342647
 21
23.19388388499921
  0
LINE
  5
332
100
AcDbEntity
  8
0
  6
ByLayer
 62
  256
370
   -1
100
AcDbLine
 10
221.3765298342647
 20
23.19388388499921
 11
221.4235298342647
 21
23.4405838849992
  0
LINE
  5
333
100
AcDbEntity
  8
0
  6
ByLayer
 62
  256
370
   -1
100
AcDbLine
 10
221.4235298342647
 20
23.4405838849992
 11
221.5005298342647
 21
23.6793838849992
  0
LINE
  5
334
100
AcDbEntity
  8
0
  6
ByLayer
 62
  256
370
   -1
100
AcDbLine
 10
221.5005298342647
 20
23.6793838849992
 11
221.6075298342647
 21
23.9066838849992
  0
LINE
  5
335
100
AcDbEntity
  8
0
  6
ByLayer
 62
  256
370
   -1
100
AcDbLine
 10
221.6075298342647
 20
23.9066838849992
 11
221.7425298342647
 21
24.11878388499921
  0
LINE
  5
336
100
AcDbEntity
  8
0
  6
ByLayer
 62
  256
370
   -1
100
AcDbLine
 10
221.7425298342647
 20
24.11878388499921
 11
221.9025298342647
 21
24.31228388499921
  0
LINE
  5
337
100
AcDbEntity
  8
0
  6
ByLayer
 62
  256
370
   -1
100
AcDbLine
 10
221.9025298342647
 20
24.31228388499921
 11
222.0855298342647
 21
24.4841838849992
  0
LINE
  5
338
100
AcDbEntity
  8
0
  6
ByLayer
 62
  256
370
   -1
100
AcDbLine
 10
222.0855298342647
 20
24.4841838849992
 11
222.2885298342647
 21
24.6318838849992
  0
LINE
  5
339
100
AcDbEntity
  8
0
  6
ByLayer
 62
  256
370
   -1
100
AcDbLine
 10
222.2885298342647
 20
24.6318838849992
 11
222.5085298342647
 21
24.7528838849992
  0
LINE
  5
33A
100
AcDbEntity
  8
0
  6
ByLayer
 62
  256
370
   -1
100
AcDbLine
 10
222.5085298342647
 20
24.7528838849992
 11
222.7425298342647
 21
24.8452838849992
  0
LINE
  5
33B
100
AcDbEntity
  8
0
  6
ByLayer
 62
  256
370
   -1
100
AcDbLine
 10
222.7425298342647
 20
24.8452838849992
 11
222.9855298342647
 21
24.9077838849992
  0
LINE
  5
33C
100
AcDbEntity
  8
0
  6
ByLayer
 62
  256
370
   -1
100
AcDbLine
 10
222.9855298342647
 20
24.9077838849992
 11
223.2345298342647
 21
24.93918388499921
  0
LINE
  5
33D
100
AcDbEntity
  8
0
  6
ByLayer
 62
  256
370
   -1
100
AcDbLine
 10
223.2345298342647
 20
24.93918388499921
 11
223.4865298342647
 21
24.93918388499921
  0
LINE
  5
33E
100
AcDbEntity
  8
0
  6
ByLayer
 62
  256
370
   -1
100
AcDbLine
 10
223.4865298342647
 20
24.93918388499921
 11
223.7355298342647
 21
24.9077838849992
  0
LINE
  5
33F
100
AcDbEntity
  8
0
  6
ByLayer
 62
  256
370
   -1
100
AcDbLine
 10
223.7355298342647
 20
24.9077838849992
 11
223.9785298342647
 21
24.8452838849992
  0
LINE
  5
340
100
AcDbEntity
  8
0
  6
ByLayer
 62
  256
370
   -1
100
AcDbLine
 10
223.9785298342647
 20
24.8452838849992
 11
224.2125298342647
 21
24.7528838849992
  0
LINE
  5
341
100
AcDbEntity
  8
0
  6
ByLayer
 62
  256
370
   -1
100
AcDbLine
 10
224.2125298342647
 20
24.7528838849992
 11
224.4325298342647
 21
24.6318838849992
  0
LINE
  5
342
100
AcDbEntity
  8
0
  6
ByLayer
 62
  256
370
   -1
100
AcDbLine
 10
224.4325298342647
 20
24.6318838849992
 11
224.6355298342647
 21
24.4841838849992
  0
LINE
  5
343
100
AcDbEntity
  8
0
  6
ByLayer
 62
  256
370
   -1
100
AcDbLine
 10
224.6355298342647
 20
24.4841838849992
 11
224.8185298342647
 21
24.31228388499921
  0
LINE
  5
344
100
AcDbEntity
  8
0
  6
ByLayer
 62
  256
370
   -1
100
AcDbLine
 10
224.8185298342647
 20
24.31228388499921
 11
224.9785298342647
 21
24.11878388499921
  0
LINE
  5
345
100
AcDbEntity
  8
0
  6
ByLayer
 62
  256
370
   -1
100
AcDbLine
 10
224.9785298342647
 20
24.11878388499921
 11
225.1135298342647
 21
23.9066838849992
  0
LINE
  5
346
100
AcDbEntity
  8
0
  6
ByLayer
 62
  256
370
   -1
100
AcDbLine
 10
225.1135298342647
 20
23.9066838849992
 11
225.2205298342647
 21
23.6793838849992
  0
LINE
  5
347
100
AcDbEntity
  8
0
  6
ByLayer
 62
  256
370
   -1
100
AcDbLine
 10
225.2205298342647
 20
23.6793838849992
 11
225.2975298342647
 21
23.4405838849992
  0
LINE
  5
348
100
AcDbEntity
  8
0
  6
ByLayer
 62
  256
370
   -1
100
AcDbLine
 10
225.2975298342647
 20
23.4405838849992
 11
225.3445298342647
 21
23.19388388499921
  0
LINE
  5
349
100
AcDbEntity
  8
0
  6
ByLayer
 62
  256
370
   -1
100
AcDbLine
 10
225.3445298342647
 20
23.19388388499921
 11
225.3605298342647
 21
22.9431838849992
  0
LINE
  5
34A
100
AcDbEntity
  8
0
  6
ByLayer
 62
  256
370
   -1
100
AcDbLine
 10
225.3605298342647
 20
22.9431838849992
 11
225.3445298342647
 21
22.6924838849992
  0
LINE
  5
34B
100
AcDbEntity
  8
0
  6
ByLayer
 62
  256
370
   -1
100
AcDbLine
 10
225.3445298342647
 20
22.6924838849992
 11
225.2975298342647
 21
22.44578388499921
  0
LINE
  5
34C
100
AcDbEntity
  8
0
  6
ByLayer
 62
  256
370
   -1
100
AcDbLine
 10
225.2975298342647
 20
22.44578388499921
 11
225.2205298342647
 21
22.2068838849992
  0
LINE
  5
34D
100
AcDbEntity
  8
0
  6
ByLayer
 62
  256
370
   -1
100
AcDbLine
 10
225.2205298342647
 20
22.2068838849992
 11
225.1135298342647
 21
21.9796838849992
  0
LINE
  5
34E
100
AcDbEntity
  8
0
  6
ByLayer
 62
  256
370
   -1
100
AcDbLine
 10
225.1135298342647
 20
21.9796838849992
 11
224.9785298342647
 21
21.7675838849992
  0
LINE
  5
34F
100
AcDbEntity
  8
0
  6
ByLayer
 62
  256
370
   -1
100
AcDbLine
 10
224.9785298342647
 20
21.7675838849992
 11
224.8185298342647
 21
21.5740838849992
  0
LINE
  5
350
100
AcDbEntity
  8
0
  6
ByLayer
 62
  256
370
   -1
100
AcDbLine
 10
224.8185298342647
 20
21.5740838849992
 11
224.6355298342647
 21
21.40218388499921
  0
LINE
  5
351
100
AcDbEntity
  8
0
  6
ByLayer
 62
  256
370
   -1
100
AcDbLine
 10
224.6355298342647
 20
21.40218388499921
 11
224.4325298342647
 21
21.25448388499921
  0
LINE
  5
352
100
AcDbEntity
  8
0
  6
ByLayer
 62
  256
370
   -1
100
AcDbLine
 10
224.4325298342647
 20
21.25448388499921
 11
224.2125298342647
 21
21.1334838849992
  0
LINE
  5
353
100
AcDbEntity
  8
0
  6
ByLayer
 62
  256
370
   -1
100
AcDbLine
 10
224.2125298342647
 20
21.1334838849992
 11
223.9785298342647
 21
21.04108388499921
  0
LINE
  5
354
100
AcDbEntity
  8
0
  6
ByLayer
 62
  256
370
   -1
100
AcDbLine
 10
223.9785298342647
 20
21.04108388499921
 11
223.7355298342647
 21
20.97858388499921
  0
LINE
  5
355
100
AcDbEntity
  8
0
  6
ByLayer
 62
  256
370
   -1
100
AcDbLine
 10
223.7355298342647
 20
20.97858388499921
 11
223.4865298342647
 21
20.94708388499921
  0
LINE
  5
356
100
AcDbEntity
  8
0
  6
ByLayer
 62
  256
370
   -1
100
AcDbLine
 10
223.4865298342647
 20
20.94708388499921
 11
223.2345298342647
 21
20.94708388499921
  0
LINE
  5
357
100
AcDbEntity
  8
0
  6
ByLayer
 62
  256
370
   -1
100
AcDbLine
 10
289.3345298342647
 20
17.6370838849992
 11
289.0855298342648
 21
17.6685838849992
  0
LINE
  5
358
100
AcDbEntity
  8
0
  6
ByLayer
 62
  256
370
   -1
100
AcDbLine
 10
289.0855298342648
 20
17.6685838849992
 11
288.8425298342647
 21
17.7310838849992
  0
LINE
  5
359
100
AcDbEntity
  8
0
  6
ByLayer
 62
  256
370
   -1
100
AcDbLine
 10
288.8425298342647
 20
17.7310838849992
 11
288.6085298342647
 21
17.8234838849992
  0
LINE
  5
35A
100
AcDbEntity
  8
0
  6
ByLayer
 62
  256
370
   -1
100
AcDbLine
 10
288.6085298342647
 20
17.8234838849992
 11
288.3885298342648
 21
17.9444838849992
  0
LINE
  5
35B
100
AcDbEntity
  8
0
  6
ByLayer
 62
  256
370
   -1
100
AcDbLine
 10
288.3885298342648
 20
17.9444838849992
 11
288.1855298342647
 21
18.0921838849992
  0
LINE
  5
35C
100
AcDbEntity
  8
0
  6
ByLayer
 62
  256
370
   -1
100
AcDbLine
 10
288.1855298342647
 20
18.0921838849992
 11
288.0025298342647
 21
18.26408388499921
  0
LINE
  5
35D
100
AcDbEntity
  8
0
  6
ByLayer
 62
  256
370
   -1
100
AcDbLine
 10
288.0025298342647
 20
18.26408388499921
 11
287.8425298342647
 21
18.45758388499921
  0
LINE
  5
35E
100
AcDbEntity
  8
0
  6
ByLayer
 62
  256
370
   -1
100
AcDbLine
 10
287.8425298342647
 20
18.45758388499921
 11
287.7075298342647
 21
18.66968388499921
  0
LINE
  5
35F
100
AcDbEntity
  8
0
  6
ByLayer
 62
  256
370
   -1
100
AcDbLine
 10
287.7075298342647
 20
18.66968388499921
 11
287.6005298342648
 21
18.8968838849992
  0
LINE
  5
360
100
AcDbEntity
  8
0
  6
ByLayer
 62
  256
370
   -1
100
AcDbLine
 10
287.6005298342648
 20
18.8968838849992
 11
287.5235298342648
 21
19.1357838849992
  0
LINE
  5
361
100
AcDbEntity
  8
0
  6
ByLayer
 62
  256
370
   -1
100
AcDbLine
 10
287.5235298342648
 20
19.1357838849992
 11
287.4765298342647
 21
19.38248388499921
  0
LINE
  5
362
100
AcDbEntity
  8
0
  6
ByLayer
 62
  256
370
   -1
100
AcDbLine
 10
287.4765298342647
 20
19.38248388499921
 11
287.4605298342648
 21
19.6331838849992
  0
LINE
  5
363
100
AcDbEntity
  8
0
  6
ByLayer
 62
  256
370
   -1
100
AcDbLine
 10
287.4605298342648
 20
19.6331838849992
 11
287.4765298342647
 21
19.8838838849992
  0
LINE
  5
364
100
AcDbEntity
  8
0
  6
ByLayer
 62
  256
370
   -1
100
AcDbLine
 10
287.4765298342647
 20
19.8838838849992
 11
287.5235298342648
 21
20.1305838849992
  0
LINE
  5
365
100
AcDbEntity
  8
0
  6
ByLayer
 62
  256
370
   -1
100
AcDbLine
 10
287.5235298342648
 20
20.1305838849992
 11
287.6005298342648
 21
20.36938388499921
  0
LINE
  5
366
100
AcDbEntity
  8
0
  6
ByLayer
 62
  256
370
   -1
100
AcDbLine
 10
287.6005298342648
 20
20.36938388499921
 11
287.7075298342647
 21
20.59668388499921
  0
LINE
  5
367
100
AcDbEntity
  8
0
  6
ByLayer
 62
  256
370
   -1
100
AcDbLine
 10
287.7075298342647
 20
20.59668388499921
 11
287.8425298342647
 21
20.8087838849992
  0
LINE
  5
368
100
AcDbEntity
  8
0
  6
ByLayer
 62
  256
370
   -1
100
AcDbLine
 10
287.8425298342647
 20
20.8087838849992
 11
288.0025298342647
 21
21.0022838849992
  0
LINE
  5
369
100
AcDbEntity
  8
0
  6
ByLayer
 62
  256
370
   -1
100
AcDbLine
 10
288.0025298342647
 20
21.0022838849992
 11
288.1855298342647
 21
21.17418388499921
  0
LINE
  5
36A
100
AcDbEntity
  8
0
  6
ByLayer
 62
  256
370
   -1
100
AcDbLine
 10
288.1855298342647
 20
21.17418388499921
 11
288.3885298342648
 21
21.32188388499921
  0
LINE
  5
36B
100
AcDbEntity
  8
0
  6
ByLayer
 62
  256
370
   -1
100
AcDbLine
 10
288.3885298342648
 20
21.32188388499921
 11
288.6085298342647
 21
21.4427838849992
  0
LINE
  5
36C
100
AcDbEntity
  8
0
  6
ByLayer
 62
  256
370
   -1
100
AcDbLine
 10
288.6085298342647
 20
21.4427838849992
 11
288.8425298342647
 21
21.53528388499921
  0
LINE
  5
36D
100
AcDbEntity
  8
0
  6
ByLayer
 62
  256
370
   -1
100
AcDbLine
 10
288.8425298342647
 20
21.53528388499921
 11
289.0855298342648
 21
21.59778388499921
  0
LINE
  5
36E
100
AcDbEntity
  8
0
  6
ByLayer
 62
  256
370
   -1
100
AcDbLine
 10
289.0855298342648
 20
21.59778388499921
 11
289.3345298342647
 21
21.6291838849992
  0
LINE
  5
36F
100
AcDbEntity
  8
0
  6
ByLayer
 62
  256
370
   -1
100
AcDbLine
 10
289.3345298342647
 20
21.6291838849992
 11
289.5865298342648
 21
21.6291838849992
  0
LINE
  5
370
100
AcDbEntity
  8
0
  6
ByLayer
 62
  256
370
   -1
100
AcDbLine
 10
289.5865298342648
 20
21.6291838849992
 11
289.8355298342648
 21
21.59778388499921
  0
LINE
  5
371
100
AcDbEntity
  8
0
  6
ByLayer
 62
  256
370
   -1
100
AcDbLine
 10
289.8355298342648
 20
21.59778388499921
 11
290.0785298342647
 21
21.53528388499921
  0
LINE
  5
372
100
AcDbEntity
  8
0
  6
ByLayer
 62
  256
370
   -1
100
AcDbLine
 10
290.0785298342647
 20
21.53528388499921
 11
290.3125298342648
 21
21.4427838849992
  0
LINE
  5
373
100
AcDbEntity
  8
0
  6
ByLayer
 62
  256
370
   -1
100
AcDbLine
 10
290.3125298342648
 20
21.4427838849992
 11
290.5325298342648
 21
21.32188388499921
  0
LINE
  5
374
100
AcDbEntity
  8
0
  6
ByLayer
 62
  256
370
   -1
100
AcDbLine
 10
290.5325298342648
 20
21.32188388499921
 11
290.7355298342648
 21
21.17418388499921
  0
LINE
  5
375
100
AcDbEntity
  8
0
  6
ByLayer
 62
  256
370
   -1
100
AcDbLine
 10
290.7355298342648
 20
21.17418388499921
 11
290.9185298342647
 21
21.0022838849992
  0
LINE
  5
376
100
AcDbEntity
  8
0
  6
ByLayer
 62
  256
370
   -1
100
AcDbLine
 10
290.9185298342647
 20
21.0022838849992
 11
291.0785298342647
 21
20.8087838849992
  0
LINE
  5
377
100
AcDbEntity
  8
0
  6
ByLayer
 62
  256
370
   -1
100
AcDbLine
 10
291.0785298342647
 20
20.8087838849992
 11
291.2135298342647
 21
20.59668388499921
  0
LINE
  5
378
100
AcDbEntity
  8
0
  6
ByLayer
 62
  256
370
   -1
100
AcDbLine
 10
291.2135298342647
 20
20.59668388499921
 11
291.3205298342647
 21
20.36938388499921
  0
LINE
  5
379
100
AcDbEntity
  8
0
  6
ByLayer
 62
  256
370
   -1
100
AcDbLine
 10
291.3205298342647
 20
20.36938388499921
 11
291.3975298342647
 21
20.1305838849992
  0
LINE
  5
37A
100
AcDbEntity
  8
0
  6
ByLayer
 62
  256
370
   -1
100
AcDbLine
 10
291.3975298342647
 20
20.1305838849992
 11
291.4445298342647
 21
19.8838838849992
  0
LINE
  5
37B
100
AcDbEntity
  8
0
  6
ByLayer
 62
  256
370
   -1
100
AcDbLine
 10
291.4445298342647
 20
19.8838838849992
 11
291.4605298342648
 21
19.6331838849992
  0
LINE
  5
37C
100
AcDbEntity
  8
0
  6
ByLayer
 62
  256
370
   -1
100
AcDbLine
 10
291.4605298342648
 20
19.6331838849992
 11
291.4445298342647
 21
19.38248388499921
  0
LINE
  5
37D
100
AcDbEntity
  8
0
  6
ByLayer
 62
  256
370
   -1
100
AcDbLine
 10
291.4445298342647
 20
19.38248388499921
 11
291.3975298342647
 21
19.1357838849992
  0
LINE
  5
37E
100
AcDbEntity
  8
0
  6
ByLayer
 62
  256
370
   -1
100
AcDbLine
 10
291.3975298342647
 20
19.1357838849992
 11
291.3205298342647
 21
18.8968838849992
  0
LINE
  5
37F
100
AcDbEntity
  8
0
  6
ByLayer
 62
  256
370
   -1
100
AcDbLine
 10
291.3205298342647
 20
18.8968838849992
 11
291.2135298342647
 21
18.66968388499921
  0
LINE
  5
380
100
AcDbEntity
  8
0
  6
ByLayer
 62
  256
370
   -1
100
AcDbLine
 10
291.2135298342647
 20
18.66968388499921
 11
291.0785298342647
 21
18.45758388499921
  0
LINE
  5
381
100
AcDbEntity
  8
0
  6
ByLayer
 62
  256
370
   -1
100
AcDbLine
 10
291.0785298342647
 20
18.45758388499921
 11
290.9185298342647
 21
18.26408388499921
  0
LINE
  5
382
100
AcDbEntity
  8
0
  6
ByLayer
 62
  256
370
   -1
100
AcDbLine
 10
290.9185298342647
 20
18.26408388499921
 11
290.7355298342648
 21
18.0921838849992
  0
LINE
  5
383
100
AcDbEntity
  8
0
  6
ByLayer
 62
  256
370
   -1
100
AcDbLine
 10
290.7355298342648
 20
18.0921838849992
 11
290.5325298342648
 21
17.9444838849992
  0
LINE
  5
384
100
AcDbEntity
  8
0
  6
ByLayer
 62
  256
370
   -1
100
AcDbLine
 10
290.5325298342648
 20
17.9444838849992
 11
290.3125298342648
 21
17.8234838849992
  0
LINE
  5
385
100
AcDbEntity
  8
0
  6
ByLayer
 62
  256
370
   -1
100
AcDbLine
 10
290.3125298342648
 20
17.8234838849992
 11
290.0785298342647
 21
17.7310838849992
  0
LINE
  5
386
100
AcDbEntity
  8
0
  6
ByLayer
 62
  256
370
   -1
100
AcDbLine
 10
290.0785298342647
 20
17.7310838849992
 11
289.8355298342648
 21
17.6685838849992
  0
LINE
  5
387
100
AcDbEntity
  8
0
  6
ByLayer
 62
  256
370
   -1
100
AcDbLine
 10
289.8355298342648
 20
17.6685838849992
 11
289.5865298342648
 21
17.6370838849992
  0
LINE
  5
388
100
AcDbEntity
  8
0
  6
ByLayer
 62
  256
370
   -1
100
AcDbLine
 10
289.5865298342648
 20
17.6370838849992
 11
289.3345298342647
 21
17.6370838849992
  0
LINE
  5
389
100
AcDbEntity
  8
0
  6
ByLayer
 62
  256
370
   -1
100
AcDbLine
 10
294.7953792603586
 20
36.08026329492659
 11
295.5673792603586
 21
36.27858129492659
  0
LINE
  5
38A
100
AcDbEntity
  8
0
  6
ByLayer
 62
  256
370
   -1
100
AcDbLine
 10
295.5673792603586
 20
36.27858129492659
 11
296.3093792603586
 21
36.57213029492659
  0
LINE
  5
38B
100
AcDbEntity
  8
0
  6
ByLayer
 62
  256
370
   -1
100
AcDbLine
 10
296.3093792603586
 20
36.57213029492659
 11
297.0073792603586
 21
36.95630029492659
  0
LINE
  5
38C
100
AcDbEntity
  8
0
  6
ByLayer
 62
  256
370
   -1
100
AcDbLine
 10
297.0073792603586
 20
36.95630029492659
 11
297.6533792603586
 21
37.42502029492659
  0
LINE
  5
38D
100
AcDbEntity
  8
0
  6
ByLayer
 62
  256
370
   -1
100
AcDbLine
 10
297.6533792603586
 20
37.42502029492659
 11
298.2343792603587
 21
37.97090029492659
  0
LINE
  5
38E
100
AcDbEntity
  8
0
  6
ByLayer
 62
  256
370
   -1
100
AcDbLine
 10
298.2343792603587
 20
37.97090029492659
 11
298.7423792603586
 21
38.58534029492659
  0
LINE
  5
38F
100
AcDbEntity
  8
0
  6
ByLayer
 62
  256
370
   -1
100
AcDbLine
 10
298.7423792603586
 20
38.58534029492659
 11
299.1703792603586
 21
39.25865029492659
  0
LINE
  5
390
100
AcDbEntity
  8
0
  6
ByLayer
 62
  256
370
   -1
100
AcDbLine
 10
299.1703792603586
 20
39.25865029492659
 11
299.5093792603586
 21
39.98020029492659
  0
LINE
  5
391
100
AcDbEntity
  8
0
  6
ByLayer
 62
  256
370
   -1
100
AcDbLine
 10
299.5093792603586
 20
39.98020029492659
 11
299.7553792603587
 21
40.73860029492658
  0
LINE
  5
392
100
AcDbEntity
  8
0
  6
ByLayer
 62
  256
370
   -1
100
AcDbLine
 10
299.7553792603587
 20
40.73860029492658
 11
299.9053792603586
 21
41.52191029492658
  0
LINE
  5
393
100
AcDbEntity
  8
0
  6
ByLayer
 62
  256
370
   -1
100
AcDbLine
 10
299.9053792603586
 20
41.52191029492658
 11
299.9553792603587
 21
42.31778029492659
  0
LINE
  5
394
100
AcDbEntity
  8
0
  6
ByLayer
 62
  256
370
   -1
100
AcDbLine
 10
299.9553792603587
 20
42.31778029492659
 11
299.9553792603587
 21
60.96779029492659
  0
LINE
  5
395
100
AcDbEntity
  8
0
  6
ByLayer
 62
  256
370
   -1
100
AcDbLine
 10
299.9553792603587
 20
60.96779029492659
 11
287.9553792603587
 21
60.96779029492659
  0
LINE
  5
396
100
AcDbEntity
  8
0
  6
ByLayer
 62
  256
370
   -1
100
AcDbLine
 10
287.9553792603587
 20
60.96779029492659
 11
287.9553792603587
 21
68.96779029492659
  0
LINE
  5
397
100
AcDbEntity
  8
0
  6
ByLayer
 62
  256
370
   -1
100
AcDbLine
 10
287.9553792603587
 20
68.96779029492659
 11
295.9553792603587
 21
68.96779029492659
  0
LINE
  5
398
100
AcDbEntity
  8
0
  6
ByLayer
 62
  256
370
   -1
100
AcDbLine
 10
295.9553792603587
 20
68.96779029492659
 11
295.9553792603587
 21
85.46779029492659
  0
LINE
  5
399
100
AcDbEntity
  8
0
  6
ByLayer
 62
  256
370
   -1
100
AcDbLine
 10
295.9553792603587
 20
85.46779029492659
 11
299.9553792603587
 21
85.46779029492659
  0
LINE
  5
39A
100
AcDbEntity
  8
0
  6
ByLayer
 62
  256
370
   -1
100
AcDbLine
 10
299.9553792603587
 20
85.46779029492659
 11
299.9553792603587
 21
92.22779029492659
  0
LINE
  5
39B
100
AcDbEntity
  8
0
  6
ByLayer
 62
  256
370
   -1
100
AcDbLine
 10
299.9553792603587
 20
92.22779029492659
 11
299.9053792603586
 21
93.02369029492658
  0
LINE
  5
39C
100
AcDbEntity
  8
0
  6
ByLayer
 62
  256
370
   -1
100
AcDbLine
 10
299.9053792603586
 20
93.02369029492658
 11
299.7553792603587
 21
93.80699029492658
  0
LINE
  5
39D
100
AcDbEntity
  8
0
  6
ByLayer
 62
  256
370
   -1
100
AcDbLine
 10
299.7553792603587
 20
93.80699029492658
 11
299.5093792603586
 21
94.56539029492659
  0
LINE
  5
39E
100
AcDbEntity
  8
0
  6
ByLayer
 62
  256
370
   -1
100
AcDbLine
 10
299.5093792603586
 20
94.56539029492659
 11
299.1703792603586
 21
95.28689029492659
  0
LINE
  5
39F
100
AcDbEntity
  8
0
  6
ByLayer
 62
  256
370
   -1
100
AcDbLine
 10
299.1703792603586
 20
95.28689029492659
 11
298.7423792603586
 21
95.96019029492659
  0
LINE
  5
3A0
100
AcDbEntity
  8
0
  6
ByLayer
 62
  256
370
   -1
100
AcDbLine
 10
298.7423792603586
 20
95.96019029492659
 11
298.2343792603587
 21
96.5746902949266
  0
LINE
  5
3A1
100
AcDbEntity
  8
0
  6
ByLayer
 62
  256
370
   -1
100
AcDbLine
 10
298.2343792603587
 20
96.5746902949266
 11
297.6533792603586
 21
97.12059029492659
  0
LINE
  5
3A2
100
AcDbEntity
  8
0
  6
ByLayer
 62
  256
370
   -1
100
AcDbLine
 10
297.6533792603586
 20
97.12059029492659
 11
297.0073792603586
 21
97.58929029492658
  0
LINE
  5
3A3
100
AcDbEntity
  8
0
  6
ByLayer
 62
  256
370
   -1
100
AcDbLine
 10
297.0073792603586
 20
97.58929029492658
 11
296.3093792603586
 21
97.97339029492659
  0
LINE
  5
3A4
100
AcDbEntity
  8
0
  6
ByLayer
 62
  256
370
   -1
100
AcDbLine
 10
296.3093792603586
 20
97.97339029492659
 11
295.5673792603586
 21
98.26699029492659
  0
LINE
  5
3A5
100
AcDbEntity
  8
0
  6
ByLayer
 62
  256
370
   -1
100
AcDbLine
 10
295.5673792603586
 20
98.26699029492659
 11
294.7953792603586
 21
98.46529029492659
  0
LINE
  5
3A6
100
AcDbEntity
  8
0
  6
ByLayer
 62
  256
370
   -1
100
AcDbLine
 10
294.7953792603586
 20
98.46529029492659
 11
294.0043792603586
 21
98.56529029492658
  0
LINE
  5
3A7
100
AcDbEntity
  8
0
  6
ByLayer
 62
  256
370
   -1
100
AcDbLine
 10
294.0043792603586
 20
98.56529029492658
 11
211.5463792603587
 21
98.56529029492658
  0
LINE
  5
3A8
100
AcDbEntity
  8
0
  6
ByLayer
 62
  256
370
   -1
100
AcDbLine
 10
211.5463792603587
 20
98.56529029492658
 11
210.7553792603587
 21
98.46529029492659
  0
LINE
  5
3A9
100
AcDbEntity
  8
0
  6
ByLayer
 62
  256
370
   -1
100
AcDbLine
 10
210.7553792603587
 20
98.46529029492659
 11
209.9833792603586
 21
98.26699029492659
  0
LINE
  5
3AA
100
AcDbEntity
  8
0
  6
ByLayer
 62
  256
370
   -1
100
AcDbLine
 10
209.9833792603586
 20
98.26699029492659
 11
209.2413792603587
 21
97.97339029492659
  0
LINE
  5
3AB
100
AcDbEntity
  8
0
  6
ByLayer
 62
  256
370
   -1
100
AcDbLine
 10
209.2413792603587
 20
97.97339029492659
 11
208.5423792603586
 21
97.58929029492658
  0
LINE
  5
3AC
100
AcDbEntity
  8
0
  6
ByLayer
 62
  256
370
   -1
100
AcDbLine
 10
208.5423792603586
 20
97.58929029492658
 11
207.8973792603587
 21
97.12059029492659
  0
LINE
  5
3AD
100
AcDbEntity
  8
0
  6
ByLayer
 62
  256
370
   -1
100
AcDbLine
 10
207.8973792603587
 20
97.12059029492659
 11
207.3163792603586
 21
96.5746902949266
  0
LINE
  5
3AE
100
AcDbEntity
  8
0
  6
ByLayer
 62
  256
370
   -1
100
AcDbLine
 10
207.3163792603586
 20
96.5746902949266
 11
206.8083792603587
 21
95.96019029492659
  0
LINE
  5
3AF
100
AcDbEntity
  8
0
  6
ByLayer
 62
  256
370
   -1
100
AcDbLine
 10
206.8083792603587
 20
95.96019029492659
 11
206.3803792603587
 21
95.28689029492659
  0
LINE
  5
3B0
100
AcDbEntity
  8
0
  6
ByLayer
 62
  256
370
   -1
100
AcDbLine
 10
206.3803792603587
 20
95.28689029492659
 11
206.0413792603587
 21
94.56539029492659
  0
LINE
  5
3B1
100
AcDbEntity
  8
0
  6
ByLayer
 62
  256
370
   -1
100
AcDbLine
 10
206.0413792603587
 20
94.56539029492659
 11
205.7943792603587
 21
93.80699029492658
  0
LINE
  5
3B2
100
AcDbEntity
  8
0
  6
ByLayer
 62
  256
370
   -1
100
AcDbLine
 10
205.7943792603587
 20
93.80699029492658
 11
205.6453792603587
 21
93.02369029492658
  0
LINE
  5
3B3
100
AcDbEntity
  8
0
  6
ByLayer
 62
  256
370
   -1
100
AcDbLine
 10
205.6453792603587
 20
93.02369029492658
 11
205.5953792603586
 21
92.22779029492659
  0
LINE
  5
3B4
100
AcDbEntity
  8
0
  6
ByLayer
 62
  256
370
   -1
100
AcDbLine
 10
205.5953792603586
 20
92.22779029492659
 11
205.5953792603586
 21
88.96779029492659
  0
LINE
  5
3B5
100
AcDbEntity
  8
0
  6
ByLayer
 62
  256
370
   -1
100
AcDbLine
 10
205.5953792603586
 20
88.96779029492659
 11
218.5953792603586
 21
88.96779029492659
  0
LINE
  5
3B6
100
AcDbEntity
  8
0
  6
ByLayer
 62
  256
370
   -1
100
AcDbLine
 10
218.5953792603586
 20
88.96779029492659
 11
218.5953792603586
 21
78.96779029492659
  0
LINE
  5
3B7
100
AcDbEntity
  8
0
  6
ByLayer
 62
  256
370
   -1
100
AcDbLine
 10
218.5953792603586
 20
78.96779029492659
 11
205.5953792603586
 21
78.96779029492659
  0
LINE
  5
3B8
100
AcDbEntity
  8
0
  6
ByLayer
 62
  256
370
   -1
100
AcDbLine
 10
205.5953792603586
 20
78.96779029492659
 11
205.5953792603586
 21
42.31778029492659
  0
LINE
  5
3B9
100
AcDbEntity
  8
0
  6
ByLayer
 62
  256
370
   -1
100
AcDbLine
 10
205.5953792603586
 20
42.31778029492659
 11
205.6453792603587
 21
41.52191029492658
  0
LINE
  5
3BA
100
AcDbEntity
  8
0
  6
ByLayer
 62
  256
370
   -1
100
AcDbLine
 10
205.6453792603587
 20
41.52191029492658
 11
205.7943792603587
 21
40.73860029492658
  0
LINE
  5
3BB
100
AcDbEntity
  8
0
  6
ByLayer
 62
  256
370
   -1
100
AcDbLine
 10
205.7943792603587
 20
40.73860029492658
 11
206.0413792603587
 21
39.98020029492659
  0
LINE
  5
3BC
100
AcDbEntity
  8
0
  6
ByLayer
 62
  256
370
   -1
100
AcDbLine
 10
206.0413792603587
 20
39.98020029492659
 11
206.3803792603587
 21
39.25865029492659
  0
LINE
  5
3BD
100
AcDbEntity
  8
0
  6
ByLayer
 62
  256
370
   -1
100
AcDbLine
 10
206.3803792603587
 20
39.25865029492659
 11
206.8083792603587
 21
38.58534029492659
  0
LINE
  5
3BE
100
AcDbEntity
  8
0
  6
ByLayer
 62
  256
370
   -1
100
AcDbLine
 10
206.8083792603587
 20
38.58534029492659
 11
207.3163792603586
 21
37.97090029492659
  0
LINE
  5
3BF
100
AcDbEntity
  8
0
  6
ByLayer
 62
  256
370
   -1
100
AcDbLine
 10
207.3163792603586
 20
37.97090029492659
 11
207.8973792603587
 21
37.42502029492659
  0
LINE
  5
3C0
100
AcDbEntity
  8
0
  6
ByLayer
 62
  256
370
   -1
100
AcDbLine
 10
207.8973792603587
 20
37.42502029492659
 11
208.5423792603586
 21
36.95630029492659
  0
LINE
  5
3C1
100
AcDbEntity
  8
0
  6
ByLayer
 62
  256
370
   -1
100
AcDbLine
 10
208.5423792603586
 20
36.95630029492659
 11
209.2413792603587
 21
36.57213029492659
  0
LINE
  5
3C2
100
AcDbEntity
  8
0
  6
ByLayer
 62
  256
370
   -1
100
AcDbLine
 10
209.2413792603587
 20
36.57213029492659
 11
209.9833792603586
 21
36.27858129492659
  0
LINE
  5
3C3
100
AcDbEntity
  8
0
  6
ByLayer
 62
  256
370
   -1
100
AcDbLine
 10
209.9833792603586
 20
36.27858129492659
 11
210.7553792603587
 21
36.08026329492659
  0
LINE
  5
3C4
100
AcDbEntity
  8
0
  6
ByLayer
 62
  256
370
   -1
100
AcDbLine
 10
210.7553792603587
 20
36.08026329492659
 11
211.5463792603587
 21
35.98031779492658
  0
LINE
  5
3C5
100
AcDbEntity
  8
0
  6
ByLayer
 62
  256
370
   -1
100
AcDbLine
 10
211.5463792603587
 20
35.98031779492658
 11
294.0043792603586
 21
35.98031779492658
  0
LINE
  5
3C6
100
AcDbEntity
  8
0
  6
ByLayer
 62
  256
370
   -1
100
AcDbLine
 10
294.0043792603586
 20
35.98031779492658
 11
294.7953792603586
 21
36.08026329492659
  0
LINE
  5
3C7
100
AcDbEntity
  8
0
  6
ByLayer
 62
  256
370
   -1
100
AcDbLine
 10
224.0793792603586
 20
89.54169029492658
 11
223.8303792603587
 21
89.57319029492659
  0
LINE
  5
3C8
100
AcDbEntity
  8
0
  6
ByLayer
 62
  256
370
   -1
100
AcDbLine
 10
223.8303792603587
 20
89.57319029492659
 11
223.5873792603587
 21
89.63569029492659
  0
LINE
  5
3C9
100
AcDbEntity
  8
0
  6
ByLayer
 62
  256
370
   -1
100
AcDbLine
 10
223.5873792603587
 20
89.63569029492659
 11
223.3533792603586
 21
89.72809029492659
  0
LINE
  5
3CA
100
AcDbEntity
  8
0
  6
ByLayer
 62
  256
370
   -1
100
AcDbLine
 10
223.3533792603586
 20
89.72809029492659
 11
223.1333792603587
 21
89.84909029492658
  0
LINE
  5
3CB
100
AcDbEntity
  8
0
  6
ByLayer
 62
  256
370
   -1
100
AcDbLine
 10
223.1333792603587
 20
89.84909029492658
 11
222.9303792603586
 21
89.9967902949266
  0
LINE
  5
3CC
100
AcDbEntity
  8
0
  6
ByLayer
 62
  256
370
   -1
100
AcDbLine
 10
222.9303792603586
 20
89.9967902949266
 11
222.7473792603586
 21
90.16869029492659
  0
LINE
  5
3CD
100
AcDbEntity
  8
0
  6
ByLayer
 62
  256
370
   -1
100
AcDbLine
 10
222.7473792603586
 20
90.16869029492659
 11
222.5873792603587
 21
90.36219029492659
  0
LINE
  5
3CE
100
AcDbEntity
  8
0
  6
ByLayer
 62
  256
370
   -1
100
AcDbLine
 10
222.5873792603587
 20
90.36219029492659
 11
222.4523792603587
 21
90.57429029492658
  0
LINE
  5
3CF
100
AcDbEntity
  8
0
  6
ByLayer
 62
  256
370
   -1
100
AcDbLine
 10
222.4523792603587
 20
90.57429029492658
 11
222.3453792603586
 21
90.80149029492659
  0
LINE
  5
3D0
100
AcDbEntity
  8
0
  6
ByLayer
 62
  256
370
   -1
100
AcDbLine
 10
222.3453792603586
 20
90.80149029492659
 11
222.2683792603586
 21
91.0403902949266
  0
LINE
  5
3D1
100
AcDbEntity
  8
0
  6
ByLayer
 62
  256
370
   -1
100
AcDbLine
 10
222.2683792603586
 20
91.0403902949266
 11
222.2213792603586
 21
91.28709029492659
  0
LINE
  5
3D2
100
AcDbEntity
  8
0
  6
ByLayer
 62
  256
370
   -1
100
AcDbLine
 10
222.2213792603586
 20
91.28709029492659
 11
222.2053792603587
 21
91.53779029492659
  0
LINE
  5
3D3
100
AcDbEntity
  8
0
  6
ByLayer
 62
  256
370
   -1
100
AcDbLine
 10
222.2053792603587
 20
91.53779029492659
 11
222.2213792603586
 21
91.78849029492659
  0
LINE
  5
3D4
100
AcDbEntity
  8
0
  6
ByLayer
 62
  256
370
   -1
100
AcDbLine
 10
222.2213792603586
 20
91.78849029492659
 11
222.2683792603586
 21
92.03519029492659
  0
LINE
  5
3D5
100
AcDbEntity
  8
0
  6
ByLayer
 62
  256
370
   -1
100
AcDbLine
 10
222.2683792603586
 20
92.03519029492659
 11
222.3453792603586
 21
92.27399029492659
  0
LINE
  5
3D6
100
AcDbEntity
  8
0
  6
ByLayer
 62
  256
370
   -1
100
AcDbLine
 10
222.3453792603586
 20
92.27399029492659
 11
222.4523792603587
 21
92.50129029492658
  0
LINE
  5
3D7
100
AcDbEntity
  8
0
  6
ByLayer
 62
  256
370
   -1
100
AcDbLine
 10
222.4523792603587
 20
92.50129029492658
 11
222.5873792603587
 21
92.7133902949266
  0
LINE
  5
3D8
100
AcDbEntity
  8
0
  6
ByLayer
 62
  256
370
   -1
100
AcDbLine
 10
222.5873792603587
 20
92.7133902949266
 11
222.7473792603586
 21
92.9068902949266
  0
LINE
  5
3D9
100
AcDbEntity
  8
0
  6
ByLayer
 62
  256
370
   -1
100
AcDbLine
 10
222.7473792603586
 20
92.9068902949266
 11
222.9303792603586
 21
93.07879029492659
  0
LINE
  5
3DA
100
AcDbEntity
  8
0
  6
ByLayer
 62
  256
370
   -1
100
AcDbLine
 10
222.9303792603586
 20
93.07879029492659
 11
223.1333792603587
 21
93.22649029492658
  0
LINE
  5
3DB
100
AcDbEntity
  8
0
  6
ByLayer
 62
  256
370
   -1
100
AcDbLine
 10
223.1333792603587
 20
93.22649029492658
 11
223.3533792603586
 21
93.34749029492659
  0
LINE
  5
3DC
100
AcDbEntity
  8
0
  6
ByLayer
 62
  256
370
   -1
100
AcDbLine
 10
223.3533792603586
 20
93.34749029492659
 11
223.5873792603587
 21
93.43989029492658
  0
LINE
  5
3DD
100
AcDbEntity
  8
0
  6
ByLayer
 62
  256
370
   -1
100
AcDbLine
 10
223.5873792603587
 20
93.43989029492658
 11
223.8303792603587
 21
93.50239029492658
  0
LINE
  5
3DE
100
AcDbEntity
  8
0
  6
ByLayer
 62
  256
370
   -1
100
AcDbLine
 10
223.8303792603587
 20
93.50239029492658
 11
224.0793792603586
 21
93.53379029492659
  0
LINE
  5
3DF
100
AcDbEntity
  8
0
  6
ByLayer
 62
  256
370
   -1
100
AcDbLine
 10
224.0793792603586
 20
93.53379029492659
 11
224.3313792603586
 21
93.53379029492659
  0
LINE
  5
3E0
100
AcDbEntity
  8
0
  6
ByLayer
 62
  256
370
   -1
100
AcDbLine
 10
224.3313792603586
 20
93.53379029492659
 11
224.5803792603587
 21
93.50239029492658
  0
LINE
  5
3E1
100
AcDbEntity
  8
0
  6
ByLayer
 62
  256
370
   -1
100
AcDbLine
 10
224.5803792603587
 20
93.50239029492658
 11
224.8233792603586
 21
93.43989029492658
  0
LINE
  5
3E2
100
AcDbEntity
  8
0
  6
ByLayer
 62
  256
370
   -1
100
AcDbLine
 10
224.8233792603586
 20
93.43989029492658
 11
225.0573792603586
 21
93.34749029492659
  0
LINE
  5
3E3
100
AcDbEntity
  8
0
  6
ByLayer
 62
  256
370
   -1
100
AcDbLine
 10
225.0573792603586
 20
93.34749029492659
 11
225.2773792603587
 21
93.22649029492658
  0
LINE
  5
3E4
100
AcDbEntity
  8
0
  6
ByLayer
 62
  256
370
   -1
100
AcDbLine
 10
225.2773792603587
 20
93.22649029492658
 11
225.4803792603586
 21
93.07879029492659
  0
LINE
  5
3E5
100
AcDbEntity
  8
0
  6
ByLayer
 62
  256
370
   -1
100
AcDbLine
 10
225.4803792603586
 20
93.07879029492659
 11
225.6633792603586
 21
92.9068902949266
  0
LINE
  5
3E6
100
AcDbEntity
  8
0
  6
ByLayer
 62
  256
370
   -1
100
AcDbLine
 10
225.6633792603586
 20
92.9068902949266
 11
225.8233792603586
 21
92.7133902949266
  0
LINE
  5
3E7
100
AcDbEntity
  8
0
  6
ByLayer
 62
  256
370
   -1
100
AcDbLine
 10
225.8233792603586
 20
92.7133902949266
 11
225.9583792603586
 21
92.50129029492658
  0
LINE
  5
3E8
100
AcDbEntity
  8
0
  6
ByLayer
 62
  256
370
   -1
100
AcDbLine
 10
225.9583792603586
 20
92.50129029492658
 11
226.0653792603587
 21
92.27399029492659
  0
LINE
  5
3E9
100
AcDbEntity
  8
0
  6
ByLayer
 62
  256
370
   -1
100
AcDbLine
 10
226.0653792603587
 20
92.27399029492659
 11
226.1423792603587
 21
92.03519029492659
  0
LINE
  5
3EA
100
AcDbEntity
  8
0
  6
ByLayer
 62
  256
370
   -1
100
AcDbLine
 10
226.1423792603587
 20
92.03519029492659
 11
226.1893792603586
 21
91.78849029492659
  0
LINE
  5
3EB
100
AcDbEntity
  8
0
  6
ByLayer
 62
  256
370
   -1
100
AcDbLine
 10
226.1893792603586
 20
91.78849029492659
 11
226.2053792603587
 21
91.53779029492659
  0
LINE
  5
3EC
100
AcDbEntity
  8
0
  6
ByLayer
 62
  256
370
   -1
100
AcDbLine
 10
226.2053792603587
 20
91.53779029492659
 11
226.1893792603586
 21
91.28709029492659
  0
LINE
  5
3ED
100
AcDbEntity
  8
0
  6
ByLayer
 62
  256
370
   -1
100
AcDbLine
 10
226.1893792603586
 20
91.28709029492659
 11
226.1423792603587
 21
91.0403902949266
  0
LINE
  5
3EE
100
AcDbEntity
  8
0
  6
ByLayer
 62
  256
370
   -1
100
AcDbLine
 10
226.1423792603587
 20
91.0403902949266
 11
226.0653792603587
 21
90.80149029492659
  0
LINE
  5
3EF
100
AcDbEntity
  8
0
  6
ByLayer
 62
  256
370
   -1
100
AcDbLine
 10
226.0653792603587
 20
90.80149029492659
 11
225.9583792603586
 21
90.57429029492658
  0
LINE
  5
3F0
100
AcDbEntity
  8
0
  6
ByLayer
 62
  256
370
   -1
100
AcDbLine
 10
225.9583792603586
 20
90.57429029492658
 11
225.8233792603586
 21
90.36219029492659
  0
LINE
  5
3F1
100
AcDbEntity
  8
0
  6
ByLayer
 62
  256
370
   -1
100
AcDbLine
 10
225.8233792603586
 20
90.36219029492659
 11
225.6633792603586
 21
90.16869029492659
  0
LINE
  5
3F2
100
AcDbEntity
  8
0
  6
ByLayer
 62
  256
370
   -1
100
AcDbLine
 10
225.6633792603586
 20
90.16869029492659
 11
225.4803792603586
 21
89.9967902949266
  0
LINE
  5
3F3
100
AcDbEntity
  8
0
  6
ByLayer
 62
  256
370
   -1
100
AcDbLine
 10
225.4803792603586
 20
89.9967902949266
 11
225.2773792603587
 21
89.84909029492658
  0
LINE
  5
3F4
100
AcDbEntity
  8
0
  6
ByLayer
 62
  256
370
   -1
100
AcDbLine
 10
225.2773792603587
 20
89.84909029492658
 11
225.0573792603586
 21
89.72809029492659
  0
LINE
  5
3F5
100
AcDbEntity
  8
0
  6
ByLayer
 62
  256
370
   -1
100
AcDbLine
 10
225.0573792603586
 20
89.72809029492659
 11
224.8233792603586
 21
89.63569029492659
  0
LINE
  5
3F6
100
AcDbEntity
  8
0
  6
ByLayer
 62
  256
370
   -1
100
AcDbLine
 10
224.8233792603586
 20
89.63569029492659
 11
224.5803792603587
 21
89.57319029492659
  0
LINE
  5
3F7
100
AcDbEntity
  8
0
  6
ByLayer
 62
  256
370
   -1
100
AcDbLine
 10
224.5803792603587
 20
89.57319029492659
 11
224.3313792603586
 21
89.54169029492658
  0
LINE
  5
3F8
100
AcDbEntity
  8
0
  6
ByLayer
 62
  256
370
   -1
100
AcDbLine
 10
224.3313792603586
 20
89.54169029492658
 11
224.0793792603586
 21
89.54169029492658
  0
LINE
  5
3F9
100
AcDbEntity
  8
0
  6
ByLayer
 62
  256
370
   -1
100
AcDbLine
 10
290.1793792603586
 20
86.23169029492658
 11
289.9303792603586
 21
86.26319029492659
  0
LINE
  5
3FA
100
AcDbEntity
  8
0
  6
ByLayer
 62
  256
370
   -1
100
AcDbLine
 10
289.9303792603586
 20
86.26319029492659
 11
289.6873792603586
 21
86.32569029492659
  0
LINE
  5
3FB
100
AcDbEntity
  8
0
  6
ByLayer
 62
  256
370
   -1
100
AcDbLine
 10
289.6873792603586
 20
86.32569029492659
 11
289.4533792603586
 21
86.41809029492659
  0
LINE
  5
3FC
100
AcDbEntity
  8
0
  6
ByLayer
 62
  256
370
   -1
100
AcDbLine
 10
289.4533792603586
 20
86.41809029492659
 11
289.2333792603586
 21
86.53909029492658
  0
LINE
  5
3FD
100
AcDbEntity
  8
0
  6
ByLayer
 62
  256
370
   -1
100
AcDbLine
 10
289.2333792603586
 20
86.53909029492658
 11
289.0303792603586
 21
86.6867902949266
  0
LINE
  5
3FE
100
AcDbEntity
  8
0
  6
ByLayer
 62
  256
370
   -1
100
AcDbLine
 10
289.0303792603586
 20
86.6867902949266
 11
288.8473792603587
 21
86.85869029492659
  0
LINE
  5
3FF
100
AcDbEntity
  8
0
  6
ByLayer
 62
  256
370
   -1
100
AcDbLine
 10
288.8473792603587
 20
86.85869029492659
 11
288.6873792603586
 21
87.05219029492659
  0
LINE
  5
400
100
AcDbEntity
  8
0
  6
ByLayer
 62
  256
370
   -1
100
AcDbLine
 10
288.6873792603586
 20
87.05219029492659
 11
288.5523792603586
 21
87.26429029492658
  0
LINE
  5
401
100
AcDbEntity
  8
0
  6
ByLayer
 62
  256
370
   -1
100
AcDbLine
 10
288.5523792603586
 20
87.26429029492658
 11
288.4453792603587
 21
87.49149029492659
  0
LINE
  5
402
100
AcDbEntity
  8
0
  6
ByLayer
 62
  256
370
   -1
100
AcDbLine
 10
288.4453792603587
 20
87.49149029492659
 11
288.3683792603587
 21
87.73039029492659
  0
LINE
  5
403
100
AcDbEntity
  8
0
  6
ByLayer
 62
  256
370
   -1
100
AcDbLine
 10
288.3683792603587
 20
87.73039029492659
 11
288.3213792603586
 21
87.9770902949266
  0
LINE
  5
404
100
AcDbEntity
  8
0
  6
ByLayer
 62
  256
370
   -1
100
AcDbLine
 10
288.3213792603586
 20
87.9770902949266
 11
288.3053792603586
 21
88.22779029492659
  0
LINE
  5
405
100
AcDbEntity
  8
0
  6
ByLayer
 62
  256
370
   -1
100
AcDbLine
 10
288.3053792603586
 20
88.22779029492659
 11
288.3213792603586
 21
88.47849029492659
  0
LINE
  5
406
100
AcDbEntity
  8
0
  6
ByLayer
 62
  256
370
   -1
100
AcDbLine
 10
288.3213792603586
 20
88.47849029492659
 11
288.3683792603587
 21
88.72519029492659
  0
LINE
  5
407
100
AcDbEntity
  8
0
  6
ByLayer
 62
  256
370
   -1
100
AcDbLine
 10
288.3683792603587
 20
88.72519029492659
 11
288.4453792603587
 21
88.96399029492659
  0
LINE
  5
408
100
AcDbEntity
  8
0
  6
ByLayer
 62
  256
370
   -1
100
AcDbLine
 10
288.4453792603587
 20
88.96399029492659
 11
288.5523792603586
 21
89.19129029492659
  0
LINE
  5
409
100
AcDbEntity
  8
0
  6
ByLayer
 62
  256
370
   -1
100
AcDbLine
 10
288.5523792603586
 20
89.19129029492659
 11
288.6873792603586
 21
89.4033902949266
  0
LINE
  5
40A
100
AcDbEntity
  8
0
  6
ByLayer
 62
  256
370
   -1
100
AcDbLine
 10
288.6873792603586
 20
89.4033902949266
 11
288.8473792603587
 21
89.5968902949266
  0
LINE
  5
40B
100
AcDbEntity
  8
0
  6
ByLayer
 62
  256
370
   -1
100
AcDbLine
 10
288.8473792603587
 20
89.5968902949266
 11
289.0303792603586
 21
89.76879029492659
  0
LINE
  5
40C
100
AcDbEntity
  8
0
  6
ByLayer
 62
  256
370
   -1
100
AcDbLine
 10
289.0303792603586
 20
89.76879029492659
 11
289.2333792603586
 21
89.91649029492659
  0
LINE
  5
40D
100
AcDbEntity
  8
0
  6
ByLayer
 62
  256
370
   -1
100
AcDbLine
 10
289.2333792603586
 20
89.91649029492659
 11
289.4533792603586
 21
90.03739029492658
  0
LINE
  5
40E
100
AcDbEntity
  8
0
  6
ByLayer
 62
  256
370
   -1
100
AcDbLine
 10
289.4533792603586
 20
90.03739029492658
 11
289.6873792603586
 21
90.12989029492658
  0
LINE
  5
40F
100
AcDbEntity
  8
0
  6
ByLayer
 62
  256
370
   -1
100
AcDbLine
 10
289.6873792603586
 20
90.12989029492658
 11
289.9303792603586
 21
90.19239029492658
  0
LINE
  5
410
100
AcDbEntity
  8
0
  6
ByLayer
 62
  256
370
   -1
100
AcDbLine
 10
289.9303792603586
 20
90.19239029492658
 11
290.1793792603586
 21
90.22379029492659
  0
LINE
  5
411
100
AcDbEntity
  8
0
  6
ByLayer
 62
  256
370
   -1
100
AcDbLine
 10
290.1793792603586
 20
90.22379029492659
 11
290.4313792603587
 21
90.22379029492659
  0
LINE
  5
412
100
AcDbEntity
  8
0
  6
ByLayer
 62
  256
370
   -1
100
AcDbLine
 10
290.4313792603587
 20
90.22379029492659
 11
290.6803792603586
 21
90.19239029492658
  0
LINE
  5
413
100
AcDbEntity
  8
0
  6
ByLayer
 62
  256
370
   -1
100
AcDbLine
 10
290.6803792603586
 20
90.19239029492658
 11
290.9233792603587
 21
90.12989029492658
  0
LINE
  5
414
100
AcDbEntity
  8
0
  6
ByLayer
 62
  256
370
   -1
100
AcDbLine
 10
290.9233792603587
 20
90.12989029492658
 11
291.1573792603587
 21
90.03739029492658
  0
LINE
  5
415
100
AcDbEntity
  8
0
  6
ByLayer
 62
  256
370
   -1
100
AcDbLine
 10
291.1573792603587
 20
90.03739029492658
 11
291.3773792603586
 21
89.91649029492659
  0
LINE
  5
416
100
AcDbEntity
  8
0
  6
ByLayer
 62
  256
370
   -1
100
AcDbLine
 10
291.3773792603586
 20
89.91649029492659
 11
291.5803792603587
 21
89.76879029492659
  0
LINE
  5
417
100
AcDbEntity
  8
0
  6
ByLayer
 62
  256
370
   -1
100
AcDbLine
 10
291.5803792603587
 20
89.76879029492659
 11
291.7633792603586
 21
89.5968902949266
  0
LINE
  5
418
100
AcDbEntity
  8
0
  6
ByLayer
 62
  256
370
   -1
100
AcDbLine
 10
291.7633792603586
 20
89.5968902949266
 11
291.9233792603587
 21
89.4033902949266
  0
LINE
  5
419
100
AcDbEntity
  8
0
  6
ByLayer
 62
  256
370
   -1
100
AcDbLine
 10
291.9233792603587
 20
89.4033902949266
 11
292.0583792603587
 21
89.19129029492659
  0
LINE
  5
41A
100
AcDbEntity
  8
0
  6
ByLayer
 62
  256
370
   -1
100
AcDbLine
 10
292.0583792603587
 20
89.19129029492659
 11
292.1653792603586
 21
88.96399029492659
  0
LINE
  5
41B
100
AcDbEntity
  8
0
  6
ByLayer
 62
  256
370
   -1
100
AcDbLine
 10
292.1653792603586
 20
88.96399029492659
 11
292.2423792603586
 21
88.72519029492659
  0
LINE
  5
41C
100
AcDbEntity
  8
0
  6
ByLayer
 62
  256
370
   -1
100
AcDbLine
 10
292.2423792603586
 20
88.72519029492659
 11
292.2893792603587
 21
88.47849029492659
  0
LINE
  5
41D
100
AcDbEntity
  8
0
  6
ByLayer
 62
  256
370
   -1
100
AcDbLine
 10
292.2893792603587
 20
88.47849029492659
 11
292.3053792603586
 21
88.22779029492659
  0
LINE
  5
41E
100
AcDbEntity
  8
0
  6
ByLayer
 62
  256
370
   -1
100
AcDbLine
 10
292.3053792603586
 20
88.22779029492659
 11
292.2893792603587
 21
87.9770902949266
  0
LINE
  5
41F
100
AcDbEntity
  8
0
  6
ByLayer
 62
  256
370
   -1
100
AcDbLine
 10
292.2893792603587
 20
87.9770902949266
 11
292.2423792603586
 21
87.73039029492659
  0
LINE
  5
420
100
AcDbEntity
  8
0
  6
ByLayer
 62
  256
370
   -1
100
AcDbLine
 10
292.2423792603586
 20
87.73039029492659
 11
292.1653792603586
 21
87.49149029492659
  0
LINE
  5
421
100
AcDbEntity
  8
0
  6
ByLayer
 62
  256
370
   -1
100
AcDbLine
 10
292.1653792603586
 20
87.49149029492659
 11
292.0583792603587
 21
87.26429029492658
  0
LINE
  5
422
100
AcDbEntity
  8
0
  6
ByLayer
 62
  256
370
   -1
100
AcDbLine
 10
292.0583792603587
 20
87.26429029492658
 11
291.9233792603587
 21
87.05219029492659
  0
LINE
  5
423
100
AcDbEntity
  8
0
  6
ByLayer
 62
  256
370
   -1
100
AcDbLine
 10
291.9233792603587
 20
87.05219029492659
 11
291.7633792603586
 21
86.85869029492659
  0
LINE
  5
424
100
AcDbEntity
  8
0
  6
ByLayer
 62
  256
370
   -1
100
AcDbLine
 10
291.7633792603586
 20
86.85869029492659
 11
291.5803792603587
 21
86.6867902949266
  0
LINE
  5
425
100
AcDbEntity
  8
0
  6
ByLayer
 62
  256
370
   -1
100
AcDbLine
 10
291.5803792603587
 20
86.6867902949266
 11
291.3773792603586
 21
86.53909029492658
  0
LINE
  5
426
100
AcDbEntity
  8
0
  6
ByLayer
 62
  256
370
   -1
100
AcDbLine
 10
291.3773792603586
 20
86.53909029492658
 11
291.1573792603587
 21
86.41809029492659
  0
LINE
  5
427
100
AcDbEntity
  8
0
  6
ByLayer
 62
  256
370
   -1
100
AcDbLine
 10
291.1573792603587
 20
86.41809029492659
 11
290.9233792603587
 21
86.32569029492659
  0
LINE
  5
428
100
AcDbEntity
  8
0
  6
ByLayer
 62
  256
370
   -1
100
AcDbLine
 10
290.9233792603587
 20
86.32569029492659
 11
290.6803792603586
 21
86.26319029492659
  0
LINE
  5
429
100
AcDbEntity
  8
0
  6
ByLayer
 62
  256
370
   -1
100
AcDbLine
 10
290.6803792603586
 20
86.26319029492659
 11
290.4313792603587
 21
86.23169029492658
  0
LINE
  5
42A
100
AcDbEntity
  8
0
  6
ByLayer
 62
  256
370
   -1
100
AcDbLine
 10
290.4313792603587
 20
86.23169029492658
 11
290.1793792603586
 21
86.23169029492658
  0
LINE
  5
42B
100
AcDbEntity
  8
0
  6
ByLayer
 62
  256
370
   -1
100
AcDbLine
 10
290.1793792603586
 20
44.32173029492659
 11
289.9303792603586
 21
44.35321029492658
  0
LINE
  5
42C
100
AcDbEntity
  8
0
  6
ByLayer
 62
  256
370
   -1
100
AcDbLine
 10
289.9303792603586
 20
44.35321029492658
 11
289.6873792603586
 21
44.41567029492658
  0
LINE
  5
42D
100
AcDbEntity
  8
0
  6
ByLayer
 62
  256
370
   -1
100
AcDbLine
 10
289.6873792603586
 20
44.41567029492658
 11
289.4533792603586
 21
44.50813029492659
  0
LINE
  5
42E
100
AcDbEntity
  8
0
  6
ByLayer
 62
  256
370
   -1
100
AcDbLine
 10
289.4533792603586
 20
44.50813029492659
 11
289.2333792603586
 21
44.62912029492659
  0
LINE
  5
42F
100
AcDbEntity
  8
0
  6
ByLayer
 62
  256
370
   -1
100
AcDbLine
 10
289.2333792603586
 20
44.62912029492659
 11
289.0303792603586
 21
44.77675029492659
  0
LINE
  5
430
100
AcDbEntity
  8
0
  6
ByLayer
 62
  256
370
   -1
100
AcDbLine
 10
289.0303792603586
 20
44.77675029492659
 11
288.8473792603587
 21
44.94869029492659
  0
LINE
  5
431
100
AcDbEntity
  8
0
  6
ByLayer
 62
  256
370
   -1
100
AcDbLine
 10
288.8473792603587
 20
44.94869029492659
 11
288.6873792603586
 21
45.14221029492658
  0
LINE
  5
432
100
AcDbEntity
  8
0
  6
ByLayer
 62
  256
370
   -1
100
AcDbLine
 10
288.6873792603586
 20
45.14221029492658
 11
288.5523792603586
 21
45.35428029492659
  0
LINE
  5
433
100
AcDbEntity
  8
0
  6
ByLayer
 62
  256
370
   -1
100
AcDbLine
 10
288.5523792603586
 20
45.35428029492659
 11
288.4453792603587
 21
45.58153029492659
  0
LINE
  5
434
100
AcDbEntity
  8
0
  6
ByLayer
 62
  256
370
   -1
100
AcDbLine
 10
288.4453792603587
 20
45.58153029492659
 11
288.3683792603587
 21
45.82041029492659
  0
LINE
  5
435
100
AcDbEntity
  8
0
  6
ByLayer
 62
  256
370
   -1
100
AcDbLine
 10
288.3683792603587
 20
45.82041029492659
 11
288.3213792603586
 21
46.06709029492659
  0
LINE
  5
436
100
AcDbEntity
  8
0
  6
ByLayer
 62
  256
370
   -1
100
AcDbLine
 10
288.3213792603586
 20
46.06709029492659
 11
288.3053792603586
 21
46.31779029492659
  0
LINE
  5
437
100
AcDbEntity
  8
0
  6
ByLayer
 62
  256
370
   -1
100
AcDbLine
 10
288.3053792603586
 20
46.31779029492659
 11
288.3213792603586
 21
46.56849029492659
  0
LINE
  5
438
100
AcDbEntity
  8
0
  6
ByLayer
 62
  256
370
   -1
100
AcDbLine
 10
288.3213792603586
 20
46.56849029492659
 11
288.3683792603587
 21
46.81519029492659
  0
LINE
  5
439
100
AcDbEntity
  8
0
  6
ByLayer
 62
  256
370
   -1
100
AcDbLine
 10
288.3683792603587
 20
46.81519029492659
 11
288.4453792603587
 21
47.05399029492659
  0
LINE
  5
43A
100
AcDbEntity
  8
0
  6
ByLayer
 62
  256
370
   -1
100
AcDbLine
 10
288.4453792603587
 20
47.05399029492659
 11
288.5523792603586
 21
47.28129029492658
  0
LINE
  5
43B
100
AcDbEntity
  8
0
  6
ByLayer
 62
  256
370
   -1
100
AcDbLine
 10
288.5523792603586
 20
47.28129029492658
 11
288.6873792603586
 21
47.49339029492658
  0
LINE
  5
43C
100
AcDbEntity
  8
0
  6
ByLayer
 62
  256
370
   -1
100
AcDbLine
 10
288.6873792603586
 20
47.49339029492658
 11
288.8473792603587
 21
47.68689029492658
  0
LINE
  5
43D
100
AcDbEntity
  8
0
  6
ByLayer
 62
  256
370
   -1
100
AcDbLine
 10
288.8473792603587
 20
47.68689029492658
 11
289.0303792603586
 21
47.85879029492659
  0
LINE
  5
43E
100
AcDbEntity
  8
0
  6
ByLayer
 62
  256
370
   -1
100
AcDbLine
 10
289.0303792603586
 20
47.85879029492659
 11
289.2333792603586
 21
48.00649029492659
  0
LINE
  5
43F
100
AcDbEntity
  8
0
  6
ByLayer
 62
  256
370
   -1
100
AcDbLine
 10
289.2333792603586
 20
48.00649029492659
 11
289.4533792603586
 21
48.12749029492659
  0
LINE
  5
440
100
AcDbEntity
  8
0
  6
ByLayer
 62
  256
370
   -1
100
AcDbLine
 10
289.4533792603586
 20
48.12749029492659
 11
289.6873792603586
 21
48.21989029492659
  0
LINE
  5
441
100
AcDbEntity
  8
0
  6
ByLayer
 62
  256
370
   -1
100
AcDbLine
 10
289.6873792603586
 20
48.21989029492659
 11
289.9303792603586
 21
48.28239029492659
  0
LINE
  5
442
100
AcDbEntity
  8
0
  6
ByLayer
 62
  256
370
   -1
100
AcDbLine
 10
289.9303792603586
 20
48.28239029492659
 11
290.1793792603586
 21
48.31379029492659
  0
LINE
  5
443
100
AcDbEntity
  8
0
  6
ByLayer
 62
  256
370
   -1
100
AcDbLine
 10
290.1793792603586
 20
48.31379029492659
 11
290.4313792603587
 21
48.31379029492659
  0
LINE
  5
444
100
AcDbEntity
  8
0
  6
ByLayer
 62
  256
370
   -1
100
AcDbLine
 10
290.4313792603587
 20
48.31379029492659
 11
290.6803792603586
 21
48.28239029492659
  0
LINE
  5
445
100
AcDbEntity
  8
0
  6
ByLayer
 62
  256
370
   -1
100
AcDbLine
 10
290.6803792603586
 20
48.28239029492659
 11
290.9233792603587
 21
48.21989029492659
  0
LINE
  5
446
100
AcDbEntity
  8
0
  6
ByLayer
 62
  256
370
   -1
100
AcDbLine
 10
290.9233792603587
 20
48.21989029492659
 11
291.1573792603587
 21
48.12749029492659
  0
LINE
  5
447
100
AcDbEntity
  8
0
  6
ByLayer
 62
  256
370
   -1
100
AcDbLine
 10
291.1573792603587
 20
48.12749029492659
 11
291.3773792603586
 21
48.00649029492659
  0
LINE
  5
448
100
AcDbEntity
  8
0
  6
ByLayer
 62
  256
370
   -1
100
AcDbLine
 10
291.3773792603586
 20
48.00649029492659
 11
291.5803792603587
 21
47.85879029492659
  0
LINE
  5
449
100
AcDbEntity
  8
0
  6
ByLayer
 62
  256
370
   -1
100
AcDbLine
 10
291.5803792603587
 20
47.85879029492659
 11
291.7633792603586
 21
47.68689029492658
  0
LINE
  5
44A
100
AcDbEntity
  8
0
  6
ByLayer
 62
  256
370
   -1
100
AcDbLine
 10
291.7633792603586
 20
47.68689029492658
 11
291.9233792603587
 21
47.49339029492658
  0
LINE
  5
44B
100
AcDbEntity
  8
0
  6
ByLayer
 62
  256
370
   -1
100
AcDbLine
 10
291.9233792603587
 20
47.49339029492658
 11
292.0583792603587
 21
47.28129029492658
  0
LINE
  5
44C
100
AcDbEntity
  8
0
  6
ByLayer
 62
  256
370
   -1
100
AcDbLine
 10
292.0583792603587
 20
47.28129029492658
 11
292.1653792603586
 21
47.05399029492659
  0
LINE
  5
44D
100
AcDbEntity
  8
0
  6
ByLayer
 62
  256
370
   -1
100
AcDbLine
 10
292.1653792603586
 20
47.05399029492659
 11
292.2423792603586
 21
46.81519029492659
  0
LINE
  5
44E
100
AcDbEntity
  8
0
  6
ByLayer
 62
  256
370
   -1
100
AcDbLine
 10
292.2423792603586
 20
46.81519029492659
 11
292.2893792603587
 21
46.56849029492659
  0
LINE
  5
44F
100
AcDbEntity
  8
0
  6
ByLayer
 62
  256
370
   -1
100
AcDbLine
 10
292.2893792603587
 20
46.56849029492659
 11
292.3053792603586
 21
46.31779029492659
  0
LINE
  5
450
100
AcDbEntity
  8
0
  6
ByLayer
 62
  256
370
   -1
100
AcDbLine
 10
292.3053792603586
 20
46.31779029492659
 11
292.2893792603587
 21
46.06709029492659
  0
LINE
  5
451
100
AcDbEntity
  8
0
  6
ByLayer
 62
  256
370
   -1
100
AcDbLine
 10
292.2893792603587
 20
46.06709029492659
 11
292.2423792603586
 21
45.82041029492659
  0
LINE
  5
452
100
AcDbEntity
  8
0
  6
ByLayer
 62
  256
370
   -1
100
AcDbLine
 10
292.2423792603586
 20
45.82041029492659
 11
292.1653792603586
 21
45.58153029492659
  0
LINE
  5
453
100
AcDbEntity
  8
0
  6
ByLayer
 62
  256
370
   -1
100
AcDbLine
 10
292.1653792603586
 20
45.58153029492659
 11
292.0583792603587
 21
45.35428029492659
  0
LINE
  5
454
100
AcDbEntity
  8
0
  6
ByLayer
 62
  256
370
   -1
100
AcDbLine
 10
292.0583792603587
 20
45.35428029492659
 11
291.9233792603587
 21
45.14221029492658
  0
LINE
  5
455
100
AcDbEntity
  8
0
  6
ByLayer
 62
  256
370
   -1
100
AcDbLine
 10
291.9233792603587
 20
45.14221029492658
 11
291.7633792603586
 21
44.94869029492659
  0
LINE
  5
456
100
AcDbEntity
  8
0
  6
ByLayer
 62
  256
370
   -1
100
AcDbLine
 10
291.7633792603586
 20
44.94869029492659
 11
291.5803792603587
 21
44.77675029492659
  0
LINE
  5
457
100
AcDbEntity
  8
0
  6
ByLayer
 62
  256
370
   -1
100
AcDbLine
 10
291.5803792603587
 20
44.77675029492659
 11
291.3773792603586
 21
44.62912029492659
  0
LINE
  5
458
100
AcDbEntity
  8
0
  6
ByLayer
 62
  256
370
   -1
100
AcDbLine
 10
291.3773792603586
 20
44.62912029492659
 11
291.1573792603587
 21
44.50813029492659
  0
LINE
  5
459
100
AcDbEntity
  8
0
  6
ByLayer
 62
  256
370
   -1
100
AcDbLine
 10
291.1573792603587
 20
44.50813029492659
 11
290.9233792603587
 21
44.41567029492658
  0
LINE
  5
45A
100
AcDbEntity
  8
0
  6
ByLayer
 62
  256
370
   -1
100
AcDbLine
 10
290.9233792603587
 20
44.41567029492658
 11
290.6803792603586
 21
44.35321029492658
  0
LINE
  5
45B
100
AcDbEntity
  8
0
  6
ByLayer
 62
  256
370
   -1
100
AcDbLine
 10
290.6803792603586
 20
44.35321029492658
 11
290.4313792603587
 21
44.32173029492659
  0
LINE
  5
45C
100
AcDbEntity
  8
0
  6
ByLayer
 62
  256
370
   -1
100
AcDbLine
 10
290.4313792603587
 20
44.32173029492659
 11
290.1793792603586
 21
44.32173029492659
  0
LINE
  5
45D
100
AcDbEntity
  8
0
  6
ByLayer
 62
  256
370
   -1
100
AcDbLine
 10
224.0793792603586
 20
41.15173029492659
 11
223.8303792603587
 21
41.18321029492659
  0
LINE
  5
45E
100
AcDbEntity
  8
0
  6
ByLayer
 62
  256
370
   -1
100
AcDbLine
 10
223.8303792603587
 20
41.18321029492659
 11
223.5873792603587
 21
41.24567029492658
  0
LINE
  5
45F
100
AcDbEntity
  8
0
  6
ByLayer
 62
  256
370
   -1
100
AcDbLine
 10
223.5873792603587
 20
41.24567029492658
 11
223.3533792603586
 21
41.33814029492659
  0
LINE
  5
460
100
AcDbEntity
  8
0
  6
ByLayer
 62
  256
370
   -1
100
AcDbLine
 10
223.3533792603586
 20
41.33814029492659
 11
223.1333792603587
 21
41.45912029492658
  0
LINE
  5
461
100
AcDbEntity
  8
0
  6
ByLayer
 62
  256
370
   -1
100
AcDbLine
 10
223.1333792603587
 20
41.45912029492658
 11
222.9303792603586
 21
41.60675029492658
  0
LINE
  5
462
100
AcDbEntity
  8
0
  6
ByLayer
 62
  256
370
   -1
100
AcDbLine
 10
222.9303792603586
 20
41.60675029492658
 11
222.7473792603586
 21
41.77869029492659
  0
LINE
  5
463
100
AcDbEntity
  8
0
  6
ByLayer
 62
  256
370
   -1
100
AcDbLine
 10
222.7473792603586
 20
41.77869029492659
 11
222.5873792603587
 21
41.97222029492659
  0
LINE
  5
464
100
AcDbEntity
  8
0
  6
ByLayer
 62
  256
370
   -1
100
AcDbLine
 10
222.5873792603587
 20
41.97222029492659
 11
222.4523792603587
 21
42.18428029492659
  0
LINE
  5
465
100
AcDbEntity
  8
0
  6
ByLayer
 62
  256
370
   -1
100
AcDbLine
 10
222.4523792603587
 20
42.18428029492659
 11
222.3453792603586
 21
42.41153029492659
  0
LINE
  5
466
100
AcDbEntity
  8
0
  6
ByLayer
 62
  256
370
   -1
100
AcDbLine
 10
222.3453792603586
 20
42.41153029492659
 11
222.2683792603586
 21
42.65041029492659
  0
LINE
  5
467
100
AcDbEntity
  8
0
  6
ByLayer
 62
  256
370
   -1
100
AcDbLine
 10
222.2683792603586
 20
42.65041029492659
 11
222.2213792603586
 21
42.89711029492658
  0
LINE
  5
468
100
AcDbEntity
  8
0
  6
ByLayer
 62
  256
370
   -1
100
AcDbLine
 10
222.2213792603586
 20
42.89711029492658
 11
222.2053792603587
 21
43.14778029492659
  0
LINE
  5
469
100
AcDbEntity
  8
0
  6
ByLayer
 62
  256
370
   -1
100
AcDbLine
 10
222.2053792603587
 20
43.14778029492659
 11
222.2213792603586
 21
43.39845029492659
  0
LINE
  5
46A
100
AcDbEntity
  8
0
  6
ByLayer
 62
  256
370
   -1
100
AcDbLine
 10
222.2213792603586
 20
43.39845029492659
 11
222.2683792603586
 21
43.64516029492658
  0
LINE
  5
46B
100
AcDbEntity
  8
0
  6
ByLayer
 62
  256
370
   -1
100
AcDbLine
 10
222.2683792603586
 20
43.64516029492658
 11
222.3453792603586
 21
43.88403029492659
  0
LINE
  5
46C
100
AcDbEntity
  8
0
  6
ByLayer
 62
  256
370
   -1
100
AcDbLine
 10
222.3453792603586
 20
43.88403029492659
 11
222.4523792603587
 21
44.11128029492659
  0
LINE
  5
46D
100
AcDbEntity
  8
0
  6
ByLayer
 62
  256
370
   -1
100
AcDbLine
 10
222.4523792603587
 20
44.11128029492659
 11
222.5873792603587
 21
44.32335029492658
  0
LINE
  5
46E
100
AcDbEntity
  8
0
  6
ByLayer
 62
  256
370
   -1
100
AcDbLine
 10
222.5873792603587
 20
44.32335029492658
 11
222.7473792603586
 21
44.51688029492659
  0
LINE
  5
46F
100
AcDbEntity
  8
0
  6
ByLayer
 62
  256
370
   -1
100
AcDbLine
 10
222.7473792603586
 20
44.51688029492659
 11
222.9303792603586
 21
44.68881029492658
  0
LINE
  5
470
100
AcDbEntity
  8
0
  6
ByLayer
 62
  256
370
   -1
100
AcDbLine
 10
222.9303792603586
 20
44.68881029492658
 11
223.1333792603587
 21
44.83644029492659
  0
LINE
  5
471
100
AcDbEntity
  8
0
  6
ByLayer
 62
  256
370
   -1
100
AcDbLine
 10
223.1333792603587
 20
44.83644029492659
 11
223.3533792603586
 21
44.95743029492659
  0
LINE
  5
472
100
AcDbEntity
  8
0
  6
ByLayer
 62
  256
370
   -1
100
AcDbLine
 10
223.3533792603586
 20
44.95743029492659
 11
223.5873792603587
 21
45.04990029492659
  0
LINE
  5
473
100
AcDbEntity
  8
0
  6
ByLayer
 62
  256
370
   -1
100
AcDbLine
 10
223.5873792603587
 20
45.04990029492659
 11
223.8303792603587
 21
45.11235029492659
  0
LINE
  5
474
100
AcDbEntity
  8
0
  6
ByLayer
 62
  256
370
   -1
100
AcDbLine
 10
223.8303792603587
 20
45.11235029492659
 11
224.0793792603586
 21
45.14383029492659
  0
LINE
  5
475
100
AcDbEntity
  8
0
  6
ByLayer
 62
  256
370
   -1
100
AcDbLine
 10
224.0793792603586
 20
45.14383029492659
 11
224.3313792603586
 21
45.14383029492659
  0
LINE
  5
476
100
AcDbEntity
  8
0
  6
ByLayer
 62
  256
370
   -1
100
AcDbLine
 10
224.3313792603586
 20
45.14383029492659
 11
224.5803792603587
 21
45.11235029492659
  0
LINE
  5
477
100
AcDbEntity
  8
0
  6
ByLayer
 62
  256
370
   -1
100
AcDbLine
 10
224.5803792603587
 20
45.11235029492659
 11
224.8233792603586
 21
45.04990029492659
  0
LINE
  5
478
100
AcDbEntity
  8
0
  6
ByLayer
 62
  256
370
   -1
100
AcDbLine
 10
224.8233792603586
 20
45.04990029492659
 11
225.0573792603586
 21
44.95743029492659
  0
LINE
  5
479
100
AcDbEntity
  8
0
  6
ByLayer
 62
  256
370
   -1
100
AcDbLine
 10
225.0573792603586
 20
44.95743029492659
 11
225.2773792603587
 21
44.83644029492659
  0
LINE
  5
47A
100
AcDbEntity
  8
0
  6
ByLayer
 62
  256
370
   -1
100
AcDbLine
 10
225.2773792603587
 20
44.83644029492659
 11
225.4803792603586
 21
44.68881029492658
  0
LINE
  5
47B
100
AcDbEntity
  8
0
  6
ByLayer
 62
  256
370
   -1
100
AcDbLine
 10
225.4803792603586
 20
44.68881029492658
 11
225.6633792603586
 21
44.51688029492659
  0
LINE
  5
47C
100
AcDbEntity
  8
0
  6
ByLayer
 62
  256
370
   -1
100
AcDbLine
 10
225.6633792603586
 20
44.51688029492659
 11
225.8233792603586
 21
44.32335029492658
  0
LINE
  5
47D
100
AcDbEntity
  8
0
  6
ByLayer
 62
  256
370
   -1
100
AcDbLine
 10
225.8233792603586
 20
44.32335029492658
 11
225.9583792603586
 21
44.11128029492659
  0
LINE
  5
47E
100
AcDbEntity
  8
0
  6
ByLayer
 62
  256
370
   -1
100
AcDbLine
 10
225.9583792603586
 20
44.11128029492659
 11
226.0653792603587
 21
43.88403029492659
  0
LINE
  5
47F
100
AcDbEntity
  8
0
  6
ByLayer
 62
  256
370
   -1
100
AcDbLine
 10
226.0653792603587
 20
43.88403029492659
 11
226.1423792603587
 21
43.64516029492658
  0
LINE
  5
480
100
AcDbEntity
  8
0
  6
ByLayer
 62
  256
370
   -1
100
AcDbLine
 10
226.1423792603587
 20
43.64516029492658
 11
226.1893792603586
 21
43.39845029492659
  0
LINE
  5
481
100
AcDbEntity
  8
0
  6
ByLayer
 62
  256
370
   -1
100
AcDbLine
 10
226.1893792603586
 20
43.39845029492659
 11
226.2053792603587
 21
43.14778029492659
  0
LINE
  5
482
100
AcDbEntity
  8
0
  6
ByLayer
 62
  256
370
   -1
100
AcDbLine
 10
226.2053792603587
 20
43.14778029492659
 11
226.1893792603586
 21
42.89711029492658
  0
LINE
  5
483
100
AcDbEntity
  8
0
  6
ByLayer
 62
  256
370
   -1
100
AcDbLine
 10
226.1893792603586
 20
42.89711029492658
 11
226.1423792603587
 21
42.65041029492659
  0
LINE
  5
484
100
AcDbEntity
  8
0
  6
ByLayer
 62
  256
370
   -1
100
AcDbLine
 10
226.1423792603587
 20
42.65041029492659
 11
226.0653792603587
 21
42.41153029492659
  0
LINE
  5
485
100
AcDbEntity
  8
0
  6
ByLayer
 62
  256
370
   -1
100
AcDbLine
 10
226.0653792603587
 20
42.41153029492659
 11
225.9583792603586
 21
42.18428029492659
  0
LINE
  5
486
100
AcDbEntity
  8
0
  6
ByLayer
 62
  256
370
   -1
100
AcDbLine
 10
225.9583792603586
 20
42.18428029492659
 11
225.8233792603586
 21
41.97222029492659
  0
LINE
  5
487
100
AcDbEntity
  8
0
  6
ByLayer
 62
  256
370
   -1
100
AcDbLine
 10
225.8233792603586
 20
41.97222029492659
 11
225.6633792603586
 21
41.77869029492659
  0
LINE
  5
488
100
AcDbEntity
  8
0
  6
ByLayer
 62
  256
370
   -1
100
AcDbLine
 10
225.6633792603586
 20
41.77869029492659
 11
225.4803792603586
 21
41.60675029492658
  0
LINE
  5
489
100
AcDbEntity
  8
0
  6
ByLayer
 62
  256
370
   -1
100
AcDbLine
 10
225.4803792603586
 20
41.60675029492658
 11
225.2773792603587
 21
41.45912029492658
  0
LINE
  5
48A
100
AcDbEntity
  8
0
  6
ByLayer
 62
  256
370
   -1
100
AcDbLine
 10
225.2773792603587
 20
41.45912029492658
 11
225.0573792603586
 21
41.33814029492659
  0
LINE
  5
48B
100
AcDbEntity
  8
0
  6
ByLayer
 62
  256
370
   -1
100
AcDbLine
 10
225.0573792603586
 20
41.33814029492659
 11
224.8233792603586
 21
41.24567029492658
  0
LINE
  5
48C
100
AcDbEntity
  8
0
  6
ByLayer
 62
  256
370
   -1
100
AcDbLine
 10
224.8233792603586
 20
41.24567029492658
 11
224.5803792603587
 21
41.18321029492659
  0
LINE
  5
48D
100
AcDbEntity
  8
0
  6
ByLayer
 62
  256
370
   -1
100
AcDbLine
 10
224.5803792603587
 20
41.18321029492659
 11
224.3313792603586
 21
41.15173029492659
  0
LINE
  5
48E
100
AcDbEntity
  8
0
  6
ByLayer
 62
  256
370
   -1
100
AcDbLine
 10
224.3313792603586
 20
41.15173029492659
 11
224.0793792603586
 21
41.15173029492659
  0
ENDSEC
  0
SECTION
  2
OBJECTS
  0
DICTIONARY
  5
C
330
0
100
AcDbDictionary
281
    1
  3
ACAD_GROUP
350
D
  0
DICTIONARY
  5
D
330
C
100
AcDbDictionary
281
    1
  0
ENDSEC
  0
EOF
