  0
SECTION
  2
BLOCKS
  0
ENDSEC
  0
SECTION
  2
ENTITIES
  0
LINE
  8
0
 10
209.167
 20
-39.35
 11
212.25
 21
-39.35
  0
LINE
  8
0
 10
212.25
 20
-39.35
 11
212.25
 21
-42.35
  0
LINE
  8
0
 10
212.25
 20
-42.35
 11
215.333
 21
-42.35
  0
LINE
  8
0
 10
215.333
 20
-42.35
 11
215.333
 21
-39.35
  0
LINE
  8
0
 10
215.333
 20
-39.35
 11
218.417
 21
-39.35
  0
LINE
  8
0
 10
218.417
 20
-39.35
 11
218.417
 21
-42.35
  0
LINE
  8
0
 10
218.417
 20
-42.35
 11
221.5
 21
-42.35
  0
LINE
  8
0
 10
221.5
 20
-42.35
 11
221.5
 21
-26.2333
  0
LINE
  8
0
 10
221.5
 20
-26.2333
 11
224.5
 21
-26.2333
  0
LINE
  8
0
 10
224.5
 20
-26.2333
 11
224.5
 21
-13.1167
  0
LINE
  8
0
 10
224.5
 20
-13.1167
 11
221.5
 21
-13.1167
  0
LINE
  8
0
 10
221.5
 20
-13.1167
 11
221.5
 21
0
  0
LINE
  8
0
 10
221.5
 20
0
 11
224.5
 21
0
  0
LINE
  8
0
 10
224.5
 20
0
 11
224.5
 21
13.1167
  0
LINE
  8
0
 10
224.5
 20
13.1167
 11
221.5
 21
13.1167
  0
LINE
  8
0
 10
221.5
 20
13.1167
 11
221.5
 21
26.2333
  0
LINE
  8
0
 10
221.5
 20
26.2333
 11
224.5
 21
26.2333
  0
LINE
  8
0
 10
224.5
 20
26.2333
 11
224.5
 21
39.35
  0
LINE
  8
0
 10
224.5
 20
39.35
 11
218.417
 21
39.35
  0
LINE
  8
0
 10
218.417
 20
39.35
 11
218.417
 21
42.35
  0
LINE
  8
0
 10
218.417
 20
42.35
 11
215.333
 21
42.35
  0
LINE
  8
0
 10
215.333
 20
42.35
 11
215.333
 21
39.35
  0
LINE
  8
0
 10
215.333
 20
39.35
 11
212.25
 21
39.35
  0
LINE
  8
0
 10
212.25
 20
39.35
 11
212.25
 21
42.35
  0
LINE
  8
0
 10
212.25
 20
42.35
 11
209.167
 21
42.35
  0
LINE
  8
0
 10
209.167
 20
42.35
 11
209.167
 21
39.35
  0
LINE
  8
0
 10
209.167
 20
39.35
 11
206.083
 21
39.35
  0
LINE
  8
0
 10
206.083
 20
39.35
 11
206.083
 21
42.35
  0
LINE
  8
0
 10
206.083
 20
42.35
 11
203
 21
42.35
  0
LINE
  8
0
 10
203
 20
42.35
 11
203
 21
26.2333
  0
LINE
  8
0
 10
203
 20
26.2333
 11
200
 21
26.2333
  0
LINE
  8
0
 10
200
 20
26.2333
 11
200
 21
13.1167
  0
LINE
  8
0
 10
200
 20
13.1167
 11
203
 21
13.1167
  0
LINE
  8
0
 10
203
 20
13.1167
 11
203
 21
0
  0
LINE
  8
0
 10
203
 20
0
 11
200
 21
0
  0
LINE
  8
0
 10
200
 20
0
 11
200
 21
-13.1167
  0
LINE
  8
0
 10
200
 20
-13.1167
 11
203
 21
-13.1167
  0
LINE
  8
0
 10
203
 20
-13.1167
 11
203
 21
-26.2333
  0
LINE
  8
0
 10
203
 20
-26.2333
 11
200
 21
-26.2333
  0
LINE
  8
0
 10
200
 20
-26.2333
 11
200
 21
-39.35
  0
LINE
  8
0
 10
200
 20
-39.35
 11
206.083
 21
-39.35
  0
LINE
  8
0
 10
206.083
 20
-39.35
 11
206.083
 21
-42.35
  0
LINE
  8
0
 10
206.083
 20
-42.35
 11
209.167
 21
-42.35
  0
LINE
  8
0
 10
209.167
 20
-42.35
 11
209.167
 21
-39.35
  0
LINE
  8
0
 10
109.333
 20
-39.35
 11
128.5
 21
-39.35
  0
LINE
  8
0
 10
128.5
 20
-39.35
 11
128.5
 21
-42.35
  0
LINE
  8
0
 10
128.5
 20
-42.35
 11
147.667
 21
-42.35
  0
LINE
  8
0
 10
147.667
 20
-42.35
 11
147.667
 21
-39.35
  0
LINE
  8
0
 10
147.667
 20
-39.35
 11
166.833
 21
-39.35
  0
LINE
  8
0
 10
166.833
 20
-39.35
 11
166.833
 21
-42.35
  0
LINE
  8
0
 10
166.833
 20
-42.35
 11
186
 21
-42.35
  0
LINE
  8
0
 10
186
 20
-42.35
 11
186
 21
-26.2333
  0
LINE
  8
0
 10
186
 20
-26.2333
 11
189
 21
-26.2333
  0
LINE
  8
0
 10
189
 20
-26.2333
 11
189
 21
-13.1167
  0
LINE
  8
0
 10
189
 20
-13.1167
 11
186
 21
-13.1167
  0
LINE
  8
0
 10
186
 20
-13.1167
 11
186
 21
0
  0
LINE
  8
0
 10
186
 20
0
 11
189
 21
0
  0
LINE
  8
0
 10
189
 20
0
 11
189
 21
13.1166
  0
LINE
  8
0
 10
189
 20
13.1166
 11
186
 21
13.1166
  0
LINE
  8
0
 10
186
 20
13.1166
 11
186
 21
26.2333
  0
LINE
  8
0
 10
186
 20
26.2333
 11
189
 21
26.2333
  0
LINE
  8
0
 10
189
 20
26.2333
 11
189
 21
39.35
  0
LINE
  8
0
 10
189
 20
39.35
 11
166.833
 21
39.35
  0
LINE
  8
0
 10
166.833
 20
39.35
 11
166.833
 21
42.35
  0
LINE
  8
0
 10
166.833
 20
42.35
 11
147.667
 21
42.35
  0
LINE
  8
0
 10
147.667
 20
42.35
 11
147.667
 21
39.35
  0
LINE
  8
0
 10
147.667
 20
39.35
 11
128.5
 21
39.35
  0
LINE
  8
0
 10
128.5
 20
39.35
 11
128.5
 21
42.35
  0
LINE
  8
0
 10
128.5
 20
42.35
 11
109.333
 21
42.35
  0
LINE
  8
0
 10
109.333
 20
42.35
 11
109.333
 21
39.35
  0
LINE
  8
0
 10
109.333
 20
39.35
 11
90.1667
 21
39.35
  0
LINE
  8
0
 10
90.1667
 20
39.35
 11
90.1667
 21
42.35
  0
LINE
  8
0
 10
90.1667
 20
42.35
 11
71
 21
42.35
  0
LINE
  8
0
 10
71
 20
42.35
 11
71
 21
26.2333
  0
LINE
  8
0
 10
71
 20
26.2333
 11
68
 21
26.2333
  0
LINE
  8
0
 10
68
 20
26.2333
 11
68
 21
13.1166
  0
LINE
  8
0
 10
68
 20
13.1166
 11
71
 21
13.1166
  0
LINE
  8
0
 10
71
 20
13.1166
 11
71
 21
0
  0
LINE
  8
0
 10
71
 20
0
 11
68
 21
0
  0
LINE
  8
0
 10
68
 20
0
 11
68
 21
-13.1167
  0
LINE
  8
0
 10
68
 20
-13.1167
 11
71
 21
-13.1167
  0
LINE
  8
0
 10
71
 20
-13.1167
 11
71
 21
-26.2333
  0
LINE
  8
0
 10
71
 20
-26.2333
 11
68
 21
-26.2333
  0
LINE
  8
0
 10
68
 20
-26.2333
 11
68
 21
-39.35
  0
LINE
  8
0
 10
68
 20
-39.35
 11
90.1667
 21
-39.35
  0
LINE
  8
0
 10
90.1667
 20
-39.35
 11
90.1667
 21
-42.35
  0
LINE
  8
0
 10
90.1667
 20
-42.35
 11
109.333
 21
-42.35
  0
LINE
  8
0
 10
109.333
 20
-42.35
 11
109.333
 21
-39.35
  0
LINE
  8
0
 10
76.3932
 20
30.9533
 11
76.2869
 21
30.9634
  0
LINE
  8
0
 10
76.2869
 20
30.9634
 11
76.1814
 21
30.9801
  0
LINE
  8
0
 10
76.1814
 20
30.9801
 11
76.0772
 21
31.0034
  0
LINE
  8
0
 10
76.0772
 20
31.0034
 11
75.9747
 21
31.0332
  0
LINE
  8
0
 10
75.9747
 20
31.0332
 11
75.8742
 21
31.0694
  0
LINE
  8
0
 10
75.8742
 20
31.0694
 11
75.7762
 21
31.1118
  0
LINE
  8
0
 10
75.7762
 20
31.1118
 11
75.681
 21
31.1603
  0
LINE
  8
0
 10
75.681
 20
31.1603
 11
75.5891
 21
31.2146
  0
LINE
  8
0
 10
75.5891
 20
31.2146
 11
75.5008
 21
31.2747
  0
LINE
  8
0
 10
75.5008
 20
31.2747
 11
75.4164
 21
31.3401
  0
LINE
  8
0
 10
75.4164
 20
31.3401
 11
75.3363
 21
31.4107
  0
LINE
  8
0
 10
75.3363
 20
31.4107
 11
75.2607
 21
31.4863
  0
LINE
  8
0
 10
75.2607
 20
31.4863
 11
75.1901
 21
31.5664
  0
LINE
  8
0
 10
75.1901
 20
31.5664
 11
75.1247
 21
31.6508
  0
LINE
  8
0
 10
75.1247
 20
31.6508
 11
75.0646
 21
31.7391
  0
LINE
  8
0
 10
75.0646
 20
31.7391
 11
75.0103
 21
31.831
  0
LINE
  8
0
 10
75.0103
 20
31.831
 11
74.9618
 21
31.9262
  0
LINE
  8
0
 10
74.9618
 20
31.9262
 11
74.9194
 21
32.0242
  0
LINE
  8
0
 10
74.9194
 20
32.0242
 11
74.8832
 21
32.1247
  0
LINE
  8
0
 10
74.8832
 20
32.1247
 11
74.8534
 21
32.2272
  0
LINE
  8
0
 10
74.8534
 20
32.2272
 11
74.8301
 21
32.3314
  0
LINE
  8
0
 10
74.8301
 20
32.3314
 11
74.8134
 21
32.4369
  0
LINE
  8
0
 10
74.8134
 20
32.4369
 11
74.8033
 21
32.5432
  0
LINE
  8
0
 10
74.8033
 20
32.5432
 11
74.8
 21
32.65
  0
LINE
  8
0
 10
74.8
 20
32.65
 11
74.8033
 21
32.7567
  0
LINE
  8
0
 10
74.8033
 20
32.7567
 11
74.8134
 21
32.8631
  0
LINE
  8
0
 10
74.8134
 20
32.8631
 11
74.8301
 21
32.9685
  0
LINE
  8
0
 10
74.8301
 20
32.9685
 11
74.8534
 21
33.0728
  0
LINE
  8
0
 10
74.8534
 20
33.0728
 11
74.8832
 21
33.1753
  0
LINE
  8
0
 10
74.8832
 20
33.1753
 11
74.9194
 21
33.2758
  0
LINE
  8
0
 10
74.9194
 20
33.2758
 11
74.9618
 21
33.3738
  0
LINE
  8
0
 10
74.9618
 20
33.3738
 11
75.0103
 21
33.469
  0
LINE
  8
0
 10
75.0103
 20
33.469
 11
75.0646
 21
33.5609
  0
LINE
  8
0
 10
75.0646
 20
33.5609
 11
75.1247
 21
33.6492
  0
LINE
  8
0
 10
75.1247
 20
33.6492
 11
75.1901
 21
33.7336
  0
LINE
  8
0
 10
75.1901
 20
33.7336
 11
75.2607
 21
33.8137
  0
LINE
  8
0
 10
75.2607
 20
33.8137
 11
75.3363
 21
33.8892
  0
LINE
  8
0
 10
75.3363
 20
33.8892
 11
75.4164
 21
33.9599
  0
LINE
  8
0
 10
75.4164
 20
33.9599
 11
75.5008
 21
34.0253
  0
LINE
  8
0
 10
75.5008
 20
34.0253
 11
75.5891
 21
34.0853
  0
LINE
  8
0
 10
75.5891
 20
34.0853
 11
75.681
 21
34.1397
  0
LINE
  8
0
 10
75.681
 20
34.1397
 11
75.7762
 21
34.1882
  0
LINE
  8
0
 10
75.7762
 20
34.1882
 11
75.8742
 21
34.2306
  0
LINE
  8
0
 10
75.8742
 20
34.2306
 11
75.9747
 21
34.2668
  0
LINE
  8
0
 10
75.9747
 20
34.2668
 11
76.0772
 21
34.2966
  0
LINE
  8
0
 10
76.0772
 20
34.2966
 11
76.1814
 21
34.3199
  0
LINE
  8
0
 10
76.1814
 20
34.3199
 11
76.2869
 21
34.3366
  0
LINE
  8
0
 10
76.2869
 20
34.3366
 11
76.3932
 21
34.3466
  0
LINE
  8
0
 10
76.3932
 20
34.3466
 11
76.5
 21
34.35
  0
LINE
  8
0
 10
76.5
 20
34.35
 11
76.6067
 21
34.3466
  0
LINE
  8
0
 10
76.6067
 20
34.3466
 11
76.7131
 21
34.3366
  0
LINE
  8
0
 10
76.7131
 20
34.3366
 11
76.8185
 21
34.3199
  0
LINE
  8
0
 10
76.8185
 20
34.3199
 11
76.9228
 21
34.2966
  0
LINE
  8
0
 10
76.9228
 20
34.2966
 11
77.0253
 21
34.2668
  0
LINE
  8
0
 10
77.0253
 20
34.2668
 11
77.1258
 21
34.2306
  0
LINE
  8
0
 10
77.1258
 20
34.2306
 11
77.2238
 21
34.1882
  0
LINE
  8
0
 10
77.2238
 20
34.1882
 11
77.319
 21
34.1397
  0
LINE
  8
0
 10
77.319
 20
34.1397
 11
77.4109
 21
34.0853
  0
LINE
  8
0
 10
77.4109
 20
34.0853
 11
77.4992
 21
34.0253
  0
LINE
  8
0
 10
77.4992
 20
34.0253
 11
77.5836
 21
33.9599
  0
LINE
  8
0
 10
77.5836
 20
33.9599
 11
77.6637
 21
33.8892
  0
LINE
  8
0
 10
77.6637
 20
33.8892
 11
77.7392
 21
33.8137
  0
LINE
  8
0
 10
77.7392
 20
33.8137
 11
77.8099
 21
33.7336
  0
LINE
  8
0
 10
77.8099
 20
33.7336
 11
77.8753
 21
33.6492
  0
LINE
  8
0
 10
77.8753
 20
33.6492
 11
77.9353
 21
33.5609
  0
LINE
  8
0
 10
77.9353
 20
33.5609
 11
77.9897
 21
33.469
  0
LINE
  8
0
 10
77.9897
 20
33.469
 11
78.0382
 21
33.3738
  0
LINE
  8
0
 10
78.0382
 20
33.3738
 11
78.0806
 21
33.2758
  0
LINE
  8
0
 10
78.0806
 20
33.2758
 11
78.1168
 21
33.1753
  0
LINE
  8
0
 10
78.1168
 20
33.1753
 11
78.1466
 21
33.0728
  0
LINE
  8
0
 10
78.1466
 20
33.0728
 11
78.1699
 21
32.9685
  0
LINE
  8
0
 10
78.1699
 20
32.9685
 11
78.1866
 21
32.8631
  0
LINE
  8
0
 10
78.1866
 20
32.8631
 11
78.1966
 21
32.7567
  0
LINE
  8
0
 10
78.1966
 20
32.7567
 11
78.2
 21
32.65
  0
LINE
  8
0
 10
78.2
 20
32.65
 11
78.1966
 21
32.5432
  0
LINE
  8
0
 10
78.1966
 20
32.5432
 11
78.1866
 21
32.4369
  0
LINE
  8
0
 10
78.1866
 20
32.4369
 11
78.1699
 21
32.3314
  0
LINE
  8
0
 10
78.1699
 20
32.3314
 11
78.1466
 21
32.2272
  0
LINE
  8
0
 10
78.1466
 20
32.2272
 11
78.1168
 21
32.1247
  0
LINE
  8
0
 10
78.1168
 20
32.1247
 11
78.0806
 21
32.0242
  0
LINE
  8
0
 10
78.0806
 20
32.0242
 11
78.0382
 21
31.9262
  0
LINE
  8
0
 10
78.0382
 20
31.9262
 11
77.9897
 21
31.831
  0
LINE
  8
0
 10
77.9897
 20
31.831
 11
77.9353
 21
31.7391
  0
LINE
  8
0
 10
77.9353
 20
31.7391
 11
77.8753
 21
31.6508
  0
LINE
  8
0
 10
77.8753
 20
31.6508
 11
77.8099
 21
31.5664
  0
LINE
  8
0
 10
77.8099
 20
31.5664
 11
77.7392
 21
31.4863
  0
LINE
  8
0
 10
77.7392
 20
31.4863
 11
77.6637
 21
31.4107
  0
LINE
  8
0
 10
77.6637
 20
31.4107
 11
77.5836
 21
31.3401
  0
LINE
  8
0
 10
77.5836
 20
31.3401
 11
77.4992
 21
31.2747
  0
LINE
  8
0
 10
77.4992
 20
31.2747
 11
77.4109
 21
31.2146
  0
LINE
  8
0
 10
77.4109
 20
31.2146
 11
77.319
 21
31.1603
  0
LINE
  8
0
 10
77.319
 20
31.1603
 11
77.2238
 21
31.1118
  0
LINE
  8
0
 10
77.2238
 20
31.1118
 11
77.1258
 21
31.0694
  0
LINE
  8
0
 10
77.1258
 20
31.0694
 11
77.0253
 21
31.0332
  0
LINE
  8
0
 10
77.0253
 20
31.0332
 11
76.9228
 21
31.0034
  0
LINE
  8
0
 10
76.9228
 20
31.0034
 11
76.8185
 21
30.9801
  0
LINE
  8
0
 10
76.8185
 20
30.9801
 11
76.7131
 21
30.9634
  0
LINE
  8
0
 10
76.7131
 20
30.9634
 11
76.6067
 21
30.9533
  0
LINE
  8
0
 10
76.6067
 20
30.9533
 11
76.5
 21
30.95
  0
LINE
  8
0
 10
76.5
 20
30.95
 11
76.3932
 21
30.9533
  0
LINE
  8
0
 10
183.293
 20
30.9533
 11
183.187
 21
30.9634
  0
LINE
  8
0
 10
183.187
 20
30.9634
 11
183.081
 21
30.9801
  0
LINE
  8
0
 10
183.081
 20
30.9801
 11
182.977
 21
31.0034
  0
LINE
  8
0
 10
182.977
 20
31.0034
 11
182.875
 21
31.0332
  0
LINE
  8
0
 10
182.875
 20
31.0332
 11
182.774
 21
31.0694
  0
LINE
  8
0
 10
182.774
 20
31.0694
 11
182.676
 21
31.1118
  0
LINE
  8
0
 10
182.676
 20
31.1118
 11
182.581
 21
31.1603
  0
LINE
  8
0
 10
182.581
 20
31.1603
 11
182.489
 21
31.2146
  0
LINE
  8
0
 10
182.489
 20
31.2146
 11
182.401
 21
31.2747
  0
LINE
  8
0
 10
182.401
 20
31.2747
 11
182.316
 21
31.3401
  0
LINE
  8
0
 10
182.316
 20
31.3401
 11
182.236
 21
31.4107
  0
LINE
  8
0
 10
182.236
 20
31.4107
 11
182.161
 21
31.4863
  0
LINE
  8
0
 10
182.161
 20
31.4863
 11
182.09
 21
31.5664
  0
LINE
  8
0
 10
182.09
 20
31.5664
 11
182.025
 21
31.6508
  0
LINE
  8
0
 10
182.025
 20
31.6508
 11
181.965
 21
31.7391
  0
LINE
  8
0
 10
181.965
 20
31.7391
 11
181.91
 21
31.831
  0
LINE
  8
0
 10
181.91
 20
31.831
 11
181.862
 21
31.9262
  0
LINE
  8
0
 10
181.862
 20
31.9262
 11
181.819
 21
32.0242
  0
LINE
  8
0
 10
181.819
 20
32.0242
 11
181.783
 21
32.1247
  0
LINE
  8
0
 10
181.783
 20
32.1247
 11
181.753
 21
32.2272
  0
LINE
  8
0
 10
181.753
 20
32.2272
 11
181.73
 21
32.3314
  0
LINE
  8
0
 10
181.73
 20
32.3314
 11
181.713
 21
32.4369
  0
LINE
  8
0
 10
181.713
 20
32.4369
 11
181.703
 21
32.5432
  0
LINE
  8
0
 10
181.703
 20
32.5432
 11
181.7
 21
32.65
  0
LINE
  8
0
 10
181.7
 20
32.65
 11
181.703
 21
32.7567
  0
LINE
  8
0
 10
181.703
 20
32.7567
 11
181.713
 21
32.8631
  0
LINE
  8
0
 10
181.713
 20
32.8631
 11
181.73
 21
32.9685
  0
LINE
  8
0
 10
181.73
 20
32.9685
 11
181.753
 21
33.0728
  0
LINE
  8
0
 10
181.753
 20
33.0728
 11
181.783
 21
33.1753
  0
LINE
  8
0
 10
181.783
 20
33.1753
 11
181.819
 21
33.2758
  0
LINE
  8
0
 10
181.819
 20
33.2758
 11
181.862
 21
33.3738
  0
LINE
  8
0
 10
181.862
 20
33.3738
 11
181.91
 21
33.469
  0
LINE
  8
0
 10
181.91
 20
33.469
 11
181.965
 21
33.5609
  0
LINE
  8
0
 10
181.965
 20
33.5609
 11
182.025
 21
33.6492
  0
LINE
  8
0
 10
182.025
 20
33.6492
 11
182.09
 21
33.7336
  0
LINE
  8
0
 10
182.09
 20
33.7336
 11
182.161
 21
33.8137
  0
LINE
  8
0
 10
182.161
 20
33.8137
 11
182.236
 21
33.8892
  0
LINE
  8
0
 10
182.236
 20
33.8892
 11
182.316
 21
33.9599
  0
LINE
  8
0
 10
182.316
 20
33.9599
 11
182.401
 21
34.0253
  0
LINE
  8
0
 10
182.401
 20
34.0253
 11
182.489
 21
34.0853
  0
LINE
  8
0
 10
182.489
 20
34.0853
 11
182.581
 21
34.1397
  0
LINE
  8
0
 10
182.581
 20
34.1397
 11
182.676
 21
34.1882
  0
LINE
  8
0
 10
182.676
 20
34.1882
 11
182.774
 21
34.2306
  0
LINE
  8
0
 10
182.774
 20
34.2306
 11
182.875
 21
34.2668
  0
LINE
  8
0
 10
182.875
 20
34.2668
 11
182.977
 21
34.2966
  0
LINE
  8
0
 10
182.977
 20
34.2966
 11
183.081
 21
34.3199
  0
LINE
  8
0
 10
183.081
 20
34.3199
 11
183.187
 21
34.3366
  0
LINE
  8
0
 10
183.187
 20
34.3366
 11
183.293
 21
34.3466
  0
LINE
  8
0
 10
183.293
 20
34.3466
 11
183.4
 21
34.35
  0
LINE
  8
0
 10
183.4
 20
34.35
 11
183.507
 21
34.3466
  0
LINE
  8
0
 10
183.507
 20
34.3466
 11
183.613
 21
34.3366
  0
LINE
  8
0
 10
183.613
 20
34.3366
 11
183.719
 21
34.3199
  0
LINE
  8
0
 10
183.719
 20
34.3199
 11
183.823
 21
34.2966
  0
LINE
  8
0
 10
183.823
 20
34.2966
 11
183.925
 21
34.2668
  0
LINE
  8
0
 10
183.925
 20
34.2668
 11
184.026
 21
34.2306
  0
LINE
  8
0
 10
184.026
 20
34.2306
 11
184.124
 21
34.1882
  0
LINE
  8
0
 10
184.124
 20
34.1882
 11
184.219
 21
34.1397
  0
LINE
  8
0
 10
184.219
 20
34.1397
 11
184.311
 21
34.0853
  0
LINE
  8
0
 10
184.311
 20
34.0853
 11
184.399
 21
34.0253
  0
LINE
  8
0
 10
184.399
 20
34.0253
 11
184.484
 21
33.9599
  0
LINE
  8
0
 10
184.484
 20
33.9599
 11
184.564
 21
33.8892
  0
LINE
  8
0
 10
184.564
 20
33.8892
 11
184.639
 21
33.8137
  0
LINE
  8
0
 10
184.639
 20
33.8137
 11
184.71
 21
33.7336
  0
LINE
  8
0
 10
184.71
 20
33.7336
 11
184.775
 21
33.6492
  0
LINE
  8
0
 10
184.775
 20
33.6492
 11
184.835
 21
33.5609
  0
LINE
  8
0
 10
184.835
 20
33.5609
 11
184.89
 21
33.469
  0
LINE
  8
0
 10
184.89
 20
33.469
 11
184.938
 21
33.3738
  0
LINE
  8
0
 10
184.938
 20
33.3738
 11
184.981
 21
33.2758
  0
LINE
  8
0
 10
184.981
 20
33.2758
 11
185.017
 21
33.1753
  0
LINE
  8
0
 10
185.017
 20
33.1753
 11
185.047
 21
33.0728
  0
LINE
  8
0
 10
185.047
 20
33.0728
 11
185.07
 21
32.9685
  0
LINE
  8
0
 10
185.07
 20
32.9685
 11
185.087
 21
32.8631
  0
LINE
  8
0
 10
185.087
 20
32.8631
 11
185.097
 21
32.7567
  0
LINE
  8
0
 10
185.097
 20
32.7567
 11
185.1
 21
32.65
  0
LINE
  8
0
 10
185.1
 20
32.65
 11
185.097
 21
32.5432
  0
LINE
  8
0
 10
185.097
 20
32.5432
 11
185.087
 21
32.4369
  0
LINE
  8
0
 10
185.087
 20
32.4369
 11
185.07
 21
32.3314
  0
LINE
  8
0
 10
185.07
 20
32.3314
 11
185.047
 21
32.2272
  0
LINE
  8
0
 10
185.047
 20
32.2272
 11
185.017
 21
32.1247
  0
LINE
  8
0
 10
185.017
 20
32.1247
 11
184.981
 21
32.0242
  0
LINE
  8
0
 10
184.981
 20
32.0242
 11
184.938
 21
31.9262
  0
LINE
  8
0
 10
184.938
 20
31.9262
 11
184.89
 21
31.831
  0
LINE
  8
0
 10
184.89
 20
31.831
 11
184.835
 21
31.7391
  0
LINE
  8
0
 10
184.835
 20
31.7391
 11
184.775
 21
31.6508
  0
LINE
  8
0
 10
184.775
 20
31.6508
 11
184.71
 21
31.5664
  0
LINE
  8
0
 10
184.71
 20
31.5664
 11
184.639
 21
31.4863
  0
LINE
  8
0
 10
184.639
 20
31.4863
 11
184.564
 21
31.4107
  0
LINE
  8
0
 10
184.564
 20
31.4107
 11
184.484
 21
31.3401
  0
LINE
  8
0
 10
184.484
 20
31.3401
 11
184.399
 21
31.2747
  0
LINE
  8
0
 10
184.399
 20
31.2747
 11
184.311
 21
31.2146
  0
LINE
  8
0
 10
184.311
 20
31.2146
 11
184.219
 21
31.1603
  0
LINE
  8
0
 10
184.219
 20
31.1603
 11
184.124
 21
31.1118
  0
LINE
  8
0
 10
184.124
 20
31.1118
 11
184.026
 21
31.0694
  0
LINE
  8
0
 10
184.026
 20
31.0694
 11
183.925
 21
31.0332
  0
LINE
  8
0
 10
183.925
 20
31.0332
 11
183.823
 21
31.0034
  0
LINE
  8
0
 10
183.823
 20
31.0034
 11
183.719
 21
30.9801
  0
LINE
  8
0
 10
183.719
 20
30.9801
 11
183.613
 21
30.9634
  0
LINE
  8
0
 10
183.613
 20
30.9634
 11
183.507
 21
30.9533
  0
LINE
  8
0
 10
183.507
 20
30.9533
 11
183.4
 21
30.95
  0
LINE
  8
0
 10
183.4
 20
30.95
 11
183.293
 21
30.9533
  0
LINE
  8
0
 10
176.5
 20
11.65
 11
176.5
 21
17.65
  0
LINE
  8
0
 10
176.5
 20
17.65
 11
182.5
 21
17.65
  0
LINE
  8
0
 10
182.5
 20
17.65
 11
182.5
 21
11.65
  0
LINE
  8
0
 10
182.5
 20
11.65
 11
176.5
 21
11.65
  0
LINE
  8
0
 10
78
 20
9.34999
 11
78
 21
16.55
  0
LINE
  8
0
 10
78
 20
16.55
 11
90.7
 21
16.55
  0
LINE
  8
0
 10
90.7
 20
16.55
 11
90.7
 21
9.34999
  0
LINE
  8
0
 10
90.7
 20
9.34999
 11
78
 21
9.34999
  0
LINE
  8
0
 10
100.2
 20
-28.65
 11
100.2
 21
13.95
  0
LINE
  8
0
 10
100.2
 20
13.95
 11
160.2
 21
13.95
  0
LINE
  8
0
 10
160.2
 20
13.95
 11
160.2
 21
-28.65
  0
LINE
  8
0
 10
160.2
 20
-28.65
 11
100.2
 21
-28.65
  0
LINE
  8
0
 10
176.5
 20
-0.349991
 11
176.5
 21
5.64999
  0
LINE
  8
0
 10
176.5
 20
5.64999
 11
182.5
 21
5.64999
  0
LINE
  8
0
 10
182.5
 20
5.64999
 11
182.5
 21
-0.349991
  0
LINE
  8
0
 10
182.5
 20
-0.349991
 11
176.5
 21
-0.349991
  0
LINE
  8
0
 10
78
 20
-7.84999
 11
78
 21
-0.649994
  0
LINE
  8
0
 10
78
 20
-0.649994
 11
90.7
 21
-0.649994
  0
LINE
  8
0
 10
90.7
 20
-0.649994
 11
90.7
 21
-7.84999
  0
LINE
  8
0
 10
90.7
 20
-7.84999
 11
78
 21
-7.84999
  0
LINE
  8
0
 10
176.5
 20
-12.35
 11
176.5
 21
-6.34999
  0
LINE
  8
0
 10
176.5
 20
-6.34999
 11
182.5
 21
-6.34999
  0
LINE
  8
0
 10
182.5
 20
-6.34999
 11
182.5
 21
-12.35
  0
LINE
  8
0
 10
182.5
 20
-12.35
 11
176.5
 21
-12.35
  0
LINE
  8
0
 10
78
 20
-25.05
 11
78
 21
-17.85
  0
LINE
  8
0
 10
78
 20
-17.85
 11
90.7
 21
-17.85
  0
LINE
  8
0
 10
90.7
 20
-17.85
 11
90.7
 21
-25.05
  0
LINE
  8
0
 10
90.7
 20
-25.05
 11
78
 21
-25.05
  0
LINE
  8
0
 10
176.5
 20
-24.35
 11
176.5
 21
-18.35
  0
LINE
  8
0
 10
176.5
 20
-18.35
 11
182.5
 21
-18.35
  0
LINE
  8
0
 10
182.5
 20
-18.35
 11
182.5
 21
-24.35
  0
LINE
  8
0
 10
182.5
 20
-24.35
 11
176.5
 21
-24.35
  0
LINE
  8
0
 10
165
 20
-37.15
 11
165
 21
-31.15
  0
LINE
  8
0
 10
165
 20
-31.15
 11
171
 21
-31.15
  0
LINE
  8
0
 10
171
 20
-31.15
 11
171
 21
-37.15
  0
LINE
  8
0
 10
171
 20
-37.15
 11
165
 21
-37.15
  0
LINE
  8
0
 10
183.293
 20
-35.7466
 11
183.187
 21
-35.7366
  0
LINE
  8
0
 10
183.187
 20
-35.7366
 11
183.081
 21
-35.7199
  0
LINE
  8
0
 10
183.081
 20
-35.7199
 11
182.977
 21
-35.6966
  0
LINE
  8
0
 10
182.977
 20
-35.6966
 11
182.875
 21
-35.6668
  0
LINE
  8
0
 10
182.875
 20
-35.6668
 11
182.774
 21
-35.6306
  0
LINE
  8
0
 10
182.774
 20
-35.6306
 11
182.676
 21
-35.5882
  0
LINE
  8
0
 10
182.676
 20
-35.5882
 11
182.581
 21
-35.5397
  0
LINE
  8
0
 10
182.581
 20
-35.5397
 11
182.489
 21
-35.4854
  0
LINE
  8
0
 10
182.489
 20
-35.4854
 11
182.401
 21
-35.4253
  0
LINE
  8
0
 10
182.401
 20
-35.4253
 11
182.316
 21
-35.3599
  0
LINE
  8
0
 10
182.316
 20
-35.3599
 11
182.236
 21
-35.2892
  0
LINE
  8
0
 10
182.236
 20
-35.2892
 11
182.161
 21
-35.2137
  0
LINE
  8
0
 10
182.161
 20
-35.2137
 11
182.09
 21
-35.1336
  0
LINE
  8
0
 10
182.09
 20
-35.1336
 11
182.025
 21
-35.0492
  0
LINE
  8
0
 10
182.025
 20
-35.0492
 11
181.965
 21
-34.9609
  0
LINE
  8
0
 10
181.965
 20
-34.9609
 11
181.91
 21
-34.869
  0
LINE
  8
0
 10
181.91
 20
-34.869
 11
181.862
 21
-34.7738
  0
LINE
  8
0
 10
181.862
 20
-34.7738
 11
181.819
 21
-34.6758
  0
LINE
  8
0
 10
181.819
 20
-34.6758
 11
181.783
 21
-34.5753
  0
LINE
  8
0
 10
181.783
 20
-34.5753
 11
181.753
 21
-34.4728
  0
LINE
  8
0
 10
181.753
 20
-34.4728
 11
181.73
 21
-34.3685
  0
LINE
  8
0
 10
181.73
 20
-34.3685
 11
181.713
 21
-34.2631
  0
LINE
  8
0
 10
181.713
 20
-34.2631
 11
181.703
 21
-34.1567
  0
LINE
  8
0
 10
181.703
 20
-34.1567
 11
181.7
 21
-34.05
  0
LINE
  8
0
 10
181.7
 20
-34.05
 11
181.703
 21
-33.9433
  0
LINE
  8
0
 10
181.703
 20
-33.9433
 11
181.713
 21
-33.8369
  0
LINE
  8
0
 10
181.713
 20
-33.8369
 11
181.73
 21
-33.7314
  0
LINE
  8
0
 10
181.73
 20
-33.7314
 11
181.753
 21
-33.6272
  0
LINE
  8
0
 10
181.753
 20
-33.6272
 11
181.783
 21
-33.5247
  0
LINE
  8
0
 10
181.783
 20
-33.5247
 11
181.819
 21
-33.4242
  0
LINE
  8
0
 10
181.819
 20
-33.4242
 11
181.862
 21
-33.3262
  0
LINE
  8
0
 10
181.862
 20
-33.3262
 11
181.91
 21
-33.231
  0
LINE
  8
0
 10
181.91
 20
-33.231
 11
181.965
 21
-33.1391
  0
LINE
  8
0
 10
181.965
 20
-33.1391
 11
182.025
 21
-33.0508
  0
LINE
  8
0
 10
182.025
 20
-33.0508
 11
182.09
 21
-32.9664
  0
LINE
  8
0
 10
182.09
 20
-32.9664
 11
182.161
 21
-32.8863
  0
LINE
  8
0
 10
182.161
 20
-32.8863
 11
182.236
 21
-32.8107
  0
LINE
  8
0
 10
182.236
 20
-32.8107
 11
182.316
 21
-32.7401
  0
LINE
  8
0
 10
182.316
 20
-32.7401
 11
182.401
 21
-32.6747
  0
LINE
  8
0
 10
182.401
 20
-32.6747
 11
182.489
 21
-32.6146
  0
LINE
  8
0
 10
182.489
 20
-32.6146
 11
182.581
 21
-32.5603
  0
LINE
  8
0
 10
182.581
 20
-32.5603
 11
182.676
 21
-32.5118
  0
LINE
  8
0
 10
182.676
 20
-32.5118
 11
182.774
 21
-32.4694
  0
LINE
  8
0
 10
182.774
 20
-32.4694
 11
182.875
 21
-32.4332
  0
LINE
  8
0
 10
182.875
 20
-32.4332
 11
182.977
 21
-32.4034
  0
LINE
  8
0
 10
182.977
 20
-32.4034
 11
183.081
 21
-32.3801
  0
LINE
  8
0
 10
183.081
 20
-32.3801
 11
183.187
 21
-32.3634
  0
LINE
  8
0
 10
183.187
 20
-32.3634
 11
183.293
 21
-32.3533
  0
LINE
  8
0
 10
183.293
 20
-32.3533
 11
183.4
 21
-32.35
  0
LINE
  8
0
 10
183.4
 20
-32.35
 11
183.507
 21
-32.3533
  0
LINE
  8
0
 10
183.507
 20
-32.3533
 11
183.613
 21
-32.3634
  0
LINE
  8
0
 10
183.613
 20
-32.3634
 11
183.719
 21
-32.3801
  0
LINE
  8
0
 10
183.719
 20
-32.3801
 11
183.823
 21
-32.4034
  0
LINE
  8
0
 10
183.823
 20
-32.4034
 11
183.925
 21
-32.4332
  0
LINE
  8
0
 10
183.925
 20
-32.4332
 11
184.026
 21
-32.4694
  0
LINE
  8
0
 10
184.026
 20
-32.4694
 11
184.124
 21
-32.5118
  0
LINE
  8
0
 10
184.124
 20
-32.5118
 11
184.219
 21
-32.5603
  0
LINE
  8
0
 10
184.219
 20
-32.5603
 11
184.311
 21
-32.6146
  0
LINE
  8
0
 10
184.311
 20
-32.6146
 11
184.399
 21
-32.6747
  0
LINE
  8
0
 10
184.399
 20
-32.6747
 11
184.484
 21
-32.7401
  0
LINE
  8
0
 10
184.484
 20
-32.7401
 11
184.564
 21
-32.8107
  0
LINE
  8
0
 10
184.564
 20
-32.8107
 11
184.639
 21
-32.8863
  0
LINE
  8
0
 10
184.639
 20
-32.8863
 11
184.71
 21
-32.9664
  0
LINE
  8
0
 10
184.71
 20
-32.9664
 11
184.775
 21
-33.0508
  0
LINE
  8
0
 10
184.775
 20
-33.0508
 11
184.835
 21
-33.1391
  0
LINE
  8
0
 10
184.835
 20
-33.1391
 11
184.89
 21
-33.231
  0
LINE
  8
0
 10
184.89
 20
-33.231
 11
184.938
 21
-33.3262
  0
LINE
  8
0
 10
184.938
 20
-33.3262
 11
184.981
 21
-33.4242
  0
LINE
  8
0
 10
184.981
 20
-33.4242
 11
185.017
 21
-33.5247
  0
LINE
  8
0
 10
185.017
 20
-33.5247
 11
185.047
 21
-33.6272
  0
LINE
  8
0
 10
185.047
 20
-33.6272
 11
185.07
 21
-33.7314
  0
LINE
  8
0
 10
185.07
 20
-33.7314
 11
185.087
 21
-33.8369
  0
LINE
  8
0
 10
185.087
 20
-33.8369
 11
185.097
 21
-33.9433
  0
LINE
  8
0
 10
185.097
 20
-33.9433
 11
185.1
 21
-34.05
  0
LINE
  8
0
 10
185.1
 20
-34.05
 11
185.097
 21
-34.1567
  0
LINE
  8
0
 10
185.097
 20
-34.1567
 11
185.087
 21
-34.2631
  0
LINE
  8
0
 10
185.087
 20
-34.2631
 11
185.07
 21
-34.3685
  0
LINE
  8
0
 10
185.07
 20
-34.3685
 11
185.047
 21
-34.4728
  0
LINE
  8
0
 10
185.047
 20
-34.4728
 11
185.017
 21
-34.5753
  0
LINE
  8
0
 10
185.017
 20
-34.5753
 11
184.981
 21
-34.6758
  0
LINE
  8
0
 10
184.981
 20
-34.6758
 11
184.938
 21
-34.7738
  0
LINE
  8
0
 10
184.938
 20
-34.7738
 11
184.89
 21
-34.869
  0
LINE
  8
0
 10
184.89
 20
-34.869
 11
184.835
 21
-34.9609
  0
LINE
  8
0
 10
184.835
 20
-34.9609
 11
184.775
 21
-35.0492
  0
LINE
  8
0
 10
184.775
 20
-35.0492
 11
184.71
 21
-35.1336
  0
LINE
  8
0
 10
184.71
 20
-35.1336
 11
184.639
 21
-35.2137
  0
LINE
  8
0
 10
184.639
 20
-35.2137
 11
184.564
 21
-35.2892
  0
LINE
  8
0
 10
184.564
 20
-35.2892
 11
184.484
 21
-35.3599
  0
LINE
  8
0
 10
184.484
 20
-35.3599
 11
184.399
 21
-35.4253
  0
LINE
  8
0
 10
184.399
 20
-35.4253
 11
184.311
 21
-35.4854
  0
LINE
  8
0
 10
184.311
 20
-35.4854
 11
184.219
 21
-35.5397
  0
LINE
  8
0
 10
184.219
 20
-35.5397
 11
184.124
 21
-35.5882
  0
LINE
  8
0
 10
184.124
 20
-35.5882
 11
184.026
 21
-35.6306
  0
LINE
  8
0
 10
184.026
 20
-35.6306
 11
183.925
 21
-35.6668
  0
LINE
  8
0
 10
183.925
 20
-35.6668
 11
183.823
 21
-35.6966
  0
LINE
  8
0
 10
183.823
 20
-35.6966
 11
183.719
 21
-35.7199
  0
LINE
  8
0
 10
183.719
 20
-35.7199
 11
183.613
 21
-35.7366
  0
LINE
  8
0
 10
183.613
 20
-35.7366
 11
183.507
 21
-35.7466
  0
LINE
  8
0
 10
183.507
 20
-35.7466
 11
183.4
 21
-35.75
  0
LINE
  8
0
 10
183.4
 20
-35.75
 11
183.293
 21
-35.7466
  0
LINE
  8
0
 10
76.3932
 20
-35.7466
 11
76.2869
 21
-35.7366
  0
LINE
  8
0
 10
76.2869
 20
-35.7366
 11
76.1814
 21
-35.7199
  0
LINE
  8
0
 10
76.1814
 20
-35.7199
 11
76.0772
 21
-35.6966
  0
LINE
  8
0
 10
76.0772
 20
-35.6966
 11
75.9747
 21
-35.6668
  0
LINE
  8
0
 10
75.9747
 20
-35.6668
 11
75.8742
 21
-35.6306
  0
LINE
  8
0
 10
75.8742
 20
-35.6306
 11
75.7762
 21
-35.5882
  0
LINE
  8
0
 10
75.7762
 20
-35.5882
 11
75.681
 21
-35.5397
  0
LINE
  8
0
 10
75.681
 20
-35.5397
 11
75.5891
 21
-35.4854
  0
LINE
  8
0
 10
75.5891
 20
-35.4854
 11
75.5008
 21
-35.4253
  0
LINE
  8
0
 10
75.5008
 20
-35.4253
 11
75.4164
 21
-35.3599
  0
LINE
  8
0
 10
75.4164
 20
-35.3599
 11
75.3363
 21
-35.2892
  0
LINE
  8
0
 10
75.3363
 20
-35.2892
 11
75.2607
 21
-35.2137
  0
LINE
  8
0
 10
75.2607
 20
-35.2137
 11
75.1901
 21
-35.1336
  0
LINE
  8
0
 10
75.1901
 20
-35.1336
 11
75.1247
 21
-35.0492
  0
LINE
  8
0
 10
75.1247
 20
-35.0492
 11
75.0646
 21
-34.9609
  0
LINE
  8
0
 10
75.0646
 20
-34.9609
 11
75.0103
 21
-34.869
  0
LINE
  8
0
 10
75.0103
 20
-34.869
 11
74.9618
 21
-34.7738
  0
LINE
  8
0
 10
74.9618
 20
-34.7738
 11
74.9194
 21
-34.6758
  0
LINE
  8
0
 10
74.9194
 20
-34.6758
 11
74.8832
 21
-34.5753
  0
LINE
  8
0
 10
74.8832
 20
-34.5753
 11
74.8534
 21
-34.4728
  0
LINE
  8
0
 10
74.8534
 20
-34.4728
 11
74.8301
 21
-34.3685
  0
LINE
  8
0
 10
74.8301
 20
-34.3685
 11
74.8134
 21
-34.2631
  0
LINE
  8
0
 10
74.8134
 20
-34.2631
 11
74.8033
 21
-34.1567
  0
LINE
  8
0
 10
74.8033
 20
-34.1567
 11
74.8
 21
-34.05
  0
LINE
  8
0
 10
74.8
 20
-34.05
 11
74.8033
 21
-33.9433
  0
LINE
  8
0
 10
74.8033
 20
-33.9433
 11
74.8134
 21
-33.8369
  0
LINE
  8
0
 10
74.8134
 20
-33.8369
 11
74.8301
 21
-33.7314
  0
LINE
  8
0
 10
74.8301
 20
-33.7314
 11
74.8534
 21
-33.6272
  0
LINE
  8
0
 10
74.8534
 20
-33.6272
 11
74.8832
 21
-33.5247
  0
LINE
  8
0
 10
74.8832
 20
-33.5247
 11
74.9194
 21
-33.4242
  0
LINE
  8
0
 10
74.9194
 20
-33.4242
 11
74.9618
 21
-33.3262
  0
LINE
  8
0
 10
74.9618
 20
-33.3262
 11
75.0103
 21
-33.231
  0
LINE
  8
0
 10
75.0103
 20
-33.231
 11
75.0646
 21
-33.1391
  0
LINE
  8
0
 10
75.0646
 20
-33.1391
 11
75.1247
 21
-33.0508
  0
LINE
  8
0
 10
75.1247
 20
-33.0508
 11
75.1901
 21
-32.9664
  0
LINE
  8
0
 10
75.1901
 20
-32.9664
 11
75.2607
 21
-32.8863
  0
LINE
  8
0
 10
75.2607
 20
-32.8863
 11
75.3363
 21
-32.8107
  0
LINE
  8
0
 10
75.3363
 20
-32.8107
 11
75.4164
 21
-32.7401
  0
LINE
  8
0
 10
75.4164
 20
-32.7401
 11
75.5008
 21
-32.6747
  0
LINE
  8
0
 10
75.5008
 20
-32.6747
 11
75.5891
 21
-32.6146
  0
LINE
  8
0
 10
75.5891
 20
-32.6146
 11
75.681
 21
-32.5603
  0
LINE
  8
0
 10
75.681
 20
-32.5603
 11
75.7762
 21
-32.5118
  0
LINE
  8
0
 10
75.7762
 20
-32.5118
 11
75.8742
 21
-32.4694
  0
LINE
  8
0
 10
75.8742
 20
-32.4694
 11
75.9747
 21
-32.4332
  0
LINE
  8
0
 10
75.9747
 20
-32.4332
 11
76.0772
 21
-32.4034
  0
LINE
  8
0
 10
76.0772
 20
-32.4034
 11
76.1814
 21
-32.3801
  0
LINE
  8
0
 10
76.1814
 20
-32.3801
 11
76.2869
 21
-32.3634
  0
LINE
  8
0
 10
76.2869
 20
-32.3634
 11
76.3932
 21
-32.3533
  0
LINE
  8
0
 10
76.3932
 20
-32.3533
 11
76.5
 21
-32.35
  0
LINE
  8
0
 10
76.5
 20
-32.35
 11
76.6067
 21
-32.3533
  0
LINE
  8
0
 10
76.6067
 20
-32.3533
 11
76.7131
 21
-32.3634
  0
LINE
  8
0
 10
76.7131
 20
-32.3634
 11
76.8185
 21
-32.3801
  0
LINE
  8
0
 10
76.8185
 20
-32.3801
 11
76.9228
 21
-32.4034
  0
LINE
  8
0
 10
76.9228
 20
-32.4034
 11
77.0253
 21
-32.4332
  0
LINE
  8
0
 10
77.0253
 20
-32.4332
 11
77.1258
 21
-32.4694
  0
LINE
  8
0
 10
77.1258
 20
-32.4694
 11
77.2238
 21
-32.5118
  0
LINE
  8
0
 10
77.2238
 20
-32.5118
 11
77.319
 21
-32.5603
  0
LINE
  8
0
 10
77.319
 20
-32.5603
 11
77.4109
 21
-32.6146
  0
LINE
  8
0
 10
77.4109
 20
-32.6146
 11
77.4992
 21
-32.6747
  0
LINE
  8
0
 10
77.4992
 20
-32.6747
 11
77.5836
 21
-32.7401
  0
LINE
  8
0
 10
77.5836
 20
-32.7401
 11
77.6637
 21
-32.8107
  0
LINE
  8
0
 10
77.6637
 20
-32.8107
 11
77.7392
 21
-32.8863
  0
LINE
  8
0
 10
77.7392
 20
-32.8863
 11
77.8099
 21
-32.9664
  0
LINE
  8
0
 10
77.8099
 20
-32.9664
 11
77.8753
 21
-33.0508
  0
LINE
  8
0
 10
77.8753
 20
-33.0508
 11
77.9353
 21
-33.1391
  0
LINE
  8
0
 10
77.9353
 20
-33.1391
 11
77.9897
 21
-33.231
  0
LINE
  8
0
 10
77.9897
 20
-33.231
 11
78.0382
 21
-33.3262
  0
LINE
  8
0
 10
78.0382
 20
-33.3262
 11
78.0806
 21
-33.4242
  0
LINE
  8
0
 10
78.0806
 20
-33.4242
 11
78.1168
 21
-33.5247
  0
LINE
  8
0
 10
78.1168
 20
-33.5247
 11
78.1466
 21
-33.6272
  0
LINE
  8
0
 10
78.1466
 20
-33.6272
 11
78.1699
 21
-33.7314
  0
LINE
  8
0
 10
78.1699
 20
-33.7314
 11
78.1866
 21
-33.8369
  0
LINE
  8
0
 10
78.1866
 20
-33.8369
 11
78.1966
 21
-33.9433
  0
LINE
  8
0
 10
78.1966
 20
-33.9433
 11
78.2
 21
-34.05
  0
LINE
  8
0
 10
78.2
 20
-34.05
 11
78.1966
 21
-34.1567
  0
LINE
  8
0
 10
78.1966
 20
-34.1567
 11
78.1866
 21
-34.2631
  0
LINE
  8
0
 10
78.1866
 20
-34.2631
 11
78.1699
 21
-34.3685
  0
LINE
  8
0
 10
78.1699
 20
-34.3685
 11
78.1466
 21
-34.4728
  0
LINE
  8
0
 10
78.1466
 20
-34.4728
 11
78.1168
 21
-34.5753
  0
LINE
  8
0
 10
78.1168
 20
-34.5753
 11
78.0806
 21
-34.6758
  0
LINE
  8
0
 10
78.0806
 20
-34.6758
 11
78.0382
 21
-34.7738
  0
LINE
  8
0
 10
78.0382
 20
-34.7738
 11
77.9897
 21
-34.869
  0
LINE
  8
0
 10
77.9897
 20
-34.869
 11
77.9353
 21
-34.9609
  0
LINE
  8
0
 10
77.9353
 20
-34.9609
 11
77.8753
 21
-35.0492
  0
LINE
  8
0
 10
77.8753
 20
-35.0492
 11
77.8099
 21
-35.1336
  0
LINE
  8
0
 10
77.8099
 20
-35.1336
 11
77.7392
 21
-35.2137
  0
LINE
  8
0
 10
77.7392
 20
-35.2137
 11
77.6637
 21
-35.2892
  0
LINE
  8
0
 10
77.6637
 20
-35.2892
 11
77.5836
 21
-35.3599
  0
LINE
  8
0
 10
77.5836
 20
-35.3599
 11
77.4992
 21
-35.4253
  0
LINE
  8
0
 10
77.4992
 20
-35.4253
 11
77.4109
 21
-35.4854
  0
LINE
  8
0
 10
77.4109
 20
-35.4854
 11
77.319
 21
-35.5397
  0
LINE
  8
0
 10
77.319
 20
-35.5397
 11
77.2238
 21
-35.5882
  0
LINE
  8
0
 10
77.2238
 20
-35.5882
 11
77.1258
 21
-35.6306
  0
LINE
  8
0
 10
77.1258
 20
-35.6306
 11
77.0253
 21
-35.6668
  0
LINE
  8
0
 10
77.0253
 20
-35.6668
 11
76.9228
 21
-35.6966
  0
LINE
  8
0
 10
76.9228
 20
-35.6966
 11
76.8185
 21
-35.7199
  0
LINE
  8
0
 10
76.8185
 20
-35.7199
 11
76.7131
 21
-35.7366
  0
LINE
  8
0
 10
76.7131
 20
-35.7366
 11
76.6067
 21
-35.7466
  0
LINE
  8
0
 10
76.6067
 20
-35.7466
 11
76.5
 21
-35.75
  0
LINE
  8
0
 10
76.5
 20
-35.75
 11
76.3932
 21
-35.7466
  0
LINE
  8
0
 10
-19.1667
 20
-9.25
 11
0
 21
-9.25
  0
LINE
  8
0
 10
0
 20
-9.25
 11
0
 21
-12.25
  0
LINE
  8
0
 10
0
 20
-12.25
 11
19.1667
 21
-12.25
  0
LINE
  8
0
 10
19.1667
 20
-12.25
 11
19.1667
 21
-9.25
  0
LINE
  8
0
 10
19.1667
 20
-9.25
 11
38.3333
 21
-9.25
  0
LINE
  8
0
 10
38.3333
 20
-9.25
 11
38.3333
 21
-12.25
  0
LINE
  8
0
 10
38.3333
 20
-12.25
 11
57.5
 21
-12.25
  0
LINE
  8
0
 10
57.5
 20
-12.25
 11
57.5
 21
-6.16666
  0
LINE
  8
0
 10
57.5
 20
-6.16666
 11
60.5
 21
-6.16666
  0
LINE
  8
0
 10
60.5
 20
-6.16666
 11
60.5
 21
-3.08333
  0
LINE
  8
0
 10
60.5
 20
-3.08333
 11
57.5
 21
-3.08333
  0
LINE
  8
0
 10
57.5
 20
-3.08333
 11
57.5
 21
0
  0
LINE
  8
0
 10
57.5
 20
0
 11
60.5
 21
0
  0
LINE
  8
0
 10
60.5
 20
0
 11
60.5
 21
3.08331
  0
LINE
  8
0
 10
60.5
 20
3.08331
 11
57.5
 21
3.08331
  0
LINE
  8
0
 10
57.5
 20
3.08331
 11
57.5
 21
6.16664
  0
LINE
  8
0
 10
57.5
 20
6.16664
 11
60.5
 21
6.16664
  0
LINE
  8
0
 10
60.5
 20
6.16664
 11
60.5
 21
9.24997
  0
LINE
  8
0
 10
60.5
 20
9.24997
 11
38.3333
 21
9.25
  0
LINE
  8
0
 10
38.3333
 20
9.25
 11
38.3333
 21
12.25
  0
LINE
  8
0
 10
38.3333
 20
12.25
 11
19.1667
 21
12.25
  0
LINE
  8
0
 10
19.1667
 20
12.25
 11
19.1667
 21
9.25
  0
LINE
  8
0
 10
19.1667
 20
9.25
 11
0
 21
9.25
  0
LINE
  8
0
 10
0
 20
9.25
 11
0
 21
12.25
  0
LINE
  8
0
 10
0
 20
12.25
 11
-19.1667
 21
12.25
  0
LINE
  8
0
 10
-19.1667
 20
12.25
 11
-19.1667
 21
9.25
  0
LINE
  8
0
 10
-19.1667
 20
9.25
 11
-38.3333
 21
9.25
  0
LINE
  8
0
 10
-38.3333
 20
9.25
 11
-38.3333
 21
12.25
  0
LINE
  8
0
 10
-38.3333
 20
12.25
 11
-57.5
 21
12.25
  0
LINE
  8
0
 10
-57.5
 20
12.25
 11
-57.5
 21
6.16664
  0
LINE
  8
0
 10
-57.5
 20
6.16664
 11
-60.5
 21
6.16664
  0
LINE
  8
0
 10
-60.5
 20
6.16664
 11
-60.5
 21
3.08331
  0
LINE
  8
0
 10
-60.5
 20
3.08331
 11
-57.5
 21
3.08331
  0
LINE
  8
0
 10
-57.5
 20
3.08331
 11
-57.5
 21
0
  0
LINE
  8
0
 10
-57.5
 20
0
 11
-60.5
 21
0
  0
LINE
  8
0
 10
-60.5
 20
0
 11
-60.5
 21
-3.08334
  0
LINE
  8
0
 10
-60.5
 20
-3.08334
 11
-57.5
 21
-3.08334
  0
LINE
  8
0
 10
-57.5
 20
-3.08334
 11
-57.5
 21
-6.16667
  0
LINE
  8
0
 10
-57.5
 20
-6.16667
 11
-60.5
 21
-6.16667
  0
LINE
  8
0
 10
-60.5
 20
-6.16667
 11
-60.5
 21
-9.25
  0
LINE
  8
0
 10
-60.5
 20
-9.25
 11
-38.3333
 21
-9.25
  0
LINE
  8
0
 10
-38.3333
 20
-9.25
 11
-38.3333
 21
-12.25
  0
LINE
  8
0
 10
-38.3333
 20
-12.25
 11
-19.1667
 21
-12.25
  0
LINE
  8
0
 10
-19.1667
 20
-12.25
 11
-19.1667
 21
-9.25
  0
LINE
  8
0
 10
35
 20
-5.15001
 11
35
 21
5.84999
  0
LINE
  8
0
 10
35
 20
5.84999
 11
44
 21
5.84999
  0
LINE
  8
0
 10
44
 20
5.84999
 11
44
 21
-5.15001
  0
LINE
  8
0
 10
44
 20
-5.15001
 11
35
 21
-5.15001
  0
LINE
  8
0
 10
-46.6328
 20
-4.73955
 11
-46.9643
 21
-4.70822
  0
LINE
  8
0
 10
-46.9643
 20
-4.70822
 11
-47.2931
 21
-4.65613
  0
LINE
  8
0
 10
-47.2931
 20
-4.65613
 11
-47.6181
 21
-4.5835
  0
LINE
  8
0
 10
-47.6181
 20
-4.5835
 11
-47.9378
 21
-4.4906
  0
LINE
  8
0
 10
-47.9378
 20
-4.4906
 11
-48.2511
 21
-4.37782
  0
LINE
  8
0
 10
-48.2511
 20
-4.37782
 11
-48.5566
 21
-4.24559
  0
LINE
  8
0
 10
-48.5566
 20
-4.24559
 11
-48.8533
 21
-4.09444
  0
LINE
  8
0
 10
-48.8533
 20
-4.09444
 11
-49.1399
 21
-3.92494
  0
LINE
  8
0
 10
-49.1399
 20
-3.92494
 11
-49.4153
 21
-3.73779
  0
LINE
  8
0
 10
-49.4153
 20
-3.73779
 11
-49.6784
 21
-3.53372
  0
LINE
  8
0
 10
-49.6784
 20
-3.53372
 11
-49.9281
 21
-3.31354
  0
LINE
  8
0
 10
-49.9281
 20
-3.31354
 11
-50.1635
 21
-3.07811
  0
LINE
  8
0
 10
-50.1635
 20
-3.07811
 11
-50.3837
 21
-2.82835
  0
LINE
  8
0
 10
-50.3837
 20
-2.82835
 11
-50.5878
 21
-2.56526
  0
LINE
  8
0
 10
-50.5878
 20
-2.56526
 11
-50.7749
 21
-2.28989
  0
LINE
  8
0
 10
-50.7749
 20
-2.28989
 11
-50.9444
 21
-2.0033
  0
LINE
  8
0
 10
-50.9444
 20
-2.0033
 11
-51.0956
 21
-1.70663
  0
LINE
  8
0
 10
-51.0956
 20
-1.70663
 11
-51.2278
 21
-1.40106
  0
LINE
  8
0
 10
-51.2278
 20
-1.40106
 11
-51.3406
 21
-1.0878
  0
LINE
  8
0
 10
-51.3406
 20
-1.0878
 11
-51.4335
 21
-0.768066
  0
LINE
  8
0
 10
-51.4335
 20
-0.768066
 11
-51.5061
 21
-0.44313
  0
LINE
  8
0
 10
-51.5061
 20
-0.44313
 11
-51.5582
 21
-0.114273
  0
LINE
  8
0
 10
-51.5582
 20
-0.114273
 11
-51.5896
 21
0.217209
  0
LINE
  8
0
 10
-51.5896
 20
0.217209
 11
-51.6
 21
0.549988
  0
LINE
  8
0
 10
-51.6
 20
0.549988
 11
-51.5896
 21
0.882782
  0
LINE
  8
0
 10
-51.5896
 20
0.882782
 11
-51.5582
 21
1.21426
  0
LINE
  8
0
 10
-51.5582
 20
1.21426
 11
-51.5061
 21
1.54311
  0
LINE
  8
0
 10
-51.5061
 20
1.54311
 11
-51.4335
 21
1.86804
  0
LINE
  8
0
 10
-51.4335
 20
1.86804
 11
-51.3406
 21
2.18779
  0
LINE
  8
0
 10
-51.3406
 20
2.18779
 11
-51.2278
 21
2.50105
  0
LINE
  8
0
 10
-51.2278
 20
2.50105
 11
-51.0956
 21
2.80663
  0
LINE
  8
0
 10
-51.0956
 20
2.80663
 11
-50.9444
 21
3.10329
  0
LINE
  8
0
 10
-50.9444
 20
3.10329
 11
-50.7749
 21
3.38988
  0
LINE
  8
0
 10
-50.7749
 20
3.38988
 11
-50.5878
 21
3.66525
  0
LINE
  8
0
 10
-50.5878
 20
3.66525
 11
-50.3837
 21
3.92834
  0
LINE
  8
0
 10
-50.3837
 20
3.92834
 11
-50.1635
 21
4.17809
  0
LINE
  8
0
 10
-50.1635
 20
4.17809
 11
-49.9281
 21
4.41353
  0
LINE
  8
0
 10
-49.9281
 20
4.41353
 11
-49.6784
 21
4.63371
  0
LINE
  8
0
 10
-49.6784
 20
4.63371
 11
-49.4153
 21
4.83778
  0
LINE
  8
0
 10
-49.4153
 20
4.83778
 11
-49.1399
 21
5.02493
  0
LINE
  8
0
 10
-49.1399
 20
5.02493
 11
-48.8533
 21
5.19441
  0
LINE
  8
0
 10
-48.8533
 20
5.19441
 11
-48.5566
 21
5.34558
  0
LINE
  8
0
 10
-48.5566
 20
5.34558
 11
-48.2511
 21
5.47781
  0
LINE
  8
0
 10
-48.2511
 20
5.47781
 11
-47.9378
 21
5.59059
  0
LINE
  8
0
 10
-47.9378
 20
5.59059
 11
-47.6181
 21
5.68349
  0
LINE
  8
0
 10
-47.6181
 20
5.68349
 11
-47.2931
 21
5.75612
  0
LINE
  8
0
 10
-47.2931
 20
5.75612
 11
-46.9643
 21
5.8082
  0
LINE
  8
0
 10
-46.9643
 20
5.8082
 11
-46.6328
 21
5.83954
  0
LINE
  8
0
 10
-46.6328
 20
5.83954
 11
-46.3
 21
5.84999
  0
LINE
  8
0
 10
-46.3
 20
5.84999
 11
-45.9672
 21
5.83954
  0
LINE
  8
0
 10
-45.9672
 20
5.83954
 11
-45.6357
 21
5.8082
  0
LINE
  8
0
 10
-45.6357
 20
5.8082
 11
-45.3069
 21
5.75612
  0
LINE
  8
0
 10
-45.3069
 20
5.75612
 11
-44.9819
 21
5.68349
  0
LINE
  8
0
 10
-44.9819
 20
5.68349
 11
-44.6622
 21
5.59059
  0
LINE
  8
0
 10
-44.6622
 20
5.59059
 11
-44.349
 21
5.47781
  0
LINE
  8
0
 10
-44.349
 20
5.47781
 11
-44.0434
 21
5.34558
  0
LINE
  8
0
 10
-44.0434
 20
5.34558
 11
-43.7467
 21
5.19441
  0
LINE
  8
0
 10
-43.7467
 20
5.19441
 11
-43.4601
 21
5.02493
  0
LINE
  8
0
 10
-43.4601
 20
5.02493
 11
-43.1848
 21
4.83778
  0
LINE
  8
0
 10
-43.1848
 20
4.83778
 11
-42.9217
 21
4.63371
  0
LINE
  8
0
 10
-42.9217
 20
4.63371
 11
-42.6719
 21
4.41353
  0
LINE
  8
0
 10
-42.6719
 20
4.41353
 11
-42.4365
 21
4.17809
  0
LINE
  8
0
 10
-42.4365
 20
4.17809
 11
-42.2163
 21
3.92834
  0
LINE
  8
0
 10
-42.2163
 20
3.92834
 11
-42.0122
 21
3.66525
  0
LINE
  8
0
 10
-42.0122
 20
3.66525
 11
-41.8251
 21
3.38988
  0
LINE
  8
0
 10
-41.8251
 20
3.38988
 11
-41.6556
 21
3.10329
  0
LINE
  8
0
 10
-41.6556
 20
3.10329
 11
-41.5044
 21
2.80663
  0
LINE
  8
0
 10
-41.5044
 20
2.80663
 11
-41.3722
 21
2.50105
  0
LINE
  8
0
 10
-41.3722
 20
2.50105
 11
-41.2594
 21
2.18779
  0
LINE
  8
0
 10
-41.2594
 20
2.18779
 11
-41.1665
 21
1.86804
  0
LINE
  8
0
 10
-41.1665
 20
1.86804
 11
-41.0939
 21
1.54311
  0
LINE
  8
0
 10
-41.0939
 20
1.54311
 11
-41.0418
 21
1.21426
  0
LINE
  8
0
 10
-41.0418
 20
1.21426
 11
-41.0105
 21
0.882782
  0
LINE
  8
0
 10
-41.0105
 20
0.882782
 11
-41
 21
0.549988
  0
LINE
  8
0
 10
-41
 20
0.549988
 11
-41.0105
 21
0.217209
  0
LINE
  8
0
 10
-41.0105
 20
0.217209
 11
-41.0418
 21
-0.114273
  0
LINE
  8
0
 10
-41.0418
 20
-0.114273
 11
-41.0939
 21
-0.44313
  0
LINE
  8
0
 10
-41.0939
 20
-0.44313
 11
-41.1665
 21
-0.768066
  0
LINE
  8
0
 10
-41.1665
 20
-0.768066
 11
-41.2594
 21
-1.0878
  0
LINE
  8
0
 10
-41.2594
 20
-1.0878
 11
-41.3722
 21
-1.40106
  0
LINE
  8
0
 10
-41.3722
 20
-1.40106
 11
-41.5044
 21
-1.70663
  0
LINE
  8
0
 10
-41.5044
 20
-1.70663
 11
-41.6556
 21
-2.0033
  0
LINE
  8
0
 10
-41.6556
 20
-2.0033
 11
-41.8251
 21
-2.28989
  0
LINE
  8
0
 10
-41.8251
 20
-2.28989
 11
-42.0122
 21
-2.56526
  0
LINE
  8
0
 10
-42.0122
 20
-2.56526
 11
-42.2163
 21
-2.82835
  0
LINE
  8
0
 10
-42.2163
 20
-2.82835
 11
-42.4365
 21
-3.07811
  0
LINE
  8
0
 10
-42.4365
 20
-3.07811
 11
-42.6719
 21
-3.31354
  0
LINE
  8
0
 10
-42.6719
 20
-3.31354
 11
-42.9217
 21
-3.53372
  0
LINE
  8
0
 10
-42.9217
 20
-3.53372
 11
-43.1848
 21
-3.73779
  0
LINE
  8
0
 10
-43.1848
 20
-3.73779
 11
-43.4601
 21
-3.92494
  0
LINE
  8
0
 10
-43.4601
 20
-3.92494
 11
-43.7467
 21
-4.09444
  0
LINE
  8
0
 10
-43.7467
 20
-4.09444
 11
-44.0434
 21
-4.24559
  0
LINE
  8
0
 10
-44.0434
 20
-4.24559
 11
-44.349
 21
-4.37782
  0
LINE
  8
0
 10
-44.349
 20
-4.37782
 11
-44.6622
 21
-4.4906
  0
LINE
  8
0
 10
-44.6622
 20
-4.4906
 11
-44.9819
 21
-4.5835
  0
LINE
  8
0
 10
-44.9819
 20
-4.5835
 11
-45.3069
 21
-4.65613
  0
LINE
  8
0
 10
-45.3069
 20
-4.65613
 11
-45.6357
 21
-4.70822
  0
LINE
  8
0
 10
-45.6357
 20
-4.70822
 11
-45.9672
 21
-4.73955
  0
LINE
  8
0
 10
-45.9672
 20
-4.73955
 11
-46.3
 21
-4.75
  0
LINE
  8
0
 10
-46.3
 20
-4.75
 11
-46.6328
 21
-4.73955
  0
LINE
  8
0
 10
-19.1667
 20
-43.75
 11
0
 21
-43.75
  0
LINE
  8
0
 10
0
 20
-43.75
 11
0
 21
-46.75
  0
LINE
  8
0
 10
0
 20
-46.75
 11
19.1667
 21
-46.75
  0
LINE
  8
0
 10
19.1667
 20
-46.75
 11
19.1667
 21
-43.75
  0
LINE
  8
0
 10
19.1667
 20
-43.75
 11
38.3333
 21
-43.75
  0
LINE
  8
0
 10
38.3333
 20
-43.75
 11
38.3333
 21
-46.75
  0
LINE
  8
0
 10
38.3333
 20
-46.75
 11
57.5
 21
-46.75
  0
LINE
  8
0
 10
57.5
 20
-46.75
 11
57.5
 21
-40.6667
  0
LINE
  8
0
 10
57.5
 20
-40.6667
 11
60.5
 21
-40.6667
  0
LINE
  8
0
 10
60.5
 20
-40.6667
 11
60.5
 21
-37.5833
  0
LINE
  8
0
 10
60.5
 20
-37.5833
 11
57.5
 21
-37.5833
  0
LINE
  8
0
 10
57.5
 20
-37.5833
 11
57.5
 21
-34.5
  0
LINE
  8
0
 10
57.5
 20
-34.5
 11
60.5
 21
-34.5
  0
LINE
  8
0
 10
60.5
 20
-34.5
 11
60.5
 21
-31.4167
  0
LINE
  8
0
 10
60.5
 20
-31.4167
 11
57.5
 21
-31.4167
  0
LINE
  8
0
 10
57.5
 20
-31.4167
 11
57.5
 21
-28.3334
  0
LINE
  8
0
 10
57.5
 20
-28.3334
 11
60.5
 21
-28.3334
  0
LINE
  8
0
 10
60.5
 20
-28.3334
 11
60.5
 21
-25.25
  0
LINE
  8
0
 10
60.5
 20
-25.25
 11
38.3333
 21
-25.25
  0
LINE
  8
0
 10
38.3333
 20
-25.25
 11
38.3333
 21
-22.25
  0
LINE
  8
0
 10
38.3333
 20
-22.25
 11
19.1667
 21
-22.25
  0
LINE
  8
0
 10
19.1667
 20
-22.25
 11
19.1667
 21
-25.25
  0
LINE
  8
0
 10
19.1667
 20
-25.25
 11
0
 21
-25.25
  0
LINE
  8
0
 10
0
 20
-25.25
 11
0
 21
-22.25
  0
LINE
  8
0
 10
0
 20
-22.25
 11
-19.1667
 21
-22.25
  0
LINE
  8
0
 10
-19.1667
 20
-22.25
 11
-19.1667
 21
-25.25
  0
LINE
  8
0
 10
-19.1667
 20
-25.25
 11
-38.3333
 21
-25.25
  0
LINE
  8
0
 10
-38.3333
 20
-25.25
 11
-38.3333
 21
-22.25
  0
LINE
  8
0
 10
-38.3333
 20
-22.25
 11
-57.5
 21
-22.25
  0
LINE
  8
0
 10
-57.5
 20
-22.25
 11
-57.5
 21
-28.3334
  0
LINE
  8
0
 10
-57.5
 20
-28.3334
 11
-60.5
 21
-28.3334
  0
LINE
  8
0
 10
-60.5
 20
-28.3334
 11
-60.5
 21
-31.4167
  0
LINE
  8
0
 10
-60.5
 20
-31.4167
 11
-57.5
 21
-31.4167
  0
LINE
  8
0
 10
-57.5
 20
-31.4167
 11
-57.5
 21
-34.5
  0
LINE
  8
0
 10
-57.5
 20
-34.5
 11
-60.5
 21
-34.5
  0
LINE
  8
0
 10
-60.5
 20
-34.5
 11
-60.5
 21
-37.5833
  0
LINE
  8
0
 10
-60.5
 20
-37.5833
 11
-57.5
 21
-37.5833
  0
LINE
  8
0
 10
-57.5
 20
-37.5833
 11
-57.5
 21
-40.6667
  0
LINE
  8
0
 10
-57.5
 20
-40.6667
 11
-60.5
 21
-40.6667
  0
LINE
  8
0
 10
-60.5
 20
-40.6667
 11
-60.5
 21
-43.75
  0
LINE
  8
0
 10
-60.5
 20
-43.75
 11
-38.3333
 21
-43.75
  0
LINE
  8
0
 10
-38.3333
 20
-43.75
 11
-38.3333
 21
-46.75
  0
LINE
  8
0
 10
-38.3333
 20
-46.75
 11
-19.1667
 21
-46.75
  0
LINE
  8
0
 10
-19.1667
 20
-46.75
 11
-19.1667
 21
-43.75
  0
LINE
  8
0
 10
209.167
 20
-134.05
 11
212.25
 21
-134.05
  0
LINE
  8
0
 10
212.25
 20
-134.05
 11
212.25
 21
-137.05
  0
LINE
  8
0
 10
212.25
 20
-137.05
 11
215.333
 21
-137.05
  0
LINE
  8
0
 10
215.333
 20
-137.05
 11
215.333
 21
-134.05
  0
LINE
  8
0
 10
215.333
 20
-134.05
 11
218.417
 21
-134.05
  0
LINE
  8
0
 10
218.417
 20
-134.05
 11
218.417
 21
-137.05
  0
LINE
  8
0
 10
218.417
 20
-137.05
 11
221.5
 21
-137.05
  0
LINE
  8
0
 10
221.5
 20
-137.05
 11
221.5
 21
-120.933
  0
LINE
  8
0
 10
221.5
 20
-120.933
 11
224.5
 21
-120.933
  0
LINE
  8
0
 10
224.5
 20
-120.933
 11
224.5
 21
-107.817
  0
LINE
  8
0
 10
224.5
 20
-107.817
 11
221.5
 21
-107.817
  0
LINE
  8
0
 10
221.5
 20
-107.817
 11
221.5
 21
-94.7
  0
LINE
  8
0
 10
221.5
 20
-94.7
 11
224.5
 21
-94.7
  0
LINE
  8
0
 10
224.5
 20
-94.7
 11
224.5
 21
-81.5833
  0
LINE
  8
0
 10
224.5
 20
-81.5833
 11
221.5
 21
-81.5833
  0
LINE
  8
0
 10
221.5
 20
-81.5833
 11
221.5
 21
-68.4667
  0
LINE
  8
0
 10
221.5
 20
-68.4667
 11
224.5
 21
-68.4667
  0
LINE
  8
0
 10
224.5
 20
-68.4667
 11
224.5
 21
-55.35
  0
LINE
  8
0
 10
224.5
 20
-55.35
 11
218.417
 21
-55.35
  0
LINE
  8
0
 10
218.417
 20
-55.35
 11
218.417
 21
-52.35
  0
LINE
  8
0
 10
218.417
 20
-52.35
 11
215.333
 21
-52.35
  0
LINE
  8
0
 10
215.333
 20
-52.35
 11
215.333
 21
-55.35
  0
LINE
  8
0
 10
215.333
 20
-55.35
 11
212.25
 21
-55.35
  0
LINE
  8
0
 10
212.25
 20
-55.35
 11
212.25
 21
-52.35
  0
LINE
  8
0
 10
212.25
 20
-52.35
 11
209.167
 21
-52.35
  0
LINE
  8
0
 10
209.167
 20
-52.35
 11
209.167
 21
-55.35
  0
LINE
  8
0
 10
209.167
 20
-55.35
 11
206.083
 21
-55.35
  0
LINE
  8
0
 10
206.083
 20
-55.35
 11
206.083
 21
-52.35
  0
LINE
  8
0
 10
206.083
 20
-52.35
 11
203
 21
-52.35
  0
LINE
  8
0
 10
203
 20
-52.35
 11
203
 21
-68.4667
  0
LINE
  8
0
 10
203
 20
-68.4667
 11
200
 21
-68.4667
  0
LINE
  8
0
 10
200
 20
-68.4667
 11
200
 21
-81.5833
  0
LINE
  8
0
 10
200
 20
-81.5833
 11
203
 21
-81.5833
  0
LINE
  8
0
 10
203
 20
-81.5833
 11
203
 21
-94.7
  0
LINE
  8
0
 10
203
 20
-94.7
 11
200
 21
-94.7
  0
LINE
  8
0
 10
200
 20
-94.7
 11
200
 21
-107.817
  0
LINE
  8
0
 10
200
 20
-107.817
 11
203
 21
-107.817
  0
LINE
  8
0
 10
203
 20
-107.817
 11
203
 21
-120.933
  0
LINE
  8
0
 10
203
 20
-120.933
 11
200
 21
-120.933
  0
LINE
  8
0
 10
200
 20
-120.933
 11
200
 21
-134.05
  0
LINE
  8
0
 10
200
 20
-134.05
 11
206.083
 21
-134.05
  0
LINE
  8
0
 10
206.083
 20
-134.05
 11
206.083
 21
-137.05
  0
LINE
  8
0
 10
206.083
 20
-137.05
 11
209.167
 21
-137.05
  0
LINE
  8
0
 10
209.167
 20
-137.05
 11
209.167
 21
-134.05
  0
LINE
  8
0
 10
109.333
 20
-137.05
 11
128.5
 21
-137.05
  0
LINE
  8
0
 10
128.5
 20
-137.05
 11
128.5
 21
-140.05
  0
LINE
  8
0
 10
128.5
 20
-140.05
 11
147.667
 21
-140.05
  0
LINE
  8
0
 10
147.667
 20
-140.05
 11
147.667
 21
-137.05
  0
LINE
  8
0
 10
147.667
 20
-137.05
 11
166.833
 21
-137.05
  0
LINE
  8
0
 10
166.833
 20
-137.05
 11
166.833
 21
-140.05
  0
LINE
  8
0
 10
166.833
 20
-140.05
 11
186
 21
-140.05
  0
LINE
  8
0
 10
186
 20
-140.05
 11
186
 21
-123.933
  0
LINE
  8
0
 10
186
 20
-123.933
 11
189
 21
-123.933
  0
LINE
  8
0
 10
189
 20
-123.933
 11
189
 21
-110.817
  0
LINE
  8
0
 10
189
 20
-110.817
 11
186
 21
-110.817
  0
LINE
  8
0
 10
186
 20
-110.817
 11
186
 21
-97.7
  0
LINE
  8
0
 10
186
 20
-97.7
 11
189
 21
-97.7
  0
LINE
  8
0
 10
189
 20
-97.7
 11
189
 21
-84.5834
  0
LINE
  8
0
 10
189
 20
-84.5834
 11
186
 21
-84.5834
  0
LINE
  8
0
 10
186
 20
-84.5834
 11
186
 21
-71.4667
  0
LINE
  8
0
 10
186
 20
-71.4667
 11
189
 21
-71.4667
  0
LINE
  8
0
 10
189
 20
-71.4667
 11
189
 21
-58.35
  0
LINE
  8
0
 10
189
 20
-58.35
 11
166.833
 21
-58.35
  0
LINE
  8
0
 10
166.833
 20
-58.35
 11
166.833
 21
-55.35
  0
LINE
  8
0
 10
166.833
 20
-55.35
 11
147.667
 21
-55.35
  0
LINE
  8
0
 10
147.667
 20
-55.35
 11
147.667
 21
-58.35
  0
LINE
  8
0
 10
147.667
 20
-58.35
 11
128.5
 21
-58.35
  0
LINE
  8
0
 10
128.5
 20
-58.35
 11
128.5
 21
-55.35
  0
LINE
  8
0
 10
128.5
 20
-55.35
 11
109.333
 21
-55.35
  0
LINE
  8
0
 10
109.333
 20
-55.35
 11
109.333
 21
-58.35
  0
LINE
  8
0
 10
109.333
 20
-58.35
 11
90.1667
 21
-58.35
  0
LINE
  8
0
 10
90.1667
 20
-58.35
 11
90.1667
 21
-55.35
  0
LINE
  8
0
 10
90.1667
 20
-55.35
 11
71
 21
-55.35
  0
LINE
  8
0
 10
71
 20
-55.35
 11
71
 21
-71.4667
  0
LINE
  8
0
 10
71
 20
-71.4667
 11
68
 21
-71.4667
  0
LINE
  8
0
 10
68
 20
-71.4667
 11
68
 21
-84.5834
  0
LINE
  8
0
 10
68
 20
-84.5834
 11
71
 21
-84.5834
  0
LINE
  8
0
 10
71
 20
-84.5834
 11
71
 21
-97.7
  0
LINE
  8
0
 10
71
 20
-97.7
 11
68
 21
-97.7
  0
LINE
  8
0
 10
68
 20
-97.7
 11
68
 21
-110.817
  0
LINE
  8
0
 10
68
 20
-110.817
 11
71
 21
-110.817
  0
LINE
  8
0
 10
71
 20
-110.817
 11
71
 21
-123.933
  0
LINE
  8
0
 10
71
 20
-123.933
 11
68
 21
-123.933
  0
LINE
  8
0
 10
68
 20
-123.933
 11
68
 21
-137.05
  0
LINE
  8
0
 10
68
 20
-137.05
 11
90.1667
 21
-137.05
  0
LINE
  8
0
 10
90.1667
 20
-137.05
 11
90.1667
 21
-140.05
  0
LINE
  8
0
 10
90.1667
 20
-140.05
 11
109.333
 21
-140.05
  0
LINE
  8
0
 10
109.333
 20
-140.05
 11
109.333
 21
-137.05
  0
LINE
  8
0
 10
183.293
 20
-66.7467
 11
183.187
 21
-66.7366
  0
LINE
  8
0
 10
183.187
 20
-66.7366
 11
183.081
 21
-66.7199
  0
LINE
  8
0
 10
183.081
 20
-66.7199
 11
182.977
 21
-66.6966
  0
LINE
  8
0
 10
182.977
 20
-66.6966
 11
182.875
 21
-66.6668
  0
LINE
  8
0
 10
182.875
 20
-66.6668
 11
182.774
 21
-66.6306
  0
LINE
  8
0
 10
182.774
 20
-66.6306
 11
182.676
 21
-66.5882
  0
LINE
  8
0
 10
182.676
 20
-66.5882
 11
182.581
 21
-66.5397
  0
LINE
  8
0
 10
182.581
 20
-66.5397
 11
182.489
 21
-66.4854
  0
LINE
  8
0
 10
182.489
 20
-66.4854
 11
182.401
 21
-66.4253
  0
LINE
  8
0
 10
182.401
 20
-66.4253
 11
182.316
 21
-66.3599
  0
LINE
  8
0
 10
182.316
 20
-66.3599
 11
182.236
 21
-66.2893
  0
LINE
  8
0
 10
182.236
 20
-66.2893
 11
182.161
 21
-66.2137
  0
LINE
  8
0
 10
182.161
 20
-66.2137
 11
182.09
 21
-66.1336
  0
LINE
  8
0
 10
182.09
 20
-66.1336
 11
182.025
 21
-66.0492
  0
LINE
  8
0
 10
182.025
 20
-66.0492
 11
181.965
 21
-65.9609
  0
LINE
  8
0
 10
181.965
 20
-65.9609
 11
181.91
 21
-65.869
  0
LINE
  8
0
 10
181.91
 20
-65.869
 11
181.862
 21
-65.7738
  0
LINE
  8
0
 10
181.862
 20
-65.7738
 11
181.819
 21
-65.6758
  0
LINE
  8
0
 10
181.819
 20
-65.6758
 11
181.783
 21
-65.5753
  0
LINE
  8
0
 10
181.783
 20
-65.5753
 11
181.753
 21
-65.4728
  0
LINE
  8
0
 10
181.753
 20
-65.4728
 11
181.73
 21
-65.3686
  0
LINE
  8
0
 10
181.73
 20
-65.3686
 11
181.713
 21
-65.2631
  0
LINE
  8
0
 10
181.713
 20
-65.2631
 11
181.703
 21
-65.1568
  0
LINE
  8
0
 10
181.703
 20
-65.1568
 11
181.7
 21
-65.05
  0
LINE
  8
0
 10
181.7
 20
-65.05
 11
181.703
 21
-64.9433
  0
LINE
  8
0
 10
181.703
 20
-64.9433
 11
181.713
 21
-64.8369
  0
LINE
  8
0
 10
181.713
 20
-64.8369
 11
181.73
 21
-64.7315
  0
LINE
  8
0
 10
181.73
 20
-64.7315
 11
181.753
 21
-64.6272
  0
LINE
  8
0
 10
181.753
 20
-64.6272
 11
181.783
 21
-64.5247
  0
LINE
  8
0
 10
181.783
 20
-64.5247
 11
181.819
 21
-64.4242
  0
LINE
  8
0
 10
181.819
 20
-64.4242
 11
181.862
 21
-64.3262
  0
LINE
  8
0
 10
181.862
 20
-64.3262
 11
181.91
 21
-64.231
  0
LINE
  8
0
 10
181.91
 20
-64.231
 11
181.965
 21
-64.1391
  0
LINE
  8
0
 10
181.965
 20
-64.1391
 11
182.025
 21
-64.0508
  0
LINE
  8
0
 10
182.025
 20
-64.0508
 11
182.09
 21
-63.9664
  0
LINE
  8
0
 10
182.09
 20
-63.9664
 11
182.161
 21
-63.8863
  0
LINE
  8
0
 10
182.161
 20
-63.8863
 11
182.236
 21
-63.8108
  0
LINE
  8
0
 10
182.236
 20
-63.8108
 11
182.316
 21
-63.7401
  0
LINE
  8
0
 10
182.316
 20
-63.7401
 11
182.401
 21
-63.6747
  0
LINE
  8
0
 10
182.401
 20
-63.6747
 11
182.489
 21
-63.6147
  0
LINE
  8
0
 10
182.489
 20
-63.6147
 11
182.581
 21
-63.5603
  0
LINE
  8
0
 10
182.581
 20
-63.5603
 11
182.676
 21
-63.5118
  0
LINE
  8
0
 10
182.676
 20
-63.5118
 11
182.774
 21
-63.4694
  0
LINE
  8
0
 10
182.774
 20
-63.4694
 11
182.875
 21
-63.4332
  0
LINE
  8
0
 10
182.875
 20
-63.4332
 11
182.977
 21
-63.4034
  0
LINE
  8
0
 10
182.977
 20
-63.4034
 11
183.081
 21
-63.3801
  0
LINE
  8
0
 10
183.081
 20
-63.3801
 11
183.187
 21
-63.3634
  0
LINE
  8
0
 10
183.187
 20
-63.3634
 11
183.293
 21
-63.3534
  0
LINE
  8
0
 10
183.293
 20
-63.3534
 11
183.4
 21
-63.35
  0
LINE
  8
0
 10
183.4
 20
-63.35
 11
183.507
 21
-63.3534
  0
LINE
  8
0
 10
183.507
 20
-63.3534
 11
183.613
 21
-63.3634
  0
LINE
  8
0
 10
183.613
 20
-63.3634
 11
183.719
 21
-63.3801
  0
LINE
  8
0
 10
183.719
 20
-63.3801
 11
183.823
 21
-63.4034
  0
LINE
  8
0
 10
183.823
 20
-63.4034
 11
183.925
 21
-63.4332
  0
LINE
  8
0
 10
183.925
 20
-63.4332
 11
184.026
 21
-63.4694
  0
LINE
  8
0
 10
184.026
 20
-63.4694
 11
184.124
 21
-63.5118
  0
LINE
  8
0
 10
184.124
 20
-63.5118
 11
184.219
 21
-63.5603
  0
LINE
  8
0
 10
184.219
 20
-63.5603
 11
184.311
 21
-63.6147
  0
LINE
  8
0
 10
184.311
 20
-63.6147
 11
184.399
 21
-63.6747
  0
LINE
  8
0
 10
184.399
 20
-63.6747
 11
184.484
 21
-63.7401
  0
LINE
  8
0
 10
184.484
 20
-63.7401
 11
184.564
 21
-63.8108
  0
LINE
  8
0
 10
184.564
 20
-63.8108
 11
184.639
 21
-63.8863
  0
LINE
  8
0
 10
184.639
 20
-63.8863
 11
184.71
 21
-63.9664
  0
LINE
  8
0
 10
184.71
 20
-63.9664
 11
184.775
 21
-64.0508
  0
LINE
  8
0
 10
184.775
 20
-64.0508
 11
184.835
 21
-64.1391
  0
LINE
  8
0
 10
184.835
 20
-64.1391
 11
184.89
 21
-64.231
  0
LINE
  8
0
 10
184.89
 20
-64.231
 11
184.938
 21
-64.3262
  0
LINE
  8
0
 10
184.938
 20
-64.3262
 11
184.981
 21
-64.4242
  0
LINE
  8
0
 10
184.981
 20
-64.4242
 11
185.017
 21
-64.5247
  0
LINE
  8
0
 10
185.017
 20
-64.5247
 11
185.047
 21
-64.6272
  0
LINE
  8
0
 10
185.047
 20
-64.6272
 11
185.07
 21
-64.7315
  0
LINE
  8
0
 10
185.07
 20
-64.7315
 11
185.087
 21
-64.8369
  0
LINE
  8
0
 10
185.087
 20
-64.8369
 11
185.097
 21
-64.9433
  0
LINE
  8
0
 10
185.097
 20
-64.9433
 11
185.1
 21
-65.05
  0
LINE
  8
0
 10
185.1
 20
-65.05
 11
185.097
 21
-65.1568
  0
LINE
  8
0
 10
185.097
 20
-65.1568
 11
185.087
 21
-65.2631
  0
LINE
  8
0
 10
185.087
 20
-65.2631
 11
185.07
 21
-65.3686
  0
LINE
  8
0
 10
185.07
 20
-65.3686
 11
185.047
 21
-65.4728
  0
LINE
  8
0
 10
185.047
 20
-65.4728
 11
185.017
 21
-65.5753
  0
LINE
  8
0
 10
185.017
 20
-65.5753
 11
184.981
 21
-65.6758
  0
LINE
  8
0
 10
184.981
 20
-65.6758
 11
184.938
 21
-65.7738
  0
LINE
  8
0
 10
184.938
 20
-65.7738
 11
184.89
 21
-65.869
  0
LINE
  8
0
 10
184.89
 20
-65.869
 11
184.835
 21
-65.9609
  0
LINE
  8
0
 10
184.835
 20
-65.9609
 11
184.775
 21
-66.0492
  0
LINE
  8
0
 10
184.775
 20
-66.0492
 11
184.71
 21
-66.1336
  0
LINE
  8
0
 10
184.71
 20
-66.1336
 11
184.639
 21
-66.2137
  0
LINE
  8
0
 10
184.639
 20
-66.2137
 11
184.564
 21
-66.2893
  0
LINE
  8
0
 10
184.564
 20
-66.2893
 11
184.484
 21
-66.3599
  0
LINE
  8
0
 10
184.484
 20
-66.3599
 11
184.399
 21
-66.4253
  0
LINE
  8
0
 10
184.399
 20
-66.4253
 11
184.311
 21
-66.4854
  0
LINE
  8
0
 10
184.311
 20
-66.4854
 11
184.219
 21
-66.5397
  0
LINE
  8
0
 10
184.219
 20
-66.5397
 11
184.124
 21
-66.5882
  0
LINE
  8
0
 10
184.124
 20
-66.5882
 11
184.026
 21
-66.6306
  0
LINE
  8
0
 10
184.026
 20
-66.6306
 11
183.925
 21
-66.6668
  0
LINE
  8
0
 10
183.925
 20
-66.6668
 11
183.823
 21
-66.6966
  0
LINE
  8
0
 10
183.823
 20
-66.6966
 11
183.719
 21
-66.7199
  0
LINE
  8
0
 10
183.719
 20
-66.7199
 11
183.613
 21
-66.7366
  0
LINE
  8
0
 10
183.613
 20
-66.7366
 11
183.507
 21
-66.7467
  0
LINE
  8
0
 10
183.507
 20
-66.7467
 11
183.4
 21
-66.75
  0
LINE
  8
0
 10
183.4
 20
-66.75
 11
183.293
 21
-66.7467
  0
LINE
  8
0
 10
76.3932
 20
-66.7467
 11
76.2869
 21
-66.7366
  0
LINE
  8
0
 10
76.2869
 20
-66.7366
 11
76.1814
 21
-66.7199
  0
LINE
  8
0
 10
76.1814
 20
-66.7199
 11
76.0772
 21
-66.6966
  0
LINE
  8
0
 10
76.0772
 20
-66.6966
 11
75.9747
 21
-66.6668
  0
LINE
  8
0
 10
75.9747
 20
-66.6668
 11
75.8742
 21
-66.6306
  0
LINE
  8
0
 10
75.8742
 20
-66.6306
 11
75.7762
 21
-66.5882
  0
LINE
  8
0
 10
75.7762
 20
-66.5882
 11
75.681
 21
-66.5397
  0
LINE
  8
0
 10
75.681
 20
-66.5397
 11
75.5891
 21
-66.4854
  0
LINE
  8
0
 10
75.5891
 20
-66.4854
 11
75.5008
 21
-66.4253
  0
LINE
  8
0
 10
75.5008
 20
-66.4253
 11
75.4164
 21
-66.3599
  0
LINE
  8
0
 10
75.4164
 20
-66.3599
 11
75.3363
 21
-66.2893
  0
LINE
  8
0
 10
75.3363
 20
-66.2893
 11
75.2607
 21
-66.2137
  0
LINE
  8
0
 10
75.2607
 20
-66.2137
 11
75.1901
 21
-66.1336
  0
LINE
  8
0
 10
75.1901
 20
-66.1336
 11
75.1247
 21
-66.0492
  0
LINE
  8
0
 10
75.1247
 20
-66.0492
 11
75.0646
 21
-65.9609
  0
LINE
  8
0
 10
75.0646
 20
-65.9609
 11
75.0103
 21
-65.869
  0
LINE
  8
0
 10
75.0103
 20
-65.869
 11
74.9618
 21
-65.7738
  0
LINE
  8
0
 10
74.9618
 20
-65.7738
 11
74.9194
 21
-65.6758
  0
LINE
  8
0
 10
74.9194
 20
-65.6758
 11
74.8832
 21
-65.5753
  0
LINE
  8
0
 10
74.8832
 20
-65.5753
 11
74.8534
 21
-65.4728
  0
LINE
  8
0
 10
74.8534
 20
-65.4728
 11
74.8301
 21
-65.3686
  0
LINE
  8
0
 10
74.8301
 20
-65.3686
 11
74.8134
 21
-65.2631
  0
LINE
  8
0
 10
74.8134
 20
-65.2631
 11
74.8033
 21
-65.1568
  0
LINE
  8
0
 10
74.8033
 20
-65.1568
 11
74.8
 21
-65.05
  0
LINE
  8
0
 10
74.8
 20
-65.05
 11
74.8033
 21
-64.9433
  0
LINE
  8
0
 10
74.8033
 20
-64.9433
 11
74.8134
 21
-64.8369
  0
LINE
  8
0
 10
74.8134
 20
-64.8369
 11
74.8301
 21
-64.7315
  0
LINE
  8
0
 10
74.8301
 20
-64.7315
 11
74.8534
 21
-64.6272
  0
LINE
  8
0
 10
74.8534
 20
-64.6272
 11
74.8832
 21
-64.5247
  0
LINE
  8
0
 10
74.8832
 20
-64.5247
 11
74.9194
 21
-64.4242
  0
LINE
  8
0
 10
74.9194
 20
-64.4242
 11
74.9618
 21
-64.3262
  0
LINE
  8
0
 10
74.9618
 20
-64.3262
 11
75.0103
 21
-64.231
  0
LINE
  8
0
 10
75.0103
 20
-64.231
 11
75.0646
 21
-64.1391
  0
LINE
  8
0
 10
75.0646
 20
-64.1391
 11
75.1247
 21
-64.0508
  0
LINE
  8
0
 10
75.1247
 20
-64.0508
 11
75.1901
 21
-63.9664
  0
LINE
  8
0
 10
75.1901
 20
-63.9664
 11
75.2607
 21
-63.8863
  0
LINE
  8
0
 10
75.2607
 20
-63.8863
 11
75.3363
 21
-63.8108
  0
LINE
  8
0
 10
75.3363
 20
-63.8108
 11
75.4164
 21
-63.7401
  0
LINE
  8
0
 10
75.4164
 20
-63.7401
 11
75.5008
 21
-63.6747
  0
LINE
  8
0
 10
75.5008
 20
-63.6747
 11
75.5891
 21
-63.6147
  0
LINE
  8
0
 10
75.5891
 20
-63.6147
 11
75.681
 21
-63.5603
  0
LINE
  8
0
 10
75.681
 20
-63.5603
 11
75.7762
 21
-63.5118
  0
LINE
  8
0
 10
75.7762
 20
-63.5118
 11
75.8742
 21
-63.4694
  0
LINE
  8
0
 10
75.8742
 20
-63.4694
 11
75.9747
 21
-63.4332
  0
LINE
  8
0
 10
75.9747
 20
-63.4332
 11
76.0772
 21
-63.4034
  0
LINE
  8
0
 10
76.0772
 20
-63.4034
 11
76.1814
 21
-63.3801
  0
LINE
  8
0
 10
76.1814
 20
-63.3801
 11
76.2869
 21
-63.3634
  0
LINE
  8
0
 10
76.2869
 20
-63.3634
 11
76.3932
 21
-63.3534
  0
LINE
  8
0
 10
76.3932
 20
-63.3534
 11
76.5
 21
-63.35
  0
LINE
  8
0
 10
76.5
 20
-63.35
 11
76.6067
 21
-63.3534
  0
LINE
  8
0
 10
76.6067
 20
-63.3534
 11
76.7131
 21
-63.3634
  0
LINE
  8
0
 10
76.7131
 20
-63.3634
 11
76.8185
 21
-63.3801
  0
LINE
  8
0
 10
76.8185
 20
-63.3801
 11
76.9228
 21
-63.4034
  0
LINE
  8
0
 10
76.9228
 20
-63.4034
 11
77.0253
 21
-63.4332
  0
LINE
  8
0
 10
77.0253
 20
-63.4332
 11
77.1258
 21
-63.4694
  0
LINE
  8
0
 10
77.1258
 20
-63.4694
 11
77.2238
 21
-63.5118
  0
LINE
  8
0
 10
77.2238
 20
-63.5118
 11
77.319
 21
-63.5603
  0
LINE
  8
0
 10
77.319
 20
-63.5603
 11
77.4109
 21
-63.6147
  0
LINE
  8
0
 10
77.4109
 20
-63.6147
 11
77.4992
 21
-63.6747
  0
LINE
  8
0
 10
77.4992
 20
-63.6747
 11
77.5836
 21
-63.7401
  0
LINE
  8
0
 10
77.5836
 20
-63.7401
 11
77.6637
 21
-63.8108
  0
LINE
  8
0
 10
77.6637
 20
-63.8108
 11
77.7392
 21
-63.8863
  0
LINE
  8
0
 10
77.7392
 20
-63.8863
 11
77.8099
 21
-63.9664
  0
LINE
  8
0
 10
77.8099
 20
-63.9664
 11
77.8753
 21
-64.0508
  0
LINE
  8
0
 10
77.8753
 20
-64.0508
 11
77.9353
 21
-64.1391
  0
LINE
  8
0
 10
77.9353
 20
-64.1391
 11
77.9897
 21
-64.231
  0
LINE
  8
0
 10
77.9897
 20
-64.231
 11
78.0382
 21
-64.3262
  0
LINE
  8
0
 10
78.0382
 20
-64.3262
 11
78.0806
 21
-64.4242
  0
LINE
  8
0
 10
78.0806
 20
-64.4242
 11
78.1168
 21
-64.5247
  0
LINE
  8
0
 10
78.1168
 20
-64.5247
 11
78.1466
 21
-64.6272
  0
LINE
  8
0
 10
78.1466
 20
-64.6272
 11
78.1699
 21
-64.7315
  0
LINE
  8
0
 10
78.1699
 20
-64.7315
 11
78.1866
 21
-64.8369
  0
LINE
  8
0
 10
78.1866
 20
-64.8369
 11
78.1966
 21
-64.9433
  0
LINE
  8
0
 10
78.1966
 20
-64.9433
 11
78.2
 21
-65.05
  0
LINE
  8
0
 10
78.2
 20
-65.05
 11
78.1966
 21
-65.1568
  0
LINE
  8
0
 10
78.1966
 20
-65.1568
 11
78.1866
 21
-65.2631
  0
LINE
  8
0
 10
78.1866
 20
-65.2631
 11
78.1699
 21
-65.3686
  0
LINE
  8
0
 10
78.1699
 20
-65.3686
 11
78.1466
 21
-65.4728
  0
LINE
  8
0
 10
78.1466
 20
-65.4728
 11
78.1168
 21
-65.5753
  0
LINE
  8
0
 10
78.1168
 20
-65.5753
 11
78.0806
 21
-65.6758
  0
LINE
  8
0
 10
78.0806
 20
-65.6758
 11
78.0382
 21
-65.7738
  0
LINE
  8
0
 10
78.0382
 20
-65.7738
 11
77.9897
 21
-65.869
  0
LINE
  8
0
 10
77.9897
 20
-65.869
 11
77.9353
 21
-65.9609
  0
LINE
  8
0
 10
77.9353
 20
-65.9609
 11
77.8753
 21
-66.0492
  0
LINE
  8
0
 10
77.8753
 20
-66.0492
 11
77.8099
 21
-66.1336
  0
LINE
  8
0
 10
77.8099
 20
-66.1336
 11
77.7392
 21
-66.2137
  0
LINE
  8
0
 10
77.7392
 20
-66.2137
 11
77.6637
 21
-66.2893
  0
LINE
  8
0
 10
77.6637
 20
-66.2893
 11
77.5836
 21
-66.3599
  0
LINE
  8
0
 10
77.5836
 20
-66.3599
 11
77.4992
 21
-66.4253
  0
LINE
  8
0
 10
77.4992
 20
-66.4253
 11
77.4109
 21
-66.4854
  0
LINE
  8
0
 10
77.4109
 20
-66.4854
 11
77.319
 21
-66.5397
  0
LINE
  8
0
 10
77.319
 20
-66.5397
 11
77.2238
 21
-66.5882
  0
LINE
  8
0
 10
77.2238
 20
-66.5882
 11
77.1258
 21
-66.6306
  0
LINE
  8
0
 10
77.1258
 20
-66.6306
 11
77.0253
 21
-66.6668
  0
LINE
  8
0
 10
77.0253
 20
-66.6668
 11
76.9228
 21
-66.6966
  0
LINE
  8
0
 10
76.9228
 20
-66.6966
 11
76.8185
 21
-66.7199
  0
LINE
  8
0
 10
76.8185
 20
-66.7199
 11
76.7131
 21
-66.7366
  0
LINE
  8
0
 10
76.7131
 20
-66.7366
 11
76.6067
 21
-66.7467
  0
LINE
  8
0
 10
76.6067
 20
-66.7467
 11
76.5
 21
-66.75
  0
LINE
  8
0
 10
76.5
 20
-66.75
 11
76.3932
 21
-66.7467
  0
LINE
  8
0
 10
183.293
 20
-133.447
 11
183.187
 21
-133.437
  0
LINE
  8
0
 10
183.187
 20
-133.437
 11
183.081
 21
-133.42
  0
LINE
  8
0
 10
183.081
 20
-133.42
 11
182.977
 21
-133.397
  0
LINE
  8
0
 10
182.977
 20
-133.397
 11
182.875
 21
-133.367
  0
LINE
  8
0
 10
182.875
 20
-133.367
 11
182.774
 21
-133.331
  0
LINE
  8
0
 10
182.774
 20
-133.331
 11
182.676
 21
-133.288
  0
LINE
  8
0
 10
182.676
 20
-133.288
 11
182.581
 21
-133.24
  0
LINE
  8
0
 10
182.581
 20
-133.24
 11
182.489
 21
-133.185
  0
LINE
  8
0
 10
182.489
 20
-133.185
 11
182.401
 21
-133.125
  0
LINE
  8
0
 10
182.401
 20
-133.125
 11
182.316
 21
-133.06
  0
LINE
  8
0
 10
182.316
 20
-133.06
 11
182.236
 21
-132.989
  0
LINE
  8
0
 10
182.236
 20
-132.989
 11
182.161
 21
-132.914
  0
LINE
  8
0
 10
182.161
 20
-132.914
 11
182.09
 21
-132.834
  0
LINE
  8
0
 10
182.09
 20
-132.834
 11
182.025
 21
-132.749
  0
LINE
  8
0
 10
182.025
 20
-132.749
 11
181.965
 21
-132.661
  0
LINE
  8
0
 10
181.965
 20
-132.661
 11
181.91
 21
-132.569
  0
LINE
  8
0
 10
181.91
 20
-132.569
 11
181.862
 21
-132.474
  0
LINE
  8
0
 10
181.862
 20
-132.474
 11
181.819
 21
-132.376
  0
LINE
  8
0
 10
181.819
 20
-132.376
 11
181.783
 21
-132.275
  0
LINE
  8
0
 10
181.783
 20
-132.275
 11
181.753
 21
-132.173
  0
LINE
  8
0
 10
181.753
 20
-132.173
 11
181.73
 21
-132.069
  0
LINE
  8
0
 10
181.73
 20
-132.069
 11
181.713
 21
-131.963
  0
LINE
  8
0
 10
181.713
 20
-131.963
 11
181.703
 21
-131.857
  0
LINE
  8
0
 10
181.703
 20
-131.857
 11
181.7
 21
-131.75
  0
LINE
  8
0
 10
181.7
 20
-131.75
 11
181.703
 21
-131.643
  0
LINE
  8
0
 10
181.703
 20
-131.643
 11
181.713
 21
-131.537
  0
LINE
  8
0
 10
181.713
 20
-131.537
 11
181.73
 21
-131.431
  0
LINE
  8
0
 10
181.73
 20
-131.431
 11
181.753
 21
-131.327
  0
LINE
  8
0
 10
181.753
 20
-131.327
 11
181.783
 21
-131.225
  0
LINE
  8
0
 10
181.783
 20
-131.225
 11
181.819
 21
-131.124
  0
LINE
  8
0
 10
181.819
 20
-131.124
 11
181.862
 21
-131.026
  0
LINE
  8
0
 10
181.862
 20
-131.026
 11
181.91
 21
-130.931
  0
LINE
  8
0
 10
181.91
 20
-130.931
 11
181.965
 21
-130.839
  0
LINE
  8
0
 10
181.965
 20
-130.839
 11
182.025
 21
-130.751
  0
LINE
  8
0
 10
182.025
 20
-130.751
 11
182.09
 21
-130.666
  0
LINE
  8
0
 10
182.09
 20
-130.666
 11
182.161
 21
-130.586
  0
LINE
  8
0
 10
182.161
 20
-130.586
 11
182.236
 21
-130.511
  0
LINE
  8
0
 10
182.236
 20
-130.511
 11
182.316
 21
-130.44
  0
LINE
  8
0
 10
182.316
 20
-130.44
 11
182.401
 21
-130.375
  0
LINE
  8
0
 10
182.401
 20
-130.375
 11
182.489
 21
-130.315
  0
LINE
  8
0
 10
182.489
 20
-130.315
 11
182.581
 21
-130.26
  0
LINE
  8
0
 10
182.581
 20
-130.26
 11
182.676
 21
-130.212
  0
LINE
  8
0
 10
182.676
 20
-130.212
 11
182.774
 21
-130.169
  0
LINE
  8
0
 10
182.774
 20
-130.169
 11
182.875
 21
-130.133
  0
LINE
  8
0
 10
182.875
 20
-130.133
 11
182.977
 21
-130.103
  0
LINE
  8
0
 10
182.977
 20
-130.103
 11
183.081
 21
-130.08
  0
LINE
  8
0
 10
183.081
 20
-130.08
 11
183.187
 21
-130.063
  0
LINE
  8
0
 10
183.187
 20
-130.063
 11
183.293
 21
-130.053
  0
LINE
  8
0
 10
183.293
 20
-130.053
 11
183.4
 21
-130.05
  0
LINE
  8
0
 10
183.4
 20
-130.05
 11
183.507
 21
-130.053
  0
LINE
  8
0
 10
183.507
 20
-130.053
 11
183.613
 21
-130.063
  0
LINE
  8
0
 10
183.613
 20
-130.063
 11
183.719
 21
-130.08
  0
LINE
  8
0
 10
183.719
 20
-130.08
 11
183.823
 21
-130.103
  0
LINE
  8
0
 10
183.823
 20
-130.103
 11
183.925
 21
-130.133
  0
LINE
  8
0
 10
183.925
 20
-130.133
 11
184.026
 21
-130.169
  0
LINE
  8
0
 10
184.026
 20
-130.169
 11
184.124
 21
-130.212
  0
LINE
  8
0
 10
184.124
 20
-130.212
 11
184.219
 21
-130.26
  0
LINE
  8
0
 10
184.219
 20
-130.26
 11
184.311
 21
-130.315
  0
LINE
  8
0
 10
184.311
 20
-130.315
 11
184.399
 21
-130.375
  0
LINE
  8
0
 10
184.399
 20
-130.375
 11
184.484
 21
-130.44
  0
LINE
  8
0
 10
184.484
 20
-130.44
 11
184.564
 21
-130.511
  0
LINE
  8
0
 10
184.564
 20
-130.511
 11
184.639
 21
-130.586
  0
LINE
  8
0
 10
184.639
 20
-130.586
 11
184.71
 21
-130.666
  0
LINE
  8
0
 10
184.71
 20
-130.666
 11
184.775
 21
-130.751
  0
LINE
  8
0
 10
184.775
 20
-130.751
 11
184.835
 21
-130.839
  0
LINE
  8
0
 10
184.835
 20
-130.839
 11
184.89
 21
-130.931
  0
LINE
  8
0
 10
184.89
 20
-130.931
 11
184.938
 21
-131.026
  0
LINE
  8
0
 10
184.938
 20
-131.026
 11
184.981
 21
-131.124
  0
LINE
  8
0
 10
184.981
 20
-131.124
 11
185.017
 21
-131.225
  0
LINE
  8
0
 10
185.017
 20
-131.225
 11
185.047
 21
-131.327
  0
LINE
  8
0
 10
185.047
 20
-131.327
 11
185.07
 21
-131.431
  0
LINE
  8
0
 10
185.07
 20
-131.431
 11
185.087
 21
-131.537
  0
LINE
  8
0
 10
185.087
 20
-131.537
 11
185.097
 21
-131.643
  0
LINE
  8
0
 10
185.097
 20
-131.643
 11
185.1
 21
-131.75
  0
LINE
  8
0
 10
185.1
 20
-131.75
 11
185.097
 21
-131.857
  0
LINE
  8
0
 10
185.097
 20
-131.857
 11
185.087
 21
-131.963
  0
LINE
  8
0
 10
185.087
 20
-131.963
 11
185.07
 21
-132.069
  0
LINE
  8
0
 10
185.07
 20
-132.069
 11
185.047
 21
-132.173
  0
LINE
  8
0
 10
185.047
 20
-132.173
 11
185.017
 21
-132.275
  0
LINE
  8
0
 10
185.017
 20
-132.275
 11
184.981
 21
-132.376
  0
LINE
  8
0
 10
184.981
 20
-132.376
 11
184.938
 21
-132.474
  0
LINE
  8
0
 10
184.938
 20
-132.474
 11
184.89
 21
-132.569
  0
LINE
  8
0
 10
184.89
 20
-132.569
 11
184.835
 21
-132.661
  0
LINE
  8
0
 10
184.835
 20
-132.661
 11
184.775
 21
-132.749
  0
LINE
  8
0
 10
184.775
 20
-132.749
 11
184.71
 21
-132.834
  0
LINE
  8
0
 10
184.71
 20
-132.834
 11
184.639
 21
-132.914
  0
LINE
  8
0
 10
184.639
 20
-132.914
 11
184.564
 21
-132.989
  0
LINE
  8
0
 10
184.564
 20
-132.989
 11
184.484
 21
-133.06
  0
LINE
  8
0
 10
184.484
 20
-133.06
 11
184.399
 21
-133.125
  0
LINE
  8
0
 10
184.399
 20
-133.125
 11
184.311
 21
-133.185
  0
LINE
  8
0
 10
184.311
 20
-133.185
 11
184.219
 21
-133.24
  0
LINE
  8
0
 10
184.219
 20
-133.24
 11
184.124
 21
-133.288
  0
LINE
  8
0
 10
184.124
 20
-133.288
 11
184.026
 21
-133.331
  0
LINE
  8
0
 10
184.026
 20
-133.331
 11
183.925
 21
-133.367
  0
LINE
  8
0
 10
183.925
 20
-133.367
 11
183.823
 21
-133.397
  0
LINE
  8
0
 10
183.823
 20
-133.397
 11
183.719
 21
-133.42
  0
LINE
  8
0
 10
183.719
 20
-133.42
 11
183.613
 21
-133.437
  0
LINE
  8
0
 10
183.613
 20
-133.437
 11
183.507
 21
-133.447
  0
LINE
  8
0
 10
183.507
 20
-133.447
 11
183.4
 21
-133.45
  0
LINE
  8
0
 10
183.4
 20
-133.45
 11
183.293
 21
-133.447
  0
LINE
  8
0
 10
76.3932
 20
-133.447
 11
76.2869
 21
-133.437
  0
LINE
  8
0
 10
76.2869
 20
-133.437
 11
76.1814
 21
-133.42
  0
LINE
  8
0
 10
76.1814
 20
-133.42
 11
76.0772
 21
-133.397
  0
LINE
  8
0
 10
76.0772
 20
-133.397
 11
75.9747
 21
-133.367
  0
LINE
  8
0
 10
75.9747
 20
-133.367
 11
75.8742
 21
-133.331
  0
LINE
  8
0
 10
75.8742
 20
-133.331
 11
75.7762
 21
-133.288
  0
LINE
  8
0
 10
75.7762
 20
-133.288
 11
75.681
 21
-133.24
  0
LINE
  8
0
 10
75.681
 20
-133.24
 11
75.5891
 21
-133.185
  0
LINE
  8
0
 10
75.5891
 20
-133.185
 11
75.5008
 21
-133.125
  0
LINE
  8
0
 10
75.5008
 20
-133.125
 11
75.4164
 21
-133.06
  0
LINE
  8
0
 10
75.4164
 20
-133.06
 11
75.3363
 21
-132.989
  0
LINE
  8
0
 10
75.3363
 20
-132.989
 11
75.2607
 21
-132.914
  0
LINE
  8
0
 10
75.2607
 20
-132.914
 11
75.1901
 21
-132.834
  0
LINE
  8
0
 10
75.1901
 20
-132.834
 11
75.1247
 21
-132.749
  0
LINE
  8
0
 10
75.1247
 20
-132.749
 11
75.0646
 21
-132.661
  0
LINE
  8
0
 10
75.0646
 20
-132.661
 11
75.0103
 21
-132.569
  0
LINE
  8
0
 10
75.0103
 20
-132.569
 11
74.9618
 21
-132.474
  0
LINE
  8
0
 10
74.9618
 20
-132.474
 11
74.9194
 21
-132.376
  0
LINE
  8
0
 10
74.9194
 20
-132.376
 11
74.8832
 21
-132.275
  0
LINE
  8
0
 10
74.8832
 20
-132.275
 11
74.8534
 21
-132.173
  0
LINE
  8
0
 10
74.8534
 20
-132.173
 11
74.8301
 21
-132.069
  0
LINE
  8
0
 10
74.8301
 20
-132.069
 11
74.8134
 21
-131.963
  0
LINE
  8
0
 10
74.8134
 20
-131.963
 11
74.8033
 21
-131.857
  0
LINE
  8
0
 10
74.8033
 20
-131.857
 11
74.8
 21
-131.75
  0
LINE
  8
0
 10
74.8
 20
-131.75
 11
74.8033
 21
-131.643
  0
LINE
  8
0
 10
74.8033
 20
-131.643
 11
74.8134
 21
-131.537
  0
LINE
  8
0
 10
74.8134
 20
-131.537
 11
74.8301
 21
-131.431
  0
LINE
  8
0
 10
74.8301
 20
-131.431
 11
74.8534
 21
-131.327
  0
LINE
  8
0
 10
74.8534
 20
-131.327
 11
74.8832
 21
-131.225
  0
LINE
  8
0
 10
74.8832
 20
-131.225
 11
74.9194
 21
-131.124
  0
LINE
  8
0
 10
74.9194
 20
-131.124
 11
74.9618
 21
-131.026
  0
LINE
  8
0
 10
74.9618
 20
-131.026
 11
75.0103
 21
-130.931
  0
LINE
  8
0
 10
75.0103
 20
-130.931
 11
75.0646
 21
-130.839
  0
LINE
  8
0
 10
75.0646
 20
-130.839
 11
75.1247
 21
-130.751
  0
LINE
  8
0
 10
75.1247
 20
-130.751
 11
75.1901
 21
-130.666
  0
LINE
  8
0
 10
75.1901
 20
-130.666
 11
75.2607
 21
-130.586
  0
LINE
  8
0
 10
75.2607
 20
-130.586
 11
75.3363
 21
-130.511
  0
LINE
  8
0
 10
75.3363
 20
-130.511
 11
75.4164
 21
-130.44
  0
LINE
  8
0
 10
75.4164
 20
-130.44
 11
75.5008
 21
-130.375
  0
LINE
  8
0
 10
75.5008
 20
-130.375
 11
75.5891
 21
-130.315
  0
LINE
  8
0
 10
75.5891
 20
-130.315
 11
75.681
 21
-130.26
  0
LINE
  8
0
 10
75.681
 20
-130.26
 11
75.7762
 21
-130.212
  0
LINE
  8
0
 10
75.7762
 20
-130.212
 11
75.8742
 21
-130.169
  0
LINE
  8
0
 10
75.8742
 20
-130.169
 11
75.9747
 21
-130.133
  0
LINE
  8
0
 10
75.9747
 20
-130.133
 11
76.0772
 21
-130.103
  0
LINE
  8
0
 10
76.0772
 20
-130.103
 11
76.1814
 21
-130.08
  0
LINE
  8
0
 10
76.1814
 20
-130.08
 11
76.2869
 21
-130.063
  0
LINE
  8
0
 10
76.2869
 20
-130.063
 11
76.3932
 21
-130.053
  0
LINE
  8
0
 10
76.3932
 20
-130.053
 11
76.5
 21
-130.05
  0
LINE
  8
0
 10
76.5
 20
-130.05
 11
76.6067
 21
-130.053
  0
LINE
  8
0
 10
76.6067
 20
-130.053
 11
76.7131
 21
-130.063
  0
LINE
  8
0
 10
76.7131
 20
-130.063
 11
76.8185
 21
-130.08
  0
LINE
  8
0
 10
76.8185
 20
-130.08
 11
76.9228
 21
-130.103
  0
LINE
  8
0
 10
76.9228
 20
-130.103
 11
77.0253
 21
-130.133
  0
LINE
  8
0
 10
77.0253
 20
-130.133
 11
77.1258
 21
-130.169
  0
LINE
  8
0
 10
77.1258
 20
-130.169
 11
77.2238
 21
-130.212
  0
LINE
  8
0
 10
77.2238
 20
-130.212
 11
77.319
 21
-130.26
  0
LINE
  8
0
 10
77.319
 20
-130.26
 11
77.4109
 21
-130.315
  0
LINE
  8
0
 10
77.4109
 20
-130.315
 11
77.4992
 21
-130.375
  0
LINE
  8
0
 10
77.4992
 20
-130.375
 11
77.5836
 21
-130.44
  0
LINE
  8
0
 10
77.5836
 20
-130.44
 11
77.6637
 21
-130.511
  0
LINE
  8
0
 10
77.6637
 20
-130.511
 11
77.7392
 21
-130.586
  0
LINE
  8
0
 10
77.7392
 20
-130.586
 11
77.8099
 21
-130.666
  0
LINE
  8
0
 10
77.8099
 20
-130.666
 11
77.8753
 21
-130.751
  0
LINE
  8
0
 10
77.8753
 20
-130.751
 11
77.9353
 21
-130.839
  0
LINE
  8
0
 10
77.9353
 20
-130.839
 11
77.9897
 21
-130.931
  0
LINE
  8
0
 10
77.9897
 20
-130.931
 11
78.0382
 21
-131.026
  0
LINE
  8
0
 10
78.0382
 20
-131.026
 11
78.0806
 21
-131.124
  0
LINE
  8
0
 10
78.0806
 20
-131.124
 11
78.1168
 21
-131.225
  0
LINE
  8
0
 10
78.1168
 20
-131.225
 11
78.1466
 21
-131.327
  0
LINE
  8
0
 10
78.1466
 20
-131.327
 11
78.1699
 21
-131.431
  0
LINE
  8
0
 10
78.1699
 20
-131.431
 11
78.1866
 21
-131.537
  0
LINE
  8
0
 10
78.1866
 20
-131.537
 11
78.1966
 21
-131.643
  0
LINE
  8
0
 10
78.1966
 20
-131.643
 11
78.2
 21
-131.75
  0
LINE
  8
0
 10
78.2
 20
-131.75
 11
78.1966
 21
-131.857
  0
LINE
  8
0
 10
78.1966
 20
-131.857
 11
78.1866
 21
-131.963
  0
LINE
  8
0
 10
78.1866
 20
-131.963
 11
78.1699
 21
-132.069
  0
LINE
  8
0
 10
78.1699
 20
-132.069
 11
78.1466
 21
-132.173
  0
LINE
  8
0
 10
78.1466
 20
-132.173
 11
78.1168
 21
-132.275
  0
LINE
  8
0
 10
78.1168
 20
-132.275
 11
78.0806
 21
-132.376
  0
LINE
  8
0
 10
78.0806
 20
-132.376
 11
78.0382
 21
-132.474
  0
LINE
  8
0
 10
78.0382
 20
-132.474
 11
77.9897
 21
-132.569
  0
LINE
  8
0
 10
77.9897
 20
-132.569
 11
77.9353
 21
-132.661
  0
LINE
  8
0
 10
77.9353
 20
-132.661
 11
77.8753
 21
-132.749
  0
LINE
  8
0
 10
77.8753
 20
-132.749
 11
77.8099
 21
-132.834
  0
LINE
  8
0
 10
77.8099
 20
-132.834
 11
77.7392
 21
-132.914
  0
LINE
  8
0
 10
77.7392
 20
-132.914
 11
77.6637
 21
-132.989
  0
LINE
  8
0
 10
77.6637
 20
-132.989
 11
77.5836
 21
-133.06
  0
LINE
  8
0
 10
77.5836
 20
-133.06
 11
77.4992
 21
-133.125
  0
LINE
  8
0
 10
77.4992
 20
-133.125
 11
77.4109
 21
-133.185
  0
LINE
  8
0
 10
77.4109
 20
-133.185
 11
77.319
 21
-133.24
  0
LINE
  8
0
 10
77.319
 20
-133.24
 11
77.2238
 21
-133.288
  0
LINE
  8
0
 10
77.2238
 20
-133.288
 11
77.1258
 21
-133.331
  0
LINE
  8
0
 10
77.1258
 20
-133.331
 11
77.0253
 21
-133.367
  0
LINE
  8
0
 10
77.0253
 20
-133.367
 11
76.9228
 21
-133.397
  0
LINE
  8
0
 10
76.9228
 20
-133.397
 11
76.8185
 21
-133.42
  0
LINE
  8
0
 10
76.8185
 20
-133.42
 11
76.7131
 21
-133.437
  0
LINE
  8
0
 10
76.7131
 20
-133.437
 11
76.6067
 21
-133.447
  0
LINE
  8
0
 10
76.6067
 20
-133.447
 11
76.5
 21
-133.45
  0
LINE
  8
0
 10
76.5
 20
-133.45
 11
76.3932
 21
-133.447
  0
ENDSEC
  0
SECTION
  2
OBJECTS
  0
DICTIONARY
  0
ENDSEC
  0
EOF
