  0
SECTION
  2
BLOCKS
  0
ENDSEC
  0
SECTION
  2
ENTITIES
  0
LINE
  8
0
 10
26.2583
 20
22.048
 11
25.0373
 21
22.048
  0
LINE
  8
0
 10
25.0373
 20
22.048
 11
25.0373
 21
20.882
  0
LINE
  8
0
 10
25.0373
 20
20.882
 11
26.2583
 21
20.882
  0
LINE
  8
0
 10
26.2583
 20
20.882
 11
26.2583
 21
22.048
  0
LINE
  8
0
 10
29.277
 20
22.048
 11
28.057
 21
22.048
  0
LINE
  8
0
 10
28.057
 20
22.048
 11
28.057
 21
12
  0
LINE
  8
0
 10
28.057
 20
12
 11
29.277
 21
12
  0
LINE
  8
0
 10
29.277
 20
12
 11
29.277
 21
22.048
  0
LINE
  8
0
 10
68.4751
 20
22.048
 11
67.2541
 21
22.048
  0
LINE
  8
0
 10
67.2541
 20
22.048
 11
67.2541
 21
20.882
  0
LINE
  8
0
 10
67.2541
 20
20.882
 11
68.4751
 21
20.882
  0
LINE
  8
0
 10
68.4751
 20
20.882
 11
68.4751
 21
22.048
  0
LINE
  8
0
 10
6.10381
 20
11.9098
 11
6.76125
 21
12.0232
  0
LINE
  8
0
 10
6.76125
 20
12.0232
 11
7.3703
 21
12.2123
  0
LINE
  8
0
 10
7.3703
 20
12.2123
 11
7.931
 21
12.477
  0
LINE
  8
0
 10
7.931
 20
12.477
 11
8.43625
 21
12.8122
  0
LINE
  8
0
 10
8.43625
 20
12.8122
 11
8.879
 21
13.2127
  0
LINE
  8
0
 10
8.879
 20
13.2127
 11
9.25925
 21
13.6787
  0
LINE
  8
0
 10
9.25925
 20
13.6787
 11
9.577
 21
14.21
  0
LINE
  8
0
 10
9.577
 20
14.21
 11
9.82812
 21
14.7978
  0
LINE
  8
0
 10
9.82812
 20
14.7978
 11
10.0075
 21
15.4322
  0
LINE
  8
0
 10
10.0075
 20
15.4322
 11
10.1151
 21
16.1133
  0
LINE
  8
0
 10
10.1151
 20
16.1133
 11
10.151
 21
16.841
  0
LINE
  8
0
 10
10.151
 20
16.841
 11
10.1156
 21
17.5704
  0
LINE
  8
0
 10
10.1156
 20
17.5704
 11
10.0092
 21
18.2497
  0
LINE
  8
0
 10
10.0092
 20
18.2497
 11
9.83206
 21
18.8789
  0
LINE
  8
0
 10
9.83206
 20
18.8789
 11
9.584
 21
19.458
  0
LINE
  8
0
 10
9.584
 20
19.458
 11
9.26886
 21
19.979
  0
LINE
  8
0
 10
9.26886
 20
19.979
 11
8.89049
 21
20.4342
  0
LINE
  8
0
 10
8.89049
 20
20.4342
 11
8.44887
 21
20.8235
  0
LINE
  8
0
 10
8.44887
 20
20.8235
 11
7.94398
 21
21.147
  0
LINE
  8
0
 10
7.94398
 20
21.147
 11
7.38374
 21
21.4012
  0
LINE
  8
0
 10
7.38374
 20
21.4012
 11
6.77499
 21
21.5827
  0
LINE
  8
0
 10
6.77499
 20
21.5827
 11
6.11774
 21
21.6917
  0
LINE
  8
0
 10
6.11774
 20
21.6917
 11
5.41199
 21
21.728
  0
LINE
  8
0
 10
5.41199
 20
21.728
 11
4.35306
 21
21.647
  0
LINE
  8
0
 10
4.35306
 20
21.647
 11
3.41724
 21
21.4042
  0
LINE
  8
0
 10
3.41724
 20
21.4042
 11
2.60455
 21
20.9996
  0
LINE
  8
0
 10
2.60455
 20
20.9996
 11
1.91499
 21
20.433
  0
LINE
  8
0
 10
1.91499
 20
20.433
 11
1.36549
 21
19.7229
  0
LINE
  8
0
 10
1.36549
 20
19.7229
 11
0.972992
 21
18.8875
  0
LINE
  8
0
 10
0.972992
 20
18.8875
 11
0.737488
 21
17.9269
  0
LINE
  8
0
 10
0.737488
 20
17.9269
 11
0.658997
 21
16.841
  0
LINE
  8
0
 10
0.658997
 20
16.841
 11
0.694183
 21
16.1101
  0
LINE
  8
0
 10
0.694183
 20
16.1101
 11
0.799744
 21
15.4262
  0
LINE
  8
0
 10
0.799744
 20
15.4262
 11
0.975677
 21
14.7896
  0
LINE
  8
0
 10
0.975677
 20
14.7896
 11
1.22198
 21
14.2
  0
LINE
  8
0
 10
1.22198
 20
14.2
 11
1.53555
 21
13.6674
  0
LINE
  8
0
 10
1.53555
 20
13.6674
 11
1.91225
 21
13.2015
  0
LINE
  8
0
 10
1.91225
 20
13.2015
 11
2.35205
 21
12.8024
  0
LINE
  8
0
 10
2.35205
 20
12.8024
 11
2.855
 21
12.47
  0
LINE
  8
0
 10
2.855
 20
12.47
 11
3.41518
 21
12.2084
  0
LINE
  8
0
 10
3.41518
 20
12.2084
 11
4.02574
 21
12.0215
  0
LINE
  8
0
 10
4.02574
 20
12.0215
 11
4.68668
 21
11.9094
  0
LINE
  8
0
 10
4.68668
 20
11.9094
 11
5.39799
 21
11.872
  0
LINE
  8
0
 10
5.39799
 20
11.872
 11
6.10381
 21
11.9098
  0
LINE
  8
0
 10
4.63693
 20
12.9891
 11
3.96375
 21
13.1872
  0
LINE
  8
0
 10
3.96375
 20
13.1872
 11
3.37843
 21
13.5175
  0
LINE
  8
0
 10
3.37843
 20
13.5175
 11
2.881
 21
13.98
  0
LINE
  8
0
 10
2.881
 20
13.98
 11
2.48418
 21
14.5556
  0
LINE
  8
0
 10
2.48418
 20
14.5556
 11
2.20074
 21
15.2242
  0
LINE
  8
0
 10
2.20074
 20
15.2242
 11
2.03069
 21
15.9861
  0
LINE
  8
0
 10
2.03069
 20
15.9861
 11
1.974
 21
16.841
  0
LINE
  8
0
 10
1.974
 20
16.841
 11
2.03006
 21
17.6984
  0
LINE
  8
0
 10
2.03006
 20
17.6984
 11
2.19824
 21
18.4545
  0
LINE
  8
0
 10
2.19824
 20
18.4545
 11
2.47856
 21
19.1094
  0
LINE
  8
0
 10
2.47856
 20
19.1094
 11
2.87099
 21
19.663
  0
LINE
  8
0
 10
2.87099
 20
19.663
 11
3.36618
 21
20.1036
  0
LINE
  8
0
 10
3.36618
 20
20.1036
 11
3.95474
 21
20.4182
  0
LINE
  8
0
 10
3.95474
 20
20.4182
 11
4.63667
 21
20.6071
  0
LINE
  8
0
 10
4.63667
 20
20.6071
 11
5.41199
 21
20.67
  0
LINE
  8
0
 10
5.41199
 20
20.67
 11
6.18092
 21
20.6062
  0
LINE
  8
0
 10
6.18092
 20
20.6062
 11
6.85774
 21
20.415
  0
LINE
  8
0
 10
6.85774
 20
20.415
 11
7.44243
 21
20.0962
  0
LINE
  8
0
 10
7.44243
 20
20.0962
 11
7.935
 21
19.65
  0
LINE
  8
0
 10
7.935
 20
19.65
 11
8.32611
 21
19.0919
  0
LINE
  8
0
 10
8.32611
 20
19.0919
 11
8.6055
 21
18.4377
  0
LINE
  8
0
 10
8.6055
 20
18.4377
 11
8.77312
 21
17.6874
  0
LINE
  8
0
 10
8.77312
 20
17.6874
 11
8.82899
 21
16.841
  0
LINE
  8
0
 10
8.82899
 20
16.841
 11
8.77356
 21
15.9584
  0
LINE
  8
0
 10
8.77356
 20
15.9584
 11
8.60724
 21
15.1817
  0
LINE
  8
0
 10
8.60724
 20
15.1817
 11
8.33005
 21
14.5109
  0
LINE
  8
0
 10
8.33005
 20
14.5109
 11
7.94199
 21
13.946
  0
LINE
  8
0
 10
7.94199
 20
13.946
 11
7.45074
 21
13.4984
  0
LINE
  8
0
 10
7.45074
 20
13.4984
 11
6.86299
 21
13.1787
  0
LINE
  8
0
 10
6.86299
 20
13.1787
 11
6.17874
 21
12.9869
  0
LINE
  8
0
 10
6.17874
 20
12.9869
 11
5.39799
 21
12.923
  0
LINE
  8
0
 10
5.39799
 20
12.923
 11
4.63693
 21
12.9891
  0
LINE
  8
0
 10
73.9438
 20
11.9309
 11
74.6088
 21
12.1077
  0
LINE
  8
0
 10
74.6088
 20
12.1077
 11
75.1778
 21
12.4024
  0
LINE
  8
0
 10
75.1778
 20
12.4024
 11
75.6508
 21
12.815
  0
LINE
  8
0
 10
75.6508
 20
12.815
 11
76.0227
 21
13.3485
  0
LINE
  8
0
 10
76.0227
 20
13.3485
 11
76.2883
 21
14.005
  0
LINE
  8
0
 10
76.2883
 20
14.005
 11
76.4477
 21
14.7845
  0
LINE
  8
0
 10
76.4477
 20
14.7845
 11
76.5008
 21
15.687
  0
LINE
  8
0
 10
76.5008
 20
15.687
 11
76.451
 21
16.5971
  0
LINE
  8
0
 10
76.451
 20
16.5971
 11
76.3018
 21
17.3795
  0
LINE
  8
0
 10
76.3018
 20
17.3795
 11
76.053
 21
18.0341
  0
LINE
  8
0
 10
76.053
 20
18.0341
 11
75.7048
 21
18.561
  0
LINE
  8
0
 10
75.7048
 20
18.561
 11
75.2516
 21
18.9666
  0
LINE
  8
0
 10
75.2516
 20
18.9666
 11
74.687
 21
19.2562
  0
LINE
  8
0
 10
74.687
 20
19.2562
 11
74.0111
 21
19.4301
  0
LINE
  8
0
 10
74.0111
 20
19.4301
 11
73.2238
 21
19.488
  0
LINE
  8
0
 10
73.2238
 20
19.488
 11
71.7814
 21
19.2504
  0
LINE
  8
0
 10
71.7814
 20
19.2504
 11
70.751
 21
18.5377
  0
LINE
  8
0
 10
70.751
 20
18.5377
 11
70.1329
 21
17.3499
  0
LINE
  8
0
 10
70.1329
 20
17.3499
 11
69.9268
 21
15.687
  0
LINE
  8
0
 10
69.9268
 20
15.687
 11
69.9782
 21
14.815
  0
LINE
  8
0
 10
69.9782
 20
14.815
 11
70.1323
 21
14.052
  0
LINE
  8
0
 10
70.1323
 20
14.052
 11
70.3892
 21
13.398
  0
LINE
  8
0
 10
70.3892
 20
13.398
 11
70.7488
 21
12.853
  0
LINE
  8
0
 10
70.7488
 20
12.853
 11
71.2095
 21
12.4238
  0
LINE
  8
0
 10
71.2095
 20
12.4238
 11
71.7688
 21
12.1172
  0
LINE
  8
0
 10
71.7688
 20
12.1172
 11
72.4265
 21
11.9333
  0
LINE
  8
0
 10
72.4265
 20
11.9333
 11
73.1828
 21
11.872
  0
LINE
  8
0
 10
73.1828
 20
11.872
 11
73.9438
 21
11.9309
  0
LINE
  8
0
 10
72.6962
 20
12.8196
 11
72.2903
 21
12.9565
  0
LINE
  8
0
 10
72.2903
 20
12.9565
 11
71.9522
 21
13.1846
  0
LINE
  8
0
 10
71.9522
 20
13.1846
 11
71.6818
 21
13.504
  0
LINE
  8
0
 10
71.6818
 20
13.504
 11
71.4749
 21
13.9142
  0
LINE
  8
0
 10
71.4749
 20
13.9142
 11
71.327
 21
14.4147
  0
LINE
  8
0
 10
71.327
 20
14.4147
 11
71.2384
 21
15.0057
  0
LINE
  8
0
 10
71.2384
 20
15.0057
 11
71.2088
 21
15.687
  0
LINE
  8
0
 10
71.2088
 20
15.687
 11
71.2388
 21
16.3845
  0
LINE
  8
0
 10
71.2388
 20
16.3845
 11
71.3288
 21
16.983
  0
LINE
  8
0
 10
71.3288
 20
16.983
 11
71.4788
 21
17.4825
  0
LINE
  8
0
 10
71.4788
 20
17.4825
 11
71.6888
 21
17.883
  0
LINE
  8
0
 10
71.6888
 20
17.883
 11
71.966
 21
18.1906
  0
LINE
  8
0
 10
71.966
 20
18.1906
 11
72.3178
 21
18.4102
  0
LINE
  8
0
 10
72.3178
 20
18.4102
 11
72.744
 21
18.5421
  0
LINE
  8
0
 10
72.744
 20
18.5421
 11
73.2448
 21
18.586
  0
LINE
  8
0
 10
73.2448
 20
18.586
 11
73.7407
 21
18.5429
  0
LINE
  8
0
 10
73.7407
 20
18.5429
 11
74.1595
 21
18.4137
  0
LINE
  8
0
 10
74.1595
 20
18.4137
 11
74.5012
 21
18.1984
  0
LINE
  8
0
 10
74.5012
 20
18.1984
 11
74.7658
 21
17.897
  0
LINE
  8
0
 10
74.7658
 20
17.897
 11
74.964
 21
17.5005
  0
LINE
  8
0
 10
74.964
 20
17.5005
 11
75.1055
 21
17
  0
LINE
  8
0
 10
75.1055
 20
17
 11
75.1905
 21
16.3955
  0
LINE
  8
0
 10
75.1905
 20
16.3955
 11
75.2188
 21
15.687
  0
LINE
  8
0
 10
75.2188
 20
15.687
 11
75.1892
 21
14.9862
  0
LINE
  8
0
 10
75.1892
 20
14.9862
 11
75.1005
 21
14.3847
  0
LINE
  8
0
 10
75.1005
 20
14.3847
 11
74.9527
 21
13.8827
  0
LINE
  8
0
 10
74.9527
 20
13.8827
 11
74.7458
 21
13.48
  0
LINE
  8
0
 10
74.7458
 20
13.48
 11
74.4699
 21
13.1711
  0
LINE
  8
0
 10
74.4699
 20
13.1711
 11
74.1153
 21
12.9505
  0
LINE
  8
0
 10
74.1153
 20
12.9505
 11
73.6819
 21
12.8181
  0
LINE
  8
0
 10
73.6819
 20
12.8181
 11
73.1698
 21
12.774
  0
LINE
  8
0
 10
73.1698
 20
12.774
 11
72.6962
 21
12.8196
  0
LINE
  8
0
 10
60.9441
 20
11.994
 11
60.9424
 21
12.479
  0
LINE
  8
0
 10
60.9424
 20
12.479
 11
60.9374
 21
12.8332
  0
LINE
  8
0
 10
60.9374
 20
12.8332
 11
60.9289
 21
13.0565
  0
LINE
  8
0
 10
60.9289
 20
13.0565
 11
60.9171
 21
13.149
  0
LINE
  8
0
 10
60.9171
 20
13.149
 11
60.9511
 21
13.149
  0
LINE
  8
0
 10
60.9511
 20
13.149
 11
61.3134
 21
12.5903
  0
LINE
  8
0
 10
61.3134
 20
12.5903
 11
61.8151
 21
12.1912
  0
LINE
  8
0
 10
61.8151
 20
12.1912
 11
62.4564
 21
11.9518
  0
LINE
  8
0
 10
62.4564
 20
11.9518
 11
63.2371
 21
11.872
  0
LINE
  8
0
 10
63.2371
 20
11.872
 11
64.4219
 21
12.1123
  0
LINE
  8
0
 10
64.4219
 20
12.1123
 11
65.2681
 21
12.8332
  0
LINE
  8
0
 10
65.2681
 20
12.8332
 11
65.7759
 21
14.0348
  0
LINE
  8
0
 10
65.7759
 20
14.0348
 11
65.9451
 21
15.717
  0
LINE
  8
0
 10
65.9451
 20
15.717
 11
65.903
 21
16.627
  0
LINE
  8
0
 10
65.903
 20
16.627
 11
65.7766
 21
17.407
  0
LINE
  8
0
 10
65.7766
 20
17.407
 11
65.566
 21
18.057
  0
LINE
  8
0
 10
65.566
 20
18.057
 11
65.2711
 21
18.577
  0
LINE
  8
0
 10
65.2711
 20
18.577
 11
64.8916
 21
18.9756
  0
LINE
  8
0
 10
64.8916
 20
18.9756
 11
64.4261
 21
19.2602
  0
LINE
  8
0
 10
64.4261
 20
19.2602
 11
63.8746
 21
19.4311
  0
LINE
  8
0
 10
63.8746
 20
19.4311
 11
63.2371
 21
19.488
  0
LINE
  8
0
 10
63.2371
 20
19.488
 11
62.8198
 21
19.4682
  0
LINE
  8
0
 10
62.8198
 20
19.4682
 11
62.4449
 21
19.409
  0
LINE
  8
0
 10
62.4449
 20
19.409
 11
62.1123
 21
19.3102
  0
LINE
  8
0
 10
62.1123
 20
19.3102
 11
61.8221
 21
19.172
  0
LINE
  8
0
 10
61.8221
 20
19.172
 11
61.5668
 21
18.9913
  0
LINE
  8
0
 10
61.5668
 20
18.9913
 11
61.3376
 21
18.7652
  0
LINE
  8
0
 10
61.3376
 20
18.7652
 11
61.1348
 21
18.4938
  0
LINE
  8
0
 10
61.1348
 20
18.4938
 11
60.9581
 21
18.177
  0
LINE
  8
0
 10
60.9581
 20
18.177
 11
60.9311
 21
18.177
  0
LINE
  8
0
 10
60.9311
 20
18.177
 11
60.9269
 21
18.3605
  0
LINE
  8
0
 10
60.9269
 20
18.3605
 11
60.9058
 21
18.8152
  0
LINE
  8
0
 10
60.9058
 20
18.8152
 11
60.8903
 21
19.0717
  0
LINE
  8
0
 10
60.8903
 20
19.0717
 11
60.8716
 21
19.298
  0
LINE
  8
0
 10
60.8716
 20
19.298
 11
60.8631
 21
19.36
  0
LINE
  8
0
 10
60.8631
 20
19.36
 11
59.6831
 21
19.36
  0
LINE
  8
0
 10
59.6831
 20
19.36
 11
59.7011
 21
19.1285
  0
LINE
  8
0
 10
59.7011
 20
19.1285
 11
59.7139
 21
18.801
  0
LINE
  8
0
 10
59.7139
 20
18.801
 11
59.7216
 21
18.3775
  0
LINE
  8
0
 10
59.7216
 20
18.3775
 11
59.7241
 21
17.858
  0
LINE
  8
0
 10
59.7241
 20
17.858
 11
59.7241
 21
9.12001
  0
LINE
  8
0
 10
59.7241
 20
9.12001
 11
60.9441
 21
9.12001
  0
LINE
  8
0
 10
60.9441
 20
9.12001
 11
60.9441
 21
11.994
  0
LINE
  8
0
 10
62.4273
 20
12.8169
 11
62.0149
 21
12.9455
  0
LINE
  8
0
 10
62.0149
 20
12.9455
 11
61.6748
 21
13.1599
  0
LINE
  8
0
 10
61.6748
 20
13.1599
 11
61.4071
 21
13.46
  0
LINE
  8
0
 10
61.4071
 20
13.46
 11
61.2046
 21
13.8511
  0
LINE
  8
0
 10
61.2046
 20
13.8511
 11
61.0599
 21
14.3372
  0
LINE
  8
0
 10
61.0599
 20
14.3372
 11
60.9731
 21
14.9185
  0
LINE
  8
0
 10
60.9731
 20
14.9185
 11
60.9441
 21
15.595
  0
LINE
  8
0
 10
60.9441
 20
15.595
 11
60.9575
 21
16.0906
  0
LINE
  8
0
 10
60.9575
 20
16.0906
 11
60.9976
 21
16.5372
  0
LINE
  8
0
 10
60.9976
 20
16.5372
 11
61.0645
 21
16.9351
  0
LINE
  8
0
 10
61.0645
 20
16.9351
 11
61.1581
 21
17.284
  0
LINE
  8
0
 10
61.1581
 20
17.284
 11
61.2779
 21
17.5871
  0
LINE
  8
0
 10
61.2779
 20
17.5871
 11
61.4224
 21
17.8472
  0
LINE
  8
0
 10
61.4224
 20
17.8472
 11
61.5914
 21
18.0646
  0
LINE
  8
0
 10
61.5914
 20
18.0646
 11
61.7851
 21
18.239
  0
LINE
  8
0
 10
61.7851
 20
18.239
 11
62.0109
 21
18.3729
  0
LINE
  8
0
 10
62.0109
 20
18.3729
 11
62.2764
 21
18.4685
  0
LINE
  8
0
 10
62.2764
 20
18.4685
 11
62.5814
 21
18.5259
  0
LINE
  8
0
 10
62.5814
 20
18.5259
 11
62.9261
 21
18.545
  0
LINE
  8
0
 10
62.9261
 20
18.545
 11
63.3484
 21
18.5037
  0
LINE
  8
0
 10
63.3484
 20
18.5037
 11
63.7094
 21
18.38
  0
LINE
  8
0
 10
63.7094
 20
18.38
 11
64.0089
 21
18.1737
  0
LINE
  8
0
 10
64.0089
 20
18.1737
 11
64.2471
 21
17.885
  0
LINE
  8
0
 10
64.2471
 20
17.885
 11
64.4291
 21
17.5007
  0
LINE
  8
0
 10
64.4291
 20
17.5007
 11
64.5591
 21
17.0067
  0
LINE
  8
0
 10
64.5591
 20
17.0067
 11
64.6371
 21
16.4032
  0
LINE
  8
0
 10
64.6371
 20
16.4032
 11
64.6631
 21
15.69
  0
LINE
  8
0
 10
64.6631
 20
15.69
 11
64.6369
 21
14.9582
  0
LINE
  8
0
 10
64.6369
 20
14.9582
 11
64.5584
 21
14.3397
  0
LINE
  8
0
 10
64.5584
 20
14.3397
 11
64.4274
 21
13.8347
  0
LINE
  8
0
 10
64.4274
 20
13.8347
 11
64.2441
 21
13.443
  0
LINE
  8
0
 10
64.2441
 20
13.443
 11
64.0038
 21
13.1503
  0
LINE
  8
0
 10
64.0038
 20
13.1503
 11
63.7016
 21
12.9412
  0
LINE
  8
0
 10
63.7016
 20
12.9412
 11
63.3378
 21
12.8158
  0
LINE
  8
0
 10
63.3378
 20
12.8158
 11
62.9121
 21
12.774
  0
LINE
  8
0
 10
62.9121
 20
12.774
 11
62.4273
 21
12.8169
  0
LINE
  8
0
 10
34.7397
 20
11.9309
 11
35.4047
 21
12.1077
  0
LINE
  8
0
 10
35.4047
 20
12.1077
 11
35.9737
 21
12.4024
  0
LINE
  8
0
 10
35.9737
 20
12.4024
 11
36.4467
 21
12.815
  0
LINE
  8
0
 10
36.4467
 20
12.815
 11
36.8186
 21
13.3485
  0
LINE
  8
0
 10
36.8186
 20
13.3485
 11
37.0842
 21
14.005
  0
LINE
  8
0
 10
37.0842
 20
14.005
 11
37.2436
 21
14.7845
  0
LINE
  8
0
 10
37.2436
 20
14.7845
 11
37.2967
 21
15.687
  0
LINE
  8
0
 10
37.2967
 20
15.687
 11
37.2469
 21
16.5971
  0
LINE
  8
0
 10
37.2469
 20
16.5971
 11
37.0977
 21
17.3795
  0
LINE
  8
0
 10
37.0977
 20
17.3795
 11
36.8489
 21
18.0341
  0
LINE
  8
0
 10
36.8489
 20
18.0341
 11
36.5007
 21
18.561
  0
LINE
  8
0
 10
36.5007
 20
18.561
 11
36.0475
 21
18.9666
  0
LINE
  8
0
 10
36.0475
 20
18.9666
 11
35.4829
 21
19.2562
  0
LINE
  8
0
 10
35.4829
 20
19.2562
 11
34.807
 21
19.4301
  0
LINE
  8
0
 10
34.807
 20
19.4301
 11
34.0197
 21
19.488
  0
LINE
  8
0
 10
34.0197
 20
19.488
 11
32.5773
 21
19.2504
  0
LINE
  8
0
 10
32.5773
 20
19.2504
 11
31.5469
 21
18.5377
  0
LINE
  8
0
 10
31.5469
 20
18.5377
 11
30.9288
 21
17.3499
  0
LINE
  8
0
 10
30.9288
 20
17.3499
 11
30.7227
 21
15.687
  0
LINE
  8
0
 10
30.7227
 20
15.687
 11
30.7741
 21
14.815
  0
LINE
  8
0
 10
30.7741
 20
14.815
 11
30.9282
 21
14.052
  0
LINE
  8
0
 10
30.9282
 20
14.052
 11
31.1851
 21
13.398
  0
LINE
  8
0
 10
31.1851
 20
13.398
 11
31.5447
 21
12.853
  0
LINE
  8
0
 10
31.5447
 20
12.853
 11
32.0054
 21
12.4238
  0
LINE
  8
0
 10
32.0054
 20
12.4238
 11
32.5647
 21
12.1172
  0
LINE
  8
0
 10
32.5647
 20
12.1172
 11
33.2224
 21
11.9333
  0
LINE
  8
0
 10
33.2224
 20
11.9333
 11
33.9787
 21
11.872
  0
LINE
  8
0
 10
33.9787
 20
11.872
 11
34.7397
 21
11.9309
  0
LINE
  8
0
 10
33.4921
 20
12.8196
 11
33.0862
 21
12.9565
  0
LINE
  8
0
 10
33.0862
 20
12.9565
 11
32.7481
 21
13.1846
  0
LINE
  8
0
 10
32.7481
 20
13.1846
 11
32.4777
 21
13.504
  0
LINE
  8
0
 10
32.4777
 20
13.504
 11
32.2708
 21
13.9142
  0
LINE
  8
0
 10
32.2708
 20
13.9142
 11
32.1229
 21
14.4147
  0
LINE
  8
0
 10
32.1229
 20
14.4147
 11
32.0343
 21
15.0057
  0
LINE
  8
0
 10
32.0343
 20
15.0057
 11
32.0047
 21
15.687
  0
LINE
  8
0
 10
32.0047
 20
15.687
 11
32.0347
 21
16.3845
  0
LINE
  8
0
 10
32.0347
 20
16.3845
 11
32.1247
 21
16.983
  0
LINE
  8
0
 10
32.1247
 20
16.983
 11
32.2747
 21
17.4825
  0
LINE
  8
0
 10
32.2747
 20
17.4825
 11
32.4847
 21
17.883
  0
LINE
  8
0
 10
32.4847
 20
17.883
 11
32.7619
 21
18.1906
  0
LINE
  8
0
 10
32.7619
 20
18.1906
 11
33.1137
 21
18.4102
  0
LINE
  8
0
 10
33.1137
 20
18.4102
 11
33.5399
 21
18.5421
  0
LINE
  8
0
 10
33.5399
 20
18.5421
 11
34.0407
 21
18.586
  0
LINE
  8
0
 10
34.0407
 20
18.586
 11
34.5366
 21
18.5429
  0
LINE
  8
0
 10
34.5366
 20
18.5429
 11
34.9554
 21
18.4137
  0
LINE
  8
0
 10
34.9554
 20
18.4137
 11
35.2971
 21
18.1984
  0
LINE
  8
0
 10
35.2971
 20
18.1984
 11
35.5617
 21
17.897
  0
LINE
  8
0
 10
35.5617
 20
17.897
 11
35.7599
 21
17.5005
  0
LINE
  8
0
 10
35.7599
 20
17.5005
 11
35.9014
 21
17
  0
LINE
  8
0
 10
35.9014
 20
17
 11
35.9864
 21
16.3955
  0
LINE
  8
0
 10
35.9864
 20
16.3955
 11
36.0147
 21
15.687
  0
LINE
  8
0
 10
36.0147
 20
15.687
 11
35.9851
 21
14.9862
  0
LINE
  8
0
 10
35.9851
 20
14.9862
 11
35.8964
 21
14.3847
  0
LINE
  8
0
 10
35.8964
 20
14.3847
 11
35.7486
 21
13.8827
  0
LINE
  8
0
 10
35.7486
 20
13.8827
 11
35.5417
 21
13.48
  0
LINE
  8
0
 10
35.5417
 20
13.48
 11
35.2658
 21
13.1711
  0
LINE
  8
0
 10
35.2658
 20
13.1711
 11
34.9112
 21
12.9505
  0
LINE
  8
0
 10
34.9112
 20
12.9505
 11
34.4778
 21
12.8181
  0
LINE
  8
0
 10
34.4778
 20
12.8181
 11
33.9657
 21
12.774
  0
LINE
  8
0
 10
33.9657
 20
12.774
 11
33.4921
 21
12.8196
  0
LINE
  8
0
 10
48.7893
 20
11.9119
 11
49.2987
 21
12.0317
  0
LINE
  8
0
 10
49.2987
 20
12.0317
 11
49.7569
 21
12.2314
  0
LINE
  8
0
 10
49.7569
 20
12.2314
 11
50.1639
 21
12.511
  0
LINE
  8
0
 10
50.1639
 20
12.511
 11
50.5067
 21
12.8576
  0
LINE
  8
0
 10
50.5067
 20
12.8576
 11
50.7719
 21
13.2582
  0
LINE
  8
0
 10
50.7719
 20
13.2582
 11
50.9597
 21
13.7131
  0
LINE
  8
0
 10
50.9597
 20
13.7131
 11
51.0699
 21
14.222
  0
LINE
  8
0
 10
51.0699
 20
14.222
 11
49.8359
 21
14.304
  0
LINE
  8
0
 10
49.8359
 20
14.304
 11
49.7633
 21
13.9542
  0
LINE
  8
0
 10
49.7633
 20
13.9542
 11
49.6484
 21
13.6527
  0
LINE
  8
0
 10
49.6484
 20
13.6527
 11
49.4913
 21
13.3997
  0
LINE
  8
0
 10
49.4913
 20
13.3997
 11
49.2919
 21
13.195
  0
LINE
  8
0
 10
49.2919
 20
13.195
 11
49.0584
 21
13.0375
  0
LINE
  8
0
 10
49.0584
 20
13.0375
 11
48.7979
 21
12.925
  0
LINE
  8
0
 10
48.7979
 20
12.925
 11
48.5104
 21
12.8575
  0
LINE
  8
0
 10
48.5104
 20
12.8575
 11
48.1959
 21
12.835
  0
LINE
  8
0
 10
48.1959
 20
12.835
 11
47.7569
 21
12.8791
  0
LINE
  8
0
 10
47.7569
 20
12.8791
 11
47.3769
 21
13.0115
  0
LINE
  8
0
 10
47.3769
 20
13.0115
 11
47.0559
 21
13.2321
  0
LINE
  8
0
 10
47.0559
 20
13.2321
 11
46.7939
 21
13.541
  0
LINE
  8
0
 10
46.7939
 20
13.541
 11
46.5909
 21
13.9416
  0
LINE
  8
0
 10
46.5909
 20
13.9416
 11
46.4459
 21
14.4372
  0
LINE
  8
0
 10
46.4459
 20
14.4372
 11
46.3589
 21
15.0281
  0
LINE
  8
0
 10
46.3589
 20
15.0281
 11
46.3299
 21
15.714
  0
LINE
  8
0
 10
46.3299
 20
15.714
 11
46.3572
 21
16.4228
  0
LINE
  8
0
 10
46.3572
 20
16.4228
 11
46.4392
 21
17.0212
  0
LINE
  8
0
 10
46.4392
 20
17.0212
 11
46.5757
 21
17.5093
  0
LINE
  8
0
 10
46.5757
 20
17.5093
 11
46.7669
 21
17.887
  0
LINE
  8
0
 10
46.7669
 20
17.887
 11
47.0196
 21
18.1692
  0
LINE
  8
0
 10
47.0196
 20
18.1692
 11
47.3397
 21
18.3707
  0
LINE
  8
0
 10
47.3397
 20
18.3707
 11
47.7271
 21
18.4917
  0
LINE
  8
0
 10
47.7271
 20
18.4917
 11
48.1819
 21
18.532
  0
LINE
  8
0
 10
48.1819
 20
18.532
 11
48.5203
 21
18.5092
  0
LINE
  8
0
 10
48.5203
 20
18.5092
 11
48.8177
 21
18.4407
  0
LINE
  8
0
 10
48.8177
 20
18.4407
 11
49.0738
 21
18.3267
  0
LINE
  8
0
 10
49.0738
 20
18.3267
 11
49.2889
 21
18.167
  0
LINE
  8
0
 10
49.2889
 20
18.167
 11
49.4655
 21
17.9691
  0
LINE
  8
0
 10
49.4655
 20
17.9691
 11
49.6054
 21
17.7392
  0
LINE
  8
0
 10
49.6054
 20
17.7392
 11
49.7085
 21
17.4776
  0
LINE
  8
0
 10
49.7085
 20
17.4776
 11
49.7749
 21
17.184
  0
LINE
  8
0
 10
49.7749
 20
17.184
 11
51.0289
 21
17.28
  0
LINE
  8
0
 10
51.0289
 20
17.28
 11
50.8987
 21
17.7682
  0
LINE
  8
0
 10
50.8987
 20
17.7682
 11
50.6992
 21
18.201
  0
LINE
  8
0
 10
50.6992
 20
18.201
 11
50.4302
 21
18.5782
  0
LINE
  8
0
 10
50.4302
 20
18.5782
 11
50.0919
 21
18.9
  0
LINE
  8
0
 10
50.0919
 20
18.9
 11
49.6949
 21
19.1572
  0
LINE
  8
0
 10
49.6949
 20
19.1572
 11
49.2499
 21
19.341
  0
LINE
  8
0
 10
49.2499
 20
19.341
 11
48.7569
 21
19.4512
  0
LINE
  8
0
 10
48.7569
 20
19.4512
 11
48.2159
 21
19.488
  0
LINE
  8
0
 10
48.2159
 20
19.488
 11
47.4972
 21
19.4271
  0
LINE
  8
0
 10
47.4972
 20
19.4271
 11
46.8669
 21
19.2445
  0
LINE
  8
0
 10
46.8669
 20
19.2445
 11
46.3251
 21
18.9401
  0
LINE
  8
0
 10
46.3251
 20
18.9401
 11
45.8719
 21
18.514
  0
LINE
  8
0
 10
45.8719
 20
18.514
 11
45.5145
 21
17.9721
  0
LINE
  8
0
 10
45.5145
 20
17.9721
 11
45.2592
 21
17.3202
  0
LINE
  8
0
 10
45.2592
 20
17.3202
 11
45.106
 21
16.5585
  0
LINE
  8
0
 10
45.106
 20
16.5585
 11
45.0549
 21
15.687
  0
LINE
  8
0
 10
45.0549
 20
15.687
 11
45.1058
 21
14.8093
  0
LINE
  8
0
 10
45.1058
 20
14.8093
 11
45.2584
 21
14.0432
  0
LINE
  8
0
 10
45.2584
 20
14.0432
 11
45.5128
 21
13.3888
  0
LINE
  8
0
 10
45.5128
 20
13.3888
 11
45.8689
 21
12.846
  0
LINE
  8
0
 10
45.8689
 20
12.846
 11
46.3217
 21
12.4199
  0
LINE
  8
0
 10
46.3217
 20
12.4199
 11
46.8659
 21
12.1155
  0
LINE
  8
0
 10
46.8659
 20
12.1155
 11
47.5017
 21
11.9329
  0
LINE
  8
0
 10
47.5017
 20
11.9329
 11
48.2289
 21
11.872
  0
LINE
  8
0
 10
48.2289
 20
11.872
 11
48.7893
 21
11.9119
  0
LINE
  8
0
 10
55.8452
 20
11.9309
 11
56.5102
 21
12.1077
  0
LINE
  8
0
 10
56.5102
 20
12.1077
 11
57.0792
 21
12.4024
  0
LINE
  8
0
 10
57.0792
 20
12.4024
 11
57.5522
 21
12.815
  0
LINE
  8
0
 10
57.5522
 20
12.815
 11
57.924
 21
13.3485
  0
LINE
  8
0
 10
57.924
 20
13.3485
 11
58.1897
 21
14.005
  0
LINE
  8
0
 10
58.1897
 20
14.005
 11
58.349
 21
14.7845
  0
LINE
  8
0
 10
58.349
 20
14.7845
 11
58.4022
 21
15.687
  0
LINE
  8
0
 10
58.4022
 20
15.687
 11
58.3524
 21
16.5971
  0
LINE
  8
0
 10
58.3524
 20
16.5971
 11
58.2032
 21
17.3795
  0
LINE
  8
0
 10
58.2032
 20
17.3795
 11
57.9544
 21
18.0341
  0
LINE
  8
0
 10
57.9544
 20
18.0341
 11
57.6062
 21
18.561
  0
LINE
  8
0
 10
57.6062
 20
18.561
 11
57.153
 21
18.9666
  0
LINE
  8
0
 10
57.153
 20
18.9666
 11
56.5884
 21
19.2562
  0
LINE
  8
0
 10
56.5884
 20
19.2562
 11
55.9125
 21
19.4301
  0
LINE
  8
0
 10
55.9125
 20
19.4301
 11
55.1252
 21
19.488
  0
LINE
  8
0
 10
55.1252
 20
19.488
 11
53.6827
 21
19.2504
  0
LINE
  8
0
 10
53.6827
 20
19.2504
 11
52.6524
 21
18.5377
  0
LINE
  8
0
 10
52.6524
 20
18.5377
 11
52.0342
 21
17.3499
  0
LINE
  8
0
 10
52.0342
 20
17.3499
 11
51.8282
 21
15.687
  0
LINE
  8
0
 10
51.8282
 20
15.687
 11
51.8795
 21
14.815
  0
LINE
  8
0
 10
51.8795
 20
14.815
 11
52.0337
 21
14.052
  0
LINE
  8
0
 10
52.0337
 20
14.052
 11
52.2905
 21
13.398
  0
LINE
  8
0
 10
52.2905
 20
13.398
 11
52.6502
 21
12.853
  0
LINE
  8
0
 10
52.6502
 20
12.853
 11
53.1109
 21
12.4238
  0
LINE
  8
0
 10
53.1109
 20
12.4238
 11
53.6702
 21
12.1172
  0
LINE
  8
0
 10
53.6702
 20
12.1172
 11
54.3279
 21
11.9333
  0
LINE
  8
0
 10
54.3279
 20
11.9333
 11
55.0842
 21
11.872
  0
LINE
  8
0
 10
55.0842
 20
11.872
 11
55.8452
 21
11.9309
  0
LINE
  8
0
 10
54.5975
 20
12.8196
 11
54.1917
 21
12.9565
  0
LINE
  8
0
 10
54.1917
 20
12.9565
 11
53.8535
 21
13.1846
  0
LINE
  8
0
 10
53.8535
 20
13.1846
 11
53.5832
 21
13.504
  0
LINE
  8
0
 10
53.5832
 20
13.504
 11
53.3762
 21
13.9142
  0
LINE
  8
0
 10
53.3762
 20
13.9142
 11
53.2284
 21
14.4147
  0
LINE
  8
0
 10
53.2284
 20
14.4147
 11
53.1397
 21
15.0057
  0
LINE
  8
0
 10
53.1397
 20
15.0057
 11
53.1102
 21
15.687
  0
LINE
  8
0
 10
53.1102
 20
15.687
 11
53.1402
 21
16.3845
  0
LINE
  8
0
 10
53.1402
 20
16.3845
 11
53.2302
 21
16.983
  0
LINE
  8
0
 10
53.2302
 20
16.983
 11
53.3802
 21
17.4825
  0
LINE
  8
0
 10
53.3802
 20
17.4825
 11
53.5901
 21
17.883
  0
LINE
  8
0
 10
53.5901
 20
17.883
 11
53.8674
 21
18.1906
  0
LINE
  8
0
 10
53.8674
 20
18.1906
 11
54.2192
 21
18.4102
  0
LINE
  8
0
 10
54.2192
 20
18.4102
 11
54.6454
 21
18.5421
  0
LINE
  8
0
 10
54.6454
 20
18.5421
 11
55.1462
 21
18.586
  0
LINE
  8
0
 10
55.1462
 20
18.586
 11
55.6421
 21
18.5429
  0
LINE
  8
0
 10
55.6421
 20
18.5429
 11
56.0609
 21
18.4137
  0
LINE
  8
0
 10
56.0609
 20
18.4137
 11
56.4026
 21
18.1984
  0
LINE
  8
0
 10
56.4026
 20
18.1984
 11
56.6672
 21
17.897
  0
LINE
  8
0
 10
56.6672
 20
17.897
 11
56.8653
 21
17.5005
  0
LINE
  8
0
 10
56.8653
 20
17.5005
 11
57.0069
 21
17
  0
LINE
  8
0
 10
57.0069
 20
17
 11
57.0918
 21
16.3955
  0
LINE
  8
0
 10
57.0918
 20
16.3955
 11
57.1202
 21
15.687
  0
LINE
  8
0
 10
57.1202
 20
15.687
 11
57.0906
 21
14.9862
  0
LINE
  8
0
 10
57.0906
 20
14.9862
 11
57.0019
 21
14.3847
  0
LINE
  8
0
 10
57.0019
 20
14.3847
 11
56.8541
 21
13.8827
  0
LINE
  8
0
 10
56.8541
 20
13.8827
 11
56.6472
 21
13.48
  0
LINE
  8
0
 10
56.6472
 20
13.48
 11
56.3713
 21
13.1711
  0
LINE
  8
0
 10
56.3713
 20
13.1711
 11
56.0167
 21
12.9505
  0
LINE
  8
0
 10
56.0167
 20
12.9505
 11
55.5833
 21
12.8181
  0
LINE
  8
0
 10
55.5833
 20
12.8181
 11
55.0712
 21
12.774
  0
LINE
  8
0
 10
55.0712
 20
12.774
 11
54.5975
 21
12.8196
  0
LINE
  8
0
 10
21.6585
 20
11.9119
 11
22.1678
 21
12.0317
  0
LINE
  8
0
 10
22.1678
 20
12.0317
 11
22.626
 21
12.2314
  0
LINE
  8
0
 10
22.626
 20
12.2314
 11
23.0331
 21
12.511
  0
LINE
  8
0
 10
23.0331
 20
12.511
 11
23.3758
 21
12.8576
  0
LINE
  8
0
 10
23.3758
 20
12.8576
 11
23.6411
 21
13.2582
  0
LINE
  8
0
 10
23.6411
 20
13.2582
 11
23.8288
 21
13.7131
  0
LINE
  8
0
 10
23.8288
 20
13.7131
 11
23.939
 21
14.222
  0
LINE
  8
0
 10
23.939
 20
14.222
 11
22.705
 21
14.304
  0
LINE
  8
0
 10
22.705
 20
14.304
 11
22.6324
 21
13.9542
  0
LINE
  8
0
 10
22.6324
 20
13.9542
 11
22.5175
 21
13.6527
  0
LINE
  8
0
 10
22.5175
 20
13.6527
 11
22.3604
 21
13.3997
  0
LINE
  8
0
 10
22.3604
 20
13.3997
 11
22.161
 21
13.195
  0
LINE
  8
0
 10
22.161
 20
13.195
 11
21.9276
 21
13.0375
  0
LINE
  8
0
 10
21.9276
 20
13.0375
 11
21.6671
 21
12.925
  0
LINE
  8
0
 10
21.6671
 20
12.925
 11
21.3795
 21
12.8575
  0
LINE
  8
0
 10
21.3795
 20
12.8575
 11
21.065
 21
12.835
  0
LINE
  8
0
 10
21.065
 20
12.835
 11
20.6261
 21
12.8791
  0
LINE
  8
0
 10
20.6261
 20
12.8791
 11
20.246
 21
13.0115
  0
LINE
  8
0
 10
20.246
 20
13.0115
 11
19.925
 21
13.2321
  0
LINE
  8
0
 10
19.925
 20
13.2321
 11
19.663
 21
13.541
  0
LINE
  8
0
 10
19.663
 20
13.541
 11
19.4601
 21
13.9416
  0
LINE
  8
0
 10
19.4601
 20
13.9416
 11
19.315
 21
14.4372
  0
LINE
  8
0
 10
19.315
 20
14.4372
 11
19.228
 21
15.0281
  0
LINE
  8
0
 10
19.228
 20
15.0281
 11
19.1991
 21
15.714
  0
LINE
  8
0
 10
19.1991
 20
15.714
 11
19.2264
 21
16.4228
  0
LINE
  8
0
 10
19.2264
 20
16.4228
 11
19.3083
 21
17.0212
  0
LINE
  8
0
 10
19.3083
 20
17.0212
 11
19.4449
 21
17.5093
  0
LINE
  8
0
 10
19.4449
 20
17.5093
 11
19.636
 21
17.887
  0
LINE
  8
0
 10
19.636
 20
17.887
 11
19.8887
 21
18.1692
  0
LINE
  8
0
 10
19.8887
 20
18.1692
 11
20.2088
 21
18.3707
  0
LINE
  8
0
 10
20.2088
 20
18.3707
 11
20.5962
 21
18.4917
  0
LINE
  8
0
 10
20.5962
 20
18.4917
 11
21.051
 21
18.532
  0
LINE
  8
0
 10
21.051
 20
18.532
 11
21.3895
 21
18.5092
  0
LINE
  8
0
 10
21.3895
 20
18.5092
 11
21.6868
 21
18.4407
  0
LINE
  8
0
 10
21.6868
 20
18.4407
 11
21.943
 21
18.3267
  0
LINE
  8
0
 10
21.943
 20
18.3267
 11
22.1581
 21
18.167
  0
LINE
  8
0
 10
22.1581
 20
18.167
 11
22.3347
 21
17.9691
  0
LINE
  8
0
 10
22.3347
 20
17.9691
 11
22.4745
 21
17.7392
  0
LINE
  8
0
 10
22.4745
 20
17.7392
 11
22.5777
 21
17.4776
  0
LINE
  8
0
 10
22.5777
 20
17.4776
 11
22.644
 21
17.184
  0
LINE
  8
0
 10
22.644
 20
17.184
 11
23.898
 21
17.28
  0
LINE
  8
0
 10
23.898
 20
17.28
 11
23.7679
 21
17.7682
  0
LINE
  8
0
 10
23.7679
 20
17.7682
 11
23.5683
 21
18.201
  0
LINE
  8
0
 10
23.5683
 20
18.201
 11
23.2994
 21
18.5782
  0
LINE
  8
0
 10
23.2994
 20
18.5782
 11
22.961
 21
18.9
  0
LINE
  8
0
 10
22.961
 20
18.9
 11
22.564
 21
19.1572
  0
LINE
  8
0
 10
22.564
 20
19.1572
 11
22.119
 21
19.341
  0
LINE
  8
0
 10
22.119
 20
19.341
 11
21.6261
 21
19.4512
  0
LINE
  8
0
 10
21.6261
 20
19.4512
 11
21.0851
 21
19.488
  0
LINE
  8
0
 10
21.0851
 20
19.488
 11
20.3663
 21
19.4271
  0
LINE
  8
0
 10
20.3663
 20
19.4271
 11
19.7361
 21
19.2445
  0
LINE
  8
0
 10
19.7361
 20
19.2445
 11
19.1943
 21
18.9401
  0
LINE
  8
0
 10
19.1943
 20
18.9401
 11
18.741
 21
18.514
  0
LINE
  8
0
 10
18.741
 20
18.514
 11
18.3836
 21
17.9721
  0
LINE
  8
0
 10
18.3836
 20
17.9721
 11
18.1283
 21
17.3202
  0
LINE
  8
0
 10
18.1283
 20
17.3202
 11
17.9751
 21
16.5585
  0
LINE
  8
0
 10
17.9751
 20
16.5585
 11
17.924
 21
15.687
  0
LINE
  8
0
 10
17.924
 20
15.687
 11
17.9749
 21
14.8093
  0
LINE
  8
0
 10
17.9749
 20
14.8093
 11
18.1275
 21
14.0432
  0
LINE
  8
0
 10
18.1275
 20
14.0432
 11
18.3819
 21
13.3888
  0
LINE
  8
0
 10
18.3819
 20
13.3888
 11
18.7381
 21
12.846
  0
LINE
  8
0
 10
18.7381
 20
12.846
 11
19.1908
 21
12.4199
  0
LINE
  8
0
 10
19.1908
 20
12.4199
 11
19.735
 21
12.1155
  0
LINE
  8
0
 10
19.735
 20
12.1155
 11
20.3708
 21
11.9329
  0
LINE
  8
0
 10
20.3708
 20
11.9329
 11
21.0981
 21
11.872
  0
LINE
  8
0
 10
21.0981
 20
11.872
 11
21.6585
 21
11.9119
  0
LINE
  8
0
 10
14.6999
 20
11.907
 11
15.2903
 21
12.012
  0
LINE
  8
0
 10
15.2903
 20
12.012
 11
15.8019
 21
12.187
  0
LINE
  8
0
 10
15.8019
 20
12.187
 11
16.2348
 21
12.432
  0
LINE
  8
0
 10
16.2348
 20
12.432
 11
16.5791
 21
12.7416
  0
LINE
  8
0
 10
16.5791
 20
12.7416
 11
16.825
 21
13.1102
  0
LINE
  8
0
 10
16.825
 20
13.1102
 11
16.9726
 21
13.5381
  0
LINE
  8
0
 10
16.9726
 20
13.5381
 11
17.0218
 21
14.025
  0
LINE
  8
0
 10
17.0218
 20
14.025
 11
17.0132
 21
14.2287
  0
LINE
  8
0
 10
17.0132
 20
14.2287
 11
16.9875
 21
14.421
  0
LINE
  8
0
 10
16.9875
 20
14.421
 11
16.9447
 21
14.6017
  0
LINE
  8
0
 10
16.9447
 20
14.6017
 11
16.8848
 21
14.771
  0
LINE
  8
0
 10
16.8848
 20
14.771
 11
16.8097
 21
14.9297
  0
LINE
  8
0
 10
16.8097
 20
14.9297
 11
16.7206
 21
15.0787
  0
LINE
  8
0
 10
16.7206
 20
15.0787
 11
16.6172
 21
15.2182
  0
LINE
  8
0
 10
16.6172
 20
15.2182
 11
16.4998
 21
15.348
  0
LINE
  8
0
 10
16.4998
 20
15.348
 11
16.364
 21
15.4702
  0
LINE
  8
0
 10
16.364
 20
15.4702
 11
16.2056
 21
15.5867
  0
LINE
  8
0
 10
16.2056
 20
15.5867
 11
16.0245
 21
15.6977
  0
LINE
  8
0
 10
16.0245
 20
15.6977
 11
15.8208
 21
15.803
  0
LINE
  8
0
 10
15.8208
 20
15.803
 11
15.5721
 21
15.9083
  0
LINE
  8
0
 10
15.5721
 20
15.9083
 11
15.2551
 21
16.0182
  0
LINE
  8
0
 10
15.2551
 20
16.0182
 11
14.8696
 21
16.1328
  0
LINE
  8
0
 10
14.8696
 20
16.1328
 11
14.4158
 21
16.252
  0
LINE
  8
0
 10
14.4158
 20
16.252
 11
13.9455
 21
16.3702
  0
LINE
  8
0
 10
13.9455
 20
16.3702
 11
13.5638
 21
16.475
  0
LINE
  8
0
 10
13.5638
 20
16.475
 11
13.2706
 21
16.5662
  0
LINE
  8
0
 10
13.2706
 20
16.5662
 11
13.0658
 21
16.644
  0
LINE
  8
0
 10
13.0658
 20
16.644
 11
12.9151
 21
16.7188
  0
LINE
  8
0
 10
12.9151
 20
16.7188
 11
12.784
 21
16.801
  0
LINE
  8
0
 10
12.784
 20
16.801
 11
12.6726
 21
16.8907
  0
LINE
  8
0
 10
12.6726
 20
16.8907
 11
12.5808
 21
16.988
  0
LINE
  8
0
 10
12.5808
 20
16.988
 11
12.5095
 21
17.0962
  0
LINE
  8
0
 10
12.5095
 20
17.0962
 11
12.4585
 21
17.2177
  0
LINE
  8
0
 10
12.4585
 20
17.2177
 11
12.428
 21
17.3527
  0
LINE
  8
0
 10
12.428
 20
17.3527
 11
12.4178
 21
17.501
  0
LINE
  8
0
 10
12.4178
 20
17.501
 11
12.4426
 21
17.737
  0
LINE
  8
0
 10
12.4426
 20
17.737
 11
12.5168
 21
17.941
  0
LINE
  8
0
 10
12.5168
 20
17.941
 11
12.6405
 21
18.113
  0
LINE
  8
0
 10
12.6405
 20
18.113
 11
12.8138
 21
18.253
  0
LINE
  8
0
 10
12.8138
 20
18.253
 11
13.0396
 21
18.3619
  0
LINE
  8
0
 10
13.0396
 20
18.3619
 11
13.3198
 21
18.4397
  0
LINE
  8
0
 10
13.3198
 20
18.4397
 11
13.6545
 21
18.4864
  0
LINE
  8
0
 10
13.6545
 20
18.4864
 11
14.0438
 21
18.502
  0
LINE
  8
0
 10
14.0438
 20
18.502
 11
14.4007
 21
18.4857
  0
LINE
  8
0
 10
14.4007
 20
18.4857
 11
14.7195
 21
18.4367
  0
LINE
  8
0
 10
14.7195
 20
18.4367
 11
15.0002
 21
18.3552
  0
LINE
  8
0
 10
15.0002
 20
18.3552
 11
15.2428
 21
18.241
  0
LINE
  8
0
 10
15.2428
 20
18.241
 11
15.4452
 21
18.0962
  0
LINE
  8
0
 10
15.4452
 20
18.0962
 11
15.6046
 21
17.923
  0
LINE
  8
0
 10
15.6046
 20
17.923
 11
15.7207
 21
17.7212
  0
LINE
  8
0
 10
15.7207
 20
17.7212
 11
15.7938
 21
17.491
  0
LINE
  8
0
 10
15.7938
 20
17.491
 11
16.8918
 21
17.627
  0
LINE
  8
0
 10
16.8918
 20
17.627
 11
16.7633
 21
18.0658
  0
LINE
  8
0
 10
16.7633
 20
18.0658
 11
16.5688
 21
18.4402
  0
LINE
  8
0
 10
16.5688
 20
18.4402
 11
16.3083
 21
18.7503
  0
LINE
  8
0
 10
16.3083
 20
18.7503
 11
15.9818
 21
18.996
  0
LINE
  8
0
 10
15.9818
 20
18.996
 11
15.5914
 21
19.1832
  0
LINE
  8
0
 10
15.5914
 20
19.1832
 11
15.1383
 21
19.317
  0
LINE
  8
0
 10
15.1383
 20
19.317
 11
14.6224
 21
19.3972
  0
LINE
  8
0
 10
14.6224
 20
19.3972
 11
14.0438
 21
19.424
  0
LINE
  8
0
 10
14.0438
 20
19.424
 11
13.3969
 21
19.3913
  0
LINE
  8
0
 10
13.3969
 20
19.3913
 11
12.832
 21
19.2932
  0
LINE
  8
0
 10
12.832
 20
19.2932
 11
12.3494
 21
19.1298
  0
LINE
  8
0
 10
12.3494
 20
19.1298
 11
11.9488
 21
18.901
  0
LINE
  8
0
 10
11.9488
 20
18.901
 11
11.6347
 21
18.6097
  0
LINE
  8
0
 10
11.6347
 20
18.6097
 11
11.4103
 21
18.259
  0
LINE
  8
0
 10
11.4103
 20
18.259
 11
11.2757
 21
17.8487
  0
LINE
  8
0
 10
11.2757
 20
17.8487
 11
11.2308
 21
17.379
  0
LINE
  8
0
 10
11.2308
 20
17.379
 11
11.2466
 21
17.1196
  0
LINE
  8
0
 10
11.2466
 20
17.1196
 11
11.2938
 21
16.8812
  0
LINE
  8
0
 10
11.2938
 20
16.8812
 11
11.3725
 21
16.6641
  0
LINE
  8
0
 10
11.3725
 20
16.6641
 11
11.4828
 21
16.468
  0
LINE
  8
0
 10
11.4828
 20
16.468
 11
11.6214
 21
16.2894
  0
LINE
  8
0
 10
11.6214
 20
16.2894
 11
11.784
 21
16.1247
  0
LINE
  8
0
 10
11.784
 20
16.1247
 11
11.9709
 21
15.9739
  0
LINE
  8
0
 10
11.9709
 20
15.9739
 11
12.1818
 21
15.837
  0
LINE
  8
0
 10
12.1818
 20
15.837
 11
12.4434
 21
15.7064
  0
LINE
  8
0
 10
12.4434
 20
15.7064
 11
12.7813
 21
15.5745
  0
LINE
  8
0
 10
12.7813
 20
15.5745
 11
13.1954
 21
15.4414
  0
LINE
  8
0
 10
13.1954
 20
15.4414
 11
13.6858
 21
15.307
  0
LINE
  8
0
 10
13.6858
 20
15.307
 11
14.5658
 21
15.077
  0
LINE
  8
0
 10
14.5658
 20
15.077
 11
14.8772
 21
14.9836
  0
LINE
  8
0
 10
14.8772
 20
14.9836
 11
15.1425
 21
14.8782
  0
LINE
  8
0
 10
15.1425
 20
14.8782
 11
15.3617
 21
14.761
  0
LINE
  8
0
 10
15.3617
 20
14.761
 11
15.5348
 21
14.632
  0
LINE
  8
0
 10
15.5348
 20
14.632
 11
15.666
 21
14.4869
  0
LINE
  8
0
 10
15.666
 20
14.4869
 11
15.7598
 21
14.3215
  0
LINE
  8
0
 10
15.7598
 20
14.3215
 11
15.816
 21
14.1359
  0
LINE
  8
0
 10
15.816
 20
14.1359
 11
15.8348
 21
13.93
  0
LINE
  8
0
 10
15.8348
 20
13.93
 11
15.8077
 21
13.6656
  0
LINE
  8
0
 10
15.8077
 20
13.6656
 11
15.7263
 21
13.4362
  0
LINE
  8
0
 10
15.7263
 20
13.4362
 11
15.5907
 21
13.2421
  0
LINE
  8
0
 10
15.5907
 20
13.2421
 11
15.4008
 21
13.083
  0
LINE
  8
0
 10
15.4008
 20
13.083
 11
15.1524
 21
12.9596
  0
LINE
  8
0
 10
15.1524
 20
12.9596
 11
14.8413
 21
12.8715
  0
LINE
  8
0
 10
14.8413
 20
12.8715
 11
14.4674
 21
12.8186
  0
LINE
  8
0
 10
14.4674
 20
12.8186
 11
14.0308
 21
12.801
  0
LINE
  8
0
 10
14.0308
 20
12.801
 11
13.6177
 21
12.8182
  0
LINE
  8
0
 10
13.6177
 20
12.8182
 11
13.2523
 21
12.8697
  0
LINE
  8
0
 10
13.2523
 20
12.8697
 11
12.9347
 21
12.9557
  0
LINE
  8
0
 10
12.9347
 20
12.9557
 11
12.6648
 21
13.076
  0
LINE
  8
0
 10
12.6648
 20
13.076
 11
12.4397
 21
13.2332
  0
LINE
  8
0
 10
12.4397
 20
13.2332
 11
12.2565
 21
13.4297
  0
LINE
  8
0
 10
12.2565
 20
13.4297
 11
12.1152
 21
13.6657
  0
LINE
  8
0
 10
12.1152
 20
13.6657
 11
12.0158
 21
13.941
  0
LINE
  8
0
 10
12.0158
 20
13.941
 11
10.9378
 21
13.731
  0
LINE
  8
0
 10
10.9378
 20
13.731
 11
11.0829
 21
13.2841
  0
LINE
  8
0
 10
11.0829
 20
13.2841
 11
11.293
 21
12.9005
  0
LINE
  8
0
 10
11.293
 20
12.9005
 11
11.5684
 21
12.5801
  0
LINE
  8
0
 10
11.5684
 20
12.5801
 11
11.9088
 21
12.323
  0
LINE
  8
0
 10
11.9088
 20
12.323
 11
12.3212
 21
12.1257
  0
LINE
  8
0
 10
12.3212
 20
12.1257
 11
12.8123
 21
11.9848
  0
LINE
  8
0
 10
12.8123
 20
11.9848
 11
13.3822
 21
11.9002
  0
LINE
  8
0
 10
13.3822
 20
11.9002
 11
14.0308
 21
11.872
  0
LINE
  8
0
 10
14.0308
 20
11.872
 11
14.6999
 21
11.907
  0
LINE
  8
0
 10
41.8308
 20
11.907
 11
42.4212
 21
12.012
  0
LINE
  8
0
 10
42.4212
 20
12.012
 11
42.9328
 21
12.187
  0
LINE
  8
0
 10
42.9328
 20
12.187
 11
43.3657
 21
12.432
  0
LINE
  8
0
 10
43.3657
 20
12.432
 11
43.71
 21
12.7416
  0
LINE
  8
0
 10
43.71
 20
12.7416
 11
43.9559
 21
13.1102
  0
LINE
  8
0
 10
43.9559
 20
13.1102
 11
44.1035
 21
13.5381
  0
LINE
  8
0
 10
44.1035
 20
13.5381
 11
44.1526
 21
14.025
  0
LINE
  8
0
 10
44.1526
 20
14.025
 11
44.1441
 21
14.2287
  0
LINE
  8
0
 10
44.1441
 20
14.2287
 11
44.1184
 21
14.421
  0
LINE
  8
0
 10
44.1184
 20
14.421
 11
44.0756
 21
14.6017
  0
LINE
  8
0
 10
44.0756
 20
14.6017
 11
44.0157
 21
14.771
  0
LINE
  8
0
 10
44.0157
 20
14.771
 11
43.9406
 21
14.9297
  0
LINE
  8
0
 10
43.9406
 20
14.9297
 11
43.8514
 21
15.0787
  0
LINE
  8
0
 10
43.8514
 20
15.0787
 11
43.7481
 21
15.2182
  0
LINE
  8
0
 10
43.7481
 20
15.2182
 11
43.6307
 21
15.348
  0
LINE
  8
0
 10
43.6307
 20
15.348
 11
43.4948
 21
15.4702
  0
LINE
  8
0
 10
43.4948
 20
15.4702
 11
43.3364
 21
15.5867
  0
LINE
  8
0
 10
43.3364
 20
15.5867
 11
43.1553
 21
15.6977
  0
LINE
  8
0
 10
43.1553
 20
15.6977
 11
42.9517
 21
15.803
  0
LINE
  8
0
 10
42.9517
 20
15.803
 11
42.703
 21
15.9083
  0
LINE
  8
0
 10
42.703
 20
15.9083
 11
42.3859
 21
16.0182
  0
LINE
  8
0
 10
42.3859
 20
16.0182
 11
42.0005
 21
16.1328
  0
LINE
  8
0
 10
42.0005
 20
16.1328
 11
41.5467
 21
16.252
  0
LINE
  8
0
 10
41.5467
 20
16.252
 11
41.0764
 21
16.3702
  0
LINE
  8
0
 10
41.0764
 20
16.3702
 11
40.6947
 21
16.475
  0
LINE
  8
0
 10
40.6947
 20
16.475
 11
40.4014
 21
16.5662
  0
LINE
  8
0
 10
40.4014
 20
16.5662
 11
40.1967
 21
16.644
  0
LINE
  8
0
 10
40.1967
 20
16.644
 11
40.046
 21
16.7188
  0
LINE
  8
0
 10
40.046
 20
16.7188
 11
39.9149
 21
16.801
  0
LINE
  8
0
 10
39.9149
 20
16.801
 11
39.8035
 21
16.8907
  0
LINE
  8
0
 10
39.8035
 20
16.8907
 11
39.7117
 21
16.988
  0
LINE
  8
0
 10
39.7117
 20
16.988
 11
39.6404
 21
17.0962
  0
LINE
  8
0
 10
39.6404
 20
17.0962
 11
39.5894
 21
17.2177
  0
LINE
  8
0
 10
39.5894
 20
17.2177
 11
39.5588
 21
17.3527
  0
LINE
  8
0
 10
39.5588
 20
17.3527
 11
39.5487
 21
17.501
  0
LINE
  8
0
 10
39.5487
 20
17.501
 11
39.5734
 21
17.737
  0
LINE
  8
0
 10
39.5734
 20
17.737
 11
39.6477
 21
17.941
  0
LINE
  8
0
 10
39.6477
 20
17.941
 11
39.7714
 21
18.113
  0
LINE
  8
0
 10
39.7714
 20
18.113
 11
39.9447
 21
18.253
  0
LINE
  8
0
 10
39.9447
 20
18.253
 11
40.1704
 21
18.3619
  0
LINE
  8
0
 10
40.1704
 20
18.3619
 11
40.4507
 21
18.4397
  0
LINE
  8
0
 10
40.4507
 20
18.4397
 11
40.7854
 21
18.4864
  0
LINE
  8
0
 10
40.7854
 20
18.4864
 11
41.1747
 21
18.502
  0
LINE
  8
0
 10
41.1747
 20
18.502
 11
41.5316
 21
18.4857
  0
LINE
  8
0
 10
41.5316
 20
18.4857
 11
41.8504
 21
18.4367
  0
LINE
  8
0
 10
41.8504
 20
18.4367
 11
42.1311
 21
18.3552
  0
LINE
  8
0
 10
42.1311
 20
18.3552
 11
42.3737
 21
18.241
  0
LINE
  8
0
 10
42.3737
 20
18.241
 11
42.5761
 21
18.0962
  0
LINE
  8
0
 10
42.5761
 20
18.0962
 11
42.7354
 21
17.923
  0
LINE
  8
0
 10
42.7354
 20
17.923
 11
42.8516
 21
17.7212
  0
LINE
  8
0
 10
42.8516
 20
17.7212
 11
42.9247
 21
17.491
  0
LINE
  8
0
 10
42.9247
 20
17.491
 11
44.0227
 21
17.627
  0
LINE
  8
0
 10
44.0227
 20
17.627
 11
43.8941
 21
18.0658
  0
LINE
  8
0
 10
43.8941
 20
18.0658
 11
43.6997
 21
18.4402
  0
LINE
  8
0
 10
43.6997
 20
18.4402
 11
43.4392
 21
18.7503
  0
LINE
  8
0
 10
43.4392
 20
18.7503
 11
43.1127
 21
18.996
  0
LINE
  8
0
 10
43.1127
 20
18.996
 11
42.7223
 21
19.1832
  0
LINE
  8
0
 10
42.7223
 20
19.1832
 11
42.2691
 21
19.317
  0
LINE
  8
0
 10
42.2691
 20
19.317
 11
41.7533
 21
19.3972
  0
LINE
  8
0
 10
41.7533
 20
19.3972
 11
41.1747
 21
19.424
  0
LINE
  8
0
 10
41.1747
 20
19.424
 11
40.5277
 21
19.3913
  0
LINE
  8
0
 10
40.5277
 20
19.3913
 11
39.9629
 21
19.2932
  0
LINE
  8
0
 10
39.9629
 20
19.2932
 11
39.4802
 21
19.1298
  0
LINE
  8
0
 10
39.4802
 20
19.1298
 11
39.0797
 21
18.901
  0
LINE
  8
0
 10
39.0797
 20
18.901
 11
38.7655
 21
18.6097
  0
LINE
  8
0
 10
38.7655
 20
18.6097
 11
38.5412
 21
18.259
  0
LINE
  8
0
 10
38.5412
 20
18.259
 11
38.4065
 21
17.8487
  0
LINE
  8
0
 10
38.4065
 20
17.8487
 11
38.3617
 21
17.379
  0
LINE
  8
0
 10
38.3617
 20
17.379
 11
38.3774
 21
17.1196
  0
LINE
  8
0
 10
38.3774
 20
17.1196
 11
38.4247
 21
16.8812
  0
LINE
  8
0
 10
38.4247
 20
16.8812
 11
38.5034
 21
16.6641
  0
LINE
  8
0
 10
38.5034
 20
16.6641
 11
38.6137
 21
16.468
  0
LINE
  8
0
 10
38.6137
 20
16.468
 11
38.7522
 21
16.2894
  0
LINE
  8
0
 10
38.7522
 20
16.2894
 11
38.9149
 21
16.1247
  0
LINE
  8
0
 10
38.9149
 20
16.1247
 11
39.1017
 21
15.9739
  0
LINE
  8
0
 10
39.1017
 20
15.9739
 11
39.3127
 21
15.837
  0
LINE
  8
0
 10
39.3127
 20
15.837
 11
39.5743
 21
15.7064
  0
LINE
  8
0
 10
39.5743
 20
15.7064
 11
39.9122
 21
15.5745
  0
LINE
  8
0
 10
39.9122
 20
15.5745
 11
40.3263
 21
15.4414
  0
LINE
  8
0
 10
40.3263
 20
15.4414
 11
40.8167
 21
15.307
  0
LINE
  8
0
 10
40.8167
 20
15.307
 11
41.6967
 21
15.077
  0
LINE
  8
0
 10
41.6967
 20
15.077
 11
42.0081
 21
14.9836
  0
LINE
  8
0
 10
42.0081
 20
14.9836
 11
42.2734
 21
14.8782
  0
LINE
  8
0
 10
42.2734
 20
14.8782
 11
42.4926
 21
14.761
  0
LINE
  8
0
 10
42.4926
 20
14.761
 11
42.6656
 21
14.632
  0
LINE
  8
0
 10
42.6656
 20
14.632
 11
42.7969
 21
14.4869
  0
LINE
  8
0
 10
42.7969
 20
14.4869
 11
42.8907
 21
14.3215
  0
LINE
  8
0
 10
42.8907
 20
14.3215
 11
42.9469
 21
14.1359
  0
LINE
  8
0
 10
42.9469
 20
14.1359
 11
42.9657
 21
13.93
  0
LINE
  8
0
 10
42.9657
 20
13.93
 11
42.9385
 21
13.6656
  0
LINE
  8
0
 10
42.9385
 20
13.6656
 11
42.8572
 21
13.4362
  0
LINE
  8
0
 10
42.8572
 20
13.4362
 11
42.7215
 21
13.2421
  0
LINE
  8
0
 10
42.7215
 20
13.2421
 11
42.5317
 21
13.083
  0
LINE
  8
0
 10
42.5317
 20
13.083
 11
42.2833
 21
12.9596
  0
LINE
  8
0
 10
42.2833
 20
12.9596
 11
41.9722
 21
12.8715
  0
LINE
  8
0
 10
41.9722
 20
12.8715
 11
41.5983
 21
12.8186
  0
LINE
  8
0
 10
41.5983
 20
12.8186
 11
41.1617
 21
12.801
  0
LINE
  8
0
 10
41.1617
 20
12.801
 11
40.7485
 21
12.8182
  0
LINE
  8
0
 10
40.7485
 20
12.8182
 11
40.3832
 21
12.8697
  0
LINE
  8
0
 10
40.3832
 20
12.8697
 11
40.0655
 21
12.9557
  0
LINE
  8
0
 10
40.0655
 20
12.9557
 11
39.7957
 21
13.076
  0
LINE
  8
0
 10
39.7957
 20
13.076
 11
39.5706
 21
13.2332
  0
LINE
  8
0
 10
39.5706
 20
13.2332
 11
39.3874
 21
13.4297
  0
LINE
  8
0
 10
39.3874
 20
13.4297
 11
39.2461
 21
13.6657
  0
LINE
  8
0
 10
39.2461
 20
13.6657
 11
39.1467
 21
13.941
  0
LINE
  8
0
 10
39.1467
 20
13.941
 11
38.0686
 21
13.731
  0
LINE
  8
0
 10
38.0686
 20
13.731
 11
38.2137
 21
13.2841
  0
LINE
  8
0
 10
38.2137
 20
13.2841
 11
38.4239
 21
12.9005
  0
LINE
  8
0
 10
38.4239
 20
12.9005
 11
38.6992
 21
12.5801
  0
LINE
  8
0
 10
38.6992
 20
12.5801
 11
39.0397
 21
12.323
  0
LINE
  8
0
 10
39.0397
 20
12.323
 11
39.452
 21
12.1257
  0
LINE
  8
0
 10
39.452
 20
12.1257
 11
39.9432
 21
11.9848
  0
LINE
  8
0
 10
39.9432
 20
11.9848
 11
40.513
 21
11.9002
  0
LINE
  8
0
 10
40.513
 20
11.9002
 11
41.1617
 21
11.872
  0
LINE
  8
0
 10
41.1617
 20
11.872
 11
41.8308
 21
11.907
  0
LINE
  8
0
 10
68.4751
 20
19.36
 11
67.2541
 21
19.36
  0
LINE
  8
0
 10
67.2541
 20
19.36
 11
67.2541
 21
12
  0
LINE
  8
0
 10
67.2541
 20
12
 11
68.4751
 21
12
  0
LINE
  8
0
 10
68.4751
 20
12
 11
68.4751
 21
19.36
  0
LINE
  8
0
 10
26.2583
 20
19.36
 11
25.0373
 21
19.36
  0
LINE
  8
0
 10
25.0373
 20
19.36
 11
25.0373
 21
12
  0
LINE
  8
0
 10
25.0373
 20
12
 11
26.2583
 21
12
  0
LINE
  8
0
 10
26.2583
 20
12
 11
26.2583
 21
19.36
  0
LINE
  8
0
 10
49.8336
 20
10.048
 11
48.6136
 21
10.048
  0
LINE
  8
0
 10
48.6136
 20
10.048
 11
48.6136
 21
0
  0
LINE
  8
0
 10
48.6136
 20
0
 11
49.8336
 21
0
  0
LINE
  8
0
 10
49.8336
 20
0
 11
49.8336
 21
10.048
  0
LINE
  8
0
 10
12.294
 20
6.35999
 11
12.267
 21
7.63899
  0
LINE
  8
0
 10
12.267
 20
7.63899
 11
12.247
 21
8.39
  0
LINE
  8
0
 10
12.247
 20
8.39
 11
12.471
 21
7.646
  0
LINE
  8
0
 10
12.471
 20
7.646
 11
12.851
 21
6.495
  0
LINE
  8
0
 10
12.851
 20
6.495
 11
15.357
 21
0
  0
LINE
  8
0
 10
15.357
 20
0
 11
16.267
 21
0
  0
LINE
  8
0
 10
16.267
 20
0
 11
18.739
 21
6.495
  0
LINE
  8
0
 10
18.739
 20
6.495
 11
18.8757
 21
6.86993
  0
LINE
  8
0
 10
18.8757
 20
6.86993
 11
19.021
 21
7.31075
  0
LINE
  8
0
 10
19.021
 20
7.31075
 11
19.1747
 21
7.81743
  0
LINE
  8
0
 10
19.1747
 20
7.81743
 11
19.337
 21
8.39
  0
LINE
  8
0
 10
19.337
 20
8.39
 11
19.3103
 21
7.89787
  0
LINE
  8
0
 10
19.3103
 20
7.89787
 11
19.2912
 21
7.39549
  0
LINE
  8
0
 10
19.2912
 20
7.39549
 11
19.2798
 21
6.88287
  0
LINE
  8
0
 10
19.2798
 20
6.88287
 11
19.276
 21
6.35999
  0
LINE
  8
0
 10
19.276
 20
6.35999
 11
19.276
 21
0
  0
LINE
  8
0
 10
19.276
 20
0
 11
20.443
 21
0
  0
LINE
  8
0
 10
20.443
 20
0
 11
20.443
 21
9.536
  0
LINE
  8
0
 10
20.443
 20
9.536
 11
18.781
 21
9.536
  0
LINE
  8
0
 10
18.781
 20
9.536
 11
16.2434
 21
2.82944
  0
LINE
  8
0
 10
16.2434
 20
2.82944
 11
16.1917
 21
2.68175
  0
LINE
  8
0
 10
16.1917
 20
2.68175
 11
16.1259
 21
2.48293
  0
LINE
  8
0
 10
16.1259
 20
2.48293
 11
16.046
 21
2.23299
  0
LINE
  8
0
 10
16.046
 20
2.23299
 11
15.9669
 21
1.97499
  0
LINE
  8
0
 10
15.9669
 20
1.97499
 11
15.9027
 21
1.752
  0
LINE
  8
0
 10
15.9027
 20
1.752
 11
15.8534
 21
1.564
  0
LINE
  8
0
 10
15.8534
 20
1.564
 11
15.819
 21
1.411
  0
LINE
  8
0
 10
15.819
 20
1.411
 11
15.7932
 21
1.52831
  0
LINE
  8
0
 10
15.7932
 20
1.52831
 11
15.7567
 21
1.67725
  0
LINE
  8
0
 10
15.7567
 20
1.67725
 11
15.7097
 21
1.8578
  0
LINE
  8
0
 10
15.7097
 20
1.8578
 11
15.5888
 21
2.29486
  0
LINE
  8
0
 10
15.5888
 20
2.29486
 11
15.5242
 21
2.5125
  0
LINE
  8
0
 10
15.5242
 20
2.5125
 11
15.4583
 21
2.72287
  0
LINE
  8
0
 10
15.4583
 20
2.72287
 11
15.391
 21
2.92599
  0
LINE
  8
0
 10
15.391
 20
2.92599
 11
12.843
 21
9.536
  0
LINE
  8
0
 10
12.843
 20
9.536
 11
11.141
 21
9.536
  0
LINE
  8
0
 10
11.141
 20
9.536
 11
11.141
 21
0
  0
LINE
  8
0
 10
11.141
 20
0
 11
12.294
 21
0
  0
LINE
  8
0
 10
12.294
 20
0
 11
12.294
 21
6.35999
  0
LINE
  8
0
 10
43.3833
 20
-0.106186
 11
43.7784
 21
-0.040741
  0
LINE
  8
0
 10
43.7784
 20
-0.040741
 11
44.1398
 21
0.0682983
  0
LINE
  8
0
 10
44.1398
 20
0.0682983
 11
44.4677
 21
0.220993
  0
LINE
  8
0
 10
44.4677
 20
0.220993
 11
44.7695
 21
0.426743
  0
LINE
  8
0
 10
44.7695
 20
0.426743
 11
45.0522
 21
0.693985
  0
LINE
  8
0
 10
45.0522
 20
0.693985
 11
45.3155
 21
1.02274
  0
LINE
  8
0
 10
45.3155
 20
1.02274
 11
45.5597
 21
1.41299
  0
LINE
  8
0
 10
45.5597
 20
1.41299
 11
45.6007
 21
1.41299
  0
LINE
  8
0
 10
45.6007
 20
1.41299
 11
45.6379
 21
1.05724
  0
LINE
  8
0
 10
45.6379
 20
1.05724
 11
45.7087
 21
0.751999
  0
LINE
  8
0
 10
45.7087
 20
0.751999
 11
45.8129
 21
0.497238
  0
LINE
  8
0
 10
45.8129
 20
0.497238
 11
45.9507
 21
0.292999
  0
LINE
  8
0
 10
45.9507
 20
0.292999
 11
46.1283
 21
0.13681
  0
LINE
  8
0
 10
46.1283
 20
0.13681
 11
46.3522
 21
0.025238
  0
LINE
  8
0
 10
46.3522
 20
0.025238
 11
46.6223
 21
-0.041687
  0
LINE
  8
0
 10
46.6223
 20
-0.041687
 11
46.9387
 21
-0.0639954
  0
LINE
  8
0
 10
46.9387
 20
-0.0639954
 11
47.1784
 21
-0.0571747
  0
LINE
  8
0
 10
47.1784
 20
-0.0571747
 11
47.4157
 21
-0.0367432
  0
LINE
  8
0
 10
47.4157
 20
-0.0367432
 11
47.6504
 21
-0.00268555
  0
LINE
  8
0
 10
47.6504
 20
-0.00268555
 11
47.8827
 21
0.0449982
  0
LINE
  8
0
 10
47.8827
 20
0.0449982
 11
47.8827
 21
0.803986
  0
LINE
  8
0
 10
47.8827
 20
0.803986
 11
47.7736
 21
0.783432
  0
LINE
  8
0
 10
47.7736
 20
0.783432
 11
47.6704
 21
0.768738
  0
LINE
  8
0
 10
47.6704
 20
0.768738
 11
47.5731
 21
0.759933
  0
LINE
  8
0
 10
47.5731
 20
0.759933
 11
47.4817
 21
0.756989
  0
LINE
  8
0
 10
47.4817
 20
0.756989
 11
47.2973
 21
0.774185
  0
LINE
  8
0
 10
47.2973
 20
0.774185
 11
47.1452
 21
0.825745
  0
LINE
  8
0
 10
47.1452
 20
0.825745
 11
47.0253
 21
0.911682
  0
LINE
  8
0
 10
47.0253
 20
0.911682
 11
46.9377
 21
1.032
  0
LINE
  8
0
 10
46.9377
 20
1.032
 11
46.8751
 21
1.18631
  0
LINE
  8
0
 10
46.8751
 20
1.18631
 11
46.8304
 21
1.37424
  0
LINE
  8
0
 10
46.8304
 20
1.37424
 11
46.8036
 21
1.59581
  0
LINE
  8
0
 10
46.8036
 20
1.59581
 11
46.7947
 21
1.851
  0
LINE
  8
0
 10
46.7947
 20
1.851
 11
46.7947
 21
5.01599
  0
LINE
  8
0
 10
46.7947
 20
5.01599
 11
46.7509
 21
5.58156
  0
LINE
  8
0
 10
46.7509
 20
5.58156
 11
46.6194
 21
6.07625
  0
LINE
  8
0
 10
46.6194
 20
6.07625
 11
46.4003
 21
6.50006
  0
LINE
  8
0
 10
46.4003
 20
6.50006
 11
46.0937
 21
6.853
  0
LINE
  8
0
 10
46.0937
 20
6.853
 11
45.7008
 21
7.1308
  0
LINE
  8
0
 10
45.7008
 20
7.1308
 11
45.2222
 21
7.32924
  0
LINE
  8
0
 10
45.2222
 20
7.32924
 11
44.6578
 21
7.4483
  0
LINE
  8
0
 10
44.6578
 20
7.4483
 11
44.0077
 21
7.48799
  0
LINE
  8
0
 10
44.0077
 20
7.48799
 11
42.834
 21
7.36324
  0
LINE
  8
0
 10
42.834
 20
7.36324
 11
41.9509
 21
6.989
  0
LINE
  8
0
 10
41.9509
 20
6.989
 11
41.3585
 21
6.36525
  0
LINE
  8
0
 10
41.3585
 20
6.36525
 11
41.0567
 21
5.49199
  0
LINE
  8
0
 10
41.0567
 20
5.49199
 11
42.3317
 21
5.37599
  0
LINE
  8
0
 10
42.3317
 20
5.37599
 11
42.3878
 21
5.66443
  0
LINE
  8
0
 10
42.3878
 20
5.66443
 11
42.4814
 21
5.91074
  0
LINE
  8
0
 10
42.4814
 20
5.91074
 11
42.6124
 21
6.11493
  0
LINE
  8
0
 10
42.6124
 20
6.11493
 11
42.7807
 21
6.27699
  0
LINE
  8
0
 10
42.7807
 20
6.27699
 11
42.9963
 21
6.40036
  0
LINE
  8
0
 10
42.9963
 20
6.40036
 11
43.2682
 21
6.48849
  0
LINE
  8
0
 10
43.2682
 20
6.48849
 11
43.5963
 21
6.54137
  0
LINE
  8
0
 10
43.5963
 20
6.54137
 11
43.9807
 21
6.55899
  0
LINE
  8
0
 10
43.9807
 20
6.55899
 11
44.3619
 21
6.53468
  0
LINE
  8
0
 10
44.3619
 20
6.53468
 11
44.6887
 21
6.46175
  0
LINE
  8
0
 10
44.6887
 20
6.46175
 11
44.9609
 21
6.34018
  0
LINE
  8
0
 10
44.9609
 20
6.34018
 11
45.1787
 21
6.17
  0
LINE
  8
0
 10
45.1787
 20
6.17
 11
45.3458
 21
5.94398
  0
LINE
  8
0
 10
45.3458
 20
5.94398
 11
45.4652
 21
5.65399
  0
LINE
  8
0
 10
45.4652
 20
5.65399
 11
45.5368
 21
5.29999
  0
LINE
  8
0
 10
45.5368
 20
5.29999
 11
45.5607
 21
4.88199
  0
LINE
  8
0
 10
45.5607
 20
4.88199
 11
45.5607
 21
4.48
  0
LINE
  8
0
 10
45.5607
 20
4.48
 11
43.9077
 21
4.45299
  0
LINE
  8
0
 10
43.9077
 20
4.45299
 11
43.1283
 21
4.39693
  0
LINE
  8
0
 10
43.1283
 20
4.39693
 11
42.4642
 21
4.26974
  0
LINE
  8
0
 10
42.4642
 20
4.26974
 11
41.9153
 21
4.07143
  0
LINE
  8
0
 10
41.9153
 20
4.07143
 11
41.4817
 21
3.80199
  0
LINE
  8
0
 10
41.4817
 20
3.80199
 11
41.1531
 21
3.46399
  0
LINE
  8
0
 10
41.1531
 20
3.46399
 11
40.9184
 21
3.06
  0
LINE
  8
0
 10
40.9184
 20
3.06
 11
40.7776
 21
2.59
  0
LINE
  8
0
 10
40.7776
 20
2.59
 11
40.7307
 21
2.05399
  0
LINE
  8
0
 10
40.7307
 20
2.05399
 11
40.7655
 21
1.57306
  0
LINE
  8
0
 10
40.7655
 20
1.57306
 11
40.8699
 21
1.14624
  0
LINE
  8
0
 10
40.8699
 20
1.14624
 11
41.044
 21
0.77356
  0
LINE
  8
0
 10
41.044
 20
0.77356
 11
41.2877
 21
0.454987
  0
LINE
  8
0
 10
41.2877
 20
0.454987
 11
41.6011
 21
0.199936
  0
LINE
  8
0
 10
41.6011
 20
0.199936
 11
41.9834
 21
0.017746
  0
LINE
  8
0
 10
41.9834
 20
0.017746
 11
42.4346
 21
-0.0915527
  0
LINE
  8
0
 10
42.4346
 20
-0.0915527
 11
42.9547
 21
-0.127991
  0
LINE
  8
0
 10
42.9547
 20
-0.127991
 11
43.3833
 21
-0.106186
  0
LINE
  8
0
 10
42.9494
 20
0.807312
 11
42.7014
 21
0.86824
  0
LINE
  8
0
 10
42.7014
 20
0.86824
 11
42.4879
 21
0.969803
  0
LINE
  8
0
 10
42.4879
 20
0.969803
 11
42.3087
 21
1.112
  0
LINE
  8
0
 10
42.3087
 20
1.112
 11
42.1674
 21
1.29149
  0
LINE
  8
0
 10
42.1674
 20
1.29149
 11
42.0664
 21
1.50499
  0
LINE
  8
0
 10
42.0664
 20
1.50499
 11
42.0059
 21
1.75249
  0
LINE
  8
0
 10
42.0059
 20
1.75249
 11
41.9857
 21
2.034
  0
LINE
  8
0
 10
41.9857
 20
2.034
 11
42.0005
 21
2.2953
  0
LINE
  8
0
 10
42.0005
 20
2.2953
 11
42.0452
 21
2.53024
  0
LINE
  8
0
 10
42.0452
 20
2.53024
 11
42.1195
 21
2.7388
  0
LINE
  8
0
 10
42.1195
 20
2.7388
 11
42.2237
 21
2.92099
  0
LINE
  8
0
 10
42.2237
 20
2.92099
 11
42.3561
 21
3.07944
  0
LINE
  8
0
 10
42.3561
 20
3.07944
 11
42.5144
 21
3.21574
  0
LINE
  8
0
 10
42.5144
 20
3.21574
 11
42.6986
 21
3.32993
  0
LINE
  8
0
 10
42.6986
 20
3.32993
 11
42.9087
 21
3.422
  0
LINE
  8
0
 10
42.9087
 20
3.422
 11
43.1579
 21
3.49419
  0
LINE
  8
0
 10
43.1579
 20
3.49419
 11
43.4594
 21
3.54774
  0
LINE
  8
0
 10
43.4594
 20
3.54774
 11
43.8134
 21
3.58269
  0
LINE
  8
0
 10
43.8134
 20
3.58269
 11
44.2197
 21
3.599
  0
LINE
  8
0
 10
44.2197
 20
3.599
 11
45.5607
 21
3.62599
  0
LINE
  8
0
 10
45.5607
 20
3.62599
 11
45.5607
 21
3.02299
  0
LINE
  8
0
 10
45.5607
 20
3.02299
 11
45.5417
 21
2.74387
  0
LINE
  8
0
 10
45.5417
 20
2.74387
 11
45.4849
 21
2.46849
  0
LINE
  8
0
 10
45.4849
 20
2.46849
 11
45.3902
 21
2.19687
  0
LINE
  8
0
 10
45.3902
 20
2.19687
 11
45.2577
 21
1.92899
  0
LINE
  8
0
 10
45.2577
 20
1.92899
 11
45.0923
 21
1.67719
  0
LINE
  8
0
 10
45.0923
 20
1.67719
 11
44.8992
 21
1.45374
  0
LINE
  8
0
 10
44.8992
 20
1.45374
 11
44.6783
 21
1.25868
  0
LINE
  8
0
 10
44.6783
 20
1.25868
 11
44.4297
 21
1.092
  0
LINE
  8
0
 10
44.4297
 20
1.092
 11
44.1583
 21
0.958557
  0
LINE
  8
0
 10
44.1583
 20
0.958557
 11
43.8682
 21
0.863235
  0
LINE
  8
0
 10
43.8682
 20
0.863235
 11
43.5593
 21
0.806061
  0
LINE
  8
0
 10
43.5593
 20
0.806061
 11
43.2317
 21
0.786987
  0
LINE
  8
0
 10
43.2317
 20
0.786987
 11
42.9494
 21
0.807312
  0
LINE
  8
0
 10
24.5425
 20
-0.106186
 11
24.9376
 21
-0.040741
  0
LINE
  8
0
 10
24.9376
 20
-0.040741
 11
25.299
 21
0.0682983
  0
LINE
  8
0
 10
25.299
 20
0.0682983
 11
25.6268
 21
0.220993
  0
LINE
  8
0
 10
25.6268
 20
0.220993
 11
25.9287
 21
0.426743
  0
LINE
  8
0
 10
25.9287
 20
0.426743
 11
26.2113
 21
0.693985
  0
LINE
  8
0
 10
26.2113
 20
0.693985
 11
26.4747
 21
1.02274
  0
LINE
  8
0
 10
26.4747
 20
1.02274
 11
26.7188
 21
1.41299
  0
LINE
  8
0
 10
26.7188
 20
1.41299
 11
26.7598
 21
1.41299
  0
LINE
  8
0
 10
26.7598
 20
1.41299
 11
26.7971
 21
1.05724
  0
LINE
  8
0
 10
26.7971
 20
1.05724
 11
26.8678
 21
0.751999
  0
LINE
  8
0
 10
26.8678
 20
0.751999
 11
26.9721
 21
0.497238
  0
LINE
  8
0
 10
26.9721
 20
0.497238
 11
27.1098
 21
0.292999
  0
LINE
  8
0
 10
27.1098
 20
0.292999
 11
27.2875
 21
0.13681
  0
LINE
  8
0
 10
27.2875
 20
0.13681
 11
27.5113
 21
0.025238
  0
LINE
  8
0
 10
27.5113
 20
0.025238
 11
27.7815
 21
-0.041687
  0
LINE
  8
0
 10
27.7815
 20
-0.041687
 11
28.0978
 21
-0.0639954
  0
LINE
  8
0
 10
28.0978
 20
-0.0639954
 11
28.3376
 21
-0.0571747
  0
LINE
  8
0
 10
28.3376
 20
-0.0571747
 11
28.5748
 21
-0.0367432
  0
LINE
  8
0
 10
28.5748
 20
-0.0367432
 11
28.8096
 21
-0.00268555
  0
LINE
  8
0
 10
28.8096
 20
-0.00268555
 11
29.0418
 21
0.0449982
  0
LINE
  8
0
 10
29.0418
 20
0.0449982
 11
29.0418
 21
0.803986
  0
LINE
  8
0
 10
29.0418
 20
0.803986
 11
28.9328
 21
0.783432
  0
LINE
  8
0
 10
28.9328
 20
0.783432
 11
28.8296
 21
0.768738
  0
LINE
  8
0
 10
28.8296
 20
0.768738
 11
28.7323
 21
0.759933
  0
LINE
  8
0
 10
28.7323
 20
0.759933
 11
28.6408
 21
0.756989
  0
LINE
  8
0
 10
28.6408
 20
0.756989
 11
28.4565
 21
0.774185
  0
LINE
  8
0
 10
28.4565
 20
0.774185
 11
28.3043
 21
0.825745
  0
LINE
  8
0
 10
28.3043
 20
0.825745
 11
28.1845
 21
0.911682
  0
LINE
  8
0
 10
28.1845
 20
0.911682
 11
28.0968
 21
1.032
  0
LINE
  8
0
 10
28.0968
 20
1.032
 11
28.0343
 21
1.18631
  0
LINE
  8
0
 10
28.0343
 20
1.18631
 11
27.9896
 21
1.37424
  0
LINE
  8
0
 10
27.9896
 20
1.37424
 11
27.9628
 21
1.59581
  0
LINE
  8
0
 10
27.9628
 20
1.59581
 11
27.9538
 21
1.851
  0
LINE
  8
0
 10
27.9538
 20
1.851
 11
27.9538
 21
5.01599
  0
LINE
  8
0
 10
27.9538
 20
5.01599
 11
27.91
 21
5.58156
  0
LINE
  8
0
 10
27.91
 20
5.58156
 11
27.7786
 21
6.07625
  0
LINE
  8
0
 10
27.7786
 20
6.07625
 11
27.5595
 21
6.50006
  0
LINE
  8
0
 10
27.5595
 20
6.50006
 11
27.2528
 21
6.853
  0
LINE
  8
0
 10
27.2528
 20
6.853
 11
26.86
 21
7.1308
  0
LINE
  8
0
 10
26.86
 20
7.1308
 11
26.3813
 21
7.32924
  0
LINE
  8
0
 10
26.3813
 20
7.32924
 11
25.817
 21
7.4483
  0
LINE
  8
0
 10
25.817
 20
7.4483
 11
25.1668
 21
7.48799
  0
LINE
  8
0
 10
25.1668
 20
7.48799
 11
23.9932
 21
7.36324
  0
LINE
  8
0
 10
23.9932
 20
7.36324
 11
23.1101
 21
6.989
  0
LINE
  8
0
 10
23.1101
 20
6.989
 11
22.5177
 21
6.36525
  0
LINE
  8
0
 10
22.5177
 20
6.36525
 11
22.2159
 21
5.49199
  0
LINE
  8
0
 10
22.2159
 20
5.49199
 11
23.4908
 21
5.37599
  0
LINE
  8
0
 10
23.4908
 20
5.37599
 11
23.547
 21
5.66443
  0
LINE
  8
0
 10
23.547
 20
5.66443
 11
23.6406
 21
5.91074
  0
LINE
  8
0
 10
23.6406
 20
5.91074
 11
23.7715
 21
6.11493
  0
LINE
  8
0
 10
23.7715
 20
6.11493
 11
23.9398
 21
6.27699
  0
LINE
  8
0
 10
23.9398
 20
6.27699
 11
24.1555
 21
6.40036
  0
LINE
  8
0
 10
24.1555
 20
6.40036
 11
24.4273
 21
6.48849
  0
LINE
  8
0
 10
24.4273
 20
6.48849
 11
24.7555
 21
6.54137
  0
LINE
  8
0
 10
24.7555
 20
6.54137
 11
25.1398
 21
6.55899
  0
LINE
  8
0
 10
25.1398
 20
6.55899
 11
25.5211
 21
6.53468
  0
LINE
  8
0
 10
25.5211
 20
6.53468
 11
25.8478
 21
6.46175
  0
LINE
  8
0
 10
25.8478
 20
6.46175
 11
26.1201
 21
6.34018
  0
LINE
  8
0
 10
26.1201
 20
6.34018
 11
26.3378
 21
6.17
  0
LINE
  8
0
 10
26.3378
 20
6.17
 11
26.505
 21
5.94398
  0
LINE
  8
0
 10
26.505
 20
5.94398
 11
26.6243
 21
5.65399
  0
LINE
  8
0
 10
26.6243
 20
5.65399
 11
26.696
 21
5.29999
  0
LINE
  8
0
 10
26.696
 20
5.29999
 11
26.7198
 21
4.88199
  0
LINE
  8
0
 10
26.7198
 20
4.88199
 11
26.7198
 21
4.48
  0
LINE
  8
0
 10
26.7198
 20
4.48
 11
25.0668
 21
4.45299
  0
LINE
  8
0
 10
25.0668
 20
4.45299
 11
24.2875
 21
4.39693
  0
LINE
  8
0
 10
24.2875
 20
4.39693
 11
23.6233
 21
4.26974
  0
LINE
  8
0
 10
23.6233
 20
4.26974
 11
23.0745
 21
4.07143
  0
LINE
  8
0
 10
23.0745
 20
4.07143
 11
22.6408
 21
3.80199
  0
LINE
  8
0
 10
22.6408
 20
3.80199
 11
22.3123
 21
3.46399
  0
LINE
  8
0
 10
22.3123
 20
3.46399
 11
22.0776
 21
3.06
  0
LINE
  8
0
 10
22.0776
 20
3.06
 11
21.9368
 21
2.59
  0
LINE
  8
0
 10
21.9368
 20
2.59
 11
21.8898
 21
2.05399
  0
LINE
  8
0
 10
21.8898
 20
2.05399
 11
21.9247
 21
1.57306
  0
LINE
  8
0
 10
21.9247
 20
1.57306
 11
22.0291
 21
1.14624
  0
LINE
  8
0
 10
22.0291
 20
1.14624
 11
22.2032
 21
0.77356
  0
LINE
  8
0
 10
22.2032
 20
0.77356
 11
22.4468
 21
0.454987
  0
LINE
  8
0
 10
22.4468
 20
0.454987
 11
22.7603
 21
0.199936
  0
LINE
  8
0
 10
22.7603
 20
0.199936
 11
23.1426
 21
0.017746
  0
LINE
  8
0
 10
23.1426
 20
0.017746
 11
23.5938
 21
-0.0915527
  0
LINE
  8
0
 10
23.5938
 20
-0.0915527
 11
24.1138
 21
-0.127991
  0
LINE
  8
0
 10
24.1138
 20
-0.127991
 11
24.5425
 21
-0.106186
  0
LINE
  8
0
 10
24.1085
 20
0.807312
 11
23.8606
 21
0.86824
  0
LINE
  8
0
 10
23.8606
 20
0.86824
 11
23.647
 21
0.969803
  0
LINE
  8
0
 10
23.647
 20
0.969803
 11
23.4678
 21
1.112
  0
LINE
  8
0
 10
23.4678
 20
1.112
 11
23.3265
 21
1.29149
  0
LINE
  8
0
 10
23.3265
 20
1.29149
 11
23.2256
 21
1.50499
  0
LINE
  8
0
 10
23.2256
 20
1.50499
 11
23.165
 21
1.75249
  0
LINE
  8
0
 10
23.165
 20
1.75249
 11
23.1448
 21
2.034
  0
LINE
  8
0
 10
23.1448
 20
2.034
 11
23.1597
 21
2.2953
  0
LINE
  8
0
 10
23.1597
 20
2.2953
 11
23.2043
 21
2.53024
  0
LINE
  8
0
 10
23.2043
 20
2.53024
 11
23.2787
 21
2.7388
  0
LINE
  8
0
 10
23.2787
 20
2.7388
 11
23.3828
 21
2.92099
  0
LINE
  8
0
 10
23.3828
 20
2.92099
 11
23.5153
 21
3.07944
  0
LINE
  8
0
 10
23.5153
 20
3.07944
 11
23.6736
 21
3.21574
  0
LINE
  8
0
 10
23.6736
 20
3.21574
 11
23.8578
 21
3.32993
  0
LINE
  8
0
 10
23.8578
 20
3.32993
 11
24.0678
 21
3.422
  0
LINE
  8
0
 10
24.0678
 20
3.422
 11
24.317
 21
3.49419
  0
LINE
  8
0
 10
24.317
 20
3.49419
 11
24.6186
 21
3.54774
  0
LINE
  8
0
 10
24.6186
 20
3.54774
 11
24.9725
 21
3.58269
  0
LINE
  8
0
 10
24.9725
 20
3.58269
 11
25.3788
 21
3.599
  0
LINE
  8
0
 10
25.3788
 20
3.599
 11
26.7198
 21
3.62599
  0
LINE
  8
0
 10
26.7198
 20
3.62599
 11
26.7198
 21
3.02299
  0
LINE
  8
0
 10
26.7198
 20
3.02299
 11
26.7009
 21
2.74387
  0
LINE
  8
0
 10
26.7009
 20
2.74387
 11
26.6441
 21
2.46849
  0
LINE
  8
0
 10
26.6441
 20
2.46849
 11
26.5494
 21
2.19687
  0
LINE
  8
0
 10
26.5494
 20
2.19687
 11
26.4168
 21
1.92899
  0
LINE
  8
0
 10
26.4168
 20
1.92899
 11
26.2515
 21
1.67719
  0
LINE
  8
0
 10
26.2515
 20
1.67719
 11
26.0583
 21
1.45374
  0
LINE
  8
0
 10
26.0583
 20
1.45374
 11
25.8375
 21
1.25868
  0
LINE
  8
0
 10
25.8375
 20
1.25868
 11
25.5888
 21
1.092
  0
LINE
  8
0
 10
25.5888
 20
1.092
 11
25.3175
 21
0.958557
  0
LINE
  8
0
 10
25.3175
 20
0.958557
 11
25.0273
 21
0.863235
  0
LINE
  8
0
 10
25.0273
 20
0.863235
 11
24.7185
 21
0.806061
  0
LINE
  8
0
 10
24.7185
 20
0.806061
 11
24.3908
 21
0.786987
  0
LINE
  8
0
 10
24.3908
 20
0.786987
 11
24.1085
 21
0.807312
  0
LINE
  8
0
 10
31.0188
 20
4.26099
 11
31.0473
 21
4.77437
  0
LINE
  8
0
 10
31.0473
 20
4.77437
 11
31.1326
 21
5.22649
  0
LINE
  8
0
 10
31.1326
 20
5.22649
 11
31.2747
 21
5.61737
  0
LINE
  8
0
 10
31.2747
 20
5.61737
 11
31.4738
 21
5.94699
  0
LINE
  8
0
 10
31.4738
 20
5.94699
 11
31.7218
 21
6.20862
  0
LINE
  8
0
 10
31.7218
 20
6.20862
 11
32.0106
 21
6.39549
  0
LINE
  8
0
 10
32.0106
 20
6.39549
 11
32.3403
 21
6.50761
  0
LINE
  8
0
 10
32.3403
 20
6.50761
 11
32.7108
 21
6.545
  0
LINE
  8
0
 10
32.7108
 20
6.545
 11
33.062
 21
6.51949
  0
LINE
  8
0
 10
33.062
 20
6.51949
 11
33.3546
 21
6.44299
  0
LINE
  8
0
 10
33.3546
 20
6.44299
 11
33.5885
 21
6.31549
  0
LINE
  8
0
 10
33.5885
 20
6.31549
 11
33.7638
 21
6.13699
  0
LINE
  8
0
 10
33.7638
 20
6.13699
 11
33.8916
 21
5.8918
  0
LINE
  8
0
 10
33.8916
 20
5.8918
 11
33.9828
 21
5.56424
  0
LINE
  8
0
 10
33.9828
 20
5.56424
 11
34.0376
 21
5.15431
  0
LINE
  8
0
 10
34.0376
 20
5.15431
 11
34.0558
 21
4.66199
  0
LINE
  8
0
 10
34.0558
 20
4.66199
 11
34.0558
 21
0
  0
LINE
  8
0
 10
34.0558
 20
0
 11
35.2628
 21
0
  0
LINE
  8
0
 10
35.2628
 20
0
 11
35.2628
 21
4.26099
  0
LINE
  8
0
 10
35.2628
 20
4.26099
 11
35.2906
 21
4.77718
  0
LINE
  8
0
 10
35.2906
 20
4.77718
 11
35.3741
 21
5.23074
  0
LINE
  8
0
 10
35.3741
 20
5.23074
 11
35.5131
 21
5.62167
  0
LINE
  8
0
 10
35.5131
 20
5.62167
 11
35.7078
 21
5.95
  0
LINE
  8
0
 10
35.7078
 20
5.95
 11
35.9526
 21
6.21031
  0
LINE
  8
0
 10
35.9526
 20
6.21031
 11
36.2421
 21
6.39624
  0
LINE
  8
0
 10
36.2421
 20
6.39624
 11
36.5761
 21
6.50781
  0
LINE
  8
0
 10
36.5761
 20
6.50781
 11
36.9548
 21
6.545
  0
LINE
  8
0
 10
36.9548
 20
6.545
 11
37.3064
 21
6.51949
  0
LINE
  8
0
 10
37.3064
 20
6.51949
 11
37.5993
 21
6.44299
  0
LINE
  8
0
 10
37.5993
 20
6.44299
 11
37.8334
 21
6.31549
  0
LINE
  8
0
 10
37.8334
 20
6.31549
 11
38.0088
 21
6.13699
  0
LINE
  8
0
 10
38.0088
 20
6.13699
 11
38.1366
 21
5.8918
  0
LINE
  8
0
 10
38.1366
 20
5.8918
 11
38.2278
 21
5.56424
  0
LINE
  8
0
 10
38.2278
 20
5.56424
 11
38.2826
 21
5.15431
  0
LINE
  8
0
 10
38.2826
 20
5.15431
 11
38.3008
 21
4.66199
  0
LINE
  8
0
 10
38.3008
 20
4.66199
 11
38.3008
 21
0
  0
LINE
  8
0
 10
38.3008
 20
0
 11
39.5078
 21
0
  0
LINE
  8
0
 10
39.5078
 20
0
 11
39.5078
 21
4.89899
  0
LINE
  8
0
 10
39.5078
 20
4.89899
 11
39.4762
 21
5.5405
  0
LINE
  8
0
 10
39.4762
 20
5.5405
 11
39.3813
 21
6.08499
  0
LINE
  8
0
 10
39.3813
 20
6.08499
 11
39.2232
 21
6.53249
  0
LINE
  8
0
 10
39.2232
 20
6.53249
 11
39.0018
 21
6.883
  0
LINE
  8
0
 10
39.0018
 20
6.883
 11
38.7108
 21
7.14767
  0
LINE
  8
0
 10
38.7108
 20
7.14767
 11
38.3438
 21
7.33675
  0
LINE
  8
0
 10
38.3438
 20
7.33675
 11
37.9008
 21
7.45018
  0
LINE
  8
0
 10
37.9008
 20
7.45018
 11
37.3818
 21
7.48799
  0
LINE
  8
0
 10
37.3818
 20
7.48799
 11
37.0125
 21
7.46762
  0
LINE
  8
0
 10
37.0125
 20
7.46762
 11
36.6716
 21
7.40649
  0
LINE
  8
0
 10
36.6716
 20
7.40649
 11
36.359
 21
7.30461
  0
LINE
  8
0
 10
36.359
 20
7.30461
 11
36.0748
 21
7.16199
  0
LINE
  8
0
 10
36.0748
 20
7.16199
 11
35.8147
 21
6.97305
  0
LINE
  8
0
 10
35.8147
 20
6.97305
 11
35.5746
 21
6.73224
  0
LINE
  8
0
 10
35.5746
 20
6.73224
 11
35.3542
 21
6.43956
  0
LINE
  8
0
 10
35.3542
 20
6.43956
 11
35.1538
 21
6.09499
  0
LINE
  8
0
 10
35.1538
 20
6.09499
 11
35.1338
 21
6.09499
  0
LINE
  8
0
 10
35.1338
 20
6.09499
 11
35.0203
 21
6.43387
  0
LINE
  8
0
 10
35.0203
 20
6.43387
 11
34.8698
 21
6.7235
  0
LINE
  8
0
 10
34.8698
 20
6.7235
 11
34.6823
 21
6.96387
  0
LINE
  8
0
 10
34.6823
 20
6.96387
 11
34.4578
 21
7.155
  0
LINE
  8
0
 10
34.4578
 20
7.155
 11
34.1934
 21
7.30067
  0
LINE
  8
0
 10
34.1934
 20
7.30067
 11
33.8853
 21
7.40474
  0
LINE
  8
0
 10
33.8853
 20
7.40474
 11
33.5334
 21
7.46718
  0
LINE
  8
0
 10
33.5334
 20
7.46718
 11
33.1378
 21
7.48799
  0
LINE
  8
0
 10
33.1378
 20
7.48799
 11
32.7849
 21
7.46887
  0
LINE
  8
0
 10
32.7849
 20
7.46887
 11
32.4601
 21
7.4115
  0
LINE
  8
0
 10
32.4601
 20
7.4115
 11
32.1634
 21
7.31587
  0
LINE
  8
0
 10
32.1634
 20
7.31587
 11
31.8948
 21
7.18199
  0
LINE
  8
0
 10
31.8948
 20
7.18199
 11
31.6475
 21
6.9993
  0
LINE
  8
0
 10
31.6475
 20
6.9993
 11
31.4146
 21
6.75725
  0
LINE
  8
0
 10
31.4146
 20
6.75725
 11
31.196
 21
6.45581
  0
LINE
  8
0
 10
31.196
 20
6.45581
 11
30.9918
 21
6.09499
  0
LINE
  8
0
 10
30.9918
 20
6.09499
 11
30.9718
 21
6.09499
  0
LINE
  8
0
 10
30.9718
 20
6.09499
 11
30.9531
 21
6.71094
  0
LINE
  8
0
 10
30.9531
 20
6.71094
 11
30.9238
 21
7.29674
  0
LINE
  8
0
 10
30.9238
 20
7.29674
 11
30.9168
 21
7.35999
  0
LINE
  8
0
 10
30.9168
 20
7.35999
 11
29.7638
 21
7.35999
  0
LINE
  8
0
 10
29.7638
 20
7.35999
 11
29.7818
 21
7.15456
  0
LINE
  8
0
 10
29.7818
 20
7.15456
 11
29.7946
 21
6.82425
  0
LINE
  8
0
 10
29.7946
 20
6.82425
 11
29.8022
 21
6.36905
  0
LINE
  8
0
 10
29.8022
 20
6.36905
 11
29.8048
 21
5.78899
  0
LINE
  8
0
 10
29.8048
 20
5.78899
 11
29.8048
 21
0
  0
LINE
  8
0
 10
29.8048
 20
0
 11
31.0188
 21
0
  0
LINE
  8
0
 10
31.0188
 20
0
 11
31.0188
 21
4.26099
  0
LINE
  8
0
 10
55.2963
 20
-0.0690613
 11
55.9613
 21
0.107742
  0
LINE
  8
0
 10
55.9613
 20
0.107742
 11
56.5303
 21
0.402435
  0
LINE
  8
0
 10
56.5303
 20
0.402435
 11
57.0033
 21
0.814987
  0
LINE
  8
0
 10
57.0033
 20
0.814987
 11
57.3752
 21
1.3485
  0
LINE
  8
0
 10
57.3752
 20
1.3485
 11
57.6408
 21
2.00499
  0
LINE
  8
0
 10
57.6408
 20
2.00499
 11
57.8002
 21
2.78448
  0
LINE
  8
0
 10
57.8002
 20
2.78448
 11
57.8533
 21
3.687
  0
LINE
  8
0
 10
57.8533
 20
3.687
 11
57.8036
 21
4.59712
  0
LINE
  8
0
 10
57.8036
 20
4.59712
 11
57.6543
 21
5.37949
  0
LINE
  8
0
 10
57.6543
 20
5.37949
 11
57.4056
 21
6.03412
  0
LINE
  8
0
 10
57.4056
 20
6.03412
 11
57.0573
 21
6.56099
  0
LINE
  8
0
 10
57.0573
 20
6.56099
 11
56.6041
 21
6.96655
  0
LINE
  8
0
 10
56.6041
 20
6.96655
 11
56.0396
 21
7.25624
  0
LINE
  8
0
 10
56.0396
 20
7.25624
 11
55.3636
 21
7.43005
  0
LINE
  8
0
 10
55.3636
 20
7.43005
 11
54.5763
 21
7.48799
  0
LINE
  8
0
 10
54.5763
 20
7.48799
 11
53.1339
 21
7.25043
  0
LINE
  8
0
 10
53.1339
 20
7.25043
 11
52.1036
 21
6.53773
  0
LINE
  8
0
 10
52.1036
 20
6.53773
 11
51.4854
 21
5.34993
  0
LINE
  8
0
 10
51.4854
 20
5.34993
 11
51.2793
 21
3.687
  0
LINE
  8
0
 10
51.2793
 20
3.687
 11
51.3307
 21
2.81499
  0
LINE
  8
0
 10
51.3307
 20
2.81499
 11
51.4848
 21
2.05199
  0
LINE
  8
0
 10
51.4848
 20
2.05199
 11
51.7417
 21
1.39799
  0
LINE
  8
0
 10
51.7417
 20
1.39799
 11
52.1013
 21
0.852997
  0
LINE
  8
0
 10
52.1013
 20
0.852997
 11
52.5621
 21
0.423798
  0
LINE
  8
0
 10
52.5621
 20
0.423798
 11
53.1213
 21
0.117249
  0
LINE
  8
0
 10
53.1213
 20
0.117249
 11
53.7791
 21
-0.0666809
  0
LINE
  8
0
 10
53.7791
 20
-0.0666809
 11
54.5353
 21
-0.127991
  0
LINE
  8
0
 10
54.5353
 20
-0.127991
 11
55.2963
 21
-0.0690613
  0
LINE
  8
0
 10
54.0487
 20
0.819611
 11
53.6428
 21
0.956497
  0
LINE
  8
0
 10
53.6428
 20
0.956497
 11
53.3047
 21
1.18462
  0
LINE
  8
0
 10
53.3047
 20
1.18462
 11
53.0343
 21
1.504
  0
LINE
  8
0
 10
53.0343
 20
1.504
 11
52.8274
 21
1.91418
  0
LINE
  8
0
 10
52.8274
 20
1.91418
 11
52.6796
 21
2.41475
  0
LINE
  8
0
 10
52.6796
 20
2.41475
 11
52.5909
 21
3.00568
  0
LINE
  8
0
 10
52.5909
 20
3.00568
 11
52.5613
 21
3.687
  0
LINE
  8
0
 10
52.5613
 20
3.687
 11
52.5913
 21
4.38449
  0
LINE
  8
0
 10
52.5913
 20
4.38449
 11
52.6813
 21
4.98299
  0
LINE
  8
0
 10
52.6813
 20
4.98299
 11
52.8313
 21
5.4825
  0
LINE
  8
0
 10
52.8313
 20
5.4825
 11
53.0413
 21
5.883
  0
LINE
  8
0
 10
53.0413
 20
5.883
 11
53.3186
 21
6.19055
  0
LINE
  8
0
 10
53.3186
 20
6.19055
 11
53.6703
 21
6.41025
  0
LINE
  8
0
 10
53.6703
 20
6.41025
 11
54.0966
 21
6.54205
  0
LINE
  8
0
 10
54.0966
 20
6.54205
 11
54.5973
 21
6.586
  0
LINE
  8
0
 10
54.5973
 20
6.586
 11
55.0933
 21
6.54292
  0
LINE
  8
0
 10
55.0933
 20
6.54292
 11
55.5121
 21
6.41374
  0
LINE
  8
0
 10
55.5121
 20
6.41374
 11
55.8538
 21
6.19843
  0
LINE
  8
0
 10
55.8538
 20
6.19843
 11
56.1183
 21
5.89699
  0
LINE
  8
0
 10
56.1183
 20
5.89699
 11
56.3165
 21
5.50049
  0
LINE
  8
0
 10
56.3165
 20
5.50049
 11
56.4581
 21
5
  0
LINE
  8
0
 10
56.4581
 20
5
 11
56.543
 21
4.39549
  0
LINE
  8
0
 10
56.543
 20
4.39549
 11
56.5713
 21
3.687
  0
LINE
  8
0
 10
56.5713
 20
3.687
 11
56.5418
 21
2.98618
  0
LINE
  8
0
 10
56.5418
 20
2.98618
 11
56.4531
 21
2.38474
  0
LINE
  8
0
 10
56.4531
 20
2.38474
 11
56.3053
 21
1.88268
  0
LINE
  8
0
 10
56.3053
 20
1.88268
 11
56.0983
 21
1.48
  0
LINE
  8
0
 10
56.0983
 20
1.48
 11
55.8224
 21
1.17111
  0
LINE
  8
0
 10
55.8224
 20
1.17111
 11
55.4678
 21
0.950485
  0
LINE
  8
0
 10
55.4678
 20
0.950485
 11
55.0345
 21
0.818115
  0
LINE
  8
0
 10
55.0345
 20
0.818115
 11
54.5223
 21
0.773987
  0
LINE
  8
0
 10
54.5223
 20
0.773987
 11
54.0487
 21
0.819611
  0
LINE
  8
0
 10
60.4233
 20
4.26099
 11
60.4552
 21
4.76868
  0
LINE
  8
0
 10
60.4552
 20
4.76868
 11
60.551
 21
5.21774
  0
LINE
  8
0
 10
60.551
 20
5.21774
 11
60.7107
 21
5.60818
  0
LINE
  8
0
 10
60.7107
 20
5.60818
 11
60.9343
 21
5.93999
  0
LINE
  8
0
 10
60.9343
 20
5.93999
 11
61.2132
 21
6.20468
  0
LINE
  8
0
 10
61.2132
 20
6.20468
 11
61.539
 21
6.39374
  0
LINE
  8
0
 10
61.539
 20
6.39374
 11
61.9117
 21
6.50719
  0
LINE
  8
0
 10
61.9117
 20
6.50719
 11
62.3313
 21
6.545
  0
LINE
  8
0
 10
62.3313
 20
6.545
 11
62.616
 21
6.53394
  0
LINE
  8
0
 10
62.616
 20
6.53394
 11
62.864
 21
6.50075
  0
LINE
  8
0
 10
62.864
 20
6.50075
 11
63.0755
 21
6.44543
  0
LINE
  8
0
 10
63.0755
 20
6.44543
 11
63.2503
 21
6.368
  0
LINE
  8
0
 10
63.2503
 20
6.368
 11
63.3966
 21
6.26593
  0
LINE
  8
0
 10
63.3966
 20
6.26593
 11
63.5215
 21
6.13574
  0
LINE
  8
0
 10
63.5215
 20
6.13574
 11
63.6251
 21
5.97743
  0
LINE
  8
0
 10
63.6251
 20
5.97743
 11
63.7073
 21
5.79099
  0
LINE
  8
0
 10
63.7073
 20
5.79099
 11
63.7699
 21
5.57005
  0
LINE
  8
0
 10
63.7699
 20
5.57005
 11
63.8145
 21
5.30824
  0
LINE
  8
0
 10
63.8145
 20
5.30824
 11
63.8414
 21
5.00555
  0
LINE
  8
0
 10
63.8414
 20
5.00555
 11
63.8503
 21
4.66199
  0
LINE
  8
0
 10
63.8503
 20
4.66199
 11
63.8503
 21
0
  0
LINE
  8
0
 10
63.8503
 20
0
 11
65.0773
 21
0
  0
LINE
  8
0
 10
65.0773
 20
0
 11
65.0773
 21
4.89899
  0
LINE
  8
0
 10
65.0773
 20
4.89899
 11
65.0422
 21
5.54292
  0
LINE
  8
0
 10
65.0422
 20
5.54292
 11
64.9368
 21
6.08875
  0
LINE
  8
0
 10
64.9368
 20
6.08875
 11
64.7612
 21
6.53642
  0
LINE
  8
0
 10
64.7612
 20
6.53642
 11
64.5153
 21
6.88599
  0
LINE
  8
0
 10
64.5153
 20
6.88599
 11
64.1942
 21
7.14937
  0
LINE
  8
0
 10
64.1942
 20
7.14937
 11
63.7918
 21
7.33749
  0
LINE
  8
0
 10
63.7918
 20
7.33749
 11
63.3082
 21
7.45036
  0
LINE
  8
0
 10
63.3082
 20
7.45036
 11
62.7433
 21
7.48799
  0
LINE
  8
0
 10
62.7433
 20
7.48799
 11
62.3485
 21
7.46825
  0
LINE
  8
0
 10
62.3485
 20
7.46825
 11
61.9873
 21
7.409
  0
LINE
  8
0
 10
61.9873
 20
7.409
 11
61.6595
 21
7.31024
  0
LINE
  8
0
 10
61.6595
 20
7.31024
 11
61.3653
 21
7.172
  0
LINE
  8
0
 10
61.3653
 20
7.172
 11
61.0961
 21
6.98618
  0
LINE
  8
0
 10
61.0961
 20
6.98618
 11
60.8436
 21
6.74474
  0
LINE
  8
0
 10
60.8436
 20
6.74474
 11
60.6076
 21
6.44768
  0
LINE
  8
0
 10
60.6076
 20
6.44768
 11
60.3883
 21
6.09499
  0
LINE
  8
0
 10
60.3883
 20
6.09499
 11
60.3683
 21
6.09499
  0
LINE
  8
0
 10
60.3683
 20
6.09499
 11
60.3495
 21
6.71094
  0
LINE
  8
0
 10
60.3495
 20
6.71094
 11
60.321
 21
7.29674
  0
LINE
  8
0
 10
60.321
 20
7.29674
 11
60.3143
 21
7.35999
  0
LINE
  8
0
 10
60.3143
 20
7.35999
 11
59.1613
 21
7.35999
  0
LINE
  8
0
 10
59.1613
 20
7.35999
 11
59.1792
 21
7.15456
  0
LINE
  8
0
 10
59.1792
 20
7.15456
 11
59.192
 21
6.82425
  0
LINE
  8
0
 10
59.192
 20
6.82425
 11
59.1997
 21
6.36905
  0
LINE
  8
0
 10
59.1997
 20
6.36905
 11
59.2023
 21
5.78899
  0
LINE
  8
0
 10
59.2023
 20
5.78899
 11
59.2023
 21
0
  0
LINE
  8
0
 10
59.2023
 20
0
 11
60.4233
 21
0
  0
LINE
  8
0
 10
60.4233
 20
0
 11
60.4233
 21
4.26099
  0
LINE
  8
0
 10
61.7478
 20
-12.1089
 11
62.1124
 21
-12.0517
  0
LINE
  8
0
 10
62.1124
 20
-12.0517
 11
62.4433
 21
-11.9565
  0
LINE
  8
0
 10
62.4433
 20
-11.9565
 11
62.7406
 21
-11.823
  0
LINE
  8
0
 10
62.7406
 20
-11.823
 11
63.0077
 21
-11.645
  0
LINE
  8
0
 10
63.0077
 20
-11.645
 11
63.2471
 21
-11.417
  0
LINE
  8
0
 10
63.2471
 20
-11.417
 11
63.4587
 21
-11.139
  0
LINE
  8
0
 10
63.4587
 20
-11.139
 11
63.6426
 21
-10.811
  0
LINE
  8
0
 10
63.6426
 20
-10.811
 11
63.6696
 21
-10.811
  0
LINE
  8
0
 10
63.6696
 20
-10.811
 11
63.6711
 21
-10.9614
  0
LINE
  8
0
 10
63.6711
 20
-10.9614
 11
63.6756
 21
-11.1255
  0
LINE
  8
0
 10
63.6756
 20
-11.1255
 11
63.6831
 21
-11.3034
  0
LINE
  8
0
 10
63.6831
 20
-11.3034
 11
63.7054
 21
-11.6751
  0
LINE
  8
0
 10
63.7054
 20
-11.6751
 11
63.7166
 21
-11.8193
  0
LINE
  8
0
 10
63.7166
 20
-11.8193
 11
63.7274
 21
-11.9276
  0
LINE
  8
0
 10
63.7274
 20
-11.9276
 11
63.7376
 21
-12
  0
LINE
  8
0
 10
63.7376
 20
-12
 11
64.9046
 21
-12
  0
LINE
  8
0
 10
64.9046
 20
-12
 11
64.8867
 21
-11.7684
  0
LINE
  8
0
 10
64.8867
 20
-11.7684
 11
64.8739
 21
-11.4395
  0
LINE
  8
0
 10
64.8739
 20
-11.4395
 11
64.8662
 21
-11.0134
  0
LINE
  8
0
 10
64.8662
 20
-11.0134
 11
64.8636
 21
-10.49
  0
LINE
  8
0
 10
64.8636
 20
-10.49
 11
64.8636
 21
-1.95201
  0
LINE
  8
0
 10
64.8636
 20
-1.95201
 11
63.6426
 21
-1.95201
  0
LINE
  8
0
 10
63.6426
 20
-1.95201
 11
63.6426
 21
-4.97401
  0
LINE
  8
0
 10
63.6426
 20
-4.97401
 11
63.6566
 21
-5.78801
  0
LINE
  8
0
 10
63.6566
 20
-5.78801
 11
63.6426
 21
-5.78801
  0
LINE
  8
0
 10
63.6426
 20
-5.78801
 11
63.459
 21
-5.47801
  0
LINE
  8
0
 10
63.459
 20
-5.47801
 11
63.2481
 21
-5.21301
  0
LINE
  8
0
 10
63.2481
 20
-5.21301
 11
63.01
 21
-4.99301
  0
LINE
  8
0
 10
63.01
 20
-4.99301
 11
62.7446
 21
-4.81801
  0
LINE
  8
0
 10
62.7446
 20
-4.81801
 11
62.4482
 21
-4.68413
  0
LINE
  8
0
 10
62.4482
 20
-4.68413
 11
62.1169
 21
-4.5885
  0
LINE
  8
0
 10
62.1169
 20
-4.5885
 11
61.7507
 21
-4.53113
  0
LINE
  8
0
 10
61.7507
 20
-4.53113
 11
61.3496
 21
-4.51201
  0
LINE
  8
0
 10
61.3496
 20
-4.51201
 11
60.1653
 21
-4.75214
  0
LINE
  8
0
 10
60.1653
 20
-4.75214
 11
59.3194
 21
-5.4725
  0
LINE
  8
0
 10
59.3194
 20
-5.4725
 11
58.8118
 21
-6.67313
  0
LINE
  8
0
 10
58.8118
 20
-6.67313
 11
58.6426
 21
-8.354
  0
LINE
  8
0
 10
58.6426
 20
-8.354
 11
58.6836
 21
-9.24426
  0
LINE
  8
0
 10
58.6836
 20
-9.24426
 11
58.8066
 21
-10.014
  0
LINE
  8
0
 10
58.8066
 20
-10.014
 11
59.0116
 21
-10.6633
  0
LINE
  8
0
 10
59.0116
 20
-10.6633
 11
59.2986
 21
-11.192
  0
LINE
  8
0
 10
59.2986
 20
-11.192
 11
59.6732
 21
-11.6015
  0
LINE
  8
0
 10
59.6732
 20
-11.6015
 11
60.1399
 21
-11.894
  0
LINE
  8
0
 10
60.1399
 20
-11.894
 11
60.6987
 21
-12.0695
  0
LINE
  8
0
 10
60.6987
 20
-12.0695
 11
61.3496
 21
-12.128
  0
LINE
  8
0
 10
61.3496
 20
-12.128
 11
61.7478
 21
-12.1089
  0
LINE
  8
0
 10
61.233
 20
-11.1434
 11
60.8691
 21
-11.0188
  0
LINE
  8
0
 10
60.8691
 20
-11.0188
 11
60.569
 21
-10.8109
  0
LINE
  8
0
 10
60.569
 20
-10.8109
 11
60.3326
 21
-10.52
  0
LINE
  8
0
 10
60.3326
 20
-10.52
 11
60.1541
 21
-10.1323
  0
LINE
  8
0
 10
60.1541
 20
-10.1323
 11
60.0266
 21
-9.63525
  0
LINE
  8
0
 10
60.0266
 20
-9.63525
 11
59.9501
 21
-9.02882
  0
LINE
  8
0
 10
59.9501
 20
-9.02882
 11
59.9246
 21
-8.313
  0
LINE
  8
0
 10
59.9246
 20
-8.313
 11
59.9504
 21
-7.59926
  0
LINE
  8
0
 10
59.9504
 20
-7.59926
 11
60.0276
 21
-6.992
  0
LINE
  8
0
 10
60.0276
 20
-6.992
 11
60.1564
 21
-6.49126
  0
LINE
  8
0
 10
60.1564
 20
-6.49126
 11
60.3366
 21
-6.097
  0
LINE
  8
0
 10
60.3366
 20
-6.097
 11
60.5747
 21
-5.7982
  0
LINE
  8
0
 10
60.5747
 20
-5.7982
 11
60.8771
 21
-5.58476
  0
LINE
  8
0
 10
60.8771
 20
-5.58476
 11
61.2437
 21
-5.4567
  0
LINE
  8
0
 10
61.2437
 20
-5.4567
 11
61.6746
 21
-5.414
  0
LINE
  8
0
 10
61.6746
 20
-5.414
 11
62.1537
 21
-5.45645
  0
LINE
  8
0
 10
62.1537
 20
-5.45645
 11
62.5631
 21
-5.58376
  0
LINE
  8
0
 10
62.5631
 20
-5.58376
 11
62.9027
 21
-5.79594
  0
LINE
  8
0
 10
62.9027
 20
-5.79594
 11
63.1726
 21
-6.093
  0
LINE
  8
0
 10
63.1726
 20
-6.093
 11
63.3782
 21
-6.48132
  0
LINE
  8
0
 10
63.3782
 20
-6.48132
 11
63.5251
 21
-6.96725
  0
LINE
  8
0
 10
63.5251
 20
-6.96725
 11
63.6132
 21
-7.55083
  0
LINE
  8
0
 10
63.6132
 20
-7.55083
 11
63.6426
 21
-8.23201
  0
LINE
  8
0
 10
63.6426
 20
-8.23201
 11
63.6132
 21
-8.93938
  0
LINE
  8
0
 10
63.6132
 20
-8.93938
 11
63.5251
 21
-9.5475
  0
LINE
  8
0
 10
63.5251
 20
-9.5475
 11
63.3782
 21
-10.0564
  0
LINE
  8
0
 10
63.3782
 20
-10.0564
 11
63.1726
 21
-10.466
  0
LINE
  8
0
 10
63.1726
 20
-10.466
 11
62.9019
 21
-10.7806
  0
LINE
  8
0
 10
62.9019
 20
-10.7806
 11
62.5596
 21
-11.0053
  0
LINE
  8
0
 10
62.5596
 20
-11.0053
 11
62.1459
 21
-11.1401
  0
LINE
  8
0
 10
62.1459
 20
-11.1401
 11
61.6606
 21
-11.185
  0
LINE
  8
0
 10
61.6606
 20
-11.185
 11
61.233
 21
-11.1434
  0
LINE
  8
0
 10
42.105
 20
-1.95201
 11
40.884
 21
-1.95201
  0
LINE
  8
0
 10
40.884
 20
-1.95201
 11
40.884
 21
-3.11801
  0
LINE
  8
0
 10
40.884
 20
-3.11801
 11
42.105
 21
-3.11801
  0
LINE
  8
0
 10
42.105
 20
-3.11801
 11
42.105
 21
-1.95201
  0
LINE
  8
0
 10
31.5553
 20
-1.95201
 11
30.3353
 21
-1.95201
  0
LINE
  8
0
 10
30.3353
 20
-1.95201
 11
30.3353
 21
-12
  0
LINE
  8
0
 10
30.3353
 20
-12
 11
31.5553
 21
-12
  0
LINE
  8
0
 10
31.5553
 20
-12
 11
31.5553
 21
-1.95201
  0
LINE
  8
0
 10
5.39362
 20
-11.9632
 11
6.0255
 21
-11.8528
  0
LINE
  8
0
 10
6.0255
 20
-11.8528
 11
6.61662
 21
-11.6687
  0
LINE
  8
0
 10
6.61662
 20
-11.6687
 11
7.16699
 21
-11.411
  0
LINE
  8
0
 10
7.16699
 20
-11.411
 11
7.66681
 21
-11.0842
  0
LINE
  8
0
 10
7.66681
 20
-11.0842
 11
8.10625
 21
-10.6928
  0
LINE
  8
0
 10
8.10625
 20
-10.6928
 11
8.48531
 21
-10.2367
  0
LINE
  8
0
 10
8.48531
 20
-10.2367
 11
8.80399
 21
-9.716
  0
LINE
  8
0
 10
8.80399
 20
-9.716
 11
9.05687
 21
-9.13951
  0
LINE
  8
0
 10
9.05687
 20
-9.13951
 11
9.23749
 21
-8.51701
  0
LINE
  8
0
 10
9.23749
 20
-8.51701
 11
9.34587
 21
-7.84851
  0
LINE
  8
0
 10
9.34587
 20
-7.84851
 11
9.38199
 21
-7.134
  0
LINE
  8
0
 10
9.38199
 20
-7.134
 11
9.29936
 21
-6.07806
  0
LINE
  8
0
 10
9.29936
 20
-6.07806
 11
9.0515
 21
-5.15025
  0
LINE
  8
0
 10
9.0515
 20
-5.15025
 11
8.63837
 21
-4.35057
  0
LINE
  8
0
 10
8.63837
 20
-4.35057
 11
8.06
 21
-3.679
  0
LINE
  8
0
 10
8.06
 20
-3.679
 11
7.33005
 21
-3.14745
  0
LINE
  8
0
 10
7.33005
 20
-3.14745
 11
6.46124
 21
-2.76776
  0
LINE
  8
0
 10
6.46124
 20
-2.76776
 11
5.45355
 21
-2.53995
  0
LINE
  8
0
 10
5.45355
 20
-2.53995
 11
4.30699
 21
-2.464
  0
LINE
  8
0
 10
4.30699
 20
-2.464
 11
1.14099
 21
-2.464
  0
LINE
  8
0
 10
1.14099
 20
-2.464
 11
1.14099
 21
-12
  0
LINE
  8
0
 10
1.14099
 20
-12
 11
4.72099
 21
-12
  0
LINE
  8
0
 10
4.72099
 20
-12
 11
5.39362
 21
-11.9632
  0
LINE
  8
0
 10
2.43599
 20
-10.962
 11
2.43599
 21
-3.50201
  0
LINE
  8
0
 10
2.43599
 20
-3.50201
 11
4.27899
 21
-3.50201
  0
LINE
  8
0
 10
4.27899
 20
-3.50201
 11
5.14893
 21
-3.56013
  0
LINE
  8
0
 10
5.14893
 20
-3.56013
 11
5.90974
 21
-3.73451
  0
LINE
  8
0
 10
5.90974
 20
-3.73451
 11
6.56143
 21
-4.02513
  0
LINE
  8
0
 10
6.56143
 20
-4.02513
 11
7.10399
 21
-4.43201
  0
LINE
  8
0
 10
7.10399
 20
-4.43201
 11
7.53099
 21
-4.94963
  0
LINE
  8
0
 10
7.53099
 20
-4.94963
 11
7.836
 21
-5.57251
  0
LINE
  8
0
 10
7.836
 20
-5.57251
 11
8.019
 21
-6.30063
  0
LINE
  8
0
 10
8.019
 20
-6.30063
 11
8.07999
 21
-7.134
  0
LINE
  8
0
 10
8.07999
 20
-7.134
 11
8.05318
 21
-7.70306
  0
LINE
  8
0
 10
8.05318
 20
-7.70306
 11
7.97275
 21
-8.23326
  0
LINE
  8
0
 10
7.97275
 20
-8.23326
 11
7.83868
 21
-8.72456
  0
LINE
  8
0
 10
7.83868
 20
-8.72456
 11
7.65099
 21
-9.177
  0
LINE
  8
0
 10
7.65099
 20
-9.177
 11
7.4138
 21
-9.5842
  0
LINE
  8
0
 10
7.4138
 20
-9.5842
 11
7.13025
 21
-9.94075
  0
LINE
  8
0
 10
7.13025
 20
-9.94075
 11
6.80031
 21
-10.2467
  0
LINE
  8
0
 10
6.80031
 20
-10.2467
 11
6.424
 21
-10.502
  0
LINE
  8
0
 10
6.424
 20
-10.502
 11
6.00856
 21
-10.7033
  0
LINE
  8
0
 10
6.00856
 20
-10.7033
 11
5.56125
 21
-10.847
  0
LINE
  8
0
 10
5.56125
 20
-10.847
 11
5.08206
 21
-10.9333
  0
LINE
  8
0
 10
5.08206
 20
-10.9333
 11
4.571
 21
-10.962
  0
LINE
  8
0
 10
4.571
 20
-10.962
 11
2.43599
 21
-10.962
  0
LINE
  8
0
 10
22.8284
 20
-9.23401
 11
27.1934
 21
-9.23401
  0
LINE
  8
0
 10
27.1934
 20
-9.23401
 11
28.2884
 21
-12
  0
LINE
  8
0
 10
28.2884
 20
-12
 11
29.6104
 21
-12
  0
LINE
  8
0
 10
29.6104
 20
-12
 11
25.7644
 21
-2.464
  0
LINE
  8
0
 10
25.7644
 20
-2.464
 11
24.2924
 21
-2.464
  0
LINE
  8
0
 10
24.2924
 20
-2.464
 11
20.3844
 21
-12
  0
LINE
  8
0
 10
20.3844
 20
-12
 11
21.7274
 21
-12
  0
LINE
  8
0
 10
21.7274
 20
-12
 11
22.8284
 21
-9.23401
  0
LINE
  8
0
 10
23.2234
 20
-8.22401
 11
24.4474
 21
-5.078
  0
LINE
  8
0
 10
24.4474
 20
-5.078
 11
24.6037
 21
-4.65645
  0
LINE
  8
0
 10
24.6037
 20
-4.65645
 11
24.7397
 21
-4.27477
  0
LINE
  8
0
 10
24.7397
 20
-4.27477
 11
24.8552
 21
-3.93294
  0
LINE
  8
0
 10
24.8552
 20
-3.93294
 11
25.0114
 21
-3.44101
  0
LINE
  8
0
 10
25.0114
 20
-3.44101
 11
25.2904
 21
-4.29288
  0
LINE
  8
0
 10
25.2904
 20
-4.29288
 11
25.3854
 21
-4.56551
  0
LINE
  8
0
 10
25.3854
 20
-4.56551
 11
25.4804
 21
-4.82288
  0
LINE
  8
0
 10
25.4804
 20
-4.82288
 11
26.8064
 21
-8.22401
  0
LINE
  8
0
 10
26.8064
 20
-8.22401
 11
23.2234
 21
-8.22401
  0
LINE
  8
0
 10
46.2164
 20
-12.1062
 11
46.6114
 21
-12.0407
  0
LINE
  8
0
 10
46.6114
 20
-12.0407
 11
46.9729
 21
-11.9317
  0
LINE
  8
0
 10
46.9729
 20
-11.9317
 11
47.3007
 21
-11.779
  0
LINE
  8
0
 10
47.3007
 20
-11.779
 11
47.6026
 21
-11.5733
  0
LINE
  8
0
 10
47.6026
 20
-11.5733
 11
47.8852
 21
-11.306
  0
LINE
  8
0
 10
47.8852
 20
-11.306
 11
48.1485
 21
-10.9773
  0
LINE
  8
0
 10
48.1485
 20
-10.9773
 11
48.3927
 21
-10.587
  0
LINE
  8
0
 10
48.3927
 20
-10.587
 11
48.4337
 21
-10.587
  0
LINE
  8
0
 10
48.4337
 20
-10.587
 11
48.4709
 21
-10.9428
  0
LINE
  8
0
 10
48.4709
 20
-10.9428
 11
48.5417
 21
-11.248
  0
LINE
  8
0
 10
48.5417
 20
-11.248
 11
48.6459
 21
-11.5028
  0
LINE
  8
0
 10
48.6459
 20
-11.5028
 11
48.7837
 21
-11.707
  0
LINE
  8
0
 10
48.7837
 20
-11.707
 11
48.9613
 21
-11.8632
  0
LINE
  8
0
 10
48.9613
 20
-11.8632
 11
49.1852
 21
-11.9748
  0
LINE
  8
0
 10
49.1852
 20
-11.9748
 11
49.4553
 21
-12.0417
  0
LINE
  8
0
 10
49.4553
 20
-12.0417
 11
49.7717
 21
-12.064
  0
LINE
  8
0
 10
49.7717
 20
-12.064
 11
50.0114
 21
-12.0572
  0
LINE
  8
0
 10
50.0114
 20
-12.0572
 11
50.2487
 21
-12.0367
  0
LINE
  8
0
 10
50.2487
 20
-12.0367
 11
50.4834
 21
-12.0027
  0
LINE
  8
0
 10
50.4834
 20
-12.0027
 11
50.7157
 21
-11.955
  0
LINE
  8
0
 10
50.7157
 20
-11.955
 11
50.7157
 21
-11.196
  0
LINE
  8
0
 10
50.7157
 20
-11.196
 11
50.6066
 21
-11.2166
  0
LINE
  8
0
 10
50.6066
 20
-11.2166
 11
50.5034
 21
-11.2313
  0
LINE
  8
0
 10
50.5034
 20
-11.2313
 11
50.4061
 21
-11.2401
  0
LINE
  8
0
 10
50.4061
 20
-11.2401
 11
50.3147
 21
-11.243
  0
LINE
  8
0
 10
50.3147
 20
-11.243
 11
50.1303
 21
-11.2258
  0
LINE
  8
0
 10
50.1303
 20
-11.2258
 11
49.9782
 21
-11.1743
  0
LINE
  8
0
 10
49.9782
 20
-11.1743
 11
49.8583
 21
-11.0883
  0
LINE
  8
0
 10
49.8583
 20
-11.0883
 11
49.7707
 21
-10.968
  0
LINE
  8
0
 10
49.7707
 20
-10.968
 11
49.7081
 21
-10.8137
  0
LINE
  8
0
 10
49.7081
 20
-10.8137
 11
49.6634
 21
-10.6258
  0
LINE
  8
0
 10
49.6634
 20
-10.6258
 11
49.6366
 21
-10.4042
  0
LINE
  8
0
 10
49.6366
 20
-10.4042
 11
49.6277
 21
-10.149
  0
LINE
  8
0
 10
49.6277
 20
-10.149
 11
49.6277
 21
-6.98401
  0
LINE
  8
0
 10
49.6277
 20
-6.98401
 11
49.5839
 21
-6.41844
  0
LINE
  8
0
 10
49.5839
 20
-6.41844
 11
49.4524
 21
-5.92375
  0
LINE
  8
0
 10
49.4524
 20
-5.92375
 11
49.2334
 21
-5.49994
  0
LINE
  8
0
 10
49.2334
 20
-5.49994
 11
48.9267
 21
-5.147
  0
LINE
  8
0
 10
48.9267
 20
-5.147
 11
48.5338
 21
-4.8692
  0
LINE
  8
0
 10
48.5338
 20
-4.8692
 11
48.0552
 21
-4.67076
  0
LINE
  8
0
 10
48.0552
 20
-4.67076
 11
47.4908
 21
-4.5517
  0
LINE
  8
0
 10
47.4908
 20
-4.5517
 11
46.8407
 21
-4.51201
  0
LINE
  8
0
 10
46.8407
 20
-4.51201
 11
45.667
 21
-4.63676
  0
LINE
  8
0
 10
45.667
 20
-4.63676
 11
44.7839
 21
-5.011
  0
LINE
  8
0
 10
44.7839
 20
-5.011
 11
44.1915
 21
-5.63475
  0
LINE
  8
0
 10
44.1915
 20
-5.63475
 11
43.8897
 21
-6.50801
  0
LINE
  8
0
 10
43.8897
 20
-6.50801
 11
45.1647
 21
-6.62401
  0
LINE
  8
0
 10
45.1647
 20
-6.62401
 11
45.2209
 21
-6.33557
  0
LINE
  8
0
 10
45.2209
 20
-6.33557
 11
45.3144
 21
-6.08926
  0
LINE
  8
0
 10
45.3144
 20
-6.08926
 11
45.4454
 21
-5.88507
  0
LINE
  8
0
 10
45.4454
 20
-5.88507
 11
45.6137
 21
-5.72301
  0
LINE
  8
0
 10
45.6137
 20
-5.72301
 11
45.8293
 21
-5.59964
  0
LINE
  8
0
 10
45.8293
 20
-5.59964
 11
46.1012
 21
-5.51151
  0
LINE
  8
0
 10
46.1012
 20
-5.51151
 11
46.4293
 21
-5.45863
  0
LINE
  8
0
 10
46.4293
 20
-5.45863
 11
46.8137
 21
-5.44101
  0
LINE
  8
0
 10
46.8137
 20
-5.44101
 11
47.1949
 21
-5.46532
  0
LINE
  8
0
 10
47.1949
 20
-5.46532
 11
47.5217
 21
-5.53825
  0
LINE
  8
0
 10
47.5217
 20
-5.53825
 11
47.7939
 21
-5.65982
  0
LINE
  8
0
 10
47.7939
 20
-5.65982
 11
48.0117
 21
-5.83
  0
LINE
  8
0
 10
48.0117
 20
-5.83
 11
48.1788
 21
-6.05602
  0
LINE
  8
0
 10
48.1788
 20
-6.05602
 11
48.2982
 21
-6.34601
  0
LINE
  8
0
 10
48.2982
 20
-6.34601
 11
48.3698
 21
-6.70001
  0
LINE
  8
0
 10
48.3698
 20
-6.70001
 11
48.3937
 21
-7.11801
  0
LINE
  8
0
 10
48.3937
 20
-7.11801
 11
48.3937
 21
-7.52
  0
LINE
  8
0
 10
48.3937
 20
-7.52
 11
46.7407
 21
-7.54701
  0
LINE
  8
0
 10
46.7407
 20
-7.54701
 11
45.9613
 21
-7.60307
  0
LINE
  8
0
 10
45.9613
 20
-7.60307
 11
45.2972
 21
-7.73026
  0
LINE
  8
0
 10
45.2972
 20
-7.73026
 11
44.7483
 21
-7.92857
  0
LINE
  8
0
 10
44.7483
 20
-7.92857
 11
44.3147
 21
-8.19801
  0
LINE
  8
0
 10
44.3147
 20
-8.19801
 11
43.9861
 21
-8.53601
  0
LINE
  8
0
 10
43.9861
 20
-8.53601
 11
43.7514
 21
-8.94
  0
LINE
  8
0
 10
43.7514
 20
-8.94
 11
43.6106
 21
-9.41
  0
LINE
  8
0
 10
43.6106
 20
-9.41
 11
43.5637
 21
-9.94601
  0
LINE
  8
0
 10
43.5637
 20
-9.94601
 11
43.5985
 21
-10.4269
  0
LINE
  8
0
 10
43.5985
 20
-10.4269
 11
43.7029
 21
-10.8538
  0
LINE
  8
0
 10
43.7029
 20
-10.8538
 11
43.877
 21
-11.2264
  0
LINE
  8
0
 10
43.877
 20
-11.2264
 11
44.1207
 21
-11.545
  0
LINE
  8
0
 10
44.1207
 20
-11.545
 11
44.4341
 21
-11.8001
  0
LINE
  8
0
 10
44.4341
 20
-11.8001
 11
44.8164
 21
-11.9823
  0
LINE
  8
0
 10
44.8164
 20
-11.9823
 11
45.2676
 21
-12.0916
  0
LINE
  8
0
 10
45.2676
 20
-12.0916
 11
45.7877
 21
-12.128
  0
LINE
  8
0
 10
45.7877
 20
-12.128
 11
46.2164
 21
-12.1062
  0
LINE
  8
0
 10
45.7824
 20
-11.1927
 11
45.5344
 21
-11.1318
  0
LINE
  8
0
 10
45.5344
 20
-11.1318
 11
45.3209
 21
-11.0302
  0
LINE
  8
0
 10
45.3209
 20
-11.0302
 11
45.1417
 21
-10.888
  0
LINE
  8
0
 10
45.1417
 20
-10.888
 11
45.0004
 21
-10.7085
  0
LINE
  8
0
 10
45.0004
 20
-10.7085
 11
44.8994
 21
-10.495
  0
LINE
  8
0
 10
44.8994
 20
-10.495
 11
44.8389
 21
-10.2475
  0
LINE
  8
0
 10
44.8389
 20
-10.2475
 11
44.8187
 21
-9.966
  0
LINE
  8
0
 10
44.8187
 20
-9.966
 11
44.8335
 21
-9.7047
  0
LINE
  8
0
 10
44.8335
 20
-9.7047
 11
44.8782
 21
-9.46976
  0
LINE
  8
0
 10
44.8782
 20
-9.46976
 11
44.9525
 21
-9.2612
  0
LINE
  8
0
 10
44.9525
 20
-9.2612
 11
45.0567
 21
-9.07901
  0
LINE
  8
0
 10
45.0567
 20
-9.07901
 11
45.1891
 21
-8.92056
  0
LINE
  8
0
 10
45.1891
 20
-8.92056
 11
45.3474
 21
-8.78426
  0
LINE
  8
0
 10
45.3474
 20
-8.78426
 11
45.5316
 21
-8.67007
  0
LINE
  8
0
 10
45.5316
 20
-8.67007
 11
45.7417
 21
-8.578
  0
LINE
  8
0
 10
45.7417
 20
-8.578
 11
45.9909
 21
-8.50581
  0
LINE
  8
0
 10
45.9909
 20
-8.50581
 11
46.2924
 21
-8.45226
  0
LINE
  8
0
 10
46.2924
 20
-8.45226
 11
46.6464
 21
-8.41731
  0
LINE
  8
0
 10
46.6464
 20
-8.41731
 11
47.0527
 21
-8.401
  0
LINE
  8
0
 10
47.0527
 20
-8.401
 11
48.3937
 21
-8.37401
  0
LINE
  8
0
 10
48.3937
 20
-8.37401
 11
48.3937
 21
-8.97701
  0
LINE
  8
0
 10
48.3937
 20
-8.97701
 11
48.3747
 21
-9.25613
  0
LINE
  8
0
 10
48.3747
 20
-9.25613
 11
48.3179
 21
-9.53151
  0
LINE
  8
0
 10
48.3179
 20
-9.53151
 11
48.2232
 21
-9.80313
  0
LINE
  8
0
 10
48.2232
 20
-9.80313
 11
48.0907
 21
-10.071
  0
LINE
  8
0
 10
48.0907
 20
-10.071
 11
47.9253
 21
-10.3228
  0
LINE
  8
0
 10
47.9253
 20
-10.3228
 11
47.7322
 21
-10.5463
  0
LINE
  8
0
 10
47.7322
 20
-10.5463
 11
47.5113
 21
-10.7413
  0
LINE
  8
0
 10
47.5113
 20
-10.7413
 11
47.2627
 21
-10.908
  0
LINE
  8
0
 10
47.2627
 20
-10.908
 11
46.9913
 21
-11.0414
  0
LINE
  8
0
 10
46.9913
 20
-11.0414
 11
46.7012
 21
-11.1368
  0
LINE
  8
0
 10
46.7012
 20
-11.1368
 11
46.3923
 21
-11.1939
  0
LINE
  8
0
 10
46.3923
 20
-11.1939
 11
46.0647
 21
-11.213
  0
LINE
  8
0
 10
46.0647
 20
-11.213
 11
45.7824
 21
-11.1927
  0
LINE
  8
0
 10
52.7006
 20
-7.73901
 11
52.7326
 21
-7.23132
  0
LINE
  8
0
 10
52.7326
 20
-7.23132
 11
52.8284
 21
-6.78226
  0
LINE
  8
0
 10
52.8284
 20
-6.78226
 11
52.9881
 21
-6.39182
  0
LINE
  8
0
 10
52.9881
 20
-6.39182
 11
53.2116
 21
-6.06001
  0
LINE
  8
0
 10
53.2116
 20
-6.06001
 11
53.4906
 21
-5.79532
  0
LINE
  8
0
 10
53.4906
 20
-5.79532
 11
53.8164
 21
-5.60626
  0
LINE
  8
0
 10
53.8164
 20
-5.60626
 11
54.1891
 21
-5.49281
  0
LINE
  8
0
 10
54.1891
 20
-5.49281
 11
54.6086
 21
-5.455
  0
LINE
  8
0
 10
54.6086
 20
-5.455
 11
54.8933
 21
-5.46606
  0
LINE
  8
0
 10
54.8933
 20
-5.46606
 11
55.1414
 21
-5.49925
  0
LINE
  8
0
 10
55.1414
 20
-5.49925
 11
55.3528
 21
-5.55457
  0
LINE
  8
0
 10
55.3528
 20
-5.55457
 11
55.5276
 21
-5.632
  0
LINE
  8
0
 10
55.5276
 20
-5.632
 11
55.674
 21
-5.73407
  0
LINE
  8
0
 10
55.674
 20
-5.73407
 11
55.7989
 21
-5.86426
  0
LINE
  8
0
 10
55.7989
 20
-5.86426
 11
55.9025
 21
-6.02257
  0
LINE
  8
0
 10
55.9025
 20
-6.02257
 11
55.9846
 21
-6.20901
  0
LINE
  8
0
 10
55.9846
 20
-6.20901
 11
56.0472
 21
-6.42995
  0
LINE
  8
0
 10
56.0472
 20
-6.42995
 11
56.0919
 21
-6.69176
  0
LINE
  8
0
 10
56.0919
 20
-6.69176
 11
56.1187
 21
-6.99445
  0
LINE
  8
0
 10
56.1187
 20
-6.99445
 11
56.1276
 21
-7.33801
  0
LINE
  8
0
 10
56.1276
 20
-7.33801
 11
56.1276
 21
-12
  0
LINE
  8
0
 10
56.1276
 20
-12
 11
57.3546
 21
-12
  0
LINE
  8
0
 10
57.3546
 20
-12
 11
57.3546
 21
-7.10101
  0
LINE
  8
0
 10
57.3546
 20
-7.10101
 11
57.3195
 21
-6.45708
  0
LINE
  8
0
 10
57.3195
 20
-6.45708
 11
57.2141
 21
-5.91125
  0
LINE
  8
0
 10
57.2141
 20
-5.91125
 11
57.0385
 21
-5.46358
  0
LINE
  8
0
 10
57.0385
 20
-5.46358
 11
56.7926
 21
-5.11401
  0
LINE
  8
0
 10
56.7926
 20
-5.11401
 11
56.4715
 21
-4.85063
  0
LINE
  8
0
 10
56.4715
 20
-4.85063
 11
56.0691
 21
-4.66251
  0
LINE
  8
0
 10
56.0691
 20
-4.66251
 11
55.5855
 21
-4.54964
  0
LINE
  8
0
 10
55.5855
 20
-4.54964
 11
55.0206
 21
-4.51201
  0
LINE
  8
0
 10
55.0206
 20
-4.51201
 11
54.6259
 21
-4.53175
  0
LINE
  8
0
 10
54.6259
 20
-4.53175
 11
54.2646
 21
-4.591
  0
LINE
  8
0
 10
54.2646
 20
-4.591
 11
53.9369
 21
-4.68976
  0
LINE
  8
0
 10
53.9369
 20
-4.68976
 11
53.6426
 21
-4.828
  0
LINE
  8
0
 10
53.6426
 20
-4.828
 11
53.3735
 21
-5.01382
  0
LINE
  8
0
 10
53.3735
 20
-5.01382
 11
53.1209
 21
-5.25526
  0
LINE
  8
0
 10
53.1209
 20
-5.25526
 11
52.8849
 21
-5.55232
  0
LINE
  8
0
 10
52.8849
 20
-5.55232
 11
52.6656
 21
-5.90501
  0
LINE
  8
0
 10
52.6656
 20
-5.90501
 11
52.6456
 21
-5.90501
  0
LINE
  8
0
 10
52.6456
 20
-5.90501
 11
52.6269
 21
-5.28906
  0
LINE
  8
0
 10
52.6269
 20
-5.28906
 11
52.5984
 21
-4.70326
  0
LINE
  8
0
 10
52.5984
 20
-4.70326
 11
52.5916
 21
-4.64001
  0
LINE
  8
0
 10
52.5916
 20
-4.64001
 11
51.4386
 21
-4.64001
  0
LINE
  8
0
 10
51.4386
 20
-4.64001
 11
51.4566
 21
-4.84544
  0
LINE
  8
0
 10
51.4566
 20
-4.84544
 11
51.4694
 21
-5.17575
  0
LINE
  8
0
 10
51.4694
 20
-5.17575
 11
51.4771
 21
-5.63095
  0
LINE
  8
0
 10
51.4771
 20
-5.63095
 11
51.4796
 21
-6.21101
  0
LINE
  8
0
 10
51.4796
 20
-6.21101
 11
51.4796
 21
-12
  0
LINE
  8
0
 10
51.4796
 20
-12
 11
52.7006
 21
-12
  0
LINE
  8
0
 10
52.7006
 20
-12
 11
52.7006
 21
-7.73901
  0
LINE
  8
0
 10
67.7806
 20
-8.166
 11
67.8055
 21
-7.58995
  0
LINE
  8
0
 10
67.8055
 20
-7.58995
 11
67.8801
 21
-7.08476
  0
LINE
  8
0
 10
67.8801
 20
-7.08476
 11
68.0045
 21
-6.65045
  0
LINE
  8
0
 10
68.0045
 20
-6.65045
 11
68.1786
 21
-6.287
  0
LINE
  8
0
 10
68.1786
 20
-6.287
 11
68.3999
 21
-6
  0
LINE
  8
0
 10
68.3999
 20
-6
 11
68.6658
 21
-5.79501
  0
LINE
  8
0
 10
68.6658
 20
-5.79501
 11
68.9764
 21
-5.67201
  0
LINE
  8
0
 10
68.9764
 20
-5.67201
 11
69.3316
 21
-5.63101
  0
LINE
  8
0
 10
69.3316
 20
-5.63101
 11
69.5235
 21
-5.63525
  0
LINE
  8
0
 10
69.5235
 20
-5.63525
 11
69.6953
 21
-5.64801
  0
LINE
  8
0
 10
69.6953
 20
-5.64801
 11
69.847
 21
-5.66925
  0
LINE
  8
0
 10
69.847
 20
-5.66925
 11
69.9786
 21
-5.69901
  0
LINE
  8
0
 10
69.9786
 20
-5.69901
 11
69.9786
 21
-4.58
  0
LINE
  8
0
 10
69.9786
 20
-4.58
 11
69.8541
 21
-4.55026
  0
LINE
  8
0
 10
69.8541
 20
-4.55026
 11
69.7306
 21
-4.52901
  0
LINE
  8
0
 10
69.7306
 20
-4.52901
 11
69.6081
 21
-4.51625
  0
LINE
  8
0
 10
69.6081
 20
-4.51625
 11
69.4866
 21
-4.51201
  0
LINE
  8
0
 10
69.4866
 20
-4.51201
 11
69.162
 21
-4.53363
  0
LINE
  8
0
 10
69.162
 20
-4.53363
 11
68.8761
 21
-4.59851
  0
LINE
  8
0
 10
68.8761
 20
-4.59851
 11
68.629
 21
-4.70663
  0
LINE
  8
0
 10
68.629
 20
-4.70663
 11
68.4206
 21
-4.858
  0
LINE
  8
0
 10
68.4206
 20
-4.858
 11
68.2371
 21
-5.06825
  0
LINE
  8
0
 10
68.2371
 20
-5.06825
 11
68.0646
 21
-5.35301
  0
LINE
  8
0
 10
68.0646
 20
-5.35301
 11
67.9031
 21
-5.71227
  0
LINE
  8
0
 10
67.9031
 20
-5.71227
 11
67.7526
 21
-6.14601
  0
LINE
  8
0
 10
67.7526
 20
-6.14601
 11
67.7256
 21
-6.14601
  0
LINE
  8
0
 10
67.7256
 20
-6.14601
 11
67.7222
 21
-5.95738
  0
LINE
  8
0
 10
67.7222
 20
-5.95738
 11
67.7121
 21
-5.64351
  0
LINE
  8
0
 10
67.7121
 20
-5.64351
 11
67.6716
 21
-4.64001
  0
LINE
  8
0
 10
67.6716
 20
-4.64001
 11
66.5186
 21
-4.64001
  0
LINE
  8
0
 10
66.5186
 20
-4.64001
 11
66.5365
 21
-5.09926
  0
LINE
  8
0
 10
66.5365
 20
-5.09926
 11
66.5493
 21
-5.53801
  0
LINE
  8
0
 10
66.5493
 20
-5.53801
 11
66.557
 21
-5.95625
  0
LINE
  8
0
 10
66.557
 20
-5.95625
 11
66.5596
 21
-6.354
  0
LINE
  8
0
 10
66.5596
 20
-6.354
 11
66.5596
 21
-12
  0
LINE
  8
0
 10
66.5596
 20
-12
 11
67.7806
 21
-12
  0
LINE
  8
0
 10
67.7806
 20
-12
 11
67.7806
 21
-8.166
  0
LINE
  8
0
 10
74.7192
 20
-12.0691
 11
75.3842
 21
-11.8923
  0
LINE
  8
0
 10
75.3842
 20
-11.8923
 11
75.9532
 21
-11.5976
  0
LINE
  8
0
 10
75.9532
 20
-11.5976
 11
76.4262
 21
-11.185
  0
LINE
  8
0
 10
76.4262
 20
-11.185
 11
76.798
 21
-10.6515
  0
LINE
  8
0
 10
76.798
 20
-10.6515
 11
77.0637
 21
-9.99501
  0
LINE
  8
0
 10
77.0637
 20
-9.99501
 11
77.2231
 21
-9.21552
  0
LINE
  8
0
 10
77.2231
 20
-9.21552
 11
77.2762
 21
-8.313
  0
LINE
  8
0
 10
77.2762
 20
-8.313
 11
77.2264
 21
-7.40288
  0
LINE
  8
0
 10
77.2264
 20
-7.40288
 11
77.0772
 21
-6.62051
  0
LINE
  8
0
 10
77.0772
 20
-6.62051
 11
76.8284
 21
-5.96588
  0
LINE
  8
0
 10
76.8284
 20
-5.96588
 11
76.4802
 21
-5.43901
  0
LINE
  8
0
 10
76.4802
 20
-5.43901
 11
76.027
 21
-5.03345
  0
LINE
  8
0
 10
76.027
 20
-5.03345
 11
75.4624
 21
-4.74376
  0
LINE
  8
0
 10
75.4624
 20
-4.74376
 11
74.7865
 21
-4.56995
  0
LINE
  8
0
 10
74.7865
 20
-4.56995
 11
73.9992
 21
-4.51201
  0
LINE
  8
0
 10
73.9992
 20
-4.51201
 11
72.5567
 21
-4.74957
  0
LINE
  8
0
 10
72.5567
 20
-4.74957
 11
71.5264
 21
-5.46227
  0
LINE
  8
0
 10
71.5264
 20
-5.46227
 11
70.9082
 21
-6.65007
  0
LINE
  8
0
 10
70.9082
 20
-6.65007
 11
70.7022
 21
-8.313
  0
LINE
  8
0
 10
70.7022
 20
-8.313
 11
70.7536
 21
-9.18501
  0
LINE
  8
0
 10
70.7536
 20
-9.18501
 11
70.9077
 21
-9.94801
  0
LINE
  8
0
 10
70.9077
 20
-9.94801
 11
71.1646
 21
-10.602
  0
LINE
  8
0
 10
71.1646
 20
-10.602
 11
71.5242
 21
-11.147
  0
LINE
  8
0
 10
71.5242
 20
-11.147
 11
71.9849
 21
-11.5762
  0
LINE
  8
0
 10
71.9849
 20
-11.5762
 11
72.5442
 21
-11.8828
  0
LINE
  8
0
 10
72.5442
 20
-11.8828
 11
73.2019
 21
-12.0667
  0
LINE
  8
0
 10
73.2019
 20
-12.0667
 11
73.9582
 21
-12.128
  0
LINE
  8
0
 10
73.9582
 20
-12.128
 11
74.7192
 21
-12.0691
  0
LINE
  8
0
 10
73.4716
 20
-11.1804
 11
73.0657
 21
-11.0435
  0
LINE
  8
0
 10
73.0657
 20
-11.0435
 11
72.7276
 21
-10.8154
  0
LINE
  8
0
 10
72.7276
 20
-10.8154
 11
72.4572
 21
-10.496
  0
LINE
  8
0
 10
72.4572
 20
-10.496
 11
72.2502
 21
-10.0858
  0
LINE
  8
0
 10
72.2502
 20
-10.0858
 11
72.1024
 21
-9.58525
  0
LINE
  8
0
 10
72.1024
 20
-9.58525
 11
72.0137
 21
-8.99432
  0
LINE
  8
0
 10
72.0137
 20
-8.99432
 11
71.9842
 21
-8.313
  0
LINE
  8
0
 10
71.9842
 20
-8.313
 11
72.0142
 21
-7.61551
  0
LINE
  8
0
 10
72.0142
 20
-7.61551
 11
72.1042
 21
-7.01701
  0
LINE
  8
0
 10
72.1042
 20
-7.01701
 11
72.2542
 21
-6.5175
  0
LINE
  8
0
 10
72.2542
 20
-6.5175
 11
72.4642
 21
-6.117
  0
LINE
  8
0
 10
72.4642
 20
-6.117
 11
72.7414
 21
-5.80945
  0
LINE
  8
0
 10
72.7414
 20
-5.80945
 11
73.0932
 21
-5.58975
  0
LINE
  8
0
 10
73.0932
 20
-5.58975
 11
73.5194
 21
-5.45795
  0
LINE
  8
0
 10
73.5194
 20
-5.45795
 11
74.0202
 21
-5.414
  0
LINE
  8
0
 10
74.0202
 20
-5.414
 11
74.5161
 21
-5.45708
  0
LINE
  8
0
 10
74.5161
 20
-5.45708
 11
74.9349
 21
-5.58626
  0
LINE
  8
0
 10
74.9349
 20
-5.58626
 11
75.2766
 21
-5.80157
  0
LINE
  8
0
 10
75.2766
 20
-5.80157
 11
75.5412
 21
-6.10301
  0
LINE
  8
0
 10
75.5412
 20
-6.10301
 11
75.7394
 21
-6.49951
  0
LINE
  8
0
 10
75.7394
 20
-6.49951
 11
75.8809
 21
-7
  0
LINE
  8
0
 10
75.8809
 20
-7
 11
75.9659
 21
-7.60451
  0
LINE
  8
0
 10
75.9659
 20
-7.60451
 11
75.9942
 21
-8.313
  0
LINE
  8
0
 10
75.9942
 20
-8.313
 11
75.9646
 21
-9.01382
  0
LINE
  8
0
 10
75.9646
 20
-9.01382
 11
75.8759
 21
-9.61526
  0
LINE
  8
0
 10
75.8759
 20
-9.61526
 11
75.7281
 21
-10.1173
  0
LINE
  8
0
 10
75.7281
 20
-10.1173
 11
75.5212
 21
-10.52
  0
LINE
  8
0
 10
75.5212
 20
-10.52
 11
75.2453
 21
-10.8289
  0
LINE
  8
0
 10
75.2453
 20
-10.8289
 11
74.8907
 21
-11.0495
  0
LINE
  8
0
 10
74.8907
 20
-11.0495
 11
74.4573
 21
-11.1819
  0
LINE
  8
0
 10
74.4573
 20
-11.1819
 11
73.9452
 21
-11.226
  0
LINE
  8
0
 10
73.9452
 20
-11.226
 11
73.4716
 21
-11.1804
  0
LINE
  8
0
 10
37.4105
 20
-12.0191
 11
38.265
 21
-11.6925
  0
LINE
  8
0
 10
38.265
 20
-11.6925
 11
38.9095
 21
-11.1481
  0
LINE
  8
0
 10
38.9095
 20
-11.1481
 11
39.344
 21
-10.386
  0
LINE
  8
0
 10
39.344
 20
-10.386
 11
38.273
 21
-10.08
  0
LINE
  8
0
 10
38.273
 20
-10.08
 11
38.1686
 21
-10.3149
  0
LINE
  8
0
 10
38.1686
 20
-10.3149
 11
38.0255
 21
-10.5285
  0
LINE
  8
0
 10
38.0255
 20
-10.5285
 11
37.8436
 21
-10.7209
  0
LINE
  8
0
 10
37.8436
 20
-10.7209
 11
37.623
 21
-10.892
  0
LINE
  8
0
 10
37.623
 20
-10.892
 11
37.3632
 21
-11.0324
  0
LINE
  8
0
 10
37.3632
 20
-11.0324
 11
37.0638
 21
-11.1328
  0
LINE
  8
0
 10
37.0638
 20
-11.1328
 11
36.7247
 21
-11.1929
  0
LINE
  8
0
 10
36.7247
 20
-11.1929
 11
36.346
 21
-11.213
  0
LINE
  8
0
 10
36.346
 20
-11.213
 11
35.8726
 21
-11.1703
  0
LINE
  8
0
 10
35.8726
 20
-11.1703
 11
35.4595
 21
-11.042
  0
LINE
  8
0
 10
35.4595
 20
-11.042
 11
35.1066
 21
-10.8283
  0
LINE
  8
0
 10
35.1066
 20
-10.8283
 11
34.814
 21
-10.529
  0
LINE
  8
0
 10
34.814
 20
-10.529
 11
34.5848
 21
-10.1506
  0
LINE
  8
0
 10
34.5848
 20
-10.1506
 11
34.421
 21
-9.70026
  0
LINE
  8
0
 10
34.421
 20
-9.70026
 11
34.3228
 21
-9.17807
  0
LINE
  8
0
 10
34.3228
 20
-9.17807
 11
34.29
 21
-8.58401
  0
LINE
  8
0
 10
34.29
 20
-8.58401
 11
39.541
 21
-8.58401
  0
LINE
  8
0
 10
39.541
 20
-8.58401
 11
39.541
 21
-8.42101
  0
LINE
  8
0
 10
39.541
 20
-8.42101
 11
39.3383
 21
-6.71082
  0
LINE
  8
0
 10
39.3383
 20
-6.71082
 11
38.7303
 21
-5.48926
  0
LINE
  8
0
 10
38.7303
 20
-5.48926
 11
37.7168
 21
-4.75632
  0
LINE
  8
0
 10
37.7168
 20
-4.75632
 11
36.298
 21
-4.51201
  0
LINE
  8
0
 10
36.298
 20
-4.51201
 11
35.5517
 21
-4.57269
  0
LINE
  8
0
 10
35.5517
 20
-4.57269
 11
34.8968
 21
-4.75476
  0
LINE
  8
0
 10
34.8968
 20
-4.75476
 11
34.3332
 21
-5.0582
  0
LINE
  8
0
 10
34.3332
 20
-5.0582
 11
33.861
 21
-5.483
  0
LINE
  8
0
 10
33.861
 20
-5.483
 11
33.4878
 21
-6.02107
  0
LINE
  8
0
 10
33.4878
 20
-6.02107
 11
33.2213
 21
-6.66525
  0
LINE
  8
0
 10
33.2213
 20
-6.66525
 11
33.0613
 21
-7.41557
  0
LINE
  8
0
 10
33.0613
 20
-7.41557
 11
33.008
 21
-8.272
  0
LINE
  8
0
 10
33.008
 20
-8.272
 11
33.0613
 21
-9.1705
  0
LINE
  8
0
 10
33.0613
 20
-9.1705
 11
33.2213
 21
-9.951
  0
LINE
  8
0
 10
33.2213
 20
-9.951
 11
33.4878
 21
-10.6135
  0
LINE
  8
0
 10
33.4878
 20
-10.6135
 11
33.861
 21
-11.158
  0
LINE
  8
0
 10
33.861
 20
-11.158
 11
34.3362
 21
-11.5824
  0
LINE
  8
0
 10
34.3362
 20
-11.5824
 11
34.9088
 21
-11.8855
  0
LINE
  8
0
 10
34.9088
 20
-11.8855
 11
35.5787
 21
-12.0674
  0
LINE
  8
0
 10
35.5787
 20
-12.0674
 11
36.346
 21
-12.128
  0
LINE
  8
0
 10
36.346
 20
-12.128
 11
37.4105
 21
-12.0191
  0
LINE
  8
0
 10
34.303
 20
-7.64801
 11
34.3535
 21
-7.15488
  0
LINE
  8
0
 10
34.3535
 20
-7.15488
 11
34.464
 21
-6.71751
  0
LINE
  8
0
 10
34.464
 20
-6.71751
 11
34.6345
 21
-6.33588
  0
LINE
  8
0
 10
34.6345
 20
-6.33588
 11
34.865
 21
-6.01001
  0
LINE
  8
0
 10
34.865
 20
-6.01001
 11
35.1486
 21
-5.74925
  0
LINE
  8
0
 10
35.1486
 20
-5.74925
 11
35.4785
 21
-5.563
  0
LINE
  8
0
 10
35.4785
 20
-5.563
 11
35.8546
 21
-5.45126
  0
LINE
  8
0
 10
35.8546
 20
-5.45126
 11
36.277
 21
-5.414
  0
LINE
  8
0
 10
36.277
 20
-5.414
 11
36.7097
 21
-5.44745
  0
LINE
  8
0
 10
36.7097
 20
-5.44745
 11
37.0888
 21
-5.54776
  0
LINE
  8
0
 10
37.0888
 20
-5.54776
 11
37.4142
 21
-5.71495
  0
LINE
  8
0
 10
37.4142
 20
-5.71495
 11
37.686
 21
-5.94901
  0
LINE
  8
0
 10
37.686
 20
-5.94901
 11
37.9072
 21
-6.25545
  0
LINE
  8
0
 10
37.9072
 20
-6.25545
 11
38.0798
 21
-6.64076
  0
LINE
  8
0
 10
38.0798
 20
-6.64076
 11
38.2037
 21
-7.10495
  0
LINE
  8
0
 10
38.2037
 20
-7.10495
 11
38.279
 21
-7.64801
  0
LINE
  8
0
 10
38.279
 20
-7.64801
 11
34.303
 21
-7.64801
  0
LINE
  8
0
 10
14.7884
 20
-12.0191
 11
15.6429
 21
-11.6925
  0
LINE
  8
0
 10
15.6429
 20
-11.6925
 11
16.2874
 21
-11.1481
  0
LINE
  8
0
 10
16.2874
 20
-11.1481
 11
16.7219
 21
-10.386
  0
LINE
  8
0
 10
16.7219
 20
-10.386
 11
15.6509
 21
-10.08
  0
LINE
  8
0
 10
15.6509
 20
-10.08
 11
15.5466
 21
-10.3149
  0
LINE
  8
0
 10
15.5466
 20
-10.3149
 11
15.4034
 21
-10.5285
  0
LINE
  8
0
 10
15.4034
 20
-10.5285
 11
15.2216
 21
-10.7209
  0
LINE
  8
0
 10
15.2216
 20
-10.7209
 11
15.0009
 21
-10.892
  0
LINE
  8
0
 10
15.0009
 20
-10.892
 11
14.7411
 21
-11.0324
  0
LINE
  8
0
 10
14.7411
 20
-11.0324
 11
14.4417
 21
-11.1328
  0
LINE
  8
0
 10
14.4417
 20
-11.1328
 11
14.1026
 21
-11.1929
  0
LINE
  8
0
 10
14.1026
 20
-11.1929
 11
13.7239
 21
-11.213
  0
LINE
  8
0
 10
13.7239
 20
-11.213
 11
13.2506
 21
-11.1703
  0
LINE
  8
0
 10
13.2506
 20
-11.1703
 11
12.8374
 21
-11.042
  0
LINE
  8
0
 10
12.8374
 20
-11.042
 11
12.4846
 21
-10.8283
  0
LINE
  8
0
 10
12.4846
 20
-10.8283
 11
12.1919
 21
-10.529
  0
LINE
  8
0
 10
12.1919
 20
-10.529
 11
11.9627
 21
-10.1506
  0
LINE
  8
0
 10
11.9627
 20
-10.1506
 11
11.7989
 21
-9.70026
  0
LINE
  8
0
 10
11.7989
 20
-9.70026
 11
11.7007
 21
-9.17807
  0
LINE
  8
0
 10
11.7007
 20
-9.17807
 11
11.6679
 21
-8.58401
  0
LINE
  8
0
 10
11.6679
 20
-8.58401
 11
16.9189
 21
-8.58401
  0
LINE
  8
0
 10
16.9189
 20
-8.58401
 11
16.9189
 21
-8.42101
  0
LINE
  8
0
 10
16.9189
 20
-8.42101
 11
16.7162
 21
-6.71082
  0
LINE
  8
0
 10
16.7162
 20
-6.71082
 11
16.1082
 21
-5.48926
  0
LINE
  8
0
 10
16.1082
 20
-5.48926
 11
15.0948
 21
-4.75632
  0
LINE
  8
0
 10
15.0948
 20
-4.75632
 11
13.6759
 21
-4.51201
  0
LINE
  8
0
 10
13.6759
 20
-4.51201
 11
12.9296
 21
-4.57269
  0
LINE
  8
0
 10
12.9296
 20
-4.57269
 11
12.2747
 21
-4.75476
  0
LINE
  8
0
 10
12.2747
 20
-4.75476
 11
11.7111
 21
-5.0582
  0
LINE
  8
0
 10
11.7111
 20
-5.0582
 11
11.2389
 21
-5.483
  0
LINE
  8
0
 10
11.2389
 20
-5.483
 11
10.8658
 21
-6.02107
  0
LINE
  8
0
 10
10.8658
 20
-6.02107
 11
10.5992
 21
-6.66525
  0
LINE
  8
0
 10
10.5992
 20
-6.66525
 11
10.4393
 21
-7.41557
  0
LINE
  8
0
 10
10.4393
 20
-7.41557
 11
10.3859
 21
-8.272
  0
LINE
  8
0
 10
10.3859
 20
-8.272
 11
10.4393
 21
-9.1705
  0
LINE
  8
0
 10
10.4393
 20
-9.1705
 11
10.5992
 21
-9.951
  0
LINE
  8
0
 10
10.5992
 20
-9.951
 11
10.8658
 21
-10.6135
  0
LINE
  8
0
 10
10.8658
 20
-10.6135
 11
11.2389
 21
-11.158
  0
LINE
  8
0
 10
11.2389
 20
-11.158
 11
11.7141
 21
-11.5824
  0
LINE
  8
0
 10
11.7141
 20
-11.5824
 11
12.2867
 21
-11.8855
  0
LINE
  8
0
 10
12.2867
 20
-11.8855
 11
12.9566
 21
-12.0674
  0
LINE
  8
0
 10
12.9566
 20
-12.0674
 11
13.7239
 21
-12.128
  0
LINE
  8
0
 10
13.7239
 20
-12.128
 11
14.7884
 21
-12.0191
  0
LINE
  8
0
 10
11.6809
 20
-7.64801
 11
11.7314
 21
-7.15488
  0
LINE
  8
0
 10
11.7314
 20
-7.15488
 11
11.8419
 21
-6.71751
  0
LINE
  8
0
 10
11.8419
 20
-6.71751
 11
12.0124
 21
-6.33588
  0
LINE
  8
0
 10
12.0124
 20
-6.33588
 11
12.2429
 21
-6.01001
  0
LINE
  8
0
 10
12.2429
 20
-6.01001
 11
12.5266
 21
-5.74925
  0
LINE
  8
0
 10
12.5266
 20
-5.74925
 11
12.8564
 21
-5.563
  0
LINE
  8
0
 10
12.8564
 20
-5.563
 11
13.2326
 21
-5.45126
  0
LINE
  8
0
 10
13.2326
 20
-5.45126
 11
13.6549
 21
-5.414
  0
LINE
  8
0
 10
13.6549
 20
-5.414
 11
14.0876
 21
-5.44745
  0
LINE
  8
0
 10
14.0876
 20
-5.44745
 11
14.4667
 21
-5.54776
  0
LINE
  8
0
 10
14.4667
 20
-5.54776
 11
14.7921
 21
-5.71495
  0
LINE
  8
0
 10
14.7921
 20
-5.71495
 11
15.0639
 21
-5.94901
  0
LINE
  8
0
 10
15.0639
 20
-5.94901
 11
15.2851
 21
-6.25545
  0
LINE
  8
0
 10
15.2851
 20
-6.25545
 11
15.4577
 21
-6.64076
  0
LINE
  8
0
 10
15.4577
 20
-6.64076
 11
15.5816
 21
-7.10495
  0
LINE
  8
0
 10
15.5816
 20
-7.10495
 11
15.6569
 21
-7.64801
  0
LINE
  8
0
 10
15.6569
 20
-7.64801
 11
11.6809
 21
-7.64801
  0
LINE
  8
0
 10
40.8606
 20
-14.8507
 11
41.1905
 21
-14.7627
  0
LINE
  8
0
 10
41.1905
 20
-14.7627
 11
41.4696
 21
-14.6162
  0
LINE
  8
0
 10
41.4696
 20
-14.6162
 11
41.698
 21
-14.411
  0
LINE
  8
0
 10
41.698
 20
-14.411
 11
41.876
 21
-14.1409
  0
LINE
  8
0
 10
41.876
 20
-14.1409
 11
42.0032
 21
-13.7995
  0
LINE
  8
0
 10
42.0032
 20
-13.7995
 11
42.0795
 21
-13.3869
  0
LINE
  8
0
 10
42.0795
 20
-13.3869
 11
42.105
 21
-12.903
  0
LINE
  8
0
 10
42.105
 20
-12.903
 11
42.105
 21
-4.64001
  0
LINE
  8
0
 10
42.105
 20
-4.64001
 11
40.884
 21
-4.64001
  0
LINE
  8
0
 10
40.884
 20
-4.64001
 11
40.884
 21
-12.721
  0
LINE
  8
0
 10
40.884
 20
-12.721
 11
40.8721
 21
-13.0455
  0
LINE
  8
0
 10
40.8721
 20
-13.0455
 11
40.8365
 21
-13.3122
  0
LINE
  8
0
 10
40.8365
 20
-13.3122
 11
40.7771
 21
-13.5211
  0
LINE
  8
0
 10
40.7771
 20
-13.5211
 11
40.694
 21
-13.672
  0
LINE
  8
0
 10
40.694
 20
-13.672
 11
40.5822
 21
-13.7792
  0
LINE
  8
0
 10
40.5822
 20
-13.7792
 11
40.4357
 21
-13.8557
  0
LINE
  8
0
 10
40.4357
 20
-13.8557
 11
40.2547
 21
-13.9017
  0
LINE
  8
0
 10
40.2547
 20
-13.9017
 11
40.039
 21
-13.917
  0
LINE
  8
0
 10
40.039
 20
-13.917
 11
39.62
 21
-13.876
  0
LINE
  8
0
 10
39.62
 20
-13.876
 11
39.62
 21
-14.819
  0
LINE
  8
0
 10
39.62
 20
-14.819
 11
39.8009
 21
-14.8457
  0
LINE
  8
0
 10
39.8009
 20
-14.8457
 11
40.0045
 21
-14.8647
  0
LINE
  8
0
 10
40.0045
 20
-14.8647
 11
40.2309
 21
-14.8762
  0
LINE
  8
0
 10
40.2309
 20
-14.8762
 11
40.48
 21
-14.88
  0
LINE
  8
0
 10
40.48
 20
-14.88
 11
40.8606
 21
-14.8507
  0
ENDSEC
  0
SECTION
  2
OBJECTS
  0
DICTIONARY
  0
ENDSEC
  0
EOF
